<svg width="50" height="50" viewBox="0 0 50 50" fill="none" xmlns="http://www.w3.org/2000/svg">
<path d="M32.2914 5.729C32.2914 5.3146 32.1267 4.91717 31.8337 4.62415C31.5407 4.33112 31.1433 4.1665 30.7289 4.1665C30.3145 4.1665 29.917 4.33112 29.624 4.62415C29.331 4.91717 29.1664 5.3146 29.1664 5.729V21.354C29.1664 21.7684 29.331 22.1658 29.624 22.4589C29.917 22.7519 30.3145 22.9165 30.7289 22.9165C31.1433 22.9165 31.5407 22.7519 31.8337 22.4589C32.1267 22.1658 32.2914 21.7684 32.2914 21.354V5.729ZM40.6247 5.729C40.6247 5.3146 40.4601 4.91717 40.1671 4.62415C39.874 4.33112 39.4766 4.1665 39.0622 4.1665C38.6478 4.1665 38.2504 4.33112 37.9573 4.62415C37.6643 4.91717 37.4997 5.3146 37.4997 5.729V21.354C37.4997 21.7684 37.6643 22.1658 37.9573 22.4589C38.2504 22.7519 38.6478 22.9165 39.0622 22.9165C39.4766 22.9165 39.874 22.7519 40.1671 22.4589C40.4601 22.1658 40.6247 21.7684 40.6247 21.354V5.729ZM21.7247 11.7269L19.8455 7.54775C19.2753 6.27867 18.2628 5.26043 16.997 4.6831C15.7311 4.10576 14.2985 4.00878 12.9664 4.41025L10.5351 5.14359L10.1059 5.28734C8.91769 5.72214 7.85283 6.43905 7.00292 7.37642C6.15301 8.31378 5.54349 9.44356 5.22678 10.6686C3.73303 16.4436 5.35178 23.3269 9.96637 31.3207C14.5747 39.2998 19.7184 44.1436 25.458 45.7457C26.7574 46.1079 28.1284 46.1275 29.4377 45.8025C30.7469 45.4776 31.9496 44.8192 32.9289 43.8915L34.7768 42.1436C35.7844 41.1893 36.4114 39.9017 36.5413 38.52C36.6712 37.1383 36.2952 35.7564 35.483 34.6311L32.8143 30.9332C32.1143 29.9636 31.1284 29.2374 29.9949 28.8563C28.8614 28.4752 27.637 28.4584 26.4934 28.8082L22.3059 30.0873C22.1872 30.1228 21.9101 30.0248 21.4039 29.579C20.681 28.9373 19.8309 27.7957 18.8914 26.1686C17.5997 23.929 17.0372 22.3186 17.1309 21.4915C17.1443 21.3682 17.2012 21.2537 17.2914 21.1686L20.4059 18.2644C21.2806 17.4487 21.8781 16.3797 22.1146 15.2073C22.3511 14.0349 22.2148 12.8179 21.7247 11.7269ZM11.4372 8.13525L13.8685 7.404C14.4736 7.22196 15.1242 7.26614 15.6992 7.52831C16.2741 7.79049 16.7341 8.25277 16.9934 8.829L18.8726 13.0082C19.0954 13.5038 19.1575 14.0568 19.0503 14.5895C18.9431 15.1223 18.6719 15.6081 18.2747 15.979L15.1601 18.8832C14.524 19.477 14.1213 20.2788 14.0247 21.1436C13.8372 22.8144 14.583 24.9582 16.1851 27.7311C18.5601 31.8457 20.7705 33.8061 23.208 33.079L27.4059 31.7957C27.9261 31.6363 28.4831 31.6439 28.9987 31.8172C29.5143 31.9906 29.9627 32.3211 30.2809 32.7623L32.9476 36.4603C33.3173 36.9719 33.4886 37.6004 33.4296 38.2289C33.3706 38.8574 33.0853 39.443 32.6268 39.8769L30.7809 41.6248C30.1931 42.1813 29.4712 42.576 28.6855 42.7706C27.8999 42.9652 27.0772 42.953 26.2976 42.7353C21.4705 41.3873 16.9101 37.0957 12.6726 29.7561C8.43095 22.4103 6.99553 16.3082 8.25178 11.4519C8.43816 10.7298 8.79416 10.0625 9.29021 9.50563C9.78625 8.94871 10.408 8.51819 11.1039 8.24984L11.4372 8.13525Z" fill="#878787"/>
</svg>
