<svg width="50" height="50" viewBox="0 0 50 50" fill="none" xmlns="http://www.w3.org/2000/svg">
<path d="M26.1662 43.375C25.8257 43.618 25.4179 43.7486 24.9995 43.7486C24.5812 43.7486 24.1734 43.618 23.8329 43.375C13.7725 36.2042 3.09538 21.4542 13.8891 10.7958C16.8513 7.87941 20.8426 6.24638 24.9995 6.25001C29.1662 6.25001 33.1641 7.88542 36.11 10.7938C46.9037 21.4521 36.2266 36.2 26.1662 43.375Z" stroke="#878787" stroke-width="2.5" stroke-linecap="round" stroke-linejoin="round"/>
<path d="M25.0026 25.0003C26.1077 25.0003 27.1675 24.5613 27.9489 23.7799C28.7303 22.9985 29.1693 21.9387 29.1693 20.8337C29.1693 19.7286 28.7303 18.6688 27.9489 17.8874C27.1675 17.106 26.1077 16.667 25.0026 16.667C23.8975 16.667 22.8377 17.106 22.0563 17.8874C21.2749 18.6688 20.8359 19.7286 20.8359 20.8337C20.8359 21.9387 21.2749 22.9985 22.0563 23.7799C22.8377 24.5613 23.8975 25.0003 25.0026 25.0003Z" stroke="#878787" stroke-width="2.5" stroke-linecap="round" stroke-linejoin="round"/>
</svg>
