<svg width="40" height="40" viewBox="0 0 40 40" fill="none" xmlns="http://www.w3.org/2000/svg">
<rect width="40" height="40" rx="20" fill="white"/>
<rect width="40" height="40" rx="20" fill="url(#paint0_linear_570_14945)"/>
<path d="M13 11.25C12.0717 11.25 11.1815 11.6187 10.5251 12.2751C9.86875 12.9315 9.5 13.8217 9.5 14.75V15.1018L20 20.756L30.5 15.1035V14.75C30.5 13.8217 30.1313 12.9315 29.4749 12.2751C28.8185 11.6187 27.9283 11.25 27 11.25H13ZM30.5 17.0897L20.4148 22.52C20.2873 22.5886 20.1448 22.6245 20 22.6245C19.8552 22.6245 19.7127 22.5886 19.5852 22.52L9.5 17.0897V25.25C9.5 26.1783 9.86875 27.0685 10.5251 27.7249C11.1815 28.3813 12.0717 28.75 13 28.75H27C27.9283 28.75 28.8185 28.3813 29.4749 27.7249C30.1313 27.0685 30.5 26.1783 30.5 25.25V17.0897Z" fill="white"/>
<defs>
<linearGradient id="paint0_linear_570_14945" x1="0" y1="20" x2="40" y2="20" gradientUnits="userSpaceOnUse">
<stop stop-color="#FF3934"/>
<stop offset="1" stop-color="#FF7033"/>
</linearGradient>
</defs>
</svg>
