<svg width="500" height="500" viewBox="0 0 500 500" fill="none" xmlns="http://www.w3.org/2000/svg">
<path d="M455.293 279.897C464.302 250.963 468.721 220.463 469.181 191.218C469.667 160.273 466.306 126.805 445.82 103.606C425.784 80.9161 393.634 73.1641 363.393 71.8491C351.143 71.3161 338.636 71.6731 327.007 75.5601C303.525 83.4091 287.064 104.221 266.237 117.609C226.028 143.455 171.7 140.396 133.045 168.513C123.112 175.738 114.588 184.818 107.556 194.889C79.3754 235.252 77.1764 291.168 98.6814 335.45C120.186 379.731 163.448 411.855 211.249 423.62C259.05 435.384 310.648 427.681 354.936 406.188C406.564 381.132 438.707 333.168 455.293 279.897Z" fill="#FF4933"/>
<path opacity="0.7" d="M455.293 279.897C464.302 250.963 468.721 220.463 469.181 191.218C469.667 160.273 466.306 126.805 445.82 103.606C425.784 80.9161 393.634 73.1641 363.393 71.8491C351.143 71.3161 338.636 71.6731 327.007 75.5601C303.525 83.4091 287.064 104.221 266.237 117.609C226.028 143.455 171.7 140.396 133.045 168.513C123.112 175.738 114.588 184.818 107.556 194.889C79.3754 235.252 77.1764 291.168 98.6814 335.45C120.186 379.731 163.448 411.855 211.249 423.62C259.05 435.384 310.648 427.681 354.936 406.188C406.564 381.132 438.707 333.168 455.293 279.897Z" fill="white"/>
<path d="M383.973 93.6629V296.183C383.973 302.203 379.093 307.083 373.063 307.083H102.953C101.903 307.083 100.883 306.933 99.9227 306.653C95.3727 305.343 92.0527 301.153 92.0527 296.183V93.6629C92.0527 87.6329 96.9327 82.7529 102.953 82.7529H373.063C379.093 82.7529 383.973 87.6329 383.973 93.6629Z" fill="white"/>
<path d="M383.973 99.923V296.183C383.973 302.203 379.093 307.083 373.063 307.083H102.953C101.903 307.083 100.883 306.933 99.9229 306.653L383.973 99.923Z" fill="#263238"/>
<path opacity="0.9" d="M383.973 99.923V296.183C383.973 302.203 379.093 307.083 373.063 307.083H102.953C101.903 307.083 100.883 306.933 99.9229 306.653L383.973 99.923Z" fill="white"/>
<path d="M309.103 209.553L323.813 202.913L320.673 185.313L304.463 184.013C302.423 178.583 299.683 173.433 296.313 168.713L301.403 160.093L304.663 154.563L292.043 142.033L277.903 150.523C269.783 144.923 260.563 141.123 250.853 139.373L246.783 123.173H228.903L224.713 139.493C219.203 140.593 213.833 142.323 208.703 144.643L195.893 133.603L181.273 143.563L187.353 159.343C183.483 163.353 180.143 167.833 177.393 172.673L160.563 170.973L154.513 187.773L168.423 197.223C167.743 201.163 167.413 205.163 167.433 209.163C167.323 210.813 167.323 212.463 167.433 214.113L152.723 222.373L157.393 239.573H174.003C175.593 243.003 177.463 246.283 179.583 249.413C180.663 251.013 181.813 252.573 183.023 254.083L175.863 268.903L189.583 280.413L202.823 270.493C207.863 273.403 213.233 275.673 218.833 277.253L221.493 293.263L239.313 294.843L244.663 279.743C250.493 279.153 256.243 277.883 261.773 275.953L273.093 287.263L288.593 278.323L284.323 262.903C288.823 259.133 292.833 254.793 296.253 250.013L311.953 252.833L319.513 236.653L307.173 226.703C308.503 221.083 309.153 215.333 309.103 209.553ZM268.343 209.553C268.343 226.303 254.763 239.883 238.013 239.883C227.113 239.883 217.553 234.133 212.203 225.493C209.333 220.863 207.683 215.393 207.683 209.553C207.683 192.813 221.263 179.233 238.013 179.233C246.353 179.233 253.903 182.603 259.393 188.043C259.943 188.593 260.473 189.153 260.963 189.743C265.523 195.013 268.303 201.863 268.343 209.363V209.553Z" fill="#FF4933" stroke="#263238" stroke-miterlimit="10"/>
<path opacity="0.2" d="M307.172 226.703L319.512 236.653L311.952 252.833L296.252 250.013C292.832 254.793 288.822 259.133 284.322 262.903L288.592 278.323L273.092 287.263L261.772 275.953C256.242 277.883 250.492 279.153 244.662 279.743L239.312 294.843L221.492 293.263L218.832 277.253C213.232 275.673 207.862 273.403 202.822 270.493L189.582 280.413L175.862 268.903L183.022 254.083C181.812 252.573 180.662 251.013 179.582 249.413L212.202 225.493C217.552 234.133 227.112 239.883 238.012 239.883C254.762 239.883 268.342 226.303 268.342 209.553V209.363C268.302 201.863 265.522 195.013 260.962 189.743L301.402 160.093L296.312 168.713C299.682 173.433 302.422 178.583 304.462 184.013L320.672 185.313L323.812 202.913L309.102 209.553C309.152 215.333 308.502 221.083 307.172 226.703Z" fill="black"/>
<path d="M370.409 162.788L371.149 162.448C372 162.074 372.481 161.162 372.309 160.248L372.159 159.348C372.008 158.432 371.246 157.74 370.319 157.678L369.429 157.608C368.711 157.555 368.077 157.119 367.769 156.468C367.529 155.958 367.269 155.468 366.989 154.988C366.632 154.369 366.632 153.607 366.989 152.988L367.449 152.208C367.909 151.406 367.778 150.396 367.129 149.738L366.489 149.098C365.834 148.431 364.804 148.306 364.009 148.798L363.219 149.268C362.6 149.625 361.838 149.625 361.219 149.268C359.943 148.534 358.574 147.976 357.149 147.608C356.437 147.423 355.884 146.862 355.709 146.148L355.479 145.218C355.261 144.296 354.426 143.653 353.479 143.678H352.579C351.635 143.652 350.801 144.29 350.579 145.208L350.329 146.208C350.153 146.907 349.614 147.457 348.919 147.648C348.419 147.788 347.919 147.938 347.449 148.118C346.765 148.368 345.998 148.226 345.449 147.748L344.649 147.058C343.959 146.452 342.944 146.394 342.189 146.918L341.479 147.398C340.69 147.922 340.377 148.928 340.729 149.808L341.089 150.748C341.356 151.422 341.237 152.187 340.779 152.748C340.459 153.129 340.159 153.527 339.879 153.938C339.464 154.545 338.75 154.875 338.019 154.798L337.019 154.708C336.092 154.605 335.216 155.157 334.909 156.038L334.589 156.918C334.27 157.773 334.57 158.736 335.319 159.258L336.239 159.908C336.828 160.322 337.149 161.021 337.079 161.738C337.022 162.259 336.996 162.784 336.999 163.308C336.974 164.007 336.598 164.647 335.999 165.008L335.059 165.528C334.222 165.965 333.805 166.928 334.059 167.838L334.289 168.708C334.523 169.614 335.353 170.238 336.289 170.208H337.289C338.01 170.202 338.678 170.584 339.039 171.208C339.309 171.688 339.599 172.148 339.909 172.598C340.314 173.19 340.371 173.953 340.059 174.598L339.649 175.448C339.234 176.285 339.454 177.298 340.179 177.888L340.869 178.468C341.577 179.075 342.609 179.112 343.359 178.558L344.069 178.058C344.653 177.64 345.417 177.568 346.069 177.868C346.576 178.108 347.096 178.328 347.629 178.528C348.297 178.778 348.78 179.365 348.899 180.068L349.049 180.938C349.2 181.854 349.962 182.546 350.889 182.608L351.809 182.688C352.731 182.774 353.592 182.215 353.889 181.338L354.169 180.558C354.409 179.872 355.003 179.371 355.719 179.248C356.285 179.159 356.846 179.039 357.399 178.888C358.094 178.703 358.835 178.905 359.339 179.418L359.929 180.018C360.572 180.68 361.584 180.816 362.379 180.348L363.169 179.898C364.006 179.461 364.423 178.497 364.169 177.588L363.949 176.808C363.735 176.098 363.932 175.329 364.459 174.808C364.869 174.398 365.269 173.968 365.639 173.518C366.105 172.961 366.836 172.701 367.549 172.838L368.349 172.988C369.261 173.168 370.177 172.696 370.559 171.848L370.939 171.028C371.345 170.182 371.108 169.167 370.369 168.588L369.769 168.098C369.208 167.655 368.925 166.946 369.029 166.238C369.127 165.642 369.19 165.041 369.219 164.438C369.285 163.712 369.741 163.08 370.409 162.788ZM363.229 163.307C363.229 168.907 358.689 173.447 353.089 173.447C347.489 173.447 342.949 168.907 342.949 163.307C342.949 157.707 347.489 153.167 353.089 153.167C358.665 153.162 363.192 157.671 363.209 163.247L363.229 163.307Z" fill="#FF4933" stroke="#263238" stroke-miterlimit="10"/>
<path d="M383.976 93.6649V94.2149H92.0557V93.6649C92.0557 87.6349 96.9357 82.7549 102.956 82.7549H373.066C379.096 82.7549 383.976 87.6349 383.976 93.6649Z" fill="#263238"/>
<path d="M383.976 93.6649V296.185C383.976 302.205 379.096 307.085 373.066 307.085H102.956C96.9357 307.085 92.0557 302.205 92.0557 296.185V93.6649C92.0557 87.6349 96.9357 82.7549 102.956 82.7549H373.066C379.096 82.7549 383.976 87.6349 383.976 93.6649Z" stroke="#263238" stroke-miterlimit="10" stroke-linecap="round" stroke-linejoin="round"/>
<path d="M92.0557 93.6649H383.976" stroke="#263238" stroke-miterlimit="10" stroke-linecap="round" stroke-linejoin="round"/>
<path d="M116.393 88.4849C116.393 89.7069 115.403 90.6969 114.181 90.6969C112.959 90.6969 111.969 89.7069 111.969 88.4849C111.969 87.2629 112.959 86.2729 114.181 86.2729C115.403 86.2729 116.393 87.2629 116.393 88.4849Z" fill="#FF4933"/>
<path d="M126.874 88.4849C126.874 89.7069 125.884 90.6969 124.662 90.6969C123.44 90.6969 122.45 89.7069 122.45 88.4849C122.45 87.2629 123.44 86.2729 124.662 86.2729C125.883 86.2729 126.874 87.2629 126.874 88.4849Z" fill="#FF4933"/>
<path d="M137.354 88.4849C137.354 89.7069 136.364 90.6969 135.142 90.6969C133.92 90.6969 132.93 89.7069 132.93 88.4849C132.93 87.2629 133.92 86.2729 135.142 86.2729C136.364 86.2729 137.354 87.2629 137.354 88.4849Z" fill="#FF4933"/>
<path d="M284.638 209.558C284.638 235.168 263.877 255.929 238.267 255.929C212.657 255.929 191.896 235.168 191.896 209.558C191.896 183.948 212.657 163.187 238.267 163.187C263.763 163.187 284.477 183.769 284.638 209.264V209.558Z" stroke="#263238" stroke-width="4" stroke-miterlimit="10"/>
<path d="M456.754 163.465H291.719C285.697 163.465 280.815 158.583 280.815 152.561V115.928C280.815 109.906 285.697 105.024 291.719 105.024H456.753C462.775 105.024 467.657 109.906 467.657 115.928V152.561C467.657 158.583 462.775 163.465 456.754 163.465Z" fill="white" stroke="#263238" stroke-miterlimit="10"/>
<path d="M313.52 133.982H440.85" stroke="#263238" stroke-miterlimit="10"/>
<path d="M309.55 133.982L329.659 119.808H380.869L401.766 133.982" stroke="#263238" stroke-miterlimit="10"/>
<path d="M405.735 133.982C405.735 136.174 403.958 137.951 401.766 137.951C399.574 137.951 397.797 136.174 397.797 133.982C397.797 131.79 399.574 130.013 401.766 130.013C403.958 130.013 405.735 131.79 405.735 133.982Z" fill="#FF4933" stroke="#263238" stroke-miterlimit="10"/>
<path d="M329.66 123.777C331.852 123.777 333.629 122 333.629 119.808C333.629 117.616 331.852 115.839 329.66 115.839C327.468 115.839 325.691 117.616 325.691 119.808C325.691 122 327.468 123.777 329.66 123.777Z" fill="#FF4933" stroke="#263238" stroke-miterlimit="10"/>
<path d="M384.839 119.808C384.839 122 383.062 123.777 380.87 123.777C378.678 123.777 376.901 122 376.901 119.808C376.901 117.616 378.678 115.839 380.87 115.839C383.062 115.839 384.839 117.616 384.839 119.808Z" fill="#FF4933" stroke="#263238" stroke-miterlimit="10"/>
<path d="M309.55 133.982L329.659 148.155H424.047L440.849 133.982" stroke="#263238" stroke-miterlimit="10"/>
<path d="M364.377 148.155C364.377 150.347 362.6 152.124 360.408 152.124C358.216 152.124 356.439 150.347 356.439 148.155C356.439 145.963 358.216 144.186 360.408 144.186C362.6 144.186 364.377 145.963 364.377 148.155Z" fill="#FF4933" stroke="#263238" stroke-miterlimit="10"/>
<path d="M333.629 148.155C333.629 150.347 331.852 152.124 329.66 152.124C327.468 152.124 325.691 150.347 325.691 148.155C325.691 145.963 327.468 144.186 329.66 144.186C331.852 144.186 333.629 145.963 333.629 148.155Z" fill="#FF4933" stroke="#263238" stroke-miterlimit="10"/>
<path d="M428.016 148.155C428.016 150.347 426.239 152.124 424.047 152.124C421.855 152.124 420.078 150.347 420.078 148.155C420.078 145.963 421.855 144.186 424.047 144.186C426.239 144.186 428.016 145.963 428.016 148.155Z" fill="#FF4933" stroke="#263238" stroke-miterlimit="10"/>
<path d="M440.849 137.951C443.041 137.951 444.818 136.174 444.818 133.982C444.818 131.79 443.041 130.013 440.849 130.013C438.657 130.013 436.88 131.79 436.88 133.982C436.88 136.174 438.657 137.951 440.849 137.951Z" fill="#FF4933" stroke="#263238" stroke-miterlimit="10"/>
<path d="M313.519 133.982C313.519 136.174 311.742 137.951 309.55 137.951C307.358 137.951 305.581 136.174 305.581 133.982C305.581 131.79 307.358 130.013 309.55 130.013C311.742 130.013 313.519 131.79 313.519 133.982Z" fill="#FF4933" stroke="#263238" stroke-miterlimit="10"/>
<path d="M193.735 344.993H98.6621C92.6401 344.993 87.7581 340.111 87.7581 334.089V239.016C87.7581 232.994 92.6401 228.112 98.6621 228.112H193.734C199.756 228.112 204.638 232.994 204.638 239.016V334.089C204.638 340.112 199.757 344.993 193.735 344.993Z" fill="white" stroke="#263238" stroke-miterlimit="10"/>
<path d="M131.588 294.844L116.449 324.264H185.062" stroke="#263238" stroke-miterlimit="10" stroke-linecap="round" stroke-linejoin="round"/>
<path d="M185.062 250.387L153.041 271.674L185.062 281.307" stroke="#263238" stroke-miterlimit="10" stroke-linecap="round" stroke-linejoin="round"/>
<path d="M192.632 242.817H177.492V257.957H192.632V242.817Z" fill="#FF4933" stroke="#263238" stroke-miterlimit="10"/>
<path d="M192.632 273.737H177.492V288.877H192.632V273.737Z" fill="#FF4933" stroke="#263238" stroke-miterlimit="10"/>
<path d="M160.611 264.104H145.471V279.244H160.611V264.104Z" fill="#FF4933" stroke="#263238" stroke-miterlimit="10"/>
<path d="M139.158 287.274H124.018V302.414H139.158V287.274Z" fill="#FF4933" stroke="#263238" stroke-miterlimit="10"/>
<path d="M124.019 316.694H108.879V331.834H124.019V316.694Z" fill="#FF4933" stroke="#263238" stroke-miterlimit="10"/>
<path d="M192.632 316.694H177.492V331.834H192.632V316.694Z" fill="#FF4933" stroke="#263238" stroke-miterlimit="10"/>
<path d="M138.319 299.185H43.246C37.224 299.185 32.342 294.303 32.342 288.281V193.209C32.342 187.187 37.224 182.305 43.246 182.305H138.318C144.34 182.305 149.222 187.187 149.222 193.209V288.281C149.223 294.303 144.341 299.185 138.319 299.185Z" fill="white" stroke="#263238" stroke-miterlimit="10"/>
<path d="M122.45 193.615H44.7024V199.639H122.45V193.615Z" fill="#FF4933"/>
<path d="M89.6194 203.53H44.7024V209.554H89.6194V203.53Z" fill="#FF4933"/>
<path d="M70.8664 213.446H44.7024V219.47H70.8664V213.446Z" fill="#FF4933"/>
<path d="M87.7594 223.361H44.7024V229.385H87.7594V223.361Z" fill="#FF4933"/>
<path d="M111.821 233.277H44.7024V239.301H111.821V233.277Z" fill="#FF4933"/>
<path d="M89.6194 243.192H44.7024V249.216H89.6194V243.192Z" fill="#FF4933"/>
<path d="M76.0394 253.107H44.7024V259.131H76.0394V253.107Z" fill="#FF4933"/>
<path d="M95.4394 263.023H44.7024V269.047H95.4394V263.023Z" fill="#FF4933"/>
<path d="M106.217 272.938H44.7024V278.962H106.217V272.938Z" fill="#FF4933"/>
<path d="M122.45 282.853H44.7024V288.877H122.45V282.853Z" fill="#FF4933"/>
<path opacity="0.3" d="M122.45 193.615H44.7024V199.639H122.45V193.615Z" fill="black"/>
<path opacity="0.3" d="M89.6194 203.53H44.7024V209.554H89.6194V203.53Z" fill="black"/>
<path opacity="0.3" d="M70.8664 213.446H44.7024V219.47H70.8664V213.446Z" fill="black"/>
<path opacity="0.3" d="M87.7594 223.361H44.7024V229.385H87.7594V223.361Z" fill="black"/>
<path opacity="0.3" d="M111.821 233.277H44.7024V239.301H111.821V233.277Z" fill="black"/>
<path opacity="0.3" d="M89.6194 243.192H44.7024V249.216H89.6194V243.192Z" fill="black"/>
<path opacity="0.3" d="M76.0394 253.107H44.7024V259.131H76.0394V253.107Z" fill="black"/>
<path opacity="0.3" d="M95.4394 263.023H44.7024V269.047H95.4394V263.023Z" fill="black"/>
<path opacity="0.3" d="M106.217 272.938H44.7024V278.962H106.217V272.938Z" fill="black"/>
<path opacity="0.3" d="M122.45 282.853H44.7024V288.877H122.45V282.853Z" fill="black"/>
<path d="M123.063 172.033H94.7714C91.9264 172.033 89.6204 174.339 89.6204 177.185V182.306H128.215V177.185C128.214 174.339 125.908 172.033 123.063 172.033Z" fill="white" stroke="#263238" stroke-miterlimit="10"/>
<path d="M103.597 172.033H75.6406C72.7026 172.033 70.3206 174.415 70.3206 177.353V182.305H108.916V177.353C108.917 174.414 106.535 172.033 103.597 172.033Z" fill="#FF4933" stroke="#263238" stroke-miterlimit="10"/>
<path d="M82.7793 172.033H54.1423C51.3923 172.033 49.1633 174.262 49.1633 177.012V182.305H87.7583V177.012C87.7583 174.262 85.5293 172.033 82.7793 172.033Z" fill="white" stroke="#263238" stroke-miterlimit="10"/>
<path d="M418.27 386.308H439.514" stroke="#263238" stroke-miterlimit="10" stroke-linecap="round" stroke-linejoin="round"/>
<path d="M83.5759 386.308H407.088" stroke="#263238" stroke-miterlimit="10" stroke-linecap="round" stroke-linejoin="round"/>
<path d="M412.433 373.86C412.433 373.86 416.201 370.781 417.992 374.148C419.541 377.061 415.833 380.315 411.612 380.312V382.771C411.612 382.771 420.661 383.012 421.365 375.391C422.069 367.77 412.433 369.874 412.433 369.874V373.86Z" fill="#FF4933" stroke="#263238" stroke-linecap="round" stroke-linejoin="round"/>
<path d="M412.124 386.261H393.997L391.28 363.498H414.85L412.124 386.261Z" fill="#FF4933" stroke="#263238" stroke-linecap="round" stroke-linejoin="round"/>
<path d="M391.314 362.409H414.808C415.494 362.409 416.05 362.965 416.05 363.651V363.77C416.05 364.456 415.494 365.012 414.808 365.012H391.314C390.628 365.012 390.072 364.456 390.072 363.77V363.651C390.072 362.965 390.628 362.409 391.314 362.409Z" fill="white" stroke="#263238" stroke-linecap="round" stroke-linejoin="round"/>
<path d="M399.98 359.929C399.98 359.929 408.32 354.929 405.6 349.189C402.88 343.449 393.68 339.669 393.68 330.739C393.68 323.049 401.86 320.199 407.2 317.119" stroke="#263238" stroke-linecap="round" stroke-linejoin="round"/>
<path d="M402.725 322.555C400.557 324.026 399.009 326.381 398.519 328.955C398.029 331.528 398.602 334.288 400.077 336.453" stroke="#263238" stroke-linecap="round" stroke-linejoin="round"/>
<path d="M407.263 345.245C408.916 348.397 409.384 352.152 408.558 355.614" stroke="#263238" stroke-linecap="round" stroke-linejoin="round"/>
<path d="M183.982 384.421C183.982 384.421 183.602 377.891 177.842 375.591C172.082 373.291 169.002 374.241 156.142 377.701C148.038 379.821 139.738 381.107 131.372 381.541V384.421H183.982Z" fill="white" stroke="#263238" stroke-linecap="round" stroke-linejoin="round"/>
<path d="M183.772 384.421C183.772 384.421 184.152 377.891 189.912 375.591C195.672 373.291 198.742 374.241 211.612 377.701C219.713 379.821 228.01 381.107 236.372 381.541V384.421H183.772Z" fill="white" stroke="#263238" stroke-linecap="round" stroke-linejoin="round"/>
<path d="M238.512 383.271H130.032V385.381H238.512V383.271Z" fill="#263238" stroke="#263238" stroke-linecap="round" stroke-linejoin="round"/>
<path d="M186.574 384.304C187.588 381.227 189.977 378.632 192.96 377.367" stroke="#263238" stroke-linecap="round" stroke-linejoin="round"/>
<path d="M189.858 383.845C191.364 381.195 194.078 379.264 197.076 378.71C200.665 378.047 204.314 379.282 207.696 380.654C211.078 382.027 216.954 383.833 220.604 383.844" stroke="#263238" stroke-linecap="round" stroke-linejoin="round"/>
<path d="M152.293 383.244C155.881 382.863 159.414 381.978 162.757 380.621C164.82 379.784 166.824 378.764 168.987 378.238C171.15 377.712 173.559 377.732 175.46 378.89C176.33 379.42 177.052 380.161 177.686 380.958C178.543 382.036 179.254 383.229 179.793 384.496" stroke="#263238" stroke-linecap="round" stroke-linejoin="round"/>
<path d="M172.131 380.31C173.3 380.432 174.361 381.091 175.185 381.929C176.009 382.767 176.628 383.782 177.239 384.786" stroke="#263238" stroke-linecap="round" stroke-linejoin="round"/>
<path d="M266.148 383.378C266.148 383.378 260.209 386.308 253.496 386.308C246.783 386.308 233.092 372.418 233.092 372.418C233.092 372.418 232.596 370.918 233.664 365.324C234.732 359.731 244.773 308.381 244.773 308.381C244.773 308.381 245.961 296.433 252.751 289.098C259.542 281.763 272.868 279.154 272.868 279.154C272.868 279.154 302.35 266.313 318.88 270.278C335.435 276.844 353.437 283.504 359.461 288.671C365.485 293.837 380.29 335.282 385.419 356.595C385.419 356.595 374.118 380.602 363.584 387.35C353.049 394.098 327.595 391.893 327.595 391.893L266.148 383.378Z" fill="#FF4933"/>
<path opacity="0.3" d="M262.407 341.651L258.148 285.062C258.148 285.062 249.198 288.148 246.985 298.265C244.772 308.381 231.458 370.682 233.091 372.418C234.724 374.154 243.439 381.595 243.439 381.595C243.439 381.595 252.811 389.61 262.407 384.822C272.002 380.032 262.407 341.651 262.407 341.651Z" fill="black"/>
<path opacity="0.3" d="M304.725 290.304C304.226 291.997 302.104 292.537 300.338 292.561C295.309 292.632 290.277 290.795 286.476 287.503C285.771 286.893 273.268 294.614 271.827 295.388C269.56 296.605 267.332 297.954 265.021 299.084C262.859 300.141 260.824 300.668 259.413 302.811C258.407 304.338 257.861 306.114 257.328 307.863C254.299 317.789 251.098 327.691 248.341 337.688C245.955 346.338 242.734 355.924 242.872 365.005C242.882 365.655 242.905 366.303 243.011 366.946C244.914 378.555 266.147 383.378 266.147 383.378C266.147 383.378 258.645 387.972 253.495 386.308C248.345 384.644 236.386 377.773 232.607 371.352L243.011 316.909C243.011 316.909 242.881 290.712 261.782 282.882C280.683 275.051 288.112 273.913 288.112 273.913L304.725 290.304Z" fill="black"/>
<path opacity="0.3" d="M374.492 375.882C374.492 375.882 382.745 366.758 385.418 356.597C385.418 356.597 372.757 314.884 369.502 307.085C366.247 299.285 360.913 290.363 357.184 286.555L351.142 372.419L349.871 390.483C349.871 390.483 356.635 390.772 361.386 388.54C366.137 386.308 374.492 375.882 374.492 375.882Z" fill="black"/>
<path d="M349.871 390.482L357.185 286.554C357.185 286.554 321.772 270.003 312.534 268.463C303.296 266.923 258.261 284.63 258.261 284.63L264.805 384.324" stroke="#263238" stroke-miterlimit="10" stroke-linecap="round" stroke-linejoin="round"/>
<path d="M286.027 217.702L282.387 235.142C282.387 235.142 277.728 231.852 276.738 235.572C275.748 239.292 278.78 244.409 284.638 244.692C284.638 244.692 286.232 252.588 291.417 257.956C296.602 263.324 299.16 265.378 299.16 265.378C299.16 265.378 301.206 278.62 307.891 279.124C314.576 279.628 315.889 273.603 317.241 265.234C317.241 265.234 323.019 255.206 324.706 249.785C324.706 249.785 331.802 244.839 327.068 237.615C327.068 237.615 329.412 220.36 325.341 217.44C321.273 214.522 293.127 216.029 286.027 217.702Z" fill="white"/>
<path d="M307.624 280.508C307.624 280.508 305.373 291.815 303.979 292.104C302.585 292.393 297.044 287.102 292.206 280.508C287.368 273.914 288.112 273.913 288.112 273.913C288.112 273.913 290.356 265.266 292.206 264.003C294.056 262.74 300.701 262.902 300.701 262.902L315.28 262.345C315.28 262.345 320.175 261.651 323.133 263.584C326.091 265.517 327.593 273.913 327.593 273.913C327.593 273.913 318.883 290.03 311.726 292.104C311.726 292.104 309.489 286.97 307.624 280.508Z" fill="white"/>
<path d="M259.856 365.424L261.782 338.301" stroke="#263238" stroke-miterlimit="10"/>
<path d="M327.593 222.712C327.593 222.712 319.321 225.918 312.004 225.301C312.004 225.301 304.276 233.085 294.388 228.457C294.388 228.457 285.468 252.611 305.917 268.41C305.917 268.41 289.504 263.122 284.638 244.692C284.638 244.692 278.826 245.601 276.738 236.899C276.738 236.899 275.057 233.551 282.724 233.529L282.387 216.725L302.087 220.674L316.221 218.611L327.593 222.712Z" fill="#FF4933"/>
<path opacity="0.4" d="M327.593 222.712C327.593 222.712 319.321 225.918 312.004 225.301C312.004 225.301 304.276 233.085 294.388 228.457C294.388 228.457 287.182 254.316 305.082 267.975C305.082 267.975 288.854 262.345 284.638 244.692C284.638 244.692 278.864 244.078 276.738 236.899C276.738 236.899 275.057 233.551 282.724 233.529L282.387 216.725L302.087 220.674L316.221 218.611L327.593 222.712Z" fill="white"/>
<path d="M305.082 256.188C305.726 256.705 306.401 257.186 307.101 257.627C307.557 257.914 308.244 258.15 308.568 257.726C308.694 257.562 308.713 257.345 308.726 257.14C309.02 252.367 307.908 247.552 308.588 242.817" stroke="#263238" stroke-miterlimit="10" stroke-linecap="round" stroke-linejoin="round"/>
<path d="M311.717 240.107C311.717 240.107 314.088 234.878 320.201 239.576" stroke="#263238" stroke-width="2" stroke-miterlimit="10" stroke-linecap="round" stroke-linejoin="round"/>
<path d="M304.037 241.074C304.037 241.074 299.57 235.513 294.027 241.246" stroke="#263238" stroke-width="2" stroke-miterlimit="10" stroke-linecap="round" stroke-linejoin="round"/>
<path d="M298.003 264.548C298.003 264.548 300.385 278.804 308.777 279.236C315.587 279.586 316.919 267.802 317.18 263.584" stroke="#263238" stroke-miterlimit="10" stroke-linecap="round" stroke-linejoin="round"/>
<path d="M283.542 236.732C283.542 236.732 279.839 232.313 277.331 234.472C274.823 236.631 278.581 246.135 284.639 244.693" stroke="#263238" stroke-miterlimit="10" stroke-linecap="round" stroke-linejoin="round"/>
<path d="M299.556 257.957C299.556 257.957 302.06 261.309 306.673 262.345" stroke="#263238" stroke-miterlimit="10" stroke-linecap="round" stroke-linejoin="round"/>
<path d="M299.161 249.683C299.692 249.683 300.122 248.769 300.122 247.642C300.122 246.515 299.692 245.601 299.161 245.601C298.63 245.601 298.2 246.515 298.2 247.642C298.2 248.769 298.63 249.683 299.161 249.683Z" fill="#263238"/>
<path d="M315.713 247.642C315.713 248.769 315.283 249.683 314.752 249.683C314.221 249.683 313.791 248.769 313.791 247.642C313.791 246.515 314.221 245.601 314.752 245.601C315.282 245.601 315.713 246.515 315.713 247.642Z" fill="#263238"/>
<path d="M307.893 279.125C307.893 279.125 305.558 291.818 303.98 292.104C302.402 292.391 290.463 281.541 288.113 273.913C288.113 273.913 290.644 263.946 292.939 263.584C294.041 263.41 295.299 263.246 296.308 263.122" stroke="#263238" stroke-miterlimit="10" stroke-linecap="round" stroke-linejoin="round"/>
<path d="M307.893 279.125C307.893 279.125 310.149 291.818 311.727 292.104C313.305 292.391 325.244 281.541 327.594 273.913C327.594 273.913 324.74 264.017 322.57 263.185C320.379 262.345 318.316 261.972 318.316 261.972" stroke="#263238" stroke-miterlimit="10" stroke-linecap="round" stroke-linejoin="round"/>
<path d="M285.781 247.894C287.314 250.548 289.222 241.173 288.412 238.217C287.871 236.242 286.808 234.381 286.716 232.336C286.614 230.062 287.722 227.939 288.524 225.809C289.326 223.679 289.795 221.141 288.546 219.239C292.911 222.428 298.134 224.137 303.519 224.618C304.897 224.741 306.324 224.762 307.621 224.28C308.918 223.798 310.069 222.72 310.289 221.354C315.333 221.997 320.337 222.657 325.375 221.972C329.596 221.398 336.162 220.329 338.334 216.019C341.51 209.717 333.324 203.18 328.499 200.978C316.802 195.641 301.089 194.742 290.555 203.111C289.436 204 288.379 204.976 287.168 205.734C284.841 207.192 279.553 208.321 277.703 210.349C275.214 213.078 278.336 234.16 278.336 234.16C278.336 234.16 282.389 232.282 284.069 238.558C285.207 242.815 284.228 245.204 285.781 247.894Z" fill="#263238"/>
<path d="M323.982 220.61C323.916 220.879 323.869 221.146 323.85 221.41C323.674 223.791 324.093 226.193 324.688 228.49C324.954 229.518 325.334 230.523 325.497 231.564C325.889 234.068 325.883 236.478 327.729 238.509C327.729 238.509 331.271 226.138 329.845 217.301C329.68 216.277 329.352 213.703 327.789 214.179C326.647 214.526 325.823 216.493 325.344 217.442C324.855 218.41 324.252 219.518 323.982 220.61Z" fill="#263238"/>
<path d="M275.172 209.006C276.718 207.875 281.28 205.683 286.027 207.548C290.496 199.389 297.521 194.921 297.521 194.921" stroke="#263238" stroke-miterlimit="10" stroke-linecap="round" stroke-linejoin="round"/>
<path opacity="0.47" d="M290.37 206.001C290.37 206.001 309.409 219.542 320.939 216.191C332.469 212.839 329.252 202.918 329.252 202.918" stroke="white" stroke-miterlimit="10" stroke-linecap="round" stroke-linejoin="round"/>
<path opacity="0.47" d="M292.207 203.722C292.207 203.722 316.112 214.716 320.135 199.163" stroke="white" stroke-miterlimit="10" stroke-linecap="round" stroke-linejoin="round"/>
<path d="M298.003 264.548C298.003 264.548 302.552 273.384 306.116 273.234C309.68 273.084 316.222 263.584 316.222 263.584C316.222 263.584 312.694 268.133 307.337 268.605C303.814 268.915 298.003 264.548 298.003 264.548Z" fill="#263238"/>
<path d="M325.516 329.026L326.256 328.686C327.107 328.311 327.588 327.4 327.416 326.486L327.266 325.586C327.115 324.67 326.353 323.978 325.426 323.916L324.536 323.846C323.818 323.793 323.184 323.357 322.876 322.706C322.636 322.196 322.376 321.706 322.096 321.226C321.739 320.607 321.739 319.845 322.096 319.226L322.556 318.446C323.016 317.644 322.885 316.634 322.236 315.976L321.596 315.336C320.941 314.668 319.911 314.544 319.116 315.036L318.326 315.506C317.707 315.863 316.945 315.863 316.326 315.506C315.05 314.772 313.681 314.214 312.256 313.846C311.544 313.661 310.991 313.1 310.816 312.386L310.586 311.456C310.368 310.534 309.533 309.891 308.586 309.916H307.686C306.742 309.89 305.908 310.528 305.686 311.446L305.436 312.446C305.26 313.145 304.721 313.695 304.026 313.886C303.526 314.026 303.026 314.176 302.556 314.356C301.872 314.606 301.105 314.464 300.556 313.986L299.756 313.296C299.066 312.69 298.051 312.632 297.296 313.156L296.586 313.636C295.797 314.16 295.484 315.166 295.836 316.046L296.196 316.986C296.462 317.66 296.344 318.425 295.886 318.986C295.566 319.367 295.266 319.765 294.986 320.176C294.571 320.783 293.857 321.113 293.126 321.036L292.126 320.946C291.199 320.843 290.323 321.395 290.016 322.276L289.696 323.156C289.377 324.011 289.677 324.974 290.426 325.496L291.346 326.146C291.935 326.56 292.256 327.259 292.186 327.976C292.13 328.497 292.103 329.022 292.106 329.546C292.081 330.245 291.705 330.885 291.106 331.246L290.166 331.766C289.329 332.203 288.912 333.167 289.166 334.076L289.396 334.946C289.63 335.852 290.461 336.476 291.396 336.446H292.396C293.117 336.439 293.786 336.822 294.146 337.446C294.416 337.926 294.706 338.386 295.016 338.836C295.421 339.428 295.478 340.191 295.166 340.836L294.756 341.686C294.341 342.523 294.561 343.536 295.286 344.126L295.976 344.706C296.684 345.313 297.716 345.35 298.466 344.796L299.176 344.296C299.76 343.878 300.524 343.806 301.176 344.106C301.683 344.346 302.203 344.566 302.736 344.766C303.404 345.016 303.887 345.603 304.006 346.306L304.156 347.176C304.307 348.092 305.069 348.784 305.996 348.846L306.916 348.926C307.838 349.012 308.699 348.453 308.996 347.576L309.276 346.796C309.516 346.11 310.11 345.609 310.826 345.486C311.392 345.397 311.953 345.277 312.506 345.126C313.201 344.941 313.942 345.143 314.446 345.656L315.036 346.256C315.679 346.918 316.691 347.054 317.486 346.586L318.276 346.136C319.113 345.699 319.53 344.736 319.276 343.826L319.056 343.046C318.842 342.336 319.039 341.567 319.566 341.046C319.976 340.636 320.376 340.206 320.746 339.756C321.212 339.199 321.943 338.939 322.656 339.076L323.456 339.226C324.368 339.406 325.284 338.934 325.666 338.086L326.046 337.266C326.452 336.42 326.215 335.405 325.476 334.826L324.876 334.336C324.314 333.893 324.032 333.184 324.136 332.476C324.234 331.88 324.297 331.279 324.326 330.676C324.392 329.95 324.848 329.318 325.516 329.026ZM313.477 329.546C313.477 332.463 311.112 334.827 308.196 334.827C305.279 334.827 302.915 332.462 302.915 329.546C302.915 326.629 305.28 324.265 308.196 324.265C311.1 324.262 313.458 326.611 313.467 329.515L313.477 329.546Z" fill="#263238"/>
<path d="M260.061 361.764C259.351 362.732 258.323 363.354 257.468 364.172C255.053 366.483 252.917 369.782 251.936 372.99C251.461 374.543 251.356 376.264 251.969 377.768C253.141 380.641 256.87 383.617 259.857 381.73" stroke="#263238" stroke-miterlimit="10" stroke-linecap="round" stroke-linejoin="round"/>
<path d="M259.82 356.654C256.979 356.211 254.183 357.858 252.237 359.974C250.291 362.09 248.942 364.681 247.171 366.946" stroke="#263238" stroke-miterlimit="10" stroke-linecap="round" stroke-linejoin="round"/>
<path d="M259.606 385.852C256.155 386.565 251.513 386.188 248.346 384.644C246.054 383.526 244.066 381.885 242.101 380.259C239.642 378.224 237.184 376.189 234.725 374.153C233.539 373.171 232.222 371.779 232.713 370.319C232.713 370.319 245.046 305.293 246.985 298.265C249.224 290.15 258.26 284.629 258.26 284.629" stroke="#263238" stroke-miterlimit="10" stroke-linecap="round" stroke-linejoin="round"/>
<path d="M352.171 362.493C355.147 364.558 357.966 368.437 359.183 371.848C360.4 375.26 360.896 378.879 361.385 382.468C359.471 383.538 355.535 386.307 352.17 386.307" stroke="#263238" stroke-miterlimit="10" stroke-linecap="round" stroke-linejoin="round"/>
<path d="M352.589 357.055C355.581 356.264 358.549 358.298 360.807 360.415C363.064 362.533 365.401 364.994 368.478 365.324" stroke="#263238" stroke-miterlimit="10" stroke-linecap="round" stroke-linejoin="round"/>
<path d="M353.165 390.843C358.96 390.232 364.245 387.061 368.434 383.009C372.623 378.958 375.857 374.042 379.056 369.17C381.647 365.223 384.282 361.178 385.418 356.595C385.418 356.595 375.186 322.782 369.502 307.083C363.581 290.728 357.184 286.553 357.184 286.553" stroke="#263238" stroke-miterlimit="10" stroke-linecap="round" stroke-linejoin="round"/>
<path d="M352.589 357.055C357.864 352.622 365.956 356.215 371.632 359.18" stroke="#263238" stroke-miterlimit="10" stroke-linecap="round" stroke-linejoin="round"/>
<path d="M352.171 338.953H260.061V391.895H352.171V338.953Z" fill="white"/>
<path d="M352.59 391.895H259.599V394.661H352.59V391.895Z" fill="#263238"/>
<path d="M259.599 391.895L352.171 338.953L352.589 391.895H259.599Z" fill="#263238"/>
<path opacity="0.9" d="M259.599 391.895L352.171 338.953L352.589 391.895H259.599Z" fill="white"/>
<path d="M312.901 370.118C315.966 367.053 315.966 362.084 312.901 359.019C309.836 355.954 304.867 355.954 301.802 359.019C298.737 362.084 298.737 367.053 301.802 370.118C304.867 373.183 309.836 373.183 312.901 370.118Z" fill="#263238"/>
<path d="M352.171 338.953H260.061V391.895H352.171V338.953Z" stroke="#263238" stroke-miterlimit="10" stroke-linecap="round" stroke-linejoin="round"/>
<path d="M283.115 231.37C283.115 231.37 285.13 249.868 287.694 253.164C290.258 256.461 298.5 268.548 307.474 268.365C316.448 268.182 322.309 256.644 323.774 251.699C325.239 246.754 326.704 239.795 327.071 232.469" stroke="#263238" stroke-miterlimit="10" stroke-linecap="round" stroke-linejoin="round"/>
<path d="M324.708 249.787C324.708 249.787 331.366 246.349 327.07 237.617" stroke="#263238" stroke-miterlimit="10" stroke-linecap="round" stroke-linejoin="round"/>
</svg>
