<svg width="500" height="500" viewBox="0 0 500 500" fill="none" xmlns="http://www.w3.org/2000/svg">
<path d="M333.978 34.582C333.978 34.582 256.581 7.06104 180.607 50.876C104.634 94.692 66.2991 181.67 33.3801 251.343C0.46106 321.016 19.4091 391.885 77.4051 424.2C135.401 456.514 174.837 408.879 256.196 406.559C337.556 404.24 359.437 415.871 426.948 369.91C494.46 323.949 506.664 215.405 453.408 135.09C400.151 54.775 333.978 34.582 333.978 34.582Z" fill="#FF5033"/>
<path opacity="0.7" d="M333.978 34.582C333.978 34.582 256.581 7.06104 180.607 50.876C104.634 94.692 66.2991 181.67 33.3801 251.343C0.46106 321.016 19.4091 391.885 77.4051 424.2C135.401 456.514 174.837 408.879 256.196 406.559C337.556 404.24 359.437 415.871 426.948 369.91C494.46 323.949 506.664 215.405 453.408 135.09C400.151 54.775 333.978 34.582 333.978 34.582Z" fill="white"/>
<path d="M40.9287 283.304C40.9287 283.304 42.7937 286.827 41.1357 290.142C39.4777 293.457 37.4056 296.773 38.6486 298.431C39.8916 300.089 43.6217 302.161 43.2077 305.684C42.7927 309.207 37.8197 316.252 40.9287 320.189C44.0367 324.126 49.2176 323.919 49.4246 328.27C49.6316 332.622 44.4517 336.144 45.9017 340.081C47.3527 344.018 55.8477 344.847 55.8477 347.541C55.8477 350.235 52.5327 353.136 55.2257 356.037C57.9197 358.938 70.9526 366.506 72.8176 363.398C74.6826 360.29 78.4347 351.685 75.9657 339.48C75.5507 337.429 72.6327 336.973 72.2177 334.072C71.8037 331.171 73.0466 325.991 70.9746 323.09C68.9026 320.189 62.2716 319.153 61.8566 316.874C61.4426 314.594 64.3427 309 61.4427 305.477C58.5417 301.954 51.7036 300.297 51.7036 298.017C51.7036 295.738 53.7757 292.837 50.8747 289.728C47.9746 286.62 40.9287 283.304 40.9287 283.304Z" fill="#23C8AC"/>
<path d="M50.8538 307.723C55.1668 320.749 62.7258 338.395 65.7948 346.92C69.5248 357.281 72.7668 364.781 74.4248 375.142C76.0828 385.503 76.9848 454.893 76.9848 454.893" stroke="#263238" stroke-miterlimit="10" stroke-linecap="round" stroke-linejoin="round"/>
<path d="M41.9646 284.548C41.9646 284.548 45.4876 287.449 48.5956 300.089C48.7956 300.904 49.0266 301.765 49.2836 302.666" stroke="#263238" stroke-miterlimit="10" stroke-linecap="round" stroke-linejoin="round"/>
<path d="M105.702 306.913C105.702 306.913 104.209 309.732 105.536 312.386C106.863 315.039 108.521 317.693 107.526 319.019C106.531 320.345 103.546 322.004 103.878 324.823C104.21 327.642 108.19 333.28 105.702 336.431C103.214 339.582 99.0692 339.416 98.9032 342.898C98.7372 346.381 102.883 349.2 101.722 352.35C100.561 355.501 93.7622 356.164 93.7622 358.32C93.7622 360.476 96.4152 362.798 94.2602 365.119C92.1042 367.441 81.6742 373.498 80.1822 371.01C78.6902 368.522 75.6872 361.636 77.6632 351.869C77.9952 350.228 80.3312 349.863 80.6622 347.541C80.9942 345.219 79.9992 341.074 81.6572 338.752C83.3152 336.43 88.6222 335.601 88.9542 333.777C89.2862 331.953 86.9642 327.475 89.2862 324.656C91.6082 321.837 97.0802 320.51 97.0802 318.686C97.0802 316.862 95.4222 314.54 97.7432 312.053C100.064 309.566 105.702 306.913 105.702 306.913Z" fill="#23C8AC"/>
<path d="M97.7597 326.454C94.3077 336.879 88.2587 351 85.8017 357.823C82.8167 366.115 80.2217 372.117 78.8947 380.409C77.5677 388.701 76.8457 444.233 76.8457 444.233" stroke="#263238" stroke-miterlimit="10" stroke-linecap="round" stroke-linejoin="round"/>
<path d="M104.873 307.908C104.873 307.908 102.054 310.23 99.5656 320.346C99.4056 320.998 99.2206 321.687 99.0156 322.409" stroke="#263238" stroke-miterlimit="10" stroke-linecap="round" stroke-linejoin="round"/>
<path d="M48.6765 353.868C48.6765 353.868 49.9235 356.223 48.8155 358.44C47.7075 360.657 46.3215 362.874 47.1525 363.982C47.9835 365.091 50.4775 366.476 50.2005 368.831C49.9235 371.186 46.5985 375.897 48.6765 378.53C50.7545 381.163 54.2185 381.024 54.3575 383.934C54.4965 386.844 51.0325 389.199 52.0025 391.831C52.9725 394.464 58.6525 395.018 58.6525 396.819C58.6525 398.62 56.4355 400.56 58.2365 402.5C60.0375 404.44 68.7515 409.5 69.9985 407.422C71.2455 405.344 73.7545 399.591 72.1035 391.43C71.8265 390.059 69.8745 389.754 69.5975 387.814C69.3205 385.874 70.1515 382.41 68.7665 380.471C67.3815 378.531 62.9475 377.838 62.6705 376.315C62.3935 374.791 64.3335 371.05 62.3935 368.695C60.4535 366.34 55.8815 365.231 55.8815 363.707C55.8815 362.183 57.2665 360.243 55.3275 358.165C53.3875 356.085 48.6765 353.868 48.6765 353.868Z" fill="#23C8AC"/>
<path d="M55.3123 370.195C58.1963 378.905 63.2503 390.703 65.3023 396.403C67.7963 403.331 69.9643 408.345 71.0723 415.273C72.1803 422.201 72.7833 447.914 72.7833 447.914" stroke="#263238" stroke-miterlimit="10" stroke-linecap="round" stroke-linejoin="round"/>
<path d="M49.3699 354.699C49.3699 354.699 51.7249 356.639 53.8039 365.09C53.9379 365.635 54.0919 366.211 54.2639 366.813" stroke="#263238" stroke-miterlimit="10" stroke-linecap="round" stroke-linejoin="round"/>
<path d="M120.044 350.418C120.044 350.418 118.291 352.425 118.863 354.837C119.435 357.249 120.276 359.724 119.213 360.612C118.15 361.501 115.405 362.279 115.136 364.635C114.867 366.991 117.026 372.338 114.4 374.425C111.774 376.512 108.434 375.584 107.633 378.385C106.832 381.186 109.665 384.271 108.119 386.612C106.573 388.953 100.916 388.192 100.503 389.945C100.091 391.698 101.805 394.094 99.6076 395.57C97.4106 397.046 87.7696 399.978 87.0316 397.669C86.2936 395.36 85.1686 389.186 88.6426 381.619C89.2266 380.347 91.1956 380.497 91.9096 378.672C92.6236 376.847 92.6066 373.285 94.3996 371.714C96.1926 370.143 100.667 370.483 101.286 369.063C101.905 367.643 100.872 363.557 103.3 361.708C105.727 359.859 110.432 359.826 110.781 358.343C111.13 356.859 110.225 354.654 112.589 353.075C114.951 351.497 120.044 350.418 120.044 350.418Z" fill="#23C8AC"/>
<path d="M109.848 364.792C105.047 372.611 97.4266 382.939 94.1246 388.018C90.1116 394.191 85.2976 398.139 84.1886 405.067C83.0806 411.994 82.4766 437.708 82.4766 437.708" stroke="#263238" stroke-miterlimit="10" stroke-linecap="round" stroke-linejoin="round"/>
<path d="M119.18 351.068C119.18 351.068 116.443 352.417 112.486 360.169C112.231 360.669 111.949 361.194 111.644 361.741" stroke="#263238" stroke-miterlimit="10" stroke-linecap="round" stroke-linejoin="round"/>
<path d="M70.829 462.702H86.24C94.349 458.519 100.109 447.936 100.109 435.534C100.109 427.393 97.626 420.038 93.628 414.758H63.442C59.444 420.038 56.96 427.393 56.96 435.534C56.96 447.936 62.721 458.519 70.829 462.702Z" fill="white" stroke="#263238" stroke-miterlimit="10" stroke-linecap="round" stroke-linejoin="round"/>
<path d="M86.5199 462.702H70.8289V465H86.5199V462.702Z" fill="white" stroke="#263238" stroke-miterlimit="10" stroke-linecap="round" stroke-linejoin="round"/>
<path d="M300.378 75H54.7373V260.919H300.378V75Z" stroke="#263238" stroke-miterlimit="10" stroke-linecap="round" stroke-linejoin="round"/>
<path d="M294.645 79.925H60.4727V255.994H294.645V79.925Z" stroke="#263238" stroke-miterlimit="10" stroke-linecap="round" stroke-linejoin="round"/>
<path d="M131.85 105.766C131.85 105.766 93.592 103 90.366 108.993C87.139 114.985 89.444 224.688 91.288 226.071C93.132 227.454 144.757 228.376 149.827 226.532C154.897 224.688 147.983 113.141 147.983 109.915C147.983 106.688 135.999 105.306 135.999 105.306" stroke="#263238" stroke-width="2" stroke-miterlimit="10" stroke-linecap="round" stroke-linejoin="round"/>
<path d="M94.3203 196.571C94.3963 211.034 94.7113 221.632 95.4363 221.921C97.7413 222.843 146.6 226.991 147.983 222.382C149.366 217.773 144.295 113.601 144.295 113.601" stroke="#263238" stroke-width="2" stroke-miterlimit="10" stroke-linecap="round" stroke-linejoin="round"/>
<path d="M142.451 113.141C142.451 113.141 95.896 111.297 95.435 113.602C95.141 115.07 94.286 158.264 94.301 189.657" stroke="#263238" stroke-width="2" stroke-miterlimit="10" stroke-linecap="round" stroke-linejoin="round"/>
<path d="M96.8184 121.437H141.99" stroke="#263238" stroke-width="2" stroke-miterlimit="10" stroke-linecap="round" stroke-linejoin="round"/>
<path d="M137.842 119.351C135.076 122.272 137.842 119.351 139.686 115.178C141.53 111.005 137.842 116.013 133.694 119.351C129.546 122.689 131.85 120.186 133.233 115.595C134.616 111.005 131.85 115.595 128.163 118.516C124.475 121.437 126.319 120.185 127.702 115.178C129.085 110.171 127.702 115.178 122.171 118.516C116.64 121.854 119.405 121.854 122.171 116.847C124.937 111.84 120.327 116.847 115.257 118.516C110.187 120.185 115.257 118.516 117.101 113.926C118.945 109.336 113.875 115.178 110.187 117.682C106.499 120.186 110.187 117.682 111.109 114.761C112.031 111.84 108.804 115.595 105.117 119.351C101.429 123.107 105.117 119.351 105.578 116.013C106.039 112.675 101.43 121.438 101.43 121.438C101.43 121.438 102.813 113.092 101.891 115.179C100.969 117.265 99.5859 118.935 99.5859 118.935" stroke="#FF4933" stroke-width="2" stroke-miterlimit="10" stroke-linecap="round" stroke-linejoin="round"/>
<path d="M121.709 129.273H99.123V152.781H121.709V129.273Z" stroke="#FF4933" stroke-width="2" stroke-miterlimit="10" stroke-linecap="round" stroke-linejoin="round"/>
<path d="M103.732 129.273L100.045 133.422L107.881 130.656L100.045 138.031L112.951 129.734L100.045 143.562L117.561 130.656L99.123 147.711L121.248 132.5L99.123 152.781L121.248 138.031L105.576 151.859L121.709 143.101L111.568 151.398L121.248 148.172L119.404 151.398" stroke="#FF4933" stroke-width="2" stroke-miterlimit="10" stroke-linecap="round" stroke-linejoin="round"/>
<path d="M141.177 201.18H123.905V219.156H141.177V201.18Z" stroke="#FF4933" stroke-width="2" stroke-miterlimit="10" stroke-linecap="round" stroke-linejoin="round"/>
<path d="M127.43 201.18L124.61 204.352L130.602 202.237L124.61 207.877L134.48 201.532L124.61 212.106L138.005 202.237L123.905 215.279L140.824 203.647L123.905 219.156L140.824 207.877L128.84 218.451L141.177 211.754L133.422 218.098L140.824 215.631L139.414 218.098" stroke="#FF4933" stroke-width="2" stroke-miterlimit="10" stroke-linecap="round" stroke-linejoin="round"/>
<path d="M98.6624 161.539H142.912" stroke="#263238" stroke-width="2" stroke-miterlimit="10" stroke-linecap="round" stroke-linejoin="round"/>
<path d="M98.2014 165.687L141.99 166.148" stroke="#263238" stroke-width="2" stroke-miterlimit="10" stroke-linecap="round" stroke-linejoin="round"/>
<path d="M126.318 130.656H140.607" stroke="#263238" stroke-width="2" stroke-miterlimit="10" stroke-linecap="round" stroke-linejoin="round"/>
<path d="M126.318 136.187H140.607" stroke="#263238" stroke-width="2" stroke-miterlimit="10" stroke-linecap="round" stroke-linejoin="round"/>
<path d="M126.318 141.719H140.607" stroke="#263238" stroke-width="2" stroke-miterlimit="10" stroke-linecap="round" stroke-linejoin="round"/>
<path d="M126.318 147.25H140.607" stroke="#263238" stroke-width="2" stroke-miterlimit="10" stroke-linecap="round" stroke-linejoin="round"/>
<path d="M141.99 168.453H99.123V189.195H141.99V168.453Z" stroke="#FF4933" stroke-width="2" stroke-miterlimit="10" stroke-linecap="round" stroke-linejoin="round"/>
<path d="M98.6622 172.601L104.654 168.914L97.7402 179.515L109.264 168.914L99.1232 184.125L117.1 168.453L101.428 186.89L120.787 168.914L106.037 186.89L127.24 168.453L110.186 188.734L131.389 168.914L115.256 187.812L136.92 168.453L120.326 188.734L141.99 168.453L126.318 188.273L141.068 175.367L131.389 187.351L141.068 180.898L139.169 183.984L137.381 186.89" stroke="#FF4933" stroke-width="2" stroke-miterlimit="10" stroke-linecap="round" stroke-linejoin="round"/>
<path d="M100.968 194.726H140.608" stroke="#263238" stroke-width="2" stroke-miterlimit="10" stroke-linecap="round" stroke-linejoin="round"/>
<path d="M100.045 199.797H112.951" stroke="#263238" stroke-width="2" stroke-miterlimit="10" stroke-linecap="round" stroke-linejoin="round"/>
<path d="M149.826 115.906L181.47 112.02" stroke="#263238" stroke-width="2" stroke-miterlimit="10" stroke-linecap="round" stroke-linejoin="round"/>
<path d="M144.756 138.492H177.943" stroke="#263238" stroke-width="2" stroke-miterlimit="10" stroke-linecap="round" stroke-linejoin="round"/>
<path d="M92.2089 180.437L77.9199 185.508" stroke="#263238" stroke-width="2" stroke-miterlimit="10" stroke-linecap="round" stroke-linejoin="round"/>
<path d="M132.772 222.383C132.772 222.383 130.006 236.672 148.905 240.36" stroke="#263238" stroke-width="2" stroke-miterlimit="10" stroke-linecap="round" stroke-linejoin="round"/>
<path d="M146.139 236.672L150.748 240.82L144.295 242.664" stroke="#263238" stroke-width="2" stroke-miterlimit="10" stroke-linecap="round" stroke-linejoin="round"/>
<path d="M173.795 134.344L181.17 138.953L174.717 141.719" stroke="#263238" stroke-width="2" stroke-miterlimit="10" stroke-linecap="round" stroke-linejoin="round"/>
<path d="M175.478 110.637L183.314 111.559L177.783 116.63" stroke="#263238" stroke-width="2" stroke-miterlimit="10" stroke-linecap="round" stroke-linejoin="round"/>
<path d="M79.7647 180.898L71.9287 187.351L81.6077 187.812" stroke="#263238" stroke-width="2" stroke-miterlimit="10" stroke-linecap="round" stroke-linejoin="round"/>
<path d="M200.992 134.344H183.476V152.782H200.992V134.344Z" fill="#FF4933"/>
<path d="M187.624 138.492L197.765 138.953" stroke="#263238" stroke-width="2" stroke-miterlimit="10" stroke-linecap="round" stroke-linejoin="round"/>
<path d="M187.624 142.18L197.765 142.641" stroke="#263238" stroke-width="2" stroke-miterlimit="10" stroke-linecap="round" stroke-linejoin="round"/>
<path d="M187.624 145.867L197.765 146.328" stroke="#263238" stroke-width="2" stroke-miterlimit="10" stroke-linecap="round" stroke-linejoin="round"/>
<path d="M173.11 159.194L155.715 161.245L157.874 179.555L175.269 177.504L173.11 159.194Z" fill="#FF4933"/>
<path d="M160.326 164.879L170.451 164.149" stroke="#263238" stroke-width="2" stroke-miterlimit="10" stroke-linecap="round" stroke-linejoin="round"/>
<path d="M160.758 168.541L170.883 167.811" stroke="#263238" stroke-width="2" stroke-miterlimit="10" stroke-linecap="round" stroke-linejoin="round"/>
<path d="M161.191 172.204L171.316 171.474" stroke="#263238" stroke-width="2" stroke-miterlimit="10" stroke-linecap="round" stroke-linejoin="round"/>
<path d="M82.3075 190.536L64.9124 192.587L67.0713 210.896L84.4665 208.845L82.3075 190.536Z" fill="#FF4933"/>
<path d="M69.5227 196.223L79.6477 195.493" stroke="#263238" stroke-width="2" stroke-miterlimit="10" stroke-linecap="round" stroke-linejoin="round"/>
<path d="M69.9543 199.885L80.0793 199.155" stroke="#263238" stroke-width="2" stroke-miterlimit="10" stroke-linecap="round" stroke-linejoin="round"/>
<path d="M70.386 203.547L80.51 202.817" stroke="#263238" stroke-width="2" stroke-miterlimit="10" stroke-linecap="round" stroke-linejoin="round"/>
<path d="M172.868 228.897L155.45 227.046L153.501 245.38L170.919 247.231L172.868 228.897Z" fill="#FF4933"/>
<path d="M159.146 231.604L169.182 233.133" stroke="#263238" stroke-width="2" stroke-miterlimit="10" stroke-linecap="round" stroke-linejoin="round"/>
<path d="M158.756 235.27L168.791 236.8" stroke="#263238" stroke-width="2" stroke-miterlimit="10" stroke-linecap="round" stroke-linejoin="round"/>
<path d="M158.366 238.937L168.401 240.467" stroke="#263238" stroke-width="2" stroke-miterlimit="10" stroke-linecap="round" stroke-linejoin="round"/>
<path d="M300.369 260.919H54.7373V267.201H300.369V260.919Z" fill="#263238" stroke="#263238" stroke-miterlimit="10" stroke-linecap="round" stroke-linejoin="round"/>
<path d="M398.941 305.932V294.207H363.668V305.932C363.668 309.758 362.348 313.472 359.922 316.472L358.377 318.382H404.232L402.687 316.472C400.262 313.472 398.941 309.758 398.941 305.932Z" fill="#263238" stroke="#263238" stroke-miterlimit="10" stroke-linecap="round" stroke-linejoin="round"/>
<path d="M396.941 305.932V294.207H361.668V305.932C361.668 309.758 360.348 313.472 357.922 316.472L356.377 318.382H402.232L400.687 316.472C398.262 313.472 396.941 309.758 396.941 305.932Z" fill="white" stroke="#263238" stroke-miterlimit="10" stroke-linecap="round" stroke-linejoin="round"/>
<path d="M397.225 297.518H361.811V301.111H397.225V297.518Z" fill="#263238"/>
<path d="M441.703 297.904H316.907C312.221 297.904 308.423 294.106 308.423 289.42V202.296C308.423 197.61 312.222 193.812 316.907 193.812H441.703C446.389 193.812 450.187 197.611 450.187 202.296V289.42C450.187 294.105 446.388 297.904 441.703 297.904Z" fill="#263238" stroke="#263238" stroke-miterlimit="10" stroke-linecap="round" stroke-linejoin="round"/>
<path d="M445.505 297.904H320.71C316.024 297.904 312.226 294.106 312.226 289.42V202.296C312.226 197.61 316.025 193.812 320.71 193.812H445.506C450.192 193.812 453.99 197.611 453.99 202.296V289.42C453.99 294.105 450.191 297.904 445.505 297.904Z" fill="#263238" stroke="#263238" stroke-miterlimit="10" stroke-linecap="round" stroke-linejoin="round"/>
<path d="M441.703 297.904H316.907C312.221 297.904 308.423 294.106 308.423 289.42V281.724H450.187V289.42C450.187 294.105 446.388 297.904 441.703 297.904Z" fill="white" stroke="#263238" stroke-miterlimit="10" stroke-linecap="round" stroke-linejoin="round"/>
<path d="M443.057 200.287H315.554V273.829H443.057V200.287Z" fill="white"/>
<path d="M359.932 265.824H334.839C333.163 265.824 331.804 264.465 331.804 262.789V210.984C331.804 209.308 333.163 207.948 334.839 207.948H359.932C361.608 207.948 362.967 209.307 362.967 210.984V262.789C362.967 264.465 361.608 265.824 359.932 265.824Z" fill="#263238"/>
<path d="M360.353 212.805H334.419V260.968H360.353V212.805Z" fill="#FF4933"/>
<path d="M394.536 213.614H371.062V216.042H394.536V213.614Z" fill="#263238"/>
<path d="M382.395 218.876H371.467V230.208H382.395V218.876Z" fill="#FF4933"/>
<path d="M392.917 253.682H387.063V259.753H392.917V253.682Z" fill="#FF4933"/>
<path d="M393.995 238.303H371.735V249.635H393.995V238.303Z" fill="#FF4933"/>
<path d="M384.418 219.685H393.322" stroke="#263238" stroke-miterlimit="10" stroke-linecap="round" stroke-linejoin="round"/>
<path d="M384.418 222.518H393.322" stroke="#263238" stroke-miterlimit="10" stroke-linecap="round" stroke-linejoin="round"/>
<path d="M384.418 225.351H393.322" stroke="#263238" stroke-miterlimit="10" stroke-linecap="round" stroke-linejoin="round"/>
<path d="M384.418 228.184H393.322" stroke="#263238" stroke-miterlimit="10" stroke-linecap="round" stroke-linejoin="round"/>
<path d="M372.141 234.66H393.592" stroke="#263238" stroke-miterlimit="10" stroke-linecap="round" stroke-linejoin="round"/>
<path d="M372.141 252.468H393.592" stroke="#263238" stroke-miterlimit="10" stroke-linecap="round" stroke-linejoin="round"/>
<path d="M396.559 211.186H369.038V262.182H396.559V211.186Z" stroke="#263238" stroke-miterlimit="10" stroke-linecap="round" stroke-linejoin="round"/>
<path d="M430.153 211.186H404.25V230.208H430.153V211.186Z" fill="#BFBFBF"/>
<path d="M430.153 211.186H404.25V215.233H430.153V211.186Z" fill="#263238"/>
<path d="M413.028 218.184H406.258V224.736H413.028V218.184Z" stroke="#263238" stroke-miterlimit="10" stroke-linecap="round" stroke-linejoin="round"/>
<path d="M426.569 218.184H419.799V224.736H426.569V218.184Z" stroke="#263238" stroke-miterlimit="10" stroke-linecap="round" stroke-linejoin="round"/>
<path d="M427.661 213.489C427.661 214.032 427.221 214.472 426.678 214.472C426.135 214.472 425.695 214.032 425.695 213.489C425.695 212.946 426.135 212.506 426.678 212.506C427.221 212.506 427.661 212.946 427.661 213.489Z" fill="white"/>
<path d="M421.983 214.472C422.526 214.472 422.966 214.032 422.966 213.489C422.966 212.946 422.526 212.506 421.983 212.506C421.44 212.506 421 212.946 421 213.489C421 214.032 421.44 214.472 421.983 214.472Z" fill="white"/>
<path d="M428.084 240.519H408.25V255.084H428.084V240.519Z" fill="#BFBFBF"/>
<path d="M428.084 240.519H408.25V243.618H428.084V240.519Z" fill="#263238"/>
<path d="M426.176 242.283C426.176 242.699 425.839 243.036 425.423 243.036C425.007 243.036 424.67 242.699 424.67 242.283C424.67 241.867 425.007 241.53 425.423 241.53C425.839 241.53 426.176 241.867 426.176 242.283Z" fill="white"/>
<path d="M422.58 242.283C422.58 242.699 422.243 243.036 421.827 243.036C421.411 243.036 421.074 242.699 421.074 242.283C421.074 241.867 421.411 241.53 421.827 241.53C422.243 241.53 422.58 241.867 422.58 242.283Z" fill="white"/>
<path d="M328.083 204.146H319.75V269.479H328.083V204.146Z" fill="#BFBFBF"/>
<path d="M328.083 204.146H319.75V207.146H328.083V204.146Z" fill="#263238"/>
<path d="M325.75 209.146H321.75V213.813H325.75V209.146Z" stroke="#263238" stroke-miterlimit="10" stroke-linecap="round" stroke-linejoin="round"/>
<path d="M325.75 216.813H321.75V221.48H325.75V216.813Z" stroke="#263238" stroke-miterlimit="10" stroke-linecap="round" stroke-linejoin="round"/>
<path d="M325.75 224.48H321.75V229.147H325.75V224.48Z" stroke="#263238" stroke-miterlimit="10" stroke-linecap="round" stroke-linejoin="round"/>
<path d="M325.75 232.146H321.75V236.813H325.75V232.146Z" stroke="#263238" stroke-miterlimit="10" stroke-linecap="round" stroke-linejoin="round"/>
<path d="M325.75 239.813H321.75V244.48H325.75V239.813Z" stroke="#263238" stroke-miterlimit="10" stroke-linecap="round" stroke-linejoin="round"/>
<path d="M325.75 247.48H321.75V252.147H325.75V247.48Z" stroke="#263238" stroke-miterlimit="10" stroke-linecap="round" stroke-linejoin="round"/>
<path d="M325.75 255.146H321.75V259.813H325.75V255.146Z" stroke="#263238" stroke-miterlimit="10" stroke-linecap="round" stroke-linejoin="round"/>
<path d="M325.75 262.813H321.75V267.48H325.75V262.813Z" stroke="#263238" stroke-miterlimit="10" stroke-linecap="round" stroke-linejoin="round"/>
<path d="M439.417 203.48H333.417V206.147H439.417V203.48Z" fill="#BFBFBF"/>
<path d="M439.417 268.146H333.417V270.813H439.417V268.146Z" fill="#BFBFBF"/>
<path d="M402.242 318.381H356.377V320.475H402.242V318.381Z" fill="#263238" stroke="#263238" stroke-miterlimit="10" stroke-linecap="round" stroke-linejoin="round"/>
<path d="M432.217 316.672H325.745V320.475H432.217V316.672Z" fill="white" stroke="#263238" stroke-miterlimit="10" stroke-linecap="round" stroke-linejoin="round"/>
<path d="M230.344 465H226.01L223.844 332.333H232.51L230.344 465Z" fill="white" stroke="#263238" stroke-miterlimit="10" stroke-linecap="round" stroke-linejoin="round"/>
<path d="M230.344 465H228.431L228.685 332.333H232.51L230.344 465Z" fill="#263238" stroke="#263238" stroke-miterlimit="10" stroke-linecap="round" stroke-linejoin="round"/>
<path d="M292.073 465H287.74L285.573 332.333H294.24L292.073 465Z" fill="white" stroke="#263238" stroke-miterlimit="10" stroke-linecap="round" stroke-linejoin="round"/>
<path d="M292.073 465H290.161L290.415 332.333H294.24L292.073 465Z" fill="#263238" stroke="#263238" stroke-miterlimit="10" stroke-linecap="round" stroke-linejoin="round"/>
<path d="M269.968 465H265.634L263.468 332.333H272.134L269.968 465Z" fill="#263238" stroke="#263238" stroke-miterlimit="10" stroke-linecap="round" stroke-linejoin="round"/>
<path d="M269.967 465H268.054L268.308 332.333H272.133L269.967 465Z" fill="#263238" stroke="#263238" stroke-miterlimit="10" stroke-linecap="round" stroke-linejoin="round"/>
<path d="M311.676 465H307.343L305.176 332.333H313.843L311.676 465Z" fill="#263238" stroke="#263238" stroke-miterlimit="10" stroke-linecap="round" stroke-linejoin="round"/>
<path d="M311.676 465H309.764L310.018 332.333H313.843L311.676 465Z" fill="#263238" stroke="#263238" stroke-miterlimit="10" stroke-linecap="round" stroke-linejoin="round"/>
<path d="M314.932 334.355H246.947V417.355H314.932V334.355Z" fill="#263238" stroke="#263238" stroke-miterlimit="10" stroke-linecap="round" stroke-linejoin="round"/>
<path d="M296.162 334.355H228.177V417.355H296.162V334.355Z" fill="white" stroke="#263238" stroke-miterlimit="10" stroke-linecap="round" stroke-linejoin="round"/>
<path d="M433.465 465H429.131L426.965 332.333H435.631L433.465 465Z" fill="white" stroke="#263238" stroke-miterlimit="10" stroke-linecap="round" stroke-linejoin="round"/>
<path d="M433.465 465H431.552L431.806 332.333H435.631L433.465 465Z" fill="#263238" stroke="#263238" stroke-miterlimit="10" stroke-linecap="round" stroke-linejoin="round"/>
<path d="M473.088 465H468.754L466.588 332.333H475.254L473.088 465Z" fill="#263238" stroke="#263238" stroke-miterlimit="10" stroke-linecap="round" stroke-linejoin="round"/>
<path d="M473.088 465H471.175L471.429 332.333H475.254L473.088 465Z" fill="#263238" stroke="#263238" stroke-miterlimit="10" stroke-linecap="round" stroke-linejoin="round"/>
<path d="M477.988 327.329H218.129V336.455H477.988V327.329Z" fill="white" stroke="#263238" stroke-miterlimit="10" stroke-linecap="round" stroke-linejoin="round"/>
<path d="M477.988 327.329H218.129V331.892H477.988V327.329Z" fill="#263238" stroke="#263238" stroke-miterlimit="10" stroke-linecap="round" stroke-linejoin="round"/>
<path d="M477.988 327.329H439.632V336.455H477.988V327.329Z" fill="#263238" stroke="#263238" stroke-miterlimit="10" stroke-linecap="round" stroke-linejoin="round"/>
<path d="M486.383 319.996H211.077V329.122H486.383V319.996Z" fill="white" stroke="#263238" stroke-miterlimit="10" stroke-linecap="round" stroke-linejoin="round"/>
<path d="M486.383 319.996H448.027V329.122H486.383V319.996Z" fill="#263238" stroke="#263238" stroke-miterlimit="10" stroke-linecap="round" stroke-linejoin="round"/>
<path d="M292 342.333H232.5V371.333H292V342.333Z" fill="white" stroke="#263238" stroke-miterlimit="10" stroke-linecap="round" stroke-linejoin="round"/>
<path d="M268.75 353.833H255.75V358.333H268.75V353.833Z" fill="#263238" stroke="#263238" stroke-miterlimit="10" stroke-linecap="round" stroke-linejoin="round"/>
<path d="M292 378.833H232.5V407.833H292V378.833Z" fill="white" stroke="#263238" stroke-miterlimit="10" stroke-linecap="round" stroke-linejoin="round"/>
<path d="M268.75 390.333H255.75V394.833H268.75V390.333Z" fill="#263238" stroke="#263238" stroke-miterlimit="10" stroke-linecap="round" stroke-linejoin="round"/>
<path d="M383.597 387.467H401.375V351.712H383.597V387.467Z" fill="#263238"/>
<path d="M388.042 424.293H396.931V374.768H388.042V424.293Z" fill="#263238"/>
<path d="M396.1 420.483C396.1 420.483 403.568 428.957 422.767 431.912C432.91 433.473 443.465 435.413 452.629 440.264C458.523 443.384 470.252 450.211 470.252 458.012C470.252 461.871 467.123 465 463.264 465C459.405 465 456.276 461.871 456.276 458.012C456.276 456.167 457.005 454.501 458.173 453.252C457.199 451.667 450.842 442.108 437.462 439.199C422.858 436.024 412.198 437.317 391.655 423.658L396.1 420.483Z" fill="#263238"/>
<path d="M389.747 420.483C389.747 420.483 382.279 428.957 363.08 431.912C352.937 433.473 342.382 435.413 333.218 440.264C327.324 443.384 315.595 450.211 315.595 458.012C315.595 461.871 318.724 465 322.583 465C326.442 465 329.571 461.871 329.571 458.012C329.571 456.167 328.842 454.501 327.674 453.252C328.648 451.667 335.005 442.108 348.385 439.199C362.988 436.024 373.649 437.317 394.192 423.658L389.747 420.483Z" fill="#263238"/>
<path d="M389.442 451.884H396.165C396.527 451.884 396.82 452.177 396.82 452.539V464.344C396.82 464.706 396.526 464.999 396.165 464.999H389.442C389.08 464.999 388.787 464.706 388.787 464.344V452.54C388.787 452.178 389.08 451.884 389.442 451.884Z" fill="#263238"/>
<path d="M390.898 465H394.708V421.666H390.898V465Z" fill="#263238"/>
<path d="M435.543 248.462C433.491 259.708 431.908 272.009 431.535 284.321C431.254 293.598 431.099 301.55 430.962 308.564C430.536 330.346 430.3 342.43 426.869 345.683C426.429 345.979 423.594 347.733 417.646 348.228C415.985 348.366 410.713 348.443 403.533 348.477C380.761 348.409 356.829 348.221 356.447 348.218H355.058C354.997 348.27 354.951 348.325 354.894 348.378C341.22 348.303 337.698 348.22 337.446 348.218H336.057C333.189 350.708 334.903 353.909 337.394 353.932C339.269 353.949 371.859 354.215 394.145 354.215C398.092 354.215 401.8 354.207 405.094 354.187C410.51 354.204 415.677 354.215 420.145 354.215C431.818 354.215 441.485 354.143 444.119 353.923C452.367 353.237 456.065 350.448 456.46 350.134C461.958 345.249 462.168 334.542 462.674 308.675C462.811 301.675 462.965 293.74 463.246 284.495C463.621 272.109 465.252 259.724 467.347 248.461H435.543V248.462Z" fill="#263238"/>
<path d="M258.751 435.167L261.001 446.917C261.001 446.917 259.001 451.167 251.251 454.667C243.501 458.167 239.751 459.667 239.751 460.667C239.751 461.667 239.251 463.917 241.251 464.667C243.251 465.417 285.751 464.667 285.751 464.667C285.751 464.667 288.001 463.667 288.001 458.917C288.001 454.167 286.001 445.417 286.001 443.417C286.001 441.417 284.593 436.598 284.593 435.922C284.593 435.246 267.501 436.167 267.501 436.167C267.501 436.167 262.501 431.417 258.751 435.167Z" fill="white" stroke="#263238" stroke-miterlimit="10" stroke-linecap="round" stroke-linejoin="round"/>
<path d="M267.501 436.167C267.501 436.167 268.751 447.417 269.501 448.167C270.251 448.917 286.001 448.917 286.001 448.917" fill="white"/>
<path d="M267.501 436.167C267.501 436.167 268.751 447.417 269.501 448.167C270.251 448.917 286.001 448.917 286.001 448.917" stroke="#263238" stroke-miterlimit="10" stroke-linecap="round" stroke-linejoin="round"/>
<path d="M286.001 443.417L268.501 443.667" stroke="#263238" stroke-miterlimit="10" stroke-linecap="round" stroke-linejoin="round"/>
<path d="M239.751 462.667H287.501" stroke="#263238" stroke-miterlimit="10" stroke-linecap="round" stroke-linejoin="round"/>
<path d="M289.998 294.253C289.998 294.253 276.135 340.912 274.445 347.337C272.754 353.761 282.56 410.226 282.56 411.24C282.56 412.254 283.912 415.297 283.912 418.679C283.912 422.061 282.56 423.075 283.236 424.089C283.912 425.103 286.279 427.47 285.941 429.499C285.603 431.528 285.265 432.204 283.912 433.556C282.56 434.909 281.207 435.247 281.207 435.247H273.092C273.092 435.247 271.063 420.032 265.653 379.797C260.243 339.562 269.034 316.57 270.725 309.132C272.416 301.694 275.797 295.269 275.797 295.269L289.998 294.253Z" fill="#263238" stroke="#263238" stroke-miterlimit="10" stroke-linecap="round" stroke-linejoin="round"/>
<path d="M247.251 435.167L249.501 446.917C249.501 446.917 247.501 451.167 239.751 454.667C232.001 458.167 228.251 459.667 228.251 460.667C228.251 461.667 227.751 463.917 229.751 464.667C231.751 465.417 274.251 464.667 274.251 464.667C274.251 464.667 276.501 463.667 276.501 458.917C276.501 454.167 274.501 445.417 274.501 443.417C274.501 441.417 273.093 436.598 273.093 435.922C273.093 435.246 256.001 436.167 256.001 436.167C256.001 436.167 251.001 431.417 247.251 435.167Z" fill="white" stroke="#263238" stroke-miterlimit="10" stroke-linecap="round" stroke-linejoin="round"/>
<path d="M256.001 436.167C256.001 436.167 257.251 447.417 258.001 448.167C258.751 448.917 274.501 448.917 274.501 448.917" fill="white"/>
<path d="M256.001 436.167C256.001 436.167 257.251 447.417 258.001 448.167C258.751 448.917 274.501 448.917 274.501 448.917" stroke="#263238" stroke-miterlimit="10" stroke-linecap="round" stroke-linejoin="round"/>
<path d="M274.501 443.417L257.001 443.667" stroke="#263238" stroke-miterlimit="10" stroke-linecap="round" stroke-linejoin="round"/>
<path d="M228.251 462.667H276.001" stroke="#263238" stroke-miterlimit="10" stroke-linecap="round" stroke-linejoin="round"/>
<path d="M234.21 294.253C234.21 294.253 233.872 323.669 235.562 336.179C237.253 348.689 243.677 377.767 244.691 393.658C245.705 409.549 247.396 416.988 247.396 416.988C247.396 416.988 245.029 419.017 245.029 421.045C245.029 423.074 246.382 423.074 246.043 426.117C245.705 429.16 244.353 430.174 245.367 431.527C246.381 432.879 247.058 435.584 250.439 436.26C253.82 436.936 269.711 436.598 273.093 435.922C276.474 435.246 278.165 431.865 278.165 429.16C278.165 426.455 277.151 424.426 277.151 421.383C277.151 418.34 278.841 415.635 278.841 413.606C278.841 411.577 278.165 410.563 278.165 408.534C278.165 406.505 273.77 374.047 273.77 367.284C273.77 360.522 273.432 337.53 274.446 331.782C275.46 326.034 280.532 298.647 280.532 298.647L234.21 294.253Z" fill="#FF4933" stroke="#263238" stroke-miterlimit="10" stroke-linecap="round" stroke-linejoin="round"/>
<path d="M255.637 304.175C255.637 304.175 261.404 306.3 268.082 306.603C274.76 306.907 277.795 307.514 277.795 307.514L279.616 299.015L255.637 304.175Z" fill="#263238" stroke="#263238" stroke-miterlimit="10" stroke-linecap="round" stroke-linejoin="round"/>
<path d="M251.932 305.629C251.932 305.629 253.591 352.092 256.91 367.579C260.229 383.067 264.654 408.51 263.548 411.829C262.442 415.148 260.782 422.892 260.782 422.892C260.782 422.892 266.866 421.786 266.866 425.104C266.866 428.423 258.016 430.635 260.228 432.295C262.441 433.954 264.637 435.782 264.637 435.782" stroke="#263238" stroke-miterlimit="10" stroke-linecap="round" stroke-linejoin="round"/>
<path d="M190.54 103.152L190.034 123.91L209.611 123.742L209.78 102.983L190.54 103.152Z" fill="#FF4933"/>
<path d="M212.819 141.462C212.819 141.462 208.6 137.243 206.743 133.361C204.887 129.479 202.186 127.117 202.186 124.416C202.186 121.716 203.367 115.471 202.861 112.94C202.355 110.409 202.861 105.177 204.549 105.177C206.237 105.177 207.418 106.696 207.081 108.384C206.743 110.072 208.094 115.979 208.094 115.979C208.094 115.979 209.444 104.671 209.613 103.996C209.782 103.321 212.145 103.321 213.157 103.827C214.17 104.333 215.351 104.165 215.351 106.359C215.351 108.553 214.845 111.085 214.845 111.591C214.845 112.097 219.571 114.798 219.739 116.823C219.908 118.848 219.401 123.743 218.22 125.768C217.039 127.793 216.364 129.143 216.195 129.818C216.026 130.493 220.752 137.581 220.752 137.581L212.819 141.462Z" fill="white" stroke="#263238" stroke-miterlimit="10" stroke-linecap="round" stroke-linejoin="round"/>
<path d="M220.685 134.326L209.189 143.117C209.189 143.117 228.799 183.691 229.476 185.043C230.152 186.396 244.353 195.186 244.353 195.186L265.654 168.813C265.654 168.813 238.943 160.36 238.267 159.346C237.591 158.332 220.685 134.326 220.685 134.326Z" fill="#263238" stroke="#263238" stroke-miterlimit="10" stroke-linecap="round" stroke-linejoin="round"/>
<path d="M234.25 283.417L233.25 299.167C233.25 299.167 246.25 304.667 260.25 304.417C274.25 304.167 293 298.667 293 298.667L295.75 283.167C295.75 283.167 262 285.917 251.75 284.917C241.5 283.917 234.25 283.417 234.25 283.417Z" fill="white" stroke="#263238" stroke-miterlimit="10" stroke-linecap="round" stroke-linejoin="round"/>
<path d="M224.25 278.417L223.5 282.917C223.5 282.917 234.093 288.699 257.5 290.917C281.25 293.167 300.25 286.417 300.25 286.417L300.5 278.667C300.5 278.667 282 283.417 262.5 283.167C243 282.917 224.25 278.417 224.25 278.417Z" fill="#263238" stroke="#263238" stroke-miterlimit="10" stroke-linecap="round" stroke-linejoin="round"/>
<path d="M243.251 185.417C243.251 185.417 235.001 199.917 232.251 211.167C229.501 222.417 224.001 274.417 223.251 277.417C222.501 280.417 240.001 286.417 251.501 286.667C263.001 286.917 288.751 287.417 293.251 285.667C297.751 283.917 302.001 281.417 302.001 278.667C302.001 275.917 302.251 265.667 302.251 257.417C302.251 249.167 299.751 205.667 297.501 195.667C295.251 185.667 293.751 178.667 293.001 177.417C292.251 176.167 286.751 170.167 275.501 170.917C264.251 171.667 254.751 175.917 250.501 178.417C246.251 180.917 243.251 185.417 243.251 185.417Z" fill="#263238" stroke="#263238" stroke-miterlimit="10" stroke-linecap="round" stroke-linejoin="round"/>
<path d="M167.85 201.58C167.85 201.58 163.793 203.271 163.455 207.328C163.117 211.385 170.555 215.443 174.951 221.529C179.346 227.615 185.094 234.039 185.094 234.039L193.885 246.211L204.366 237.42L177.317 205.976C177.317 205.976 178.669 202.933 176.979 201.919C175.289 200.904 170.893 200.228 167.85 201.58Z" fill="white" stroke="#263238" stroke-miterlimit="10" stroke-linecap="round" stroke-linejoin="round"/>
<path d="M168.527 211.048L198.957 200.905C198.957 200.905 200.986 209.358 210.115 218.149C219.244 226.94 227.697 232.688 227.697 232.688L200.31 248.241L168.527 211.048Z" fill="white" stroke="#263238" stroke-miterlimit="10" stroke-linecap="round" stroke-linejoin="round"/>
<path d="M168.528 211.048C168.528 211.048 170.557 209.019 170.895 205.638C171.233 202.257 167.852 201.581 167.852 201.581L197.944 192.79C197.944 192.79 203.692 194.819 198.958 200.905L168.528 211.048Z" fill="white" stroke="#263238" stroke-miterlimit="10" stroke-linecap="round" stroke-linejoin="round"/>
<path d="M208.852 243.198C208.852 243.198 202.09 242.184 201.752 240.155C201.414 238.126 200.061 233.731 198.709 232.04C197.356 230.349 190.932 226.968 188.904 224.602C186.875 222.235 185.523 218.854 184.171 219.192C182.818 219.53 180.79 220.883 181.466 222.235C182.142 223.587 185.185 229.335 185.185 229.335L185.861 231.702C185.861 231.702 179.775 230.688 178.761 230.35C177.747 230.012 176.394 230.688 176.394 232.379C176.394 234.07 175.041 234.07 176.732 235.084C178.423 236.098 180.451 237.451 180.451 237.451C180.451 237.451 182.818 242.861 183.494 243.875C184.17 244.889 189.58 247.256 190.594 247.932C191.608 248.608 197.018 250.299 199.723 250.975C202.428 251.651 208.514 254.018 208.514 254.018L210.205 246.241L208.852 243.198Z" fill="white" stroke="#263238" stroke-miterlimit="10" stroke-linecap="round" stroke-linejoin="round"/>
<path d="M280.531 196.538C280.531 196.538 279.855 225.278 279.855 226.63C279.855 227.982 280.869 255.708 277.826 258.074C274.783 260.441 259.906 263.484 238.267 262.808C216.628 262.132 207.161 257.398 207.161 257.398L208.852 243.197L250.102 240.154C250.102 240.154 245.707 208.71 246.383 197.89C247.059 187.07 255.85 181.322 255.85 181.322" fill="#263238"/>
<path d="M280.531 196.538C280.531 196.538 279.855 225.278 279.855 226.63C279.855 227.982 280.869 255.708 277.826 258.074C274.783 260.441 259.906 263.484 238.267 262.808C216.628 262.132 207.161 257.398 207.161 257.398L208.852 243.197L250.102 240.154C250.102 240.154 245.707 208.71 246.383 197.89C247.059 187.07 255.85 181.322 255.85 181.322" stroke="#263238" stroke-miterlimit="10" stroke-linecap="round" stroke-linejoin="round"/>
<path d="M235.006 264.066C235.006 264.066 275.954 265.503 278.11 260.474C280.265 255.445 280.265 205.876 280.265 205.876" stroke="#707070" stroke-miterlimit="10" stroke-linecap="round" stroke-linejoin="round"/>
<path d="M252.965 187.198C252.965 187.198 244.344 196.537 245.781 208.75C247.218 220.963 250.1 240.155 250.1 240.155L234.287 241.078" stroke="#707070" stroke-miterlimit="10" stroke-linecap="round" stroke-linejoin="round"/>
<path d="M235.529 109.119C235.529 109.119 229.863 118.926 230.952 120.234C232.042 121.542 231.17 123.939 231.17 123.939C231.17 123.939 225.504 128.298 225.939 129.823C226.375 131.348 230.952 135.489 230.952 135.489C230.952 135.489 231.824 147.258 232.913 148.347C234.003 149.437 241.413 150.744 242.938 150.962C244.464 151.18 245.335 151.616 245.335 151.616L249.694 175.153L274.103 153.141L270.18 142.68C270.18 142.68 268.001 128.732 268.219 122.194C268.437 115.656 257.104 107.81 250.348 105.849C243.593 103.889 235.529 109.119 235.529 109.119Z" fill="white" stroke="#263238" stroke-miterlimit="10" stroke-linecap="round" stroke-linejoin="round"/>
<path d="M240.105 95.8251C240.105 95.8251 234.439 89.9411 227.683 94.5171C220.927 99.0941 222.888 106.503 228.991 109.119C235.093 111.734 242.285 109.773 239.888 112.388C237.491 115.003 236.837 120.67 240.542 121.759C244.247 122.849 243.593 126.989 243.593 128.733C243.593 130.477 246.644 130.258 247.298 128.733C247.952 127.207 249.695 123.067 253.836 124.81C257.977 126.553 257.759 136.143 256.233 138.54C254.707 140.937 253.182 140.719 253.182 140.719C253.182 140.719 255.579 141.591 254.054 144.424C252.529 147.257 252.529 147.257 252.529 147.257C252.529 147.257 256.016 151.398 264.733 149.872C273.45 148.346 275.412 144.424 274.104 141.155C272.796 137.886 269.745 137.45 273.014 132.656C276.283 127.861 284.353 122.195 283.693 111.298C283.257 104.106 266.258 97.3501 266.258 97.3501C266.258 97.3501 270.181 90.8121 261.245 86.6711C252.31 82.5301 242.067 87.3251 242.721 91.6831C243.374 96.0431 240.105 95.8251 240.105 95.8251Z" fill="#263238" stroke="#263238" stroke-miterlimit="10" stroke-linecap="round" stroke-linejoin="round"/>
<path d="M230.886 119.445C230.886 119.445 228.119 118.708 227.901 120.016C227.683 121.324 227.901 127.862 227.901 127.862C227.901 127.862 229.644 128.952 231.17 128.516C232.695 128.08 231.824 122.632 231.824 122.632" stroke="#263238" stroke-miterlimit="10" stroke-linecap="round" stroke-linejoin="round"/>
<path d="M248.169 126.772L228.097 123.453L228.118 122.195L248.169 126.772Z" fill="#263238" stroke="#263238" stroke-miterlimit="10" stroke-linecap="round" stroke-linejoin="round"/>
<path d="M276.937 146.386C276.937 146.386 265.822 154.45 258.195 162.731C250.567 171.013 241.414 180.166 240.978 182.999C240.542 185.832 241.414 190.191 245.773 185.614C250.132 181.037 258.195 174.935 264.298 174.499C270.4 174.063 279.771 177.114 284.566 177.768C289.361 178.422 292.412 179.729 294.155 177.114C295.898 174.499 291.322 168.615 291.322 165.563C291.322 162.511 291.976 157.281 289.797 153.576C287.616 149.873 280.642 145.296 276.937 146.386Z" fill="#757575" stroke="#263238" stroke-miterlimit="10" stroke-linecap="round" stroke-linejoin="round"/>
<path d="M291.178 157.184C291.178 157.184 289.917 161.389 288.655 163.281C287.394 165.173 269.524 168.747 269.524 168.747C269.524 168.747 284.24 167.906 286.973 167.906C289.706 167.906 292.859 170.429 292.859 170.429L291.387 166.435C291.387 166.435 292.019 159.076 291.178 157.184Z" fill="#263238" stroke="#263238" stroke-miterlimit="10" stroke-linecap="round" stroke-linejoin="round"/>
<path d="M32 465H489" stroke="#263238" stroke-miterlimit="10" stroke-linecap="round" stroke-linejoin="round"/>
</svg>
