<svg width="366" height="290" viewBox="0 0 366 290" fill="none" xmlns="http://www.w3.org/2000/svg">
<path d="M180.751 1.66305C202.604 4.21605 229.193 14.588 244.54 31.415C256.112 44.103 262.966 60.172 265.56 77.05C268.339 95.129 262.964 113.17 264.689 131.241C265.616 140.957 268.766 150.731 275.249 158.026C287.569 171.888 305.996 170.977 322.356 176.054C351.577 185.122 371.85 216.161 362.982 246.524C356.134 269.972 335.551 282.161 312.798 286.706C273.108 294.634 236.503 282.649 204.151 260.141C196.51 254.825 187.931 250.071 178.624 249.87C162.107 249.513 143.855 260.741 128.125 265.518C109.587 271.147 89.99 274.646 70.769 270.445C35.889 262.822 15.301 233.462 7.21104 200.335C-0.944955 166.933 -2.41995 131.038 9.37005 98.229C20.366 67.63 40.9821 41.879 68.2941 24.622C101.111 3.88905 142.56 -2.79795 180.751 1.66305Z" fill="#407BFF"/>
<path opacity="0.9" d="M180.751 1.66305C202.604 4.21605 229.193 14.588 244.54 31.415C256.112 44.103 262.966 60.172 265.56 77.05C268.339 95.129 262.964 113.17 264.689 131.241C265.616 140.957 268.766 150.731 275.249 158.026C287.569 171.888 305.996 170.977 322.356 176.054C351.577 185.122 371.85 216.161 362.982 246.524C356.134 269.972 335.551 282.161 312.798 286.706C273.108 294.634 236.503 282.649 204.151 260.141C196.51 254.825 187.931 250.071 178.624 249.87C162.107 249.513 143.855 260.741 128.125 265.518C109.587 271.147 89.99 274.646 70.769 270.445C35.889 262.822 15.301 233.462 7.21104 200.335C-0.944955 166.933 -2.41995 131.038 9.37005 98.229C20.366 67.63 40.9821 41.879 68.2941 24.622C101.111 3.88905 142.56 -2.79795 180.751 1.66305Z" fill="white"/>
</svg>
