<svg width="500" height="348" viewBox="0 0 500 348" fill="none" xmlns="http://www.w3.org/2000/svg">
<path d="M500 328.398H0V328.648H500V328.398Z" fill="#EBEBEB"/>
<path d="M449.901 344.494H416.779V344.744H449.901V344.494Z" fill="#EBEBEB"/>
<path d="M331.22 347.208H322.527V347.458H331.22V347.208Z" fill="#EBEBEB"/>
<path d="M415.778 335.208H396.586V335.458H415.778V335.208Z" fill="#EBEBEB"/>
<path d="M95.652 336.888H52.459V337.138H95.652V336.888Z" fill="#EBEBEB"/>
<path d="M110.889 336.888H104.556V337.138H110.889V336.888Z" fill="#EBEBEB"/>
<path d="M225.147 341.111H131.471V341.361H225.147V341.111Z" fill="#EBEBEB"/>
<path d="M237.014 283.8H43.915C40.768 283.8 38.207 281.239 38.207 278.092V6.66003C38.207 3.51303 40.768 0.952026 43.915 0.952026H237.014C240.16 0.952026 242.721 3.51303 242.721 6.66003V278.092C242.721 281.239 240.16 283.8 237.014 283.8ZM43.915 1.20303C40.905 1.20303 38.457 3.65103 38.457 6.66103V278.093C38.457 281.103 40.905 283.551 43.915 283.551H237.014C240.023 283.551 242.471 281.103 242.471 278.093V6.66003C242.471 3.65103 240.023 1.20203 237.014 1.20203L43.915 1.20303Z" fill="#EBEBEB"/>
<path d="M453.31 283.8H260.212C257.065 283.8 254.505 281.239 254.505 278.092V6.66003C254.505 3.51303 257.066 0.952026 260.212 0.952026H453.31C456.458 0.952026 459.018 3.51303 459.018 6.66003V278.092C459.019 281.239 456.458 283.8 453.31 283.8ZM260.212 1.20303C257.203 1.20303 254.755 3.65103 254.755 6.66103V278.093C254.755 281.103 257.203 283.551 260.212 283.551H453.31C456.32 283.551 458.768 281.103 458.768 278.093V6.66003C458.768 3.65103 456.32 1.20203 453.31 1.20203L260.212 1.20303Z" fill="#EBEBEB"/>
<path d="M415.331 66.712H245.815V256.628H415.331V66.712Z" fill="#EBEBEB"/>
<path d="M412.004 69.775H245.815V253.264H412.004V69.775Z" fill="#FAFAFA"/>
<path d="M405.864 167.167V154.275H402.181V145.681H397.27V132.789H396.042V145.681H391.13V154.275H387.447V167.167H380.694V170.851H377.624V184.971H377.011V164.712H375.169V177.604H373.327V146.908H372.099V159.801H367.188V155.503H365.346V137.7H361.663V119.897H360.435V122.352H335.265V114.985H330.968V86.7461H329.126V114.985H322.987V122.352H320.531V159.187H307.639V148.136H311.936V146.295H307.639V143.225H295.361V114.985H292.291V110.688H277.558V114.985H275.716V154.275H268.963V172.079H265.28V157.959H262.21V154.275H255.457V141.383H251.773V132.789H247.476V119.897H245.815V253.264H412.003V167.167H405.864Z" fill="#F0F0F0"/>
<path d="M346.405 124.277H344.666V126.016H346.405V124.277Z" fill="#FAFAFA"/>
<path d="M346.405 127.193H344.666V128.932H346.405V127.193Z" fill="#FAFAFA"/>
<path d="M346.405 138.857H344.666V140.597H346.405V138.857Z" fill="#FAFAFA"/>
<path d="M346.405 141.773H344.666V143.512H346.405V141.773Z" fill="#FAFAFA"/>
<path d="M346.405 144.689H344.666V146.429H346.405V144.689Z" fill="#FAFAFA"/>
<path d="M346.405 153.438H344.666V155.178H346.405V153.438Z" fill="#FAFAFA"/>
<path d="M346.405 156.354H344.666V158.093H346.405V156.354Z" fill="#FAFAFA"/>
<path d="M343.642 135.941H341.903V137.681H343.642V135.941Z" fill="#FAFAFA"/>
<path d="M343.642 138.857H341.903V140.597H343.642V138.857Z" fill="#FAFAFA"/>
<path d="M343.642 141.773H341.903V143.512H343.642V141.773Z" fill="#FAFAFA"/>
<path d="M343.642 144.689H341.903V146.429H343.642V144.689Z" fill="#FAFAFA"/>
<path d="M343.642 147.605H341.903V149.344H343.642V147.605Z" fill="#FAFAFA"/>
<path d="M343.642 153.438H341.903V155.178H343.642V153.438Z" fill="#FAFAFA"/>
<path d="M343.642 156.354H341.903V158.093H343.642V156.354Z" fill="#FAFAFA"/>
<path d="M340.88 124.277H339.141V126.016H340.88V124.277Z" fill="#FAFAFA"/>
<path d="M340.88 127.193H339.141V128.932H340.88V127.193Z" fill="#FAFAFA"/>
<path d="M340.88 130.109H339.141V131.848H340.88V130.109Z" fill="#FAFAFA"/>
<path d="M340.88 133.025H339.141V134.764H340.88V133.025Z" fill="#FAFAFA"/>
<path d="M340.88 135.941H339.141V137.681H340.88V135.941Z" fill="#FAFAFA"/>
<path d="M340.88 138.857H339.141V140.597H340.88V138.857Z" fill="#FAFAFA"/>
<path d="M340.88 141.773H339.141V143.512H340.88V141.773Z" fill="#FAFAFA"/>
<path d="M340.88 144.689H339.141V146.429H340.88V144.689Z" fill="#FAFAFA"/>
<path d="M340.88 147.605H339.141V149.344H340.88V147.605Z" fill="#FAFAFA"/>
<path d="M340.88 150.522H339.141V152.261H340.88V150.522Z" fill="#FAFAFA"/>
<path d="M340.88 156.354H339.141V158.093H340.88V156.354Z" fill="#FAFAFA"/>
<path d="M338.117 124.277H336.378V126.016H338.117V124.277Z" fill="#FAFAFA"/>
<path d="M338.117 127.193H336.378V128.932H338.117V127.193Z" fill="#FAFAFA"/>
<path d="M338.117 130.109H336.378V131.848H338.117V130.109Z" fill="#FAFAFA"/>
<path d="M338.117 133.025H336.378V134.764H338.117V133.025Z" fill="#FAFAFA"/>
<path d="M338.117 135.941H336.378V137.681H338.117V135.941Z" fill="#FAFAFA"/>
<path d="M338.117 138.857H336.378V140.597H338.117V138.857Z" fill="#FAFAFA"/>
<path d="M338.117 141.773H336.378V143.512H338.117V141.773Z" fill="#FAFAFA"/>
<path d="M338.117 168.018H336.378V169.758H338.117V168.018Z" fill="#FAFAFA"/>
<path d="M335.355 124.277H333.616V126.016H335.355V124.277Z" fill="#FAFAFA"/>
<path d="M335.355 127.193H333.616V128.932H335.355V127.193Z" fill="#FAFAFA"/>
<path d="M335.355 130.109H333.616V131.848H335.355V130.109Z" fill="#FAFAFA"/>
<path d="M335.355 133.025H333.616V134.764H335.355V133.025Z" fill="#FAFAFA"/>
<path d="M335.355 135.941H333.616V137.681H335.355V135.941Z" fill="#FAFAFA"/>
<path d="M335.355 138.857H333.616V140.597H335.355V138.857Z" fill="#FAFAFA"/>
<path d="M335.355 141.773H333.616V143.512H335.355V141.773Z" fill="#FAFAFA"/>
<path d="M335.355 144.689H333.616V146.429H335.355V144.689Z" fill="#FAFAFA"/>
<path d="M335.355 162.186H333.616V163.926H335.355V162.186Z" fill="#FAFAFA"/>
<path d="M335.355 165.102H333.616V166.841H335.355V165.102Z" fill="#FAFAFA"/>
<path d="M335.355 168.018H333.616V169.758H335.355V168.018Z" fill="#FAFAFA"/>
<path d="M335.355 170.934H333.616V172.674H335.355V170.934Z" fill="#FAFAFA"/>
<path d="M335.355 182.598H333.616V184.337H335.355V182.598Z" fill="#FAFAFA"/>
<path d="M332.592 124.277H330.853V126.016H332.592V124.277Z" fill="#FAFAFA"/>
<path d="M332.592 127.193H330.853V128.932H332.592V127.193Z" fill="#FAFAFA"/>
<path d="M332.592 130.109H330.853V131.848H332.592V130.109Z" fill="#FAFAFA"/>
<path d="M332.592 133.025H330.853V134.764H332.592V133.025Z" fill="#FAFAFA"/>
<path d="M332.592 135.941H330.853V137.681H332.592V135.941Z" fill="#FAFAFA"/>
<path d="M332.592 138.857H330.853V140.597H332.592V138.857Z" fill="#FAFAFA"/>
<path d="M332.592 141.773H330.853V143.512H332.592V141.773Z" fill="#FAFAFA"/>
<path d="M332.592 144.689H330.853V146.429H332.592V144.689Z" fill="#FAFAFA"/>
<path d="M332.592 147.605H330.853V149.344H332.592V147.605Z" fill="#FAFAFA"/>
<path d="M332.592 150.522H330.853V152.261H332.592V150.522Z" fill="#FAFAFA"/>
<path d="M332.592 159.27H330.853V161.01H332.592V159.27Z" fill="#FAFAFA"/>
<path d="M332.592 162.186H330.853V163.926H332.592V162.186Z" fill="#FAFAFA"/>
<path d="M332.592 165.102H330.853V166.841H332.592V165.102Z" fill="#FAFAFA"/>
<path d="M332.592 168.018H330.853V169.758H332.592V168.018Z" fill="#FAFAFA"/>
<path d="M332.592 170.934H330.853V172.674H332.592V170.934Z" fill="#FAFAFA"/>
<path d="M332.592 182.598H330.853V184.337H332.592V182.598Z" fill="#FAFAFA"/>
<path d="M329.829 124.277H328.09V126.016H329.829V124.277Z" fill="#FAFAFA"/>
<path d="M329.829 127.193H328.09V128.932H329.829V127.193Z" fill="#FAFAFA"/>
<path d="M329.829 130.109H328.09V131.848H329.829V130.109Z" fill="#FAFAFA"/>
<path d="M329.829 133.025H328.09V134.764H329.829V133.025Z" fill="#FAFAFA"/>
<path d="M329.829 135.941H328.09V137.681H329.829V135.941Z" fill="#FAFAFA"/>
<path d="M329.829 138.857H328.09V140.597H329.829V138.857Z" fill="#FAFAFA"/>
<path d="M329.829 141.773H328.09V143.512H329.829V141.773Z" fill="#FAFAFA"/>
<path d="M329.829 144.689H328.09V146.429H329.829V144.689Z" fill="#FAFAFA"/>
<path d="M329.829 147.605H328.09V149.344H329.829V147.605Z" fill="#FAFAFA"/>
<path d="M329.829 150.522H328.09V152.261H329.829V150.522Z" fill="#FAFAFA"/>
<path d="M329.829 153.438H328.09V155.178H329.829V153.438Z" fill="#FAFAFA"/>
<path d="M329.829 156.354H328.09V158.093H329.829V156.354Z" fill="#FAFAFA"/>
<path d="M329.829 159.27H328.09V161.01H329.829V159.27Z" fill="#FAFAFA"/>
<path d="M329.829 162.186H328.09V163.926H329.829V162.186Z" fill="#FAFAFA"/>
<path d="M329.829 165.102H328.09V166.841H329.829V165.102Z" fill="#FAFAFA"/>
<path d="M329.829 168.018H328.09V169.758H329.829V168.018Z" fill="#FAFAFA"/>
<path d="M329.829 170.934H328.09V172.674H329.829V170.934Z" fill="#FAFAFA"/>
<path d="M329.829 173.85H328.09V175.589H329.829V173.85Z" fill="#FAFAFA"/>
<path d="M327.067 124.277H325.328V126.016H327.067V124.277Z" fill="#FAFAFA"/>
<path d="M327.067 127.193H325.328V128.932H327.067V127.193Z" fill="#FAFAFA"/>
<path d="M327.067 130.109H325.328V131.848H327.067V130.109Z" fill="#FAFAFA"/>
<path d="M327.067 133.025H325.328V134.764H327.067V133.025Z" fill="#FAFAFA"/>
<path d="M327.067 135.941H325.328V137.681H327.067V135.941Z" fill="#FAFAFA"/>
<path d="M327.067 138.857H325.328V140.597H327.067V138.857Z" fill="#FAFAFA"/>
<path d="M327.067 141.773H325.328V143.512H327.067V141.773Z" fill="#FAFAFA"/>
<path d="M327.067 144.689H325.328V146.429H327.067V144.689Z" fill="#FAFAFA"/>
<path d="M327.067 147.605H325.328V149.344H327.067V147.605Z" fill="#FAFAFA"/>
<path d="M327.067 150.522H325.328V152.261H327.067V150.522Z" fill="#FAFAFA"/>
<path d="M327.067 159.27H325.328V161.01H327.067V159.27Z" fill="#FAFAFA"/>
<path d="M327.067 162.186H325.328V163.926H327.067V162.186Z" fill="#FAFAFA"/>
<path d="M327.067 165.102H325.328V166.841H327.067V165.102Z" fill="#FAFAFA"/>
<path d="M327.067 168.018H325.328V169.758H327.067V168.018Z" fill="#FAFAFA"/>
<path d="M324.303 124.277H322.564V126.016H324.303V124.277Z" fill="#FAFAFA"/>
<path d="M324.303 127.193H322.564V128.932H324.303V127.193Z" fill="#FAFAFA"/>
<path d="M324.303 130.109H322.564V131.848H324.303V130.109Z" fill="#FAFAFA"/>
<path d="M324.303 133.025H322.564V134.764H324.303V133.025Z" fill="#FAFAFA"/>
<path d="M324.303 135.941H322.564V137.681H324.303V135.941Z" fill="#FAFAFA"/>
<path d="M324.303 138.857H322.564V140.597H324.303V138.857Z" fill="#FAFAFA"/>
<path d="M324.303 141.773H322.564V143.512H324.303V141.773Z" fill="#FAFAFA"/>
<path d="M324.303 144.689H322.564V146.429H324.303V144.689Z" fill="#FAFAFA"/>
<path d="M324.303 147.605H322.564V149.344H324.303V147.605Z" fill="#FAFAFA"/>
<path d="M324.303 150.522H322.564V152.261H324.303V150.522Z" fill="#FAFAFA"/>
<path d="M324.303 159.27H322.564V161.01H324.303V159.27Z" fill="#FAFAFA"/>
<path d="M324.303 162.186H322.564V163.926H324.303V162.186Z" fill="#FAFAFA"/>
<path d="M324.303 165.102H322.564V166.841H324.303V165.102Z" fill="#FAFAFA"/>
<path d="M293.201 116.706H291.461V118.445H293.201V116.706Z" fill="#FAFAFA"/>
<path d="M293.201 119.622H291.461V121.361H293.201V119.622Z" fill="#FAFAFA"/>
<path d="M293.201 122.538H291.461V124.277H293.201V122.538Z" fill="#FAFAFA"/>
<path d="M293.201 125.454H291.461V127.193H293.201V125.454Z" fill="#FAFAFA"/>
<path d="M293.201 128.37H291.461V130.11H293.201V128.37Z" fill="#FAFAFA"/>
<path d="M293.201 131.286H291.461V133.025H293.201V131.286Z" fill="#FAFAFA"/>
<path d="M293.201 134.202H291.461V135.941H293.201V134.202Z" fill="#FAFAFA"/>
<path d="M293.201 137.118H291.461V138.857H293.201V137.118Z" fill="#FAFAFA"/>
<path d="M293.201 145.866H291.461V147.605H293.201V145.866Z" fill="#FAFAFA"/>
<path d="M293.201 148.782H291.461V150.521H293.201V148.782Z" fill="#FAFAFA"/>
<path d="M290.438 116.706H288.698V118.445H290.438V116.706Z" fill="#FAFAFA"/>
<path d="M290.438 119.622H288.698V121.361H290.438V119.622Z" fill="#FAFAFA"/>
<path d="M290.438 122.538H288.698V124.277H290.438V122.538Z" fill="#FAFAFA"/>
<path d="M290.438 125.454H288.698V127.193H290.438V125.454Z" fill="#FAFAFA"/>
<path d="M290.438 128.37H288.698V130.11H290.438V128.37Z" fill="#FAFAFA"/>
<path d="M290.438 131.286H288.698V133.025H290.438V131.286Z" fill="#FAFAFA"/>
<path d="M290.438 134.202H288.698V135.941H290.438V134.202Z" fill="#FAFAFA"/>
<path d="M290.438 137.118H288.698V138.857H290.438V137.118Z" fill="#FAFAFA"/>
<path d="M290.438 148.782H288.698V150.521H290.438V148.782Z" fill="#FAFAFA"/>
<path d="M287.675 116.706H285.935V118.445H287.675V116.706Z" fill="#FAFAFA"/>
<path d="M287.675 119.622H285.935V121.361H287.675V119.622Z" fill="#FAFAFA"/>
<path d="M287.675 122.538H285.935V124.277H287.675V122.538Z" fill="#FAFAFA"/>
<path d="M287.675 125.454H285.935V127.193H287.675V125.454Z" fill="#FAFAFA"/>
<path d="M287.675 128.37H285.935V130.11H287.675V128.37Z" fill="#FAFAFA"/>
<path d="M287.675 131.286H285.935V133.025H287.675V131.286Z" fill="#FAFAFA"/>
<path d="M287.675 134.202H285.935V135.941H287.675V134.202Z" fill="#FAFAFA"/>
<path d="M287.675 137.118H285.935V138.857H287.675V137.118Z" fill="#FAFAFA"/>
<path d="M284.913 116.706H283.173V118.445H284.913V116.706Z" fill="#FAFAFA"/>
<path d="M284.913 119.622H283.173V121.361H284.913V119.622Z" fill="#FAFAFA"/>
<path d="M284.913 122.538H283.173V124.277H284.913V122.538Z" fill="#FAFAFA"/>
<path d="M284.913 125.454H283.173V127.193H284.913V125.454Z" fill="#FAFAFA"/>
<path d="M284.913 128.37H283.173V130.11H284.913V128.37Z" fill="#FAFAFA"/>
<path d="M284.913 131.286H283.173V133.025H284.913V131.286Z" fill="#FAFAFA"/>
<path d="M284.913 137.118H283.173V138.857H284.913V137.118Z" fill="#FAFAFA"/>
<path d="M284.913 140.034H283.173V141.773H284.913V140.034Z" fill="#FAFAFA"/>
<path d="M284.913 148.782H283.173V150.521H284.913V148.782Z" fill="#FAFAFA"/>
<path d="M284.913 151.698H283.173V153.437H284.913V151.698Z" fill="#FAFAFA"/>
<path d="M284.913 154.614H283.173V156.353H284.913V154.614Z" fill="#FAFAFA"/>
<path d="M284.913 157.53H283.173V159.269H284.913V157.53Z" fill="#FAFAFA"/>
<path d="M284.913 160.446H283.173V162.185H284.913V160.446Z" fill="#FAFAFA"/>
<path d="M284.913 163.363H283.173V165.102H284.913V163.363Z" fill="#FAFAFA"/>
<path d="M284.913 166.279H283.173V168.018H284.913V166.279Z" fill="#FAFAFA"/>
<path d="M282.15 116.706H280.41V118.445H282.15V116.706Z" fill="#FAFAFA"/>
<path d="M282.15 119.622H280.41V121.361H282.15V119.622Z" fill="#FAFAFA"/>
<path d="M282.15 122.538H280.41V124.277H282.15V122.538Z" fill="#FAFAFA"/>
<path d="M282.15 125.454H280.41V127.193H282.15V125.454Z" fill="#FAFAFA"/>
<path d="M282.15 128.37H280.41V130.11H282.15V128.37Z" fill="#FAFAFA"/>
<path d="M282.15 131.286H280.41V133.025H282.15V131.286Z" fill="#FAFAFA"/>
<path d="M282.15 140.034H280.41V141.773H282.15V140.034Z" fill="#FAFAFA"/>
<path d="M282.15 142.95H280.41V144.689H282.15V142.95Z" fill="#FAFAFA"/>
<path d="M282.15 145.866H280.41V147.605H282.15V145.866Z" fill="#FAFAFA"/>
<path d="M282.15 148.782H280.41V150.521H282.15V148.782Z" fill="#FAFAFA"/>
<path d="M282.15 151.698H280.41V153.437H282.15V151.698Z" fill="#FAFAFA"/>
<path d="M282.15 154.614H280.41V156.353H282.15V154.614Z" fill="#FAFAFA"/>
<path d="M282.15 157.53H280.41V159.269H282.15V157.53Z" fill="#FAFAFA"/>
<path d="M282.15 160.446H280.41V162.185H282.15V160.446Z" fill="#FAFAFA"/>
<path d="M282.15 163.363H280.41V165.102H282.15V163.363Z" fill="#FAFAFA"/>
<path d="M282.15 166.279H280.41V168.018H282.15V166.279Z" fill="#FAFAFA"/>
<path d="M282.15 169.195H280.41V170.934H282.15V169.195Z" fill="#FAFAFA"/>
<path d="M282.15 175.027H280.41V176.766H282.15V175.027Z" fill="#FAFAFA"/>
<path d="M279.387 116.706H277.647V118.445H279.387V116.706Z" fill="#FAFAFA"/>
<path d="M279.387 119.622H277.647V121.361H279.387V119.622Z" fill="#FAFAFA"/>
<path d="M279.387 122.538H277.647V124.277H279.387V122.538Z" fill="#FAFAFA"/>
<path d="M279.387 125.454H277.647V127.193H279.387V125.454Z" fill="#FAFAFA"/>
<path d="M279.387 128.37H277.647V130.11H279.387V128.37Z" fill="#FAFAFA"/>
<path d="M279.387 131.286H277.647V133.025H279.387V131.286Z" fill="#FAFAFA"/>
<path d="M279.387 140.034H277.647V141.773H279.387V140.034Z" fill="#FAFAFA"/>
<path d="M279.387 142.95H277.647V144.689H279.387V142.95Z" fill="#FAFAFA"/>
<path d="M279.387 145.866H277.647V147.605H279.387V145.866Z" fill="#FAFAFA"/>
<path d="M279.387 148.782H277.647V150.521H279.387V148.782Z" fill="#FAFAFA"/>
<path d="M279.387 157.53H277.647V159.269H279.387V157.53Z" fill="#FAFAFA"/>
<path d="M279.387 160.446H277.647V162.185H279.387V160.446Z" fill="#FAFAFA"/>
<path d="M279.387 163.363H277.647V165.102H279.387V163.363Z" fill="#FAFAFA"/>
<path d="M279.387 166.279H277.647V168.018H279.387V166.279Z" fill="#FAFAFA"/>
<path d="M279.387 169.195H277.647V170.934H279.387V169.195Z" fill="#FAFAFA"/>
<path d="M279.387 175.027H277.647V176.766H279.387V175.027Z" fill="#FAFAFA"/>
<path d="M279.387 177.943H277.647V179.682H279.387V177.943Z" fill="#FAFAFA"/>
<path d="M254.319 143.82H252.58V145.559H254.319V143.82Z" fill="#FAFAFA"/>
<path d="M254.319 146.736H252.58V148.475H254.319V146.736Z" fill="#FAFAFA"/>
<path d="M254.319 149.652H252.58V151.391H254.319V149.652Z" fill="#FAFAFA"/>
<path d="M254.319 152.568H252.58V154.307H254.319V152.568Z" fill="#FAFAFA"/>
<path d="M254.319 155.484H252.58V157.223H254.319V155.484Z" fill="#FAFAFA"/>
<path d="M254.319 158.4H252.58V160.139H254.319V158.4Z" fill="#FAFAFA"/>
<path d="M254.319 161.316H252.58V163.055H254.319V161.316Z" fill="#FAFAFA"/>
<path d="M254.319 170.064H252.58V171.803H254.319V170.064Z" fill="#FAFAFA"/>
<path d="M254.319 172.98H252.58V174.719H254.319V172.98Z" fill="#FAFAFA"/>
<path d="M254.319 175.896H252.58V177.635H254.319V175.896Z" fill="#FAFAFA"/>
<path d="M251.555 143.82H249.816V145.559H251.555V143.82Z" fill="#FAFAFA"/>
<path d="M251.555 146.736H249.816V148.475H251.555V146.736Z" fill="#FAFAFA"/>
<path d="M251.555 149.652H249.816V151.391H251.555V149.652Z" fill="#FAFAFA"/>
<path d="M251.555 152.568H249.816V154.307H251.555V152.568Z" fill="#FAFAFA"/>
<path d="M251.555 155.484H249.816V157.223H251.555V155.484Z" fill="#FAFAFA"/>
<path d="M251.555 158.4H249.816V160.139H251.555V158.4Z" fill="#FAFAFA"/>
<path d="M251.555 161.316H249.816V163.055H251.555V161.316Z" fill="#FAFAFA"/>
<path d="M248.794 143.82H246.296V145.559H248.794V143.82Z" fill="#FAFAFA"/>
<path d="M248.794 146.736H246.296V148.475H248.794V146.736Z" fill="#FAFAFA"/>
<path d="M248.794 149.652H246.296V151.391H248.794V149.652Z" fill="#FAFAFA"/>
<path d="M248.794 152.568H246.296V154.307H248.794V152.568Z" fill="#FAFAFA"/>
<path d="M248.794 155.484H246.296V157.223H248.794V155.484Z" fill="#FAFAFA"/>
<path d="M248.794 158.4H246.296V160.139H248.794V158.4Z" fill="#FAFAFA"/>
<path d="M248.794 161.316H246.296V163.055H248.794V161.316Z" fill="#FAFAFA"/>
<path d="M400.736 147.605H398.997V149.344H400.736V147.605Z" fill="#FAFAFA"/>
<path d="M400.736 150.522H398.997V152.261H400.736V150.522Z" fill="#FAFAFA"/>
<path d="M400.736 153.438H398.997V155.178H400.736V153.438Z" fill="#FAFAFA"/>
<path d="M400.736 156.354H398.997V158.093H400.736V156.354Z" fill="#FAFAFA"/>
<path d="M400.736 159.27H398.997V161.01H400.736V159.27Z" fill="#FAFAFA"/>
<path d="M400.736 162.186H398.997V163.926H400.736V162.186Z" fill="#FAFAFA"/>
<path d="M400.736 165.102H398.997V166.841H400.736V165.102Z" fill="#FAFAFA"/>
<path d="M400.736 168.018H398.997V169.758H400.736V168.018Z" fill="#FAFAFA"/>
<path d="M400.736 170.934H398.997V172.674H400.736V170.934Z" fill="#FAFAFA"/>
<path d="M400.736 173.85H398.997V175.589H400.736V173.85Z" fill="#FAFAFA"/>
<path d="M400.736 176.766H398.997V178.506H400.736V176.766Z" fill="#FAFAFA"/>
<path d="M400.736 179.682H398.997V181.421H400.736V179.682Z" fill="#FAFAFA"/>
<path d="M400.736 182.598H398.997V184.337H400.736V182.598Z" fill="#FAFAFA"/>
<path d="M400.736 185.514H398.997V187.253H400.736V185.514Z" fill="#FAFAFA"/>
<path d="M400.736 188.43H398.997V190.17H400.736V188.43Z" fill="#FAFAFA"/>
<path d="M400.736 191.346H398.997V193.085H400.736V191.346Z" fill="#FAFAFA"/>
<path d="M400.736 194.262H398.997V196.002H400.736V194.262Z" fill="#FAFAFA"/>
<path d="M400.736 197.178H398.997V198.918H400.736V197.178Z" fill="#FAFAFA"/>
<path d="M400.736 200.095H398.997V201.834H400.736V200.095Z" fill="#FAFAFA"/>
<path d="M400.736 203.011H398.997V204.751H400.736V203.011Z" fill="#FAFAFA"/>
<path d="M397.973 147.605H396.234V149.344H397.973V147.605Z" fill="#FAFAFA"/>
<path d="M397.973 150.522H396.234V152.261H397.973V150.522Z" fill="#FAFAFA"/>
<path d="M397.973 153.438H396.234V155.178H397.973V153.438Z" fill="#FAFAFA"/>
<path d="M397.973 156.354H396.234V158.093H397.973V156.354Z" fill="#FAFAFA"/>
<path d="M397.973 159.27H396.234V161.01H397.973V159.27Z" fill="#FAFAFA"/>
<path d="M397.973 162.186H396.234V163.926H397.973V162.186Z" fill="#FAFAFA"/>
<path d="M397.973 165.102H396.234V166.841H397.973V165.102Z" fill="#FAFAFA"/>
<path d="M397.973 168.018H396.234V169.758H397.973V168.018Z" fill="#FAFAFA"/>
<path d="M397.973 170.934H396.234V172.674H397.973V170.934Z" fill="#FAFAFA"/>
<path d="M397.973 173.85H396.234V175.589H397.973V173.85Z" fill="#FAFAFA"/>
<path d="M397.973 176.766H396.234V178.506H397.973V176.766Z" fill="#FAFAFA"/>
<path d="M397.973 179.682H396.234V181.421H397.973V179.682Z" fill="#FAFAFA"/>
<path d="M397.973 182.598H396.234V184.337H397.973V182.598Z" fill="#FAFAFA"/>
<path d="M397.973 185.514H396.234V187.253H397.973V185.514Z" fill="#FAFAFA"/>
<path d="M397.973 188.43H396.234V190.17H397.973V188.43Z" fill="#FAFAFA"/>
<path d="M397.973 191.346H396.234V193.085H397.973V191.346Z" fill="#FAFAFA"/>
<path d="M397.973 194.262H396.234V196.002H397.973V194.262Z" fill="#FAFAFA"/>
<path d="M397.973 197.178H396.234V198.918H397.973V197.178Z" fill="#FAFAFA"/>
<path d="M395.21 147.605H393.471V149.344H395.21V147.605Z" fill="#FAFAFA"/>
<path d="M395.21 150.522H393.471V152.261H395.21V150.522Z" fill="#FAFAFA"/>
<path d="M395.21 153.438H393.471V155.178H395.21V153.438Z" fill="#FAFAFA"/>
<path d="M395.21 156.354H393.471V158.093H395.21V156.354Z" fill="#FAFAFA"/>
<path d="M395.21 159.27H393.471V161.01H395.21V159.27Z" fill="#FAFAFA"/>
<path d="M395.21 162.186H393.471V163.926H395.21V162.186Z" fill="#FAFAFA"/>
<path d="M395.21 165.102H393.471V166.841H395.21V165.102Z" fill="#FAFAFA"/>
<path d="M395.21 168.018H393.471V169.758H395.21V168.018Z" fill="#FAFAFA"/>
<path d="M395.21 170.934H393.471V172.674H395.21V170.934Z" fill="#FAFAFA"/>
<path d="M395.21 173.85H393.471V175.589H395.21V173.85Z" fill="#FAFAFA"/>
<path d="M395.21 176.766H393.471V178.506H395.21V176.766Z" fill="#FAFAFA"/>
<path d="M395.21 179.682H393.471V181.421H395.21V179.682Z" fill="#FAFAFA"/>
<path d="M395.21 182.598H393.471V184.337H395.21V182.598Z" fill="#FAFAFA"/>
<path d="M395.21 185.514H393.471V187.253H395.21V185.514Z" fill="#FAFAFA"/>
<path d="M395.21 188.43H393.471V190.17H395.21V188.43Z" fill="#FAFAFA"/>
<path d="M395.21 191.346H393.471V193.085H395.21V191.346Z" fill="#FAFAFA"/>
<path d="M395.21 194.262H393.471V196.002H395.21V194.262Z" fill="#FAFAFA"/>
<path d="M395.21 197.178H393.471V198.918H395.21V197.178Z" fill="#FAFAFA"/>
<path d="M411.071 168.888H409.331V170.627H411.071V168.888Z" fill="#FAFAFA"/>
<path d="M411.071 171.804H409.331V173.543H411.071V171.804Z" fill="#FAFAFA"/>
<path d="M411.071 174.72H409.331V176.459H411.071V174.72Z" fill="#FAFAFA"/>
<path d="M411.071 177.636H409.331V179.375H411.071V177.636Z" fill="#FAFAFA"/>
<path d="M411.071 180.552H409.331V182.291H411.071V180.552Z" fill="#FAFAFA"/>
<path d="M411.071 183.468H409.331V185.207H411.071V183.468Z" fill="#FAFAFA"/>
<path d="M411.071 186.384H409.331V188.123H411.071V186.384Z" fill="#FAFAFA"/>
<path d="M411.071 189.3H409.331V191.039H411.071V189.3Z" fill="#FAFAFA"/>
<path d="M411.071 192.216H409.331V193.955H411.071V192.216Z" fill="#FAFAFA"/>
<path d="M411.071 195.132H409.331V196.871H411.071V195.132Z" fill="#FAFAFA"/>
<path d="M411.071 198.048H409.331V199.787H411.071V198.048Z" fill="#FAFAFA"/>
<path d="M411.071 200.964H409.331V202.703H411.071V200.964Z" fill="#FAFAFA"/>
<path d="M411.071 203.88H409.331V205.619H411.071V203.88Z" fill="#FAFAFA"/>
<path d="M408.308 168.888H406.568V170.627H408.308V168.888Z" fill="#FAFAFA"/>
<path d="M408.308 171.804H406.568V173.543H408.308V171.804Z" fill="#FAFAFA"/>
<path d="M408.308 174.72H406.568V176.459H408.308V174.72Z" fill="#FAFAFA"/>
<path d="M408.308 177.636H406.568V179.375H408.308V177.636Z" fill="#FAFAFA"/>
<path d="M408.308 180.552H406.568V182.291H408.308V180.552Z" fill="#FAFAFA"/>
<path d="M408.308 183.468H406.568V185.207H408.308V183.468Z" fill="#FAFAFA"/>
<path d="M408.308 186.384H406.568V188.123H408.308V186.384Z" fill="#FAFAFA"/>
<path d="M408.308 189.3H406.568V191.039H408.308V189.3Z" fill="#FAFAFA"/>
<path d="M408.308 192.216H406.568V193.955H408.308V192.216Z" fill="#FAFAFA"/>
<path d="M408.308 195.132H406.568V196.871H408.308V195.132Z" fill="#FAFAFA"/>
<path d="M408.308 198.048H406.568V199.787H408.308V198.048Z" fill="#FAFAFA"/>
<path d="M408.308 200.964H406.568V202.703H408.308V200.964Z" fill="#FAFAFA"/>
<path d="M408.308 203.88H406.568V205.619H408.308V203.88Z" fill="#FAFAFA"/>
<path d="M405.546 168.888H403.806V170.627H405.546V168.888Z" fill="#FAFAFA"/>
<path d="M405.546 171.804H403.806V173.543H405.546V171.804Z" fill="#FAFAFA"/>
<path d="M405.546 174.72H403.806V176.459H405.546V174.72Z" fill="#FAFAFA"/>
<path d="M405.546 177.636H403.806V179.375H405.546V177.636Z" fill="#FAFAFA"/>
<path d="M405.546 180.552H403.806V182.291H405.546V180.552Z" fill="#FAFAFA"/>
<path d="M405.546 183.468H403.806V185.207H405.546V183.468Z" fill="#FAFAFA"/>
<path d="M405.546 186.384H403.806V188.123H405.546V186.384Z" fill="#FAFAFA"/>
<path d="M405.546 189.3H403.806V191.039H405.546V189.3Z" fill="#FAFAFA"/>
<path d="M405.546 192.216H403.806V193.955H405.546V192.216Z" fill="#FAFAFA"/>
<path d="M405.546 195.132H403.806V196.871H405.546V195.132Z" fill="#FAFAFA"/>
<path d="M405.546 198.048H403.806V199.787H405.546V198.048Z" fill="#FAFAFA"/>
<path d="M405.546 200.964H403.806V202.703H405.546V200.964Z" fill="#FAFAFA"/>
<path d="M405.546 203.88H403.806V205.619H405.546V203.88Z" fill="#FAFAFA"/>
<path d="M405.546 206.797H403.806V208.536H405.546V206.797Z" fill="#FAFAFA"/>
<path d="M390.198 169.757H388.458V171.496H390.198V169.757Z" fill="#FAFAFA"/>
<path d="M390.198 172.673H388.458V174.412H390.198V172.673Z" fill="#FAFAFA"/>
<path d="M390.198 175.589H388.458V177.328H390.198V175.589Z" fill="#FAFAFA"/>
<path d="M390.198 178.506H388.458V180.245H390.198V178.506Z" fill="#FAFAFA"/>
<path d="M390.198 181.422H388.458V183.161H390.198V181.422Z" fill="#FAFAFA"/>
<path d="M390.198 184.338H388.458V186.077H390.198V184.338Z" fill="#FAFAFA"/>
<path d="M390.198 187.254H388.458V188.993H390.198V187.254Z" fill="#FAFAFA"/>
<path d="M390.198 190.17H388.458V191.909H390.198V190.17Z" fill="#FAFAFA"/>
<path d="M390.198 193.086H388.458V194.825H390.198V193.086Z" fill="#FAFAFA"/>
<path d="M390.198 196.002H388.458V197.741H390.198V196.002Z" fill="#FAFAFA"/>
<path d="M390.198 204.75H388.458V206.489H390.198V204.75Z" fill="#FAFAFA"/>
<path d="M387.434 169.757H385.695V171.496H387.434V169.757Z" fill="#FAFAFA"/>
<path d="M387.434 172.673H385.695V174.412H387.434V172.673Z" fill="#FAFAFA"/>
<path d="M387.434 175.589H385.695V177.328H387.434V175.589Z" fill="#FAFAFA"/>
<path d="M387.434 178.506H385.695V180.245H387.434V178.506Z" fill="#FAFAFA"/>
<path d="M387.434 181.422H385.695V183.161H387.434V181.422Z" fill="#FAFAFA"/>
<path d="M387.434 184.338H385.695V186.077H387.434V184.338Z" fill="#FAFAFA"/>
<path d="M387.434 187.254H385.695V188.993H387.434V187.254Z" fill="#FAFAFA"/>
<path d="M387.434 190.17H385.695V191.909H387.434V190.17Z" fill="#FAFAFA"/>
<path d="M387.434 193.086H385.695V194.825H387.434V193.086Z" fill="#FAFAFA"/>
<path d="M387.434 201.834H385.695V203.573H387.434V201.834Z" fill="#FAFAFA"/>
<path d="M387.434 204.75H385.695V206.489H387.434V204.75Z" fill="#FAFAFA"/>
<path d="M384.673 169.757H382.933V171.496H384.673V169.757Z" fill="#FAFAFA"/>
<path d="M384.673 172.673H382.933V174.412H384.673V172.673Z" fill="#FAFAFA"/>
<path d="M384.673 175.589H382.933V177.328H384.673V175.589Z" fill="#FAFAFA"/>
<path d="M384.673 178.506H382.933V180.245H384.673V178.506Z" fill="#FAFAFA"/>
<path d="M384.673 181.422H382.933V183.161H384.673V181.422Z" fill="#FAFAFA"/>
<path d="M384.673 184.338H382.933V186.077H384.673V184.338Z" fill="#FAFAFA"/>
<path d="M384.673 187.254H382.933V188.993H384.673V187.254Z" fill="#FAFAFA"/>
<path d="M384.673 190.17H382.933V191.909H384.673V190.17Z" fill="#FAFAFA"/>
<path d="M384.673 198.918H382.933V200.657H384.673V198.918Z" fill="#FAFAFA"/>
<path d="M384.673 201.834H382.933V203.573H384.673V201.834Z" fill="#FAFAFA"/>
<path d="M384.673 204.75H382.933V206.489H384.673V204.75Z" fill="#FAFAFA"/>
<path d="M358.99 125.454H357.251V127.193H358.99V125.454Z" fill="#FAFAFA"/>
<path d="M358.99 128.37H357.251V130.11H358.99V128.37Z" fill="#FAFAFA"/>
<path d="M358.99 131.286H357.251V133.025H358.99V131.286Z" fill="#FAFAFA"/>
<path d="M358.99 134.202H357.251V135.941H358.99V134.202Z" fill="#FAFAFA"/>
<path d="M358.99 137.118H357.251V138.857H358.99V137.118Z" fill="#FAFAFA"/>
<path d="M358.99 140.034H357.251V141.773H358.99V140.034Z" fill="#FAFAFA"/>
<path d="M358.99 142.95H357.251V144.689H358.99V142.95Z" fill="#FAFAFA"/>
<path d="M358.99 145.866H357.251V147.605H358.99V145.866Z" fill="#FAFAFA"/>
<path d="M358.99 148.782H357.251V150.521H358.99V148.782Z" fill="#FAFAFA"/>
<path d="M358.99 151.698H357.251V153.437H358.99V151.698Z" fill="#FAFAFA"/>
<path d="M358.99 154.614H357.251V156.353H358.99V154.614Z" fill="#FAFAFA"/>
<path d="M358.99 157.53H357.251V159.269H358.99V157.53Z" fill="#FAFAFA"/>
<path d="M358.99 160.446H357.251V162.185H358.99V160.446Z" fill="#FAFAFA"/>
<path d="M358.99 163.363H357.251V165.102H358.99V163.363Z" fill="#FAFAFA"/>
<path d="M358.99 166.279H357.251V168.018H358.99V166.279Z" fill="#FAFAFA"/>
<path d="M358.99 169.195H357.251V170.934H358.99V169.195Z" fill="#FAFAFA"/>
<path d="M358.99 172.111H357.251V173.85H358.99V172.111Z" fill="#FAFAFA"/>
<path d="M358.99 177.943H357.251V179.682H358.99V177.943Z" fill="#FAFAFA"/>
<path d="M358.99 180.859H357.251V182.598H358.99V180.859Z" fill="#FAFAFA"/>
<path d="M358.99 183.775H357.251V185.514H358.99V183.775Z" fill="#FAFAFA"/>
<path d="M358.99 186.691H357.251V188.43H358.99V186.691Z" fill="#FAFAFA"/>
<path d="M358.99 189.607H357.251V191.346H358.99V189.607Z" fill="#FAFAFA"/>
<path d="M356.227 125.454H354.488V127.193H356.227V125.454Z" fill="#FAFAFA"/>
<path d="M356.227 128.37H354.488V130.11H356.227V128.37Z" fill="#FAFAFA"/>
<path d="M356.227 131.286H354.488V133.025H356.227V131.286Z" fill="#FAFAFA"/>
<path d="M356.227 134.202H354.488V135.941H356.227V134.202Z" fill="#FAFAFA"/>
<path d="M356.227 137.118H354.488V138.857H356.227V137.118Z" fill="#FAFAFA"/>
<path d="M356.227 140.034H354.488V141.773H356.227V140.034Z" fill="#FAFAFA"/>
<path d="M356.227 142.95H354.488V144.689H356.227V142.95Z" fill="#FAFAFA"/>
<path d="M356.227 145.866H354.488V147.605H356.227V145.866Z" fill="#FAFAFA"/>
<path d="M356.227 148.782H354.488V150.521H356.227V148.782Z" fill="#FAFAFA"/>
<path d="M356.227 151.698H354.488V153.437H356.227V151.698Z" fill="#FAFAFA"/>
<path d="M356.227 154.614H354.488V156.353H356.227V154.614Z" fill="#FAFAFA"/>
<path d="M356.227 157.53H354.488V159.269H356.227V157.53Z" fill="#FAFAFA"/>
<path d="M356.227 160.446H354.488V162.185H356.227V160.446Z" fill="#FAFAFA"/>
<path d="M356.227 163.363H354.488V165.102H356.227V163.363Z" fill="#FAFAFA"/>
<path d="M356.227 166.279H354.488V168.018H356.227V166.279Z" fill="#FAFAFA"/>
<path d="M356.227 169.195H354.488V170.934H356.227V169.195Z" fill="#FAFAFA"/>
<path d="M356.227 186.691H354.488V188.43H356.227V186.691Z" fill="#FAFAFA"/>
<path d="M356.227 189.607H354.488V191.346H356.227V189.607Z" fill="#FAFAFA"/>
<path d="M353.465 125.454H351.726V127.193H353.465V125.454Z" fill="#FAFAFA"/>
<path d="M353.465 128.37H351.726V130.11H353.465V128.37Z" fill="#FAFAFA"/>
<path d="M353.465 131.286H351.726V133.025H353.465V131.286Z" fill="#FAFAFA"/>
<path d="M353.465 134.202H351.726V135.941H353.465V134.202Z" fill="#FAFAFA"/>
<path d="M353.465 137.118H351.726V138.857H353.465V137.118Z" fill="#FAFAFA"/>
<path d="M353.465 140.034H351.726V141.773H353.465V140.034Z" fill="#FAFAFA"/>
<path d="M353.465 142.95H351.726V144.689H353.465V142.95Z" fill="#FAFAFA"/>
<path d="M353.465 145.866H351.726V147.605H353.465V145.866Z" fill="#FAFAFA"/>
<path d="M353.465 148.782H351.726V150.521H353.465V148.782Z" fill="#FAFAFA"/>
<path d="M353.465 151.698H351.726V153.437H353.465V151.698Z" fill="#FAFAFA"/>
<path d="M353.465 154.614H351.726V156.353H353.465V154.614Z" fill="#FAFAFA"/>
<path d="M353.465 157.53H351.726V159.269H353.465V157.53Z" fill="#FAFAFA"/>
<path d="M353.465 160.446H351.726V162.185H353.465V160.446Z" fill="#FAFAFA"/>
<path d="M353.465 163.363H351.726V165.102H353.465V163.363Z" fill="#FAFAFA"/>
<path d="M353.465 166.279H351.726V168.018H353.465V166.279Z" fill="#FAFAFA"/>
<path d="M353.465 169.195H351.726V170.934H353.465V169.195Z" fill="#FAFAFA"/>
<path d="M353.465 175.027H351.726V176.766H353.465V175.027Z" fill="#FAFAFA"/>
<path d="M353.465 177.943H351.726V179.682H353.465V177.943Z" fill="#FAFAFA"/>
<path d="M353.465 180.859H351.726V182.598H353.465V180.859Z" fill="#FAFAFA"/>
<path d="M353.465 183.775H351.726V185.514H353.465V183.775Z" fill="#FAFAFA"/>
<path d="M353.465 189.607H351.726V191.346H353.465V189.607Z" fill="#FAFAFA"/>
<path d="M369.018 162.186H367.278V163.926H369.018V162.186Z" fill="#FAFAFA"/>
<path d="M369.018 165.102H367.278V166.841H369.018V165.102Z" fill="#FAFAFA"/>
<path d="M369.018 168.018H367.278V169.758H369.018V168.018Z" fill="#FAFAFA"/>
<path d="M369.018 170.934H367.278V172.674H369.018V170.934Z" fill="#FAFAFA"/>
<path d="M369.018 173.85H367.278V175.589H369.018V173.85Z" fill="#FAFAFA"/>
<path d="M369.018 176.766H367.278V178.506H369.018V176.766Z" fill="#FAFAFA"/>
<path d="M369.018 179.682H367.278V181.421H369.018V179.682Z" fill="#FAFAFA"/>
<path d="M369.018 185.514H367.278V187.253H369.018V185.514Z" fill="#FAFAFA"/>
<path d="M369.018 188.43H367.278V190.17H369.018V188.43Z" fill="#FAFAFA"/>
<path d="M369.018 191.346H367.278V193.085H369.018V191.346Z" fill="#FAFAFA"/>
<path d="M369.018 194.262H367.278V196.002H369.018V194.262Z" fill="#FAFAFA"/>
<path d="M369.018 197.178H367.278V198.918H369.018V197.178Z" fill="#FAFAFA"/>
<path d="M369.018 200.095H367.278V201.834H369.018V200.095Z" fill="#FAFAFA"/>
<path d="M369.018 203.011H367.278V204.751H369.018V203.011Z" fill="#FAFAFA"/>
<path d="M369.018 205.927H367.278V207.667H369.018V205.927Z" fill="#FAFAFA"/>
<path d="M366.255 162.186H364.515V163.926H366.255V162.186Z" fill="#FAFAFA"/>
<path d="M366.255 165.102H364.515V166.841H366.255V165.102Z" fill="#FAFAFA"/>
<path d="M366.255 168.018H364.515V169.758H366.255V168.018Z" fill="#FAFAFA"/>
<path d="M366.255 170.934H364.515V172.674H366.255V170.934Z" fill="#FAFAFA"/>
<path d="M366.255 173.85H364.515V175.589H366.255V173.85Z" fill="#FAFAFA"/>
<path d="M366.255 176.766H364.515V178.506H366.255V176.766Z" fill="#FAFAFA"/>
<path d="M366.255 185.514H364.515V187.253H366.255V185.514Z" fill="#FAFAFA"/>
<path d="M366.255 188.43H364.515V190.17H366.255V188.43Z" fill="#FAFAFA"/>
<path d="M366.255 191.346H364.515V193.085H366.255V191.346Z" fill="#FAFAFA"/>
<path d="M366.255 194.262H364.515V196.002H366.255V194.262Z" fill="#FAFAFA"/>
<path d="M366.255 197.178H364.515V198.918H366.255V197.178Z" fill="#FAFAFA"/>
<path d="M366.255 200.095H364.515V201.834H366.255V200.095Z" fill="#FAFAFA"/>
<path d="M366.255 203.011H364.515V204.751H366.255V203.011Z" fill="#FAFAFA"/>
<path d="M366.255 205.927H364.515V207.667H366.255V205.927Z" fill="#FAFAFA"/>
<path d="M363.493 162.186H361.753V163.926H363.493V162.186Z" fill="#FAFAFA"/>
<path d="M363.493 165.102H361.753V166.841H363.493V165.102Z" fill="#FAFAFA"/>
<path d="M363.493 168.018H361.753V169.758H363.493V168.018Z" fill="#FAFAFA"/>
<path d="M363.493 170.934H361.753V172.674H363.493V170.934Z" fill="#FAFAFA"/>
<path d="M363.493 173.85H361.753V175.589H363.493V173.85Z" fill="#FAFAFA"/>
<path d="M363.493 176.766H361.753V178.506H363.493V176.766Z" fill="#FAFAFA"/>
<path d="M363.493 182.598H361.753V184.337H363.493V182.598Z" fill="#FAFAFA"/>
<path d="M363.493 185.514H361.753V187.253H363.493V185.514Z" fill="#FAFAFA"/>
<path d="M363.493 188.43H361.753V190.17H363.493V188.43Z" fill="#FAFAFA"/>
<path d="M363.493 191.346H361.753V193.085H363.493V191.346Z" fill="#FAFAFA"/>
<path d="M363.493 194.262H361.753V196.002H363.493V194.262Z" fill="#FAFAFA"/>
<path d="M363.493 197.178H361.753V198.918H363.493V197.178Z" fill="#FAFAFA"/>
<path d="M363.493 200.095H361.753V201.834H363.493V200.095Z" fill="#FAFAFA"/>
<path d="M363.493 203.011H361.753V204.751H363.493V203.011Z" fill="#FAFAFA"/>
<path d="M363.493 205.927H361.753V207.667H363.493V205.927Z" fill="#FAFAFA"/>
<path d="M305.273 145.866H303.534V147.605H305.273V145.866Z" fill="#FAFAFA"/>
<path d="M305.273 148.782H303.534V150.521H305.273V148.782Z" fill="#FAFAFA"/>
<path d="M305.273 151.698H303.534V153.437H305.273V151.698Z" fill="#FAFAFA"/>
<path d="M305.273 154.614H303.534V156.353H305.273V154.614Z" fill="#FAFAFA"/>
<path d="M305.273 157.53H303.534V159.269H305.273V157.53Z" fill="#FAFAFA"/>
<path d="M305.273 160.446H303.534V162.185H305.273V160.446Z" fill="#FAFAFA"/>
<path d="M305.273 163.363H303.534V165.102H305.273V163.363Z" fill="#FAFAFA"/>
<path d="M305.273 166.279H303.534V168.018H305.273V166.279Z" fill="#FAFAFA"/>
<path d="M305.273 169.195H303.534V170.934H305.273V169.195Z" fill="#FAFAFA"/>
<path d="M305.273 172.111H303.534V173.85H305.273V172.111Z" fill="#FAFAFA"/>
<path d="M305.273 175.027H303.534V176.766H305.273V175.027Z" fill="#FAFAFA"/>
<path d="M305.273 177.943H303.534V179.682H305.273V177.943Z" fill="#FAFAFA"/>
<path d="M305.273 180.859H303.534V182.598H305.273V180.859Z" fill="#FAFAFA"/>
<path d="M305.273 186.691H303.534V188.43H305.273V186.691Z" fill="#FAFAFA"/>
<path d="M305.273 189.607H303.534V191.346H305.273V189.607Z" fill="#FAFAFA"/>
<path d="M305.273 192.523H303.534V194.262H305.273V192.523Z" fill="#FAFAFA"/>
<path d="M305.273 195.439H303.534V197.178H305.273V195.439Z" fill="#FAFAFA"/>
<path d="M305.273 201.271H303.534V203.01H305.273V201.271Z" fill="#FAFAFA"/>
<path d="M305.273 204.187H303.534V205.926H305.273V204.187Z" fill="#FAFAFA"/>
<path d="M305.273 207.103H303.534V208.842H305.273V207.103Z" fill="#FAFAFA"/>
<path d="M302.51 145.866H300.771V147.605H302.51V145.866Z" fill="#FAFAFA"/>
<path d="M302.51 148.782H300.771V150.521H302.51V148.782Z" fill="#FAFAFA"/>
<path d="M302.51 151.698H300.771V153.437H302.51V151.698Z" fill="#FAFAFA"/>
<path d="M302.51 154.614H300.771V156.353H302.51V154.614Z" fill="#FAFAFA"/>
<path d="M302.51 157.53H300.771V159.269H302.51V157.53Z" fill="#FAFAFA"/>
<path d="M302.51 160.446H300.771V162.185H302.51V160.446Z" fill="#FAFAFA"/>
<path d="M302.51 163.363H300.771V165.102H302.51V163.363Z" fill="#FAFAFA"/>
<path d="M302.51 166.279H300.771V168.018H302.51V166.279Z" fill="#FAFAFA"/>
<path d="M302.51 169.195H300.771V170.934H302.51V169.195Z" fill="#FAFAFA"/>
<path d="M302.51 172.111H300.771V173.85H302.51V172.111Z" fill="#FAFAFA"/>
<path d="M302.51 175.027H300.771V176.766H302.51V175.027Z" fill="#FAFAFA"/>
<path d="M302.51 177.943H300.771V179.682H302.51V177.943Z" fill="#FAFAFA"/>
<path d="M302.51 180.859H300.771V182.598H302.51V180.859Z" fill="#FAFAFA"/>
<path d="M302.51 189.607H300.771V191.346H302.51V189.607Z" fill="#FAFAFA"/>
<path d="M302.51 192.523H300.771V194.262H302.51V192.523Z" fill="#FAFAFA"/>
<path d="M302.51 198.355H300.771V200.094H302.51V198.355Z" fill="#FAFAFA"/>
<path d="M302.51 201.271H300.771V203.01H302.51V201.271Z" fill="#FAFAFA"/>
<path d="M302.51 204.187H300.771V205.926H302.51V204.187Z" fill="#FAFAFA"/>
<path d="M302.51 207.103H300.771V208.842H302.51V207.103Z" fill="#FAFAFA"/>
<path d="M299.748 145.866H298.009V147.605H299.748V145.866Z" fill="#FAFAFA"/>
<path d="M299.748 148.782H298.009V150.521H299.748V148.782Z" fill="#FAFAFA"/>
<path d="M299.748 151.698H298.009V153.437H299.748V151.698Z" fill="#FAFAFA"/>
<path d="M299.748 154.614H298.009V156.353H299.748V154.614Z" fill="#FAFAFA"/>
<path d="M299.748 157.53H298.009V159.269H299.748V157.53Z" fill="#FAFAFA"/>
<path d="M299.748 160.446H298.009V162.185H299.748V160.446Z" fill="#FAFAFA"/>
<path d="M299.748 163.363H298.009V165.102H299.748V163.363Z" fill="#FAFAFA"/>
<path d="M299.748 166.279H298.009V168.018H299.748V166.279Z" fill="#FAFAFA"/>
<path d="M299.748 169.195H298.009V170.934H299.748V169.195Z" fill="#FAFAFA"/>
<path d="M299.748 172.111H298.009V173.85H299.748V172.111Z" fill="#FAFAFA"/>
<path d="M299.748 175.027H298.009V176.766H299.748V175.027Z" fill="#FAFAFA"/>
<path d="M299.748 177.943H298.009V179.682H299.748V177.943Z" fill="#FAFAFA"/>
<path d="M299.748 180.859H298.009V182.598H299.748V180.859Z" fill="#FAFAFA"/>
<path d="M299.748 183.775H298.009V185.514H299.748V183.775Z" fill="#FAFAFA"/>
<path d="M299.748 189.607H298.009V191.346H299.748V189.607Z" fill="#FAFAFA"/>
<path d="M299.748 195.439H298.009V197.178H299.748V195.439Z" fill="#FAFAFA"/>
<path d="M299.748 198.355H298.009V200.094H299.748V198.355Z" fill="#FAFAFA"/>
<path d="M299.748 201.271H298.009V203.01H299.748V201.271Z" fill="#FAFAFA"/>
<path d="M299.748 204.187H298.009V205.926H299.748V204.187Z" fill="#FAFAFA"/>
<path d="M299.748 207.103H298.009V208.842H299.748V207.103Z" fill="#FAFAFA"/>
<path d="M316.529 162.493H314.789V164.232H316.529V162.493Z" fill="#FAFAFA"/>
<path d="M316.529 165.409H314.789V167.148H316.529V165.409Z" fill="#FAFAFA"/>
<path d="M316.529 168.325H314.789V170.064H316.529V168.325Z" fill="#FAFAFA"/>
<path d="M316.529 171.241H314.789V172.98H316.529V171.241Z" fill="#FAFAFA"/>
<path d="M316.529 174.157H314.789V175.896H316.529V174.157Z" fill="#FAFAFA"/>
<path d="M316.529 177.073H314.789V178.812H316.529V177.073Z" fill="#FAFAFA"/>
<path d="M316.529 185.821H314.789V187.56H316.529V185.821Z" fill="#FAFAFA"/>
<path d="M316.529 188.737H314.789V190.476H316.529V188.737Z" fill="#FAFAFA"/>
<path d="M316.529 191.653H314.789V193.392H316.529V191.653Z" fill="#FAFAFA"/>
<path d="M316.529 194.57H314.789V196.309H316.529V194.57Z" fill="#FAFAFA"/>
<path d="M316.529 197.486H314.789V199.225H316.529V197.486Z" fill="#FAFAFA"/>
<path d="M316.529 200.402H314.789V202.141H316.529V200.402Z" fill="#FAFAFA"/>
<path d="M316.529 203.318H314.789V205.057H316.529V203.318Z" fill="#FAFAFA"/>
<path d="M313.766 162.493H312.027V164.232H313.766V162.493Z" fill="#FAFAFA"/>
<path d="M313.766 165.409H312.027V167.148H313.766V165.409Z" fill="#FAFAFA"/>
<path d="M313.766 168.325H312.027V170.064H313.766V168.325Z" fill="#FAFAFA"/>
<path d="M313.766 171.241H312.027V172.98H313.766V171.241Z" fill="#FAFAFA"/>
<path d="M313.766 174.157H312.027V175.896H313.766V174.157Z" fill="#FAFAFA"/>
<path d="M313.766 177.073H312.027V178.812H313.766V177.073Z" fill="#FAFAFA"/>
<path d="M313.766 185.821H312.027V187.56H313.766V185.821Z" fill="#FAFAFA"/>
<path d="M313.766 188.737H312.027V190.476H313.766V188.737Z" fill="#FAFAFA"/>
<path d="M313.766 191.653H312.027V193.392H313.766V191.653Z" fill="#FAFAFA"/>
<path d="M313.766 194.57H312.027V196.309H313.766V194.57Z" fill="#FAFAFA"/>
<path d="M313.766 197.486H312.027V199.225H313.766V197.486Z" fill="#FAFAFA"/>
<path d="M313.766 200.402H312.027V202.141H313.766V200.402Z" fill="#FAFAFA"/>
<path d="M313.766 206.234H312.027V207.973H313.766V206.234Z" fill="#FAFAFA"/>
<path d="M249.269 67.1421H245.815V256.629H249.269V67.1421Z" fill="#EBEBEB"/>
<path d="M304.189 67.1421H301.267V256.629H304.189V67.1421Z" fill="#EBEBEB"/>
<path d="M359.109 67.1421H356.188V256.629H359.109V67.1421Z" fill="#EBEBEB"/>
<path d="M141.72 53.21C149.545 53.21 155.888 46.8668 155.888 39.042C155.888 31.2173 149.545 24.874 141.72 24.874C133.895 24.874 127.552 31.2173 127.552 39.042C127.552 46.8668 133.895 53.21 141.72 53.21Z" fill="#E0E0E0"/>
<path d="M141.72 51.088C148.373 51.088 153.766 45.6948 153.766 39.042C153.766 32.3891 148.373 26.996 141.72 26.996C135.067 26.996 129.674 32.3891 129.674 39.042C129.674 45.6948 135.067 51.088 141.72 51.088Z" fill="#F0F0F0"/>
<path d="M142.289 30.7791V39.2001L147.869 36.0421" fill="#F0F0F0"/>
<path d="M142.289 40.2001C142.115 40.2001 141.941 40.1551 141.785 40.0641C141.478 39.8851 141.289 39.5561 141.289 39.2001V30.7791C141.289 30.2271 141.737 29.7791 142.289 29.7791C142.841 29.7791 143.289 30.2271 143.289 30.7791V37.4861L147.377 35.173C147.858 34.9 148.468 35.0701 148.74 35.5501C149.012 36.0311 148.843 36.6411 148.362 36.9131L142.781 40.0711C142.628 40.1571 142.458 40.2001 142.289 40.2001Z" fill="#E0E0E0"/>
<path d="M100.989 139.837H78.4893V328.821H100.989V139.837Z" fill="#E0E0E0"/>
<path d="M161.692 139.837H98.5332V328.821H161.692V139.837Z" fill="#EBEBEB"/>
<path d="M155.257 146.271H104.966V196.562H155.257V146.271Z" fill="#FAFAFA"/>
<path d="M143.717 175.859H116.506C115.743 175.859 115.124 175.24 115.124 174.477C115.124 173.714 115.743 173.095 116.506 173.095H143.717C144.48 173.095 145.099 173.714 145.099 174.477C145.099 175.24 144.48 175.859 143.717 175.859Z" fill="#E0E0E0"/>
<path d="M143.717 181.386H116.506C115.743 181.386 115.124 180.767 115.124 180.004C115.124 179.241 115.743 178.622 116.506 178.622H143.717C144.48 178.622 145.099 179.241 145.099 180.004C145.099 180.768 144.48 181.386 143.717 181.386Z" fill="#E0E0E0"/>
<path d="M143.717 186.914H116.506C115.743 186.914 115.124 186.295 115.124 185.532C115.124 184.769 115.743 184.15 116.506 184.15H143.717C144.48 184.15 145.099 184.769 145.099 185.532C145.099 186.295 144.48 186.914 143.717 186.914Z" fill="#E0E0E0"/>
<path d="M135.469 165.655H124.756L121.928 162.827V156.791L124.756 153.963H135.469L138.297 156.791V162.827L135.469 165.655Z" fill="#EBEBEB"/>
<path d="M155.257 201.376H104.966V251.667H155.257V201.376Z" fill="#FAFAFA"/>
<path d="M143.717 230.965H116.506C115.743 230.965 115.124 230.346 115.124 229.583C115.124 228.82 115.743 228.201 116.506 228.201H143.717C144.48 228.201 145.099 228.82 145.099 229.583C145.099 230.346 144.48 230.965 143.717 230.965Z" fill="#E0E0E0"/>
<path d="M143.717 236.492H116.506C115.743 236.492 115.124 235.873 115.124 235.11C115.124 234.347 115.743 233.728 116.506 233.728H143.717C144.48 233.728 145.099 234.347 145.099 235.11C145.099 235.873 144.48 236.492 143.717 236.492Z" fill="#E0E0E0"/>
<path d="M143.717 242.019H116.506C115.743 242.019 115.124 241.4 115.124 240.637C115.124 239.874 115.743 239.255 116.506 239.255H143.717C144.48 239.255 145.099 239.874 145.099 240.637C145.099 241.4 144.48 242.019 143.717 242.019Z" fill="#E0E0E0"/>
<path d="M135.469 220.76H124.756L121.928 217.932V211.896L124.756 209.068H135.469L138.297 211.896V217.932L135.469 220.76Z" fill="#EBEBEB"/>
<path d="M155.257 256.482H104.966V306.773H155.257V256.482Z" fill="#FAFAFA"/>
<path d="M143.717 286.07H116.506C115.743 286.07 115.124 285.451 115.124 284.688C115.124 283.925 115.743 283.306 116.506 283.306H143.717C144.48 283.306 145.099 283.925 145.099 284.688C145.099 285.451 144.48 286.07 143.717 286.07Z" fill="#E0E0E0"/>
<path d="M143.717 291.597H116.506C115.743 291.597 115.124 290.978 115.124 290.215C115.124 289.452 115.743 288.833 116.506 288.833H143.717C144.48 288.833 145.099 289.452 145.099 290.215C145.099 290.979 144.48 291.597 143.717 291.597Z" fill="#E0E0E0"/>
<path d="M143.717 297.125H116.506C115.743 297.125 115.124 296.506 115.124 295.743C115.124 294.98 115.743 294.361 116.506 294.361H143.717C144.48 294.361 145.099 294.98 145.099 295.743C145.099 296.506 144.48 297.125 143.717 297.125Z" fill="#E0E0E0"/>
<path d="M135.469 275.866H124.756L121.928 273.038V267.002L124.756 264.174H135.469L138.297 267.002V273.038L135.469 275.866Z" fill="#EBEBEB"/>
</svg>
