<svg width="117" height="68" viewBox="0 0 117 68" fill="none" xmlns="http://www.w3.org/2000/svg">
<path d="M19.1289 56.7C19.1289 56.7 32.0799 35.583 36.1909 35.207C40.3019 34.831 44.9959 47.124 48.3759 45.954C51.7559 44.784 71.4719 9.85902 75.9779 10.798C80.4849 11.737 87.6199 30.557 89.3099 30.254C90.9999 29.95 93.2529 26.486 98.1349 36.104C103.017 45.722 106.96 56.7 106.96 56.7H19.1289Z" fill="#FF4933"/>
<path opacity="0.4" d="M19.1289 56.7C19.1289 56.7 32.0799 35.583 36.1909 35.207C40.3019 34.831 44.9959 47.124 48.3759 45.954C51.7559 44.784 71.4719 9.85902 75.9779 10.798C80.4849 11.737 87.6199 30.557 89.3099 30.254C90.9999 29.95 93.2529 26.486 98.1349 36.104C103.017 45.722 106.96 56.7 106.96 56.7H19.1289Z" fill="white"/>
<path d="M98.1333 56.7001C98.1333 56.7001 81.6173 20.4561 76.3563 18.8191C71.0943 17.1811 63.9593 33.2451 60.3913 36.1041C56.8243 38.9631 51.0463 25.6311 48.7013 25.4441C46.3573 25.2561 35.6053 46.2861 32.0383 46.0991C28.4713 45.9111 27.9073 43.1771 24.1523 41.6341C20.3973 40.0911 10.8203 56.7021 10.8203 56.7021H98.1333V56.7001Z" fill="#FF4933"/>
<path d="M101.138 56.7C101.138 56.7 93.0466 43.093 89.8546 39.901C86.6626 36.709 82.1556 47.875 78.9636 48.3C75.7716 48.726 63.9426 26.006 60.5626 24.316C57.1826 22.626 50.2376 42.717 46.9506 43.093C43.6636 43.468 36.9036 30.932 33.3366 30.253C29.7686 29.574 13.4326 56.7 13.4326 56.7H101.138Z" fill="#263238"/>
<path opacity="0.4" d="M101.138 56.7C101.138 56.7 93.0466 43.093 89.8546 39.901C86.6626 36.709 82.1556 47.875 78.9636 48.3C75.7716 48.726 63.9426 26.006 60.5626 24.316C57.1826 22.626 50.2376 42.717 46.9506 43.093C43.6636 43.468 36.9036 30.932 33.3366 30.253C29.7686 29.574 13.4326 56.7 13.4326 56.7H101.138Z" fill="white"/>
<path d="M108.092 56.371H8.55664V57.028H108.092V56.371Z" fill="#263238"/>
<path d="M98.8826 56.7C98.8826 56.7 94.9226 46.723 91.5426 46.88C88.1626 47.037 86.8486 54.359 83.6566 53.984C80.4646 53.609 76.7076 41.967 71.9206 42.53C67.1336 43.093 66.1946 50.041 63.1906 51.355C60.1866 52.669 54.2956 43.732 50.5136 42.51C46.7316 41.288 42.1606 53.233 38.0296 53.984C33.8986 54.735 32.2086 49.082 29.7676 49.561C27.3266 50.04 20.4336 56.7 20.4336 56.7H98.8826Z" fill="#263238"/>
<path d="M107.988 67.353H8.55112C3.90212 67.353 0.120117 63.571 0.120117 58.922V8.54599C0.120117 3.89699 3.90212 0.11499 8.55112 0.11499H107.988C112.637 0.11499 116.419 3.89699 116.419 8.54599V58.921C116.419 63.571 112.637 67.353 107.988 67.353ZM8.55112 1.11599C4.45312 1.11599 1.12012 4.44999 1.12012 8.54699V58.923C1.12012 63.021 4.45312 66.354 8.55112 66.354H107.988C112.086 66.354 115.419 63.021 115.419 58.923V8.54799C115.419 4.44999 112.086 1.11699 107.988 1.11699L8.55112 1.11599Z" fill="#FF4933"/>
</svg>
