<svg width="118" height="209" viewBox="0 0 118 209" fill="none" xmlns="http://www.w3.org/2000/svg">
<path d="M73.0771 208.061L47.8711 198.779L22.3901 208.068C21.5101 208.389 20.5801 207.737 20.5801 206.801C20.5801 206.276 20.8851 205.799 21.3611 205.578L47.8711 193.278L74.1141 205.577C74.5871 205.799 74.8891 206.274 74.8891 206.797C74.8901 207.734 73.9571 208.385 73.0771 208.061Z" fill="#263238"/>
<path opacity="0.3" d="M73.0771 208.061L47.8711 198.779L22.3901 208.068C21.5101 208.389 20.5801 207.737 20.5801 206.801C20.5801 206.276 20.8851 205.799 21.3611 205.578L47.8711 193.278L74.1141 205.577C74.5871 205.799 74.8891 206.274 74.8891 206.797C74.8901 207.734 73.9571 208.385 73.0771 208.061Z" fill="white"/>
<path opacity="0.2" d="M41.9316 200.945L47.8706 198.779L53.5386 200.866V195.934L47.8706 193.278L41.9316 196.034V200.945Z" fill="black"/>
<path d="M47.7352 208.276C46.5812 208.276 45.6162 207.399 45.5072 206.25L44.7952 198.778V136.761H50.6742V198.778L49.9622 206.25C49.8542 207.399 48.8892 208.276 47.7352 208.276Z" fill="#263238"/>
<path opacity="0.3" d="M47.7352 208.276C46.5812 208.276 45.6162 207.399 45.5072 206.25L44.7952 198.778V136.761H50.6742V198.778L49.9622 206.25C49.8542 207.399 48.8892 208.276 47.7352 208.276Z" fill="white"/>
<path opacity="0.2" d="M50.6751 136.762H44.7961V143.984H50.6751V136.762Z" fill="black"/>
<path d="M34.5499 72.8681C35.3909 72.8521 36.2349 73.228 36.7979 74.163C47.5659 92.069 51.3909 113.594 47.6759 134.13C47.4429 135.417 46.5619 136.017 45.5839 136.083C43.9539 136.194 14.9379 136.091 13.8859 136.089C12.3039 136.086 10.5649 134.741 10.9369 132.687C14.3889 113.603 10.5879 93.501 0.605877 76.901C-0.634123 74.838 1.19487 72.9021 3.04387 72.8671C3.88487 72.8521 32.7009 72.9041 34.5499 72.8681Z" fill="#FF4933"/>
<path opacity="0.2" d="M34.5499 72.8681C35.3909 72.8521 36.2349 73.228 36.7979 74.163C47.5659 92.069 51.3909 113.594 47.6759 134.13C47.4429 135.417 46.5619 136.017 45.5839 136.083C43.9539 136.194 14.9379 136.091 13.8859 136.089C12.3039 136.086 10.5649 134.741 10.9369 132.687C14.3889 113.603 10.5879 93.501 0.605877 76.901C-0.634123 74.838 1.19487 72.9021 3.04387 72.8671C3.88487 72.8521 32.7009 72.9041 34.5499 72.8681Z" fill="black"/>
<path d="M10.937 132.688C14.389 113.604 10.588 93.5021 0.605985 76.9021C-1.19802 73.9011 3.49198 71.1701 5.29198 74.1631C16.06 92.0691 19.885 113.594 16.17 134.13C15.549 137.562 10.318 136.108 10.937 132.688Z" fill="#FF4933"/>
<g opacity="0.1">
<path d="M10.937 132.688C14.389 113.604 10.588 93.5021 0.605985 76.9021C-1.19802 73.9011 3.49198 71.1701 5.29198 74.1631C16.06 92.0691 19.885 113.594 16.17 134.13C15.549 137.562 10.318 136.108 10.937 132.688Z" fill="white"/>
</g>
<path d="M101.419 131.117C94.7677 129.421 87.9327 128.488 81.0797 128.316C74.0167 128.139 47.5787 128.289 41.3007 128.287C33.6587 128.284 26.0157 129.226 18.6007 131.117C13.9397 132.306 15.3767 139.032 19.5867 139.11C19.9587 139.117 99.8787 139.093 100.173 139.106C104.577 139.306 106.183 132.332 101.419 131.117Z" fill="#FF4933"/>
<path opacity="0.3" d="M101.419 131.117C94.7677 129.421 87.9327 128.488 81.0797 128.316C74.0167 128.139 47.5787 128.289 41.3007 128.287C33.6587 128.284 26.0157 129.226 18.6007 131.117C13.9397 132.306 15.3767 139.032 19.5867 139.11C19.9587 139.117 99.8787 139.093 100.173 139.106C104.577 139.306 106.183 132.332 101.419 131.117Z" fill="black"/>
<path d="M20.765 138.966C34.19 135.542 48.411 135.542 61.836 138.966C66.914 140.261 69.081 132.412 64 131.116C49.171 127.334 33.43 127.334 18.601 131.116C13.528 132.41 15.678 140.264 20.765 138.966Z" fill="#FF4933"/>
<g opacity="0.3">
<path d="M20.765 138.966C34.19 135.542 48.411 135.542 61.836 138.966C66.914 140.261 69.081 132.412 64 131.116C49.171 127.334 33.43 127.334 18.601 131.116C13.528 132.41 15.678 140.264 20.765 138.966Z" fill="white"/>
</g>
<path d="M70.257 99.535H34.46V113.883H70.257V99.535Z" fill="#263238"/>
<path opacity="0.2" d="M70.257 99.535H34.46V113.883H70.257V99.535Z" fill="white"/>
<path d="M89.5313 175.741L84.8223 196.25L90.6673 198.514L99.0893 177.885L89.5313 175.741Z" fill="#B55B52"/>
<path d="M90.3279 197.173L85.0159 194.332C84.7849 194.208 84.4989 194.26 84.3269 194.458L80.5349 198.847C80.1959 199.234 80.2339 199.822 80.6209 200.162C80.6709 200.206 80.7249 200.244 80.7819 200.276C83.0119 201.427 85.0409 202.364 87.7889 203.848C91.0339 205.597 90.0019 205.541 93.7879 207.65C96.0709 208.918 97.8989 206.531 96.9929 205.878C92.8339 202.914 92.2799 200.859 91.4189 198.335C91.2099 197.828 90.8219 197.414 90.3279 197.173Z" fill="#263238"/>
<path d="M42.1346 112.121L70.8516 110.539C70.8516 110.539 118.564 118.001 117.885 131.342C117.207 144.683 97.7596 186.742 97.7596 186.742L86.3736 183.576C86.3736 183.576 95.0456 141.291 100.699 134.282C100.699 134.282 65.0676 130.102 56.1526 127.725C51.2476 126.415 39.4206 128.626 42.1346 112.121Z" fill="#263238"/>
<path opacity="0.2" d="M42.1346 112.121L70.8516 110.539C70.8516 110.539 118.564 118.001 117.885 131.342C117.207 144.683 97.7596 186.742 97.7596 186.742L86.3736 183.576C86.3736 183.576 95.0456 141.291 100.699 134.282C100.699 134.282 65.0676 130.102 56.1526 127.725C51.2476 126.415 39.4206 128.626 42.1346 112.121Z" fill="white"/>
<path opacity="0.2" d="M95.8795 133.7C96.0085 131.008 95.7415 126.815 93.6905 122.184C91.0365 116.191 69.1965 112.598 58.7475 111.206L42.1355 112.121C39.4225 128.627 51.2485 126.416 56.1555 127.724C63.0365 129.56 85.8385 132.469 95.8795 133.7Z" fill="black"/>
<path d="M70.0226 181.39L69.2686 202.419L75.6006 202.721L79.8136 181.691L70.0226 181.39Z" fill="#B55B52"/>
<path d="M75.1451 200.809L69.0121 200.939C68.7451 200.944 68.5171 201.133 68.4631 201.395L67.2881 207.183C67.1801 207.696 67.5081 208.199 68.0211 208.307C68.0871 208.321 68.1541 208.328 68.2211 208.327C70.7741 208.236 73.0432 208.055 76.2242 208.001C79.9772 207.934 79.0332 208.4 83.4462 208.382C86.1052 208.369 86.5362 205.338 85.4072 205.21C80.2362 204.655 78.7191 203.107 76.6951 201.297C76.2551 200.949 75.7041 200.776 75.1451 200.809Z" fill="#263238"/>
<path d="M85.4692 181.089L99.7952 185.083L97.1752 190.591L84.1172 187.345L85.4692 181.089Z" fill="#263238"/>
<path d="M49.8226 112.122C49.8226 112.122 88.2636 113.479 90.5246 125.237C92.7856 136.995 79.8966 189.681 79.8966 189.681H68.3646C68.3646 189.681 69.7216 142.422 73.5656 132.472C73.5656 132.472 41.9086 137.447 33.5426 130.262C27.5626 125.127 34.6736 112.119 34.6736 112.119L49.8226 112.122Z" fill="#263238"/>
<path opacity="0.2" d="M49.8226 112.122C49.8226 112.122 88.2636 113.479 90.5246 125.237C92.7856 136.995 79.8966 189.681 79.8966 189.681H68.3646C68.3646 189.681 69.7216 142.422 73.5656 132.472C73.5656 132.472 41.9086 137.447 33.5426 130.262C27.5626 125.127 34.6736 112.119 34.6736 112.119L49.8226 112.122Z" fill="white"/>
<path d="M67.2336 186.741L81.7056 187.42L80.3486 193.186L67.2336 192.508V186.741Z" fill="#263238"/>
<path d="M100.889 67.5331L107.053 65.2332L101.802 60.1652C101.802 60.1652 96.4257 62.5502 97.7707 65.2682L100.889 67.5331Z" fill="#B55B52"/>
<path d="M111.083 60.1101L105.089 57.2861L101.803 60.1641L107.053 65.2321L111.083 60.1101Z" fill="#B55B52"/>
<path d="M93.0625 67.8031L96.6905 63.8491L101.544 67.9831L97.6105 72.6281L93.0625 67.8031Z" fill="#FF4933"/>
<path opacity="0.8" d="M93.0625 67.8031L96.6905 63.8491L101.544 67.9831L97.6105 72.6281L93.0625 67.8031Z" fill="white"/>
<path d="M68.4707 43.4771C68.4707 43.4771 72.2567 47.7851 77.7267 61.8681C83.1957 75.9511 89.2577 71.8441 95.9137 64.2511L101.383 69.2301C101.383 69.2301 91.1577 81.97 84.7227 81.97C77.5587 81.97 70.6057 70.865 69.2067 63.107C67.8077 55.349 68.4707 43.4771 68.4707 43.4771Z" fill="#263238"/>
<path opacity="0.4" d="M69.8093 51.6241L67.7743 49.9231L66.8223 55.3411C66.9563 56.9131 67.1403 58.4451 67.3923 59.8431C68.1903 64.2661 71.1853 70.0671 74.4043 74.8941C73.2303 64.1701 69.8093 51.6241 69.8093 51.6241Z" fill="black"/>
<path d="M30.9223 85.411L31.4903 114.747L53.0913 115.476C55.9123 115.506 56.5663 113.603 57.1573 111.471L58.2193 107.636L59.1603 111.104C59.7333 113.216 62.6873 113.567 64.8313 113.129L74.2363 110.801L72.0783 81.906C72.0783 81.906 73.5293 60.148 70.1283 46.216C69.4803 43.564 67.0623 41.716 64.4073 41.082C58.3643 39.639 45.3813 37.827 30.6403 43.641C29.2703 44.181 28.4303 45.579 28.6113 47.04L30.9223 85.411Z" fill="#263238"/>
<path opacity="0.5" d="M57.7081 72.981C57.7081 73.477 57.3061 73.879 56.8101 73.879C56.3141 73.879 55.9121 73.477 55.9121 72.981C55.9121 72.485 56.3141 72.083 56.8101 72.083C57.3061 72.083 57.7081 72.485 57.7081 72.981Z" fill="black"/>
<path opacity="0.5" d="M58.5912 85.4109C58.5912 85.9069 58.1892 86.3089 57.6932 86.3089C57.1972 86.3089 56.7952 85.9069 56.7952 85.4109C56.7952 84.9149 57.1972 84.5129 57.6932 84.5129C58.1892 84.5129 58.5912 84.9149 58.5912 85.4109Z" fill="black"/>
<path opacity="0.5" d="M58.9532 97.689C58.9532 98.185 58.5512 98.587 58.0552 98.587C57.5592 98.587 57.1572 98.185 57.1572 97.689C57.1572 97.193 57.5592 96.791 58.0552 96.791C58.5512 96.79 58.9532 97.193 58.9532 97.689Z" fill="black"/>
<path d="M43.2637 39.2571C43.2637 39.2571 48.0357 37.1871 54.0117 38.5111L56.2177 39.7681L56.9917 42.2251L54.1977 44.4151L47.6007 45.0861L42.1477 42.8311L42.4507 40.4081L43.2637 39.2571Z" fill="#263238"/>
<path d="M55.3367 40.525C53.1507 39.943 51.6017 36.132 53.4017 33.682L43.8417 26.28C45.2357 39.632 44.5527 37.203 42.5647 41.042C42.5647 41.042 43.9427 45.493 51.6477 44.109C56.6517 43.211 55.3367 40.525 55.3367 40.525Z" fill="#B55B52"/>
<path opacity="0.2" d="M53.4013 33.6821L43.7773 26.5471C44.0243 28.4291 44.0503 28.4431 44.1833 29.8021C45.2003 31.8681 47.2593 37.1321 52.6843 37.2891C52.4463 36.3421 52.7163 34.2841 53.4013 33.6821Z" fill="black"/>
<path d="M42.7045 47.576L45.3295 56.126L51.4315 64.944L56.4375 70.15L58.3125 62.516L57.7095 46.585L57.6135 43.154L56.2115 41.181L53.9855 43.133L52.0895 43.865L49.3135 43.888L42.0205 41.671L42.7045 47.576Z" fill="#FF4933"/>
<path opacity="0.8" d="M42.7045 47.576L45.3295 56.126L51.4315 64.944L56.4375 70.15L58.3125 62.516L57.7095 46.585L57.6135 43.154L56.2115 41.181L53.9855 43.133L52.0895 43.865L49.3135 43.888L42.0205 41.671L42.7045 47.576Z" fill="#FF4933"/>
<path opacity="0.5" d="M42.7045 47.576L45.3295 56.126L51.4315 64.944L56.4375 70.15L58.3125 62.516L57.7095 46.585L57.6135 43.154L56.2115 41.181L53.9855 43.133L52.0895 43.865L49.3135 43.888L42.0205 41.671L42.7045 47.576Z" fill="white"/>
<path d="M48.5908 46.5851C48.5908 46.5851 49.4768 48.545 51.4308 50.215C51.4308 50.215 50.2078 58.931 52.0878 65.034L56.4358 70.15L57.7078 63.822C57.7078 63.822 55.7608 53.6961 53.1488 49.8651C53.1488 49.8651 54.2368 47.8071 54.5958 45.6951L53.0358 44.415C53.0358 44.415 50.8708 45.961 49.5698 44.884L48.5908 46.5851Z" fill="#FF4933"/>
<path d="M42.5321 40.046C42.5321 40.046 46.5561 43.475 50.5991 43.475C54.6421 43.475 55.0901 39.256 55.0901 39.256L56.7951 41.099C56.7951 41.099 57.0661 44.095 55.4051 47.249L51.1861 44.403L48.3271 48.518C48.3271 48.518 43.8551 46.364 41.6641 42.504L42.5321 40.046Z" fill="#FF4933"/>
<path opacity="0.8" d="M42.5321 40.046C42.5321 40.046 46.5561 43.475 50.5991 43.475C54.6421 43.475 55.0901 39.256 55.0901 39.256L56.7951 41.099C56.7951 41.099 57.0661 44.095 55.4051 47.249L51.1861 44.403L48.3271 48.518C48.3271 48.518 43.8551 46.364 41.6641 42.504L42.5321 40.046Z" fill="white"/>
<path d="M43.2641 39.257C43.2641 39.257 39.9631 49.43 56.2111 68.833C56.2111 68.833 59.1281 45.063 54.0131 38.51L57.5681 39.915L61.2671 45.507L58.5561 47.249L61.9091 48.744C61.9091 48.744 61.4321 56.447 56.7131 71.265C56.7131 71.265 46.0321 63.006 39.0501 51.858L42.3001 49.267L37.9561 48.581L39.8871 40.862L43.2641 39.257Z" fill="#263238"/>
<path opacity="0.3" d="M43.2641 39.257C43.2641 39.257 39.9631 49.43 56.2111 68.833C56.2111 68.833 59.1281 45.063 54.0131 38.51L57.5681 39.915L61.2671 45.507L58.5561 47.249L61.9091 48.744C61.9091 48.744 61.4321 56.447 56.7131 71.265C56.7131 71.265 46.0321 63.006 39.0501 51.858L42.3001 49.267L37.9561 48.581L39.8871 40.862L43.2641 39.257Z" fill="black"/>
<path opacity="0.4" d="M29.0449 49.8721L33.2759 73.4441L33.7709 72.8301C36.0869 60.7451 32.8539 49.1721 32.8539 49.1721L31.5679 49.8571L29.0449 49.8721Z" fill="black"/>
<path d="M55.9675 8.17603C55.9675 8.17603 60.5665 16.691 57.0285 21.869C53.4905 27.047 47.4785 10.282 47.4785 10.282L55.9675 8.17603Z" fill="#263238"/>
<path d="M60.0386 26.6881C60.0176 27.0341 59.9776 27.3761 59.9186 27.7131C59.7196 28.9391 59.2816 30.0761 58.6766 31.0831C58.0416 32.1581 57.2066 33.0741 56.2436 33.8081C54.4906 35.1421 52.3136 35.8491 50.0906 35.6551C48.6176 35.5271 47.1216 35.0091 45.7216 34.0071C41.6806 31.1581 41.0586 27.1481 39.4636 20.4591C39.1006 19.0221 39.0656 17.5231 39.3936 16.0851C40.5116 11.0081 45.5406 7.80908 50.6016 8.93108C57.7106 10.4501 60.4186 20.3421 60.0386 26.6881Z" fill="#B55B52"/>
<path d="M50.075 20.5311C50.134 21.0841 50.539 21.4761 50.905 21.4111C51.271 21.3461 51.476 20.8441 51.382 20.2951C51.288 19.7451 50.909 19.3501 50.552 19.4151C50.195 19.4791 49.98 19.9721 50.075 20.5311Z" fill="#263238"/>
<path d="M56.308 19.4271C56.367 19.9801 56.781 20.3721 57.138 20.3071C57.495 20.2431 57.709 19.7411 57.615 19.1911C57.521 18.6411 57.142 18.2461 56.785 18.3111C56.428 18.3751 56.217 18.9041 56.308 19.4271Z" fill="#263238"/>
<path d="M54.376 20.0491C55.331 21.6191 56.498 23.0501 57.845 24.3001C57.175 24.9841 56.237 25.3371 55.283 25.2641L54.376 20.0491Z" fill="#A02724"/>
<path d="M58.1474 16.355C58.0524 16.432 57.9224 16.453 57.8084 16.409C57.0404 16.079 56.1614 16.13 55.4374 16.548C55.2894 16.652 55.0864 16.616 54.9824 16.469C54.8784 16.321 54.9144 16.117 55.0614 16.014L55.0624 16.013C55.9644 15.462 57.0774 15.382 58.0494 15.799C58.2184 15.861 58.3054 16.049 58.2434 16.218C58.2424 16.221 58.2414 16.223 58.2404 16.225C58.2164 16.274 58.1854 16.317 58.1474 16.355Z" fill="#263238"/>
<path d="M48.3997 18.2571C48.3337 18.2671 48.2667 18.2551 48.2077 18.2251C48.0667 18.1121 48.0437 17.9071 48.1567 17.7661C48.1577 17.7641 48.1597 17.7621 48.1617 17.7601C48.8167 16.9261 49.8377 16.4641 50.8967 16.5201C51.0757 16.5401 51.2047 16.7021 51.1847 16.8811V16.8821C51.1597 17.0601 51.0007 17.1861 50.8227 17.1701C49.9857 17.1501 49.1877 17.5271 48.6717 18.1861C48.5957 18.2481 48.4967 18.2741 48.3997 18.2571Z" fill="#263238"/>
<path d="M42.9351 11.1301L43.9661 14.0041C43.1141 14.7401 42.7771 15.9671 43.4881 17.0301C45.0061 19.3001 44.4691 23.4771 42.9101 25.4471C42.9101 25.4471 42.6071 24.3831 41.7561 24.8451C40.9051 25.3071 42.4271 30.8591 44.8071 33.1331C44.8071 33.1331 41.5771 31.3211 38.7281 25.7751C36.0931 20.6461 34.8901 16.1461 35.5321 13.7861L42.9351 11.1301Z" fill="#263238"/>
<path d="M37.4868 26.5331C38.5088 27.9321 40.0448 28.8691 41.7568 29.1371C44.0258 29.4771 44.8778 27.3761 44.0158 25.3791C43.2328 23.6111 41.1088 21.2411 38.9438 21.8371C36.7788 22.4341 36.2538 24.8001 37.4868 26.5331Z" fill="#B55B52"/>
<path d="M35.363 15.2431C35.363 15.2431 33.795 11.5181 39.254 7.15206C44.713 2.78606 52.172 4.81006 55.693 1.31206C59.214 -2.18494 61.684 8.53006 53.208 11.6311C44.732 14.7311 35.363 15.2431 35.363 15.2431Z" fill="#263238"/>
<path d="M55.1556 27.2721C54.4386 28.0851 53.4786 29.7251 53.4786 29.7251C53.3146 29.6651 53.1506 29.6051 52.9896 29.5361C50.7826 28.6641 50.0466 27.5301 49.9006 26.5381C49.8226 25.9951 49.9276 25.4901 50.0656 25.0991C50.2196 24.6451 50.4326 24.3561 50.4326 24.3561C51.3266 25.5171 53.3206 26.4891 54.4086 26.9631C54.8606 27.1661 55.1556 27.2721 55.1556 27.2721Z" fill="#263238"/>
<path d="M54.4077 26.9631L53.8947 27.6741C51.8177 26.8481 50.4667 25.9871 50.0647 25.1001C50.2187 24.6461 50.4317 24.3571 50.4317 24.3571C51.3257 25.5171 53.3207 26.4891 54.4077 26.9631Z" fill="white"/>
<path d="M52.9894 29.5361C50.7824 28.6641 50.0464 27.5301 49.9004 26.5381C50.6414 26.8641 51.4974 27.3401 52.1594 27.9921C52.6664 28.4891 52.8924 29.0361 52.9894 29.5361Z" fill="#A02724"/>
<path d="M16.1985 75.9791C17.2445 78.2221 19.0405 78.4351 20.8875 77.5221C22.3495 76.8011 23.8515 75.3601 25.0285 73.6651C25.8715 72.4571 26.9975 70.64 28.1545 68.722C30.6315 64.571 33.2095 59.9631 33.2095 59.9631C34.7645 57.7941 35.7675 55.2381 34.9145 51.6471C33.4185 47.1991 31.5795 44.6421 29.7495 44.4141C24.7655 46.7991 14.3315 71.9601 16.1985 75.9791Z" fill="#263238"/>
<path opacity="0.2" d="M20.8875 77.5221C22.3495 76.8011 23.8515 75.3601 25.0285 73.6651C25.8715 72.4571 26.9975 70.6401 28.1545 68.7221C26.7335 66.1131 25.2215 64.0531 25.2215 64.0531L22.7045 71.1271C22.7045 71.1271 18.2895 72.1321 17.5895 74.4361C17.3255 75.3101 18.8275 76.5481 20.8875 77.5221Z" fill="black"/>
<path d="M21.04 57.3021L29.381 89.0841C29.576 89.8291 30.36 90.3531 31.124 90.2511L53.247 87.3031C54.012 87.2011 54.476 86.5111 54.281 85.7661L45.94 53.9851C45.745 53.2401 44.962 52.7161 44.197 52.8181L22.074 55.7661C21.309 55.8671 20.844 56.5571 21.04 57.3021Z" fill="#263238"/>
<path opacity="0.4" d="M21.04 57.3022L29.381 89.0842C29.576 89.8292 30.36 90.3532 31.124 90.2512L52.241 87.4372C53.006 87.3352 53.47 86.6452 53.275 85.9002L44.934 54.1182C44.739 53.3732 43.955 52.8492 43.191 52.9512L22.074 55.7652C21.309 55.8672 20.844 56.5572 21.04 57.3022Z" fill="white"/>
<path opacity="0.3" d="M36.3961 69.4211C37.4951 69.2751 38.6141 70.0241 38.8941 71.0941C39.1751 72.1641 38.5121 73.1511 37.4131 73.2971C36.3141 73.4431 35.1951 72.6941 34.9141 71.6241C36.0141 71.4771 36.6771 70.4911 36.3961 69.4211Z" fill="white"/>
<path d="M19.2436 83.4701C20.7356 84.2621 24.0956 83.0641 25.1206 82.6581C25.3236 82.5871 25.4356 82.5361 25.4356 82.5361C25.4356 82.5361 27.2726 76.5481 22.4926 73.3101C22.4616 73.2901 22.4216 73.2591 22.3806 73.2491C20.8586 72.4271 16.1386 73.4821 15.9966 75.0761C15.4276 81.4701 17.4676 82.5361 19.2436 83.4701Z" fill="#263238"/>
<path opacity="0.2" d="M22.1562 78.3541C22.7352 80.5161 24.0032 81.8561 25.1202 82.6571C25.3232 82.5861 25.4352 82.5351 25.4352 82.5351C25.4352 82.5351 27.2722 76.5471 22.4922 73.3091C22.4612 73.2891 22.4212 73.258 22.3802 73.248C21.9632 73.787 21.3142 75.2081 22.1562 78.3541Z" fill="black"/>
<path d="M29.0486 70.76C29.0486 70.76 25.9826 70.626 24.5716 70.76C23.1596 70.894 23.5955 75.431 23.5955 75.431L22.3856 76.086C22.3856 76.086 21.4036 78.758 23.5126 80.099L24.5955 79.728C24.5955 79.728 24.9016 80.799 25.7706 81.334C26.6396 81.869 30.9226 80.665 30.9226 80.665L29.0486 70.76Z" fill="#B55B52"/>
</svg>
