<svg width="91" height="69" viewBox="0 0 91 69" fill="none" xmlns="http://www.w3.org/2000/svg">
<g opacity="0.2">
<path d="M80.2628 59.039H11.1729V20.303H11.7289V58.483H80.2628V59.039Z" fill="black"/>
</g>
<path opacity="0.2" d="M17.7711 52.61H14.7852V58.205H17.7711V52.61Z" fill="black"/>
<path d="M17.7711 52.61H14.7852V54.239H17.7711V52.61Z" fill="#FF4933"/>
<path opacity="0.2" d="M23.8688 43.6581H20.8828V58.2051H23.8688V43.6581Z" fill="black"/>
<path d="M23.8688 43.6581H20.8828V47.8931H23.8688V43.6581Z" fill="#FF4933"/>
<path opacity="0.2" d="M29.9655 47.015H26.9795V58.205H29.9655V47.015Z" fill="black"/>
<path d="M29.9655 47.015H26.9795V50.273H29.9655V47.015Z" fill="#FF4933"/>
<path opacity="0.2" d="M36.0631 41.87H33.0771V58.205H36.0631V41.87Z" fill="black"/>
<path d="M36.0631 41.87H33.0771V46.626H36.0631V41.87Z" fill="#FF4933"/>
<path opacity="0.2" d="M42.1588 37.121H39.1729V58.205H42.1588V37.121Z" fill="black"/>
<path d="M42.1588 37.121H39.1729V43.26H42.1588V37.121Z" fill="#FF4933"/>
<path opacity="0.2" d="M48.2565 33.5291H45.2705V58.2051H48.2565V33.5291Z" fill="black"/>
<path d="M48.2565 33.5291H45.2705V40.7141H48.2565V33.5291Z" fill="#FF4933"/>
<path opacity="0.2" d="M54.3532 37.683H51.3672V58.205H54.3532V37.683Z" fill="black"/>
<path d="M54.3532 37.683H51.3672V43.658H54.3532V37.683Z" fill="#FF4933"/>
<path opacity="0.2" d="M60.4499 36.787H57.4639V58.205H60.4499V36.787Z" fill="black"/>
<path d="M60.4499 36.787H57.4639V43.023H60.4499V36.787Z" fill="#FF4933"/>
<path opacity="0.2" d="M66.5475 31.322H63.5615V58.205H66.5475V31.322Z" fill="black"/>
<path d="M66.5475 31.322H63.5615V39.149H66.5475V31.322Z" fill="#FF4933"/>
<path opacity="0.2" d="M72.6442 25.814H69.6582V58.205H72.6442V25.814Z" fill="black"/>
<path d="M72.6442 25.814H69.6582V35.245H72.6442V25.814Z" fill="#FF4933"/>
<path opacity="0.2" d="M78.7409 20.999H75.7549V58.205H78.7409V20.999Z" fill="black"/>
<path d="M78.7409 20.999H75.7549V31.832H78.7409V20.999Z" fill="#FF4933"/>
<path opacity="0.2" d="M63.9485 14.454H26.9785V15.991H63.9485V14.454Z" fill="black"/>
<path d="M82.2931 68.93H8.63708C3.98808 68.93 0.205078 65.148 0.205078 60.499V9.05099C0.205078 4.40199 3.98708 0.619995 8.63608 0.619995H82.2931C86.9421 0.619995 90.7241 4.40199 90.7241 9.05099V60.498C90.7241 65.148 86.9411 68.93 82.2931 68.93ZM8.63608 1.62C4.53808 1.62 1.20508 4.95299 1.20508 9.05099V60.498C1.20508 64.596 4.53908 67.929 8.63708 67.929H82.2931C86.3911 67.929 89.7241 64.596 89.7241 60.498V9.05099C89.7241 4.95299 86.3911 1.62 82.2931 1.62H8.63608Z" fill="#FF4933"/>
</svg>
