<svg width="86" height="71" viewBox="0 0 86 71" fill="none" xmlns="http://www.w3.org/2000/svg">
<path d="M25.3775 9.46704H22.6565V59.2511H25.3775V9.46704Z" fill="#FF4933"/>
<path opacity="0.2" d="M25.3775 9.46704H22.6565V59.2511H25.3775V9.46704Z" fill="black"/>
<path d="M29.897 20.5221H27.176V59.2501H29.897V20.5221Z" fill="#263238"/>
<path opacity="0.4" d="M29.897 20.5221H27.176V59.2501H29.897V20.5221Z" fill="white"/>
<path d="M16.3384 38.948H13.6174V59.25H16.3384V38.948Z" fill="#FF4933"/>
<path d="M20.858 31.577H18.137V59.25H20.858V31.577Z" fill="#FF4933"/>
<path d="M34.4163 16.837H31.6953V59.25H34.4163V16.837Z" fill="#263238"/>
<path opacity="0.4" d="M29.897 25.5121H27.176V59.2501H29.897V25.5121Z" fill="white"/>
<path opacity="0.4" d="M34.4163 23.4391H31.6953V59.2511H34.4163V23.4391Z" fill="white"/>
<path d="M25.3775 13.8561H22.6565V59.2511H25.3775V13.8561Z" fill="#FF4933"/>
<path opacity="0.4" d="M20.858 41.396H18.137V59.25H20.858V41.396Z" fill="white"/>
<path opacity="0.2" d="M16.3384 38.948H13.6174V59.25H16.3384V38.948Z" fill="white"/>
<path opacity="0.4" d="M16.3384 43.566H13.6174V59.25H16.3384V43.566Z" fill="white"/>
<path d="M35.857 59.418H12.176C12.084 59.418 12.009 59.343 12.009 59.251C12.009 59.159 12.084 59.084 12.176 59.084H35.857C35.949 59.084 36.024 59.159 36.024 59.251C36.024 59.343 35.949 59.418 35.857 59.418Z" fill="#263238"/>
<path d="M63.2376 20.5221H60.5166V59.2501H63.2376V20.5221Z" fill="#FF4933"/>
<path opacity="0.2" d="M63.2376 20.5221H60.5166V59.2501H63.2376V20.5221Z" fill="black"/>
<path d="M67.7569 21.5911H65.0359V59.2511H67.7569V21.5911Z" fill="#263238"/>
<path opacity="0.4" d="M67.7569 21.5911H65.0359V59.2511H67.7569V21.5911Z" fill="white"/>
<path d="M54.1976 28.0081H51.4766V59.2501H54.1976V28.0081Z" fill="#FF4933"/>
<path d="M58.718 27.1111H55.9971V59.2501H58.718V27.1111Z" fill="#FF4933"/>
<path d="M72.2767 31.113H69.5557V59.25H72.2767V31.113Z" fill="#263238"/>
<path opacity="0.4" d="M67.7569 26.443H65.0359V59.25H67.7569V26.443Z" fill="white"/>
<path opacity="0.4" d="M72.2767 35.493H69.5557V59.25H72.2767V35.493Z" fill="white"/>
<path d="M63.2376 23.937H60.5166V59.251H63.2376V23.937Z" fill="#FF4933"/>
<path opacity="0.4" d="M58.718 32.7001H55.9971V59.2501H58.718V32.7001Z" fill="white"/>
<path opacity="0.2" d="M54.1976 28.0081H51.4766V59.2501H54.1976V28.0081Z" fill="white"/>
<path opacity="0.4" d="M54.1976 35.115H51.4766V59.25H54.1976V35.115Z" fill="white"/>
<path d="M73.7169 59.418H50.0359C49.9439 59.418 49.8689 59.343 49.8689 59.251C49.8689 59.159 49.9439 59.084 50.0359 59.084H73.7169C73.8089 59.084 73.8839 59.159 73.8839 59.251C73.8849 59.343 73.8099 59.418 73.7169 59.418Z" fill="#263238"/>
<path d="M77.307 70.134H9.26498C4.61598 70.134 0.833984 66.352 0.833984 61.703V9.28305C0.833984 4.63405 4.61598 0.852051 9.26498 0.852051H77.307C81.956 0.852051 85.738 4.63405 85.738 9.28305V61.703C85.738 66.352 81.956 70.134 77.307 70.134ZM9.26498 1.85205C5.16698 1.85205 1.83398 5.18605 1.83398 9.28305V61.703C1.83398 65.801 5.16798 69.134 9.26498 69.134H77.307C81.405 69.134 84.738 65.801 84.738 61.703V9.28305C84.738 5.18505 81.404 1.85205 77.307 1.85205H9.26498Z" fill="#FF4933"/>
</svg>
