<svg width="158" height="185" viewBox="0 0 158 185" fill="none" xmlns="http://www.w3.org/2000/svg">
<path d="M55.0205 27.2649L57.5645 22.6349L60.9805 27.3959C60.9805 27.3959 58.4605 31.3899 56.4575 30.0059L55.0205 27.2649Z" fill="#E4897B"/>
<path d="M62.1024 20.0289L63.6505 25.1199L60.9814 27.3959L57.5645 22.6349L62.1024 20.0289Z" fill="#E4897B"/>
<path opacity="0.2" d="M58.8057 21.9219C59.2187 24.0289 59.9257 25.8699 60.9807 27.3959L61.5367 26.9219L59.7817 21.3619L58.8057 21.9219Z" fill="black"/>
<path d="M54.376 36.2469L55.021 27.2649L58.404 27.9079V36.9519L54.376 36.2469Z" fill="#E4897B"/>
<path d="M10.9023 145.031L16.0653 147.05L19.7803 140.052L23.1553 133.685L17.4314 130.255L13.9743 138.069L10.9023 145.031Z" fill="#E4897B"/>
<path opacity="0.2" d="M13.9746 138.069L19.7806 140.052L23.1556 133.685L17.4316 130.255L13.9746 138.069Z" fill="black"/>
<path d="M15.0459 134.253L22.0719 138.023C22.0719 138.023 48.6149 91.35 52.6979 91.738C56.7809 92.126 95.5029 116.806 107.312 107.692C119.12 98.586 107.63 71.138 107.63 71.138C107.63 71.138 83.2019 64.156 80.5529 69.525C80.0379 70.563 79.3469 72.643 78.8029 74.43C78.2819 76.112 77.8889 77.531 77.8889 77.531C77.8889 77.531 77.8809 77.53 77.8739 77.521C77.1299 77.22 53.0019 67.327 42.2309 72.629C31.2879 78.024 15.0459 134.253 15.0459 134.253Z" fill="#263238"/>
<path opacity="0.3" d="M15.0459 134.253L22.0719 138.023C22.0719 138.023 48.6149 91.35 52.6979 91.738C56.7809 92.126 95.5029 116.806 107.312 107.692C119.12 98.586 107.63 71.138 107.63 71.138C107.63 71.138 83.2019 64.156 80.5529 69.525C80.0379 70.563 79.3469 72.643 78.8029 74.43C78.2819 76.112 77.8889 77.531 77.8889 77.531C77.8889 77.531 77.8809 77.53 77.8739 77.521C77.1299 77.22 53.0019 67.327 42.2309 72.629C31.2879 78.024 15.0459 134.253 15.0459 134.253Z" fill="white"/>
<path d="M53.2085 172.312L58.7155 171.681L58.7415 163.908L58.7535 156.778L52.0935 156.464L52.6805 164.855L53.2085 172.312Z" fill="#E4897B"/>
<path opacity="0.2" d="M52.7006 165.025L58.7586 164.06L58.7616 156.854L52.0986 156.502L52.7006 165.025Z" fill="black"/>
<path d="M25.5062 135.704L15.2252 130.556L14.1572 134.911L21.9402 138.927L25.5062 135.704Z" fill="#263238"/>
<path d="M89.0697 107.766C89.0697 107.766 87.3767 107.574 61.4087 102.763C61.4087 102.763 60.8227 135.975 59.5907 160.729L51.5917 160.987C51.5917 160.987 40.1187 106.041 41.4657 97.747C42.8127 89.453 52.6877 88.329 52.6877 88.329C52.6877 88.329 69.8287 101.646 89.0697 107.766Z" fill="#263238"/>
<path opacity="0.4" d="M89.0697 107.766C89.0697 107.766 87.3767 107.574 61.4087 102.763C61.4087 102.763 60.8227 135.975 59.5907 160.729L51.5917 160.987C51.5917 160.987 40.1187 106.041 41.4657 97.747C42.8127 89.453 52.6877 88.329 52.6877 88.329C52.6877 88.329 69.8287 101.646 89.0697 107.766Z" fill="white"/>
<path opacity="0.3" d="M89.0697 107.766C89.0697 107.766 87.3767 107.574 61.4087 102.763C61.4087 102.763 60.8227 135.975 59.5907 160.729L51.5917 160.987C51.5917 160.987 40.1187 106.041 41.4657 97.747C42.8127 89.453 52.6877 88.329 52.6877 88.329C52.6877 88.329 69.8287 101.646 89.0697 107.766Z" fill="black"/>
<path d="M61.0597 158.515L50.1497 158.261L51.6427 162.756L60.4917 162.837L61.0597 158.515Z" fill="#263238"/>
<path d="M0.637595 154.186C1.5006 153.924 2.40459 153.822 3.30459 153.886C3.30459 153.886 6.6376 152.495 10.6636 145.864L14.1026 146.317C15.7846 146.538 18.0486 148.48 17.6786 150.061C16.9016 153.388 14.2216 156.22 12.7896 159.31L12.2276 159.082L13.9916 154.099C14.5826 152.405 12.5206 153.836 11.4306 155.477C10.3396 157.117 8.79459 158.707 5.11759 157.317C0.836591 155.673 -0.858405 154.791 0.637595 154.186Z" fill="#263238"/>
<path d="M11.5397 144.101C11.5397 144.101 6.01369 152.491 3.30469 153.885C3.30469 153.885 6.34569 156.316 10.3997 152.393C15.6417 147.32 16.5287 147.557 16.5287 147.557C16.5287 147.557 16.5937 147.087 16.3757 146.087C15.9577 144.16 11.5397 144.101 11.5397 144.101Z" fill="#E4897B"/>
<path d="M44.9665 182.079C45.7425 181.62 46.5965 181.307 47.4855 181.155C47.4855 181.155 50.3935 179.013 52.7315 171.617C52.7315 171.617 56.1715 171.242 56.1805 171.241C59.0155 170.932 60.6995 172.618 60.5605 174.669C60.5165 177.282 57.9865 184.175 57.9865 184.175L57.3865 184.086L57.9185 178.827C58.0915 177.041 56.4275 178.921 55.7575 180.773C55.0875 182.625 53.9625 184.535 50.0615 184.057C45.5125 183.477 43.6565 183.022 44.9665 182.079Z" fill="#263238"/>
<path d="M53.1656 169.698C53.1656 169.698 49.7876 179.159 47.4856 181.156C47.4856 181.156 51.0166 182.796 54.0246 178.024C57.9146 171.853 59.4696 172.058 59.4696 172.058C59.4696 172.058 58.7836 171.401 58.3356 170.481C57.4716 168.707 53.1656 169.698 53.1656 169.698Z" fill="#E4897B"/>
<path d="M62.2754 13.294C62.1934 13.294 62.1144 13.254 62.0664 13.181C61.2634 11.954 59.5084 11.979 59.4894 11.983C59.4874 11.983 59.4844 11.983 59.4844 11.983C59.3484 11.983 59.2374 11.875 59.2344 11.739C59.2314 11.601 59.3394 11.487 59.4774 11.483C59.5634 11.476 61.5294 11.447 62.4854 12.908C62.5604 13.023 62.5284 13.179 62.4124 13.254C62.3704 13.281 62.3234 13.294 62.2754 13.294Z" fill="#263238"/>
<path d="M60.315 16.261C60.315 16.261 59.209 17.909 58.084 18.829C58.084 18.829 58.561 19.797 59.766 19.767L60.315 16.261Z" fill="#DE5753"/>
<path d="M59.3484 14.3059C59.2784 14.8529 59.5174 15.3349 59.8824 15.3809C60.2474 15.4279 60.5994 15.0219 60.6694 14.4739C60.7394 13.9269 60.5004 13.4449 60.1354 13.3989C59.7714 13.3529 59.4184 13.7589 59.3484 14.3059Z" fill="#263238"/>
<path d="M60.2843 13.4449L59.1533 12.8259C59.1533 12.8259 59.6183 13.9039 60.2843 13.4449Z" fill="#263238"/>
<path d="M73.5652 27.424C73.4952 27.479 73.4162 27.535 73.3392 27.573C72.2882 28.245 71.0872 28.881 69.7462 29.118C65.9932 29.793 63.4832 29.161 61.9112 27.402C61.9032 27.402 61.9032 27.402 61.9032 27.402C59.7092 24.77 59.3482 20.28 59.9382 14.914C60.2022 12.453 60.6592 10.323 61.4202 8.68502C61.4292 8.66902 61.4322 8.60702 61.4412 8.59002C61.4782 8.52402 61.5072 8.43202 61.5442 8.36602C62.6742 6.08202 64.4352 4.65202 67.1612 4.14602C68.1042 3.97302 69.1672 3.90303 70.3602 3.94403C80.8602 4.34803 81.9002 21.822 73.5652 27.424Z" fill="#E4897B"/>
<path opacity="0.2" d="M73.3391 27.573C72.2881 28.245 71.0941 28.734 69.7531 28.972C66.0001 29.647 63.496 28.894 61.925 27.109C63.727 27.601 66.1711 27.872 68.6091 26.888C70.1451 26.272 71.7981 26.707 73.3391 27.573Z" fill="black"/>
<path d="M61.4177 8.61593C61.4177 8.61593 60.4797 15.9469 67.2997 19.4479C67.2997 19.4479 69.9207 27.2389 74.3247 27.5619C80.3277 28.0029 86.0427 19.7089 84.3857 10.8969C82.2367 -0.530067 65.1687 -2.28507 61.4177 8.61593Z" fill="#263238"/>
<path d="M63.8713 17.1629C63.9303 16.0149 64.9473 14.1319 66.7183 14.4809C68.5523 14.8419 69.3533 19.4449 64.7643 20.2409C64.1073 20.3539 63.7493 19.5569 63.8713 17.1629Z" fill="#E4897B"/>
<path d="M74.6162 1.41998C74.6162 1.41998 67.6822 -0.698025 63.6632 1.93497C58.9702 5.01097 57.0852 8.33698 62.1922 13.893C62.1922 13.893 74.1672 10.647 78.0462 11.648C81.9252 12.648 84.6722 13.928 84.6722 13.928C85.8772 6.18197 78.6142 0.0199751 74.6162 1.41998Z" fill="#263238"/>
<path d="M68.0205 28.4029C68.0205 28.4029 73.1755 30.9229 71.6705 36.4469L84.7965 30.9819C84.7965 30.9819 77.6275 30.5319 77.9895 25.4899C77.9895 25.4899 70.4895 22.6099 68.0205 28.4029Z" fill="#E4897B"/>
<path d="M82.1526 10.994C82.1526 10.994 84.7456 3.52197 90.6336 4.81097C96.5216 6.09997 96.0656 12.419 91.8566 14.373C87.6466 16.326 81.7476 15.584 82.1526 10.994Z" fill="#263238"/>
<path d="M89.1036 14.606C89.1036 14.606 94.3196 14.575 93.6766 19.048C93.6766 19.048 93.2276 17.599 92.0526 17.004C92.0526 17.004 93.6315 18.213 92.0595 20.306C92.0595 20.306 92.6926 18.942 90.5356 17.99C88.3786 17.037 82.4746 17.127 83.5736 14.21C84.6726 11.293 89.1036 14.606 89.1036 14.606Z" fill="#263238"/>
<path d="M83.8955 30.6109L80.6915 28.3059C80.6915 28.3059 70.1575 29.7319 70.0495 36.4479C69.9405 43.1629 83.8955 30.6109 83.8955 30.6109Z" fill="#FF4933"/>
<path opacity="0.2" d="M77.8887 77.5309L87.9277 82.571C87.9277 82.571 84.6017 77.0149 78.8027 74.4299C78.2817 76.1119 77.8887 77.5309 77.8887 77.5309Z" fill="black"/>
<path d="M85.8217 30.611C85.8217 30.611 77.9217 29.092 66.9277 36.448C66.9277 36.448 63.2477 52.548 78.8027 74.43L108.299 72.581C108.299 72.581 100.313 40.342 85.8217 30.611Z" fill="#263238"/>
<path opacity="0.1" d="M67.8197 51.286C68.3137 53.355 68.9926 55.609 69.8986 58.006C71.7406 62.915 74.5506 68.4519 78.8006 74.4319L108.297 72.5799C108.297 72.5799 100.311 40.3459 85.8197 30.6099C85.8197 30.6099 77.9257 29.097 66.9237 36.445C66.9237 36.445 65.6277 42.117 67.8197 51.286Z" fill="white"/>
<path opacity="0.2" d="M67.8196 51.286C68.3136 53.355 68.9926 55.609 69.8986 58.006C70.2176 54.497 71.3906 49.37 71.3906 49.37C70.6296 49.453 68.4056 50.998 67.8196 51.286Z" fill="black"/>
<path d="M75.259 42.18C70.04 51.593 64.523 60.835 58.877 70C56.407 73.982 50.226 71.959 50.523 67.343C50.898 61.307 51.373 55.275 51.886 49.244C52.432 43.207 53.031 37.179 53.814 31.164C54.253 28.213 58.533 28.37 58.764 31.33C59.492 43.422 59.649 55.541 59.625 67.648L51.117 65.241C54.825 58.15 58.665 51.135 62.575 44.156C63.904 41.845 65.202 39.516 66.569 37.228C70.055 31.76 78.181 36.398 75.259 42.18Z" fill="#263238"/>
<path opacity="0.1" d="M75.259 42.18C70.04 51.593 64.523 60.835 58.877 70C56.407 73.982 50.226 71.959 50.523 67.343C50.898 61.307 51.373 55.275 51.886 49.244C52.432 43.207 53.031 37.179 53.814 31.164C54.253 28.213 58.533 28.37 58.764 31.33C59.492 43.422 59.649 55.541 59.625 67.648L51.117 65.241C54.825 58.15 58.665 51.135 62.575 44.156C63.904 41.845 65.202 39.516 66.569 37.228C70.055 31.76 78.181 36.398 75.259 42.18Z" fill="white"/>
<path opacity="0.2" d="M59.6024 49.139L57.0664 53.689L59.3604 43.454L59.6024 49.139Z" fill="black"/>
<path d="M129.21 183.405L104.004 174.123L78.5239 183.412C77.6439 183.733 76.7139 183.081 76.7139 182.145C76.7139 181.62 77.0189 181.143 77.4949 180.922L104.005 168.622L130.248 180.921C130.721 181.143 131.023 181.618 131.023 182.141C131.022 183.078 130.089 183.728 129.21 183.405Z" fill="#263238"/>
<path opacity="0.3" d="M129.21 183.405L104.004 174.123L78.5239 183.412C77.6439 183.733 76.7139 183.081 76.7139 182.145C76.7139 181.62 77.0189 181.143 77.4949 180.922L104.005 168.622L130.248 180.921C130.721 181.143 131.023 181.618 131.023 182.141C131.022 183.078 130.089 183.728 129.21 183.405Z" fill="white"/>
<path opacity="0.2" d="M98.0635 176.288L104.003 174.123L109.67 176.21V171.278L104.003 168.621L98.0635 171.378V176.288Z" fill="black"/>
<path d="M103.868 183.62C102.714 183.62 101.749 182.743 101.64 181.594L100.928 174.122V112.105H106.807V174.122L106.095 181.594C105.986 182.743 105.022 183.62 103.868 183.62Z" fill="#263238"/>
<path opacity="0.3" d="M103.868 183.62C102.714 183.62 101.749 182.743 101.64 181.594L100.928 174.122V112.105H106.807V174.122L106.095 181.594C105.986 182.743 105.022 183.62 103.868 183.62Z" fill="white"/>
<path opacity="0.2" d="M106.807 112.105H100.928V119.327H106.807V112.105Z" fill="black"/>
<path d="M144.759 106.46C138.108 104.764 131.273 103.831 124.419 103.659C117.356 103.482 90.9176 103.632 84.6396 103.63C76.9976 103.627 69.3546 104.569 61.9396 106.46C57.2786 107.649 58.7156 114.375 62.9256 114.453C63.2976 114.46 143.218 114.436 143.512 114.449C147.916 114.65 149.522 107.675 144.759 106.46Z" fill="#FF4933"/>
<path opacity="0.3" d="M144.759 106.46C138.108 104.764 131.273 103.831 124.419 103.659C117.356 103.482 90.9176 103.632 84.6396 103.63C76.9976 103.627 69.3546 104.569 61.9396 106.46C57.2786 107.649 58.7156 114.375 62.9256 114.453C63.2976 114.46 143.218 114.436 143.512 114.449C147.916 114.65 149.522 107.675 144.759 106.46Z" fill="black"/>
<path d="M64.1037 114.31C77.5287 110.886 91.7496 110.886 105.175 114.31C110.254 115.605 112.42 107.756 107.339 106.46C92.5096 102.678 76.7686 102.678 61.9396 106.46C56.8676 107.754 59.0167 115.607 64.1037 114.31Z" fill="#FF4933"/>
<g opacity="0.3">
<path d="M64.1037 114.31C77.5287 110.886 91.7496 110.886 105.175 114.31C110.254 115.605 112.42 107.756 107.339 106.46C92.5096 102.678 76.7686 102.678 61.9396 106.46C56.8676 107.754 59.0167 115.607 64.1037 114.31Z" fill="white"/>
</g>
<path d="M123.384 48.2119C122.543 48.1959 121.699 48.5719 121.136 49.5069C110.368 67.4129 106.543 88.9379 110.258 109.474C110.491 110.761 111.372 111.361 112.35 111.427C113.98 111.538 142.996 111.435 144.048 111.433C145.63 111.43 147.369 110.085 146.997 108.031C143.545 88.9469 147.346 68.8449 157.328 52.2449C158.568 50.1819 156.739 48.2459 154.89 48.2109C154.05 48.1949 125.233 48.2469 123.384 48.2119Z" fill="#FF4933"/>
<path opacity="0.2" d="M123.384 48.2119C122.543 48.1959 121.699 48.5719 121.136 49.5069C110.368 67.4129 106.543 88.9379 110.258 109.474C110.491 110.761 111.372 111.361 112.35 111.427C113.98 111.538 142.996 111.435 144.048 111.433C145.63 111.43 147.369 110.085 146.997 108.031C143.545 88.9469 147.346 68.8449 157.328 52.2449C158.568 50.1819 156.739 48.2459 154.89 48.2109C154.05 48.1949 125.233 48.2469 123.384 48.2119Z" fill="black"/>
<path d="M115.491 108.032C112.039 88.9479 115.84 68.8459 125.822 52.2459C127.626 49.2459 122.936 46.5139 121.136 49.5069C110.368 67.4129 106.543 88.9379 110.258 109.474C110.879 112.906 116.11 111.452 115.491 108.032Z" fill="#FF4933"/>
<g opacity="0.2">
<path d="M115.491 108.032C112.039 88.9479 115.84 68.8459 125.822 52.2459C127.626 49.2459 122.936 46.5139 121.136 49.5069C110.368 67.4129 106.543 88.9379 110.258 109.474C110.879 112.906 116.11 111.452 115.491 108.032Z" fill="white"/>
</g>
</svg>
