<svg width="312" height="253" viewBox="0 0 312 253" fill="none" xmlns="http://www.w3.org/2000/svg">
<path d="M163.174 236.64C163.174 236.64 163.103 236.292 162.99 235.662" stroke="#263238" stroke-miterlimit="10"/>
<path d="M162.662 233.684C161.596 226.753 159.777 209.458 166.574 201.74C175.181 191.968 185.505 200.344 214.262 201.74C243.018 203.136 257.827 198.948 258.123 174.286C258.419 149.624 241.552 148.045 241.552 148.045H230.894" stroke="#263238" stroke-miterlimit="10" stroke-dasharray="2.01 2.01"/>
<path d="M229.88 148.045H228.88" stroke="#263238" stroke-miterlimit="10"/>
<path d="M228.88 72.293H229.88" stroke="#263238" stroke-miterlimit="10"/>
<path d="M231.88 72.293H267.906C267.906 72.293 278.765 73.234 278.309 85.751C277.853 98.268 259.778 109.98 260.931 135C262.085 160.02 304.739 156.264 310.547 181.299C316.354 206.333 273.676 205.082 269.714 218.016C269.714 218.016 267.861 221.771 267.906 227.195C267.942 231.401 267.922 241.378 267.911 245.647" stroke="#263238" stroke-miterlimit="10" stroke-dasharray="2 2"/>
<path d="M267.909 246.643C267.907 247.277 267.906 247.64 267.906 247.64" stroke="#263238" stroke-miterlimit="10"/>
<path d="M96.3616 1.42899H95.3616" stroke="#263238" stroke-miterlimit="10"/>
<path d="M93.3721 1.429H75.7381C75.7381 1.429 27.7141 0.881996 27.7141 41.472C27.7141 60.234 34.2321 74.273 53.5521 97.331C72.8731 120.389 72.5061 192.473 66.2731 205.401C60.0401 218.329 46.6691 216.37 41.9871 223.422C41.9871 223.422 38.6161 226.948 38.3271 231.257C38.0991 234.651 38.2301 245.754 38.2961 250.319" stroke="#263238" stroke-miterlimit="10" stroke-dasharray="1.99 1.99"/>
<path d="M38.3108 251.312C38.3208 251.945 38.3268 252.308 38.3268 252.308" stroke="#263238" stroke-miterlimit="10"/>
<path d="M107.151 53.642C104.906 53.642 102.807 54.251 100.993 55.298C101.156 54.352 101.246 53.382 101.246 52.389C101.246 43 93.6351 35.39 84.2471 35.39C75.9301 35.39 69.0131 41.365 67.5411 49.255C65.8901 48.631 64.1071 48.274 62.2371 48.274C53.9361 48.274 47.2061 55.004 47.2061 63.305C47.2061 71.606 53.9361 78.336 62.2371 78.336H107.151C113.97 78.336 119.498 72.808 119.498 65.989C119.498 59.17 113.97 53.642 107.151 53.642Z" fill="white" stroke="#263238" stroke-miterlimit="10"/>
<path d="M296.947 103.821C294.556 103.821 292.321 104.469 290.39 105.584C290.564 104.577 290.659 103.543 290.659 102.487C290.659 92.49 282.555 84.386 272.558 84.386C263.702 84.386 256.336 90.748 254.769 99.149C253.011 98.485 251.113 98.105 249.122 98.105C240.283 98.105 233.117 105.271 233.117 114.11C233.117 122.949 240.283 130.115 249.122 130.115H296.947C304.208 130.115 310.094 124.229 310.094 116.968C310.094 109.707 304.208 103.821 296.947 103.821Z" fill="white" stroke="#263238" stroke-miterlimit="10"/>
<path d="M288.5 133.5H292.5" stroke="#263238" stroke-miterlimit="10" stroke-linecap="round" stroke-linejoin="round"/>
<path d="M269 133.5H283" stroke="#263238" stroke-miterlimit="10" stroke-linecap="round" stroke-linejoin="round"/>
<path d="M255.765 85.195C257.675 83.723 259.331 82.658 263.004 82.179" stroke="#263238" stroke-miterlimit="10" stroke-linecap="round" stroke-linejoin="round"/>
<path d="M251 92.5C251 92.5 251.344 90.438 252.963 88.124" stroke="#263238" stroke-miterlimit="10" stroke-linecap="round" stroke-linejoin="round"/>
<path d="M99.145 164.703C95.553 164.703 92.196 165.677 89.294 167.352C89.555 165.839 89.699 164.287 89.699 162.699C89.699 147.681 77.524 135.506 62.505 135.506C49.2 135.506 38.135 145.063 35.781 157.685C33.139 156.687 30.288 156.116 27.297 156.116C14.017 156.116 3.25195 166.881 3.25195 180.161C3.25195 193.441 14.017 204.206 27.297 204.206H99.145C110.053 204.206 118.896 195.363 118.896 184.455C118.896 173.547 110.054 164.703 99.145 164.703Z" fill="white" stroke="#263238" stroke-miterlimit="10"/>
<path d="M8.85059 202.223C9.79459 202.854 10.8416 203.455 11.9996 204" stroke="#263238" stroke-miterlimit="10" stroke-linecap="round" stroke-linejoin="round"/>
<path d="M1 193C1 193 2.049 195.938 5.099 199.094" stroke="#263238" stroke-miterlimit="10" stroke-linecap="round" stroke-linejoin="round"/>
<path d="M45.3269 133.973C48.3859 131.855 53.0869 129.743 59.4999 130" stroke="#263238" stroke-miterlimit="10" stroke-linecap="round" stroke-linejoin="round"/>
<path d="M41 138C41 138 41.779 136.897 43.36 135.509" stroke="#263238" stroke-miterlimit="10" stroke-linecap="round" stroke-linejoin="round"/>
</svg>
