<svg width="378" height="217" viewBox="0 0 378 217" fill="none" xmlns="http://www.w3.org/2000/svg">
<path d="M319.912 25.091L312.871 11.236C312.686 10.86 312.23 10.705 311.854 10.89C311.478 11.075 311.323 11.531 311.508 11.907L318.203 25.932C317.925 26.289 317.825 26.692 317.985 27.016L325.07 40.294C325.255 40.67 325.863 40.75 326.427 40.472C326.991 40.194 327.299 39.664 327.113 39.287L320.903 25.578C320.745 25.254 320.365 25.088 319.912 25.091Z" fill="#263238"/>
<path d="M358.673 25.091L365.714 11.236C365.899 10.86 366.355 10.705 366.731 10.89C367.107 11.075 367.262 11.531 367.077 11.907L360.383 25.932C360.661 26.289 360.761 26.692 360.601 27.016L353.516 40.294C353.331 40.67 352.723 40.75 352.159 40.472C351.595 40.194 351.287 39.664 351.473 39.287L357.683 25.578C357.84 25.254 358.221 25.088 358.673 25.091Z" fill="#263238"/>
<path d="M361.346 40.871H317.384L320.682 35.271H358.049L361.346 40.871Z" fill="white" stroke="#263238" stroke-miterlimit="10" stroke-linecap="round" stroke-linejoin="round"/>
<path d="M361.345 40.871H317.384V46.471H361.345V40.871Z" fill="white" stroke="#263238" stroke-miterlimit="10" stroke-linecap="round" stroke-linejoin="round"/>
<path d="M338.599 44.905H321.699C321.018 44.905 320.465 44.353 320.465 43.671C320.465 42.99 321.017 42.437 321.699 42.437H338.599C339.28 42.437 339.833 42.989 339.833 43.671C339.833 44.353 339.281 44.905 338.599 44.905Z" fill="white" stroke="#263238" stroke-miterlimit="10"/>
<path d="M348.832 44.606C349.431 44.606 349.916 44.1207 349.916 43.522C349.916 42.9233 349.431 42.438 348.832 42.438C348.233 42.438 347.748 42.9233 347.748 43.522C347.748 44.1207 348.233 44.606 348.832 44.606Z" fill="white" stroke="#263238" stroke-miterlimit="10"/>
<path d="M354.389 43.522C354.389 42.923 353.904 42.438 353.305 42.438C352.706 42.438 352.221 42.923 352.221 43.522C352.221 44.121 352.707 44.606 353.305 44.606C353.904 44.606 354.389 44.121 354.389 43.522Z" fill="white" stroke="#263238" stroke-miterlimit="10"/>
<path d="M357.777 44.606C358.375 44.606 358.861 44.1207 358.861 43.522C358.861 42.9233 358.375 42.438 357.777 42.438C357.178 42.438 356.693 42.9233 356.693 43.522C356.693 44.1207 357.178 44.606 357.777 44.606Z" fill="white" stroke="#263238" stroke-miterlimit="10"/>
<path d="M376.711 9.375C376.85 10.052 376.922 10.753 376.922 11.471C376.922 11.558 376.911 11.641 376.909 11.727" stroke="#263238" stroke-width="0.5" stroke-miterlimit="10" stroke-linecap="round" stroke-linejoin="round"/>
<path d="M360.831 2.776C362.467 1.702 364.421 1.073 366.525 1.073C370.921 1.073 374.681 3.802 376.201 7.658" stroke="#263238" stroke-width="0.5" stroke-miterlimit="10" stroke-linecap="round" stroke-linejoin="round"/>
<path d="M363.728 4.28802C363.166 4.50802 362.635 4.79202 362.146 5.13102" stroke="#263238" stroke-width="0.5" stroke-miterlimit="10" stroke-linecap="round" stroke-linejoin="round"/>
<path d="M374.224 11.661C374.226 11.597 374.234 11.535 374.234 11.471C374.234 7.21402 370.783 3.76202 366.526 3.76202C366.115 3.76202 365.712 3.79403 365.319 3.85703" stroke="#263238" stroke-width="0.5" stroke-miterlimit="10" stroke-linecap="round" stroke-linejoin="round"/>
<path d="M371.717 11.599C371.718 11.556 371.724 11.514 371.724 11.471C371.724 8.6 369.396 6.272 366.525 6.272C365.341 6.272 364.253 6.672 363.379 7.339" stroke="#263238" stroke-width="0.5" stroke-miterlimit="10" stroke-linecap="round" stroke-linejoin="round"/>
<path d="M365.434 8.82001C365.098 8.96001 364.794 9.16201 364.536 9.41101" stroke="#263238" stroke-width="0.5" stroke-miterlimit="10" stroke-linecap="round" stroke-linejoin="round"/>
<path d="M369.386 11.542C369.387 11.518 369.393 11.495 369.393 11.471C369.393 9.88703 368.109 8.60303 366.525 8.60303" stroke="#263238" stroke-width="0.5" stroke-miterlimit="10" stroke-linecap="round" stroke-linejoin="round"/>
<path d="M301.915 9.98102C301.845 10.468 301.809 10.965 301.809 11.471C301.809 11.558 301.82 11.641 301.822 11.727" stroke="#263238" stroke-width="0.5" stroke-miterlimit="10" stroke-linecap="round" stroke-linejoin="round"/>
<path d="M314.277 1.281C313.608 1.145 312.916 1.073 312.207 1.073C307.625 1.073 303.735 4.037 302.35 8.152" stroke="#263238" stroke-width="0.5" stroke-miterlimit="10" stroke-linecap="round" stroke-linejoin="round"/>
<path d="M317.9 2.77598C317.245 2.34598 316.539 1.98798 315.794 1.71198" stroke="#263238" stroke-width="0.5" stroke-miterlimit="10" stroke-linecap="round" stroke-linejoin="round"/>
<path d="M311.588 3.787C311.792 3.771 311.998 3.763 312.206 3.763C313.833 3.763 315.341 4.27 316.585 5.131" stroke="#263238" stroke-width="0.5" stroke-miterlimit="10" stroke-linecap="round" stroke-linejoin="round"/>
<path d="M304.508 11.661C304.507 11.597 304.498 11.535 304.498 11.471C304.498 8.27799 306.439 5.53798 309.206 4.36798" stroke="#263238" stroke-width="0.5" stroke-miterlimit="10" stroke-linecap="round" stroke-linejoin="round"/>
<path d="M307.014 11.599C307.013 11.556 307.007 11.514 307.007 11.471C307.007 8.59997 309.335 6.27197 312.206 6.27197C313.39 6.27197 314.478 6.67197 315.352 7.33897" stroke="#263238" stroke-width="0.5" stroke-miterlimit="10" stroke-linecap="round" stroke-linejoin="round"/>
<path d="M309.345 11.542C309.344 11.518 309.338 11.495 309.338 11.471C309.338 9.88703 310.622 8.60303 312.206 8.60303C312.98 8.60303 313.679 8.91303 314.195 9.41103" stroke="#263238" stroke-width="0.5" stroke-miterlimit="10" stroke-linecap="round" stroke-linejoin="round"/>
<path d="M181.634 194.424L174.593 180.569C174.408 180.193 173.952 180.038 173.576 180.223C173.2 180.408 173.045 180.864 173.23 181.24L179.925 195.265C179.647 195.622 179.547 196.025 179.707 196.349L186.792 209.627C186.977 210.003 187.585 210.083 188.149 209.805C188.713 209.527 189.021 208.997 188.835 208.62L182.625 194.911C182.467 194.588 182.086 194.421 181.634 194.424Z" fill="#263238"/>
<path d="M220.396 194.424L227.437 180.569C227.622 180.193 228.078 180.038 228.454 180.223C228.83 180.408 228.985 180.864 228.8 181.24L222.106 195.265C222.384 195.622 222.484 196.025 222.324 196.349L215.239 209.627C215.054 210.003 214.446 210.083 213.882 209.805C213.318 209.527 213.01 208.997 213.196 208.62L219.406 194.911C219.563 194.588 219.943 194.421 220.396 194.424Z" fill="#263238"/>
<path d="M223.067 210.205H179.106L182.403 204.605H219.77L223.067 210.205Z" fill="white" stroke="#263238" stroke-miterlimit="10" stroke-linecap="round" stroke-linejoin="round"/>
<path d="M223.067 210.205H179.106V215.805H223.067V210.205Z" fill="white" stroke="#263238" stroke-miterlimit="10" stroke-linecap="round" stroke-linejoin="round"/>
<path d="M200.322 214.238H183.421C182.74 214.238 182.188 213.686 182.188 213.005C182.188 212.324 182.739 211.772 183.421 211.772H200.322C201.003 211.772 201.555 212.324 201.555 213.005C201.555 213.686 201.003 214.238 200.322 214.238Z" fill="white" stroke="#263238" stroke-miterlimit="10"/>
<path d="M210.555 213.939C211.153 213.939 211.639 213.454 211.639 212.855C211.639 212.256 211.153 211.771 210.555 211.771C209.956 211.771 209.471 212.256 209.471 212.855C209.471 213.454 209.956 213.939 210.555 213.939Z" fill="white" stroke="#263238" stroke-miterlimit="10"/>
<path d="M216.11 212.855C216.11 212.256 215.625 211.771 215.026 211.771C214.427 211.771 213.942 212.256 213.942 212.855C213.942 213.454 214.427 213.939 215.026 213.939C215.625 213.94 216.11 213.454 216.11 212.855Z" fill="white" stroke="#263238" stroke-miterlimit="10"/>
<path d="M219.499 213.939C220.098 213.939 220.583 213.454 220.583 212.855C220.583 212.256 220.098 211.771 219.499 211.771C218.901 211.771 218.415 212.256 218.415 212.855C218.415 213.454 218.901 213.939 219.499 213.939Z" fill="white" stroke="#263238" stroke-miterlimit="10"/>
<path d="M233.438 171.794C236.55 173.591 238.644 176.953 238.644 180.804C238.644 180.891 238.633 180.974 238.631 181.06" stroke="#263238" stroke-width="0.5" stroke-miterlimit="10" stroke-linecap="round" stroke-linejoin="round"/>
<path d="M222.554 172.11C224.19 171.036 226.144 170.407 228.248 170.407C229.429 170.407 230.564 170.604 231.622 170.966" stroke="#263238" stroke-width="0.5" stroke-miterlimit="10" stroke-linecap="round" stroke-linejoin="round"/>
<path d="M226.896 173.215C225.787 173.412 224.76 173.847 223.869 174.464" stroke="#263238" stroke-width="0.5" stroke-miterlimit="10" stroke-linecap="round" stroke-linejoin="round"/>
<path d="M235.946 180.994C235.948 180.93 235.956 180.868 235.956 180.804C235.956 176.805 232.91 173.516 229.012 173.133" stroke="#263238" stroke-width="0.5" stroke-miterlimit="10" stroke-linecap="round" stroke-linejoin="round"/>
<path d="M231.98 177.186C231.035 176.211 229.712 175.606 228.247 175.606C227.063 175.606 225.975 176.006 225.101 176.673" stroke="#263238" stroke-width="0.5" stroke-miterlimit="10" stroke-linecap="round" stroke-linejoin="round"/>
<path d="M233.44 180.932C233.441 180.889 233.447 180.847 233.447 180.804C233.447 180.086 233.301 179.402 233.038 178.78" stroke="#263238" stroke-width="0.5" stroke-miterlimit="10" stroke-linecap="round" stroke-linejoin="round"/>
<path d="M227.547 178.023C227.054 178.148 226.613 178.401 226.259 178.744" stroke="#263238" stroke-width="0.5" stroke-miterlimit="10" stroke-linecap="round" stroke-linejoin="round"/>
<path d="M231.109 180.875C231.11 180.851 231.116 180.828 231.116 180.804C231.116 179.485 230.225 178.374 229.013 178.039" stroke="#263238" stroke-width="0.5" stroke-miterlimit="10" stroke-linecap="round" stroke-linejoin="round"/>
<path d="M163.677 179.056C163.581 179.625 163.531 180.209 163.531 180.805C163.531 180.892 163.542 180.975 163.544 181.061" stroke="#263238" stroke-width="0.5" stroke-miterlimit="10" stroke-linecap="round" stroke-linejoin="round"/>
<path d="M169.831 171.245C167.255 172.351 165.215 174.467 164.211 177.096" stroke="#263238" stroke-width="0.5" stroke-miterlimit="10" stroke-linecap="round" stroke-linejoin="round"/>
<path d="M179.622 172.11C177.986 171.036 176.032 170.407 173.929 170.407C173.212 170.407 172.512 170.479 171.836 170.618" stroke="#263238" stroke-width="0.5" stroke-miterlimit="10" stroke-linecap="round" stroke-linejoin="round"/>
<path d="M168.11 175.747C169.523 174.122 171.606 173.096 173.928 173.096C175.555 173.096 177.063 173.603 178.307 174.464" stroke="#263238" stroke-width="0.5" stroke-miterlimit="10" stroke-linecap="round" stroke-linejoin="round"/>
<path d="M166.23 180.994C166.229 180.93 166.22 180.868 166.22 180.804C166.22 179.62 166.487 178.498 166.964 177.496" stroke="#263238" stroke-width="0.5" stroke-miterlimit="10" stroke-linecap="round" stroke-linejoin="round"/>
<path d="M170.209 177.172C171.153 176.206 172.47 175.606 173.928 175.606C175.112 175.606 176.2 176.006 177.074 176.673" stroke="#263238" stroke-width="0.5" stroke-miterlimit="10" stroke-linecap="round" stroke-linejoin="round"/>
<path d="M168.736 180.932C168.735 180.889 168.729 180.847 168.729 180.804C168.729 179.999 168.912 179.238 169.238 178.558" stroke="#263238" stroke-width="0.5" stroke-miterlimit="10" stroke-linecap="round" stroke-linejoin="round"/>
<path d="M172.053 178.635C172.556 178.2 173.212 177.936 173.929 177.936C174.703 177.936 175.402 178.246 175.918 178.744" stroke="#263238" stroke-width="0.5" stroke-miterlimit="10" stroke-linecap="round" stroke-linejoin="round"/>
<path d="M171.068 180.875C171.067 180.851 171.061 180.828 171.061 180.804C171.061 180.316 171.183 179.856 171.398 179.454" stroke="#263238" stroke-width="0.5" stroke-miterlimit="10" stroke-linecap="round" stroke-linejoin="round"/>
<path d="M19.3227 110.093L12.2817 96.238C12.0967 95.862 11.6407 95.707 11.2647 95.892C10.8887 96.077 10.7337 96.533 10.9187 96.909L17.6127 110.934C17.3347 111.291 17.2347 111.694 17.3947 112.018L24.4797 125.296C24.6647 125.672 25.2727 125.752 25.8367 125.474C26.4007 125.196 26.7087 124.666 26.5227 124.289L20.3127 110.58C20.1557 110.256 19.7747 110.09 19.3227 110.093Z" fill="#263238"/>
<path d="M58.0843 110.093L65.1253 96.238C65.3103 95.862 65.7663 95.707 66.1423 95.892C66.5183 96.077 66.6733 96.533 66.4883 96.909L59.7943 110.934C60.0723 111.291 60.1723 111.694 60.0123 112.018L52.9273 125.296C52.7423 125.672 52.1343 125.752 51.5703 125.474C51.0063 125.196 50.6983 124.666 50.8843 124.289L57.0943 110.58C57.2513 110.256 57.6313 110.09 58.0843 110.093Z" fill="#263238"/>
<path d="M60.7557 125.873H16.7947L20.0917 120.273H57.4587L60.7557 125.873Z" fill="white" stroke="#263238" stroke-miterlimit="10" stroke-linecap="round" stroke-linejoin="round"/>
<path d="M60.7557 125.873H16.7947V131.473H60.7557V125.873Z" fill="white" stroke="#263238" stroke-miterlimit="10" stroke-linecap="round" stroke-linejoin="round"/>
<path d="M38.01 129.907H21.11C20.429 129.907 19.876 129.355 19.876 128.673C19.876 127.992 20.428 127.439 21.11 127.439H38.01C38.691 127.439 39.244 127.991 39.244 128.673C39.243 129.355 38.691 129.907 38.01 129.907Z" fill="white" stroke="#263238" stroke-miterlimit="10"/>
<path d="M48.2432 129.608C48.8419 129.608 49.3272 129.123 49.3272 128.524C49.3272 127.925 48.8419 127.44 48.2432 127.44C47.6445 127.44 47.1592 127.925 47.1592 128.524C47.1592 129.123 47.6445 129.608 48.2432 129.608Z" fill="white" stroke="#263238" stroke-miterlimit="10"/>
<path d="M52.7146 129.608C53.3133 129.608 53.7986 129.123 53.7986 128.524C53.7986 127.925 53.3133 127.44 52.7146 127.44C52.1159 127.44 51.6306 127.925 51.6306 128.524C51.6306 129.123 52.1159 129.608 52.7146 129.608Z" fill="white" stroke="#263238" stroke-miterlimit="10"/>
<path d="M58.2718 128.524C58.2718 127.925 57.7858 127.44 57.1878 127.44C56.5888 127.44 56.1038 127.925 56.1038 128.524C56.1038 129.123 56.5898 129.608 57.1878 129.608C57.7858 129.608 58.2718 129.123 58.2718 128.524Z" fill="white" stroke="#263238" stroke-miterlimit="10"/>
<path d="M75.7588 93.058C76.1308 94.128 76.3328 95.277 76.3328 96.473C76.3328 96.56 76.3218 96.643 76.3198 96.729" stroke="#263238" stroke-width="0.5" stroke-miterlimit="10" stroke-linecap="round" stroke-linejoin="round"/>
<path d="M67.9668 86.274C71.2328 86.921 73.9488 89.098 75.3358 92.027" stroke="#263238" stroke-width="0.5" stroke-miterlimit="10" stroke-linecap="round" stroke-linejoin="round"/>
<path d="M60.2422 87.778C61.5982 86.889 63.1722 86.304 64.8682 86.13" stroke="#263238" stroke-width="0.5" stroke-miterlimit="10" stroke-linecap="round" stroke-linejoin="round"/>
<path d="M71.7306 91.39C70.3176 89.781 68.2456 88.765 65.9356 88.765C64.3086 88.765 62.8006 89.272 61.5566 90.133" stroke="#263238" stroke-width="0.5" stroke-miterlimit="10" stroke-linecap="round" stroke-linejoin="round"/>
<path d="M73.6343 96.663C73.6363 96.599 73.6443 96.537 73.6443 96.473C73.6443 95.193 73.3323 93.985 72.7803 92.923" stroke="#263238" stroke-width="0.5" stroke-miterlimit="10" stroke-linecap="round" stroke-linejoin="round"/>
<path d="M64.8633 91.386C64.0963 91.549 63.3923 91.881 62.7903 92.341" stroke="#263238" stroke-width="0.5" stroke-miterlimit="10" stroke-linecap="round" stroke-linejoin="round"/>
<path d="M71.1276 96.601C71.1286 96.558 71.1346 96.516 71.1346 96.473C71.1346 93.987 69.3896 91.908 67.0576 91.396" stroke="#263238" stroke-width="0.5" stroke-miterlimit="10" stroke-linecap="round" stroke-linejoin="round"/>
<path d="M68.1903 94.701C67.6653 94.034 66.8503 93.605 65.9353 93.605C65.1613 93.605 64.4623 93.915 63.9463 94.413" stroke="#263238" stroke-width="0.5" stroke-miterlimit="10" stroke-linecap="round" stroke-linejoin="round"/>
<path d="M68.7967 96.5441C68.7977 96.5201 68.8037 96.4981 68.8037 96.4731C68.8037 96.1831 68.7607 95.903 68.6807 95.64" stroke="#263238" stroke-width="0.5" stroke-miterlimit="10" stroke-linecap="round" stroke-linejoin="round"/>
<path d="M9.79873 86.234C4.92273 87.094 1.21973 91.351 1.21973 96.473C1.21973 96.56 1.23073 96.643 1.23273 96.729" stroke="#263238" stroke-width="0.5" stroke-miterlimit="10" stroke-linecap="round" stroke-linejoin="round"/>
<path d="M17.3097 87.778C15.8617 86.828 14.1637 86.225 12.3347 86.1" stroke="#263238" stroke-width="0.5" stroke-miterlimit="10" stroke-linecap="round" stroke-linejoin="round"/>
<path d="M13.3203 88.954C14.2943 89.175 15.1993 89.581 15.9953 90.132" stroke="#263238" stroke-width="0.5" stroke-miterlimit="10" stroke-linecap="round" stroke-linejoin="round"/>
<path d="M3.9182 96.663C3.9162 96.599 3.9082 96.537 3.9082 96.473C3.9082 92.216 7.3592 88.764 11.6162 88.764" stroke="#263238" stroke-width="0.5" stroke-miterlimit="10" stroke-linecap="round" stroke-linejoin="round"/>
<path d="M7.60474 93.166C8.55874 92.011 10.0017 91.274 11.6167 91.274C12.8007 91.274 13.8887 91.674 14.7627 92.341" stroke="#263238" stroke-width="0.5" stroke-miterlimit="10" stroke-linecap="round" stroke-linejoin="round"/>
<path d="M6.42399 96.601C6.42299 96.558 6.41699 96.516 6.41699 96.473C6.41699 95.755 6.56299 95.071 6.82599 94.449" stroke="#263238" stroke-width="0.5" stroke-miterlimit="10" stroke-linecap="round" stroke-linejoin="round"/>
<path d="M12.1287 93.651C12.6977 93.755 13.2067 94.027 13.6057 94.413" stroke="#263238" stroke-width="0.5" stroke-miterlimit="10" stroke-linecap="round" stroke-linejoin="round"/>
<path d="M8.75602 96.544C8.75502 96.52 8.74902 96.498 8.74902 96.473C8.74902 95.049 9.78702 93.867 11.148 93.643" stroke="#263238" stroke-width="0.5" stroke-miterlimit="10" stroke-linecap="round" stroke-linejoin="round"/>
</svg>
