<svg width="135" height="178" viewBox="0 0 135 178" fill="none" xmlns="http://www.w3.org/2000/svg">
<path d="M133.88 83.758H129.13V96.315H133.88V83.758Z" fill="#263238" stroke="#263238" stroke-miterlimit="10"/>
<path d="M133.88 157.855H129.13V170.412H133.88V157.855Z" fill="#263238" stroke="#263238" stroke-miterlimit="10"/>
<path d="M6.11133 11.086H1.36133V23.643H6.11133V11.086Z" fill="#263238" stroke="#263238" stroke-miterlimit="10"/>
<path d="M6.11133 121.281H1.36133V133.838H6.11133V121.281Z" fill="#263238" stroke="#263238" stroke-miterlimit="10"/>
<path d="M130.688 4.14001H5.66138V31.221H130.688V4.14001Z" fill="white" stroke="#263238" stroke-miterlimit="10"/>
<path d="M97.8418 11.048H11.6738V24.312H97.8418V11.048Z" fill="#FF4933" stroke="#263238" stroke-miterlimit="10"/>
<path d="M109.514 20.445C111.36 20.445 112.856 18.9487 112.856 17.103C112.856 15.2572 111.36 13.761 109.514 13.761C107.668 13.761 106.172 15.2572 106.172 17.103C106.172 18.9487 107.668 20.445 109.514 20.445Z" fill="white" stroke="#263238" stroke-miterlimit="10"/>
<path d="M125.944 17.103C125.944 15.258 124.448 13.761 122.602 13.761C120.756 13.761 119.26 15.257 119.26 17.103C119.26 18.949 120.756 20.445 122.602 20.445C124.448 20.444 125.944 18.948 125.944 17.103Z" fill="#FF4933" stroke="#263238" stroke-miterlimit="10"/>
<path d="M90.0207 20.445C91.8664 20.445 93.3627 18.9487 93.3627 17.103C93.3627 15.2572 91.8664 13.761 90.0207 13.761C88.175 13.761 86.6787 15.2572 86.6787 17.103C86.6787 18.9487 88.175 20.445 90.0207 20.445Z" fill="white" stroke="#263238" stroke-miterlimit="10"/>
<path d="M125.943 31.221H10.4053V40.495H125.943V31.221Z" fill="#263238" stroke="#263238" stroke-miterlimit="10"/>
<path d="M130.688 40.494H5.66138V67.575H130.688V40.494Z" fill="white" stroke="#263238" stroke-miterlimit="10"/>
<path d="M97.8418 47.403H11.6738V60.667H97.8418V47.403Z" fill="#FF4933" stroke="#263238" stroke-miterlimit="10"/>
<path d="M109.514 56.8C111.36 56.8 112.856 55.3038 112.856 53.458C112.856 51.6123 111.36 50.116 109.514 50.116C107.668 50.116 106.172 51.6123 106.172 53.458C106.172 55.3038 107.668 56.8 109.514 56.8Z" fill="#FF4933" stroke="#263238" stroke-miterlimit="10"/>
<path d="M125.944 53.458C125.944 51.612 124.448 50.116 122.602 50.116C120.756 50.116 119.26 51.612 119.26 53.458C119.26 55.304 120.756 56.8 122.602 56.8C124.448 56.799 125.944 55.303 125.944 53.458Z" fill="white" stroke="#263238" stroke-miterlimit="10"/>
<path d="M90.0207 56.8C91.8664 56.8 93.3627 55.3038 93.3627 53.458C93.3627 51.6123 91.8664 50.116 90.0207 50.116C88.175 50.116 86.6787 51.6123 86.6787 53.458C86.6787 55.3038 88.175 56.8 90.0207 56.8Z" fill="white" stroke="#263238" stroke-miterlimit="10"/>
<path d="M125.943 67.576H10.4053V76.85H125.943V67.576Z" fill="#263238" stroke="#263238" stroke-miterlimit="10"/>
<path d="M130.688 76.85H5.66138V103.931H130.688V76.85Z" fill="white" stroke="#263238" stroke-miterlimit="10"/>
<path d="M97.8418 83.758H11.6738V97.022H97.8418V83.758Z" fill="#FF4933" stroke="#263238" stroke-miterlimit="10"/>
<path d="M109.514 93.155C111.36 93.155 112.856 91.6588 112.856 89.813C112.856 87.9673 111.36 86.471 109.514 86.471C107.668 86.471 106.172 87.9673 106.172 89.813C106.172 91.6588 107.668 93.155 109.514 93.155Z" fill="white" stroke="#263238" stroke-miterlimit="10"/>
<path d="M125.944 89.813C125.944 87.967 124.448 86.471 122.602 86.471C120.756 86.471 119.26 87.967 119.26 89.813C119.26 91.659 120.756 93.155 122.602 93.155C124.448 93.154 125.944 91.658 125.944 89.813Z" fill="#FF4933" stroke="#263238" stroke-miterlimit="10"/>
<path d="M90.0207 93.155C91.8664 93.155 93.3627 91.6588 93.3627 89.813C93.3627 87.9673 91.8664 86.471 90.0207 86.471C88.175 86.471 86.6787 87.9673 86.6787 89.813C86.6787 91.6588 88.175 93.155 90.0207 93.155Z" fill="white" stroke="#263238" stroke-miterlimit="10"/>
<path d="M125.943 103.931H10.4053V113.205H125.943V103.931Z" fill="#263238" stroke="#263238" stroke-miterlimit="10"/>
<path d="M130.688 113.204H5.66138V140.285H130.688V113.204Z" fill="white" stroke="#263238" stroke-miterlimit="10"/>
<path d="M97.8418 120.113H11.6738V133.377H97.8418V120.113Z" fill="#FF4933" stroke="#263238" stroke-miterlimit="10"/>
<path d="M109.514 129.51C111.36 129.51 112.856 128.014 112.856 126.168C112.856 124.322 111.36 122.826 109.514 122.826C107.668 122.826 106.172 124.322 106.172 126.168C106.172 128.014 107.668 129.51 109.514 129.51Z" fill="#FF4933" stroke="#263238" stroke-miterlimit="10"/>
<path d="M125.944 126.168C125.944 124.322 124.448 122.826 122.602 122.826C120.756 122.826 119.26 124.322 119.26 126.168C119.26 128.014 120.756 129.51 122.602 129.51C124.448 129.509 125.944 128.013 125.944 126.168Z" fill="white" stroke="#263238" stroke-miterlimit="10"/>
<path d="M90.0207 129.51C91.8664 129.51 93.3627 128.014 93.3627 126.168C93.3627 124.322 91.8664 122.826 90.0207 122.826C88.175 122.826 86.6787 124.322 86.6787 126.168C86.6787 128.014 88.175 129.51 90.0207 129.51Z" fill="white" stroke="#263238" stroke-miterlimit="10"/>
<path d="M125.943 140.286H10.4053V149.56H125.943V140.286Z" fill="#263238" stroke="#263238" stroke-miterlimit="10"/>
<path d="M130.688 149.559H5.66138V176.64H130.688V149.559Z" fill="white" stroke="#263238" stroke-miterlimit="10"/>
<path d="M97.8418 156.468H11.6738V169.732H97.8418V156.468Z" fill="#FF4933" stroke="#263238" stroke-miterlimit="10"/>
<path d="M109.514 165.865C111.36 165.865 112.856 164.369 112.856 162.523C112.856 160.677 111.36 159.181 109.514 159.181C107.668 159.181 106.172 160.677 106.172 162.523C106.172 164.369 107.668 165.865 109.514 165.865Z" fill="white" stroke="#263238" stroke-miterlimit="10"/>
<path d="M125.944 162.523C125.944 160.677 124.448 159.181 122.602 159.181C120.756 159.181 119.26 160.677 119.26 162.523C119.26 164.368 120.756 165.865 122.602 165.865C124.448 165.864 125.944 164.368 125.944 162.523Z" fill="#FF4933" stroke="#263238" stroke-miterlimit="10"/>
<path d="M90.0207 165.865C91.8664 165.865 93.3627 164.369 93.3627 162.523C93.3627 160.677 91.8664 159.181 90.0207 159.181C88.175 159.181 86.6787 160.677 86.6787 162.523C86.6787 164.369 88.175 165.865 90.0207 165.865Z" fill="white" stroke="#263238" stroke-miterlimit="10"/>
<path d="M76.5 0.5H83.5" stroke="#263238" stroke-miterlimit="10" stroke-linecap="round" stroke-linejoin="round"/>
<path d="M28 0.5H68.5" stroke="#263238" stroke-miterlimit="10" stroke-linecap="round" stroke-linejoin="round"/>
<path d="M0.5 165V170" stroke="#263238" stroke-miterlimit="10" stroke-linecap="round" stroke-linejoin="round"/>
<path d="M0.5 149.5V160" stroke="#263238" stroke-miterlimit="10" stroke-linecap="round" stroke-linejoin="round"/>
</svg>
