<svg width="40" height="40" viewBox="0 0 40 40" fill="none" xmlns="http://www.w3.org/2000/svg">
<rect width="40" height="40" rx="20" fill="white"/>
<rect width="40" height="40" rx="20" fill="url(#paint0_linear_61_16186)"/>
<path d="M32.2016 12.9993C31.3033 13.4077 30.3349 13.676 29.3316 13.8043C30.3583 13.186 31.1516 12.206 31.5249 11.0277C30.5566 11.611 29.4833 12.0193 28.3516 12.2527C27.4299 11.2493 26.1349 10.666 24.6649 10.666C21.9233 10.666 19.6833 12.906 19.6833 15.671C19.6833 16.0677 19.7299 16.4527 19.8116 16.8143C15.6583 16.6043 11.9599 14.6093 9.49826 11.5877C9.06659 12.3227 8.82159 13.186 8.82159 14.096C8.82159 15.8343 9.69659 17.3743 11.0499 18.2493C10.2216 18.2493 9.45159 18.016 8.77492 17.666V17.701C8.77492 20.1277 10.5016 22.1577 12.7883 22.6127C12.0541 22.8136 11.2834 22.8415 10.5366 22.6944C10.8535 23.6889 11.474 24.5592 12.3111 25.1828C13.1482 25.8064 14.1596 26.152 15.2033 26.171C13.4342 27.5715 11.2413 28.3286 8.98492 28.3177C8.58826 28.3177 8.19159 28.2943 7.79492 28.2477C10.0116 29.671 12.6483 30.4994 15.4716 30.4994C24.6649 30.4994 29.7166 22.8693 29.7166 16.2543C29.7166 16.0327 29.7166 15.8227 29.7049 15.601C30.6849 14.901 31.5249 14.0143 32.2016 12.9993Z" fill="white"/>
<defs>
<linearGradient id="paint0_linear_61_16186" x1="0" y1="20" x2="40" y2="20" gradientUnits="userSpaceOnUse">
<stop stop-color="#FF3934"/>
<stop offset="1" stop-color="#FF7033"/>
</linearGradient>
</defs>
</svg>
