<svg width="469" height="500" viewBox="0 0 469 500" fill="none" xmlns="http://www.w3.org/2000/svg">
<g clip-path="url(#clip0_388_25414)">
<g clip-path="url(#clip1_388_25414)">
<path d="M250 453.645C355.433 453.645 440.904 450.041 440.904 445.595C440.904 441.149 355.433 437.545 250 437.545C144.566 437.545 59.0957 441.149 59.0957 445.595C59.0957 450.041 144.566 453.645 250 453.645Z" fill="#FFCBC5"/>
<path opacity="0.29" d="M387.198 404.793C401.781 397.03 416.443 389.026 428.463 378.154C447.323 361.095 458.714 337.21 459.601 312.866C460.487 288.523 450.859 263.987 433.283 245.801C424.955 237.184 414.848 229.836 408.559 219.856C401.446 208.568 399.963 195.136 396.661 182.442C391.578 162.901 381.823 144.406 368.292 128.651C350.437 107.861 325.469 91.7508 297.345 86.1788C269.222 80.6068 238.071 86.3618 216.264 103.655C197.657 118.411 186.979 139.997 169.646 156.018C159.017 165.842 145.959 173.42 131.753 178.008C111.687 184.488 87.2747 185.601 70.4857 198.559C53.4347 211.72 44.7657 232.672 41.7177 252.48C35.3347 293.962 51.7197 336.339 79.5997 368.679C100.07 392.423 123.319 411.489 154.897 420.021C191.107 429.805 230.117 426.364 267.18 426.819C308.435 427.325 350.339 424.414 387.198 404.793Z" fill="#FFCBC5"/>
<path d="M188.272 285.075C188.19 285.053 188.106 285.075 188.046 285.127C186.51 286.466 185.082 287.889 183.698 289.342C183.003 290.067 182.338 290.812 181.655 291.549C180.989 292.295 180.347 293.057 179.691 293.812C177.11 296.858 174.664 300.005 172.369 303.251C167.773 309.738 163.702 316.576 160.099 323.674C159.212 325.456 158.355 327.254 157.502 329.054C156.661 330.86 155.9 332.709 155.12 334.546C154.727 335.464 154.356 336.39 153.976 337.314C153.621 338.25 153.27 339.188 152.938 340.133C152.284 342.028 151.647 343.923 151.166 345.88C150.699 347.844 150.312 349.83 150.004 351.833L149.79 353.338L149.663 354.872C149.597 355.899 149.541 356.926 149.522 357.959C149.493 358.989 149.507 360.027 149.533 361.063C149.548 362.094 149.691 363.163 149.822 364.216C150.109 366.33 150.503 368.445 151.221 370.586C151.269 370.728 151.423 370.805 151.565 370.757C151.607 370.743 151.643 370.72 151.672 370.691L151.681 370.682C153.295 369.036 154.585 367.365 155.767 365.692C156.907 364.013 158.067 362.356 159.09 360.678C159.607 359.841 160.087 358.997 160.557 358.154L161.237 356.884L161.94 355.619C162.854 353.927 163.689 352.219 164.444 350.489C165.213 348.762 165.997 347.033 166.67 345.27C167.013 344.39 167.337 343.504 167.656 342.615C168.001 341.733 168.363 340.858 168.698 339.972L169.719 337.319C170.057 336.433 170.364 335.537 170.732 334.659C171.432 332.892 172.13 331.122 172.797 329.338C175.571 322.238 178.319 315.078 180.984 307.799C182.331 304.167 183.608 300.479 184.881 296.765C186.128 293.033 187.369 289.283 188.442 285.377L188.443 285.374C188.479 285.246 188.402 285.111 188.272 285.075Z" fill="#3E8F7D"/>
<path d="M149.332 307.256C148.13 300.775 146.504 294.343 144.375 287.993C143.845 286.406 143.279 284.824 142.669 283.249C142.37 282.461 142.056 281.676 141.736 280.891L140.733 278.545C139.345 275.427 137.844 272.329 135.915 269.319C135.838 269.2 135.68 269.165 135.56 269.241C135.505 269.276 135.468 269.329 135.452 269.387L135.451 269.39C134.483 272.819 133.851 276.174 133.308 279.512C132.765 282.849 132.373 286.156 132.064 289.449C131.457 296.032 131.234 302.546 131.298 309.025C131.326 312.265 131.437 315.494 131.608 318.716C131.701 320.327 131.847 321.933 132.052 323.534C132.242 325.136 132.486 326.735 132.792 328.329C133.408 331.517 134.208 334.693 135.341 337.854C136.494 341.014 137.812 344.168 139.919 347.291C141.17 349.144 143.686 349.633 145.539 348.382C146.113 347.995 146.556 347.486 146.857 346.913L146.877 346.873C147.757 345.184 148.344 343.508 148.897 341.832C149.425 340.157 149.853 338.486 150.182 336.82C150.839 333.487 151.2 330.167 151.276 326.867C151.374 323.565 151.213 320.28 150.832 317.015C150.441 313.749 149.924 310.498 149.332 307.256Z" fill="#276B5B"/>
<path d="M128.489 357.524C128.407 356.927 128.307 356.331 128.186 355.748C128.047 355.171 127.919 354.589 127.757 354.019C127.448 352.875 127.11 351.732 126.677 350.637C125.816 348.442 124.763 346.326 123.601 344.281C121.275 340.187 118.456 336.366 115.066 332.958C114.21 332.11 113.321 331.287 112.411 330.484C111.472 329.695 110.521 328.924 109.512 328.195C107.474 326.752 105.336 325.388 102.783 324.383C102.637 324.325 102.471 324.397 102.413 324.544C102.401 324.574 102.395 324.605 102.393 324.636V324.645C102.282 327.362 102.459 329.802 102.672 332.2C102.791 333.389 102.925 334.562 103.096 335.703C103.256 336.852 103.44 337.98 103.651 339.085C104.475 343.52 105.564 347.708 106.868 351.743C107.184 352.755 107.549 353.747 107.888 354.742C108.215 355.742 108.588 356.721 109.001 357.684C109.416 358.647 109.817 359.606 110.307 360.539C110.783 361.477 111.312 362.397 111.845 363.313C112.389 364.228 112.984 365.13 113.651 366.018C114.284 366.911 114.963 367.797 115.726 368.672C117.315 370.412 118.88 372.166 121.294 373.839L121.403 373.914C123.002 375.022 125.197 374.624 126.305 373.025C126.391 372.901 126.477 372.755 126.545 372.624C127.224 371.297 127.627 370.008 127.991 368.711C128.147 368.069 128.317 367.419 128.434 366.779C128.535 366.146 128.618 365.514 128.679 364.886C128.8 363.63 128.854 362.378 128.831 361.145C128.782 359.922 128.661 358.717 128.489 357.524Z" fill="#276B5B"/>
<path d="M188.496 284.854C188.277 284.716 187.987 284.782 187.849 285.001C185.278 289.08 182.86 293.231 180.496 297.421C178.137 301.612 175.861 305.848 173.667 310.128C171.474 314.408 169.366 318.732 167.347 323.098C165.323 327.462 163.396 331.872 161.594 336.335C159.785 340.794 158.071 345.296 156.535 349.861C154.989 354.422 153.557 359.026 152.369 363.701C149.942 373.026 148.311 382.62 148.212 392.325V392.329C148.21 392.757 148.555 393.105 148.983 393.107C149.411 393.109 149.759 392.764 149.761 392.336V392.324C149.808 382.803 151.362 373.306 153.722 364.047C154.875 359.406 156.273 354.824 157.786 350.283C159.289 345.737 160.97 341.249 162.748 336.8C164.519 332.348 166.415 327.944 168.409 323.585C170.398 319.224 172.477 314.902 174.641 310.623C176.806 306.345 179.054 302.107 181.384 297.916C183.717 293.729 186.114 289.566 188.642 285.506L188.646 285.5C188.781 285.28 188.715 284.992 188.496 284.854Z" fill="#276B5B"/>
<path d="M144.32 351.715L143.798 343.445L143.532 339.311L143.221 335.18C142.421 324.161 141.423 313.158 140.256 302.173C139.087 291.187 137.771 280.222 136.147 269.284C136.11 269.027 135.872 268.851 135.616 268.888C135.359 268.925 135.181 269.163 135.218 269.42L135.219 269.427C136.789 280.34 138.055 291.31 139.172 302.286C140.288 313.264 141.235 324.26 141.983 335.269L142.275 339.397L142.522 343.527L143.005 351.788C143.258 357.299 143.566 362.808 143.726 368.322C144.166 379.347 144.279 390.38 144.32 401.41V401.419V401.423C144.324 401.849 144.672 402.192 145.098 402.188C145.524 402.184 145.867 401.836 145.863 401.41C145.772 390.359 145.608 379.308 145.117 368.269C144.932 362.747 144.599 357.232 144.32 351.715Z" fill="#3E8F7D"/>
<path d="M125.2 374.077C123.809 368.116 121.932 362.293 119.726 356.614C117.509 350.937 114.978 345.395 112.178 339.997C109.371 334.6 106.359 329.326 102.978 324.251C102.837 324.039 102.552 323.978 102.336 324.115C102.117 324.254 102.052 324.544 102.191 324.763L102.199 324.775C105.427 329.858 108.319 335.188 110.984 340.6C113.646 346.019 116.034 351.568 118.102 357.227C120.16 362.888 121.881 368.667 123.116 374.538C123.73 377.474 124.195 380.434 124.544 383.401C124.86 386.372 125.014 389.352 125.007 392.326V392.354C125.007 392.361 125.007 392.368 125.007 392.375C125.021 393.075 125.599 393.632 126.299 393.618C126.999 393.604 127.556 393.026 127.542 392.326C127.482 389.24 127.254 386.167 126.862 383.12C126.435 380.077 125.892 377.058 125.2 374.077Z" fill="#3E8F7D"/>
<path d="M141.145 344.359C140.965 343.262 140.729 342.182 140.486 341.102L140.09 339.491C139.946 338.957 139.784 338.431 139.628 337.902C136.849 329.523 133.111 321.524 128.872 313.871C124.579 306.241 119.691 298.978 114.137 292.254C111.368 288.888 108.434 285.656 105.319 282.595C103.77 281.059 102.159 279.576 100.504 278.143C98.8502 276.709 97.1362 275.332 95.3082 274.075C95.1972 273.998 95.0442 274.027 94.9672 274.138C94.9202 274.206 94.9122 274.29 94.9392 274.363L94.9422 274.37C96.5062 278.466 98.0922 282.435 99.6632 286.377L104.321 298.094C107.398 305.841 110.355 313.513 113.191 321.148C114.59 324.974 115.949 328.793 117.276 332.608C117.913 334.523 118.589 336.424 119.202 338.34L120.143 341.206L120.609 342.637L121.114 344.055L122.198 346.867L122.785 348.26C122.992 348.721 123.209 349.181 123.408 349.644C124.221 351.494 125.199 353.308 126.195 355.13C126.712 356.036 127.259 356.94 127.838 357.841C128.401 358.745 129.001 359.646 129.65 360.543C130.999 362.328 132.305 364.142 134.17 365.9L134.238 365.964C135.528 367.179 137.558 367.119 138.773 365.829C139.03 365.557 139.234 365.239 139.377 364.914C139.896 363.728 140.25 362.56 140.571 361.391C140.887 360.222 141.131 359.058 141.299 357.906C141.471 356.752 141.594 355.602 141.681 354.454C141.759 353.309 141.755 352.18 141.749 351.046C141.732 348.777 141.474 346.563 141.145 344.359Z" fill="#3E8F7D"/>
<path d="M135.151 353.953C134.815 352.631 134.423 351.324 134.062 350.009L133.509 348.04L132.902 346.087C131.33 340.864 129.476 335.733 127.489 330.661C125.506 325.585 123.306 320.598 120.953 315.687C118.601 310.776 116.09 305.942 113.422 301.198C110.754 296.453 107.93 291.798 104.956 287.24C103.474 284.958 101.942 282.708 100.372 280.485C98.7969 278.263 97.1959 276.07 95.4899 273.927C95.3299 273.726 95.0369 273.691 94.8339 273.849C94.6299 274.008 94.5929 274.303 94.7529 274.508L94.7589 274.516C96.4139 276.638 97.9939 278.848 99.5359 281.07C101.076 283.297 102.578 285.552 104.031 287.837C106.946 292.403 109.71 297.064 112.317 301.811C114.924 306.558 117.374 311.39 119.663 316.296C121.953 321.2 124.09 326.177 126.008 331.236C127.93 336.292 129.719 341.4 131.225 346.592L131.807 348.534L132.335 350.491C132.68 351.797 133.055 353.096 133.375 354.408C133.998 357.037 134.652 359.658 135.157 362.311C137.365 372.884 138.443 383.674 138.463 394.446V394.461V394.472C138.47 395.091 138.978 395.586 139.596 395.579C140.215 395.572 140.71 395.064 140.703 394.446C140.574 383.504 139.369 372.585 137.031 361.919C136.493 359.242 135.807 356.601 135.151 353.953Z" fill="#276B5B"/>
<path d="M123.968 419.929H155.015L159.71 385.548H119.273L123.968 419.929Z" fill="#9AB4EF"/>
<path d="M121.323 421.482H157.662L158.131 418.086H120.854L121.323 421.482Z" fill="#9AB4EF"/>
<path d="M208.866 130.149V115.454H201.18V130.149H194.285L205.023 140.885L215.761 130.149H208.866Z" fill="#FF4933"/>
<path d="M222.147 147.121H187.899V139.451H190.695V144.324H219.351V139.451H222.147V147.121Z" fill="#FF4933"/>
<path d="M169.338 157.534H140.621C139.471 157.534 138.538 156.602 138.538 155.451V128.215C138.538 127.065 139.471 126.132 140.621 126.132H169.338C170.488 126.132 171.421 127.064 171.421 128.215V155.451C171.421 156.602 170.488 157.534 169.338 157.534Z" fill="#FFCBC5"/>
<path d="M140.621 157.534H169.338C170.488 157.534 171.421 156.602 171.421 155.451V150.219L167.925 145.724C166.662 144.1 164.209 144.098 162.944 145.719L161.017 148.187C160.01 149.477 158.093 149.573 156.963 148.39L150.786 141.929C149.467 140.549 147.235 140.646 146.041 142.135L138.539 151.487V155.45C138.538 156.602 139.471 157.534 140.621 157.534Z" fill="#FF4933"/>
<path d="M162.095 135.84C162.095 137.529 160.726 138.898 159.037 138.898C157.348 138.898 155.978 137.529 155.978 135.84C155.978 134.151 157.347 132.781 159.037 132.781C160.726 132.782 162.095 134.151 162.095 135.84Z" fill="#FF4933"/>
<path d="M329.384 135.526H287.933C286.767 135.526 285.822 134.581 285.822 133.415V104.154C285.822 102.988 286.767 102.043 287.933 102.043H329.384C330.55 102.043 331.495 102.988 331.495 104.154V133.415C331.495 134.581 330.55 135.526 329.384 135.526Z" fill="#FFCBC5"/>
<path d="M303.657 113.375V124.093C303.657 124.537 304.128 124.823 304.522 124.618L316.198 118.551C316.648 118.317 316.615 117.663 316.144 117.476L304.468 112.824C304.079 112.67 303.657 112.956 303.657 113.375Z" fill="#FF4933"/>
<path d="M266.737 95.8528H229.366V120.36H266.737V95.8528Z" fill="#FF4933"/>
<path d="M266.099 126.555H229.672C228.584 126.555 227.703 125.673 227.703 124.586V99.4849C227.703 98.3969 228.584 97.5159 229.672 97.5159H237.514C238.4 97.5159 239.178 98.1079 239.413 98.9629L240.502 101.421C240.737 102.276 241.514 102.868 242.401 102.868H266.101C267.189 102.868 268.07 103.75 268.07 104.837V124.587C268.068 125.674 267.186 126.555 266.099 126.555Z" fill="#FFCBC5"/>
<path d="M198.794 87.7348C198.794 100.079 188.787 110.085 176.444 110.085C164.101 110.085 154.094 100.078 154.094 87.7348C154.094 75.3908 164.101 65.3848 176.444 65.3848C188.787 65.3848 198.794 75.3918 198.794 87.7348Z" fill="#FFCBC5"/>
<path d="M183.306 82.6677C183.306 86.4577 180.234 89.5307 176.444 89.5307C172.654 89.5307 169.582 86.4577 169.582 82.6677C169.582 78.8777 172.654 75.8057 176.444 75.8057C180.234 75.8057 183.306 78.8777 183.306 82.6677Z" fill="#FF4933"/>
<path d="M176.443 110.086C180.833 110.086 184.926 108.82 188.379 106.634C187.87 100.633 185.696 89.8698 176.656 89.5408V89.5298C176.584 89.5298 176.515 89.5338 176.443 89.5348C176.372 89.5338 176.303 89.5298 176.23 89.5298V89.5408C167.189 89.8698 165.015 100.633 164.507 106.634C167.961 108.819 172.054 110.086 176.443 110.086Z" fill="#FF4933"/>
<path d="M311.237 71.7388H292.524V60.1668C292.524 55.0078 296.721 50.8108 301.88 50.8108C307.039 50.8108 311.237 55.0078 311.237 60.1668V71.7388ZM296.281 67.9828H307.482V60.1668C307.482 57.0788 304.97 54.5668 301.882 54.5668C298.794 54.5668 296.282 57.0788 296.282 60.1668L296.281 67.9828Z" fill="#FF4933"/>
<path d="M301.881 90.7707C294.552 90.7707 288.611 84.8297 288.611 77.5007V67.6457C288.611 65.7597 290.14 64.2307 292.025 64.2307H311.736C313.622 64.2307 315.15 65.7597 315.15 67.6457V77.5007C315.15 84.8287 309.209 90.7707 301.881 90.7707Z" fill="#FFCBC5"/>
<path d="M305.442 74.0559C305.442 72.0889 303.847 70.4949 301.881 70.4949C299.915 70.4949 298.32 72.0889 298.32 74.0559C298.32 75.6059 299.312 76.9219 300.695 77.4109L298.636 83.2359H301.881H305.126L303.067 77.4109C304.449 76.9209 305.442 75.6059 305.442 74.0559Z" fill="#FF4933"/>
<path d="M396.807 164.701H365.065V204.603H396.807V164.701Z" fill="#FFCBC5"/>
<path d="M392.55 172.073H370V173.499H392.55V172.073Z" fill="#FF4933"/>
<path d="M392.55 176H370V177.426H392.55V176Z" fill="#FF4933"/>
<path d="M392.55 180H370V181.426H392.55V180Z" fill="#FF4933"/>
<path d="M392.55 184H370V185.426H392.55V184Z" fill="#FF4933"/>
<path d="M392.55 188H370V189.426H392.55V188Z" fill="#FF4933"/>
<path d="M392.55 192H370V193.426H392.55V192Z" fill="#FF4933"/>
<path d="M368.401 165.921C368.055 165.921 367.775 165.641 367.775 165.295V164.108C367.775 163.762 368.056 163.482 368.401 163.482C368.747 163.482 369.027 163.762 369.027 164.108V165.295C369.028 165.64 368.747 165.921 368.401 165.921Z" fill="#FF4933"/>
<path d="M371.535 165.921C371.189 165.921 370.909 165.641 370.909 165.295V164.108C370.909 163.762 371.189 163.482 371.535 163.482C371.881 163.482 372.161 163.762 372.161 164.108V165.295C372.161 165.64 371.881 165.921 371.535 165.921Z" fill="#FF4933"/>
<path d="M374.669 165.921C374.323 165.921 374.043 165.641 374.043 165.295V164.108C374.043 163.762 374.323 163.482 374.669 163.482C375.015 163.482 375.295 163.762 375.295 164.108V165.295C375.295 165.64 375.014 165.921 374.669 165.921Z" fill="#FF4933"/>
<path d="M377.803 165.921C377.457 165.921 377.177 165.641 377.177 165.295V164.108C377.177 163.762 377.457 163.482 377.803 163.482C378.149 163.482 378.429 163.762 378.429 164.108V165.295C378.429 165.64 378.149 165.921 377.803 165.921Z" fill="#FF4933"/>
<path d="M380.937 165.921C380.591 165.921 380.311 165.641 380.311 165.295V164.108C380.311 163.762 380.591 163.482 380.937 163.482C381.283 163.482 381.563 163.762 381.563 164.108V165.295C381.563 165.64 381.283 165.921 380.937 165.921Z" fill="#FF4933"/>
<path d="M384.069 165.921C383.723 165.921 383.443 165.641 383.443 165.295V164.108C383.443 163.762 383.723 163.482 384.069 163.482C384.415 163.482 384.695 163.762 384.695 164.108V165.295C384.696 165.64 384.415 165.921 384.069 165.921Z" fill="#FF4933"/>
<path d="M387.203 165.921C386.857 165.921 386.577 165.641 386.577 165.295V164.108C386.577 163.762 386.857 163.482 387.203 163.482C387.549 163.482 387.829 163.762 387.829 164.108V165.295C387.829 165.64 387.549 165.921 387.203 165.921Z" fill="#FF4933"/>
<path d="M390.336 165.921C389.99 165.921 389.71 165.641 389.71 165.295V164.108C389.71 163.762 389.99 163.482 390.336 163.482C390.682 163.482 390.962 163.762 390.962 164.108V165.295C390.963 165.64 390.682 165.921 390.336 165.921Z" fill="#FF4933"/>
<path d="M393.471 165.921C393.125 165.921 392.845 165.641 392.845 165.295V164.108C392.845 163.762 393.126 163.482 393.471 163.482C393.817 163.482 394.097 163.762 394.097 164.108V165.295C394.097 165.64 393.817 165.921 393.471 165.921Z" fill="#FF4933"/>
<path d="M84.9065 235.376H125.009C130.17 235.376 134.354 239.559 134.354 244.72C134.354 249.881 130.169 254.065 125.009 254.065H100.047C96.7405 262.192 86.6205 261.747 86.6205 261.747C90.7355 260.087 91.5625 256.131 91.7055 254.065H84.9065C79.7455 254.065 75.5625 249.881 75.5625 244.72C75.5625 239.559 79.7455 235.376 84.9065 235.376Z" fill="#FFCBC5"/>
<path d="M113 244.666C113 246.1 114.163 247.263 115.597 247.263C117.031 247.263 118.194 246.1 118.194 244.666C118.194 243.232 117.031 242.069 115.597 242.069C114.163 242.069 113 243.232 113 244.666Z" fill="#FF4933"/>
<path d="M102.361 244.666C102.361 246.1 103.524 247.263 104.958 247.263C106.392 247.263 107.555 246.1 107.555 244.666C107.555 243.232 106.392 242.069 104.958 242.069C103.524 242.069 102.361 243.232 102.361 244.666Z" fill="#FF4933"/>
<path d="M91.7227 244.666C91.7227 246.1 92.8857 247.263 94.3197 247.263C95.7537 247.263 96.9167 246.1 96.9167 244.666C96.9167 243.232 95.7537 242.069 94.3197 242.069C92.8857 242.069 91.7227 243.232 91.7227 244.666Z" fill="#FF4933"/>
<path d="M358.236 81.4119V78.7539L354.888 77.8239C354.702 77.1309 354.43 76.4739 354.086 75.8629L355.79 72.8479L353.911 70.9689L350.913 72.6639C350.295 72.3079 349.628 72.0279 348.925 71.8359L348.005 68.5229H345.347L344.426 71.8359C343.723 72.0279 343.056 72.3079 342.438 72.6639L339.44 70.9689L337.561 72.8479L339.265 75.8629C338.92 76.4739 338.649 77.1309 338.462 77.8239L335.114 78.7539V81.4119L338.488 82.3489C338.678 83.0229 338.949 83.6629 339.29 84.2589L337.561 87.3179L339.44 89.1969L342.517 87.4579C343.105 87.7879 343.736 88.0499 344.4 88.2339L345.347 91.6429H348.005L348.952 88.2339C349.616 88.0499 350.247 87.7879 350.835 87.4579L353.912 89.1969L355.791 87.3179L354.062 84.2589C354.403 83.6639 354.674 83.0239 354.864 82.3489L358.236 81.4119ZM346.675 85.0879C343.886 85.0879 341.625 82.8269 341.625 80.0379C341.625 77.2489 343.886 74.9879 346.675 74.9879C349.464 74.9879 351.725 77.2489 351.725 80.0379C351.725 82.8269 349.464 85.0879 346.675 85.0879Z" fill="#FFCBC5"/>
<path d="M150.658 200.091C150.658 205.68 146.127 210.211 140.538 210.211C134.949 210.211 130.418 205.68 130.418 200.091C130.418 194.502 134.949 189.971 140.538 189.971C146.127 189.971 150.658 194.502 150.658 200.091Z" fill="#FFCBC5"/>
<path d="M146.996 196.966C148.036 196.764 149.001 196.502 149.877 196.192C149.665 195.685 149.406 195.204 149.118 194.744C148.601 194.918 148.055 195.079 147.466 195.215C147.53 195.038 147.597 194.867 147.667 194.704C147.866 194.246 148.076 193.883 148.289 193.592C147.939 193.175 147.554 192.791 147.142 192.435C146.803 192.859 146.479 193.388 146.187 194.06C145.988 194.518 145.815 195.019 145.667 195.553C144.304 195.758 142.837 195.869 141.344 195.871V190.012C141.077 189.991 140.809 189.972 140.537 189.972C140.265 189.972 139.997 189.991 139.73 190.012V195.831C138.267 195.757 136.856 195.581 135.576 195.314C135.444 194.869 135.293 194.449 135.124 194.06C134.802 193.321 134.442 192.754 134.067 192.313C133.651 192.659 133.269 193.043 132.914 193.45C133.212 193.822 133.474 194.288 133.695 194.826C133.388 194.728 133.094 194.625 132.815 194.515C132.636 194.444 132.45 194.355 132.266 194.272C131.954 194.715 131.68 195.185 131.441 195.677C131.687 195.793 131.944 195.908 132.223 196.018C132.847 196.264 133.528 196.48 134.251 196.667C134.437 197.525 134.554 198.453 134.598 199.386H130.451C130.435 199.62 130.415 199.854 130.415 200.092C130.415 200.399 130.434 200.7 130.461 201H134.602C134.555 202.128 134.406 203.213 134.17 204.175C133.476 204.357 132.823 204.567 132.222 204.804C132.041 204.875 131.869 204.949 131.702 205.023C131.971 205.504 132.279 205.959 132.621 206.388C132.685 206.361 132.751 206.331 132.814 206.306C133.039 206.218 133.275 206.134 133.518 206.053C133.362 206.376 133.2 206.643 133.037 206.869C133.402 207.272 133.793 207.649 134.217 207.989C134.538 207.575 134.845 207.065 135.123 206.426C135.246 206.144 135.358 205.844 135.462 205.531C136.772 205.251 138.222 205.066 139.729 204.989V210.17C139.996 210.191 140.264 210.211 140.536 210.211C140.809 210.211 141.076 210.191 141.343 210.17V204.949C142.873 204.951 144.376 205.068 145.768 205.282C145.892 205.686 146.031 206.069 146.186 206.425C146.439 207.005 146.715 207.48 147.003 207.873C147.423 207.523 147.809 207.135 148.168 206.723C147.96 206.408 147.772 206.044 147.607 205.64C148.013 205.737 148.397 205.846 148.769 205.961C149.09 205.512 149.372 205.036 149.617 204.536C148.831 204.272 147.979 204.047 147.069 203.867C146.87 202.965 146.748 201.983 146.707 200.998H150.61C150.637 200.699 150.656 200.397 150.656 200.09C150.656 199.852 150.637 199.618 150.62 199.384H146.71C146.752 198.542 146.848 197.725 146.996 196.966ZM139.731 203.372C138.396 203.435 137.11 203.577 135.91 203.793C136.079 202.916 136.184 201.975 136.22 200.999H139.73V203.372H139.731ZM139.731 199.385H136.217C136.183 198.572 136.1 197.784 135.973 197.037C137.155 197.247 138.419 197.386 139.731 197.447V199.385ZM141.345 197.485C142.714 197.483 144.046 197.397 145.306 197.236C145.197 197.923 145.126 198.643 145.095 199.384H141.344V197.485H141.345ZM141.345 203.334V200.998H145.093C145.126 201.899 145.217 202.771 145.364 203.589C144.086 203.424 142.734 203.336 141.345 203.334Z" fill="#FF4933"/>
<path d="M354.215 252.906C354.215 253.376 353.834 253.757 353.364 253.757C352.894 253.757 352.514 253.376 352.514 252.906C352.514 252.436 352.895 252.055 353.364 252.055C353.834 252.056 354.215 252.437 354.215 252.906Z" fill="#FFCBC5"/>
<path d="M354.215 246.783C354.215 247.253 353.834 247.634 353.364 247.634C352.894 247.634 352.514 247.253 352.514 246.783C352.514 246.313 352.895 245.932 353.364 245.932C353.834 245.932 354.215 246.313 354.215 246.783Z" fill="#FFCBC5"/>
<path d="M354.215 240.659C354.215 241.129 353.834 241.509 353.364 241.509C352.894 241.509 352.514 241.128 352.514 240.659C352.514 240.189 352.895 239.809 353.364 239.809C353.834 239.809 354.215 240.19 354.215 240.659Z" fill="#FFCBC5"/>
<path d="M354.215 234.536C354.215 235.005 353.834 235.387 353.364 235.387C352.894 235.387 352.514 235.006 352.514 234.536C352.514 234.066 352.895 233.685 353.364 233.685C353.834 233.685 354.215 234.066 354.215 234.536Z" fill="#FFCBC5"/>
<path d="M354.215 228.412C354.215 228.882 353.834 229.263 353.364 229.263C352.894 229.263 352.514 228.882 352.514 228.412C352.514 227.942 352.895 227.561 353.364 227.561C353.834 227.562 354.215 227.943 354.215 228.412Z" fill="#FFCBC5"/>
<path d="M354.215 222.289C354.215 222.759 353.834 223.14 353.364 223.14C352.894 223.14 352.514 222.759 352.514 222.289C352.514 221.819 352.895 221.438 353.364 221.438C353.834 221.438 354.215 221.819 354.215 222.289Z" fill="#FFCBC5"/>
<path d="M354.215 216.165C354.215 216.635 353.834 217.016 353.364 217.016C352.894 217.016 352.514 216.635 352.514 216.165C352.514 215.695 352.895 215.315 353.364 215.315C353.834 215.315 354.215 215.696 354.215 216.165Z" fill="#FFCBC5"/>
<path d="M354.215 210.042C354.215 210.511 353.834 210.893 353.364 210.893C352.894 210.893 352.514 210.512 352.514 210.042C352.514 209.572 352.895 209.192 353.364 209.192C353.834 209.192 354.215 209.572 354.215 210.042Z" fill="#FFCBC5"/>
<path d="M354.215 203.918C354.215 204.388 353.834 204.769 353.364 204.769C352.894 204.769 352.514 204.388 352.514 203.918C352.514 203.448 352.895 203.068 353.364 203.068C353.834 203.068 354.215 203.449 354.215 203.918Z" fill="#FFCBC5"/>
<path d="M354.215 197.795C354.215 198.265 353.834 198.646 353.364 198.646C352.894 198.646 352.514 198.265 352.514 197.795C352.514 197.325 352.895 196.944 353.364 196.944C353.834 196.944 354.215 197.325 354.215 197.795Z" fill="#FFCBC5"/>
<path d="M354.215 191.671C354.215 192.141 353.834 192.522 353.364 192.522C352.894 192.522 352.514 192.141 352.514 191.671C352.514 191.202 352.895 190.821 353.364 190.821C353.834 190.821 354.215 191.202 354.215 191.671Z" fill="#FFCBC5"/>
<path d="M354.215 185.548C354.215 186.017 353.834 186.398 353.364 186.398C352.894 186.398 352.514 186.017 352.514 185.548C352.514 185.078 352.895 184.697 353.364 184.697C353.834 184.698 354.215 185.078 354.215 185.548Z" fill="#FFCBC5"/>
<path d="M354.215 179.425C354.215 179.895 353.834 180.275 353.364 180.275C352.894 180.275 352.514 179.894 352.514 179.425C352.514 178.955 352.895 178.574 353.364 178.574C353.834 178.574 354.215 178.955 354.215 179.425Z" fill="#FFCBC5"/>
<path d="M354.215 173.301C354.215 173.771 353.834 174.152 353.364 174.152C352.894 174.152 352.514 173.771 352.514 173.301C352.514 172.831 352.895 172.451 353.364 172.451C353.834 172.451 354.215 172.831 354.215 173.301Z" fill="#FFCBC5"/>
<path d="M354.215 167.178C354.215 167.647 353.834 168.029 353.364 168.029C352.894 168.029 352.514 167.648 352.514 167.178C352.514 166.708 352.895 166.327 353.364 166.327C353.834 166.327 354.215 166.708 354.215 167.178Z" fill="#FFCBC5"/>
<path d="M354.215 161.054C354.215 161.524 353.834 161.905 353.364 161.905C352.894 161.905 352.514 161.524 352.514 161.054C352.514 160.584 352.895 160.204 353.364 160.204C353.834 160.204 354.215 160.584 354.215 161.054Z" fill="#FFCBC5"/>
<path d="M354.215 154.931C354.215 155.401 353.834 155.782 353.364 155.782C352.894 155.782 352.514 155.401 352.514 154.931C352.514 154.461 352.895 154.08 353.364 154.08C353.834 154.08 354.215 154.461 354.215 154.931Z" fill="#FFCBC5"/>
<path d="M354.215 148.807C354.215 149.277 353.834 149.657 353.364 149.657C352.894 149.657 352.514 149.276 352.514 148.807C352.514 148.337 352.895 147.957 353.364 147.957C353.834 147.957 354.215 148.337 354.215 148.807Z" fill="#FFCBC5"/>
<path d="M354.215 142.684C354.215 143.154 353.834 143.535 353.364 143.535C352.894 143.535 352.514 143.154 352.514 142.684C352.514 142.214 352.895 141.834 353.364 141.834C353.834 141.833 354.215 142.214 354.215 142.684Z" fill="#FFCBC5"/>
<path d="M354.215 136.56C354.215 137.03 353.834 137.411 353.364 137.411C352.894 137.411 352.514 137.03 352.514 136.56C352.514 136.091 352.895 135.71 353.364 135.71C353.834 135.71 354.215 136.09 354.215 136.56Z" fill="#FFCBC5"/>
<path d="M354.215 130.437C354.215 130.907 353.834 131.288 353.364 131.288C352.894 131.288 352.514 130.907 352.514 130.437C352.514 129.967 352.895 129.586 353.364 129.586C353.834 129.586 354.215 129.967 354.215 130.437Z" fill="#FFCBC5"/>
<path d="M352.375 124.707C352.375 125.177 351.994 125.558 351.525 125.558C351.056 125.558 350.674 125.177 350.674 124.707C350.674 124.237 351.055 123.857 351.525 123.857C351.994 123.856 352.375 124.237 352.375 124.707Z" fill="#FFCBC5"/>
<path d="M347.525 121.272C347.525 121.742 347.144 122.123 346.675 122.123C346.205 122.123 345.824 121.742 345.824 121.272C345.824 120.802 346.205 120.422 346.675 120.422C347.145 120.422 347.525 120.802 347.525 121.272Z" fill="#FFCBC5"/>
<path d="M341.508 120.486C341.508 120.956 341.127 121.337 340.657 121.337C340.187 121.337 339.806 120.956 339.806 120.486C339.806 120.016 340.187 119.636 340.657 119.636C341.127 119.636 341.508 120.017 341.508 120.486Z" fill="#FFCBC5"/>
<path d="M335.384 120.486C335.384 120.956 335.003 121.337 334.533 121.337C334.063 121.337 333.682 120.956 333.682 120.486C333.682 120.016 334.063 119.636 334.533 119.636C335.003 119.636 335.384 120.017 335.384 120.486Z" fill="#FFCBC5"/>
<path d="M149.014 88.5509C149.014 89.0209 148.632 89.4019 148.162 89.4019C147.692 89.4019 147.312 89.0209 147.312 88.5509C147.312 88.0809 147.693 87.7009 148.162 87.7009C148.632 87.7009 149.014 88.0819 149.014 88.5509Z" fill="#FFCBC5"/>
<path d="M142.89 88.5509C142.89 89.0209 142.509 89.4019 142.039 89.4019C141.569 89.4019 141.189 89.0209 141.189 88.5509C141.189 88.0809 141.57 87.7009 142.039 87.7009C142.509 87.7009 142.89 88.0819 142.89 88.5509Z" fill="#FFCBC5"/>
<path d="M136.766 88.5509C136.766 89.0209 136.385 89.4019 135.915 89.4019C135.445 89.4019 135.064 89.0209 135.064 88.5509C135.064 88.0809 135.445 87.7009 135.915 87.7009C136.385 87.7009 136.766 88.0819 136.766 88.5509Z" fill="#FFCBC5"/>
<path d="M130.666 88.7199C130.666 89.1899 130.285 89.5709 129.816 89.5709C129.346 89.5709 128.965 89.1899 128.965 88.7199C128.965 88.2499 129.346 87.8689 129.816 87.8689C130.285 87.8689 130.666 88.2499 130.666 88.7199Z" fill="#FFCBC5"/>
<path d="M124.964 90.6799C124.964 91.1499 124.583 91.5299 124.114 91.5299C123.645 91.5299 123.263 91.1489 123.263 90.6799C123.263 90.2099 123.644 89.8289 124.114 89.8289C124.584 89.8289 124.964 90.2099 124.964 90.6799Z" fill="#FFCBC5"/>
<path d="M121.147 95.308C121.147 95.778 120.767 96.158 120.296 96.158C119.826 96.158 119.446 95.777 119.446 95.308C119.446 94.838 119.827 94.457 120.296 94.457C120.767 94.457 121.147 94.838 121.147 95.308Z" fill="#FFCBC5"/>
<path d="M119.042 102.115C119.512 102.115 119.893 101.734 119.893 101.264C119.893 100.794 119.512 100.413 119.042 100.413C118.572 100.413 118.191 100.794 118.191 101.264C118.191 101.734 118.572 102.115 119.042 102.115Z" fill="#FFCBC5"/>
<path d="M119.893 107.388C119.893 107.858 119.512 108.239 119.042 108.239C118.572 108.239 118.191 107.858 118.191 107.388C118.191 106.918 118.572 106.538 119.042 106.538C119.511 106.537 119.893 106.918 119.893 107.388Z" fill="#FFCBC5"/>
<path d="M119.042 114.362C119.512 114.362 119.893 113.981 119.893 113.511C119.893 113.041 119.512 112.66 119.042 112.66C118.572 112.66 118.191 113.041 118.191 113.511C118.191 113.981 118.572 114.362 119.042 114.362Z" fill="#FFCBC5"/>
<path d="M119.042 120.485C119.512 120.485 119.892 120.104 119.892 119.635C119.892 119.165 119.512 118.785 119.042 118.785C118.573 118.785 118.192 119.165 118.192 119.635C118.192 120.104 118.573 120.485 119.042 120.485Z" fill="#FFCBC5"/>
<path d="M119.893 125.758C119.893 126.228 119.512 126.608 119.042 126.608C118.572 126.608 118.191 126.227 118.191 125.758C118.191 125.288 118.572 124.907 119.042 124.907C119.511 124.908 119.893 125.289 119.893 125.758Z" fill="#FFCBC5"/>
<path d="M119.893 131.882C119.893 132.352 119.512 132.733 119.042 132.733C118.572 132.733 118.191 132.352 118.191 131.882C118.191 131.412 118.572 131.032 119.042 131.032C119.511 131.031 119.893 131.412 119.893 131.882Z" fill="#FFCBC5"/>
<path d="M119.042 138.856C119.512 138.856 119.893 138.475 119.893 138.005C119.893 137.535 119.512 137.154 119.042 137.154C118.572 137.154 118.191 137.535 118.191 138.005C118.191 138.475 118.572 138.856 119.042 138.856Z" fill="#FFCBC5"/>
<path d="M119.893 144.129C119.893 144.599 119.512 144.98 119.042 144.98C118.572 144.98 118.191 144.599 118.191 144.129C118.191 143.659 118.572 143.279 119.042 143.279C119.511 143.278 119.893 143.659 119.893 144.129Z" fill="#FFCBC5"/>
<path d="M119.893 150.252C119.893 150.722 119.512 151.103 119.042 151.103C118.572 151.103 118.191 150.722 118.191 150.252C118.191 149.782 118.572 149.402 119.042 149.402C119.511 149.402 119.893 149.782 119.893 150.252Z" fill="#FFCBC5"/>
<path d="M119.042 157.226C119.512 157.226 119.892 156.845 119.892 156.376C119.892 155.906 119.512 155.526 119.042 155.526C118.573 155.526 118.192 155.906 118.192 156.376C118.192 156.845 118.573 157.226 119.042 157.226Z" fill="#FFCBC5"/>
<path d="M119.042 163.35C119.512 163.35 119.893 162.969 119.893 162.499C119.893 162.029 119.512 161.648 119.042 161.648C118.572 161.648 118.191 162.029 118.191 162.499C118.191 162.969 118.572 163.35 119.042 163.35Z" fill="#FFCBC5"/>
<path d="M119.893 168.623C119.893 169.093 119.512 169.474 119.042 169.474C118.572 169.474 118.191 169.093 118.191 168.623C118.191 168.153 118.572 167.773 119.042 167.773C119.511 167.772 119.893 168.153 119.893 168.623Z" fill="#FFCBC5"/>
<path d="M119.042 175.597C119.512 175.597 119.893 175.216 119.893 174.746C119.893 174.276 119.512 173.895 119.042 173.895C118.572 173.895 118.191 174.276 118.191 174.746C118.191 175.216 118.572 175.597 119.042 175.597Z" fill="#FFCBC5"/>
<path d="M119.893 180.87C119.893 181.34 119.512 181.721 119.042 181.721C118.572 181.721 118.191 181.34 118.191 180.87C118.191 180.4 118.572 180.02 119.042 180.02C119.511 180.019 119.893 180.4 119.893 180.87Z" fill="#FFCBC5"/>
<path d="M119.042 187.844C119.512 187.844 119.893 187.463 119.893 186.993C119.893 186.523 119.512 186.142 119.042 186.142C118.572 186.142 118.191 186.523 118.191 186.993C118.191 187.463 118.572 187.844 119.042 187.844Z" fill="#FFCBC5"/>
<path d="M119.042 193.968C119.512 193.968 119.893 193.587 119.893 193.117C119.893 192.647 119.512 192.266 119.042 192.266C118.572 192.266 118.191 192.647 118.191 193.117C118.191 193.587 118.572 193.968 119.042 193.968Z" fill="#FFCBC5"/>
<path d="M119.042 200.091C119.512 200.091 119.893 199.71 119.893 199.24C119.893 198.77 119.512 198.389 119.042 198.389C118.572 198.389 118.191 198.77 118.191 199.24C118.191 199.71 118.572 200.091 119.042 200.091Z" fill="#FFCBC5"/>
<path d="M119.042 206.215C119.512 206.215 119.893 205.834 119.893 205.364C119.893 204.894 119.512 204.513 119.042 204.513C118.572 204.513 118.191 204.894 118.191 205.364C118.191 205.834 118.572 206.215 119.042 206.215Z" fill="#FFCBC5"/>
<path d="M119.893 211.487C119.893 211.957 119.512 212.337 119.042 212.337C118.572 212.337 118.191 211.956 118.191 211.487C118.191 211.017 118.572 210.636 119.042 210.636C119.511 210.636 119.893 211.018 119.893 211.487Z" fill="#FFCBC5"/>
<path d="M119.893 217.611C119.893 218.081 119.512 218.461 119.042 218.461C118.572 218.461 118.191 218.08 118.191 217.611C118.191 217.141 118.572 216.76 119.042 216.76C119.511 216.76 119.893 217.141 119.893 217.611Z" fill="#FFCBC5"/>
<path d="M119.893 223.734C119.893 224.204 119.512 224.584 119.042 224.584C118.572 224.584 118.191 224.203 118.191 223.734C118.191 223.265 118.572 222.883 119.042 222.883C119.511 222.884 119.893 223.264 119.893 223.734Z" fill="#FFCBC5"/>
<path d="M119.042 230.709C119.512 230.709 119.893 230.328 119.893 229.858C119.893 229.388 119.512 229.007 119.042 229.007C118.572 229.007 118.191 229.388 118.191 229.858C118.191 230.328 118.572 230.709 119.042 230.709Z" fill="#FFCBC5"/>
<path d="M119.893 235.981C119.893 236.451 119.512 236.832 119.042 236.832C118.572 236.832 118.191 236.451 118.191 235.981C118.191 235.512 118.572 235.131 119.042 235.131C119.511 235.13 119.893 235.512 119.893 235.981Z" fill="#FFCBC5"/>
<path d="M119.893 242.104C119.893 242.574 119.512 242.955 119.042 242.955C118.572 242.955 118.191 242.574 118.191 242.104C118.191 241.634 118.572 241.254 119.042 241.254C119.511 241.254 119.893 241.635 119.893 242.104Z" fill="#FFCBC5"/>
<path d="M214.96 101.146L218.729 95.5398H211.304L214.96 101.146Z" fill="#FFCBC5"/>
<path d="M214.166 60.8617C214.166 60.3917 214.547 60.0107 215.017 60.0107C215.487 60.0107 215.868 60.3917 215.868 60.8617C215.868 61.3307 215.487 61.7127 215.017 61.7127C214.547 61.7127 214.166 61.3317 214.166 60.8617Z" fill="#FFCBC5"/>
<path d="M214.166 66.9848C214.166 66.5158 214.547 66.1348 215.017 66.1348C215.487 66.1348 215.868 66.5158 215.868 66.9848C215.868 67.4548 215.487 67.8358 215.017 67.8358C214.547 67.8358 214.166 67.4548 214.166 66.9848Z" fill="#FFCBC5"/>
<path d="M214.166 73.1088C214.166 72.6398 214.547 72.2588 215.017 72.2588C215.487 72.2588 215.868 72.6398 215.868 73.1088C215.868 73.5788 215.487 73.9598 215.017 73.9598C214.547 73.9598 214.166 73.5788 214.166 73.1088Z" fill="#FFCBC5"/>
<path d="M214.166 79.2328C214.166 78.7628 214.547 78.3818 215.017 78.3818C215.487 78.3818 215.868 78.7628 215.868 79.2328C215.868 79.7028 215.487 80.0828 215.017 80.0828C214.547 80.0828 214.166 79.7028 214.166 79.2328Z" fill="#FFCBC5"/>
<path d="M214.166 85.3559C214.166 84.8859 214.547 84.5049 215.017 84.5049C215.487 84.5049 215.868 84.8859 215.868 85.3559C215.868 85.8249 215.487 86.2059 215.017 86.2059C214.547 86.2069 214.166 85.8259 214.166 85.3559Z" fill="#FFCBC5"/>
<path d="M214.166 91.4787C214.166 91.0097 214.547 90.6287 215.017 90.6287C215.487 90.6287 215.868 91.0097 215.868 91.4787C215.868 91.9487 215.487 92.3297 215.017 92.3297C214.547 92.3297 214.166 91.9487 214.166 91.4787Z" fill="#FFCBC5"/>
<path d="M271.055 36.6309L267.287 42.2359H274.711L271.055 36.6309Z" fill="#FFCBC5"/>
<path d="M271.85 76.914C271.85 77.384 271.469 77.765 270.999 77.765C270.529 77.765 270.149 77.384 270.149 76.914C270.149 76.444 270.529 76.063 270.999 76.063C271.469 76.064 271.85 76.445 271.85 76.914Z" fill="#FFCBC5"/>
<path d="M271.85 70.7909C271.85 71.2609 271.469 71.6409 270.999 71.6409C270.529 71.6409 270.149 71.2599 270.149 70.7909C270.149 70.3209 270.529 69.9409 270.999 69.9409C271.469 69.9409 271.85 70.3209 271.85 70.7909Z" fill="#FFCBC5"/>
<path d="M271.85 64.6669C271.85 65.1369 271.469 65.5179 270.999 65.5179C270.529 65.5179 270.149 65.1369 270.149 64.6669C270.149 64.1969 270.529 63.8159 270.999 63.8159C271.469 63.8169 271.85 64.1969 271.85 64.6669Z" fill="#FFCBC5"/>
<path d="M271.85 58.5439C271.85 59.0139 271.469 59.3949 270.999 59.3949C270.529 59.3949 270.149 59.0139 270.149 58.5439C270.149 58.0739 270.529 57.6929 270.999 57.6929C271.469 57.6929 271.85 58.0739 271.85 58.5439Z" fill="#FFCBC5"/>
<path d="M271.85 52.4198C271.85 52.8898 271.469 53.2708 270.999 53.2708C270.529 53.2708 270.149 52.8898 270.149 52.4198C270.149 51.9508 270.529 51.5688 270.999 51.5688C271.469 51.5698 271.85 51.9508 271.85 52.4198Z" fill="#FFCBC5"/>
<path d="M271.85 46.2968C271.85 46.7658 271.469 47.1468 270.999 47.1468C270.529 47.1468 270.149 46.7658 270.149 46.2968C270.149 45.8268 270.529 45.4458 270.999 45.4458C271.469 45.4468 271.85 45.8268 271.85 46.2968Z" fill="#FFCBC5"/>
<path d="M101.617 212.929L105.386 207.324H97.9609L101.617 212.929Z" fill="#FFCBC5"/>
<path d="M101.674 155.125C102.144 155.125 102.524 154.744 102.524 154.275C102.524 153.805 102.144 153.425 101.674 153.425C101.205 153.425 100.824 153.805 100.824 154.275C100.824 154.744 101.205 155.125 101.674 155.125Z" fill="#FFCBC5"/>
<path d="M101.674 161.249C102.144 161.249 102.525 160.868 102.525 160.398C102.525 159.928 102.144 159.547 101.674 159.547C101.204 159.547 100.823 159.928 100.823 160.398C100.823 160.868 101.204 161.249 101.674 161.249Z" fill="#FFCBC5"/>
<path d="M101.674 167.373C102.144 167.373 102.525 166.992 102.525 166.522C102.525 166.052 102.144 165.671 101.674 165.671C101.204 165.671 100.823 166.052 100.823 166.522C100.823 166.992 101.204 167.373 101.674 167.373Z" fill="#FFCBC5"/>
<path d="M101.674 173.497C102.144 173.497 102.525 173.116 102.525 172.646C102.525 172.176 102.144 171.795 101.674 171.795C101.204 171.795 100.823 172.176 100.823 172.646C100.823 173.116 101.204 173.497 101.674 173.497Z" fill="#FFCBC5"/>
<path d="M101.674 179.619C102.144 179.619 102.524 179.238 102.524 178.769C102.524 178.299 102.144 177.919 101.674 177.919C101.205 177.919 100.824 178.299 100.824 178.769C100.824 179.238 101.205 179.619 101.674 179.619Z" fill="#FFCBC5"/>
<path d="M100.823 184.893C100.823 184.423 101.204 184.042 101.674 184.042C102.144 184.042 102.525 184.423 102.525 184.893C102.525 185.363 102.144 185.743 101.674 185.743C101.204 185.743 100.823 185.362 100.823 184.893Z" fill="#FFCBC5"/>
<path d="M101.674 191.867C102.144 191.867 102.525 191.486 102.525 191.016C102.525 190.546 102.144 190.165 101.674 190.165C101.204 190.165 100.823 190.546 100.823 191.016C100.823 191.486 101.204 191.867 101.674 191.867Z" fill="#FFCBC5"/>
<path d="M101.674 197.991C102.144 197.991 102.525 197.61 102.525 197.14C102.525 196.67 102.144 196.289 101.674 196.289C101.204 196.289 100.823 196.67 100.823 197.14C100.823 197.61 101.204 197.991 101.674 197.991Z" fill="#FFCBC5"/>
<path d="M100.823 203.263C100.823 202.794 101.204 202.413 101.674 202.413C102.144 202.413 102.525 202.794 102.525 203.263C102.525 203.733 102.144 204.114 101.674 204.114C101.204 204.113 100.823 203.732 100.823 203.263Z" fill="#FFCBC5"/>
<path d="M380.142 97.8818L376.374 103.487H383.799L380.142 97.8818Z" fill="#FFCBC5"/>
<path d="M380.937 156.536C380.937 157.006 380.556 157.387 380.086 157.387C379.616 157.387 379.235 157.006 379.235 156.536C379.235 156.066 379.616 155.686 380.086 155.686C380.556 155.686 380.937 156.066 380.937 156.536Z" fill="#FFCBC5"/>
<path d="M380.937 150.412C380.937 150.882 380.556 151.263 380.086 151.263C379.616 151.263 379.235 150.882 379.235 150.412C379.235 149.942 379.616 149.562 380.086 149.562C380.556 149.562 380.937 149.943 380.937 150.412Z" fill="#FFCBC5"/>
<path d="M380.937 144.289C380.937 144.759 380.556 145.14 380.086 145.14C379.616 145.14 379.235 144.759 379.235 144.289C379.235 143.819 379.616 143.439 380.086 143.439C380.556 143.439 380.937 143.819 380.937 144.289Z" fill="#FFCBC5"/>
<path d="M380.086 139.016C380.556 139.016 380.937 138.635 380.937 138.165C380.937 137.695 380.556 137.314 380.086 137.314C379.616 137.314 379.235 137.695 379.235 138.165C379.235 138.635 379.616 139.016 380.086 139.016Z" fill="#FFCBC5"/>
<path d="M380.937 132.042C380.937 132.511 380.556 132.892 380.086 132.892C379.616 132.892 379.235 132.511 379.235 132.042C379.235 131.572 379.616 131.191 380.086 131.191C380.556 131.191 380.937 131.573 380.937 132.042Z" fill="#FFCBC5"/>
<path d="M380.937 125.919C380.937 126.388 380.556 126.769 380.086 126.769C379.616 126.769 379.235 126.388 379.235 125.919C379.235 125.449 379.616 125.068 380.086 125.068C380.556 125.068 380.937 125.449 380.937 125.919Z" fill="#FFCBC5"/>
<path d="M380.937 119.795C380.937 120.265 380.556 120.645 380.086 120.645C379.616 120.645 379.235 120.264 379.235 119.795C379.235 119.325 379.616 118.944 380.086 118.944C380.556 118.944 380.937 119.325 380.937 119.795Z" fill="#FFCBC5"/>
<path d="M380.937 113.671C380.937 114.141 380.556 114.522 380.086 114.522C379.616 114.522 379.235 114.141 379.235 113.671C379.235 113.202 379.616 112.821 380.086 112.821C380.556 112.821 380.937 113.202 380.937 113.671Z" fill="#FFCBC5"/>
<path d="M380.937 107.548C380.937 108.018 380.556 108.398 380.086 108.398C379.616 108.398 379.235 108.017 379.235 107.548C379.235 107.078 379.616 106.697 380.086 106.697C380.556 106.697 380.937 107.078 380.937 107.548Z" fill="#FFCBC5"/>
<path d="M413.753 338.293H304.692V439.042H413.753V338.293Z" fill="#FFCBC5"/>
<path d="M413.754 338.293H379.649V439.042H413.754V338.293Z" fill="#FF4933"/>
<path d="M382.76 414.966H301.882V435.038H382.76V414.966Z" fill="#FF4933"/>
<path d="M416.566 414.966H382.76V435.038H416.566V414.966Z" fill="#FFCBC5"/>
<path d="M381.38 416.346V433.658H303.262V416.346H381.38ZM382.76 414.966H301.882V435.038H382.76V414.966Z" fill="#83A0F0"/>
<path d="M335.299 423.276H308.659V426.729H335.299V423.276Z" fill="white"/>
<path d="M353.126 423.276H351.184V426.729H353.126V423.276Z" fill="#9AB4EF"/>
<path d="M349.24 423.276H347.298V426.729H349.24V423.276Z" fill="#FF4933"/>
<path d="M345.355 423.276H343.413V426.729H345.355V423.276Z" fill="#9AB4EF"/>
<path d="M341.47 423.276H339.528V426.729H341.47V423.276Z" fill="#FF4933"/>
<path d="M375.982 420.012H366.699V429.295H375.982V420.012Z" fill="#FFCBC5"/>
<path d="M309.425 418.452H308.659V419.218H309.425V418.452Z" fill="white"/>
<path d="M311.719 418.452H310.953V419.218H311.719V418.452Z" fill="#9AB4EF"/>
<path d="M314.013 418.452H313.247V419.218H314.013V418.452Z" fill="#9AB4EF"/>
<path d="M382.76 390.743H301.882V410.815H382.76V390.743Z" fill="#FF4933"/>
<path d="M416.566 390.743H382.76V410.815H416.566V390.743Z" fill="#FFCBC5"/>
<path d="M381.38 392.123V409.435H303.262V392.123H381.38ZM382.76 390.743H301.882V410.815H382.76V390.743Z" fill="#83A0F0"/>
<path d="M335.299 399.053H308.659V402.506H335.299V399.053Z" fill="white"/>
<path d="M353.126 399.053H351.184V402.506H353.126V399.053Z" fill="#9AB4EF"/>
<path d="M349.24 399.053H347.298V402.506H349.24V399.053Z" fill="#FF4933"/>
<path d="M345.355 399.053H343.413V402.506H345.355V399.053Z" fill="#9AB4EF"/>
<path d="M341.47 399.053H339.528V402.506H341.47V399.053Z" fill="#FF4933"/>
<path d="M375.982 395.789H366.699V405.072H375.982V395.789Z" fill="#FFCBC5"/>
<path d="M309.425 394.229H308.659V394.995H309.425V394.229Z" fill="white"/>
<path d="M311.719 394.229H310.953V394.995H311.719V394.229Z" fill="#9AB4EF"/>
<path d="M314.013 394.229H313.247V394.995H314.013V394.229Z" fill="#9AB4EF"/>
<path d="M382.76 366.52H301.882V386.592H382.76V366.52Z" fill="#FF4933"/>
<path d="M416.566 366.52H382.76V386.592H416.566V366.52Z" fill="#FFCBC5"/>
<path d="M381.38 367.9V385.212H303.262V367.9H381.38ZM382.76 366.52H301.882V386.592H382.76V366.52Z" fill="#83A0F0"/>
<path d="M335.299 374.829H308.659V378.282H335.299V374.829Z" fill="white"/>
<path d="M353.126 374.829H351.184V378.282H353.126V374.829Z" fill="#9AB4EF"/>
<path d="M349.24 374.829H347.298V378.282H349.24V374.829Z" fill="#FF4933"/>
<path d="M345.355 374.829H343.413V378.282H345.355V374.829Z" fill="#9AB4EF"/>
<path d="M341.47 374.829H339.528V378.282H341.47V374.829Z" fill="#FF4933"/>
<path d="M375.982 371.565H366.699V380.848H375.982V371.565Z" fill="#FFCBC5"/>
<path d="M309.425 370.006H308.659V370.772H309.425V370.006Z" fill="white"/>
<path d="M311.719 370.006H310.953V370.772H311.719V370.006Z" fill="#9AB4EF"/>
<path d="M314.013 370.006H313.247V370.772H314.013V370.006Z" fill="#9AB4EF"/>
<path d="M382.76 342.297H301.882V362.369H382.76V342.297Z" fill="#FF4933"/>
<path d="M416.566 342.297H382.76V362.369H416.566V342.297Z" fill="#FFCBC5"/>
<path d="M381.38 343.677V360.989H303.262V343.677H381.38ZM382.76 342.297H301.882V362.369H382.76V342.297Z" fill="#83A0F0"/>
<path d="M335.299 350.606H308.659V354.059H335.299V350.606Z" fill="white"/>
<path d="M353.126 350.606H351.184V354.059H353.126V350.606Z" fill="#9AB4EF"/>
<path d="M349.24 350.606H347.298V354.059H349.24V350.606Z" fill="#FF4933"/>
<path d="M345.355 350.606H343.413V354.059H345.355V350.606Z" fill="#9AB4EF"/>
<path d="M341.47 350.606H339.528V354.059H341.47V350.606Z" fill="#FF4933"/>
<path d="M375.982 347.342H366.699V356.625H375.982V347.342Z" fill="#FFCBC5"/>
<path d="M309.425 345.783H308.659V346.549H309.425V345.783Z" fill="white"/>
<path d="M311.719 345.783H310.953V346.549H311.719V345.783Z" fill="#9AB4EF"/>
<path d="M314.013 345.783H313.247V346.549H314.013V345.783Z" fill="#9AB4EF"/>
<path d="M406.312 430.586H393.014C391.492 430.586 390.259 429.352 390.259 427.831V422.174C390.259 420.652 391.493 419.419 393.014 419.419H406.312C407.834 419.419 409.067 420.653 409.067 422.174V427.831C409.067 429.352 407.834 430.586 406.312 430.586Z" fill="#FF4933"/>
<path d="M398.265 426.666V423.337C398.265 422.956 398.574 422.647 398.955 422.647H400.371C400.752 422.647 401.061 422.956 401.061 423.337V426.666C401.061 427.047 400.752 427.356 400.371 427.356H398.955C398.574 427.356 398.265 427.047 398.265 426.666Z" fill="#83A0F0"/>
<path d="M406.312 406.363H393.014C391.492 406.363 390.259 405.129 390.259 403.608V397.951C390.259 396.429 391.493 395.196 393.014 395.196H406.312C407.834 395.196 409.067 396.43 409.067 397.951V403.608C409.067 405.129 407.834 406.363 406.312 406.363Z" fill="#FF4933"/>
<path d="M398.265 402.443V399.114C398.265 398.733 398.574 398.424 398.955 398.424H400.371C400.752 398.424 401.061 398.733 401.061 399.114V402.443C401.061 402.824 400.752 403.133 400.371 403.133H398.955C398.574 403.133 398.265 402.824 398.265 402.443Z" fill="#83A0F0"/>
<path d="M406.312 382.14H393.014C391.492 382.14 390.259 380.906 390.259 379.385V373.728C390.259 372.206 391.493 370.973 393.014 370.973H406.312C407.834 370.973 409.067 372.207 409.067 373.728V379.385C409.067 380.906 407.834 382.14 406.312 382.14Z" fill="#FF4933"/>
<path d="M398.265 378.22V374.891C398.265 374.51 398.574 374.201 398.955 374.201H400.371C400.752 374.201 401.061 374.51 401.061 374.891V378.22C401.061 378.601 400.752 378.91 400.371 378.91H398.955C398.574 378.91 398.265 378.601 398.265 378.22Z" fill="#83A0F0"/>
<path d="M406.312 357.917H393.014C391.492 357.917 390.259 356.683 390.259 355.162V349.505C390.259 347.983 391.493 346.75 393.014 346.75H406.312C407.834 346.75 409.067 347.984 409.067 349.505V355.162C409.067 356.683 407.834 357.917 406.312 357.917Z" fill="#FF4933"/>
<path d="M398.265 353.997V350.668C398.265 350.287 398.574 349.978 398.955 349.978H400.371C400.752 349.978 401.061 350.287 401.061 350.668V353.997C401.061 354.378 400.752 354.687 400.371 354.687H398.955C398.574 354.687 398.265 354.378 398.265 353.997Z" fill="#83A0F0"/>
<path d="M413.753 241.548H304.692V342.297H413.753V241.548Z" fill="#FFCBC5"/>
<path d="M413.754 241.548H379.649V342.297H413.754V241.548Z" fill="#FF4933"/>
<path d="M382.76 318.221H301.882V338.293H382.76V318.221Z" fill="#FF4933"/>
<path d="M416.566 318.221H382.76V338.293H416.566V318.221Z" fill="#FFCBC5"/>
<path d="M381.38 319.601V336.913H303.262V319.601H381.38ZM382.76 318.221H301.882V338.293H382.76V318.221Z" fill="#83A0F0"/>
<path d="M335.299 326.531H308.659V329.984H335.299V326.531Z" fill="white"/>
<path d="M353.126 326.531H351.184V329.984H353.126V326.531Z" fill="#9AB4EF"/>
<path d="M349.24 326.531H347.298V329.984H349.24V326.531Z" fill="#FF4933"/>
<path d="M345.355 326.531H343.413V329.984H345.355V326.531Z" fill="#9AB4EF"/>
<path d="M341.47 326.531H339.528V329.984H341.47V326.531Z" fill="#FF4933"/>
<path d="M375.982 323.267H366.699V332.55H375.982V323.267Z" fill="#FFCBC5"/>
<path d="M309.425 321.707H308.659V322.473H309.425V321.707Z" fill="white"/>
<path d="M311.719 321.707H310.953V322.473H311.719V321.707Z" fill="#9AB4EF"/>
<path d="M314.013 321.707H313.247V322.473H314.013V321.707Z" fill="#9AB4EF"/>
<path d="M382.76 293.998H301.882V314.07H382.76V293.998Z" fill="#FF4933"/>
<path d="M416.566 293.998H382.76V314.07H416.566V293.998Z" fill="#FFCBC5"/>
<path d="M381.38 295.378V312.69H303.262V295.378H381.38ZM382.76 293.998H301.882V314.07H382.76V293.998Z" fill="#83A0F0"/>
<path d="M335.299 302.308H308.659V305.761H335.299V302.308Z" fill="white"/>
<path d="M353.126 302.308H351.184V305.761H353.126V302.308Z" fill="#9AB4EF"/>
<path d="M349.24 302.308H347.298V305.761H349.24V302.308Z" fill="#FF4933"/>
<path d="M345.355 302.308H343.413V305.761H345.355V302.308Z" fill="#9AB4EF"/>
<path d="M341.47 302.308H339.528V305.761H341.47V302.308Z" fill="#FF4933"/>
<path d="M375.982 299.044H366.699V308.327H375.982V299.044Z" fill="#FFCBC5"/>
<path d="M309.425 297.484H308.659V298.25H309.425V297.484Z" fill="white"/>
<path d="M311.719 297.484H310.953V298.25H311.719V297.484Z" fill="#9AB4EF"/>
<path d="M314.013 297.484H313.247V298.25H314.013V297.484Z" fill="#9AB4EF"/>
<path d="M382.76 269.775H301.882V289.847H382.76V269.775Z" fill="#FF4933"/>
<path d="M416.566 269.775H382.76V289.847H416.566V269.775Z" fill="#FFCBC5"/>
<path d="M381.38 271.155V288.467H303.262V271.155H381.38ZM382.76 269.775H301.882V289.847H382.76V269.775Z" fill="#83A0F0"/>
<path d="M335.299 278.085H308.659V281.538H335.299V278.085Z" fill="white"/>
<path d="M353.126 278.085H351.184V281.538H353.126V278.085Z" fill="#9AB4EF"/>
<path d="M349.24 278.085H347.298V281.538H349.24V278.085Z" fill="#FF4933"/>
<path d="M345.355 278.085H343.413V281.538H345.355V278.085Z" fill="#9AB4EF"/>
<path d="M341.47 278.085H339.528V281.538H341.47V278.085Z" fill="#FF4933"/>
<path d="M375.982 274.82H366.699V284.103H375.982V274.82Z" fill="#FFCBC5"/>
<path d="M309.425 273.261H308.659V274.027H309.425V273.261Z" fill="white"/>
<path d="M311.719 273.261H310.953V274.027H311.719V273.261Z" fill="#9AB4EF"/>
<path d="M314.013 273.261H313.247V274.027H314.013V273.261Z" fill="#9AB4EF"/>
<path d="M382.76 245.552H301.882V265.624H382.76V245.552Z" fill="#FF4933"/>
<path d="M416.566 245.552H382.76V265.624H416.566V245.552Z" fill="#FFCBC5"/>
<path d="M381.38 246.932V264.244H303.262V246.932H381.38ZM382.76 245.552H301.882V265.624H382.76V245.552Z" fill="#83A0F0"/>
<path d="M335.299 253.861H308.659V257.314H335.299V253.861Z" fill="white"/>
<path d="M353.126 253.861H351.184V257.314H353.126V253.861Z" fill="#9AB4EF"/>
<path d="M349.24 253.861H347.298V257.314H349.24V253.861Z" fill="#FF4933"/>
<path d="M345.355 253.861H343.413V257.314H345.355V253.861Z" fill="#9AB4EF"/>
<path d="M341.47 253.861H339.528V257.314H341.47V253.861Z" fill="#FF4933"/>
<path d="M375.982 250.597H366.699V259.88H375.982V250.597Z" fill="#FFCBC5"/>
<path d="M309.425 249.038H308.659V249.804H309.425V249.038Z" fill="white"/>
<path d="M311.719 249.038H310.953V249.804H311.719V249.038Z" fill="#9AB4EF"/>
<path d="M314.013 249.038H313.247V249.804H314.013V249.038Z" fill="#9AB4EF"/>
<path d="M406.312 333.841H393.014C391.492 333.841 390.259 332.607 390.259 331.086V325.429C390.259 323.907 391.493 322.674 393.014 322.674H406.312C407.834 322.674 409.067 323.908 409.067 325.429V331.086C409.067 332.607 407.834 333.841 406.312 333.841Z" fill="#FF4933"/>
<path d="M398.265 329.921V326.592C398.265 326.211 398.574 325.902 398.955 325.902H400.371C400.752 325.902 401.061 326.211 401.061 326.592V329.921C401.061 330.302 400.752 330.611 400.371 330.611H398.955C398.574 330.611 398.265 330.302 398.265 329.921Z" fill="#83A0F0"/>
<path d="M406.312 309.618H393.014C391.492 309.618 390.259 308.384 390.259 306.863V301.206C390.259 299.684 391.493 298.451 393.014 298.451H406.312C407.834 298.451 409.067 299.685 409.067 301.206V306.863C409.067 308.384 407.834 309.618 406.312 309.618Z" fill="#FF4933"/>
<path d="M398.265 305.698V302.369C398.265 301.988 398.574 301.679 398.955 301.679H400.371C400.752 301.679 401.061 301.988 401.061 302.369V305.698C401.061 306.079 400.752 306.388 400.371 306.388H398.955C398.574 306.388 398.265 306.079 398.265 305.698Z" fill="#83A0F0"/>
<path d="M406.312 285.395H393.014C391.492 285.395 390.259 284.161 390.259 282.64V276.983C390.259 275.461 391.493 274.228 393.014 274.228H406.312C407.834 274.228 409.067 275.462 409.067 276.983V282.64C409.067 284.161 407.834 285.395 406.312 285.395Z" fill="#FF4933"/>
<path d="M398.265 281.475V278.146C398.265 277.765 398.574 277.456 398.955 277.456H400.371C400.752 277.456 401.061 277.765 401.061 278.146V281.475C401.061 281.856 400.752 282.165 400.371 282.165H398.955C398.574 282.165 398.265 281.856 398.265 281.475Z" fill="#83A0F0"/>
<path d="M406.312 261.172H393.014C391.492 261.172 390.259 259.938 390.259 258.417V252.76C390.259 251.238 391.493 250.005 393.014 250.005H406.312C407.834 250.005 409.067 251.239 409.067 252.76V258.417C409.067 259.938 407.834 261.172 406.312 261.172Z" fill="#FF4933"/>
<path d="M398.265 257.252V253.923C398.265 253.542 398.574 253.233 398.955 253.233H400.371C400.752 253.233 401.061 253.542 401.061 253.923V257.252C401.061 257.633 400.752 257.942 400.371 257.942H398.955C398.574 257.942 398.265 257.633 398.265 257.252Z" fill="#83A0F0"/>
<path d="M425.156 201.158V255.047H414.65V254.506H410.71V255.047H399.663V256.128H410.71V256.669H414.65V256.128H425.156V279.27H414.65V278.729H410.71V279.27H399.663V280.351H410.71V280.892H414.65V280.351H425.156V303.493H414.65V302.952H410.71V303.493H399.663V304.574H410.71V305.115H414.65V304.574H425.156V327.716H399.663V328.797H425.156V351.792H414.65V351.251H410.71V351.792H399.663V352.873H410.71V353.414H414.65V352.873H425.156V376.015H414.65V375.474H410.71V376.015H399.663V377.096H410.71V377.637H414.65V377.096H425.156V400.238H414.65V399.697H410.71V400.238H399.663V401.319H410.71V401.86H414.65V401.319H425.156V424.461H414.65V423.92H410.71V424.461H399.663V425.542H410.71V426.083H414.65V425.542H426.238V201.299C425.877 201.247 425.516 201.206 425.156 201.158Z" fill="#9AB4EF"/>
<path d="M425.697 200.664C426.866 200.664 427.813 199.717 427.813 198.548C427.813 197.379 426.866 196.432 425.697 196.432C424.528 196.432 423.581 197.379 423.581 198.548C423.581 199.717 424.528 200.664 425.697 200.664Z" fill="#FF4933"/>
<path d="M425.697 257.704C426.866 257.704 427.813 256.757 427.813 255.588C427.813 254.419 426.866 253.472 425.697 253.472C424.528 253.472 423.581 254.419 423.581 255.588C423.581 256.757 424.528 257.704 425.697 257.704Z" fill="#FF4933"/>
<path d="M425.697 281.837C426.866 281.837 427.813 280.89 427.813 279.721C427.813 278.552 426.866 277.605 425.697 277.605C424.528 277.605 423.581 278.552 423.581 279.721C423.581 280.89 424.528 281.837 425.697 281.837Z" fill="#FF4933"/>
<path d="M425.697 306.15C426.866 306.15 427.813 305.203 427.813 304.034C427.813 302.865 426.866 301.918 425.697 301.918C424.528 301.918 423.581 302.865 423.581 304.034C423.581 305.203 424.528 306.15 425.697 306.15Z" fill="#FF4933"/>
<path d="M425.697 330.104C426.866 330.104 427.813 329.156 427.813 327.988C427.813 326.819 426.866 325.872 425.697 325.872C424.528 325.872 423.581 326.819 423.581 327.988C423.581 329.156 424.528 330.104 425.697 330.104Z" fill="#FF4933"/>
<path d="M425.697 354.237C426.866 354.237 427.813 353.29 427.813 352.121C427.813 350.952 426.866 350.005 425.697 350.005C424.528 350.005 423.581 350.952 423.581 352.121C423.581 353.29 424.528 354.237 425.697 354.237Z" fill="#FF4933"/>
<path d="M425.697 378.371C426.866 378.371 427.813 377.424 427.813 376.255C427.813 375.086 426.866 374.139 425.697 374.139C424.528 374.139 423.581 375.086 423.581 376.255C423.581 377.424 424.528 378.371 425.697 378.371Z" fill="#FF4933"/>
<path d="M425.697 402.504C426.866 402.504 427.813 401.557 427.813 400.388C427.813 399.219 426.866 398.272 425.697 398.272C424.528 398.272 423.581 399.219 423.581 400.388C423.581 401.557 424.528 402.504 425.697 402.504Z" fill="#FF4933"/>
<path d="M425.697 426.638C426.866 426.638 427.813 425.69 427.813 424.522C427.813 423.353 426.866 422.406 425.697 422.406C424.528 422.406 423.581 423.353 423.581 424.522C423.581 425.69 424.528 426.638 425.697 426.638Z" fill="#FF4933"/>
<path d="M167.549 188.845V429.088C167.549 431.401 167.917 433.632 168.608 435.727C171.417 444.312 179.521 450.553 189.014 450.553H290.07C299.563 450.553 307.667 444.312 310.476 435.727C311.167 433.632 311.535 431.401 311.535 429.088V188.845C311.535 184.414 310.176 180.29 307.847 176.858C303.986 171.157 297.445 167.387 290.069 167.387H189.014C181.639 167.387 175.097 171.157 171.229 176.858C168.908 180.29 167.549 184.413 167.549 188.845Z" fill="black"/>
<path d="M195.312 168.106C183.843 168.106 174.513 177.436 174.513 188.905V429.163C174.513 440.631 183.844 449.962 195.312 449.962H294.643C306.112 449.962 315.442 440.631 315.442 429.163V188.905C315.442 177.436 306.112 168.106 294.643 168.106H195.312Z" fill="#FF4933"/>
<path d="M175.396 428.134C175.396 439.542 184.73 448.876 196.138 448.876H293.814C305.222 448.876 314.556 439.542 314.556 428.134V189.727C314.556 178.319 305.222 168.985 293.814 168.985H196.138C184.73 168.985 175.396 178.319 175.396 189.727V428.134Z" fill="black"/>
<path d="M196.501 176.004H213.59V177.518C213.59 182.152 217.347 185.909 221.981 185.909H269.585C274.487 185.909 278.46 181.935 278.46 177.034V176.004H293.424C301.503 176.004 308.052 182.553 308.052 190.632V427.22C308.052 435.299 301.503 441.848 293.424 441.848H196.501C188.422 441.848 181.873 435.299 181.873 427.22V190.632C181.873 182.554 188.422 176.004 196.501 176.004Z" fill="#F7F7F7"/>
<path d="M252.708 178.654C253.522 178.654 254.185 177.992 254.185 177.178C254.185 176.364 253.523 175.702 252.708 175.702H237.218C236.404 175.702 235.741 176.364 235.741 177.178C235.741 177.992 236.403 178.654 237.218 178.654H252.708Z" fill="#F9CF70"/>
<path d="M262.005 176.958C262.005 178.008 261.154 178.862 260.101 178.862C259.049 178.862 258.199 178.008 258.199 176.958C258.199 175.903 259.05 175.055 260.101 175.055C261.154 175.055 262.005 175.904 262.005 176.958Z" fill="#F9CF70"/>
<path d="M261.134 176.958C261.134 177.528 260.673 177.991 260.102 177.991C259.531 177.991 259.07 177.528 259.07 176.958C259.07 176.386 259.531 175.926 260.102 175.926C260.673 175.926 261.134 176.386 261.134 176.958Z" fill="#353DC9"/>
<path d="M171.99 226.202C171.99 225.388 171.328 224.725 170.514 224.725C169.7 224.725 169.038 225.387 169.038 226.202V247.138C169.038 247.952 169.7 248.615 170.514 248.615C171.328 248.615 171.99 247.953 171.99 247.138V226.202Z" fill="#FF4933"/>
<path d="M171.99 259.977C171.99 259.163 171.328 258.5 170.514 258.5C169.7 258.5 169.038 259.162 169.038 259.977V280.913C169.038 281.727 169.7 282.39 170.514 282.39C171.328 282.39 171.99 281.727 171.99 280.913V259.977Z" fill="#FF4933"/>
<path d="M167.549 199.541H174.512V196.079H167.549V199.541Z" fill="#FF4933"/>
<path d="M167.549 422.118H174.512V418.656H167.549V422.118Z" fill="#1B29AF"/>
<path d="M207.091 323.327C207.091 323.327 195.776 336.511 182.254 321.899C182.254 321.899 168.911 322.462 152.881 340.127V416.393L235.864 417.267V342.744C235.864 342.744 226.122 327.689 207.091 323.327Z" fill="#F9CF70"/>
<path d="M199.449 410.259C189.387 416.036 169.718 415.508 158.756 415.214C126.776 414.356 138.23 365.936 148.535 346.067C158.843 326.191 168.302 343.112 168.793 359.123C169.06 367.815 166.905 379.041 162.111 386.783C174.324 387.437 200.114 397.724 200.114 397.724C194.824 403.686 199.449 410.259 199.449 410.259Z" fill="#F9CF70"/>
<path d="M194.614 414.182C205.36 418.557 224.78 415.395 235.604 413.633C267.18 408.493 249.333 362.047 236.456 343.74C223.574 325.427 216.471 343.464 218.133 359.396C219.035 368.045 222.676 378.881 228.465 385.91C216.45 388.197 192.273 401.85 192.273 401.85C198.315 407.048 194.614 414.182 194.614 414.182Z" fill="#F9CF70"/>
<path d="M241.014 412.939L139.896 409.706L146.148 426.45L205.024 444.539L242.518 432.295L241.014 412.939Z" fill="#FF9184"/>
<path d="M230.225 391.734L229.348 409.706H152.082L150.135 372.08L230.225 391.734Z" fill="#F9CF70"/>
<path d="M222.134 399.998L223.692 393.702C223.799 393.27 223.551 392.83 223.125 392.697L220.992 392.035C220.694 391.942 220.472 391.692 220.415 391.385L220.053 389.429C219.979 389.031 219.632 388.742 219.227 388.742H217.482C217.192 388.742 216.923 388.593 216.77 388.347L215.706 386.645C215.464 386.258 214.958 386.135 214.565 386.368L212.545 387.565C212.287 387.718 211.968 387.722 211.706 387.575L210.521 386.912C210.137 386.697 209.653 386.815 209.41 387.182L205.162 393.602C204.899 393.999 205.018 394.534 205.425 394.783L206.366 395.358C206.714 395.57 207.164 395.503 207.433 395.198C207.989 394.569 209.022 395.055 208.893 395.884L208.85 396.163C208.793 396.526 208.979 396.884 209.308 397.046L217.639 401.157C217.694 401.184 217.75 401.205 217.809 401.219C218.332 401.349 220.891 401.885 222.017 400.266C222.073 400.185 222.111 400.092 222.134 399.998Z" fill="#FEBAC7"/>
<path d="M163.435 399.998L161.877 393.702C161.77 393.27 162.019 392.83 162.444 392.697L164.577 392.035C164.875 391.942 165.097 391.692 165.154 391.385L165.516 389.429C165.59 389.031 165.937 388.742 166.342 388.742H168.087C168.377 388.742 168.646 388.593 168.8 388.347L169.864 386.645C170.106 386.258 170.612 386.135 171.005 386.368L173.025 387.565C173.283 387.718 173.602 387.722 173.864 387.575L175.05 386.912C175.434 386.697 175.918 386.815 176.161 387.182L180.409 393.602C180.672 393.999 180.552 394.534 180.146 394.783L179.205 395.358C178.857 395.57 178.407 395.503 178.137 395.198C177.581 394.569 176.548 395.055 176.677 395.884L176.721 396.163C176.778 396.526 176.592 396.884 176.263 397.046L167.932 401.157C167.877 401.184 167.821 401.205 167.762 401.219C167.239 401.349 164.68 401.885 163.554 400.266C163.495 400.185 163.458 400.092 163.435 399.998Z" fill="#FEBAC7"/>
<path d="M254.278 394.82L179.156 440.43C185.204 445.34 188.57 451.756 189.923 459.301L268.174 419.893C276.051 415.926 278.516 405.858 273.363 398.7C268.99 392.625 260.678 390.935 254.278 394.82Z" fill="#FF4933"/>
<path d="M200.881 447.354L205.651 451.382L196.215 456.134C193.392 453.704 187.886 449.016 187.067 448.703C185.957 448.278 200.881 447.354 200.881 447.354Z" fill="#1B29AF"/>
<path d="M179.156 440.43L166.644 447.48C165.71 448.006 165.385 449.192 165.918 450.122C169.219 455.878 180.227 474.48 186.044 477.009C186.044 477.009 190.741 475.5 188.942 469.36C187.143 463.219 189.563 457.539 189.563 457.539C189.563 457.539 189.156 443.223 179.156 440.43Z" fill="#6D6D6D"/>
<path d="M139.724 399.97L219.095 437.704C213.578 443.204 210.882 449.928 210.303 457.572L128.45 426.326C120.21 423.181 116.734 413.415 121.132 405.771C124.866 399.282 132.962 396.755 139.724 399.97Z" fill="#FF4933"/>
<path d="M219.095 437.704L232.259 443.445C233.241 443.873 233.686 445.02 233.25 445.999C230.552 452.06 221.492 471.686 215.963 474.793C215.963 474.793 211.137 473.77 212.302 467.478C213.467 461.186 210.482 455.781 210.482 455.781C210.482 455.781 209.431 441.499 219.095 437.704Z" fill="#6D6D6D"/>
<path d="M199.46 322.259C198.042 322.124 196.645 321.836 195.317 321.337C190.788 319.633 187.611 315.71 185.467 311.626C185.467 311.626 185.281 319.362 184.936 321.748C184.591 324.134 183.463 325.478 183.463 325.478L193.511 333.609L198.624 328.211C198.624 328.211 198.946 325.394 199.46 322.259Z" fill="#EF947A"/>
<path d="M198.131 328.731C196.428 329.599 194.75 330.488 193.149 331.366C190.264 328.925 187.132 326.776 183.818 324.96C183.612 325.299 183.464 325.477 183.464 325.477L193.512 333.608L198.131 328.731Z" fill="#C97865"/>
<path d="M195.317 321.336C191.908 320.054 189.266 317.514 187.253 314.595C188.152 317.486 189.574 320.245 191.446 322.717C192.431 324.018 193.56 325.258 194.983 326.141C196.098 326.833 197.416 327.287 198.732 327.317C198.867 326.241 199.122 324.319 199.46 322.257C198.042 322.124 196.645 321.836 195.317 321.336Z" fill="#D68771"/>
<path d="M185.467 311.626C187.569 316.005 190.707 320.199 195.224 321.984C197.806 323.005 200.662 323.161 203.426 322.899C206.776 322.581 209.058 321.436 210.567 318.327C211.777 315.833 212.049 312.93 212.404 310.271C212.939 306.268 212.946 302.308 213.139 298.289C213.294 295.071 213.077 292.78 210.29 290.535C209.343 291.272 207.952 291.665 206.824 292.074C205.696 292.482 204.427 292.596 203.298 292.19C202.115 291.764 201.204 290.828 200.192 290.083C199.18 289.338 197.869 288.757 196.688 289.186C192.91 290.559 190.66 294.547 190.222 298.542C189.936 301.155 190.431 306.31 186.554 306.635C186.294 305.73 185.651 304.219 185.088 303.465C184.525 302.711 183.597 302.155 182.667 302.301C181.838 302.432 181.175 303.087 180.773 303.824C179.969 305.296 180.034 307.184 180.868 308.638C181.703 310.095 183.806 311.394 185.467 311.626Z" fill="#EF947A"/>
<path d="M197.801 313.502C200.65 314.776 203.821 315.321 206.932 315.07C206.024 316.434 204.765 318.049 203.151 318.333C201.883 318.557 200.576 317.949 199.679 317.026C198.782 316.102 198.253 314.707 197.801 313.502Z" fill="#F5EDEC"/>
<path d="M197.801 313.502C197.959 313.923 198.127 314.367 198.316 314.807C200.348 315.824 202.6 316.402 204.871 316.478C205.21 316.489 205.556 316.484 205.903 316.462C206.285 316.009 206.628 315.525 206.931 315.07C203.821 315.32 200.649 314.776 197.801 313.502Z" fill="#DDD7D7"/>
<path d="M201.843 311.753C201.685 311.73 201.564 311.593 201.566 311.429C201.568 311.25 201.715 311.108 201.894 311.11L205.17 311.154C204.966 308.306 204.886 305.419 204.934 302.566C204.937 302.387 205.084 302.245 205.263 302.248C205.442 302.251 205.584 302.398 205.581 302.577C205.532 305.528 205.619 308.516 205.842 311.458C205.849 311.549 205.817 311.638 205.755 311.704C205.693 311.77 205.606 311.807 205.515 311.806L201.886 311.757C201.871 311.756 201.857 311.755 201.843 311.753Z" fill="#505050"/>
<path d="M196.598 297.666C197.107 297.394 197.808 297.277 198.367 297.157C199.258 296.965 201.297 296.601 201.325 298.038C201.335 298.537 201.019 299.001 200.606 299.282C200.194 299.564 199.696 299.69 199.204 299.775C198.545 299.889 197.868 299.937 197.206 299.839C196.869 299.789 196.524 299.695 196.266 299.472C195.682 298.968 195.97 298.038 196.554 297.69C196.569 297.682 196.584 297.674 196.598 297.666ZM211.686 299.104C211.311 298.735 210.728 298.451 210.27 298.202C209.54 297.804 207.851 296.958 207.455 298.208C207.317 298.642 207.474 299.129 207.762 299.482C208.05 299.835 208.453 300.074 208.861 300.276C209.408 300.546 209.988 300.763 210.592 300.849C210.9 300.892 211.226 300.899 211.509 300.771C212.15 300.481 212.139 299.593 211.717 299.137C211.707 299.125 211.696 299.114 211.686 299.104Z" fill="#505050"/>
<path d="M199.167 305.552C199.078 306.164 198.511 306.588 197.899 306.499C197.287 306.41 196.863 305.843 196.952 305.231C197.041 304.619 197.608 304.195 198.22 304.284C198.832 304.373 199.255 304.94 199.167 305.552ZM209.496 305.16C208.884 305.071 208.317 305.496 208.228 306.108C208.139 306.72 208.564 307.287 209.175 307.376C209.787 307.465 210.354 307.04 210.443 306.429C210.532 305.817 210.108 305.249 209.496 305.16Z" fill="#505050"/>
<path d="M211.825 286.885C212.737 285.055 210.8 282.121 208.915 281.327C207.03 280.533 204.888 280.817 202.864 281.115C200.557 281.455 198.25 281.794 195.942 282.134C193.934 282.43 191.882 282.739 190.083 283.679C187.855 284.843 186.189 286.904 185.123 289.18C184.056 291.456 183.542 293.95 183.177 296.437C182.894 298.368 182.701 300.353 182.913 302.281C183.757 302.258 184.573 302.778 185.086 303.465C185.649 304.219 186.292 305.73 186.552 306.635C190.429 306.311 189.934 301.155 190.22 298.542C190.658 294.547 192.908 290.559 196.686 289.186C197.867 288.757 199.177 289.338 200.19 290.083C201.202 290.828 202.114 291.764 203.296 292.19C204.425 292.596 205.694 292.483 206.822 292.074C207.95 291.666 209.341 291.272 210.288 290.535C213.075 292.779 213.292 295.071 213.137 298.289C213.095 299.154 213.063 300.016 213.031 300.877C213.344 299.997 213.657 299.117 213.97 298.237C214.182 297.642 214.394 297.047 214.547 296.435C215.396 293.073 214.318 289.295 211.825 286.885Z" fill="#505050"/>
<path d="M184.923 308.708C184.877 308.701 184.833 308.682 184.797 308.65C184.08 308.018 183.006 307.584 182.185 307.594C182.051 307.595 181.941 307.488 181.94 307.354C181.938 307.22 182.046 307.11 182.18 307.109C182.977 307.1 183.942 307.435 184.712 307.97C184.598 306.876 183.784 305.84 182.726 305.533C182.597 305.496 182.523 305.361 182.561 305.232C182.598 305.103 182.733 305.029 182.862 305.067C184.309 305.487 185.335 306.99 185.2 308.49C185.192 308.581 185.133 308.66 185.048 308.693C185.007 308.709 184.964 308.714 184.923 308.708Z" fill="#505050"/>
<path d="M168.45 345.182C171.324 352.999 172.38 360.387 173.138 368.551C174.332 381.407 182.204 385.337 193.341 389.249L181.819 399.873L154.979 391.643L168.45 345.182Z" fill="#E5B75C"/>
<path d="M198.389 330.804L195.516 338.861L176.442 324.867L181.322 320.651L198.389 330.804Z" fill="#EAECE9"/>
<path d="M199.065 329.846L205.573 336.034L208.263 323.947L204.674 321.899L199.065 329.846Z" fill="#EAECE9"/>
<path d="M220.285 342.237C217.411 350.054 216.355 357.442 215.597 365.606C214.403 378.462 206.531 382.392 195.394 386.304L206.916 396.928L233.756 388.698L220.285 342.237Z" fill="#E5B75C"/>
<path d="M165.713 365.763H222.871C225.384 365.763 227.421 367.8 227.421 370.313V408.035C227.421 410.548 225.384 412.585 222.871 412.585H165.713C163.2 412.585 161.163 410.548 161.163 408.035V370.313C161.163 367.8 163.2 365.763 165.713 365.763Z" fill="#9AB4EF"/>
<path d="M162.265 414.789H226.319C226.928 414.789 227.421 414.296 227.421 413.687C227.421 413.078 226.928 412.585 226.319 412.585H162.265C161.657 412.585 161.163 413.078 161.163 413.687C161.163 414.296 161.656 414.789 162.265 414.789Z" fill="#746980"/>
<path d="M172.266 414.074C172.525 414.074 172.736 413.864 172.736 413.604C172.736 413.344 172.525 413.134 172.266 413.134C172.006 413.134 171.796 413.344 171.796 413.604C171.796 413.864 172.006 414.074 172.266 414.074Z" fill="#9E8FAE"/>
<path d="M173.87 414.074L177.66 414.074L177.66 413.135L173.87 413.135L173.87 414.074Z" fill="#9E8FAE"/>
</g>
</g>
<defs>
<clipPath id="clip0_388_25414">
<rect width="500" height="500" fill="white"/>
</clipPath>
<clipPath id="clip1_388_25414">
<rect width="500" height="500" fill="white"/>
</clipPath>
</defs>
</svg>
