<svg width="40" height="40" viewBox="0 0 40 40" fill="none" xmlns="http://www.w3.org/2000/svg">
<rect width="40" height="40" rx="20" fill="white"/>
<rect width="40" height="40" rx="20" fill="url(#paint0_linear_61_16189)"/>
<path d="M14.0983 11.8345C14.098 12.4533 13.8519 13.0467 13.4141 13.4841C12.9763 13.9214 12.3826 14.167 11.7638 14.1667C11.145 14.1664 10.5516 13.9202 10.1142 13.4824C9.67687 13.0446 9.43133 12.451 9.43164 11.8322C9.43195 11.2133 9.67808 10.62 10.1159 10.1826C10.5537 9.74523 11.1473 9.49969 11.7661 9.5C12.385 9.50031 12.9783 9.74644 13.4157 10.1842C13.8531 10.622 14.0986 11.2157 14.0983 11.8345ZM14.1683 15.8945H9.50164V30.5012H14.1683V15.8945ZM21.5416 15.8945H16.8983V30.5012H21.495V22.8362C21.495 18.5662 27.06 18.1695 27.06 22.8362V30.5012H31.6683V21.2495C31.6683 14.0512 23.4316 14.3195 21.495 17.8545L21.5416 15.8945Z" fill="white"/>
<defs>
<linearGradient id="paint0_linear_61_16189" x1="0" y1="20" x2="40" y2="20" gradientUnits="userSpaceOnUse">
<stop stop-color="#FF3934"/>
<stop offset="1" stop-color="#FF7033"/>
</linearGradient>
</defs>
</svg>
