<svg width="2583" height="1314" viewBox="0 0 2583 1314" fill="none" xmlns="http://www.w3.org/2000/svg">
<g opacity="0.5">
<g opacity="0.05">
<path d="M2006.58 675.908C2056.32 677.661 2096.94 670.681 2097.3 660.319C2097.67 649.958 2057.64 640.137 2007.91 638.384C1958.17 636.631 1917.55 643.611 1917.19 653.974C1916.82 664.335 1956.85 674.155 2006.58 675.908Z" stroke="url(#paint0_linear_61_16031)" stroke-miterlimit="10"/>
<path d="M2006.96 676.612C2060.7 677.447 2104.39 669.439 2104.56 658.726C2104.73 648.014 2061.3 638.653 2007.56 637.818C1953.83 636.984 1910.13 644.99 1909.96 655.704C1909.8 666.416 1953.22 675.779 2006.96 676.612Z" stroke="url(#paint1_linear_61_16031)" stroke-miterlimit="10"/>
<path d="M2007.58 677.286C2065.65 677.08 2112.69 667.948 2112.65 656.886C2112.61 645.827 2065.51 637.028 2007.44 637.233C1949.37 637.44 1902.34 646.573 1902.37 657.632C1902.41 668.693 1949.52 677.491 2007.58 677.286Z" stroke="url(#paint2_linear_61_16031)" stroke-miterlimit="10"/>
<path d="M2007.44 677.851C2069.97 676.475 2120.47 666.117 2120.22 654.716C2119.97 643.313 2069.07 635.185 2006.53 636.559C1943.99 637.935 1893.5 648.292 1893.75 659.696C1894 671.097 1944.9 679.224 2007.44 677.851Z" stroke="url(#paint3_linear_61_16031)" stroke-miterlimit="10"/>
<path d="M2008.14 678.613C2075.31 675.93 2129.38 664.235 2128.91 652.494C2128.44 640.752 2073.61 633.409 2006.44 636.093C1939.27 638.778 1885.2 650.472 1885.67 662.212C1886.14 673.954 1940.97 681.297 2008.14 678.613Z" stroke="url(#paint4_linear_61_16031)" stroke-miterlimit="10"/>
<path d="M2008.52 679.004C2080.63 674.856 2138.53 661.706 2137.83 649.629C2137.14 637.554 2078.12 631.125 2006 635.273C1933.89 639.419 1875.99 652.569 1876.69 664.646C1877.38 676.723 1936.4 683.151 2008.52 679.004Z" stroke="url(#paint5_linear_61_16031)" stroke-miterlimit="10"/>
<path d="M2008.6 679.944C2085.8 674.187 2147.62 659.322 2146.68 646.743C2145.74 634.164 2082.4 628.634 2005.2 634.39C1928 640.149 1866.18 655.014 1867.12 667.593C1868.06 680.172 1931.4 685.702 2008.6 679.944Z" stroke="url(#paint6_linear_61_16031)" stroke-miterlimit="10"/>
<path d="M2009.11 680.779C2091.71 673.232 2157.7 656.513 2156.51 643.434C2155.31 630.357 2087.38 625.872 2004.78 633.42C1922.19 640.967 1856.2 657.686 1857.39 670.765C1858.59 683.842 1926.51 688.325 2009.11 680.779Z" stroke="url(#paint7_linear_61_16031)" stroke-miterlimit="10"/>
<path d="M2009.86 681.648C2097.83 672.159 2167.95 653.464 2166.49 639.89C2165.02 626.319 2092.53 623.008 2004.56 632.498C1916.6 641.987 1846.47 660.683 1847.94 674.256C1849.4 687.828 1921.9 691.139 2009.86 681.648Z" stroke="url(#paint8_linear_61_16031)" stroke-miterlimit="10"/>
<path d="M2010.23 682.94C2103.86 671.326 2178.35 650.513 2176.61 636.45C2174.86 622.388 2097.54 620.402 2003.91 632.016C1910.27 643.63 1835.78 664.445 1837.53 678.506C1839.27 692.569 1916.59 694.554 2010.23 682.94Z" stroke="url(#paint9_linear_61_16031)" stroke-miterlimit="10"/>
<path d="M2011.27 683.918C2110.87 669.958 2189.95 646.71 2187.88 631.992C2185.82 617.275 2103.4 616.659 2003.8 630.618C1904.19 644.578 1825.12 667.827 1827.18 682.544C1829.24 697.262 1911.66 697.878 2011.27 683.918Z" stroke="url(#paint10_linear_61_16031)" stroke-miterlimit="10"/>
<path d="M2011.39 685.148C2116.9 668.688 2200.49 642.888 2198.1 627.521C2195.7 612.156 2108.22 613.042 2002.71 629.502C1897.19 645.962 1813.6 671.762 1815.99 687.129C1818.39 702.496 1905.87 701.608 2011.39 685.148Z" stroke="url(#paint11_linear_61_16031)" stroke-miterlimit="10"/>
<path d="M2011.88 686.032C2123.6 666.835 2211.93 638.298 2209.18 622.289C2206.43 606.282 2113.64 608.866 2001.92 628.062C1890.2 647.257 1801.87 675.796 1804.62 691.803C1807.37 707.812 1900.17 705.227 2011.88 686.032Z" stroke="url(#paint12_linear_61_16031)" stroke-miterlimit="10"/>
<path d="M2012.9 687.204C2130.94 665.063 2224.1 633.618 2220.98 616.974C2217.86 600.33 2119.64 604.787 2001.6 626.93C1883.56 649.071 1790.4 680.516 1793.52 697.16C1796.64 713.804 1894.86 709.347 2012.9 687.204Z" stroke="url(#paint13_linear_61_16031)" stroke-miterlimit="10"/>
<path d="M2013.7 688.911C2138.34 663.577 2236.5 628.9 2232.96 611.458C2229.41 594.015 2125.5 600.413 2000.86 625.746C1876.22 651.08 1778.05 685.757 1781.6 703.199C1785.15 720.642 1889.06 714.244 2013.7 688.911Z" stroke="url(#paint14_linear_61_16031)" stroke-miterlimit="10"/>
<path d="M2014.42 690.569C2145.58 661.844 2248.64 623.641 2244.61 605.242C2240.58 586.844 2130.99 595.213 1999.83 623.94C1868.67 652.664 1765.61 690.867 1769.64 709.266C1773.67 727.667 1883.26 719.295 2014.42 690.569Z" stroke="url(#paint15_linear_61_16031)" stroke-miterlimit="10"/>
<path d="M2015.66 692.266C2153.45 659.906 2261.46 617.988 2256.92 598.642C2252.37 579.296 2136.99 589.844 1999.21 622.204C1861.42 654.566 1753.41 696.482 1757.96 715.83C1762.5 735.177 1877.88 724.628 2015.66 692.266Z" stroke="url(#paint16_linear_61_16031)" stroke-miterlimit="10"/>
<path d="M2016.65 693.923C2161.13 657.681 2274.14 611.862 2269.05 591.58C2263.97 571.297 2142.71 584.233 1998.22 620.475C1853.74 656.715 1740.73 702.534 1745.82 722.818C1750.9 743.099 1872.16 730.162 2016.65 693.923Z" stroke="url(#paint17_linear_61_16031)" stroke-miterlimit="10"/>
<path d="M2017.4 696.024C2168.83 655.61 2286.96 605.521 2281.26 584.152C2275.56 562.781 2148.17 578.22 1996.74 618.635C1845.31 659.049 1727.18 709.138 1732.88 730.507C1738.58 751.879 1865.97 736.44 2017.4 696.024Z" stroke="url(#paint18_linear_61_16031)" stroke-miterlimit="10"/>
<path d="M2018.76 697.938C2176.88 653.151 2299.91 598.648 2293.55 576.203C2287.19 553.756 2153.86 571.868 1995.74 616.654C1837.62 661.438 1714.59 715.942 1720.95 738.387C1727.31 760.833 1860.64 742.722 2018.76 697.938Z" stroke="url(#paint19_linear_61_16031)" stroke-miterlimit="10"/>
<path d="M2020.17 700.206C2185.19 650.718 2313.18 591.275 2306.03 567.44C2298.88 543.606 2159.31 564.403 1994.28 613.892C1829.26 663.382 1701.27 722.825 1708.42 746.66C1715.57 770.494 1855.14 749.697 2020.17 700.206Z" stroke="url(#paint20_linear_61_16031)" stroke-miterlimit="10"/>
<path d="M2021.57 702.589C2193.39 648.158 2326.25 583.734 2318.32 558.694C2310.39 533.654 2164.67 557.48 1992.85 611.911C1821.03 666.341 1688.17 730.765 1696.1 755.805C1704.03 780.845 1849.75 757.019 2021.57 702.589Z" stroke="url(#paint21_linear_61_16031)" stroke-miterlimit="10"/>
<path d="M2023.28 704.982C2201.76 645.338 2339.26 575.464 2330.38 548.913C2321.51 522.363 2169.63 549.189 1991.15 608.833C1812.67 668.476 1675.18 738.351 1684.05 764.902C1692.92 791.453 1844.8 764.625 2023.28 704.982Z" stroke="url(#paint22_linear_61_16031)" stroke-miterlimit="10"/>
<path d="M2025.2 708.434C2210.38 643.28 2352.45 567.6 2342.53 539.4C2332.61 511.198 2174.45 541.155 1989.26 606.309C1804.08 671.462 1662.01 747.14 1671.93 775.342C1681.85 803.542 1840.02 773.586 2025.2 708.434Z" stroke="url(#paint23_linear_61_16031)" stroke-miterlimit="10"/>
<path d="M2026.99 711.209C2218.54 640.311 2364.87 558.665 2353.83 528.847C2342.8 499.03 2178.57 532.33 1987.02 603.229C1795.47 674.127 1649.14 755.773 1660.18 785.592C1671.21 815.41 1835.44 782.107 2026.99 711.209Z" stroke="url(#paint24_linear_61_16031)" stroke-miterlimit="10"/>
<path d="M2029.64 714.333C2227.57 637.327 2378.01 549.181 2365.67 517.454C2353.32 485.729 2182.87 522.435 1984.94 599.443C1787.02 676.451 1636.57 764.598 1648.92 796.323C1661.26 828.05 1831.72 791.341 2029.64 714.333Z" stroke="url(#paint25_linear_61_16031)" stroke-miterlimit="10"/>
<path d="M2032.19 718.189C2236.15 634.861 2390.32 539.948 2376.53 506.194C2362.74 472.441 2186.22 512.628 1982.25 595.958C1778.29 679.286 1624.13 774.2 1637.92 807.953C1651.71 841.707 1828.23 801.517 2032.19 718.189Z" stroke="url(#paint26_linear_61_16031)" stroke-miterlimit="10"/>
<path d="M2035.04 722.607C2244.83 632.651 2402.38 530.503 2386.92 494.452C2371.46 458.401 2188.86 502.098 1979.06 592.052C1769.26 682.007 1611.72 784.153 1627.17 820.205C1642.63 856.257 1825.24 812.56 2035.04 722.607Z" stroke="url(#paint27_linear_61_16031)" stroke-miterlimit="10"/>
<path d="M2038.28 726.476C2253.39 629.696 2413.8 520.194 2396.57 481.902C2379.34 443.609 2190.99 491.024 1975.89 587.806C1760.79 684.587 1600.38 794.087 1617.61 832.379C1634.84 870.673 1823.18 823.259 2038.28 726.476Z" stroke="url(#paint28_linear_61_16031)" stroke-miterlimit="10"/>
<path d="M2041.95 731.148C2262.13 627.218 2424.95 509.778 2405.62 468.838C2386.3 427.896 2192.14 478.959 1971.97 582.889C1751.8 686.818 1588.98 804.259 1608.3 845.2C1627.63 886.14 1821.78 835.077 2041.95 731.148Z" stroke="url(#paint29_linear_61_16031)" stroke-miterlimit="10"/>
<path d="M2046.56 736.333C2271.41 624.984 2436.1 499.191 2414.4 455.366C2392.7 411.541 2192.82 466.281 1967.97 577.63C1743.11 688.98 1578.43 814.773 1600.13 858.597C1621.83 902.422 1821.71 847.682 2046.56 736.333Z" stroke="url(#paint30_linear_61_16031)" stroke-miterlimit="10"/>
<path d="M2051.42 741.764C2280.53 622.733 2446.56 488.323 2422.26 441.552C2397.96 394.78 2192.53 453.357 1963.43 572.39C1734.32 691.421 1568.3 825.831 1592.6 872.601C1616.9 919.374 1822.32 860.795 2051.42 741.764Z" stroke="url(#paint31_linear_61_16031)" stroke-miterlimit="10"/>
<path d="M2056.96 748.012C2289.54 621.189 2455.9 477.669 2428.51 427.449C2401.13 377.23 2190.38 439.328 1957.79 566.149C1725.2 692.972 1558.85 836.492 1586.23 886.712C1613.62 936.933 1824.37 874.834 2056.96 748.012Z" stroke="url(#paint32_linear_61_16031)" stroke-miterlimit="10"/>
<path d="M2062.96 754.501C2298.57 619.627 2464.65 466.766 2433.92 413.075C2403.18 359.384 2187.27 425.197 1951.66 560.071C1716.05 694.944 1549.97 847.805 1580.7 901.496C1611.44 955.187 1827.35 889.375 2062.96 754.501Z" stroke="url(#paint33_linear_61_16031)" stroke-miterlimit="10"/>
<path d="M2069.69 761.294C2307.65 618.171 2472.47 455.451 2437.82 397.85C2403.17 340.248 2182.19 409.578 1944.23 552.701C1706.27 695.825 1541.45 858.545 1576.1 916.147C1610.74 973.749 1831.73 904.419 2069.69 761.294Z" stroke="url(#paint34_linear_61_16031)" stroke-miterlimit="10"/>
<path d="M2078 769.535C2317.68 618.002 2480.24 444.955 2441.08 383.026C2401.93 321.097 2175.89 393.736 1936.21 545.271C1696.53 696.806 1533.97 869.851 1573.12 931.78C1612.27 993.709 1838.31 921.07 2078 769.535Z" stroke="url(#paint35_linear_61_16031)" stroke-miterlimit="10"/>
<path d="M2087.36 777.697C2327.93 617.657 2487.09 434.034 2442.87 367.562C2398.65 301.091 2167.78 376.944 1927.22 536.984C1686.66 697.023 1527.5 880.646 1571.72 947.116C1615.94 1013.59 1846.8 937.736 2087.36 777.697Z" stroke="url(#paint36_linear_61_16031)" stroke-miterlimit="10"/>
<path d="M2098.06 786.642C2338.79 617.948 2493.34 423.261 2443.26 351.792C2393.18 280.323 2157.43 359.139 1916.7 527.832C1675.97 696.523 1521.43 891.213 1571.51 962.68C1621.59 1034.15 1857.34 955.333 2098.06 786.642Z" stroke="url(#paint37_linear_61_16031)" stroke-miterlimit="10"/>
<path d="M2109.71 795.943C2349.71 618.578 2498.32 412.608 2441.62 335.898C2384.93 259.187 2144.42 340.782 1904.42 518.148C1664.42 695.512 1515.82 901.48 1572.51 978.192C1629.2 1054.9 1869.71 973.307 2109.71 795.943Z" stroke="url(#paint38_linear_61_16031)" stroke-miterlimit="10"/>
<path d="M2123.59 806.779C2362.01 620.763 2503.06 403.041 2438.64 320.481C2374.23 237.923 2128.74 321.792 1890.33 507.808C1651.92 693.823 1510.86 911.547 1575.28 994.105C1639.69 1076.66 1885.18 992.794 2123.59 806.779Z" stroke="url(#paint39_linear_61_16031)" stroke-miterlimit="10"/>
<path d="M2139.45 817.56C2375.38 622.911 2507.34 393.263 2434.21 304.625C2361.08 215.988 2110.55 301.926 1874.62 496.576C1638.7 691.223 1506.73 920.873 1579.86 1009.51C1652.99 1098.15 1903.53 1012.21 2139.45 817.56Z" stroke="url(#paint40_linear_61_16031)" stroke-miterlimit="10"/>
<path d="M2157.72 829.732C2390.27 626.566 2511.31 384.648 2428.09 289.394C2344.87 194.138 2088.89 281.618 1856.35 484.784C1623.81 687.95 1502.76 929.868 1585.98 1025.12C1669.2 1120.38 1925.18 1032.9 2157.72 829.732Z" stroke="url(#paint41_linear_61_16031)" stroke-miterlimit="10"/>
<path d="M2178.79 842.384C2407.05 630.831 2515.25 376.422 2420.45 274.142C2325.66 171.862 2063.78 260.444 1835.52 471.995C1607.26 683.546 1499.06 937.957 1593.85 1040.24C1688.65 1142.52 1950.53 1053.94 2178.79 842.384Z" stroke="url(#paint42_linear_61_16031)" stroke-miterlimit="10"/>
<path d="M2202.52 855.612C2425.71 635.772 2519.06 368.636 2411.02 258.949C2302.98 149.263 2034.46 238.56 1811.27 458.402C1588.08 678.244 1494.73 945.379 1602.77 1055.06C1710.82 1164.75 1979.33 1075.45 2202.52 855.612Z" stroke="url(#paint43_linear_61_16031)" stroke-miterlimit="10"/>
<path d="M2230.21 869.875C2447.49 642.018 2523.77 362.079 2400.59 244.615C2277.41 127.15 2001.41 216.64 1784.13 444.497C1566.85 672.354 1490.57 952.293 1613.75 1069.76C1736.93 1187.22 2012.93 1097.73 2230.21 869.875Z" stroke="url(#paint44_linear_61_16031)" stroke-miterlimit="10"/>
<path d="M2261.41 884.402C2471.9 648.878 2528.7 356.197 2388.26 230.679C2247.82 105.163 1963.33 194.343 1752.83 429.868C1542.33 665.392 1485.54 958.073 1625.98 1083.59C1766.42 1209.11 2050.91 1119.93 2261.41 884.402Z" stroke="url(#paint45_linear_61_16031)" stroke-miterlimit="10"/>
<path d="M2297.24 899.82C2500.38 656.804 2535.12 351.183 2374.83 217.196C2214.55 83.2086 1919.93 171.593 1716.79 414.61C1513.65 657.628 1478.9 963.249 1639.19 1097.24C1799.48 1231.22 2094.1 1142.84 2297.24 899.82Z" stroke="url(#paint46_linear_61_16031)" stroke-miterlimit="10"/>
<path d="M2338.08 915.046C2533.21 664.875 2543.28 346.532 2360.56 204.005C2177.84 61.4782 1871.52 148.738 1676.38 398.909C1481.24 649.077 1471.18 967.421 1653.9 1109.95C1836.62 1252.47 2142.94 1165.21 2338.08 915.046Z" stroke="url(#paint47_linear_61_16031)" stroke-miterlimit="10"/>
<path d="M2383.82 930.805C2570.35 673.96 2552.78 343.185 2344.59 192C2136.4 40.8137 1816.43 126.467 1629.91 383.311C1443.39 640.156 1460.95 970.931 1669.14 1122.12C1877.33 1273.3 2197.3 1187.65 2383.82 930.805Z" stroke="url(#paint48_linear_61_16031)" stroke-miterlimit="10"/>
<path d="M2436.38 946.444C2613.99 683.121 2565.88 340.085 2328.92 180.254C2091.95 20.422 1755.87 104.317 1578.26 367.641C1400.65 630.964 1448.76 973.998 1685.72 1133.83C1922.68 1293.66 2258.77 1209.77 2436.38 946.444Z" stroke="url(#paint49_linear_61_16031)" stroke-miterlimit="10"/>
<path d="M1719.64 1155.23C1994.7 1314.04 2346.42 1219.8 2505.23 944.734C2664.03 669.673 2569.79 317.953 2294.73 159.147C2019.67 0.341156 1667.95 94.5829 1509.14 369.644C1350.34 644.705 1444.58 996.425 1719.64 1155.23Z" stroke="url(#paint50_linear_61_16031)" stroke-miterlimit="10"/>
</g>
<g opacity="0.05">
<path d="M657.872 635.831C601.13 633.831 554.794 641.794 554.378 653.616C553.961 665.436 599.622 676.64 656.362 678.639C713.105 680.639 759.44 672.676 759.856 660.854C760.273 649.034 714.612 637.831 657.872 635.831Z" stroke="url(#paint51_linear_61_16031)" stroke-miterlimit="10"/>
<path d="M657.443 635.027C596.139 634.074 546.288 643.21 546.098 655.433C545.908 667.653 595.45 678.332 656.754 679.285C718.058 680.236 767.908 671.102 768.099 658.88C768.289 646.659 718.747 635.978 657.443 635.027Z" stroke="url(#paint52_linear_61_16031)" stroke-miterlimit="10"/>
<path d="M656.733 634.26C590.491 634.494 536.827 644.913 536.873 657.532C536.917 670.148 590.653 680.187 656.895 679.953C723.137 679.716 776.801 669.298 776.757 656.681C776.713 644.062 722.975 634.026 656.733 634.26Z" stroke="url(#paint53_linear_61_16031)" stroke-miterlimit="10"/>
<path d="M656.899 633.616C585.554 635.185 527.949 647.001 528.235 660.009C528.522 673.018 586.589 682.289 657.934 680.722C729.278 679.153 786.883 667.337 786.597 654.328C786.312 641.321 728.243 632.049 656.899 633.616Z" stroke="url(#paint54_linear_61_16031)" stroke-miterlimit="10"/>
<path d="M656.095 632.745C579.466 635.805 517.78 649.146 518.316 662.542C518.85 675.937 581.403 684.314 658.033 681.252C734.662 678.189 796.346 664.848 795.812 651.454C795.277 638.059 732.722 629.682 656.095 632.745Z" stroke="url(#paint55_linear_61_16031)" stroke-miterlimit="10"/>
<path d="M655.665 632.3C573.397 637.032 507.347 652.035 508.14 665.812C508.931 679.588 576.266 686.922 658.534 682.19C740.803 677.46 806.853 662.458 806.061 648.68C805.268 634.902 737.935 627.57 655.665 632.3Z" stroke="url(#paint56_linear_61_16031)" stroke-miterlimit="10"/>
<path d="M655.575 631.227C567.506 637.795 496.98 654.753 498.049 669.103C499.12 683.453 571.381 689.763 659.452 683.195C747.521 676.626 818.047 659.667 816.978 645.317C815.907 630.967 743.645 624.657 655.575 631.227Z" stroke="url(#paint57_linear_61_16031)" stroke-miterlimit="10"/>
<path d="M654.989 630.274C560.759 638.884 485.475 657.958 486.839 672.878C488.202 687.797 565.695 692.913 659.925 684.302C754.155 675.693 829.437 656.619 828.074 641.698C826.711 626.779 749.219 621.665 654.989 630.274Z" stroke="url(#paint58_linear_61_16031)" stroke-miterlimit="10"/>
<path d="M654.129 629.282C553.778 640.107 473.78 661.435 475.449 676.921C477.121 692.404 559.827 696.181 660.178 685.354C760.531 674.528 840.529 653.2 838.858 637.715C837.188 622.232 754.482 618.455 654.129 629.282Z" stroke="url(#paint59_linear_61_16031)" stroke-miterlimit="10"/>
<path d="M653.716 627.809C546.898 641.058 461.916 664.802 463.905 680.846C465.895 696.887 554.104 699.153 660.923 685.904C767.743 672.655 852.723 648.908 850.734 632.867C848.744 616.823 760.537 614.559 653.716 627.809Z" stroke="url(#paint60_linear_61_16031)" stroke-miterlimit="10"/>
<path d="M652.53 626.693C538.9 642.618 448.689 669.141 451.043 685.931C453.397 702.721 547.421 703.424 661.053 687.498C774.684 671.573 864.894 645.05 862.54 628.26C860.186 611.47 766.163 610.767 652.53 626.693Z" stroke="url(#paint61_linear_61_16031)" stroke-miterlimit="10"/>
<path d="M652.392 625.291C532.018 644.069 436.653 673.502 439.387 691.033C442.122 708.562 541.92 707.551 662.295 688.773C782.669 669.995 878.036 640.562 875.301 623.031C872.567 605.5 772.766 606.513 652.392 625.291Z" stroke="url(#paint62_linear_61_16031)" stroke-miterlimit="10"/>
<path d="M651.828 624.281C524.38 646.182 423.607 678.737 426.745 697.001C429.884 715.262 535.744 712.314 663.192 690.415C790.64 668.517 891.412 635.959 888.275 617.697C885.136 599.434 779.276 602.382 651.828 624.281Z" stroke="url(#paint63_linear_61_16031)" stroke-miterlimit="10"/>
<path d="M650.662 622.944C515.998 648.203 409.719 684.076 413.28 703.064C416.843 722.052 528.896 716.967 663.561 691.706C798.223 666.447 904.503 630.574 900.94 611.586C897.379 592.598 785.324 597.682 650.662 622.944Z" stroke="url(#paint64_linear_61_16031)" stroke-miterlimit="10"/>
<path d="M649.756 620.996C507.565 649.899 395.576 689.458 399.622 709.357C403.665 729.256 522.212 721.958 664.403 693.057C806.593 664.155 918.584 624.595 914.539 604.696C910.493 584.797 791.947 592.096 649.756 620.996Z" stroke="url(#paint65_linear_61_16031)" stroke-miterlimit="10"/>
<path d="M648.927 619.105C499.298 651.875 381.726 695.458 386.322 716.448C390.92 737.437 515.944 727.889 665.575 695.117C815.204 662.348 932.775 618.765 928.179 597.775C923.582 576.783 798.556 586.333 648.927 619.105Z" stroke="url(#paint66_linear_61_16031)" stroke-miterlimit="10"/>
<path d="M647.512 617.17C490.325 654.087 367.102 701.908 372.287 723.979C377.469 746.049 509.097 734.015 666.286 697.098C823.474 660.179 946.696 612.36 941.512 590.287C936.329 568.217 804.7 580.251 647.512 617.17Z" stroke="url(#paint67_linear_61_16031)" stroke-miterlimit="10"/>
<path d="M646.393 615.28C481.557 656.625 352.636 708.898 358.441 732.035C364.243 755.175 502.573 740.416 667.409 699.071C832.245 657.728 961.168 605.456 955.363 582.316C949.56 559.178 811.229 573.937 646.393 615.28Z" stroke="url(#paint68_linear_61_16031)" stroke-miterlimit="10"/>
<path d="M645.535 612.882C472.778 658.987 338.008 716.129 344.513 740.508C351.021 764.889 496.342 747.276 669.099 701.169C841.855 655.063 976.628 597.921 970.12 573.542C963.613 549.162 818.291 566.775 645.535 612.882Z" stroke="url(#paint69_linear_61_16031)" stroke-miterlimit="10"/>
<path d="M643.979 610.699C463.594 661.793 323.241 723.971 330.493 749.577C337.748 775.185 489.859 754.523 670.246 703.43C850.631 652.338 990.984 590.16 983.732 564.554C976.478 538.946 824.367 559.608 643.979 610.699Z" stroke="url(#paint70_linear_61_16031)" stroke-miterlimit="10"/>
<path d="M642.374 608.111C454.11 664.569 308.102 732.382 316.257 759.573C324.412 786.764 483.641 763.038 671.905 706.58C860.169 650.12 1006.18 582.307 998.022 555.116C989.867 527.925 830.638 551.651 642.374 608.111Z" stroke="url(#paint71_linear_61_16031)" stroke-miterlimit="10"/>
<path d="M640.774 605.392C444.756 667.489 293.189 740.986 302.239 769.552C311.286 798.118 477.527 770.937 673.544 708.84C869.562 646.746 1021.13 573.249 1012.08 544.683C1003.03 516.117 836.79 543.298 640.774 605.392Z" stroke="url(#paint72_linear_61_16031)" stroke-miterlimit="10"/>
<path d="M638.821 602.663C435.208 670.706 278.351 750.42 288.473 780.71C298.594 810.999 471.863 780.395 675.476 712.352C879.091 644.31 1035.95 564.594 1025.83 534.304C1015.7 504.015 842.436 534.621 638.821 602.663Z" stroke="url(#paint73_linear_61_16031)" stroke-miterlimit="10"/>
<path d="M636.64 598.725C425.381 673.054 263.298 759.391 274.617 791.562C285.937 823.736 466.372 789.561 677.631 715.232C888.891 640.903 1050.97 554.567 1039.65 522.394C1028.33 490.223 847.898 524.398 636.64 598.725Z" stroke="url(#paint74_linear_61_16031)" stroke-miterlimit="10"/>
<path d="M634.593 595.559C416.072 676.441 249.13 769.584 261.721 803.601C274.311 837.618 461.666 799.628 680.19 718.745C898.711 637.863 1065.65 544.719 1053.06 510.701C1040.47 476.684 853.117 514.676 634.593 595.559Z" stroke="url(#paint75_linear_61_16031)" stroke-miterlimit="10"/>
<path d="M631.566 591.995C405.768 679.846 234.138 780.405 248.22 816.6C262.302 852.793 456.763 810.917 682.561 723.064C908.361 635.212 1079.99 534.653 1065.91 498.46C1051.83 462.265 857.363 504.143 631.566 591.995Z" stroke="url(#paint76_linear_61_16031)" stroke-miterlimit="10"/>
<path d="M628.657 587.594C395.974 682.656 220.1 790.936 235.832 829.443C251.565 867.949 452.944 822.103 685.627 727.038C918.311 631.975 1094.18 523.695 1078.45 485.189C1062.72 446.682 861.341 492.531 628.657 587.594Z" stroke="url(#paint77_linear_61_16031)" stroke-miterlimit="10"/>
<path d="M625.412 582.556C386.071 685.179 206.341 801.712 223.976 842.841C241.611 883.968 449.931 834.118 689.272 731.497C928.616 628.874 1108.34 512.343 1090.71 471.214C1073.08 430.085 864.755 479.935 625.412 582.556Z" stroke="url(#paint78_linear_61_16031)" stroke-miterlimit="10"/>
<path d="M621.707 578.142C376.31 688.552 193.313 813.474 212.97 857.159C232.625 900.844 447.491 846.752 692.885 736.34C938.279 625.931 1121.28 501.01 1101.62 457.325C1081.97 413.638 867.101 467.73 621.707 578.142Z" stroke="url(#paint79_linear_61_16031)" stroke-miterlimit="10"/>
<path d="M617.522 572.811C366.342 691.377 180.595 825.355 202.641 872.06C224.688 918.768 446.182 860.515 697.361 741.948C948.539 623.383 1134.29 489.404 1112.24 442.698C1090.19 395.992 868.701 454.246 617.522 572.811Z" stroke="url(#paint80_linear_61_16031)" stroke-miterlimit="10"/>
<path d="M612.265 566.898C355.745 693.928 167.866 837.435 192.625 887.432C217.384 937.428 445.406 874.979 701.923 747.949C958.443 620.92 1146.32 477.412 1121.56 427.415C1096.8 377.419 868.785 439.868 612.265 566.898Z" stroke="url(#paint81_linear_61_16031)" stroke-miterlimit="10"/>
<path d="M606.716 560.701C345.348 696.494 155.939 849.832 183.663 903.189C211.384 956.549 445.739 889.722 707.107 753.927C968.475 618.133 1157.88 464.795 1130.16 411.438C1102.44 358.079 868.083 424.907 606.716 560.701Z" stroke="url(#paint82_linear_61_16031)" stroke-miterlimit="10"/>
<path d="M600.407 553.574C335.064 698.257 145.285 861.988 176.525 919.28C207.764 976.571 448.19 905.729 713.535 761.048C978.878 616.365 1168.66 452.634 1137.42 395.342C1106.18 338.049 865.75 408.893 600.407 553.574Z" stroke="url(#paint83_linear_61_16031)" stroke-miterlimit="10"/>
<path d="M593.555 546.171C324.767 700.037 135.296 874.425 170.36 935.677C205.424 996.929 451.743 921.848 720.531 767.981C989.319 614.114 1178.79 439.726 1143.73 378.474C1108.66 317.222 862.343 392.302 593.555 546.171Z" stroke="url(#paint84_linear_61_16031)" stroke-miterlimit="10"/>
<path d="M585.878 538.421C314.409 701.699 126.382 887.335 165.905 953.046C205.431 1018.76 457.539 939.667 729.007 776.389C1000.48 613.11 1188.51 427.474 1148.98 361.761C1109.46 296.047 857.346 375.14 585.878 538.421Z" stroke="url(#paint85_linear_61_16031)" stroke-miterlimit="10"/>
<path d="M576.403 529.02C302.967 701.893 117.514 899.308 162.182 969.958C206.85 1040.61 464.721 957.74 738.157 784.865C1011.59 611.991 1197.04 414.577 1152.38 343.927C1107.71 273.277 849.837 356.145 576.403 529.02Z" stroke="url(#paint86_linear_61_16031)" stroke-miterlimit="10"/>
<path d="M565.717 519.708C291.279 702.285 109.7 911.766 160.149 987.599C210.598 1063.43 473.972 976.896 748.409 794.319C1022.85 611.742 1204.43 402.26 1153.98 326.43C1103.53 250.597 840.156 337.131 565.717 519.708Z" stroke="url(#paint87_linear_61_16031)" stroke-miterlimit="10"/>
<path d="M553.509 509.504C278.88 701.954 102.568 924.058 159.702 1005.59C216.837 1087.12 485.783 997.21 760.412 804.761C1035.04 612.314 1211.35 390.207 1154.22 308.676C1097.08 227.143 828.138 317.057 553.509 509.504Z" stroke="url(#paint88_linear_61_16031)" stroke-miterlimit="10"/>
<path d="M540.22 498.893C266.422 701.235 96.8939 936.21 161.569 1023.72C226.244 1111.24 500.629 1018.15 774.427 815.808C1048.23 613.466 1217.75 378.493 1153.08 290.979C1088.4 203.465 814.019 296.551 540.22 498.893Z" stroke="url(#paint89_linear_61_16031)" stroke-miterlimit="10"/>
<path d="M524.384 486.529C252.398 698.741 91.4811 947.124 164.967 1041.31C238.452 1135.49 518.514 1039.81 790.5 827.603C1062.49 615.393 1223.4 367.008 1149.92 272.824C1076.43 178.638 796.369 274.319 524.384 486.529Z" stroke="url(#paint90_linear_61_16031)" stroke-miterlimit="10"/>
<path d="M506.291 474.231C237.145 696.292 86.5929 958.28 170.022 1059.4C253.45 1160.52 539.269 1062.48 808.416 840.418C1077.56 618.36 1228.12 356.369 1144.69 255.249C1061.26 154.13 775.438 252.171 506.291 474.231Z" stroke="url(#paint91_linear_61_16031)" stroke-miterlimit="10"/>
<path d="M485.447 460.345C220.158 692.122 82.0625 968.108 177.005 1076.78C271.946 1185.45 563.972 1085.65 829.261 853.871C1094.55 622.094 1232.64 346.108 1137.7 237.44C1042.76 128.769 750.736 228.568 485.447 460.345Z" stroke="url(#paint92_linear_61_16031)" stroke-miterlimit="10"/>
<path d="M461.411 445.911C201.008 687.256 77.5732 977.493 185.717 1094.18C293.859 1210.86 592.624 1109.8 853.029 868.46C1113.43 627.117 1236.87 336.879 1128.72 220.196C1020.58 103.513 721.816 204.569 461.411 445.911Z" stroke="url(#paint93_linear_61_16031)" stroke-miterlimit="10"/>
<path d="M434.342 430.821C179.722 681.62 73.2318 986.375 196.486 1111.51C319.743 1236.64 626.073 1134.77 880.693 883.968C1135.31 633.167 1241.8 328.412 1118.55 203.28C995.292 78.1458 688.962 180.02 434.342 430.821Z" stroke="url(#paint94_linear_61_16031)" stroke-miterlimit="10"/>
<path d="M402.751 414.549C154.873 674.494 67.8511 993.855 208.38 1127.86C348.91 1261.87 663.777 1159.78 911.655 899.831C1159.53 639.886 1246.56 320.525 1106.03 186.517C965.495 52.5118 650.63 154.604 402.751 414.549Z" stroke="url(#paint95_linear_61_16031)" stroke-miterlimit="10"/>
<path d="M367.164 397.977C127.022 666.669 62.229 1000.57 222.445 1143.76C382.661 1286.95 707.214 1185.21 947.358 916.521C1187.5 647.829 1252.29 313.931 1092.08 170.738C931.861 27.5464 607.308 129.285 367.164 397.977Z" stroke="url(#paint96_linear_61_16031)" stroke-miterlimit="10"/>
<path d="M326.286 380.386C94.5371 657.626 54.9055 1006.29 237.765 1159.14C420.624 1312 756.731 1211.17 988.48 933.926C1220.23 656.685 1259.86 308.025 1077 155.169C894.142 2.31346 558.035 103.147 326.286 380.386Z" stroke="url(#paint97_linear_61_16031)" stroke-miterlimit="10"/>
<path d="M279.697 363.017C57.0785 648.418 45.5967 1011.59 254.05 1174.19C462.503 1336.79 811.955 1237.24 1034.57 951.839C1257.19 666.441 1268.67 303.267 1060.22 140.669C851.767 -21.9293 502.314 77.6192 279.697 363.017Z" stroke="url(#paint98_linear_61_16031)" stroke-miterlimit="10"/>
<path d="M227.506 345.039C14.7173 638.053 34.7563 1015.41 272.264 1187.89C509.769 1360.36 874.805 1262.65 1087.59 969.633C1300.38 676.618 1280.34 299.262 1042.83 126.785C805.326 -45.691 440.293 52.024 227.506 345.039Z" stroke="url(#paint99_linear_61_16031)" stroke-miterlimit="10"/>
<path d="M167.554 327.198C-35.0699 627.602 19.8166 1018.95 290.148 1201.29C560.481 1383.63 943.889 1287.92 1146.51 987.51C1349.14 687.105 1294.25 295.763 1023.92 113.422C753.587 -68.9186 370.178 26.7926 167.554 327.198Z" stroke="url(#paint100_linear_61_16031)" stroke-miterlimit="10"/>
<path d="M985.223 89.0079C671.427 -92.1639 270.178 15.3514 89.0065 329.148C-92.1633 642.944 15.3519 1044.19 329.148 1225.36C642.945 1406.53 1044.19 1299.02 1225.37 985.225C1406.53 671.428 1299.02 270.178 985.223 89.0079Z" stroke="url(#paint101_linear_61_16031)" stroke-miterlimit="10"/>
</g>
</g>
<defs>
<linearGradient id="paint0_linear_61_16031" x1="2007.91" y1="638.384" x2="2006.58" y2="675.908" gradientUnits="userSpaceOnUse">
<stop stop-color="#634A4A"/>
<stop offset="1" stop-color="#2F2929"/>
</linearGradient>
<linearGradient id="paint1_linear_61_16031" x1="2007.56" y1="637.818" x2="2006.96" y2="676.612" gradientUnits="userSpaceOnUse">
<stop stop-color="#634A4A"/>
<stop offset="1" stop-color="#2F2929"/>
</linearGradient>
<linearGradient id="paint2_linear_61_16031" x1="2007.44" y1="637.233" x2="2007.58" y2="677.286" gradientUnits="userSpaceOnUse">
<stop stop-color="#634A4A"/>
<stop offset="1" stop-color="#2F2929"/>
</linearGradient>
<linearGradient id="paint3_linear_61_16031" x1="2006.53" y1="636.559" x2="2007.44" y2="677.851" gradientUnits="userSpaceOnUse">
<stop stop-color="#634A4A"/>
<stop offset="1" stop-color="#2F2929"/>
</linearGradient>
<linearGradient id="paint4_linear_61_16031" x1="2006.44" y1="636.093" x2="2008.14" y2="678.613" gradientUnits="userSpaceOnUse">
<stop stop-color="#634A4A"/>
<stop offset="1" stop-color="#2F2929"/>
</linearGradient>
<linearGradient id="paint5_linear_61_16031" x1="2006" y1="635.273" x2="2008.52" y2="679.004" gradientUnits="userSpaceOnUse">
<stop stop-color="#634A4A"/>
<stop offset="1" stop-color="#2F2929"/>
</linearGradient>
<linearGradient id="paint6_linear_61_16031" x1="2005.2" y1="634.39" x2="2008.6" y2="679.944" gradientUnits="userSpaceOnUse">
<stop stop-color="#634A4A"/>
<stop offset="1" stop-color="#2F2929"/>
</linearGradient>
<linearGradient id="paint7_linear_61_16031" x1="2004.78" y1="633.42" x2="2009.11" y2="680.779" gradientUnits="userSpaceOnUse">
<stop stop-color="#634A4A"/>
<stop offset="1" stop-color="#2F2929"/>
</linearGradient>
<linearGradient id="paint8_linear_61_16031" x1="2004.56" y1="632.498" x2="2009.86" y2="681.648" gradientUnits="userSpaceOnUse">
<stop stop-color="#634A4A"/>
<stop offset="1" stop-color="#2F2929"/>
</linearGradient>
<linearGradient id="paint9_linear_61_16031" x1="2003.91" y1="632.016" x2="2010.23" y2="682.94" gradientUnits="userSpaceOnUse">
<stop stop-color="#634A4A"/>
<stop offset="1" stop-color="#2F2929"/>
</linearGradient>
<linearGradient id="paint10_linear_61_16031" x1="2003.8" y1="630.618" x2="2011.27" y2="683.918" gradientUnits="userSpaceOnUse">
<stop stop-color="#634A4A"/>
<stop offset="1" stop-color="#2F2929"/>
</linearGradient>
<linearGradient id="paint11_linear_61_16031" x1="2002.71" y1="629.502" x2="2011.39" y2="685.148" gradientUnits="userSpaceOnUse">
<stop stop-color="#634A4A"/>
<stop offset="1" stop-color="#2F2929"/>
</linearGradient>
<linearGradient id="paint12_linear_61_16031" x1="2001.92" y1="628.062" x2="2011.88" y2="686.032" gradientUnits="userSpaceOnUse">
<stop stop-color="#634A4A"/>
<stop offset="1" stop-color="#2F2929"/>
</linearGradient>
<linearGradient id="paint13_linear_61_16031" x1="2001.6" y1="626.93" x2="2012.9" y2="687.204" gradientUnits="userSpaceOnUse">
<stop stop-color="#634A4A"/>
<stop offset="1" stop-color="#2F2929"/>
</linearGradient>
<linearGradient id="paint14_linear_61_16031" x1="2000.86" y1="625.746" x2="2013.7" y2="688.911" gradientUnits="userSpaceOnUse">
<stop stop-color="#634A4A"/>
<stop offset="1" stop-color="#2F2929"/>
</linearGradient>
<linearGradient id="paint15_linear_61_16031" x1="1999.83" y1="623.94" x2="2014.42" y2="690.569" gradientUnits="userSpaceOnUse">
<stop stop-color="#634A4A"/>
<stop offset="1" stop-color="#2F2929"/>
</linearGradient>
<linearGradient id="paint16_linear_61_16031" x1="1999.21" y1="622.204" x2="2015.66" y2="692.266" gradientUnits="userSpaceOnUse">
<stop stop-color="#634A4A"/>
<stop offset="1" stop-color="#2F2929"/>
</linearGradient>
<linearGradient id="paint17_linear_61_16031" x1="1998.22" y1="620.475" x2="2016.65" y2="693.923" gradientUnits="userSpaceOnUse">
<stop stop-color="#634A4A"/>
<stop offset="1" stop-color="#2F2929"/>
</linearGradient>
<linearGradient id="paint18_linear_61_16031" x1="1996.74" y1="618.635" x2="2017.4" y2="696.024" gradientUnits="userSpaceOnUse">
<stop stop-color="#634A4A"/>
<stop offset="1" stop-color="#2F2929"/>
</linearGradient>
<linearGradient id="paint19_linear_61_16031" x1="1995.74" y1="616.654" x2="2018.76" y2="697.938" gradientUnits="userSpaceOnUse">
<stop stop-color="#634A4A"/>
<stop offset="1" stop-color="#2F2929"/>
</linearGradient>
<linearGradient id="paint20_linear_61_16031" x1="1994.28" y1="613.892" x2="2020.17" y2="700.206" gradientUnits="userSpaceOnUse">
<stop stop-color="#634A4A"/>
<stop offset="1" stop-color="#2F2929"/>
</linearGradient>
<linearGradient id="paint21_linear_61_16031" x1="1992.85" y1="611.911" x2="2021.57" y2="702.589" gradientUnits="userSpaceOnUse">
<stop stop-color="#634A4A"/>
<stop offset="1" stop-color="#2F2929"/>
</linearGradient>
<linearGradient id="paint22_linear_61_16031" x1="1991.15" y1="608.833" x2="2023.28" y2="704.982" gradientUnits="userSpaceOnUse">
<stop stop-color="#634A4A"/>
<stop offset="1" stop-color="#2F2929"/>
</linearGradient>
<linearGradient id="paint23_linear_61_16031" x1="1989.26" y1="606.309" x2="2025.2" y2="708.434" gradientUnits="userSpaceOnUse">
<stop stop-color="#634A4A"/>
<stop offset="1" stop-color="#2F2929"/>
</linearGradient>
<linearGradient id="paint24_linear_61_16031" x1="1987.02" y1="603.229" x2="2026.99" y2="711.209" gradientUnits="userSpaceOnUse">
<stop stop-color="#634A4A"/>
<stop offset="1" stop-color="#2F2929"/>
</linearGradient>
<linearGradient id="paint25_linear_61_16031" x1="1984.94" y1="599.443" x2="2029.64" y2="714.333" gradientUnits="userSpaceOnUse">
<stop stop-color="#634A4A"/>
<stop offset="1" stop-color="#2F2929"/>
</linearGradient>
<linearGradient id="paint26_linear_61_16031" x1="1982.25" y1="595.958" x2="2032.19" y2="718.189" gradientUnits="userSpaceOnUse">
<stop stop-color="#634A4A"/>
<stop offset="1" stop-color="#2F2929"/>
</linearGradient>
<linearGradient id="paint27_linear_61_16031" x1="1979.06" y1="592.052" x2="2035.04" y2="722.607" gradientUnits="userSpaceOnUse">
<stop stop-color="#634A4A"/>
<stop offset="1" stop-color="#2F2929"/>
</linearGradient>
<linearGradient id="paint28_linear_61_16031" x1="1975.89" y1="587.806" x2="2038.28" y2="726.476" gradientUnits="userSpaceOnUse">
<stop stop-color="#634A4A"/>
<stop offset="1" stop-color="#2F2929"/>
</linearGradient>
<linearGradient id="paint29_linear_61_16031" x1="1971.97" y1="582.889" x2="2041.95" y2="731.148" gradientUnits="userSpaceOnUse">
<stop stop-color="#634A4A"/>
<stop offset="1" stop-color="#2F2929"/>
</linearGradient>
<linearGradient id="paint30_linear_61_16031" x1="1967.97" y1="577.63" x2="2046.56" y2="736.333" gradientUnits="userSpaceOnUse">
<stop stop-color="#634A4A"/>
<stop offset="1" stop-color="#2F2929"/>
</linearGradient>
<linearGradient id="paint31_linear_61_16031" x1="1963.43" y1="572.39" x2="2051.42" y2="741.764" gradientUnits="userSpaceOnUse">
<stop stop-color="#634A4A"/>
<stop offset="1" stop-color="#2F2929"/>
</linearGradient>
<linearGradient id="paint32_linear_61_16031" x1="1957.79" y1="566.151" x2="2056.96" y2="748.012" gradientUnits="userSpaceOnUse">
<stop stop-color="#634A4A"/>
<stop offset="1" stop-color="#2F2929"/>
</linearGradient>
<linearGradient id="paint33_linear_61_16031" x1="1951.66" y1="560.071" x2="2062.96" y2="754.501" gradientUnits="userSpaceOnUse">
<stop stop-color="#634A4A"/>
<stop offset="1" stop-color="#2F2929"/>
</linearGradient>
<linearGradient id="paint34_linear_61_16031" x1="1944.23" y1="552.701" x2="2069.69" y2="761.294" gradientUnits="userSpaceOnUse">
<stop stop-color="#634A4A"/>
<stop offset="1" stop-color="#2F2929"/>
</linearGradient>
<linearGradient id="paint35_linear_61_16031" x1="1936.21" y1="545.271" x2="2078" y2="769.535" gradientUnits="userSpaceOnUse">
<stop stop-color="#634A4A"/>
<stop offset="1" stop-color="#2F2929"/>
</linearGradient>
<linearGradient id="paint36_linear_61_16031" x1="1927.22" y1="536.984" x2="2087.36" y2="777.697" gradientUnits="userSpaceOnUse">
<stop stop-color="#634A4A"/>
<stop offset="1" stop-color="#2F2929"/>
</linearGradient>
<linearGradient id="paint37_linear_61_16031" x1="1916.7" y1="527.832" x2="2098.06" y2="786.642" gradientUnits="userSpaceOnUse">
<stop stop-color="#634A4A"/>
<stop offset="1" stop-color="#2F2929"/>
</linearGradient>
<linearGradient id="paint38_linear_61_16031" x1="1904.42" y1="518.148" x2="2109.71" y2="795.943" gradientUnits="userSpaceOnUse">
<stop stop-color="#634A4A"/>
<stop offset="1" stop-color="#2F2929"/>
</linearGradient>
<linearGradient id="paint39_linear_61_16031" x1="1890.33" y1="507.808" x2="2123.59" y2="806.779" gradientUnits="userSpaceOnUse">
<stop stop-color="#634A4A"/>
<stop offset="1" stop-color="#2F2929"/>
</linearGradient>
<linearGradient id="paint40_linear_61_16031" x1="1874.62" y1="496.576" x2="2139.45" y2="817.56" gradientUnits="userSpaceOnUse">
<stop stop-color="#634A4A"/>
<stop offset="1" stop-color="#2F2929"/>
</linearGradient>
<linearGradient id="paint41_linear_61_16031" x1="1856.35" y1="484.784" x2="2157.72" y2="829.732" gradientUnits="userSpaceOnUse">
<stop stop-color="#634A4A"/>
<stop offset="1" stop-color="#2F2929"/>
</linearGradient>
<linearGradient id="paint42_linear_61_16031" x1="1835.52" y1="471.995" x2="2178.79" y2="842.384" gradientUnits="userSpaceOnUse">
<stop stop-color="#634A4A"/>
<stop offset="1" stop-color="#2F2929"/>
</linearGradient>
<linearGradient id="paint43_linear_61_16031" x1="1811.27" y1="458.402" x2="2202.52" y2="855.612" gradientUnits="userSpaceOnUse">
<stop stop-color="#634A4A"/>
<stop offset="1" stop-color="#2F2929"/>
</linearGradient>
<linearGradient id="paint44_linear_61_16031" x1="1784.13" y1="444.499" x2="2230.21" y2="869.875" gradientUnits="userSpaceOnUse">
<stop stop-color="#634A4A"/>
<stop offset="1" stop-color="#2F2929"/>
</linearGradient>
<linearGradient id="paint45_linear_61_16031" x1="1752.83" y1="429.868" x2="2261.41" y2="884.402" gradientUnits="userSpaceOnUse">
<stop stop-color="#634A4A"/>
<stop offset="1" stop-color="#2F2929"/>
</linearGradient>
<linearGradient id="paint46_linear_61_16031" x1="1716.79" y1="414.612" x2="2297.24" y2="899.821" gradientUnits="userSpaceOnUse">
<stop stop-color="#634A4A"/>
<stop offset="1" stop-color="#2F2929"/>
</linearGradient>
<linearGradient id="paint47_linear_61_16031" x1="1676.38" y1="398.909" x2="2338.08" y2="915.046" gradientUnits="userSpaceOnUse">
<stop stop-color="#634A4A"/>
<stop offset="1" stop-color="#2F2929"/>
</linearGradient>
<linearGradient id="paint48_linear_61_16031" x1="1629.91" y1="383.311" x2="2383.82" y2="930.805" gradientUnits="userSpaceOnUse">
<stop stop-color="#634A4A"/>
<stop offset="1" stop-color="#2F2929"/>
</linearGradient>
<linearGradient id="paint49_linear_61_16031" x1="1578.26" y1="367.641" x2="2436.38" y2="946.444" gradientUnits="userSpaceOnUse">
<stop stop-color="#634A4A"/>
<stop offset="1" stop-color="#2F2929"/>
</linearGradient>
<linearGradient id="paint50_linear_61_16031" x1="2294.73" y1="159.147" x2="1719.64" y2="1155.23" gradientUnits="userSpaceOnUse">
<stop stop-color="#634A4A"/>
<stop offset="1" stop-color="#2F2929"/>
</linearGradient>
<linearGradient id="paint51_linear_61_16031" x1="656.362" y1="678.639" x2="657.872" y2="635.831" gradientUnits="userSpaceOnUse">
<stop stop-color="#634A4A"/>
<stop offset="1" stop-color="#2F2929"/>
</linearGradient>
<linearGradient id="paint52_linear_61_16031" x1="656.754" y1="679.285" x2="657.443" y2="635.027" gradientUnits="userSpaceOnUse">
<stop stop-color="#634A4A"/>
<stop offset="1" stop-color="#2F2929"/>
</linearGradient>
<linearGradient id="paint53_linear_61_16031" x1="656.895" y1="679.953" x2="656.733" y2="634.26" gradientUnits="userSpaceOnUse">
<stop stop-color="#634A4A"/>
<stop offset="1" stop-color="#2F2929"/>
</linearGradient>
<linearGradient id="paint54_linear_61_16031" x1="657.933" y1="680.722" x2="656.899" y2="633.616" gradientUnits="userSpaceOnUse">
<stop stop-color="#634A4A"/>
<stop offset="1" stop-color="#2F2929"/>
</linearGradient>
<linearGradient id="paint55_linear_61_16031" x1="658.033" y1="681.252" x2="656.095" y2="632.745" gradientUnits="userSpaceOnUse">
<stop stop-color="#634A4A"/>
<stop offset="1" stop-color="#2F2929"/>
</linearGradient>
<linearGradient id="paint56_linear_61_16031" x1="658.535" y1="682.19" x2="655.665" y2="632.3" gradientUnits="userSpaceOnUse">
<stop stop-color="#634A4A"/>
<stop offset="1" stop-color="#2F2929"/>
</linearGradient>
<linearGradient id="paint57_linear_61_16031" x1="659.452" y1="683.195" x2="655.575" y2="631.227" gradientUnits="userSpaceOnUse">
<stop stop-color="#634A4A"/>
<stop offset="1" stop-color="#2F2929"/>
</linearGradient>
<linearGradient id="paint58_linear_61_16031" x1="659.925" y1="684.302" x2="654.989" y2="630.274" gradientUnits="userSpaceOnUse">
<stop stop-color="#634A4A"/>
<stop offset="1" stop-color="#2F2929"/>
</linearGradient>
<linearGradient id="paint59_linear_61_16031" x1="660.178" y1="685.354" x2="654.131" y2="629.282" gradientUnits="userSpaceOnUse">
<stop stop-color="#634A4A"/>
<stop offset="1" stop-color="#2F2929"/>
</linearGradient>
<linearGradient id="paint60_linear_61_16031" x1="660.923" y1="685.904" x2="653.716" y2="627.808" gradientUnits="userSpaceOnUse">
<stop stop-color="#634A4A"/>
<stop offset="1" stop-color="#2F2929"/>
</linearGradient>
<linearGradient id="paint61_linear_61_16031" x1="661.053" y1="687.498" x2="652.53" y2="626.693" gradientUnits="userSpaceOnUse">
<stop stop-color="#634A4A"/>
<stop offset="1" stop-color="#2F2929"/>
</linearGradient>
<linearGradient id="paint62_linear_61_16031" x1="662.297" y1="688.773" x2="652.392" y2="625.291" gradientUnits="userSpaceOnUse">
<stop stop-color="#634A4A"/>
<stop offset="1" stop-color="#2F2929"/>
</linearGradient>
<linearGradient id="paint63_linear_61_16031" x1="663.192" y1="690.415" x2="651.828" y2="624.281" gradientUnits="userSpaceOnUse">
<stop stop-color="#634A4A"/>
<stop offset="1" stop-color="#2F2929"/>
</linearGradient>
<linearGradient id="paint64_linear_61_16031" x1="663.561" y1="691.706" x2="650.662" y2="622.944" gradientUnits="userSpaceOnUse">
<stop stop-color="#634A4A"/>
<stop offset="1" stop-color="#2F2929"/>
</linearGradient>
<linearGradient id="paint65_linear_61_16031" x1="664.403" y1="693.057" x2="649.756" y2="620.996" gradientUnits="userSpaceOnUse">
<stop stop-color="#634A4A"/>
<stop offset="1" stop-color="#2F2929"/>
</linearGradient>
<linearGradient id="paint66_linear_61_16031" x1="665.575" y1="695.117" x2="648.927" y2="619.105" gradientUnits="userSpaceOnUse">
<stop stop-color="#634A4A"/>
<stop offset="1" stop-color="#2F2929"/>
</linearGradient>
<linearGradient id="paint67_linear_61_16031" x1="666.286" y1="697.098" x2="647.512" y2="617.17" gradientUnits="userSpaceOnUse">
<stop stop-color="#634A4A"/>
<stop offset="1" stop-color="#2F2929"/>
</linearGradient>
<linearGradient id="paint68_linear_61_16031" x1="667.411" y1="699.071" x2="646.393" y2="615.28" gradientUnits="userSpaceOnUse">
<stop stop-color="#634A4A"/>
<stop offset="1" stop-color="#2F2929"/>
</linearGradient>
<linearGradient id="paint69_linear_61_16031" x1="669.099" y1="701.169" x2="645.535" y2="612.882" gradientUnits="userSpaceOnUse">
<stop stop-color="#634A4A"/>
<stop offset="1" stop-color="#2F2929"/>
</linearGradient>
<linearGradient id="paint70_linear_61_16031" x1="670.246" y1="703.43" x2="643.98" y2="610.699" gradientUnits="userSpaceOnUse">
<stop stop-color="#634A4A"/>
<stop offset="1" stop-color="#2F2929"/>
</linearGradient>
<linearGradient id="paint71_linear_61_16031" x1="671.905" y1="706.58" x2="642.374" y2="608.111" gradientUnits="userSpaceOnUse">
<stop stop-color="#634A4A"/>
<stop offset="1" stop-color="#2F2929"/>
</linearGradient>
<linearGradient id="paint72_linear_61_16031" x1="673.544" y1="708.84" x2="640.774" y2="605.392" gradientUnits="userSpaceOnUse">
<stop stop-color="#634A4A"/>
<stop offset="1" stop-color="#2F2929"/>
</linearGradient>
<linearGradient id="paint73_linear_61_16031" x1="675.476" y1="712.352" x2="638.821" y2="602.663" gradientUnits="userSpaceOnUse">
<stop stop-color="#634A4A"/>
<stop offset="1" stop-color="#2F2929"/>
</linearGradient>
<linearGradient id="paint74_linear_61_16031" x1="677.631" y1="715.232" x2="636.64" y2="598.725" gradientUnits="userSpaceOnUse">
<stop stop-color="#634A4A"/>
<stop offset="1" stop-color="#2F2929"/>
</linearGradient>
<linearGradient id="paint75_linear_61_16031" x1="680.19" y1="718.745" x2="634.595" y2="595.559" gradientUnits="userSpaceOnUse">
<stop stop-color="#634A4A"/>
<stop offset="1" stop-color="#2F2929"/>
</linearGradient>
<linearGradient id="paint76_linear_61_16031" x1="682.561" y1="723.064" x2="631.566" y2="591.995" gradientUnits="userSpaceOnUse">
<stop stop-color="#634A4A"/>
<stop offset="1" stop-color="#2F2929"/>
</linearGradient>
<linearGradient id="paint77_linear_61_16031" x1="685.627" y1="727.038" x2="628.657" y2="587.594" gradientUnits="userSpaceOnUse">
<stop stop-color="#634A4A"/>
<stop offset="1" stop-color="#2F2929"/>
</linearGradient>
<linearGradient id="paint78_linear_61_16031" x1="689.273" y1="731.497" x2="625.412" y2="582.556" gradientUnits="userSpaceOnUse">
<stop stop-color="#634A4A"/>
<stop offset="1" stop-color="#2F2929"/>
</linearGradient>
<linearGradient id="paint79_linear_61_16031" x1="692.885" y1="736.34" x2="621.707" y2="578.142" gradientUnits="userSpaceOnUse">
<stop stop-color="#634A4A"/>
<stop offset="1" stop-color="#2F2929"/>
</linearGradient>
<linearGradient id="paint80_linear_61_16031" x1="697.361" y1="741.948" x2="617.522" y2="572.811" gradientUnits="userSpaceOnUse">
<stop stop-color="#634A4A"/>
<stop offset="1" stop-color="#2F2929"/>
</linearGradient>
<linearGradient id="paint81_linear_61_16031" x1="701.923" y1="747.949" x2="612.265" y2="566.898" gradientUnits="userSpaceOnUse">
<stop stop-color="#634A4A"/>
<stop offset="1" stop-color="#2F2929"/>
</linearGradient>
<linearGradient id="paint82_linear_61_16031" x1="707.107" y1="753.927" x2="606.716" y2="560.701" gradientUnits="userSpaceOnUse">
<stop stop-color="#634A4A"/>
<stop offset="1" stop-color="#2F2929"/>
</linearGradient>
<linearGradient id="paint83_linear_61_16031" x1="713.535" y1="761.046" x2="600.407" y2="553.574" gradientUnits="userSpaceOnUse">
<stop stop-color="#634A4A"/>
<stop offset="1" stop-color="#2F2929"/>
</linearGradient>
<linearGradient id="paint84_linear_61_16031" x1="720.531" y1="767.981" x2="593.555" y2="546.171" gradientUnits="userSpaceOnUse">
<stop stop-color="#634A4A"/>
<stop offset="1" stop-color="#2F2929"/>
</linearGradient>
<linearGradient id="paint85_linear_61_16031" x1="729.007" y1="776.389" x2="585.878" y2="538.421" gradientUnits="userSpaceOnUse">
<stop stop-color="#634A4A"/>
<stop offset="1" stop-color="#2F2929"/>
</linearGradient>
<linearGradient id="paint86_linear_61_16031" x1="738.157" y1="784.865" x2="576.403" y2="529.02" gradientUnits="userSpaceOnUse">
<stop stop-color="#634A4A"/>
<stop offset="1" stop-color="#2F2929"/>
</linearGradient>
<linearGradient id="paint87_linear_61_16031" x1="748.411" y1="794.319" x2="565.717" y2="519.708" gradientUnits="userSpaceOnUse">
<stop stop-color="#634A4A"/>
<stop offset="1" stop-color="#2F2929"/>
</linearGradient>
<linearGradient id="paint88_linear_61_16031" x1="760.412" y1="804.761" x2="553.509" y2="509.504" gradientUnits="userSpaceOnUse">
<stop stop-color="#634A4A"/>
<stop offset="1" stop-color="#2F2929"/>
</linearGradient>
<linearGradient id="paint89_linear_61_16031" x1="774.427" y1="815.808" x2="540.22" y2="498.893" gradientUnits="userSpaceOnUse">
<stop stop-color="#634A4A"/>
<stop offset="1" stop-color="#2F2929"/>
</linearGradient>
<linearGradient id="paint90_linear_61_16031" x1="790.5" y1="827.603" x2="524.384" y2="486.529" gradientUnits="userSpaceOnUse">
<stop stop-color="#634A4A"/>
<stop offset="1" stop-color="#2F2929"/>
</linearGradient>
<linearGradient id="paint91_linear_61_16031" x1="808.415" y1="840.418" x2="506.291" y2="474.231" gradientUnits="userSpaceOnUse">
<stop stop-color="#634A4A"/>
<stop offset="1" stop-color="#2F2929"/>
</linearGradient>
<linearGradient id="paint92_linear_61_16031" x1="829.261" y1="853.871" x2="485.447" y2="460.345" gradientUnits="userSpaceOnUse">
<stop stop-color="#634A4A"/>
<stop offset="1" stop-color="#2F2929"/>
</linearGradient>
<linearGradient id="paint93_linear_61_16031" x1="853.029" y1="868.46" x2="461.411" y2="445.911" gradientUnits="userSpaceOnUse">
<stop stop-color="#634A4A"/>
<stop offset="1" stop-color="#2F2929"/>
</linearGradient>
<linearGradient id="paint94_linear_61_16031" x1="880.693" y1="883.968" x2="434.342" y2="430.821" gradientUnits="userSpaceOnUse">
<stop stop-color="#634A4A"/>
<stop offset="1" stop-color="#2F2929"/>
</linearGradient>
<linearGradient id="paint95_linear_61_16031" x1="911.655" y1="899.829" x2="402.751" y2="414.549" gradientUnits="userSpaceOnUse">
<stop stop-color="#634A4A"/>
<stop offset="1" stop-color="#2F2929"/>
</linearGradient>
<linearGradient id="paint96_linear_61_16031" x1="947.358" y1="916.521" x2="367.164" y2="397.977" gradientUnits="userSpaceOnUse">
<stop stop-color="#634A4A"/>
<stop offset="1" stop-color="#2F2929"/>
</linearGradient>
<linearGradient id="paint97_linear_61_16031" x1="988.48" y1="933.924" x2="326.286" y2="380.386" gradientUnits="userSpaceOnUse">
<stop stop-color="#634A4A"/>
<stop offset="1" stop-color="#2F2929"/>
</linearGradient>
<linearGradient id="paint98_linear_61_16031" x1="1034.57" y1="951.839" x2="279.698" y2="363.017" gradientUnits="userSpaceOnUse">
<stop stop-color="#634A4A"/>
<stop offset="1" stop-color="#2F2929"/>
</linearGradient>
<linearGradient id="paint99_linear_61_16031" x1="1087.59" y1="969.633" x2="227.506" y2="345.038" gradientUnits="userSpaceOnUse">
<stop stop-color="#634A4A"/>
<stop offset="1" stop-color="#2F2929"/>
</linearGradient>
<linearGradient id="paint100_linear_61_16031" x1="1146.51" y1="987.51" x2="167.554" y2="327.197" gradientUnits="userSpaceOnUse">
<stop stop-color="#634A4A"/>
<stop offset="1" stop-color="#2F2929"/>
</linearGradient>
<linearGradient id="paint101_linear_61_16031" x1="329.148" y1="1225.36" x2="985.223" y2="89.0079" gradientUnits="userSpaceOnUse">
<stop stop-color="#634A4A"/>
<stop offset="1" stop-color="#2F2929"/>
</linearGradient>
</defs>
</svg>
