<svg width="158" height="197" viewBox="0 0 158 197" fill="none" xmlns="http://www.w3.org/2000/svg">
<path d="M88.0909 43.3269C88.0909 43.3269 76.7759 56.5109 63.2539 41.8989C63.2539 41.8989 49.9109 42.462 33.8809 60.127V136.393L116.864 137.267V62.7439C116.864 62.7439 107.122 47.6889 88.0909 43.3269Z" fill="#F9CF70"/>
<path d="M80.4489 130.259C70.3869 136.036 50.7179 135.508 39.7559 135.214C7.77589 134.356 19.2299 85.9359 29.5349 66.0669C39.8429 46.1909 49.3019 63.1119 49.7929 79.1229C50.0599 87.8149 47.9049 99.0409 43.1109 106.783C55.3239 107.437 81.1139 117.724 81.1139 117.724C75.8239 123.686 80.4489 130.259 80.4489 130.259Z" fill="#F9CF70"/>
<path d="M75.6142 134.182C86.3602 138.557 105.78 135.395 116.604 133.633C148.18 128.493 130.333 82.0469 117.456 63.7399C104.574 45.4269 97.4712 63.464 99.1332 79.396C100.035 88.045 103.676 98.881 109.465 105.91C97.4502 108.197 73.2732 121.85 73.2732 121.85C79.3152 127.048 75.6142 134.182 75.6142 134.182Z" fill="#F9CF70"/>
<path d="M122.014 132.939L20.8955 129.706L27.1475 146.45L86.0235 164.539L123.518 152.295L122.014 132.939Z" fill="#FF9184"/>
<path d="M111.225 111.734L110.348 129.706H33.0818L31.1348 92.08L111.225 111.734Z" fill="#F9CF70"/>
<path d="M103.134 119.998L104.692 113.702C104.799 113.27 104.551 112.83 104.125 112.697L101.992 112.035C101.694 111.942 101.472 111.692 101.415 111.385L101.053 109.429C100.979 109.031 100.632 108.742 100.227 108.742H98.4821C98.1921 108.742 97.9231 108.593 97.7701 108.347L96.7061 106.645C96.4641 106.258 95.9581 106.135 95.5651 106.368L93.5451 107.565C93.2871 107.718 92.9681 107.722 92.7061 107.575L91.5211 106.912C91.1371 106.697 90.6531 106.815 90.4101 107.182L86.1621 113.602C85.8991 113.999 86.0181 114.534 86.4251 114.783L87.3661 115.358C87.7141 115.57 88.1641 115.503 88.4331 115.198C88.9891 114.569 90.0221 115.055 89.8931 115.884L89.8501 116.163C89.7931 116.526 89.9791 116.884 90.3081 117.046L98.6391 121.157C98.6941 121.184 98.7501 121.205 98.8091 121.219C99.3321 121.349 101.891 121.885 103.017 120.266C103.073 120.185 103.111 120.092 103.134 119.998Z" fill="#FEBAC7"/>
<path d="M44.4353 119.998L42.8773 113.702C42.7703 113.27 43.0193 112.83 43.4443 112.697L45.5773 112.035C45.8753 111.942 46.0973 111.692 46.1543 111.385L46.5163 109.429C46.5903 109.031 46.9373 108.742 47.3423 108.742H49.0873C49.3773 108.742 49.6463 108.593 49.8003 108.347L50.8643 106.645C51.1063 106.258 51.6123 106.135 52.0053 106.368L54.0253 107.565C54.2833 107.718 54.6023 107.722 54.8643 107.575L56.0503 106.912C56.4343 106.697 56.9183 106.815 57.1613 107.182L61.4093 113.602C61.6723 113.999 61.5523 114.534 61.1463 114.783L60.2053 115.358C59.8573 115.57 59.4073 115.503 59.1373 115.198C58.5813 114.569 57.5483 115.055 57.6773 115.884L57.7213 116.163C57.7783 116.526 57.5923 116.884 57.2633 117.046L48.9323 121.157C48.8773 121.184 48.8213 121.205 48.7623 121.219C48.2393 121.349 45.6803 121.885 44.5543 120.266C44.4953 120.185 44.4583 120.092 44.4353 119.998Z" fill="#FEBAC7"/>
<path d="M135.278 114.82L60.1562 160.43C66.2042 165.34 69.5702 171.756 70.9232 179.301L149.174 139.893C157.051 135.926 159.516 125.858 154.363 118.7C149.99 112.625 141.678 110.935 135.278 114.82Z" fill="#FF4933"/>
<path d="M81.8805 167.354L86.6506 171.382L77.2145 176.134C74.3915 173.704 68.8856 169.016 68.0666 168.703C66.9566 168.278 81.8805 167.354 81.8805 167.354Z" fill="#1B29AF"/>
<path d="M60.1562 160.43L47.6442 167.48C46.7102 168.006 46.3852 169.192 46.9182 170.122C50.2192 175.878 61.2272 194.48 67.0442 197.009C67.0442 197.009 71.7412 195.5 69.9422 189.36C68.1432 183.219 70.5632 177.539 70.5632 177.539C70.5632 177.539 70.1562 163.223 60.1562 160.43Z" fill="#6D6D6D"/>
<path d="M20.7242 119.97L100.095 157.704C94.5782 163.204 91.8822 169.928 91.3032 177.572L9.45024 146.326C1.21024 143.181 -2.26576 133.415 2.13224 125.771C5.86624 119.282 13.9622 116.755 20.7242 119.97Z" fill="#FF4933"/>
<path d="M100.095 157.704L113.259 163.445C114.241 163.873 114.686 165.02 114.25 165.999C111.552 172.06 102.492 191.686 96.9628 194.793C96.9628 194.793 92.1368 193.77 93.3018 187.478C94.4668 181.186 91.4818 175.781 91.4818 175.781C91.4818 175.781 90.4308 161.499 100.095 157.704Z" fill="#6D6D6D"/>
<path d="M80.4599 42.259C79.0419 42.124 77.6449 41.836 76.3169 41.337C71.7879 39.633 68.6109 35.71 66.4669 31.626C66.4669 31.626 66.2809 39.362 65.9359 41.748C65.5909 44.134 64.4629 45.478 64.4629 45.478L74.5109 53.609L79.6239 48.211C79.6239 48.211 79.9459 45.394 80.4599 42.259Z" fill="#EF947A"/>
<path d="M79.1309 48.731C77.4279 49.599 75.7499 50.488 74.1489 51.366C71.2639 48.925 68.1319 46.776 64.8179 44.96C64.6119 45.299 64.4639 45.477 64.4639 45.477L74.5119 53.608L79.1309 48.731Z" fill="#C97865"/>
<path d="M76.3169 41.336C72.9079 40.054 70.2659 37.514 68.2529 34.595C69.1519 37.486 70.5739 40.245 72.4459 42.717C73.4309 44.018 74.5599 45.258 75.9829 46.141C77.0979 46.833 78.4159 47.287 79.7319 47.317C79.8669 46.241 80.1219 44.319 80.4599 42.257C79.0419 42.124 77.6449 41.836 76.3169 41.336Z" fill="#D68771"/>
<path d="M66.4673 31.626C68.5693 36.005 71.7073 40.199 76.2243 41.984C78.8063 43.005 81.6623 43.161 84.4263 42.899C87.7763 42.581 90.0583 41.436 91.5673 38.327C92.7773 35.833 93.0493 32.93 93.4043 30.271C93.9393 26.268 93.9463 22.308 94.1393 18.289C94.2943 15.071 94.0773 12.78 91.2903 10.535C90.3433 11.272 88.9523 11.665 87.8243 12.074C86.6963 12.482 85.4273 12.596 84.2983 12.19C83.1153 11.764 82.2043 10.828 81.1923 10.083C80.1803 9.33801 78.8693 8.75701 77.6883 9.18601C73.9103 10.559 71.6603 14.547 71.2223 18.542C70.9363 21.155 71.4313 26.31 67.5543 26.635C67.2943 25.73 66.6513 24.219 66.0883 23.465C65.5253 22.711 64.5973 22.155 63.6673 22.301C62.8383 22.432 62.1753 23.087 61.7733 23.824C60.9693 25.296 61.0343 27.184 61.8683 28.638C62.7033 30.095 64.8063 31.394 66.4673 31.626Z" fill="#EF947A"/>
<path d="M78.801 33.502C81.65 34.776 84.821 35.321 87.932 35.07C87.024 36.434 85.765 38.049 84.151 38.333C82.883 38.557 81.576 37.949 80.679 37.026C79.782 36.102 79.253 34.707 78.801 33.502Z" fill="#F5EDEC"/>
<path d="M78.801 33.502C78.959 33.923 79.127 34.367 79.316 34.807C81.348 35.824 83.6 36.402 85.871 36.478C86.21 36.489 86.556 36.484 86.903 36.462C87.285 36.009 87.628 35.525 87.931 35.07C84.821 35.32 81.649 34.776 78.801 33.502Z" fill="#DDD7D7"/>
<path d="M82.8434 31.753C82.6854 31.73 82.5644 31.593 82.5664 31.429C82.5684 31.25 82.7154 31.108 82.8944 31.11L86.1704 31.154C85.9664 28.306 85.8864 25.419 85.9344 22.566C85.9374 22.387 86.0844 22.245 86.2634 22.248C86.4424 22.251 86.5844 22.398 86.5814 22.577C86.5324 25.528 86.6194 28.516 86.8424 31.458C86.8494 31.549 86.8174 31.638 86.7554 31.704C86.6934 31.77 86.6064 31.807 86.5154 31.806L82.8864 31.757C82.8714 31.756 82.8574 31.755 82.8434 31.753Z" fill="#505050"/>
<path d="M77.5979 17.666C78.1069 17.394 78.8079 17.277 79.3669 17.157C80.2579 16.965 82.2969 16.601 82.3249 18.038C82.3349 18.537 82.0189 19.001 81.6059 19.282C81.1939 19.564 80.6959 19.69 80.2039 19.775C79.5449 19.889 78.8679 19.937 78.2059 19.839C77.8689 19.789 77.5239 19.695 77.2659 19.472C76.6819 18.968 76.9699 18.038 77.5539 17.69C77.5689 17.682 77.5839 17.674 77.5979 17.666ZM92.6859 19.104C92.3109 18.735 91.7279 18.451 91.2699 18.202C90.5399 17.804 88.8509 16.958 88.4549 18.208C88.3169 18.642 88.4739 19.129 88.7619 19.482C89.0499 19.835 89.4529 20.074 89.8609 20.276C90.4079 20.546 90.9879 20.763 91.5919 20.849C91.8999 20.892 92.2259 20.899 92.5089 20.771C93.1499 20.481 93.1389 19.593 92.7169 19.137C92.7069 19.125 92.6959 19.114 92.6859 19.104Z" fill="#505050"/>
<path d="M80.1672 25.552C80.0782 26.164 79.5112 26.588 78.8992 26.499C78.2872 26.41 77.8632 25.843 77.9522 25.231C78.0412 24.619 78.6082 24.195 79.2202 24.284C79.8322 24.373 80.2552 24.94 80.1672 25.552ZM90.4962 25.16C89.8842 25.071 89.3172 25.496 89.2282 26.108C89.1392 26.72 89.5642 27.287 90.1752 27.376C90.7872 27.465 91.3542 27.04 91.4432 26.429C91.5322 25.817 91.1082 25.249 90.4962 25.16Z" fill="#505050"/>
<path d="M92.8252 6.88499C93.7372 5.05499 91.8002 2.12098 89.9152 1.32698C88.0302 0.532978 85.8882 0.816973 83.8642 1.11497C81.5572 1.45497 79.2502 1.79399 76.9422 2.13399C74.9342 2.42999 72.8822 2.73897 71.0832 3.67897C68.8552 4.84297 67.1892 6.90398 66.1232 9.17998C65.0562 11.456 64.5422 13.95 64.1772 16.437C63.8942 18.368 63.7012 20.353 63.9132 22.281C64.7572 22.258 65.5732 22.778 66.0862 23.465C66.6492 24.219 67.2922 25.73 67.5522 26.635C71.4292 26.311 70.9342 21.155 71.2202 18.542C71.6582 14.547 73.9082 10.559 77.6862 9.18599C78.8672 8.75699 80.1772 9.33799 81.1902 10.083C82.2022 10.828 83.1142 11.764 84.2962 12.19C85.4252 12.596 86.6942 12.483 87.8222 12.074C88.9502 11.666 90.3412 11.272 91.2882 10.535C94.0752 12.779 94.2922 15.071 94.1372 18.289C94.0952 19.154 94.0632 20.016 94.0312 20.877C94.3442 19.997 94.6572 19.117 94.9702 18.237C95.1822 17.642 95.3942 17.047 95.5472 16.435C96.3962 13.073 95.3182 9.29499 92.8252 6.88499Z" fill="#505050"/>
<path d="M65.9232 28.708C65.8772 28.701 65.8332 28.682 65.7972 28.65C65.0802 28.018 64.0062 27.584 63.1852 27.594C63.0512 27.595 62.9412 27.488 62.9402 27.354C62.9382 27.22 63.0462 27.11 63.1802 27.109C63.9772 27.1 64.9422 27.435 65.7122 27.97C65.5982 26.876 64.7842 25.84 63.7262 25.533C63.5972 25.496 63.5232 25.361 63.5612 25.232C63.5982 25.103 63.7332 25.029 63.8622 25.067C65.3092 25.487 66.3352 26.99 66.2002 28.49C66.1922 28.581 66.1332 28.66 66.0482 28.693C66.0072 28.709 65.9642 28.714 65.9232 28.708Z" fill="#505050"/>
<path d="M49.4495 65.182C52.3235 72.999 53.3795 80.387 54.1375 88.551C55.3315 101.407 63.2035 105.337 74.3405 109.249L62.8185 119.873L35.9785 111.643L49.4495 65.182Z" fill="#E5B75C"/>
<path d="M79.3891 50.804L76.5161 58.861L57.4421 44.867L62.3221 40.651L79.3891 50.804Z" fill="#EAECE9"/>
<path d="M80.0652 49.8459L86.5732 56.0339L89.2632 43.9469L85.6742 41.8989L80.0652 49.8459Z" fill="#EAECE9"/>
<path d="M101.285 62.2369C98.4106 70.0539 97.3546 77.4419 96.5966 85.6059C95.4026 98.4619 87.5306 102.392 76.3936 106.304L87.9156 116.928L114.756 108.698L101.285 62.2369Z" fill="#E5B75C"/>
<path d="M46.7133 85.7629H103.871C106.384 85.7629 108.421 87.7999 108.421 90.3129V128.035C108.421 130.548 106.384 132.585 103.871 132.585H46.7133C44.2003 132.585 42.1633 130.548 42.1633 128.035V90.3129C42.1633 87.7999 44.2003 85.7629 46.7133 85.7629Z" fill="#9AB4EF"/>
<path d="M43.2653 134.789H107.319C107.928 134.789 108.421 134.296 108.421 133.687C108.421 133.078 107.928 132.585 107.319 132.585H43.2653C42.6573 132.585 42.1633 133.078 42.1633 133.687C42.1633 134.296 42.6563 134.789 43.2653 134.789Z" fill="#746980"/>
<path d="M53.2664 134.074C53.526 134.074 53.7364 133.863 53.7364 133.604C53.7364 133.344 53.526 133.134 53.2664 133.134C53.0068 133.134 52.7964 133.344 52.7964 133.604C52.7964 133.863 53.0068 134.074 53.2664 134.074Z" fill="#9E8FAE"/>
<path d="M54.8704 134.074L58.6604 134.074L58.6604 133.135L54.8704 133.135L54.8704 134.074Z" fill="#9E8FAE"/>
</svg>
