<svg width="60" height="83" viewBox="0 0 60 83" fill="none" xmlns="http://www.w3.org/2000/svg">
<path d="M22.0758 8.42695C22.2858 9.89695 18.2999 10.865 15.0479 11.407C15.3129 14.076 17.0888 16.7729 19.5418 19.2929C22.6268 17.5549 27.0318 15.2569 27.8438 15.8179C28.7298 16.4309 24.2198 19.347 21.3988 21.062C23.3828 22.823 25.6168 24.464 27.7878 25.902C29.1708 24.61 30.7899 23.4759 31.7549 24.0889C32.7559 24.7259 32.4848 26.7249 31.9908 28.5089C35.3478 30.4649 37.8608 31.656 37.8608 31.656C37.8608 31.656 39.2698 27.385 40.1028 22.126C39.9338 21.792 39.7658 21.4539 39.6108 21.0969C39.0698 19.8459 39.5968 19.3139 40.4898 19.1379C40.7208 16.8359 40.7869 14.4689 40.5449 12.2719C36.7459 11.4749 32.1268 10.0009 33.8568 7.72193C34.9008 6.34793 36.8109 6.19193 38.7989 6.53693C38.5209 6.07893 38.2138 5.64695 37.8608 5.25895C30.9468 -2.35905 26.1238 5.25895 26.1238 5.25895C22.1058 1.91095 16.4619 2.81696 15.2419 8.04896C17.4989 7.47096 21.8168 6.61095 22.0758 8.42695Z" fill="#FF4933"/>
<path opacity="0.3" d="M22.0758 8.42695C22.2858 9.89695 18.2999 10.865 15.0479 11.407C15.3129 14.076 17.0888 16.7729 19.5418 19.2929C22.6268 17.5549 27.0318 15.2569 27.8438 15.8179C28.7298 16.4309 24.2198 19.347 21.3988 21.062C23.3828 22.823 25.6168 24.464 27.7878 25.902C29.1708 24.61 30.7899 23.4759 31.7549 24.0889C32.7559 24.7259 32.4848 26.7249 31.9908 28.5089C35.3478 30.4649 37.8608 31.656 37.8608 31.656C37.8608 31.656 39.2698 27.385 40.1028 22.126C39.9338 21.792 39.7658 21.4539 39.6108 21.0969C39.0698 19.8459 39.5968 19.3139 40.4898 19.1379C40.7208 16.8359 40.7869 14.4689 40.5449 12.2719C36.7459 11.4749 32.1268 10.0009 33.8568 7.72193C34.9008 6.34793 36.8109 6.19193 38.7989 6.53693C38.5209 6.07893 38.2138 5.64695 37.8608 5.25895C30.9468 -2.35905 26.1238 5.25895 26.1238 5.25895C22.1058 1.91095 16.4619 2.81696 15.2419 8.04896C17.4989 7.47096 21.8168 6.61095 22.0758 8.42695Z" fill="white"/>
<path d="M30.7036 64.4129L29.7066 64.3309C29.7496 63.8159 33.8006 12.806 22.3526 7.99696C21.1236 7.47996 19.9876 7.50897 18.8826 8.08397C14.7466 10.235 12.7636 19.1659 12.7446 19.2569L11.7676 19.044C11.8516 18.658 13.8696 9.56595 18.4206 7.19695C19.7876 6.48595 21.2406 6.44497 22.7406 7.07497C34.8506 12.162 30.8786 62.2819 30.7036 64.4129Z" fill="#FF4933"/>
<path d="M32.1469 63.308C31.9439 61.013 27.2719 7.03998 36.0089 1.31098C38.1039 -0.0620244 39.9709 -0.356031 41.5579 0.447969C45.6869 2.52997 46.2289 11.358 46.2499 11.732L45.2519 11.789C45.2469 11.703 44.7229 3.16297 41.1069 1.33997C39.8629 0.714967 38.3319 0.983981 36.5569 2.14798C28.3149 7.55298 33.0939 62.665 33.1429 63.221L32.1469 63.308Z" fill="#FF4933"/>
<path d="M33.4595 67.6709C33.3945 65.9139 31.9555 24.5999 39.9115 20.9829C41.4845 20.2679 43.0765 20.2559 44.6435 20.9449C50.1035 23.3469 53.4755 33.5219 53.6165 33.9539L52.6655 34.2649C52.6325 34.1629 49.2915 24.0819 44.2405 21.8609C42.9275 21.2849 41.6455 21.2939 40.3255 21.8939C34.2245 24.6669 34.0215 55.8519 34.4585 67.6339L33.4595 67.6709Z" fill="#FF4933"/>
<path d="M31.4353 65.781L30.4423 65.668C31.8443 53.372 34.5243 20.607 30.1453 16.698C29.4923 16.114 28.9073 15.934 28.3533 16.144C25.4183 17.27 23.6313 27.927 23.1903 31.939L22.1963 31.83C22.3653 30.292 23.9653 16.757 27.9943 15.211C28.9163 14.858 29.8633 15.106 30.8103 15.952C36.4703 21.003 31.6433 63.955 31.4353 65.781Z" fill="#FF4933"/>
<path d="M14.7473 42.4709H50.6743L47.6743 82.7149H17.7473L14.7473 42.4709Z" fill="#263238"/>
<path d="M19.6418 27.703C19.2668 28.682 16.4768 27.912 14.2858 27.131C13.5348 28.868 13.7048 31.14 14.3538 33.535C16.8528 33.521 20.3568 33.614 20.6648 34.238C21.0008 34.92 17.2198 35.172 14.8928 35.262C15.5128 37.028 16.3278 38.806 17.1738 40.437C18.4698 40.114 19.8578 39.97 20.2418 40.679C20.6408 41.415 19.7888 42.555 18.8718 43.486C20.2708 45.843 21.4128 47.439 21.4128 47.439C21.4128 47.439 23.7458 45.288 26.0628 42.331C26.0728 42.067 26.0848 41.801 26.1118 41.528C26.2068 40.571 26.7148 40.423 27.3258 40.621C28.2578 39.281 29.1098 37.844 29.7138 36.406C27.6438 34.612 25.3008 32.119 27.1488 31.307C28.2638 30.817 29.4948 31.376 30.6028 32.27C30.5888 31.892 30.5468 31.521 30.4628 31.16C28.8108 24.091 23.2238 27.136 23.2238 27.136C21.8938 23.693 18.1028 22.317 15.5558 25.126C17.1468 25.544 20.1048 26.494 19.6418 27.703Z" fill="#FF4933"/>
<path opacity="0.3" d="M19.6418 27.703C19.2668 28.682 16.4768 27.912 14.2858 27.131C13.5348 28.868 13.7048 31.14 14.3538 33.535C16.8528 33.521 20.3568 33.614 20.6648 34.238C21.0008 34.92 17.2198 35.172 14.8928 35.262C15.5128 37.028 16.3278 38.806 17.1738 40.437C18.4698 40.114 19.8578 39.97 20.2418 40.679C20.6408 41.415 19.7888 42.555 18.8718 43.486C20.2708 45.843 21.4128 47.439 21.4128 47.439C21.4128 47.439 23.7458 45.288 26.0628 42.331C26.0728 42.067 26.0848 41.801 26.1118 41.528C26.2068 40.571 26.7148 40.423 27.3258 40.621C28.2578 39.281 29.1098 37.844 29.7138 36.406C27.6438 34.612 25.3008 32.119 27.1488 31.307C28.2638 30.817 29.4948 31.376 30.6028 32.27C30.5888 31.892 30.5468 31.521 30.4628 31.16C28.8108 24.091 23.2238 27.136 23.2238 27.136C21.8938 23.693 18.1028 22.317 15.5558 25.126C17.1468 25.544 20.1048 26.494 19.6418 27.703Z" fill="white"/>
<path d="M46.3172 32.4809C45.1842 32.5649 44.0963 32.8249 43.0343 33.1719C42.7573 32.4129 42.5762 31.6219 42.5502 30.7949C42.3222 23.5489 47.5093 26.6039 50.2503 24.4749C51.6173 23.4129 53.2912 22.7309 54.8352 23.0369C54.6032 23.4359 54.3923 23.8489 54.2153 24.2769C53.9283 24.9709 54.3803 25.6939 55.0923 25.8269C55.7613 25.9519 56.5123 25.8939 57.1273 25.5859C57.3193 25.4899 57.4802 25.3499 57.6502 25.2239C58.0332 25.8699 58.3722 26.6629 58.6452 27.6469C58.9242 28.6539 59.0683 29.6979 59.1143 30.7459C58.7063 30.8369 58.3013 30.9459 57.9023 31.0879C57.2793 31.3089 56.9463 32.3049 57.4483 32.8099C57.8893 33.2529 58.3942 33.6049 58.9432 33.8589C58.7642 35.0529 58.4313 36.1839 58.0313 37.2549C57.9083 37.2739 57.7842 37.2879 57.6622 37.3119C57.3982 37.3629 57.1383 37.4319 56.8803 37.5049C56.7323 37.5469 56.5853 37.5979 56.4463 37.6639C56.0873 37.8339 55.8253 38.1409 55.7693 38.5429C55.7133 38.9379 55.8783 39.3469 56.1963 39.5889C56.3653 39.7179 56.5512 39.8189 56.7352 39.9209C55.9092 41.2279 54.9322 42.2639 53.8652 42.8169C53.8652 42.8169 52.5432 42.2399 50.8132 41.2039C51.0292 40.9139 51.2462 40.6239 51.4472 40.3239C51.6852 39.9709 51.7903 39.6079 51.7543 39.1859C51.7203 38.7769 51.4722 38.4199 51.1672 38.1639C50.8732 37.9159 50.4032 37.8079 50.0292 37.8559C49.6632 37.9029 49.2182 38.1279 49.0072 38.4429C48.7672 38.7999 48.5022 39.1399 48.2402 39.4809C46.9162 38.4829 45.5993 37.2779 44.5603 35.9079C44.6003 35.8959 44.6433 35.8839 44.6703 35.8759C45.3393 35.7009 46.0233 35.5879 46.7123 35.5369C47.5733 35.4729 48.1092 34.6069 48.0422 33.8119C47.9702 32.9499 47.1192 32.4209 46.3172 32.4809Z" fill="#FF4933"/>
<path opacity="0.5" d="M46.3172 32.4809C45.1842 32.5649 44.0963 32.8249 43.0343 33.1719C42.7573 32.4129 42.5762 31.6219 42.5502 30.7949C42.3222 23.5489 47.5093 26.6039 50.2503 24.4749C51.6173 23.4129 53.2912 22.7309 54.8352 23.0369C54.6032 23.4359 54.3923 23.8489 54.2153 24.2769C53.9283 24.9709 54.3803 25.6939 55.0923 25.8269C55.7613 25.9519 56.5123 25.8939 57.1273 25.5859C57.3193 25.4899 57.4802 25.3499 57.6502 25.2239C58.0332 25.8699 58.3722 26.6629 58.6452 27.6469C58.9242 28.6539 59.0683 29.6979 59.1143 30.7459C58.7063 30.8369 58.3013 30.9459 57.9023 31.0879C57.2793 31.3089 56.9463 32.3049 57.4483 32.8099C57.8893 33.2529 58.3942 33.6049 58.9432 33.8589C58.7642 35.0529 58.4313 36.1839 58.0313 37.2549C57.9083 37.2739 57.7842 37.2879 57.6622 37.3119C57.3982 37.3629 57.1383 37.4319 56.8803 37.5049C56.7323 37.5469 56.5853 37.5979 56.4463 37.6639C56.0873 37.8339 55.8253 38.1409 55.7693 38.5429C55.7133 38.9379 55.8783 39.3469 56.1963 39.5889C56.3653 39.7179 56.5512 39.8189 56.7352 39.9209C55.9092 41.2279 54.9322 42.2639 53.8652 42.8169C53.8652 42.8169 52.5432 42.2399 50.8132 41.2039C51.0292 40.9139 51.2462 40.6239 51.4472 40.3239C51.6852 39.9709 51.7903 39.6079 51.7543 39.1859C51.7203 38.7769 51.4722 38.4199 51.1672 38.1639C50.8732 37.9159 50.4032 37.8079 50.0292 37.8559C49.6632 37.9029 49.2182 38.1279 49.0072 38.4429C48.7672 38.7999 48.5022 39.1399 48.2402 39.4809C46.9162 38.4829 45.5993 37.2779 44.5603 35.9079C44.6003 35.8959 44.6433 35.8839 44.6703 35.8759C45.3393 35.7009 46.0233 35.5879 46.7123 35.5369C47.5733 35.4729 48.1092 34.6069 48.0422 33.8119C47.9702 32.9499 47.1192 32.4209 46.3172 32.4809Z" fill="white"/>
<path d="M48.39 7.49895C49.022 7.04595 49.707 6.70495 50.418 6.42095C50.23 5.90095 49.978 5.40595 49.629 4.95995C46.569 1.05395 45.185 4.93497 42.81 5.01897C41.626 5.06097 40.447 5.43696 39.77 6.27596C40.067 6.38396 40.359 6.50796 40.64 6.65596C41.095 6.89496 41.175 7.47297 40.859 7.85497C40.563 8.21397 40.143 8.51396 39.684 8.62096C39.541 8.65496 39.395 8.65196 39.25 8.65996C39.332 9.16796 39.502 9.73295 39.791 10.37C40.086 11.022 40.469 11.633 40.905 12.203C41.159 12.072 41.42 11.952 41.692 11.851C42.117 11.694 42.729 12.071 42.686 12.557C42.649 12.983 42.538 13.39 42.361 13.764C42.979 14.312 43.65 14.761 44.331 15.148C44.404 15.104 44.475 15.0569 44.55 15.0159C44.711 14.9269 44.878 14.8489 45.046 14.7739C45.142 14.7309 45.241 14.6929 45.344 14.6669C45.607 14.5989 45.879 14.6449 46.085 14.8309C46.288 15.0139 46.381 15.3009 46.32 15.5679C46.288 15.7099 46.235 15.844 46.182 15.979C47.19 16.303 48.157 16.419 48.961 16.241C48.961 16.241 49.402 15.3579 49.857 14.0539C49.616 13.9969 49.375 13.939 49.138 13.87C48.858 13.789 48.644 13.645 48.477 13.407C48.315 13.177 48.289 12.881 48.337 12.612C48.383 12.353 48.582 12.0899 48.8 11.9509C49.013 11.8149 49.345 11.738 49.595 11.811C49.878 11.893 50.166 11.955 50.453 12.019C50.71 10.914 50.874 9.70296 50.818 8.52696C50.792 8.53896 50.764 8.55097 50.746 8.55797C50.318 8.75997 49.909 8.99996 49.524 9.27596C49.044 9.61996 48.382 9.39996 48.068 8.95296C47.728 8.47096 47.943 7.81995 48.39 7.49895Z" fill="#FF4933"/>
<path opacity="0.3" d="M48.39 7.49895C49.022 7.04595 49.707 6.70495 50.418 6.42095C50.23 5.90095 49.978 5.40595 49.629 4.95995C46.569 1.05395 45.185 4.93497 42.81 5.01897C41.626 5.06097 40.447 5.43696 39.77 6.27596C40.067 6.38396 40.359 6.50796 40.64 6.65596C41.095 6.89496 41.175 7.47297 40.859 7.85497C40.563 8.21397 40.143 8.51396 39.684 8.62096C39.541 8.65496 39.395 8.65196 39.25 8.65996C39.332 9.16796 39.502 9.73295 39.791 10.37C40.086 11.022 40.469 11.633 40.905 12.203C41.159 12.072 41.42 11.952 41.692 11.851C42.117 11.694 42.729 12.071 42.686 12.557C42.649 12.983 42.538 13.39 42.361 13.764C42.979 14.312 43.65 14.761 44.331 15.148C44.404 15.104 44.475 15.0569 44.55 15.0159C44.711 14.9269 44.878 14.8489 45.046 14.7739C45.142 14.7309 45.241 14.6929 45.344 14.6669C45.607 14.5989 45.879 14.6449 46.085 14.8309C46.288 15.0139 46.381 15.3009 46.32 15.5679C46.288 15.7099 46.235 15.844 46.182 15.979C47.19 16.303 48.157 16.419 48.961 16.241C48.961 16.241 49.402 15.3579 49.857 14.0539C49.616 13.9969 49.375 13.939 49.138 13.87C48.858 13.789 48.644 13.645 48.477 13.407C48.315 13.177 48.289 12.881 48.337 12.612C48.383 12.353 48.582 12.0899 48.8 11.9509C49.013 11.8149 49.345 11.738 49.595 11.811C49.878 11.893 50.166 11.955 50.453 12.019C50.71 10.914 50.874 9.70296 50.818 8.52696C50.792 8.53896 50.764 8.55097 50.746 8.55797C50.318 8.75997 49.909 8.99996 49.524 9.27596C49.044 9.61996 48.382 9.39996 48.068 8.95296C47.728 8.47096 47.943 7.81995 48.39 7.49895Z" fill="white"/>
<path d="M19.1183 14.751C18.9083 16.221 22.8953 17.189 26.1463 17.731C25.8813 20.4 24.1053 23.098 21.6523 25.617C18.5673 23.879 14.1623 21.581 13.3503 22.142C12.4643 22.755 16.9743 25.671 19.7943 27.386C17.8103 29.147 15.5763 30.788 13.4053 32.226C12.0223 30.934 10.4033 29.8 9.43825 30.413C8.43725 31.05 8.70826 33.049 9.20226 34.833C5.84626 36.79 3.33227 37.98 3.33227 37.98C3.33227 37.98 1.92326 33.709 1.09026 28.45C1.25926 28.116 1.42727 27.778 1.58227 27.421C2.12327 26.17 1.59627 25.638 0.703269 25.462C0.472269 23.16 0.405276 20.793 0.648276 18.596C4.44728 17.799 9.06626 16.324 7.33626 14.046C6.29226 12.672 4.38228 12.517 2.39428 12.861C2.67228 12.403 2.98027 11.971 3.33227 11.583C10.2463 3.96504 15.0693 11.583 15.0693 11.583C19.0873 8.23404 24.7313 9.14102 25.9513 14.373C23.6953 13.796 19.3773 12.935 19.1183 14.751Z" fill="#FF4933"/>
<path opacity="0.5" d="M19.1183 14.751C18.9083 16.221 22.8953 17.189 26.1463 17.731C25.8813 20.4 24.1053 23.098 21.6523 25.617C18.5673 23.879 14.1623 21.581 13.3503 22.142C12.4643 22.755 16.9743 25.671 19.7943 27.386C17.8103 29.147 15.5763 30.788 13.4053 32.226C12.0223 30.934 10.4033 29.8 9.43825 30.413C8.43725 31.05 8.70826 33.049 9.20226 34.833C5.84626 36.79 3.33227 37.98 3.33227 37.98C3.33227 37.98 1.92326 33.709 1.09026 28.45C1.25926 28.116 1.42727 27.778 1.58227 27.421C2.12327 26.17 1.59627 25.638 0.703269 25.462C0.472269 23.16 0.405276 20.793 0.648276 18.596C4.44728 17.799 9.06626 16.324 7.33626 14.046C6.29226 12.672 4.38228 12.517 2.39428 12.861C2.67228 12.403 2.98027 11.971 3.33227 11.583C10.2463 3.96504 15.0693 11.583 15.0693 11.583C19.0873 8.23404 24.7313 9.14102 25.9513 14.373C23.6953 13.796 19.3773 12.935 19.1183 14.751Z" fill="white"/>
</svg>
