<svg width="129" height="81" viewBox="0 0 129 81" fill="none" xmlns="http://www.w3.org/2000/svg">
<path d="M70.8453 61.693H2.85229C1.95529 61.693 1.22729 60.966 1.22729 60.068V2.26401C1.22729 1.36701 1.95429 0.639008 2.85229 0.639008H70.8453V61.693Z" fill="white" stroke="#263238" stroke-miterlimit="10" stroke-linecap="round" stroke-linejoin="round"/>
<path d="M73.1903 0.640015H3.06128V61.694H73.1903V0.640015Z" fill="#263238" stroke="#263238" stroke-miterlimit="10"/>
<path d="M69.3586 5.47403H8.46265V56.859H69.3586V5.47403Z" fill="white" stroke="#263238" stroke-miterlimit="10" stroke-linecap="round" stroke-linejoin="round"/>
<path d="M29.2585 26.228L38.3376 12.38L47.4156 26.228H43.6165V47.918H33.0586V26.228H29.2585Z" fill="#FF4933"/>
<path d="M3.06128 61.693L56.2213 77.065H127.886L73.1903 61.693H3.06128Z" fill="white" stroke="#263238" stroke-miterlimit="10" stroke-linecap="round" stroke-linejoin="round"/>
<path d="M59.8285 67.774L53.1835 65.881L50.2705 65.853L56.9015 67.752L59.8285 67.774Z" fill="white" stroke="#263238" stroke-width="0.25" stroke-miterlimit="10"/>
<path d="M65.6194 67.816L58.9484 65.936L56.0764 65.908L62.7334 67.795L65.6194 67.816Z" fill="white" stroke="#263238" stroke-width="0.25" stroke-miterlimit="10"/>
<path d="M86.6411 69.815L89.4182 69.829L82.5092 67.94L79.7432 67.919L86.6411 69.815Z" fill="white" stroke="#263238" stroke-width="0.25" stroke-miterlimit="10"/>
<path d="M56.9009 67.752L50.2699 65.853L47.3359 65.825L53.9539 67.731L56.9009 67.752Z" fill="white" stroke="#263238" stroke-width="0.25" stroke-miterlimit="10"/>
<path d="M50.9855 67.709L44.3825 65.797L41.4065 65.768L47.9955 67.687L50.9855 67.709Z" fill="white" stroke="#263238" stroke-width="0.25" stroke-miterlimit="10"/>
<path d="M76.9573 67.899L70.2403 66.044L67.4463 66.017L74.1523 67.878L76.9573 67.899Z" fill="white" stroke="#263238" stroke-width="0.25" stroke-miterlimit="10"/>
<path d="M79.7435 67.919L73.0145 66.07L70.2405 66.044L76.9575 67.899L79.7435 67.919Z" fill="white" stroke="#263238" stroke-width="0.25" stroke-miterlimit="10"/>
<path d="M47.9954 67.687L41.4064 65.768L38.4094 65.74L44.9834 67.665L47.9954 67.687Z" fill="white" stroke="#263238" stroke-width="0.25" stroke-miterlimit="10"/>
<path d="M68.4835 67.837L61.8015 65.963L58.9485 65.936L65.6195 67.816L68.4835 67.837Z" fill="white" stroke="#263238" stroke-width="0.25" stroke-miterlimit="10"/>
<path d="M82.5096 67.94L75.7697 66.097L73.0146 66.07L79.7437 67.919L82.5096 67.94Z" fill="white" stroke="#263238" stroke-width="0.25" stroke-miterlimit="10"/>
<path d="M74.1528 67.878L67.4468 66.017L64.6338 65.99L71.3288 67.858L74.1528 67.878Z" fill="white" stroke="#263238" stroke-width="0.25" stroke-miterlimit="10"/>
<path d="M71.3288 67.858L64.6338 65.99L61.8018 65.963L68.4838 67.837L71.3288 67.858Z" fill="white" stroke="#263238" stroke-width="0.25" stroke-miterlimit="10"/>
<path d="M62.7333 67.795L56.0763 65.908L53.1833 65.881L59.8283 67.774L62.7333 67.795Z" fill="white" stroke="#263238" stroke-width="0.25" stroke-miterlimit="10"/>
<path d="M41.9493 67.643L38.8933 67.621L45.6083 69.611L48.6803 69.626L41.9493 67.643Z" fill="white" stroke="#263238" stroke-width="0.25" stroke-miterlimit="10"/>
<path d="M35.3913 65.711L32.3503 65.682L38.8933 67.621L41.9493 67.643L35.3913 65.711Z" fill="white" stroke="#263238" stroke-width="0.25" stroke-miterlimit="10"/>
<path d="M44.9834 67.665L38.4094 65.74L35.3914 65.711L41.9494 67.643L44.9834 67.665Z" fill="white" stroke="#263238" stroke-width="0.25" stroke-miterlimit="10"/>
<path d="M52.5039 71.654L59.5879 73.753H62.6899L55.5909 71.662L52.5039 71.654Z" fill="white" stroke="#263238" stroke-width="0.25" stroke-miterlimit="10"/>
<path d="M48.6804 69.626L45.6084 69.611L52.5044 71.654L55.5914 71.662L48.6804 69.626Z" fill="white" stroke="#263238" stroke-width="0.25" stroke-miterlimit="10"/>
<path d="M55.5918 71.662L62.6908 73.753H65.7688L58.6558 71.67L55.5918 71.662Z" fill="white" stroke="#263238" stroke-width="0.25" stroke-miterlimit="10"/>
<path d="M53.9548 67.731L47.3368 65.825L44.3828 65.797L50.9858 67.709L53.9548 67.731Z" fill="white" stroke="#263238" stroke-width="0.25" stroke-miterlimit="10"/>
<path d="M60.7434 69.686L53.9544 67.731L50.9854 67.709L57.7604 69.671L60.7434 69.686Z" fill="white" stroke="#263238" stroke-width="0.25" stroke-miterlimit="10"/>
<path d="M57.7601 69.671L50.9851 67.709L47.9951 67.687L54.7561 69.656L57.7601 69.671Z" fill="white" stroke="#263238" stroke-width="0.25" stroke-miterlimit="10"/>
<path d="M63.7041 69.701L56.9011 67.752L53.9541 67.731L60.7431 69.686L63.7041 69.701Z" fill="white" stroke="#263238" stroke-width="0.25" stroke-miterlimit="10"/>
<path d="M44.9835 67.665L41.9495 67.643L48.6805 69.626L51.7295 69.641L44.9835 67.665Z" fill="white" stroke="#263238" stroke-width="0.25" stroke-miterlimit="10"/>
<path d="M93.7164 71.759L96.5024 71.766L89.4184 69.829L86.6414 69.815L93.7164 71.759Z" fill="white" stroke="#263238" stroke-width="0.25" stroke-miterlimit="10"/>
<path d="M54.7564 69.656L47.9954 67.687L44.9834 67.665L51.7294 69.641L54.7564 69.656Z" fill="white" stroke="#263238" stroke-width="0.25" stroke-miterlimit="10"/>
<path d="M48.6807 69.626L55.5917 71.662L58.6557 71.67L51.7297 69.641L48.6807 69.626Z" fill="white" stroke="#263238" stroke-width="0.25" stroke-miterlimit="10"/>
<path d="M81.0291 69.787L74.1521 67.878L71.3281 67.858L78.1931 69.773L81.0291 69.787Z" fill="white" stroke="#263238" stroke-width="0.25" stroke-miterlimit="10"/>
<path d="M78.1934 69.773L71.3284 67.858L68.4834 67.837L75.3374 69.759L78.1934 69.773Z" fill="white" stroke="#263238" stroke-width="0.25" stroke-miterlimit="10"/>
<path d="M86.641 69.815L79.743 67.919L76.957 67.899L83.845 69.801L86.641 69.815Z" fill="white" stroke="#263238" stroke-width="0.25" stroke-miterlimit="10"/>
<path d="M69.5621 69.73L62.7331 67.795L59.8281 67.774L66.6441 69.715L69.5621 69.73Z" fill="white" stroke="#263238" stroke-width="0.25" stroke-miterlimit="10"/>
<path d="M75.3372 69.759L68.4832 67.837L65.6191 67.816L72.4601 69.744L75.3372 69.759Z" fill="white" stroke="#263238" stroke-width="0.25" stroke-miterlimit="10"/>
<path d="M72.4604 69.744L65.6194 67.816L62.7334 67.795L69.5624 69.73L72.4604 69.744Z" fill="white" stroke="#263238" stroke-width="0.25" stroke-miterlimit="10"/>
<path d="M66.6444 69.715L59.8284 67.774L56.9014 67.752L63.7044 69.701L66.6444 69.715Z" fill="white" stroke="#263238" stroke-width="0.25" stroke-miterlimit="10"/>
<path d="M75.3379 69.759L82.3679 71.73L85.2359 71.737L78.1939 69.773L75.3379 69.759Z" fill="white" stroke="#263238" stroke-width="0.25" stroke-miterlimit="10"/>
<path d="M78.1934 69.773L85.2354 71.737L88.0824 71.745L81.0294 69.787L78.1934 69.773Z" fill="white" stroke="#263238" stroke-width="0.25" stroke-miterlimit="10"/>
<path d="M51.7295 69.641L58.6555 71.67L61.6965 71.677L54.7565 69.656L51.7295 69.641Z" fill="white" stroke="#263238" stroke-width="0.25" stroke-miterlimit="10"/>
<path d="M81.0293 69.787L88.0823 71.745L90.9093 71.752L83.8453 69.801L81.0293 69.787Z" fill="white" stroke="#263238" stroke-width="0.25" stroke-miterlimit="10"/>
<path d="M69.5625 69.73L76.5695 71.715L79.4795 71.723L72.4605 69.744L69.5625 69.73Z" fill="white" stroke="#263238" stroke-width="0.25" stroke-miterlimit="10"/>
<path d="M83.8457 69.801L90.9097 71.752L93.7167 71.759L86.6417 69.815L83.8457 69.801Z" fill="white" stroke="#263238" stroke-width="0.25" stroke-miterlimit="10"/>
<path d="M72.46 69.744L79.479 71.723L82.367 71.73L75.337 69.759L72.46 69.744Z" fill="white" stroke="#263238" stroke-width="0.25" stroke-miterlimit="10"/>
<path d="M57.7607 69.671L64.7157 71.685L67.7117 71.693L60.7437 69.686L57.7607 69.671Z" fill="white" stroke="#263238" stroke-width="0.25" stroke-miterlimit="10"/>
<path d="M54.7568 69.656L61.6968 71.677L64.7158 71.685L57.7608 69.671L54.7568 69.656Z" fill="white" stroke="#263238" stroke-width="0.25" stroke-miterlimit="10"/>
<path d="M66.6445 69.715L73.6385 71.708L76.5695 71.715L69.5625 69.73L66.6445 69.715Z" fill="white" stroke="#263238" stroke-width="0.25" stroke-miterlimit="10"/>
<path d="M63.7041 69.701L70.6861 71.7L73.6381 71.708L66.6441 69.715L63.7041 69.701Z" fill="white" stroke="#263238" stroke-width="0.25" stroke-miterlimit="10"/>
<path d="M60.7432 69.686L67.7112 71.693L70.6862 71.7L63.7042 69.701L60.7432 69.686Z" fill="white" stroke="#263238" stroke-width="0.25" stroke-miterlimit="10"/>
<path d="M83.8453 69.801L76.9573 67.899L74.1523 67.878L81.0293 69.787L83.8453 69.801Z" fill="white" stroke="#263238" stroke-width="0.25" stroke-miterlimit="10"/>
<path d="M35.391 65.711L28.398 63.651L25.375 63.615L32.35 65.682L35.391 65.711Z" fill="white" stroke="#263238" stroke-width="0.25" stroke-miterlimit="10"/>
<path d="M32.3504 65.682L29.5244 65.655L36.0524 67.6L38.8934 67.621L32.3504 65.682Z" fill="white" stroke="#263238" stroke-width="0.25" stroke-miterlimit="10"/>
<path d="M25.3754 63.615L22.5664 63.582L29.5244 65.655L32.3504 65.682L25.3754 63.615Z" fill="white" stroke="#263238" stroke-width="0.25" stroke-miterlimit="10"/>
<path d="M38.8937 67.621L36.0527 67.6L42.7537 69.596L45.6087 69.611L38.8937 67.621Z" fill="white" stroke="#263238" stroke-width="0.25" stroke-miterlimit="10"/>
<path d="M45.6079 69.611L42.7529 69.596L49.6339 71.647L52.5039 71.654L45.6079 69.611Z" fill="white" stroke="#263238" stroke-width="0.25" stroke-miterlimit="10"/>
<path d="M52.5048 71.654L49.6348 71.647L56.7048 73.753H59.5888L52.5048 71.654Z" fill="white" stroke="#263238" stroke-width="0.25" stroke-miterlimit="10"/>
<path d="M85.2568 67.96L92.1758 69.842L94.5988 69.855L87.6708 67.977L85.2568 67.96Z" fill="white" stroke="#263238" stroke-width="0.25" stroke-miterlimit="10"/>
<path d="M99.2698 71.773L101.701 71.779L94.5988 69.855L92.1758 69.842L99.2698 71.773Z" fill="white" stroke="#263238" stroke-width="0.25" stroke-miterlimit="10"/>
<path d="M106.546 73.753H108.985L101.701 71.779L99.2695 71.773L106.546 73.753Z" fill="white" stroke="#263238" stroke-width="0.25" stroke-miterlimit="10"/>
<path d="M58.9486 65.936L51.8316 63.93L48.9736 63.896L56.0766 65.908L58.9486 65.936Z" fill="white" stroke="#263238" stroke-width="0.25" stroke-miterlimit="10"/>
<path d="M85.2569 67.96L87.6709 67.977L80.9119 66.146L78.5059 66.123L85.2569 67.96Z" fill="white" stroke="#263238" stroke-width="0.25" stroke-miterlimit="10"/>
<path d="M96.502 71.766L99.269 71.773L92.175 69.842L89.418 69.829L96.502 71.766Z" fill="white" stroke="#263238" stroke-width="0.25" stroke-miterlimit="10"/>
<path d="M38.4094 65.74L31.4004 63.687L28.3984 63.651L35.3914 65.711L38.4094 65.74Z" fill="white" stroke="#263238" stroke-width="0.25" stroke-miterlimit="10"/>
<path d="M75.7695 66.097L82.5095 67.94L85.2565 67.96L78.5055 66.123L75.7695 66.097Z" fill="white" stroke="#263238" stroke-width="0.25" stroke-miterlimit="10"/>
<path d="M80.9118 66.146L73.6938 64.19L71.2988 64.161L78.5058 66.123L80.9118 66.146Z" fill="white" stroke="#263238" stroke-width="0.25" stroke-miterlimit="10"/>
<path d="M78.5055 66.123L71.2985 64.161L68.5745 64.129L75.7695 66.097L78.5055 66.123Z" fill="white" stroke="#263238" stroke-width="0.25" stroke-miterlimit="10"/>
<path d="M88.082 71.745L95.319 73.753H98.156L90.909 71.752L88.082 71.745Z" fill="white" stroke="#263238" stroke-width="0.25" stroke-miterlimit="10"/>
<path d="M103.769 73.753H106.545L99.269 71.773L96.502 71.766L103.769 73.753Z" fill="white" stroke="#263238" stroke-width="0.25" stroke-miterlimit="10"/>
<path d="M75.7691 66.097L68.5741 64.129L65.8311 64.096L73.0141 66.07L75.7691 66.097Z" fill="white" stroke="#263238" stroke-width="0.25" stroke-miterlimit="10"/>
<path d="M93.7168 71.759L100.973 73.753H103.77L96.5028 71.766L93.7168 71.759Z" fill="white" stroke="#263238" stroke-width="0.25" stroke-miterlimit="10"/>
<path d="M90.9094 71.752L98.1564 73.753H100.972L93.7164 71.759L90.9094 71.752Z" fill="white" stroke="#263238" stroke-width="0.25" stroke-miterlimit="10"/>
<path d="M89.4188 69.829L92.1758 69.842L85.2568 67.96L82.5098 67.94L89.4188 69.829Z" fill="white" stroke="#263238" stroke-width="0.25" stroke-miterlimit="10"/>
<path d="M50.2703 65.853L43.1973 63.827L40.2793 63.792L47.3363 65.825L50.2703 65.853Z" fill="white" stroke="#263238" stroke-width="0.25" stroke-miterlimit="10"/>
<path d="M73.0143 66.07L65.8313 64.096L63.0693 64.064L70.2403 66.044L73.0143 66.07Z" fill="white" stroke="#263238" stroke-width="0.25" stroke-miterlimit="10"/>
<path d="M47.3368 65.825L40.2798 63.792L37.3408 63.757L44.3828 65.797L47.3368 65.825Z" fill="white" stroke="#263238" stroke-width="0.25" stroke-miterlimit="10"/>
<path d="M56.0767 65.908L48.9737 63.896L46.0957 63.862L53.1837 65.881L56.0767 65.908Z" fill="white" stroke="#263238" stroke-width="0.25" stroke-miterlimit="10"/>
<path d="M44.3828 65.797L37.3409 63.757L34.3809 63.722L41.4069 65.768L44.3828 65.797Z" fill="white" stroke="#263238" stroke-width="0.25" stroke-miterlimit="10"/>
<path d="M41.4064 65.768L34.3804 63.722L31.4004 63.687L38.4094 65.74L41.4064 65.768Z" fill="white" stroke="#263238" stroke-width="0.25" stroke-miterlimit="10"/>
<path d="M53.1833 65.881L46.0953 63.862L43.1973 63.827L50.2703 65.853L53.1833 65.881Z" fill="white" stroke="#263238" stroke-width="0.25" stroke-miterlimit="10"/>
<path d="M70.2401 66.044L63.0691 64.064L60.2881 64.03L67.4461 66.017L70.2401 66.044Z" fill="white" stroke="#263238" stroke-width="0.25" stroke-miterlimit="10"/>
<path d="M67.4463 66.017L60.2883 64.03L57.4883 63.997L64.6333 65.99L67.4463 66.017Z" fill="white" stroke="#263238" stroke-width="0.25" stroke-miterlimit="10"/>
<path d="M61.8011 65.963L54.6691 63.964L51.8311 63.93L58.9481 65.936L61.8011 65.963Z" fill="white" stroke="#263238" stroke-width="0.25" stroke-miterlimit="10"/>
<path d="M88.0823 71.745L85.2353 71.737L82.3673 71.73L79.4793 71.723L76.5693 71.715L73.6383 71.708L70.6863 71.7L67.7113 71.693L64.7153 71.685L61.6963 71.677L58.6553 71.67L65.7683 73.753H68.8233H71.8563H74.8653H77.8523H80.8183H83.7613H86.6823H89.5823H92.4613H95.3193L88.0823 71.745Z" fill="white" stroke="#263238" stroke-width="0.25" stroke-miterlimit="10"/>
<path d="M64.6329 65.99L57.4879 63.997L54.6689 63.964L61.8009 65.963L64.6329 65.99Z" fill="white" stroke="#263238" stroke-width="0.25" stroke-miterlimit="10"/>
<path d="M3.06128 61.693V63.731L56.2053 79.675L56.2213 77.065L3.06128 61.693Z" fill="white" stroke="#263238" stroke-miterlimit="10" stroke-linecap="round" stroke-linejoin="round"/>
<path d="M127.886 77.065H56.2212V79.675H127.886V77.065Z" fill="#263238" stroke="#263238" stroke-miterlimit="10" stroke-linecap="round" stroke-linejoin="round"/>
</svg>
