<svg width="117" height="91" viewBox="0 0 117 91" fill="none" xmlns="http://www.w3.org/2000/svg">
<path d="M103.059 0.640045H13.9536V61.694H103.059V0.640045Z" fill="#263238" stroke="#263238" stroke-miterlimit="10"/>
<path d="M116.425 88.683H0.587646L13.9536 61.693H103.059L116.425 88.683Z" fill="white" stroke="#263238" stroke-miterlimit="10" stroke-linecap="round" stroke-linejoin="round"/>
<path d="M97.6613 5.47403H19.3503V56.859H97.6613V5.47403Z" fill="white" stroke="#263238" stroke-miterlimit="10"/>
<path d="M70.242 26.228L58.533 12.38L46.823 26.228H51.724V47.918H65.341V26.228H70.242Z" fill="#FF4933"/>
<path d="M54.7886 70.2371L54.9436 66.9481H50.2356L49.9236 70.2371H54.7886Z" fill="white" stroke="#263238" stroke-miterlimit="10"/>
<path d="M64.5209 70.2371L64.3598 66.9481H59.6519L59.6549 70.2371H64.5209Z" fill="white" stroke="#263238" stroke-miterlimit="10"/>
<path d="M89.8624 73.7531H94.8964L93.7144 70.2371H88.8484L89.8624 73.7531Z" fill="white" stroke="#263238" stroke-miterlimit="10"/>
<path d="M49.9243 70.2371L50.2363 66.9481H45.5273L45.0583 70.2371H49.9243Z" fill="white" stroke="#263238" stroke-miterlimit="10"/>
<path d="M40.1929 70.2371L40.8189 66.9481H36.1109L35.3269 70.2371H40.1929Z" fill="white" stroke="#263238" stroke-miterlimit="10"/>
<path d="M83.9829 70.2371L83.1929 66.9481H78.4839L79.1169 70.2371H83.9829Z" fill="white" stroke="#263238" stroke-miterlimit="10"/>
<path d="M88.8479 70.2371L87.9009 66.9481H83.1929L83.9829 70.2371H88.8479Z" fill="white" stroke="#263238" stroke-miterlimit="10"/>
<path d="M35.3267 70.2371L36.1107 66.9481H31.4027L30.4607 70.2371H35.3267Z" fill="white" stroke="#263238" stroke-miterlimit="10"/>
<path d="M69.3859 70.2371L69.0679 66.9481H64.3599L64.5209 70.2371H69.3859Z" fill="white" stroke="#263238" stroke-miterlimit="10"/>
<path d="M93.7139 70.2371L92.6089 66.9481H87.9009L88.8479 70.2371H93.7139Z" fill="white" stroke="#263238" stroke-miterlimit="10"/>
<path d="M79.1169 70.2371L78.4839 66.9481H73.7759L74.2519 70.2371H79.1169Z" fill="white" stroke="#263238" stroke-miterlimit="10"/>
<path d="M74.2519 70.2371L73.7759 66.9481H69.0679L69.3859 70.2371H74.2519Z" fill="white" stroke="#263238" stroke-miterlimit="10"/>
<path d="M59.6551 70.2371L59.6521 66.9481H54.9441L54.7891 70.2371H59.6551Z" fill="white" stroke="#263238" stroke-miterlimit="10"/>
<path d="M25.5955 70.2371H20.7295L19.3865 73.7531H24.4205L25.5955 70.2371Z" fill="white" stroke="#263238" stroke-miterlimit="10"/>
<path d="M26.6952 66.9481H21.9872L20.7302 70.2371H25.5962L26.6952 66.9481Z" fill="white" stroke="#263238" stroke-miterlimit="10"/>
<path d="M30.4605 70.2371L31.4025 66.9481H26.6945L25.5955 70.2371H30.4605Z" fill="white" stroke="#263238" stroke-miterlimit="10"/>
<path d="M17.9469 77.5221L16.3999 81.5701H21.8079L23.1609 77.5221H17.9469Z" fill="white" stroke="#263238" stroke-miterlimit="10"/>
<path d="M24.421 73.7531H19.387L17.947 77.5221H23.161L24.421 73.7531Z" fill="white" stroke="#263238" stroke-miterlimit="10"/>
<path d="M23.1613 77.5221L21.8083 81.5701H27.2173L28.3764 77.5221H23.1613Z" fill="white" stroke="#263238" stroke-miterlimit="10"/>
<path d="M45.0579 70.2371L45.5269 66.9481H40.8189L40.1929 70.2371H45.0579Z" fill="white" stroke="#263238" stroke-miterlimit="10"/>
<path d="M44.5562 73.7531L45.0582 70.2371H40.1932L39.5222 73.7531H44.5562Z" fill="white" stroke="#263238" stroke-miterlimit="10"/>
<path d="M39.522 73.7531L40.193 70.2371H35.327L34.489 73.7531H39.522Z" fill="white" stroke="#263238" stroke-miterlimit="10"/>
<path d="M49.5904 73.7531L49.9244 70.2371H45.0584L44.5564 73.7531H49.5904Z" fill="white" stroke="#263238" stroke-miterlimit="10"/>
<path d="M30.4606 70.2371H25.5956L24.4207 73.7531H29.4547L30.4606 70.2371Z" fill="white" stroke="#263238" stroke-miterlimit="10"/>
<path d="M90.9481 77.5221H96.162L94.8961 73.7531H89.8621L90.9481 77.5221Z" fill="white" stroke="#263238" stroke-miterlimit="10"/>
<path d="M34.4891 73.7531L35.3271 70.2371H30.4611L29.4551 73.7531H34.4891Z" fill="white" stroke="#263238" stroke-miterlimit="10"/>
<path d="M24.4209 73.7531L23.1609 77.5221H28.3759L29.4549 73.7531H24.4209Z" fill="white" stroke="#263238" stroke-miterlimit="10"/>
<path d="M79.7937 73.7531L79.1167 70.2371H74.2517L74.7597 73.7531H79.7937Z" fill="white" stroke="#263238" stroke-miterlimit="10"/>
<path d="M74.7595 73.7531L74.2515 70.2371H69.3855L69.7255 73.7531H74.7595Z" fill="white" stroke="#263238" stroke-miterlimit="10"/>
<path d="M89.8619 73.7531L88.8479 70.2371H83.9829L84.8279 73.7531H89.8619Z" fill="white" stroke="#263238" stroke-miterlimit="10"/>
<path d="M59.658 73.7531L59.655 70.2371H54.789L54.624 73.7531H59.658Z" fill="white" stroke="#263238" stroke-miterlimit="10"/>
<path d="M69.7263 73.7531L69.3862 70.2371H64.5212L64.6922 73.7531H69.7263Z" fill="white" stroke="#263238" stroke-miterlimit="10"/>
<path d="M64.692 73.7531L64.521 70.2371H59.655L59.658 73.7531H64.692Z" fill="white" stroke="#263238" stroke-miterlimit="10"/>
<path d="M54.6236 73.7531L54.7886 70.2371H49.9236L49.5896 73.7531H54.6236Z" fill="white" stroke="#263238" stroke-miterlimit="10"/>
<path d="M69.7263 73.7531L70.0903 77.5221H75.3053L74.7603 73.7531H69.7263Z" fill="white" stroke="#263238" stroke-miterlimit="10"/>
<path d="M74.7595 73.7531L75.3045 77.5221H80.5185L79.7935 73.7531H74.7595Z" fill="white" stroke="#263238" stroke-miterlimit="10"/>
<path d="M29.455 73.7531L28.376 77.5221H33.59L34.489 73.7531H29.455Z" fill="white" stroke="#263238" stroke-miterlimit="10"/>
<path d="M79.7937 73.7531L80.5187 77.5221H85.7327L84.8277 73.7531H79.7937Z" fill="white" stroke="#263238" stroke-miterlimit="10"/>
<path d="M59.658 73.7531L59.662 77.5221H64.876L64.6919 73.7531H59.658Z" fill="white" stroke="#263238" stroke-miterlimit="10"/>
<path d="M84.8279 73.7531L85.7329 77.5221H90.9479L89.8619 73.7531H84.8279Z" fill="white" stroke="#263238" stroke-miterlimit="10"/>
<path d="M64.6919 73.7531L64.8759 77.5221H70.0899L69.7259 73.7531H64.6919Z" fill="white" stroke="#263238" stroke-miterlimit="10"/>
<path d="M39.5224 73.7531L38.8044 77.5221H44.0194L44.5564 73.7531H39.5224Z" fill="white" stroke="#263238" stroke-miterlimit="10"/>
<path d="M34.4886 73.7531L33.5896 77.5221H38.8036L39.5216 73.7531H34.4886Z" fill="white" stroke="#263238" stroke-miterlimit="10"/>
<path d="M54.624 73.7531L54.447 77.5221H59.662L59.658 73.7531H54.624Z" fill="white" stroke="#263238" stroke-miterlimit="10"/>
<path d="M49.5899 73.7531L49.2329 77.5221H54.4469L54.6239 73.7531H49.5899Z" fill="white" stroke="#263238" stroke-miterlimit="10"/>
<path d="M44.5563 73.7531L44.0193 77.5221H49.2333L49.5903 73.7531H44.5563Z" fill="white" stroke="#263238" stroke-miterlimit="10"/>
<path d="M84.8279 73.7531L83.9829 70.2371H79.1169L79.7939 73.7531H84.8279Z" fill="white" stroke="#263238" stroke-miterlimit="10"/>
<path d="M26.6951 66.9481L27.8201 63.5821H23.2731L21.9871 66.9481H26.6951Z" fill="white" stroke="#263238" stroke-miterlimit="10"/>
<path d="M21.987 66.9481H17.641L16.239 70.2371H20.73L21.987 66.9481Z" fill="white" stroke="#263238" stroke-miterlimit="10"/>
<path d="M23.2733 63.5821H19.0764L17.6414 66.9481H21.9874L23.2733 63.5821Z" fill="white" stroke="#263238" stroke-miterlimit="10"/>
<path d="M20.73 70.2371H16.239L14.74 73.7531H19.387L20.73 70.2371Z" fill="white" stroke="#263238" stroke-miterlimit="10"/>
<path d="M19.3865 73.7531H14.7395L13.1335 77.5221H17.9465L19.3865 73.7531Z" fill="white" stroke="#263238" stroke-miterlimit="10"/>
<path d="M17.947 77.5221H13.134L11.408 81.5701H16.3999L17.947 77.5221Z" fill="white" stroke="#263238" stroke-miterlimit="10"/>
<path d="M98.5798 70.2371L99.9298 73.7531H104.383L102.884 70.2371H98.5798Z" fill="white" stroke="#263238" stroke-miterlimit="10"/>
<path d="M101.376 77.5221H105.989L104.383 73.7531H99.9304L101.376 77.5221Z" fill="white" stroke="#263238" stroke-miterlimit="10"/>
<path d="M102.931 81.5701H107.715L105.989 77.5221H101.376L102.931 81.5701Z" fill="white" stroke="#263238" stroke-miterlimit="10"/>
<path d="M64.3599 66.9481L64.1959 63.5821H59.6489L59.6519 66.9481H64.3599Z" fill="white" stroke="#263238" stroke-miterlimit="10"/>
<path d="M98.5799 70.2371H102.884L101.482 66.9481H97.3169L98.5799 70.2371Z" fill="white" stroke="#263238" stroke-miterlimit="10"/>
<path d="M96.1622 77.5221H101.376L99.9302 73.7531H94.8962L96.1622 77.5221Z" fill="white" stroke="#263238" stroke-miterlimit="10"/>
<path d="M31.4031 66.9481L32.3671 63.5821H27.8201L26.6951 66.9481H31.4031Z" fill="white" stroke="#263238" stroke-miterlimit="10"/>
<path d="M92.6089 66.9481L93.7139 70.2371H98.5799L97.3169 66.9481H92.6089Z" fill="white" stroke="#263238" stroke-miterlimit="10"/>
<path d="M101.482 66.9481L100.047 63.5821H96.0249L97.3169 66.9481H101.482Z" fill="white" stroke="#263238" stroke-miterlimit="10"/>
<path d="M97.3173 66.9481L96.0253 63.5821H91.4783L92.6093 66.9481H97.3173Z" fill="white" stroke="#263238" stroke-miterlimit="10"/>
<path d="M80.5193 77.5221L81.2983 81.5701H86.7063L85.7333 77.5221H80.5193Z" fill="white" stroke="#263238" stroke-miterlimit="10"/>
<path d="M97.5219 81.5701H102.931L101.376 77.5221H96.1619L97.5219 81.5701Z" fill="white" stroke="#263238" stroke-miterlimit="10"/>
<path d="M92.6094 66.9481L91.4784 63.5821H86.9314L87.9014 66.9481H92.6094Z" fill="white" stroke="#263238" stroke-miterlimit="10"/>
<path d="M90.948 77.5221L92.114 81.5701H97.522L96.162 77.5221H90.948Z" fill="white" stroke="#263238" stroke-miterlimit="10"/>
<path d="M85.7329 77.5221L86.7059 81.5701H92.1139L90.9479 77.5221H85.7329Z" fill="white" stroke="#263238" stroke-miterlimit="10"/>
<path d="M94.8956 73.7531H99.9296L98.5796 70.2371H93.7136L94.8956 73.7531Z" fill="white" stroke="#263238" stroke-miterlimit="10"/>
<path d="M50.2359 66.9481L50.5549 63.5821H46.0079L45.5269 66.9481H50.2359Z" fill="white" stroke="#263238" stroke-miterlimit="10"/>
<path d="M87.9005 66.9481L86.9305 63.5821H82.3835L83.1925 66.9481H87.9005Z" fill="white" stroke="#263238" stroke-miterlimit="10"/>
<path d="M45.5268 66.9481L46.0078 63.5821H41.4608L40.8188 66.9481H45.5268Z" fill="white" stroke="#263238" stroke-miterlimit="10"/>
<path d="M59.6518 66.9481L59.6488 63.5821H55.1019L54.9438 66.9481H59.6518Z" fill="white" stroke="#263238" stroke-miterlimit="10"/>
<path d="M40.8188 66.9481L41.4608 63.5821H36.9138L36.1108 66.9481H40.8188Z" fill="white" stroke="#263238" stroke-miterlimit="10"/>
<path d="M36.1108 66.9481L36.9138 63.5821H32.3668L31.4028 66.9481H36.1108Z" fill="white" stroke="#263238" stroke-miterlimit="10"/>
<path d="M54.9438 66.9481L55.1019 63.5821H50.5548L50.2358 66.9481H54.9438Z" fill="white" stroke="#263238" stroke-miterlimit="10"/>
<path d="M83.1927 66.9481L82.3837 63.5821H77.8367L78.4837 66.9481H83.1927Z" fill="white" stroke="#263238" stroke-miterlimit="10"/>
<path d="M78.484 66.9481L77.837 63.5821H73.29L73.776 66.9481H78.484Z" fill="white" stroke="#263238" stroke-miterlimit="10"/>
<path d="M69.068 66.9481L68.743 63.5821H64.196L64.36 66.9481H69.068Z" fill="white" stroke="#263238" stroke-miterlimit="10"/>
<path d="M80.5186 77.5221H75.3046H70.0896H64.8756H59.6616H54.4466H49.2326H44.0186H38.8036H33.5896H28.3756L27.2166 81.5701H32.6246H38.0326H43.4406H48.8486H54.2566H59.6646H65.0736H70.4816H75.8896H81.2976L80.5186 77.5221Z" fill="white" stroke="#263238" stroke-miterlimit="10"/>
<path d="M73.7759 66.9481L73.2899 63.5821H68.7429L69.0679 66.9481H73.7759Z" fill="white" stroke="#263238" stroke-miterlimit="10"/>
<path d="M116.477 88.683H0.587646V90.327H116.477V88.683Z" fill="#263238" stroke="#263238" stroke-miterlimit="10"/>
</svg>
