<svg width="40" height="40" viewBox="0 0 40 40" fill="none" xmlns="http://www.w3.org/2000/svg">
<rect width="40" height="40" rx="20" fill="white"/>
<rect width="40" height="40" rx="20" fill="url(#paint0_linear_13_1321)"/>
<path d="M20.2853 10.666C20.9083 10.6695 22.467 10.6847 24.1237 10.7512L24.7117 10.7768C26.3788 10.855 28.0448 10.9903 28.872 11.2202C29.9745 11.5305 30.8402 12.4335 31.133 13.5792C31.5997 15.3992 31.658 18.9482 31.665 19.808L31.6662 19.9853V20.1883C31.658 21.0482 31.5997 24.5983 31.133 26.4172C30.8367 27.5663 29.9698 28.4705 28.872 28.7762C28.0448 29.006 26.3788 29.1413 24.7117 29.2195L24.1237 29.2463C22.467 29.3117 20.9083 29.328 20.2853 29.3303L20.0112 29.3315H19.7137C18.3953 29.3233 12.8817 29.2638 11.127 28.7762C10.0257 28.4658 9.15882 27.5628 8.86598 26.4172C8.39932 24.5972 8.34098 21.0482 8.33398 20.1883V19.808C8.34098 18.9482 8.39932 15.398 8.86598 13.5792C9.16232 12.43 10.0292 11.5258 11.1282 11.2213C12.8817 10.7325 18.3965 10.673 19.7148 10.666H20.2853ZM17.6662 15.916V24.0827L24.6662 19.9993L17.6662 15.916Z" fill="white"/>
<defs>
<linearGradient id="paint0_linear_13_1321" x1="0" y1="20" x2="40" y2="20" gradientUnits="userSpaceOnUse">
<stop stop-color="#FF3934"/>
<stop offset="1" stop-color="#FF7033"/>
</linearGradient>
</defs>
</svg>
