<svg width="2299" height="3430" viewBox="0 0 2299 3430" fill="none" xmlns="http://www.w3.org/2000/svg">
<g opacity="0.3">
<g opacity="0.06">
<path d="M2248.63 324.508C2225.3 424.463 2195.97 523.014 2160.86 619.466C2145.25 662.34 2127.93 705.764 2097.79 740.021C2020.75 827.587 1885.93 830.321 1770.86 811.298C1664.87 793.775 1560.98 763.594 1462.1 721.601C1364.12 679.987 1269.35 626.294 1164.37 608.663C1059.38 591.032 937.271 619.377 880.701 709.557C847.044 763.211 841.685 831.125 854.835 893.084C867.984 955.044 898.127 1012.06 931.583 1065.84C969.892 1127.42 1014.37 1189.76 1020.12 1262.05C1026.07 1336.88 984.723 1413.42 918.867 1449.46C825.179 1500.73 710.478 1468.57 605.412 1449.41C471.935 1425.06 328.758 1425.28 206.815 1484.77C84.8677 1544.26 -9.39572 1673.54 3.11603 1808.64" stroke="white" stroke-width="2.80973" stroke-miterlimit="10"/>
<path d="M2224.96 304.286C2202.23 402.002 2173.39 498.28 2138.72 592.385C2123.31 634.22 2106.2 676.541 2076.83 710.098C2001.77 795.855 1871.32 800.576 1759.43 784.252C1732.87 780.378 1706.42 775.684 1680.14 770.186C1604.47 754.349 1530.2 731.831 1458.49 702.972C1362.75 664.44 1269.96 614.141 1167.37 597.953C1064.8 581.76 949.08 611.327 889.34 695.162C866.864 726.701 851.518 760.69 845.023 797.379C840.584 822.371 839.629 848.311 842.231 874.104C843.411 885.901 845.29 897.701 847.849 909.536C858.122 956.853 879.991 1003.2 903.924 1047.21C906.298 1051.58 908.691 1055.93 911.096 1060.27C948.527 1127.85 988.053 1196.94 990.215 1272.5C992.295 1345.29 953.886 1419.3 889.742 1454.82C798.479 1505.37 687.165 1476.42 585.505 1460.26C577.49 1458.99 569.444 1457.81 561.37 1456.73C439.35 1440.41 311.762 1447.07 202.891 1503.37C86.8174 1563.38 -1.84735 1689.85 12.1955 1821.13" stroke="#F9F9F9" stroke-width="2.80973" stroke-miterlimit="10"/>
<path d="M2201.28 284.074C2179.15 379.556 2150.8 473.552 2116.57 565.318C2101.36 606.112 2084.46 647.332 2055.86 680.189C1982.78 764.137 1856.69 770.845 1748 757.22C1722.18 753.988 1696.47 749.959 1670.91 745.145C1597.29 731.284 1524.9 710.908 1454.87 684.353C1361.37 648.898 1270.55 601.999 1170.36 587.252C1070.2 572.498 960.185 603.158 897.955 680.777C872.858 712.079 852.339 742.953 841.405 778.578C833.927 802.848 829.728 828.652 829.605 855.129C829.527 867.247 830.266 879.546 831.867 892.069C838.347 942.093 860.08 992.704 883.561 1040.51C885.892 1045.25 888.231 1049.98 890.582 1054.7C927.135 1128.28 961.806 1203.82 960.278 1282.96C958.917 1353.53 923.025 1425.18 860.594 1460.19C771.755 1510.01 663.828 1484.26 565.571 1471.12C557.826 1470.08 550.051 1469.14 542.256 1468.29C424.431 1455.52 302.31 1465.17 198.941 1521.98C88.7364 1582.52 5.67016 1706.18 21.2518 1833.63" stroke="#F4F4F4" stroke-width="2.80973" stroke-miterlimit="10"/>
<path d="M2177.61 263.853C2156.09 357.095 2128.22 448.818 2094.43 538.241C2079.41 577.992 2062.74 618.117 2034.9 650.271C1963.79 732.409 1842.08 741.108 1736.57 730.178C1711.51 727.591 1686.54 724.224 1661.68 720.094C1590.11 708.201 1519.6 689.971 1451.25 665.725C1360 633.351 1271.15 589.846 1173.35 576.542C1075.61 563.226 970.649 594.784 906.586 666.378C878.697 697.549 853.175 725.202 837.802 759.764C827.289 783.31 819.839 808.976 816.993 836.145C815.663 848.587 815.257 861.381 815.903 874.589C818.59 927.319 840.184 982.195 863.216 1033.8C865.501 1038.91 867.794 1044.02 870.083 1049.12C905.762 1128.7 935.7 1210.44 930.357 1293.41C925.961 1361.65 892.18 1431.05 831.457 1465.54C745.047 1514.64 640.503 1492.09 545.652 1481.96C538.174 1481.16 530.673 1480.45 523.157 1479.84C409.523 1470.6 292.873 1483.26 195.01 1540.57C90.6742 1601.64 13.2066 1722.49 30.3232 1846.11" stroke="#EEEEEE" stroke-width="2.80973" stroke-miterlimit="10"/>
<path d="M2153.94 243.631C2133.02 334.635 2105.64 424.081 2072.29 511.16C2057.47 549.871 2041 588.895 2013.94 620.348C1944.81 700.677 1827.47 711.36 1725.15 703.132C1700.84 701.187 1676.6 698.488 1652.46 695.039C1582.93 685.122 1514.3 669.034 1447.64 647.092C1358.63 617.796 1271.75 577.69 1176.35 565.828C1081.02 553.95 980.518 586.149 915.218 651.979C884.372 683.077 854.012 707.451 834.201 740.949C820.649 763.773 809.954 789.303 804.383 817.16C801.796 829.924 800.25 843.216 799.944 857.112C798.839 912.549 820.293 971.694 842.873 1027.09C845.112 1032.57 847.354 1038.06 849.589 1043.54C884.391 1129.13 909.758 1216.87 900.44 1303.86C893.392 1369.69 861.335 1436.92 802.33 1470.9C718.344 1519.27 617.186 1499.93 525.738 1492.81C518.527 1492.25 511.3 1491.78 504.059 1491.4C394.616 1485.7 283.433 1501.36 191.076 1559.17C92.6094 1620.77 20.7403 1738.8 39.3919 1858.59" stroke="#E9E9E9" stroke-width="2.80973" stroke-miterlimit="10"/>
<path d="M2130.28 223.419C2109.96 312.188 2083.06 399.353 2050.16 484.093C2035.53 521.764 2019.28 559.686 1992.99 590.435C1925.84 668.955 1812.87 681.629 1713.73 676.096C1690.18 674.793 1666.67 672.759 1643.24 669.995C1575.77 662.049 1509.02 648.103 1444.03 628.473C1357.27 602.259 1272.36 565.547 1179.36 555.127C1086.44 544.688 989.875 577.247 923.856 637.594C889.893 668.637 854.856 689.717 830.606 722.149C814.015 744.249 800.077 769.64 791.779 798.186C787.936 811.274 785.249 825.061 783.984 839.642C779.086 897.785 800.401 961.198 822.533 1020.39C824.729 1026.24 826.917 1032.1 829.094 1037.97C863.018 1129.56 883.993 1223.16 870.527 1314.32C861.162 1377.7 830.497 1442.8 773.201 1476.26C691.643 1523.91 593.869 1507.77 505.826 1503.66C498.886 1503.34 491.93 1503.1 484.967 1502.96C379.719 1500.79 274.003 1519.46 187.152 1577.77C94.5549 1639.9 28.2844 1755.12 48.471 1871.08" stroke="#E3E3E3" stroke-width="2.80973" stroke-miterlimit="10"/>
<path d="M2106.6 203.207C2086.87 289.738 2060.46 374.629 2028 457.022C2013.57 493.649 1997.53 530.473 1972.01 560.522C1906.84 637.232 1798.24 651.894 1702.29 649.06C1679.49 648.398 1656.72 647.03 1634.01 644.95C1568.58 638.976 1503.71 627.172 1440.4 609.85C1355.89 586.717 1272.95 553.4 1182.35 544.423C1091.84 535.422 998.765 568.046 932.475 623.201C895.249 654.175 855.684 671.972 826.991 703.34C807.361 724.722 790.175 749.973 779.16 779.207C774.064 792.616 770.232 806.899 768.017 822.171C759.325 883.017 780.501 950.702 802.184 1013.68C804.334 1019.91 806.472 1026.16 808.595 1032.4C841.645 1129.99 858.433 1229.35 840.605 1324.77C829.226 1385.68 799.652 1448.67 744.068 1481.62C664.934 1528.54 570.551 1515.61 485.907 1514.51C479.234 1514.43 472.552 1514.43 465.867 1514.52C364.811 1515.89 264.566 1537.56 183.216 1596.38C96.4888 1659.03 35.8169 1771.44 57.5423 1883.57" stroke="#DEDEDE" stroke-width="2.80973" stroke-miterlimit="10"/>
<path d="M2082.93 182.985C2063.81 267.281 2037.88 349.891 2005.86 429.945C1991.62 465.532 1975.81 501.258 1951.05 530.604C1887.85 605.504 1783.62 622.153 1690.87 622.018C1668.83 622.002 1646.78 621.295 1624.78 619.899C1561.4 615.897 1498.41 606.239 1436.79 591.222C1354.52 571.166 1273.55 541.248 1185.35 533.712C1097.25 526.15 997.33 547.604 941.108 608.806C895.643 631.958 856.523 654.225 823.391 684.53C800.722 705.188 780.292 730.301 766.551 760.223C760.199 773.953 755.226 788.734 752.056 804.694C739.571 868.247 760.612 940.201 781.839 1006.97C783.942 1013.57 786.034 1020.19 788.099 1026.82C820.271 1130.42 833.104 1235.48 810.686 1335.23C797.552 1393.67 768.805 1454.55 714.934 1486.98C638.228 1533.18 547.228 1523.45 465.991 1525.36C459.584 1525.52 453.178 1525.75 446.771 1526.08C349.909 1530.99 255.128 1555.66 179.288 1614.98C98.4294 1678.17 43.3561 1787.76 66.6165 1896.07" stroke="#D8D8D8" stroke-width="2.80973" stroke-miterlimit="10"/>
<path d="M2059.26 162.764C2040.75 244.821 2015.3 325.153 1983.72 402.865C1969.68 437.411 1954.08 472.035 1930.09 500.681C1868.87 573.772 1769.02 592.408 1679.45 594.972C1658.16 595.598 1636.85 595.556 1615.56 594.844C1554.23 592.814 1493.12 585.298 1433.18 572.589C1353.16 555.615 1274.16 529.092 1188.35 522.998C1102.67 516.874 1005.92 537.347 949.74 594.407C900.641 616.307 857.36 636.474 819.79 665.716C794.082 685.651 770.408 710.628 753.941 741.238C746.332 755.293 740.219 770.569 736.09 787.214C719.812 853.473 740.714 929.696 761.492 1000.26C763.553 1007.23 765.59 1014.23 767.597 1021.24C798.896 1130.84 808.017 1241.59 780.762 1345.67C766.101 1401.67 737.957 1460.41 685.799 1492.33C611.517 1537.81 523.904 1531.28 446.073 1536.21C439.937 1536.6 433.801 1537.08 427.669 1537.63C334.999 1546.08 245.688 1573.75 175.35 1633.58C100.361 1697.29 50.89 1804.07 75.6815 1908.55" stroke="#D2D2D2" stroke-width="2.80973" stroke-miterlimit="10"/>
<path d="M2035.6 142.552C2017.68 222.374 1992.73 300.429 1961.59 375.798C1947.74 409.3 1932.35 442.826 1909.13 470.772C1849.9 542.054 1754.4 562.677 1668.02 567.943C1647.49 569.211 1626.92 569.834 1606.34 569.807C1547.06 569.749 1487.83 564.378 1429.57 553.974C1351.79 540.082 1274.76 516.949 1191.35 512.302C1108.09 507.615 1014.5 527.102 958.377 580.026C905.643 600.673 858.202 618.74 816.193 646.919C787.45 666.131 760.525 690.969 741.336 722.268C732.47 736.643 725.216 752.418 720.136 769.751C700.065 838.717 720.828 919.208 741.158 993.563C743.172 1000.91 745.159 1008.29 747.112 1015.68C777.533 1131.28 783.217 1247.75 750.855 1356.13C734.855 1409.71 707.122 1466.29 656.676 1497.7C584.819 1542.45 500.593 1539.13 426.164 1547.06C420.295 1547.69 414.43 1548.4 408.58 1549.19C320.104 1561.17 236.257 1591.85 171.429 1652.18C102.309 1716.42 58.4364 1820.39 84.7668 1921.04" stroke="#CDCDCD" stroke-width="2.80973" stroke-miterlimit="10"/>
<path d="M2011.92 122.33C1994.61 199.914 1970.13 275.692 1939.44 348.717C1925.79 381.179 1910.61 413.603 1888.16 440.85C1830.9 510.326 1739.78 532.936 1656.59 540.897C1636.81 542.807 1616.97 544.095 1597.11 544.752C1539.88 546.666 1482.53 543.438 1425.94 535.345C1350.41 524.531 1275.35 504.797 1194.34 501.587C1113.49 498.34 1023.07 516.844 966.999 565.623C910.63 585.017 859.029 600.989 812.582 628.101C780.8 646.594 750.63 671.292 728.715 703.279C718.597 717.98 710.199 734.249 704.163 752.267C680.3 823.935 700.923 908.699 720.8 986.847C722.769 994.568 724.706 1002.32 726.6 1010.1C756.143 1131.7 758.684 1253.96 720.92 1366.58C703.75 1417.79 676.263 1472.16 627.527 1503.05C558.098 1547.08 477.255 1546.96 406.232 1557.91C400.63 1558.78 395.039 1559.72 389.467 1560.74C305.183 1576.26 226.807 1609.94 167.481 1670.77C104.23 1735.54 65.9561 1836.7 93.8214 1933.52" stroke="#C7C7C7" stroke-width="2.80973" stroke-miterlimit="10"/>
<path d="M1988.26 102.108C1971.55 177.453 1947.56 250.954 1917.3 321.64C1903.85 353.062 1888.89 384.384 1867.21 410.931C1811.92 478.594 1725.17 503.192 1645.17 513.855C1626.15 516.411 1607.04 518.36 1587.89 519.701C1532.71 523.587 1477.24 522.501 1422.33 516.716C1349.05 508.984 1275.96 492.644 1197.35 490.881C1118.91 489.072 1031.66 506.59 975.633 551.232C915.63 569.373 859.872 583.246 808.983 609.294C774.162 627.064 740.748 651.624 716.107 684.299C704.732 699.32 695.194 716.089 688.203 734.794C660.547 809.169 681.035 898.201 700.46 980.138C702.381 988.234 704.272 996.366 706.109 1004.52C734.778 1132.12 734.484 1260.29 691.006 1377.03C672.803 1425.91 645.425 1478.03 598.402 1508.41C531.397 1551.71 453.941 1554.79 386.321 1568.75C380.989 1569.86 375.669 1571.04 370.376 1572.29C290.287 1591.35 217.377 1628.03 163.557 1689.37C106.175 1754.67 73.5001 1853.01 102.9 1946.01" stroke="#C2C2C2" stroke-width="2.80973" stroke-miterlimit="10"/>
<path d="M1964.59 81.8965C1948.48 155.007 1924.97 226.23 1895.16 294.573C1881.9 324.955 1867.15 355.179 1846.24 381.022C1792.94 446.875 1710.56 473.461 1633.74 486.823C1615.47 490.021 1597.1 492.634 1578.66 494.66C1525.53 500.518 1471.94 501.577 1418.72 498.098C1347.68 493.442 1276.56 480.501 1200.34 480.177C1124.32 479.809 1040.24 496.342 984.262 536.843C920.625 553.735 860.707 565.505 805.382 590.49C767.522 607.537 730.861 631.961 703.498 665.328C690.866 680.674 680.187 697.934 672.242 717.331C640.792 794.412 661.141 887.709 680.118 973.443C681.997 981.911 683.833 990.421 685.616 998.958C713.407 1132.56 710.624 1266.78 661.091 1387.49C641.968 1434.1 614.582 1483.92 569.271 1513.78C504.694 1556.36 430.621 1562.65 366.408 1579.62C361.343 1580.96 356.297 1582.37 351.278 1583.86C275.38 1606.46 207.938 1646.14 159.624 1707.99C108.111 1773.81 81.0347 1869.34 111.974 1958.51" stroke="#BCBCBC" stroke-width="2.80973" stroke-miterlimit="10"/>
<path d="M1940.91 61.6846C1925.4 132.556 1902.38 201.502 1873 267.502C1859.94 296.84 1845.41 325.966 1825.27 351.109C1773.95 415.153 1695.93 443.726 1622.31 459.787C1604.79 463.626 1587.16 466.905 1569.43 469.615C1518.35 477.445 1466.64 480.646 1415.09 479.475C1346.3 477.901 1277.15 468.355 1203.33 469.472C1129.72 470.543 1054.27 496.325 992.887 522.45C929.334 549.507 861.533 547.767 801.769 571.689C760.87 588.013 720.965 612.298 690.876 646.353C676.988 662.02 665.169 679.779 656.268 699.861C621.026 779.648 641.235 877.214 659.759 966.741C661.592 975.583 663.378 984.468 665.103 993.388C692.021 1133 687.099 1273.48 631.159 1397.95C611.205 1442.35 583.726 1489.8 540.128 1519.14C477.976 1560.99 407.294 1570.49 346.479 1590.47C341.68 1592.05 336.909 1593.7 332.169 1595.42C260.462 1621.56 198.491 1664.25 155.682 1726.59C110.039 1792.94 88.5612 1885.66 121.035 1971" stroke="#B7B7B7" stroke-width="2.80973" stroke-miterlimit="10"/>
<path d="M1917.25 41.4629C1902.34 110.1 1879.8 176.764 1850.87 240.425C1838 268.723 1823.69 296.747 1804.31 321.191C1754.97 383.425 1681.33 413.985 1610.89 432.745C1594.13 437.23 1577.22 441.174 1560.21 444.565C1511.17 454.366 1461.35 459.713 1411.48 460.85C1344.93 462.354 1277.76 456.206 1206.33 458.766C1135.14 461.275 1061.85 485.239 1001.52 508.059C933.845 533.655 862.374 530.02 798.173 552.878C754.238 568.479 711.085 592.629 678.271 627.369C663.13 643.357 650.166 661.614 640.31 682.384C601.275 764.878 621.346 866.712 639.421 960.028C641.207 969.242 642.943 978.506 644.614 987.808C670.654 1133.42 663.977 1280.4 601.248 1408.4C580.539 1450.66 552.891 1495.67 511.002 1524.5C451.273 1565.63 383.978 1578.32 326.57 1601.32C322.042 1603.14 317.541 1605.02 313.08 1606.98C245.568 1636.66 189.064 1682.34 151.757 1745.19C111.983 1812.07 96.1037 1901.97 130.113 1983.49" stroke="#B1B1B1" stroke-width="2.80973" stroke-miterlimit="10"/>
<path d="M1893.58 21.2412C1879.27 87.6393 1857.22 152.031 1828.73 213.344C1816.06 240.603 1801.96 267.525 1783.35 291.268C1735.98 351.693 1666.71 384.24 1599.46 405.699C1583.46 410.826 1567.28 415.435 1550.98 419.51C1504 431.283 1456.05 438.772 1407.87 442.217C1343.56 446.803 1278.36 444.05 1209.33 448.052C1140.55 451.999 1069.47 473.988 1010.15 493.66C938.308 517.489 863.215 512.269 794.57 534.064C747.597 548.946 701.196 572.957 665.66 608.385C649.262 624.697 635.158 643.449 624.347 664.908C581.519 750.104 601.45 856.211 619.077 953.32C620.821 962.908 622.507 972.551 624.115 982.233C649.278 1133.85 641.244 1287.61 571.327 1418.85C549.919 1459.04 522.042 1501.54 481.866 1529.85C424.565 1570.26 360.653 1586.16 306.647 1612.17C302.386 1614.22 298.16 1616.34 293.977 1618.53C230.657 1651.75 179.62 1700.44 147.822 1763.79C113.918 1831.19 103.637 1918.29 139.185 1995.97" stroke="#ABABAB" stroke-width="2.80973" stroke-miterlimit="10"/>
<path d="M1869.91 1C1856.2 65.1633 1834.64 127.273 1806.58 186.248C1794.11 212.462 1780.22 238.29 1762.38 261.33C1717 319.945 1652.09 354.48 1588.03 378.637C1572.78 384.406 1557.34 389.68 1541.75 394.439C1496.82 408.185 1450.75 417.816 1404.25 423.569C1342.19 431.236 1278.96 431.878 1212.33 437.322C1145.96 442.708 1077.15 462.577 1018.78 479.242C942.741 500.952 864.044 494.499 790.964 515.23C740.952 529.393 691.307 553.264 653.045 589.381C635.391 606.014 620.146 625.265 608.38 647.408C561.759 735.315 581.551 845.686 598.726 946.588C600.423 956.548 602.059 966.569 603.613 976.634C627.902 1134.25 618.916 1295.15 541.402 1429.28C519.333 1467.47 491.193 1507.39 452.73 1535.19C397.854 1574.87 337.329 1593.97 286.729 1622.99C282.739 1625.28 278.783 1627.64 274.874 1630.07C215.749 1666.82 170.179 1718.51 143.884 1782.37C115.848 1850.3 111.17 1934.58 148.249 2008.44" stroke="#A6A6A6" stroke-width="2.80973" stroke-miterlimit="10"/>
</g>
<g opacity="0.06">
<path d="M49.999 3105.93C73.329 3005.97 102.652 2907.42 137.763 2810.97C153.372 2768.09 170.693 2724.67 200.832 2690.41C277.874 2602.85 412.697 2600.11 527.769 2619.14C633.755 2636.66 737.642 2666.84 836.522 2708.83C934.509 2750.45 1029.27 2804.14 1134.26 2821.77C1239.24 2839.4 1361.35 2811.06 1417.92 2720.88C1451.58 2667.22 1456.94 2599.31 1443.79 2537.35C1430.64 2475.39 1400.5 2418.37 1367.04 2364.59C1328.73 2303.02 1284.25 2240.67 1278.5 2168.38C1272.55 2093.55 1313.9 2017.01 1379.76 1980.97C1473.45 1929.7 1588.15 1961.86 1693.21 1981.03C1826.69 2005.38 1969.87 2005.16 2091.81 1945.67C2213.76 1886.18 2308.02 1756.9 2295.51 1621.79" stroke="white" stroke-width="2.80973" stroke-miterlimit="10"/>
<path d="M73.6646 3126.15C96.3953 3028.43 125.231 2932.15 159.901 2838.05C175.313 2796.21 192.422 2753.89 221.791 2720.34C296.858 2634.58 427.307 2629.86 539.193 2646.18C565.759 2650.06 592.206 2654.75 618.482 2660.25C694.152 2676.08 768.422 2698.6 840.132 2727.46C935.873 2765.99 1028.67 2816.29 1131.25 2832.48C1233.83 2848.67 1349.55 2819.11 1409.29 2735.27C1431.76 2703.73 1447.11 2669.74 1453.6 2633.05C1458.04 2608.06 1459 2582.12 1456.39 2556.33C1455.21 2544.53 1453.34 2532.73 1450.78 2520.9C1440.5 2473.58 1418.63 2427.24 1394.7 2383.22C1392.33 2378.86 1389.93 2374.5 1387.53 2370.17C1350.1 2302.59 1310.57 2233.49 1308.41 2157.93C1306.33 2085.14 1344.74 2011.13 1408.88 1975.61C1500.15 1925.07 1611.46 1954.02 1713.12 1970.17C1721.14 1971.44 1729.18 1972.63 1737.25 1973.71C1859.27 1990.02 1986.86 1983.36 2095.73 1927.07C2211.81 1867.05 2300.47 1740.58 2286.43 1609.3" stroke="#F9F9F9" stroke-width="2.80973" stroke-miterlimit="10"/>
<path d="M97.346 3146.36C119.474 3050.88 147.83 2956.88 182.055 2865.12C197.27 2824.32 214.162 2783.1 242.766 2750.24C315.849 2666.3 441.933 2659.59 550.63 2673.21C576.442 2676.45 602.154 2680.47 627.719 2685.29C701.339 2699.15 773.73 2719.53 843.759 2746.08C937.253 2781.54 1028.08 2828.44 1128.27 2843.18C1228.43 2857.94 1338.44 2827.28 1400.67 2749.66C1425.77 2718.35 1446.29 2687.48 1457.22 2651.86C1464.7 2627.59 1468.9 2601.78 1469.02 2575.3C1469.1 2563.19 1468.36 2550.89 1466.76 2538.36C1460.28 2488.34 1438.55 2437.73 1415.07 2389.92C1412.73 2385.18 1410.39 2380.45 1408.04 2375.73C1371.49 2302.15 1336.82 2226.61 1338.35 2147.47C1339.71 2076.9 1375.6 2005.25 1438.03 1970.24C1526.87 1920.43 1634.8 1946.17 1733.06 1959.31C1740.8 1960.35 1748.58 1961.29 1756.37 1962.14C1874.2 1974.92 1996.32 1965.26 2099.68 1908.45C2209.89 1847.91 2292.96 1724.25 2277.37 1596.81" stroke="#F4F4F4" stroke-width="2.80973" stroke-miterlimit="10"/>
<path d="M121.01 3166.58C142.534 3073.34 170.403 2981.62 204.192 2892.19C219.209 2852.44 235.889 2812.32 263.723 2780.16C334.831 2698.02 456.542 2689.33 562.053 2700.26C587.111 2702.84 612.088 2706.21 636.941 2710.34C708.516 2722.23 779.025 2740.46 847.375 2764.71C938.623 2797.08 1027.48 2840.59 1125.27 2853.89C1223.02 2867.21 1327.98 2835.65 1392.04 2764.06C1419.93 2732.88 1445.45 2705.23 1460.82 2670.67C1471.33 2647.12 1478.79 2621.46 1481.63 2594.29C1482.96 2581.85 1483.37 2569.05 1482.72 2555.84C1480.03 2503.11 1458.44 2448.24 1435.41 2396.64C1433.12 2391.53 1430.83 2386.42 1428.54 2381.31C1392.86 2301.73 1362.92 2219.99 1368.27 2137.02C1372.66 2068.78 1406.44 1999.39 1467.17 1964.89C1553.58 1915.8 1658.12 1938.34 1752.97 1948.47C1760.45 1949.27 1767.95 1949.98 1775.47 1950.59C1889.1 1959.83 2005.75 1947.17 2103.61 1889.86C2207.95 1828.79 2285.42 1707.95 2268.3 1584.32" stroke="#EEEEEE" stroke-width="2.80973" stroke-miterlimit="10"/>
<path d="M144.683 3186.8C165.608 3095.8 192.99 3006.35 226.334 2919.27C241.157 2880.56 257.621 2841.54 284.686 2810.09C353.814 2729.76 471.156 2719.07 573.477 2727.3C597.781 2729.25 622.023 2731.95 646.165 2735.39C715.691 2745.31 784.32 2761.4 850.989 2783.34C939.994 2812.64 1026.87 2852.74 1122.27 2864.61C1217.6 2876.48 1318.11 2844.28 1383.41 2778.45C1414.25 2747.36 1444.61 2722.98 1464.42 2689.48C1477.98 2666.66 1488.67 2641.13 1494.24 2613.27C1496.83 2600.51 1498.38 2587.22 1498.68 2573.32C1499.79 2517.88 1478.33 2458.74 1455.75 2403.35C1453.51 2397.86 1451.27 2392.38 1449.04 2386.89C1414.23 2301.3 1388.87 2213.56 1398.18 2126.57C1405.23 2060.74 1437.29 1993.51 1496.3 1959.53C1580.28 1911.16 1681.44 1930.51 1772.89 1937.62C1780.1 1938.18 1787.32 1938.66 1794.57 1939.03C1904.01 1944.74 2015.19 1929.07 2107.55 1871.26C2206.02 1809.66 2277.88 1691.63 2259.23 1571.84" stroke="#E9E9E9" stroke-width="2.80973" stroke-miterlimit="10"/>
<path d="M168.344 3207.01C188.665 3118.25 215.564 3031.08 248.467 2946.34C263.094 2908.67 279.345 2870.75 305.636 2840C372.788 2761.48 485.757 2748.8 584.893 2754.34C608.443 2755.64 631.951 2757.67 655.381 2760.44C722.858 2768.38 789.608 2782.33 854.595 2801.96C941.353 2828.17 1026.26 2864.89 1119.26 2875.31C1212.18 2885.75 1308.75 2853.19 1374.77 2792.84C1408.73 2761.8 1443.77 2740.72 1468.02 2708.28C1484.61 2686.18 1498.55 2660.79 1506.84 2632.25C1510.69 2619.16 1513.38 2605.37 1514.64 2590.79C1519.54 2532.65 1498.22 2469.24 1476.09 2410.05C1473.9 2404.19 1471.71 2398.33 1469.53 2392.46C1435.61 2300.87 1414.63 2207.27 1428.1 2116.12C1437.46 2052.74 1468.13 1987.63 1525.42 1954.17C1606.98 1906.53 1704.76 1922.66 1792.8 1926.77C1799.74 1927.09 1806.69 1927.33 1813.66 1927.48C1918.91 1929.64 2024.62 1910.97 2111.47 1852.66C2204.07 1790.53 2270.34 1675.32 2250.15 1559.35" stroke="#E3E3E3" stroke-width="2.80973" stroke-miterlimit="10"/>
<path d="M192.029 3227.23C211.751 3140.7 238.163 3055.81 270.625 2973.41C285.055 2936.78 301.093 2899.96 326.615 2869.91C391.787 2793.2 500.387 2778.54 596.333 2781.37C619.129 2782.04 641.902 2783.4 664.618 2785.48C730.045 2791.46 794.912 2803.26 858.221 2820.58C942.733 2843.72 1025.67 2877.03 1116.28 2886.01C1206.78 2895.01 1299.86 2862.39 1366.15 2807.23C1403.37 2776.26 1442.94 2758.46 1471.63 2727.09C1491.26 2705.71 1508.45 2680.46 1519.46 2651.23C1524.56 2637.82 1528.39 2623.54 1530.61 2608.26C1539.3 2547.42 1518.12 2479.73 1496.44 2416.75C1494.29 2410.52 1492.15 2404.28 1490.03 2398.03C1456.98 2300.44 1440.19 2201.09 1458.02 2105.66C1469.4 2044.75 1498.97 1981.76 1554.56 1948.81C1633.69 1901.89 1728.07 1914.82 1812.72 1915.92C1819.39 1916.01 1826.07 1916.01 1832.76 1915.92C1933.81 1914.55 2034.06 1892.88 2115.41 1834.06C2202.14 1771.4 2262.81 1659 2241.08 1546.86" stroke="#DEDEDE" stroke-width="2.80973" stroke-miterlimit="10"/>
<path d="M215.696 3247.45C234.816 3163.15 260.744 3080.54 292.766 3000.49C307.002 2964.9 322.819 2929.18 347.576 2899.83C410.773 2824.93 515.004 2808.28 607.759 2808.42C629.798 2808.43 651.844 2809.14 673.844 2810.53C737.222 2814.54 800.21 2824.19 861.837 2839.21C944.103 2859.27 1025.07 2889.19 1113.28 2896.72C1201.37 2904.28 1301.29 2882.83 1357.52 2821.63C1402.98 2798.48 1442.1 2776.21 1475.23 2745.9C1497.9 2725.25 1518.33 2700.13 1532.07 2670.21C1538.43 2656.48 1543.4 2641.7 1546.57 2625.74C1559.05 2562.19 1538.01 2490.23 1516.79 2423.46C1514.68 2416.86 1512.59 2410.24 1510.53 2403.61C1478.35 2300.02 1465.52 2194.96 1487.94 2095.21C1501.07 2036.77 1529.82 1975.89 1583.69 1943.45C1660.4 1897.26 1751.4 1906.99 1832.63 1905.07C1839.04 1904.92 1845.45 1904.68 1851.85 1904.36C1948.72 1899.45 2043.5 1874.78 2119.34 1815.45C2200.2 1752.27 2255.27 1642.68 2232.01 1534.37" stroke="#D8D8D8" stroke-width="2.80973" stroke-miterlimit="10"/>
<path d="M239.36 3267.67C257.876 3185.61 283.321 3105.28 314.902 3027.57C328.941 2993.02 344.546 2958.4 368.533 2929.75C429.75 2856.66 529.608 2838.03 619.178 2835.46C640.462 2834.84 661.774 2834.88 683.063 2835.59C744.392 2837.62 805.501 2845.14 865.446 2857.84C945.465 2874.82 1024.46 2901.34 1110.28 2907.44C1195.95 2913.56 1292.71 2893.09 1348.88 2836.03C1397.98 2814.13 1441.26 2793.96 1478.83 2764.72C1504.54 2744.78 1528.22 2719.81 1544.68 2689.2C1552.29 2675.14 1558.41 2659.86 1562.53 2643.22C1578.81 2576.96 1557.91 2500.74 1537.13 2430.18C1535.07 2423.2 1533.03 2416.2 1531.03 2409.19C1499.73 2299.6 1490.61 2188.85 1517.86 2084.77C1532.52 2028.77 1560.67 1970.03 1612.82 1938.1C1687.11 1892.62 1774.72 1899.15 1852.55 1894.22C1858.69 1893.83 1864.82 1893.36 1870.96 1892.8C1963.63 1884.35 2052.94 1856.68 2123.27 1796.85C2198.26 1733.14 2247.73 1626.36 2222.94 1521.88" stroke="#D2D2D2" stroke-width="2.80973" stroke-miterlimit="10"/>
<path d="M263.023 3287.88C280.94 3208.06 305.898 3130 337.038 3054.64C350.88 3021.13 366.272 2987.61 389.49 2959.66C448.727 2888.38 544.22 2867.76 630.6 2862.49C651.13 2861.22 671.708 2860.6 692.285 2860.63C751.565 2860.68 810.794 2866.06 869.058 2876.46C946.834 2890.35 1023.86 2913.48 1107.27 2918.13C1190.54 2922.82 1284.12 2903.33 1340.25 2850.41C1392.98 2829.76 1440.42 2811.69 1482.43 2783.51C1511.17 2764.3 1538.1 2739.46 1557.29 2708.17C1566.15 2693.79 1573.41 2678.02 1578.49 2660.68C1598.56 2591.72 1577.8 2511.23 1557.47 2436.87C1555.45 2429.52 1553.46 2422.15 1551.51 2414.75C1521.09 2299.16 1515.41 2182.68 1547.77 2074.3C1563.77 2020.72 1591.5 1964.14 1641.95 1932.74C1713.81 1887.99 1798.03 1891.31 1872.46 1883.37C1878.33 1882.74 1884.19 1882.04 1890.04 1881.25C1978.52 1869.26 2062.37 1838.58 2127.2 1778.26C2196.32 1714.02 2240.19 1610.05 2213.86 1509.4" stroke="#CDCDCD" stroke-width="2.80973" stroke-miterlimit="10"/>
<path d="M286.702 3308.1C304.016 3230.52 328.49 3154.74 359.19 3081.72C372.838 3049.25 388.014 3016.83 410.463 2989.58C467.724 2920.11 558.844 2897.5 642.034 2889.54C661.811 2887.63 681.653 2886.34 701.519 2885.68C758.75 2883.77 816.097 2887 872.682 2895.09C948.212 2905.9 1023.27 2925.64 1104.28 2928.85C1185.14 2932.09 1275.55 2913.59 1331.63 2864.81C1387.99 2845.42 1439.6 2829.44 1486.04 2802.33C1517.83 2783.84 1548 2759.14 1569.91 2727.15C1580.03 2712.45 1588.43 2696.18 1594.46 2678.17C1618.33 2606.5 1597.7 2521.74 1577.82 2443.59C1575.86 2435.87 1573.92 2428.11 1572.02 2420.34C1542.48 2298.74 1539.94 2176.48 1577.7 2063.85C1594.88 2012.65 1622.36 1958.27 1671.1 1927.38C1740.53 1883.35 1821.37 1883.47 1892.39 1872.52C1898 1871.66 1903.59 1870.72 1909.16 1869.69C1993.44 1854.17 2071.82 1820.49 2131.14 1759.66C2194.4 1694.89 2232.67 1593.74 2204.8 1496.91" stroke="#C7C7C7" stroke-width="2.80973" stroke-miterlimit="10"/>
<path d="M310.364 3328.33C327.079 3252.98 351.066 3179.48 381.325 3108.79C394.776 3077.37 409.739 3046.05 431.418 3019.5C486.7 2951.84 573.451 2927.24 653.455 2916.58C672.478 2914.02 691.586 2912.07 710.736 2910.73C765.918 2906.85 821.385 2907.93 876.293 2913.72C949.577 2921.45 1022.66 2937.79 1101.28 2939.55C1179.72 2941.36 1266.96 2923.84 1322.99 2879.2C1382.99 2861.06 1438.75 2847.19 1489.64 2821.14C1524.46 2803.37 1557.88 2778.81 1582.52 2746.13C1593.89 2731.11 1603.43 2714.35 1610.42 2695.64C1638.08 2621.26 1617.59 2532.23 1598.17 2450.3C1596.24 2442.2 1594.35 2434.07 1592.52 2425.91C1563.85 2298.31 1564.14 2170.15 1607.62 2053.4C1625.82 2004.52 1653.2 1952.4 1700.22 1922.03C1767.23 1878.73 1844.68 1875.64 1912.3 1861.68C1917.64 1860.58 1922.96 1859.4 1928.25 1858.14C2008.34 1839.08 2081.25 1802.4 2135.07 1741.06C2192.45 1675.77 2225.12 1577.42 2195.72 1484.43" stroke="#C2C2C2" stroke-width="2.80973" stroke-miterlimit="10"/>
<path d="M334.036 3348.54C350.148 3275.43 373.652 3204.2 403.47 3135.86C416.724 3105.48 431.474 3075.25 452.384 3049.41C505.686 2983.56 588.068 2956.97 664.882 2943.61C683.151 2940.41 701.524 2937.8 719.963 2935.77C773.096 2929.92 826.684 2928.86 879.91 2932.34C950.947 2936.99 1022.07 2949.93 1098.29 2950.26C1174.31 2950.62 1258.39 2934.09 1314.36 2893.59C1378 2876.7 1437.92 2864.93 1493.24 2839.94C1531.1 2822.9 1567.77 2798.47 1595.13 2765.11C1607.76 2749.76 1618.44 2732.5 1626.38 2713.1C1657.83 2636.02 1637.48 2542.72 1618.51 2456.99C1616.63 2448.52 1614.79 2440.01 1613.01 2431.48C1585.22 2297.87 1588 2163.65 1637.54 2042.94C1656.66 1996.33 1684.04 1946.51 1729.35 1916.65C1793.93 1874.08 1868 1867.79 1932.22 1850.82C1937.28 1849.48 1942.33 1848.06 1947.35 1846.57C2023.25 1823.97 2090.69 1784.29 2139 1722.45C2190.51 1656.62 2217.59 1561.09 2186.65 1471.93" stroke="#BCBCBC" stroke-width="2.80973" stroke-miterlimit="10"/>
<path d="M357.715 3368.75C373.227 3297.88 396.244 3228.93 425.621 3162.93C438.682 3133.59 453.212 3104.47 473.356 3079.32C524.679 3015.28 602.691 2986.71 676.316 2970.65C693.831 2966.81 711.469 2963.53 729.197 2960.82C780.28 2952.99 831.99 2949.79 883.533 2950.96C952.328 2952.53 1021.47 2962.08 1095.29 2960.96C1168.9 2959.89 1244.36 2934.11 1305.74 2907.98C1369.29 2880.93 1437.09 2882.67 1496.86 2858.74C1537.75 2842.42 1577.66 2818.14 1607.75 2784.08C1621.64 2768.41 1633.46 2750.66 1642.36 2730.57C1677.6 2650.79 1657.39 2553.22 1638.87 2463.69C1637.03 2454.85 1635.25 2445.97 1633.52 2437.05C1606.6 2297.44 1611.53 2156.96 1667.47 2032.48C1687.42 1988.08 1714.9 1940.64 1758.5 1911.29C1820.65 1869.44 1891.33 1859.95 1952.15 1839.96C1956.94 1838.38 1961.72 1836.73 1966.46 1835.01C2038.16 1808.87 2100.13 1766.19 2142.94 1703.84C2188.59 1637.49 2210.06 1544.78 2177.59 1459.44" stroke="#B7B7B7" stroke-width="2.80973" stroke-miterlimit="10"/>
<path d="M381.378 3388.97C396.287 3320.33 418.821 3253.67 447.757 3190.01C460.621 3161.71 474.938 3133.69 494.313 3109.24C543.66 3047.01 617.3 3016.45 687.738 2997.69C704.499 2993.2 721.407 2989.26 738.419 2985.87C787.453 2976.07 837.28 2970.72 887.145 2969.58C953.694 2968.08 1020.87 2974.23 1092.29 2971.67C1163.49 2969.16 1236.77 2945.19 1297.11 2922.37C1364.78 2896.78 1436.25 2900.41 1500.45 2877.56C1544.39 2861.95 1587.54 2837.8 1620.35 2803.06C1635.49 2787.08 1648.46 2768.82 1658.31 2748.05C1697.35 2665.56 1677.28 2563.72 1659.2 2470.41C1657.42 2461.19 1655.68 2451.93 1654.01 2442.63C1627.97 2297.02 1634.65 2150.04 1697.38 2022.03C1718.09 1979.78 1745.73 1934.77 1787.62 1905.93C1847.35 1864.81 1914.65 1852.11 1972.06 1829.11C1976.58 1827.3 1981.08 1825.41 1985.55 1823.45C2053.06 1793.78 2109.56 1748.09 2146.87 1685.24C2186.64 1618.36 2202.52 1528.46 2168.51 1446.95" stroke="#B1B1B1" stroke-width="2.80973" stroke-miterlimit="10"/>
<path d="M405.048 3409.19C419.354 3342.79 441.404 3278.4 469.9 3217.09C482.566 3189.83 496.671 3162.91 515.276 3139.17C562.643 3078.74 631.914 3046.19 699.163 3024.73C715.17 3019.61 731.343 3015 747.644 3010.92C794.629 2999.15 842.576 2991.66 890.76 2988.22C955.062 2983.63 1020.27 2986.38 1089.29 2982.38C1158.08 2978.43 1229.16 2956.45 1288.48 2936.77C1360.32 2912.94 1435.41 2918.16 1504.06 2896.37C1551.03 2881.49 1597.43 2857.48 1632.97 2822.05C1649.36 2805.74 1663.47 2786.98 1674.28 2765.53C1717.11 2680.33 1697.18 2574.22 1679.55 2477.11C1677.8 2467.53 1676.12 2457.88 1674.51 2448.2C1649.35 2296.59 1657.38 2142.82 1727.3 2011.58C1748.71 1971.4 1776.58 1928.89 1816.76 1900.58C1874.06 1860.18 1937.97 1844.28 1991.98 1818.27C1996.24 1816.21 2000.47 1814.09 2004.65 1811.9C2067.97 1778.69 2119.01 1730 2150.8 1666.65C2184.71 1599.24 2194.99 1512.15 2159.44 1434.46" stroke="#ABABAB" stroke-width="2.80973" stroke-miterlimit="10"/>
<path d="M428.72 3429.43C442.426 3365.27 463.989 3303.16 492.044 3244.19C504.513 3217.97 518.405 3192.14 536.241 3169.1C581.629 3110.49 646.531 3075.95 710.594 3051.8C725.847 3046.03 741.285 3040.75 756.871 3035.99C801.806 3022.25 847.875 3012.62 894.376 3006.86C956.432 2999.2 1019.67 2998.56 1086.3 2993.11C1152.67 2987.73 1221.48 2967.86 1279.85 2951.19C1355.88 2929.48 1434.58 2935.94 1507.66 2915.2C1557.67 2901.04 1607.32 2877.17 1645.58 2841.05C1663.23 2824.42 1678.48 2805.17 1690.24 2783.03C1736.87 2695.12 1717.07 2584.75 1699.9 2483.85C1698.2 2473.89 1696.57 2463.86 1695.01 2453.8C1670.72 2296.19 1679.71 2135.28 1757.22 2001.15C1779.29 1962.96 1807.43 1923.04 1845.9 1895.25C1900.77 1855.56 1961.3 1836.46 2011.9 1807.44C2015.89 1805.15 2019.84 1802.79 2023.75 1800.37C2082.88 1763.62 2128.45 1711.93 2154.74 1648.07C2182.78 1580.13 2187.45 1495.85 2150.38 1422" stroke="#A6A6A6" stroke-width="2.80973" stroke-miterlimit="10"/>
</g>
</g>
</svg>
