<svg width="50" height="50" viewBox="0 0 50 50" fill="none" xmlns="http://www.w3.org/2000/svg">
<circle cx="25" cy="25" r="24.5" stroke="white"/>
<circle cx="25" cy="25" r="24.5" stroke="url(#paint0_linear_13_1154)"/>
<path fill-rule="evenodd" clip-rule="evenodd" d="M21.3054 24.2437C21.1099 24.4408 21 24.7083 21 24.9871C21 25.2659 21.1099 25.5333 21.3054 25.7305L27.2065 31.679C27.3028 31.7794 27.4179 31.8595 27.5451 31.9146C27.6724 31.9697 27.8093 31.9987 27.9478 32C28.0863 32.0012 28.2237 31.9746 28.3519 31.9217C28.4801 31.8688 28.5965 31.7907 28.6945 31.692C28.7924 31.5933 28.8699 31.4759 28.9223 31.3467C28.9748 31.2174 29.0012 31.079 29 30.9393C28.9988 30.7997 28.97 30.6617 28.9153 30.5334C28.8606 30.4052 28.7812 30.2891 28.6815 30.1921L23.5179 24.9871L28.6815 19.782C28.8716 19.5837 28.9767 19.3181 28.9743 19.0424C28.9719 18.7667 28.8622 18.5029 28.6688 18.308C28.4754 18.113 28.2138 18.0024 27.9403 18C27.6668 17.9976 27.4033 18.1036 27.2065 18.2952L21.3054 24.2437Z" fill="#292F3B"/>
<path fill-rule="evenodd" clip-rule="evenodd" d="M21.3054 24.2437C21.1099 24.4408 21 24.7083 21 24.9871C21 25.2659 21.1099 25.5333 21.3054 25.7305L27.2065 31.679C27.3028 31.7794 27.4179 31.8595 27.5451 31.9146C27.6724 31.9697 27.8093 31.9987 27.9478 32C28.0863 32.0012 28.2237 31.9746 28.3519 31.9217C28.4801 31.8688 28.5965 31.7907 28.6945 31.692C28.7924 31.5933 28.8699 31.4759 28.9223 31.3467C28.9748 31.2174 29.0012 31.079 29 30.9393C28.9988 30.7997 28.97 30.6617 28.9153 30.5334C28.8606 30.4052 28.7812 30.2891 28.6815 30.1921L23.5179 24.9871L28.6815 19.782C28.8716 19.5837 28.9767 19.3181 28.9743 19.0424C28.9719 18.7667 28.8622 18.5029 28.6688 18.308C28.4754 18.113 28.2138 18.0024 27.9403 18C27.6668 17.9976 27.4033 18.1036 27.2065 18.2952L21.3054 24.2437Z" fill="url(#paint1_linear_13_1154)"/>
<defs>
<linearGradient id="paint0_linear_13_1154" x1="0" y1="25" x2="50" y2="25" gradientUnits="userSpaceOnUse">
<stop stop-color="#FF3934"/>
<stop offset="1" stop-color="#FF7033"/>
</linearGradient>
<linearGradient id="paint1_linear_13_1154" x1="25" y1="32" x2="25" y2="18" gradientUnits="userSpaceOnUse">
<stop stop-color="#FF3934"/>
<stop offset="1" stop-color="#FF7033"/>
</linearGradient>
</defs>
</svg>
