<svg width="320" height="216" viewBox="0 0 320 216" fill="none" xmlns="http://www.w3.org/2000/svg">
<rect width="320" height="216" fill="#C4B6B6"/>
<rect width="320" height="216" fill="url(#paint0_linear_13_776)"/>
<path d="M205.904 85.4915C205.359 83.4635 204.296 81.6147 202.821 80.1292C201.346 78.6437 199.51 77.5733 197.496 77.0246C190.123 75 160.452 75 160.452 75C160.452 75 130.78 75.0614 123.408 77.086C121.395 77.6348 119.559 78.7052 118.084 80.1908C116.608 81.6763 115.545 83.525 115 85.553C112.77 98.7449 111.905 118.845 115.062 131.508C115.606 133.536 116.669 135.385 118.145 136.871C119.62 138.356 121.456 139.427 123.469 139.975C130.842 142 160.513 142 160.513 142C160.513 142 190.184 142 197.557 139.975C199.571 139.427 201.406 138.356 202.882 136.871C204.357 135.385 205.42 133.536 205.965 131.508C208.316 118.298 209.041 98.2106 205.904 85.4921" fill="#FF0000"/>
<path d="M151.008 122.859L175.622 108.502L151.008 94.1445V122.859Z" fill="white"/>
<defs>
<linearGradient id="paint0_linear_13_776" x1="-4.11976e-06" y1="108.021" x2="320" y2="108.021" gradientUnits="userSpaceOnUse">
<stop stop-color="#1A2944"/>
<stop offset="1" stop-color="#2A4F70"/>
</linearGradient>
</defs>
</svg>
