<svg width="30" height="20" viewBox="0 0 30 20" fill="none" xmlns="http://www.w3.org/2000/svg">
<path d="M29.3382 3.1318C29.1661 2.52643 28.8303 1.97454 28.3645 1.5311C27.8986 1.08766 27.3188 0.768136 26.6829 0.604351C24.3546 0 14.9849 0 14.9849 0C14.9849 0 5.61477 0.0183401 3.28683 0.622691C2.65091 0.786503 2.07117 1.10604 1.60533 1.54948C1.13949 1.99292 0.80382 2.54479 0.631735 3.15014C-0.0724986 7.08802 -0.345715 13.088 0.651001 16.8682C0.823087 17.4735 1.15876 18.0254 1.6246 18.4689C2.09043 18.9123 2.67018 19.2318 3.3061 19.3956C5.63422 20 15.0041 20 15.0041 20C15.0041 20 24.374 20 26.7021 19.3956C27.3381 19.2318 27.9178 18.9123 28.3836 18.4689C28.8495 18.0254 29.1852 17.4735 29.3572 16.8682C30.0998 12.9249 30.3288 6.92855 29.338 3.13197" fill="#FF0000"/>
<path d="M11.25 14.3997L18.75 9.99977L11.25 5.59969V14.3997Z" fill="white"/>
</svg>
