<svg width="50" height="50" viewBox="0 0 50 50" fill="none" xmlns="http://www.w3.org/2000/svg">
<circle cx="25" cy="25" r="24.5" stroke="white"/>
<circle cx="25" cy="25" r="24.5" stroke="url(#paint0_linear_13_1151)"/>
<path fill-rule="evenodd" clip-rule="evenodd" d="M28.6946 24.2437C28.8901 24.4408 29 24.7083 29 24.9871C29 25.2659 28.8901 25.5333 28.6946 25.7305L22.7935 31.679C22.6972 31.7794 22.5821 31.8595 22.4549 31.9146C22.3276 31.9697 22.1907 31.9987 22.0522 32C21.9137 32.0012 21.7763 31.9746 21.6481 31.9217C21.5199 31.8688 21.4035 31.7907 21.3055 31.692C21.2076 31.5933 21.1301 31.4759 21.0777 31.3467C21.0252 31.2174 20.9988 31.079 21 30.9393C21.0012 30.7997 21.03 30.6617 21.0847 30.5334C21.1394 30.4052 21.2188 30.2891 21.3185 30.1921L26.4821 24.9871L21.3185 19.782C21.1284 19.5837 21.0233 19.3181 21.0257 19.0424C21.0281 18.7667 21.1378 18.5029 21.3312 18.308C21.5246 18.113 21.7862 18.0024 22.0597 18C22.3332 17.9976 22.5967 18.1036 22.7935 18.2952L28.6946 24.2437Z" fill="#292F3B"/>
<path fill-rule="evenodd" clip-rule="evenodd" d="M28.6946 24.2437C28.8901 24.4408 29 24.7083 29 24.9871C29 25.2659 28.8901 25.5333 28.6946 25.7305L22.7935 31.679C22.6972 31.7794 22.5821 31.8595 22.4549 31.9146C22.3276 31.9697 22.1907 31.9987 22.0522 32C21.9137 32.0012 21.7763 31.9746 21.6481 31.9217C21.5199 31.8688 21.4035 31.7907 21.3055 31.692C21.2076 31.5933 21.1301 31.4759 21.0777 31.3467C21.0252 31.2174 20.9988 31.079 21 30.9393C21.0012 30.7997 21.03 30.6617 21.0847 30.5334C21.1394 30.4052 21.2188 30.2891 21.3185 30.1921L26.4821 24.9871L21.3185 19.782C21.1284 19.5837 21.0233 19.3181 21.0257 19.0424C21.0281 18.7667 21.1378 18.5029 21.3312 18.308C21.5246 18.113 21.7862 18.0024 22.0597 18C22.3332 17.9976 22.5967 18.1036 22.7935 18.2952L28.6946 24.2437Z" fill="url(#paint1_linear_13_1151)"/>
<defs>
<linearGradient id="paint0_linear_13_1151" x1="0" y1="25" x2="50" y2="25" gradientUnits="userSpaceOnUse">
<stop stop-color="#FF3934"/>
<stop offset="1" stop-color="#FF7033"/>
</linearGradient>
<linearGradient id="paint1_linear_13_1151" x1="25" y1="32" x2="25" y2="18" gradientUnits="userSpaceOnUse">
<stop stop-color="#FF3934"/>
<stop offset="1" stop-color="#FF7033"/>
</linearGradient>
</defs>
</svg>
