<svg width="95" height="67" viewBox="0 0 95 67" fill="none" xmlns="http://www.w3.org/2000/svg">
<path d="M92.9061 10.4915C92.3611 8.46354 91.2981 6.61472 89.8228 5.12919C88.3475 3.64366 86.5116 2.57326 84.4977 2.02458C77.1248 0 47.454 0 47.454 0C47.454 0 17.782 0.0614394 10.4103 2.08602C8.39651 2.63478 6.56065 3.70523 5.0855 5.19075C3.61035 6.67628 2.54738 8.52505 2.00245 10.553C-0.227626 23.7449 -1.09281 43.8449 2.06346 56.5085C2.60839 58.5364 3.67136 60.3852 5.14651 61.8707C6.62166 63.3562 8.45752 64.4267 10.4713 64.9754C17.8436 67 47.515 67 47.515 67C47.515 67 77.1864 67 84.5587 64.9754C86.5725 64.4267 88.4083 63.3562 89.8835 61.8707C91.3586 60.3852 92.4216 58.5364 92.9665 56.5085C95.318 43.2984 96.0432 23.2106 92.9055 10.4921" fill="#FF0000"/>
<path d="M38.0098 47.8592L62.6242 33.5023L38.0098 19.1448V47.8592Z" fill="white"/>
</svg>
