<svg width="30" height="30" viewBox="0 0 30 30" fill="none" xmlns="http://www.w3.org/2000/svg">
<path fill-rule="evenodd" clip-rule="evenodd" d="M2.8125 7.5C2.8125 7.25136 2.91127 7.0129 3.08709 6.83709C3.2629 6.66127 3.50136 6.5625 3.75 6.5625H26.25C26.4986 6.5625 26.7371 6.66127 26.9129 6.83709C27.0887 7.0129 27.1875 7.25136 27.1875 7.5C27.1875 7.74864 27.0887 7.9871 26.9129 8.16291C26.7371 8.33873 26.4986 8.4375 26.25 8.4375H3.75C3.50136 8.4375 3.2629 8.33873 3.08709 8.16291C2.91127 7.9871 2.8125 7.74864 2.8125 7.5ZM2.8125 12.5C2.8125 12.2514 2.91127 12.0129 3.08709 11.8371C3.2629 11.6613 3.50136 11.5625 3.75 11.5625H26.25C26.4986 11.5625 26.7371 11.6613 26.9129 11.8371C27.0887 12.0129 27.1875 12.2514 27.1875 12.5C27.1875 12.7486 27.0887 12.9871 26.9129 13.1629C26.7371 13.3387 26.4986 13.4375 26.25 13.4375H3.75C3.50136 13.4375 3.2629 13.3387 3.08709 13.1629C2.91127 12.9871 2.8125 12.7486 2.8125 12.5ZM2.8125 17.5C2.8125 17.2514 2.91127 17.0129 3.08709 16.8371C3.2629 16.6613 3.50136 16.5625 3.75 16.5625H13.75C13.9986 16.5625 14.2371 16.6613 14.4129 16.8371C14.5887 17.0129 14.6875 17.2514 14.6875 17.5C14.6875 17.7486 14.5887 17.9871 14.4129 18.1629C14.2371 18.3387 13.9986 18.4375 13.75 18.4375H3.75C3.50136 18.4375 3.2629 18.3387 3.08709 18.1629C2.91127 17.9871 2.8125 17.7486 2.8125 17.5ZM2.8125 22.5C2.8125 22.2514 2.91127 22.0129 3.08709 21.8371C3.2629 21.6613 3.50136 21.5625 3.75 21.5625H13.75C13.9986 21.5625 14.2371 21.6613 14.4129 21.8371C14.5887 22.0129 14.6875 22.2514 14.6875 22.5C14.6875 22.7486 14.5887 22.9871 14.4129 23.1629C14.2371 23.3387 13.9986 23.4375 13.75 23.4375H3.75C3.50136 23.4375 3.2629 23.3387 3.08709 23.1629C2.91127 22.9871 2.8125 22.7486 2.8125 22.5Z" fill="white"/>
<path d="M23.5937 17.6448C25.6612 18.8386 26.6937 19.4361 26.8462 20.2961C26.8842 20.5115 26.8842 20.7319 26.8462 20.9473C26.695 21.8098 25.6612 22.4061 23.5937 23.5998C21.5262 24.7923 20.4938 25.3898 19.6713 25.0911C19.4658 25.0164 19.275 24.9064 19.1075 24.7661C18.4375 24.2036 18.4375 23.0098 18.4375 20.6223C18.4375 18.2348 18.4375 17.0423 19.1075 16.4798C19.275 16.3386 19.4663 16.2298 19.6713 16.1548C20.4925 15.8548 21.5262 16.4523 23.5937 17.6448Z" fill="white"/>
</svg>
