<svg width="195" height="61" viewBox="0 0 195 61" fill="none" xmlns="http://www.w3.org/2000/svg">
<path d="M182.834 17.4829C186.09 17.4829 188.547 18.0973 190.268 19.265C191.988 20.4333 193.217 22.2769 193.954 24.7976C194.692 27.3177 194.999 30.7593 194.999 35.1852V42.3774H179.209V44.5897L179.455 50.6751C179.639 52.0275 179.946 53.0112 180.438 53.6255C180.93 54.2404 181.728 54.5476 182.772 54.5476C184.186 54.5476 185.169 53.9948 185.66 52.8887C186.213 51.7819 186.459 49.9377 186.52 47.4176L194.692 47.9094C194.753 48.2781 194.753 48.77 194.753 49.3843C194.753 53.2568 193.708 56.1462 191.558 58.0514C189.408 59.9565 186.459 60.9402 182.588 60.9402C177.919 60.9402 174.663 59.4653 172.819 56.5765C170.976 53.6871 169.993 49.1381 169.993 43.0533V35.6155C170.202 25.1663 172.039 17.5134 182.834 17.4829ZM69.2324 18.2819V49.0771C69.2324 50.9213 69.4164 52.2737 69.8465 53.0727C70.7189 54.7815 72.9801 54.3448 74.2088 53.503C74.9181 53.0233 75.4899 52.3666 75.8676 51.5978V18.2813H85.2678V60.2637H77.8949L77.0963 55.1004H76.9123C74.885 58.9729 71.8738 60.9396 67.8807 60.9396C61.7342 60.9244 60.2301 56.4938 59.8721 51.9941L59.8486 51.677C59.8044 50.9954 59.7784 50.3128 59.7707 49.6299V18.2819H69.2324ZM117.708 18.2819V49.0771C117.708 50.9213 117.892 52.2737 118.322 53.0727C119.195 54.7815 121.456 54.3448 122.685 53.503C123.394 53.0233 123.966 52.3666 124.343 51.5978V18.2813H133.744V60.2637H126.371L125.572 55.1004H125.388C123.361 58.9729 120.35 60.9396 116.356 60.9396C110.21 60.9244 108.706 56.4938 108.348 51.9941L108.324 51.677C108.28 50.9954 108.254 50.3128 108.246 49.6299V18.2819H117.708ZM41.9529 17.4829C45.025 17.4829 47.544 18.0973 49.3873 19.3881C51.2301 20.6789 52.6434 22.6462 53.5035 25.3504C54.3637 28.0552 54.7938 31.6814 54.7938 36.1689V42.2537C54.7938 46.7411 54.3637 50.3064 53.5035 53.0106C52.6434 55.7159 51.2916 57.6827 49.3873 58.9735C47.483 60.2028 44.902 60.8787 41.7074 60.8787C38.3893 60.9402 35.8088 60.2643 33.9045 59.035C32.0002 57.7442 30.6479 55.7769 29.8498 53.0727C29.0506 50.368 28.682 46.8027 28.682 42.3158V36.2298C28.682 31.7424 29.1121 28.0546 30.0338 25.3498C30.9555 22.5841 32.3682 20.6168 34.3346 19.3881C36.3004 18.1582 38.8193 17.4823 41.9529 17.4823M148.489 0.640625V22.7688H148.551C149.411 21.1708 150.517 19.8799 152.053 18.8963C153.487 17.9312 155.178 17.4176 156.906 17.4214C159.18 17.4214 160.9 18.0357 162.19 19.2035C163.48 20.4333 164.402 22.3385 164.955 24.9817C165.491 27.5422 165.796 31.0835 165.814 35.5492L165.815 35.9848V42.623C165.815 48.8309 165.016 53.4414 163.541 56.3918C162.006 59.3422 159.671 60.8177 156.476 60.8177C154.695 60.8177 153.097 60.3874 151.623 59.5884C150.319 58.8282 149.238 57.7381 148.488 56.4276L148.366 56.2072H148.182L147.199 60.2028H139.396V0.641211L148.489 0.640625ZM110.888 2.792V10.4133H101.549V60.2637H92.3336V10.4139H82.9334V2.79259L110.888 2.792ZM9.57402 2.792L9.57989 2.81545C9.66954 3.21466 10.9117 8.73966 12.2781 15.1768L12.3859 15.6868L12.5488 16.4577L12.6578 16.9753L12.7123 17.235L12.8213 17.7555L12.8758 18.0164L12.9842 18.5387L13.1424 19.3025C14.0652 23.76 14.9459 28.2305 15.4727 31.4358H15.7187C16.2232 28.5605 16.9563 24.8809 17.7379 21.1239L17.943 20.1426C18.0461 19.6513 18.1492 19.1601 18.2535 18.67L18.4141 17.9097C19.4755 12.9309 20.5687 7.95902 21.6936 2.99425L21.7111 2.91511L21.7393 2.792H31.1395L20.2645 41.5784V60.2028H10.9873V41.6393H10.9258L0.173828 2.79142L9.57402 2.792ZM41.7684 23.998C40.4781 23.998 39.618 24.6745 39.0654 26.0885C38.5123 27.5018 38.2668 29.6532 38.2668 32.6657V45.758C38.2668 48.8315 38.5123 51.1054 39.0039 52.4584C39.4955 53.8102 40.4172 54.4867 41.7684 54.4867C43.0586 54.4867 43.9803 53.8102 44.5334 52.4584C45.0865 51.1054 45.332 48.8315 45.332 45.758V32.6651C45.332 29.6532 45.0859 27.4402 44.5334 26.0879C43.9803 24.6745 43.0586 23.998 41.7684 23.998ZM150.148 25.2279C149.399 25.9196 148.867 26.7726 148.55 27.8389L148.489 28.0552V51.9044C149.251 53.1952 150.333 54.0558 152.237 54.1173C153.22 54.1173 154.018 53.7486 154.633 53.0112C155.247 52.2737 155.678 51.0439 155.923 49.3228C156.159 47.6708 156.282 45.3952 156.292 42.497V36.6607C156.292 33.3416 156.169 30.8215 155.985 29.0388C155.738 27.2562 155.432 25.9653 154.879 25.2279C153.81 23.6909 151.5 23.7096 150.148 25.2279ZM182.65 23.814C181.605 23.8755 180.868 24.1827 180.438 24.7361C179.946 25.3504 179.639 26.2725 179.455 27.6249C179.274 28.9497 179.212 33.5808 179.209 33.766V36.7838H186.09V34.1224V34.1734C186.086 35.1037 186.067 33.6335 186.024 31.8286L186.019 31.5859C185.98 29.9996 185.924 28.231 185.845 27.6249C185.66 26.211 185.352 25.2273 184.861 24.6745C184.37 24.1211 183.633 23.814 182.649 23.814" fill="white"/>
</svg>
