<svg width="80" height="80" viewBox="0 0 80 80" fill="none" xmlns="http://www.w3.org/2000/svg">
<g clip-path="url(#clip0_247_39928)">
<path d="M2.80043 49.3577C3.20043 49.6391 3.68043 49.8502 4.16043 50.0613C4.72043 50.3428 5.68043 50.7649 5.76043 51.0464C5.84043 51.4685 5.76043 51.8907 5.60043 52.2425C5.44043 52.5943 5.20043 52.9461 5.04043 53.2276C4.56043 54.0016 3.76043 55.2681 4.96043 56.1124C5.28043 56.3235 5.76043 56.6753 6.16043 57.0271C5.84043 57.5196 5.68043 58.1529 5.76043 58.7158C5.84043 59.2083 6.08043 59.6305 6.56043 59.8416C6.88043 60.0526 7.20043 60.1934 7.52043 60.3341C8.32043 60.7563 8.64043 60.897 8.72043 61.2488C8.80043 61.7413 8.72043 62.2338 8.56043 62.656C8.48043 62.9375 8.40043 63.2893 8.40043 63.5707C8.24043 64.6261 8.40043 65.7519 8.80043 66.737C9.36043 68.5664 11.2804 69.9032 13.5204 69.9032C13.9204 69.9032 14.2404 69.9032 14.6404 69.8329C18.4804 69.0589 22.2404 68.0738 25.9204 66.8777C28.9604 68.4257 30.8004 73.1399 31.2804 74.8989C31.4404 75.3914 32.0004 75.8136 32.5604 75.8136L66.0004 75.7432C66.4004 75.7432 66.8004 75.5322 67.0404 75.2507C67.2804 74.9693 67.3604 74.5471 67.2004 74.1953C66.8804 73.4213 66.4004 72.6473 65.8404 71.9437C65.5204 71.5216 65.2004 71.0994 64.9604 70.6772C64.3204 69.6218 63.8404 68.496 63.4404 67.3702C62.7204 65.1187 62.1604 62.8671 61.8404 60.5452C61.7604 60.123 61.5204 59.7712 61.0404 59.5601C60.5604 59.4194 60.0804 59.4194 59.6804 59.7008C59.2804 59.9823 59.1204 60.4044 59.2004 60.8266C59.5204 63.2893 60.0804 65.7519 60.8804 68.0738C61.2804 69.3404 61.8404 70.5365 62.5604 71.7326C62.8804 72.2955 63.2004 72.7881 63.6004 73.2806L63.6804 73.4213L33.4404 73.4917C32.5604 70.6772 30.9604 68.1442 28.7204 66.0334L29.9204 65.6816C30.8004 65.4001 31.5204 65.189 31.8404 65.1187C37.5204 63.5004 40.4004 61.2488 40.3204 58.2936C40.3204 58.0122 40.1604 57.6604 39.9204 57.4493C39.6804 57.2382 39.2804 57.0975 38.9604 57.1678C38.2404 57.1678 37.6804 57.7307 37.6804 58.364C37.6804 59.5601 36.5604 61.3191 31.0404 62.8671C30.6404 62.9375 30.0004 63.1485 29.0404 63.5004C28.0804 63.7818 26.8004 64.204 25.4404 64.6261C21.6804 65.8223 17.8404 66.8777 14.0004 67.6517C12.7204 67.8628 11.5204 67.1591 11.2804 66.1037C10.9604 65.4705 10.8804 64.6965 10.9604 63.9929C10.9604 63.7818 11.0404 63.5004 11.1204 63.2893C11.3604 62.4449 11.4404 61.6006 11.2004 60.8266C10.8004 59.7712 9.92043 58.8565 8.72043 58.4343L8.48043 58.2936C8.64043 58.0122 8.80043 57.8011 8.96043 57.59C9.20043 57.3085 9.28043 57.0271 9.20043 56.6753C9.12043 56.3235 8.96043 56.042 8.64043 55.9013C8.32043 55.6902 7.60043 55.1977 7.04043 54.7755C7.12043 54.7052 7.20043 54.5644 7.28043 54.4941C7.52043 54.1423 7.76043 53.7905 8.00043 53.3683C8.40043 52.524 8.56043 51.6093 8.32043 50.7649C8.00043 49.3577 6.48043 48.6541 5.28043 48.0912C4.88043 47.9505 4.56043 47.7394 4.16043 47.5283C3.84043 47.3876 3.60043 47.1765 3.36043 46.9654C3.36043 46.7543 3.60043 46.3322 4.56043 45.2767C6.96043 42.603 8.96043 39.6478 10.6404 36.5519C10.9604 36.0594 11.1204 35.4965 11.1204 34.9336C10.9604 33.7375 10.2404 32.682 9.20043 31.9784C8.64043 31.5563 8.16043 31.1341 8.08043 30.7823C8.08043 30.5008 8.16043 30.2194 8.32043 30.0083C8.56043 29.5158 8.80043 29.0232 9.04043 28.5307C9.60043 27.5457 10.0004 26.4902 10.3204 25.4348L10.4804 24.9423C10.8004 23.7461 11.1204 22.6203 11.6004 21.4946C12.6404 18.9616 14.2404 16.6396 16.4004 14.5991C18.9604 12.2069 22.9604 10.5182 28.3204 9.60348C32.4804 8.82951 36.6404 8.26661 40.8004 7.98517C42.8804 7.91481 45.0404 7.98517 47.0404 8.26661C47.7604 8.33697 48.4004 7.91481 48.5604 7.28155C48.7204 6.6483 48.2404 6.08541 47.5204 5.94469C45.2804 5.59288 42.9604 5.52252 40.6404 5.59288C36.3204 5.87432 32.0004 6.36685 27.7604 7.21119C21.7604 8.26661 17.3604 10.096 14.4004 12.9105C12.0804 15.0917 10.2404 17.7654 9.04043 20.5799C8.56043 21.776 8.16043 23.0425 7.84043 24.309L7.68043 24.8016C7.36043 25.7163 7.04043 26.631 6.56043 27.4753C6.32043 28.0382 6.00043 28.5307 5.76043 29.0936C5.44043 29.7269 5.36043 30.3601 5.44043 31.0637C5.68043 32.1191 6.40043 33.0338 7.36043 33.6671C8.00043 34.1596 8.48043 34.5818 8.48043 34.8632C8.40043 35.0743 8.32043 35.2151 8.24043 35.3558C6.64043 38.311 4.72043 41.1254 2.40043 43.7288C1.44043 44.7842 0.400433 45.9804 0.640433 47.1765C0.960433 48.0912 1.60043 48.9355 2.56043 49.3577H2.80043Z" fill="#D8D8D8"/>
<path d="M2.80043 49.3577C3.20043 49.6391 3.68043 49.8502 4.16043 50.0613C4.72043 50.3428 5.68043 50.7649 5.76043 51.0464C5.84043 51.4685 5.76043 51.8907 5.60043 52.2425C5.44043 52.5943 5.20043 52.9461 5.04043 53.2276C4.56043 54.0016 3.76043 55.2681 4.96043 56.1124C5.28043 56.3235 5.76043 56.6753 6.16043 57.0271C5.84043 57.5196 5.68043 58.1529 5.76043 58.7158C5.84043 59.2083 6.08043 59.6305 6.56043 59.8416C6.88043 60.0526 7.20043 60.1934 7.52043 60.3341C8.32043 60.7563 8.64043 60.897 8.72043 61.2488C8.80043 61.7413 8.72043 62.2338 8.56043 62.656C8.48043 62.9375 8.40043 63.2893 8.40043 63.5707C8.24043 64.6261 8.40043 65.7519 8.80043 66.737C9.36043 68.5664 11.2804 69.9032 13.5204 69.9032C13.9204 69.9032 14.2404 69.9032 14.6404 69.8329C18.4804 69.0589 22.2404 68.0738 25.9204 66.8777C28.9604 68.4257 30.8004 73.1399 31.2804 74.8989C31.4404 75.3914 32.0004 75.8136 32.5604 75.8136L66.0004 75.7432C66.4004 75.7432 66.8004 75.5322 67.0404 75.2507C67.2804 74.9693 67.3604 74.5471 67.2004 74.1953C66.8804 73.4213 66.4004 72.6473 65.8404 71.9437C65.5204 71.5216 65.2004 71.0994 64.9604 70.6772C64.3204 69.6218 63.8404 68.496 63.4404 67.3702C62.7204 65.1187 62.1604 62.8671 61.8404 60.5452C61.7604 60.123 61.5204 59.7712 61.0404 59.5601C60.5604 59.4194 60.0804 59.4194 59.6804 59.7008C59.2804 59.9823 59.1204 60.4044 59.2004 60.8266C59.5204 63.2893 60.0804 65.7519 60.8804 68.0738C61.2804 69.3404 61.8404 70.5365 62.5604 71.7326C62.8804 72.2955 63.2004 72.7881 63.6004 73.2806L63.6804 73.4213L33.4404 73.4917C32.5604 70.6772 30.9604 68.1442 28.7204 66.0334L29.9204 65.6816C30.8004 65.4001 31.5204 65.189 31.8404 65.1187C37.5204 63.5004 40.4004 61.2488 40.3204 58.2936C40.3204 58.0122 40.1604 57.6604 39.9204 57.4493C39.6804 57.2382 39.2804 57.0975 38.9604 57.1678C38.2404 57.1678 37.6804 57.7307 37.6804 58.364C37.6804 59.5601 36.5604 61.3191 31.0404 62.8671C30.6404 62.9375 30.0004 63.1485 29.0404 63.5004C28.0804 63.7818 26.8004 64.204 25.4404 64.6261C21.6804 65.8223 17.8404 66.8777 14.0004 67.6517C12.7204 67.8628 11.5204 67.1591 11.2804 66.1037C10.9604 65.4705 10.8804 64.6965 10.9604 63.9929C10.9604 63.7818 11.0404 63.5004 11.1204 63.2893C11.3604 62.4449 11.4404 61.6006 11.2004 60.8266C10.8004 59.7712 9.92043 58.8565 8.72043 58.4343L8.48043 58.2936C8.64043 58.0122 8.80043 57.8011 8.96043 57.59C9.20043 57.3085 9.28043 57.0271 9.20043 56.6753C9.12043 56.3235 8.96043 56.042 8.64043 55.9013C8.32043 55.6902 7.60043 55.1977 7.04043 54.7755C7.12043 54.7052 7.20043 54.5644 7.28043 54.4941C7.52043 54.1423 7.76043 53.7905 8.00043 53.3683C8.40043 52.524 8.56043 51.6093 8.32043 50.7649C8.00043 49.3577 6.48043 48.6541 5.28043 48.0912C4.88043 47.9505 4.56043 47.7394 4.16043 47.5283C3.84043 47.3876 3.60043 47.1765 3.36043 46.9654C3.36043 46.7543 3.60043 46.3322 4.56043 45.2767C6.96043 42.603 8.96043 39.6478 10.6404 36.5519C10.9604 36.0594 11.1204 35.4965 11.1204 34.9336C10.9604 33.7375 10.2404 32.682 9.20043 31.9784C8.64043 31.5563 8.16043 31.1341 8.08043 30.7823C8.08043 30.5008 8.16043 30.2194 8.32043 30.0083C8.56043 29.5158 8.80043 29.0232 9.04043 28.5307C9.60043 27.5457 10.0004 26.4902 10.3204 25.4348L10.4804 24.9423C10.8004 23.7461 11.1204 22.6203 11.6004 21.4946C12.6404 18.9616 14.2404 16.6396 16.4004 14.5991C18.9604 12.2069 22.9604 10.5182 28.3204 9.60348C32.4804 8.82951 36.6404 8.26661 40.8004 7.98517C42.8804 7.91481 45.0404 7.98517 47.0404 8.26661C47.7604 8.33697 48.4004 7.91481 48.5604 7.28155C48.7204 6.6483 48.2404 6.08541 47.5204 5.94469C45.2804 5.59288 42.9604 5.52252 40.6404 5.59288C36.3204 5.87432 32.0004 6.36685 27.7604 7.21119C21.7604 8.26661 17.3604 10.096 14.4004 12.9105C12.0804 15.0917 10.2404 17.7654 9.04043 20.5799C8.56043 21.776 8.16043 23.0425 7.84043 24.309L7.68043 24.8016C7.36043 25.7163 7.04043 26.631 6.56043 27.4753C6.32043 28.0382 6.00043 28.5307 5.76043 29.0936C5.44043 29.7269 5.36043 30.3601 5.44043 31.0637C5.68043 32.1191 6.40043 33.0338 7.36043 33.6671C8.00043 34.1596 8.48043 34.5818 8.48043 34.8632C8.40043 35.0743 8.32043 35.2151 8.24043 35.3558C6.64043 38.311 4.72043 41.1254 2.40043 43.7288C1.44043 44.7842 0.400433 45.9804 0.640433 47.1765C0.960433 48.0912 1.60043 48.9355 2.56043 49.3577H2.80043Z" fill="url(#paint0_linear_247_39928)"/>
<path d="M15.6791 26.4217L15.8391 25.9292C16.0791 24.9441 16.3991 23.9591 16.7191 23.0444C17.5191 21.0743 18.7991 19.3152 20.3991 17.7673C22.1591 16.3601 24.2391 15.3046 26.5591 14.8121C27.0391 14.6714 27.3591 14.3899 27.5191 13.9678C27.6791 13.5456 27.5191 13.1234 27.1191 12.842C26.7191 12.5605 26.2391 12.4902 25.8391 12.5605C23.1191 13.1938 20.5591 14.4603 18.5591 16.149C16.7191 17.908 15.2791 19.9485 14.3191 22.2001C13.9191 23.2555 13.5991 24.3109 13.3591 25.3663L13.1991 25.8588C13.0391 26.4921 13.4391 27.1254 14.1591 27.2661C14.2391 27.2661 14.3991 27.2661 14.4791 27.2661C15.1191 27.2661 15.5991 26.9143 15.7591 26.3514L15.6791 26.4217Z" fill="#D8D8D8"/>
<path d="M15.6791 26.4217L15.8391 25.9292C16.0791 24.9441 16.3991 23.9591 16.7191 23.0444C17.5191 21.0743 18.7991 19.3152 20.3991 17.7673C22.1591 16.3601 24.2391 15.3046 26.5591 14.8121C27.0391 14.6714 27.3591 14.3899 27.5191 13.9678C27.6791 13.5456 27.5191 13.1234 27.1191 12.842C26.7191 12.5605 26.2391 12.4902 25.8391 12.5605C23.1191 13.1938 20.5591 14.4603 18.5591 16.149C16.7191 17.908 15.2791 19.9485 14.3191 22.2001C13.9191 23.2555 13.5991 24.3109 13.3591 25.3663L13.1991 25.8588C13.0391 26.4921 13.4391 27.1254 14.1591 27.2661C14.2391 27.2661 14.3991 27.2661 14.4791 27.2661C15.1191 27.2661 15.5991 26.9143 15.7591 26.3514L15.6791 26.4217Z" fill="url(#paint1_linear_247_39928)"/>
<path d="M12.8014 31.3454C13.5525 31.3454 14.1614 30.8099 14.1614 30.1493C14.1614 29.4887 13.5525 28.9531 12.8014 28.9531C12.0503 28.9531 11.4414 29.4887 11.4414 30.1493C11.4414 30.8099 12.0503 31.3454 12.8014 31.3454Z" fill="#D8D8D8"/>
<path d="M12.8014 31.3454C13.5525 31.3454 14.1614 30.8099 14.1614 30.1493C14.1614 29.4887 13.5525 28.9531 12.8014 28.9531C12.0503 28.9531 11.4414 29.4887 11.4414 30.1493C11.4414 30.8099 12.0503 31.3454 12.8014 31.3454Z" fill="url(#paint2_linear_247_39928)"/>
<path d="M36.8006 29.2354C36.7206 33.246 38.3206 37.1159 41.2806 40.1414C42.2406 40.9857 43.2806 41.7597 44.3206 42.4633C46.2406 43.8002 48.0806 45.0667 48.6406 46.8257C47.1206 47.3886 46.0806 48.6551 46.0806 50.0624V52.3843C46.0806 53.8619 47.1206 55.1987 48.7206 55.6913V55.9024C48.7206 58.5057 51.1206 60.6166 54.0806 60.6166C57.0406 60.6166 59.4406 58.5057 59.4406 55.9024V55.6913C61.0406 55.1987 62.0806 53.8619 62.0806 52.3843V50.0624C62.0806 48.6551 61.0406 47.3183 59.5206 46.8257C60.0006 45.0667 61.8406 43.8002 63.8406 42.4633C64.9606 41.7597 66.0006 40.9857 66.8806 40.1414C69.8406 37.1159 71.4406 33.246 71.3606 29.2354C71.3606 20.792 63.6006 13.8966 54.0006 13.7559C44.4006 13.8966 36.7206 20.792 36.6406 29.2354H36.8006ZM50.1606 31.3462H48.8006C48.0806 31.3462 47.4406 30.8537 47.4406 30.1501C47.4406 29.4465 48.0006 28.9539 48.8006 28.9539C49.6006 28.9539 50.1606 29.4465 50.1606 30.1501V31.3462ZM55.5206 46.6147H52.8806V33.7385H55.5206V46.6147ZM54.1606 58.365C52.7206 58.365 51.5206 57.3096 51.5206 56.0431H56.8806C56.8806 57.3096 55.6806 58.365 54.2406 58.365H54.1606ZM59.5206 52.525C59.5206 53.1583 58.9606 53.7212 58.1606 53.7212H50.1606C49.4406 53.7212 48.8006 53.2286 48.8006 52.525V50.2031C48.8006 49.5698 49.3606 49.0069 50.1606 49.0069H58.1606C58.8806 49.0069 59.5206 49.4995 59.5206 50.2031V52.525ZM68.8806 29.3761C68.9606 32.7534 67.6006 36.0604 65.0406 38.6638C64.2406 39.4378 63.2806 40.1414 62.3206 40.7043C60.7206 41.6894 59.3606 42.8151 58.1606 44.152V33.7385H59.5206C61.7606 33.7385 63.5206 32.1906 63.5206 30.2204C63.5206 28.2503 61.7606 26.7024 59.5206 26.7024C57.2806 26.7024 55.5206 28.2503 55.5206 30.2204V31.4166H52.8806V30.2204C52.8806 28.2503 51.1206 26.7024 48.8806 26.7024C46.6406 26.7024 44.8806 28.2503 44.8806 30.2204C44.8806 32.1906 46.6406 33.7385 48.8806 33.7385H50.2406V44.152C49.0406 42.8151 47.6806 41.619 46.0806 40.7043C45.1206 40.071 44.1606 39.3674 43.3606 38.6638C40.8006 36.0604 39.4406 32.7534 39.5206 29.3761C39.6806 22.1992 46.4006 16.2185 54.1606 16.2185C61.9206 16.2185 68.7206 22.2696 68.8006 29.3761H68.8806ZM58.2406 31.4166V30.2204C58.2406 29.5872 58.8006 29.0243 59.6006 29.0243C60.4006 29.0243 60.9606 29.5168 60.9606 30.2204C60.9606 30.924 60.4006 31.4166 59.6006 31.4166H58.2406Z" fill="url(#paint3_linear_247_39928)"/>
<path d="M36.8006 29.2354C36.7206 33.246 38.3206 37.1159 41.2806 40.1414C42.2406 40.9857 43.2806 41.7597 44.3206 42.4633C46.2406 43.8002 48.0806 45.0667 48.6406 46.8257C47.1206 47.3886 46.0806 48.6551 46.0806 50.0624V52.3843C46.0806 53.8619 47.1206 55.1987 48.7206 55.6913V55.9024C48.7206 58.5057 51.1206 60.6166 54.0806 60.6166C57.0406 60.6166 59.4406 58.5057 59.4406 55.9024V55.6913C61.0406 55.1987 62.0806 53.8619 62.0806 52.3843V50.0624C62.0806 48.6551 61.0406 47.3183 59.5206 46.8257C60.0006 45.0667 61.8406 43.8002 63.8406 42.4633C64.9606 41.7597 66.0006 40.9857 66.8806 40.1414C69.8406 37.1159 71.4406 33.246 71.3606 29.2354C71.3606 20.792 63.6006 13.8966 54.0006 13.7559C44.4006 13.8966 36.7206 20.792 36.6406 29.2354H36.8006ZM50.1606 31.3462H48.8006C48.0806 31.3462 47.4406 30.8537 47.4406 30.1501C47.4406 29.4465 48.0006 28.9539 48.8006 28.9539C49.6006 28.9539 50.1606 29.4465 50.1606 30.1501V31.3462ZM55.5206 46.6147H52.8806V33.7385H55.5206V46.6147ZM54.1606 58.365C52.7206 58.365 51.5206 57.3096 51.5206 56.0431H56.8806C56.8806 57.3096 55.6806 58.365 54.2406 58.365H54.1606ZM59.5206 52.525C59.5206 53.1583 58.9606 53.7212 58.1606 53.7212H50.1606C49.4406 53.7212 48.8006 53.2286 48.8006 52.525V50.2031C48.8006 49.5698 49.3606 49.0069 50.1606 49.0069H58.1606C58.8806 49.0069 59.5206 49.4995 59.5206 50.2031V52.525ZM68.8806 29.3761C68.9606 32.7534 67.6006 36.0604 65.0406 38.6638C64.2406 39.4378 63.2806 40.1414 62.3206 40.7043C60.7206 41.6894 59.3606 42.8151 58.1606 44.152V33.7385H59.5206C61.7606 33.7385 63.5206 32.1906 63.5206 30.2204C63.5206 28.2503 61.7606 26.7024 59.5206 26.7024C57.2806 26.7024 55.5206 28.2503 55.5206 30.2204V31.4166H52.8806V30.2204C52.8806 28.2503 51.1206 26.7024 48.8806 26.7024C46.6406 26.7024 44.8806 28.2503 44.8806 30.2204C44.8806 32.1906 46.6406 33.7385 48.8806 33.7385H50.2406V44.152C49.0406 42.8151 47.6806 41.619 46.0806 40.7043C45.1206 40.071 44.1606 39.3674 43.3606 38.6638C40.8006 36.0604 39.4406 32.7534 39.5206 29.3761C39.6806 22.1992 46.4006 16.2185 54.1606 16.2185C61.9206 16.2185 68.7206 22.2696 68.8006 29.3761H68.8806ZM58.2406 31.4166V30.2204C58.2406 29.5872 58.8006 29.0243 59.6006 29.0243C60.4006 29.0243 60.9606 29.5168 60.9606 30.2204C60.9606 30.924 60.4006 31.4166 59.6006 31.4166H58.2406Z" fill="url(#paint4_linear_247_39928)"/>
<path d="M75.442 30.1501H79.442C80.162 30.1501 80.802 29.6576 80.802 28.954C80.802 28.3207 80.242 27.7578 79.442 27.7578H75.442C74.722 27.7578 74.082 28.2503 74.082 28.954C74.082 29.5872 74.642 30.1501 75.442 30.1501Z" fill="url(#paint5_linear_247_39928)"/>
<path d="M75.442 30.1501H79.442C80.162 30.1501 80.802 29.6576 80.802 28.954C80.802 28.3207 80.242 27.7578 79.442 27.7578H75.442C74.722 27.7578 74.082 28.2503 74.082 28.954C74.082 29.5872 74.642 30.1501 75.442 30.1501Z" fill="url(#paint6_linear_247_39928)"/>
<path d="M69.1991 16.9225C69.5191 16.9225 69.9191 16.7818 70.1591 16.5707L72.9591 14.108C73.2791 13.8266 73.4391 13.4044 73.3591 12.9822C73.2791 12.5601 72.8791 12.2786 72.3991 12.1379C71.9191 11.9972 71.4391 12.1379 71.1191 12.4897L68.3191 14.9524C67.9191 15.3042 67.8391 15.7967 67.9991 16.2189C68.1591 16.641 68.7191 16.9225 69.1991 16.9225Z" fill="url(#paint7_linear_247_39928)"/>
<path d="M69.1991 16.9225C69.5191 16.9225 69.9191 16.7818 70.1591 16.5707L72.9591 14.108C73.2791 13.8266 73.4391 13.4044 73.3591 12.9822C73.2791 12.5601 72.8791 12.2786 72.3991 12.1379C71.9191 11.9972 71.4391 12.1379 71.1191 12.4897L68.3191 14.9524C67.9191 15.3042 67.8391 15.7967 67.9991 16.2189C68.1591 16.641 68.7191 16.9225 69.1991 16.9225Z" fill="url(#paint8_linear_247_39928)"/>
<path d="M54.1608 11.3635C54.8808 11.3635 55.5208 10.871 55.5208 10.1673V6.64927C55.5208 6.01602 54.9608 5.45312 54.1608 5.45312C53.4408 5.45312 52.8008 5.94566 52.8008 6.64927V10.1673C52.8008 10.8006 53.3608 11.3635 54.1608 11.3635Z" fill="url(#paint9_linear_247_39928)"/>
<path d="M54.1608 11.3635C54.8808 11.3635 55.5208 10.871 55.5208 10.1673V6.64927C55.5208 6.01602 54.9608 5.45312 54.1608 5.45312C53.4408 5.45312 52.8008 5.94566 52.8008 6.64927V10.1673C52.8008 10.8006 53.3608 11.3635 54.1608 11.3635Z" fill="url(#paint10_linear_247_39928)"/>
<path d="M39.9997 16.5699C40.2397 16.3588 40.3997 16.0774 40.3997 15.7256C40.3997 15.3737 40.2397 15.0923 39.9997 14.8812L37.1997 12.4186C36.8797 12.1371 36.3998 11.9964 35.9198 12.0668C35.4398 12.1371 35.1198 12.4889 34.9598 12.9111C34.7998 13.3333 34.9598 13.7554 35.3598 14.0369L38.1597 16.4995C38.3997 16.7106 38.7198 16.8513 39.1198 16.8513C39.5198 16.8513 39.8397 16.7106 40.0797 16.4995L39.9997 16.5699Z" fill="url(#paint11_linear_247_39928)"/>
<path d="M39.9997 16.5699C40.2397 16.3588 40.3997 16.0774 40.3997 15.7256C40.3997 15.3737 40.2397 15.0923 39.9997 14.8812L37.1997 12.4186C36.8797 12.1371 36.3998 11.9964 35.9198 12.0668C35.4398 12.1371 35.1198 12.4889 34.9598 12.9111C34.7998 13.3333 34.9598 13.7554 35.3598 14.0369L38.1597 16.4995C38.3997 16.7106 38.7198 16.8513 39.1198 16.8513C39.5198 16.8513 39.8397 16.7106 40.0797 16.4995L39.9997 16.5699Z" fill="url(#paint12_linear_247_39928)"/>
<path d="M28.8014 27.8281C28.0814 27.8281 27.4414 28.3207 27.4414 29.0243C27.4414 29.6575 28.0014 30.2204 28.8014 30.2204H32.8014C33.5214 30.2204 34.1614 29.7279 34.1614 29.0243C34.1614 28.391 33.6014 27.8281 32.8014 27.8281H28.8014Z" fill="url(#paint13_linear_247_39928)"/>
<path d="M28.8014 27.8281C28.0814 27.8281 27.4414 28.3207 27.4414 29.0243C27.4414 29.6575 28.0014 30.2204 28.8014 30.2204H32.8014C33.5214 30.2204 34.1614 29.7279 34.1614 29.0243C34.1614 28.391 33.6014 27.8281 32.8014 27.8281H28.8014Z" fill="url(#paint14_linear_247_39928)"/>
</g>
<defs>
<linearGradient id="paint0_linear_247_39928" x1="0.605469" y1="40.691" x2="67.2837" y2="40.691" gradientUnits="userSpaceOnUse">
<stop stop-color="#FF3934"/>
<stop offset="1" stop-color="#FF7033"/>
</linearGradient>
<linearGradient id="paint1_linear_247_39928" x1="13.1641" y1="19.9006" x2="27.5804" y2="19.9006" gradientUnits="userSpaceOnUse">
<stop stop-color="#FF3934"/>
<stop offset="1" stop-color="#FF7033"/>
</linearGradient>
<linearGradient id="paint2_linear_247_39928" x1="11.4414" y1="30.1493" x2="14.1614" y2="30.1493" gradientUnits="userSpaceOnUse">
<stop stop-color="#FF3934"/>
<stop offset="1" stop-color="#FF7033"/>
</linearGradient>
<linearGradient id="paint3_linear_247_39928" x1="54.0021" y1="13.7559" x2="54.0021" y2="60.6166" gradientUnits="userSpaceOnUse">
<stop stop-color="white"/>
<stop offset="1" stop-color="#999999"/>
</linearGradient>
<linearGradient id="paint4_linear_247_39928" x1="36.6406" y1="37.1862" x2="71.3635" y2="37.1862" gradientUnits="userSpaceOnUse">
<stop stop-color="#FF3934"/>
<stop offset="1" stop-color="#FF7033"/>
</linearGradient>
<linearGradient id="paint5_linear_247_39928" x1="77.442" y1="27.7578" x2="77.442" y2="30.1501" gradientUnits="userSpaceOnUse">
<stop stop-color="white"/>
<stop offset="1" stop-color="#999999"/>
</linearGradient>
<linearGradient id="paint6_linear_247_39928" x1="74.082" y1="28.954" x2="80.802" y2="28.954" gradientUnits="userSpaceOnUse">
<stop stop-color="#FF3934"/>
<stop offset="1" stop-color="#FF7033"/>
</linearGradient>
<linearGradient id="paint7_linear_247_39928" x1="70.6507" y1="12.084" x2="70.6507" y2="16.9225" gradientUnits="userSpaceOnUse">
<stop stop-color="white"/>
<stop offset="1" stop-color="#999999"/>
</linearGradient>
<linearGradient id="paint8_linear_247_39928" x1="67.9219" y1="14.5032" x2="73.3795" y2="14.5032" gradientUnits="userSpaceOnUse">
<stop stop-color="#FF3934"/>
<stop offset="1" stop-color="#FF7033"/>
</linearGradient>
<linearGradient id="paint9_linear_247_39928" x1="54.1608" y1="5.45312" x2="54.1608" y2="11.3635" gradientUnits="userSpaceOnUse">
<stop stop-color="white"/>
<stop offset="1" stop-color="#999999"/>
</linearGradient>
<linearGradient id="paint10_linear_247_39928" x1="52.8008" y1="8.40831" x2="55.5208" y2="8.40831" gradientUnits="userSpaceOnUse">
<stop stop-color="#FF3934"/>
<stop offset="1" stop-color="#FF7033"/>
</linearGradient>
<linearGradient id="paint11_linear_247_39928" x1="37.6491" y1="12.0488" x2="37.6491" y2="16.8513" gradientUnits="userSpaceOnUse">
<stop stop-color="white"/>
<stop offset="1" stop-color="#999999"/>
</linearGradient>
<linearGradient id="paint12_linear_247_39928" x1="34.8984" y1="14.4501" x2="40.3997" y2="14.4501" gradientUnits="userSpaceOnUse">
<stop stop-color="#FF3934"/>
<stop offset="1" stop-color="#FF7033"/>
</linearGradient>
<linearGradient id="paint13_linear_247_39928" x1="30.8014" y1="27.8281" x2="30.8014" y2="30.2204" gradientUnits="userSpaceOnUse">
<stop stop-color="white"/>
<stop offset="1" stop-color="#999999"/>
</linearGradient>
<linearGradient id="paint14_linear_247_39928" x1="27.4414" y1="29.0243" x2="34.1614" y2="29.0243" gradientUnits="userSpaceOnUse">
<stop stop-color="#FF3934"/>
<stop offset="1" stop-color="#FF7033"/>
</linearGradient>
<clipPath id="clip0_247_39928">
<rect width="80" height="80" fill="white"/>
</clipPath>
</defs>
</svg>
