<svg width="80" height="80" viewBox="0 0 80 80" fill="none" xmlns="http://www.w3.org/2000/svg">
<g clip-path="url(#clip0_359_74522)">
<path d="M31.6005 54.0727C31.3339 54.0727 30.9339 53.9555 30.8005 53.8382L22.2672 47.3884C22.0005 47.1539 21.8672 46.802 21.8672 46.4502C21.8672 46.0984 22.0005 45.7466 22.2672 45.5121L30.8005 39.0623C31.3339 38.5932 32.1339 38.7105 32.6672 39.1796C33.2005 39.6486 33.0672 40.3522 32.5339 40.8213L25.2005 46.333L32.5339 51.8446C33.0672 52.3137 33.2005 53.0173 32.6672 53.4864C32.2672 53.9555 32.0005 54.0727 31.6005 54.0727Z" fill="white"/>
<path d="M31.6005 54.0727C31.3339 54.0727 30.9339 53.9555 30.8005 53.8382L22.2672 47.3884C22.0005 47.1539 21.8672 46.802 21.8672 46.4502C21.8672 46.0984 22.0005 45.7466 22.2672 45.5121L30.8005 39.0623C31.3339 38.5932 32.1339 38.7105 32.6672 39.1796C33.2005 39.6486 33.0672 40.3522 32.5339 40.8213L25.2005 46.333L32.5339 51.8446C33.0672 52.3137 33.2005 53.0173 32.6672 53.4864C32.2672 53.9555 32.0005 54.0727 31.6005 54.0727Z" fill="url(#paint0_linear_359_74522)"/>
<path d="M48.3984 54.0726C47.9984 54.0726 47.5984 53.9553 47.3317 53.7208C46.7984 53.2517 46.9317 52.5481 47.465 52.079L54.7984 46.5673L47.465 41.0557C46.9317 40.5866 46.7984 39.883 47.3317 39.4139C47.865 38.9449 48.665 38.8276 49.1984 39.2967L57.7317 45.7465C57.9984 45.981 58.1317 46.3328 58.1317 46.6846C58.1317 47.0364 57.9984 47.3882 57.7317 47.6228L49.3317 53.838C49.065 54.0726 48.7984 54.0726 48.3984 54.0726Z" fill="white"/>
<path d="M48.3984 54.0726C47.9984 54.0726 47.5984 53.9553 47.3317 53.7208C46.7984 53.2517 46.9317 52.5481 47.465 52.079L54.7984 46.5673L47.465 41.0557C46.9317 40.5866 46.7984 39.883 47.3317 39.4139C47.865 38.9449 48.665 38.8276 49.1984 39.2967L57.7317 45.7465C57.9984 45.981 58.1317 46.3328 58.1317 46.6846C58.1317 47.0364 57.9984 47.3882 57.7317 47.6228L49.3317 53.838C49.065 54.0726 48.7984 54.0726 48.3984 54.0726Z" fill="url(#paint1_linear_359_74522)"/>
<path d="M36.932 58.8809C36.7987 58.8809 36.7987 58.8809 36.6654 58.8809C35.9987 58.7637 35.4654 58.1773 35.5987 57.4737L40.932 35.1926C41.0654 34.6062 41.732 34.1371 42.532 34.2544C43.1987 34.3717 43.732 34.958 43.5987 35.6616L38.2654 57.9428C38.132 58.5291 37.5987 58.8809 36.932 58.8809Z" fill="white"/>
<path d="M36.932 58.8809C36.7987 58.8809 36.7987 58.8809 36.6654 58.8809C35.9987 58.7637 35.4654 58.1773 35.5987 57.4737L40.932 35.1926C41.0654 34.6062 41.732 34.1371 42.532 34.2544C43.1987 34.3717 43.732 34.958 43.5987 35.6616L38.2654 57.9428C38.132 58.5291 37.5987 58.8809 36.932 58.8809Z" fill="url(#paint2_linear_359_74522)"/>
<path d="M71.0667 71.0764H8.93333C4 71.0764 0 67.5584 0 63.2194V16.7809C0 12.4419 4 8.92383 8.93333 8.92383H71.2C76 8.92383 80 12.4419 80 16.7809V63.2194C80 67.5584 76 71.0764 71.0667 71.0764ZM8.93333 11.2692C5.46667 11.2692 2.66667 13.7319 2.66667 16.7809V63.2194C2.66667 66.2684 5.46667 68.7311 8.93333 68.7311H71.2C74.6667 68.7311 77.4667 66.2684 77.4667 63.2194V16.7809C77.3333 13.7319 74.5333 11.2692 71.0667 11.2692H8.93333Z" fill="#D8D8D8"/>
<path d="M71.0667 71.0764H8.93333C4 71.0764 0 67.5584 0 63.2194V16.7809C0 12.4419 4 8.92383 8.93333 8.92383H71.2C76 8.92383 80 12.4419 80 16.7809V63.2194C80 67.5584 76 71.0764 71.0667 71.0764ZM8.93333 11.2692C5.46667 11.2692 2.66667 13.7319 2.66667 16.7809V63.2194C2.66667 66.2684 5.46667 68.7311 8.93333 68.7311H71.2C74.6667 68.7311 77.4667 66.2684 77.4667 63.2194V16.7809C77.3333 13.7319 74.5333 11.2692 71.0667 11.2692H8.93333Z" fill="url(#paint3_linear_359_74522)"/>
<path d="M78.6667 27.57H1.33333C0.666667 27.57 0 27.1009 0 26.3973C0 25.811 0.533333 25.2246 1.33333 25.2246H78.6667C79.3333 25.2246 80 25.6937 80 26.3973C80 27.1009 79.4667 27.57 78.6667 27.57Z" fill="#D8D8D8"/>
<path d="M78.6667 27.57H1.33333C0.666667 27.57 0 27.1009 0 26.3973C0 25.811 0.533333 25.2246 1.33333 25.2246H78.6667C79.3333 25.2246 80 25.6937 80 26.3973C80 27.1009 79.4667 27.57 78.6667 27.57Z" fill="url(#paint4_linear_359_74522)"/>
<path d="M22.5318 22.0578C20.2651 22.0578 18.3984 20.416 18.3984 18.4225C18.3984 16.4289 20.2651 14.7871 22.5318 14.7871C24.7984 14.7871 26.6651 16.4289 26.6651 18.4225C26.7984 20.2988 24.9318 22.0578 22.5318 22.0578ZM22.5318 17.0152C21.7318 17.0152 20.9318 17.6016 20.9318 18.4225C20.9318 19.1261 21.5984 19.8297 22.5318 19.8297C23.3318 19.8297 24.1318 19.2433 24.1318 18.4225C24.1318 17.6016 23.4651 17.0152 22.5318 17.0152Z" fill="#D8D8D8"/>
<path d="M22.5318 22.0578C20.2651 22.0578 18.3984 20.416 18.3984 18.4225C18.3984 16.4289 20.2651 14.7871 22.5318 14.7871C24.7984 14.7871 26.6651 16.4289 26.6651 18.4225C26.7984 20.2988 24.9318 22.0578 22.5318 22.0578ZM22.5318 17.0152C21.7318 17.0152 20.9318 17.6016 20.9318 18.4225C20.9318 19.1261 21.5984 19.8297 22.5318 19.8297C23.3318 19.8297 24.1318 19.2433 24.1318 18.4225C24.1318 17.6016 23.4651 17.0152 22.5318 17.0152Z" fill="url(#paint5_linear_359_74522)"/>
<path d="M9.7349 21.9406C7.46823 21.9406 5.60156 20.2988 5.60156 18.3053C5.60156 16.3117 7.46823 14.6699 9.7349 14.6699C12.0016 14.6699 13.8682 16.3117 13.8682 18.3053C13.8682 20.2988 12.0016 21.9406 9.7349 21.9406ZM9.7349 16.898C8.9349 16.898 8.1349 17.6016 8.1349 18.3053C8.1349 19.0089 8.80156 19.7125 9.7349 19.7125C10.5349 19.7125 11.3349 19.1261 11.3349 18.3053C11.2016 17.6016 10.5349 16.898 9.7349 16.898Z" fill="#D8D8D8"/>
<path d="M9.7349 21.9406C7.46823 21.9406 5.60156 20.2988 5.60156 18.3053C5.60156 16.3117 7.46823 14.6699 9.7349 14.6699C12.0016 14.6699 13.8682 16.3117 13.8682 18.3053C13.8682 20.2988 12.0016 21.9406 9.7349 21.9406ZM9.7349 16.898C8.9349 16.898 8.1349 17.6016 8.1349 18.3053C8.1349 19.0089 8.80156 19.7125 9.7349 19.7125C10.5349 19.7125 11.3349 19.1261 11.3349 18.3053C11.2016 17.6016 10.5349 16.898 9.7349 16.898Z" fill="url(#paint6_linear_359_74522)"/>
<path d="M35.4654 22.0578C33.1987 22.0578 31.332 20.416 31.332 18.4225C31.332 16.4289 33.1987 14.7871 35.4654 14.7871C37.732 14.7871 39.5987 16.4289 39.5987 18.4225C39.5987 20.416 37.732 22.0578 35.4654 22.0578ZM35.4654 17.0152C34.6654 17.0152 33.8654 17.6016 33.8654 18.4225C33.8654 19.1261 34.532 19.8297 35.4654 19.8297C36.2654 19.8297 37.0654 19.2433 37.0654 18.4225C36.932 17.6016 36.2654 17.0152 35.4654 17.0152Z" fill="#D8D8D8"/>
<path d="M35.4654 22.0578C33.1987 22.0578 31.332 20.416 31.332 18.4225C31.332 16.4289 33.1987 14.7871 35.4654 14.7871C37.732 14.7871 39.5987 16.4289 39.5987 18.4225C39.5987 20.416 37.732 22.0578 35.4654 22.0578ZM35.4654 17.0152C34.6654 17.0152 33.8654 17.6016 33.8654 18.4225C33.8654 19.1261 34.532 19.8297 35.4654 19.8297C36.2654 19.8297 37.0654 19.2433 37.0654 18.4225C36.932 17.6016 36.2654 17.0152 35.4654 17.0152Z" fill="url(#paint7_linear_359_74522)"/>
</g>
<defs>
<linearGradient id="paint0_linear_359_74522" x1="21.8672" y1="46.4182" x2="33.0067" y2="46.4182" gradientUnits="userSpaceOnUse">
<stop stop-color="#FF3934"/>
<stop offset="1" stop-color="#FF7033"/>
</linearGradient>
<linearGradient id="paint1_linear_359_74522" x1="46.9922" y1="46.5353" x2="58.1317" y2="46.5353" gradientUnits="userSpaceOnUse">
<stop stop-color="#FF3934"/>
<stop offset="1" stop-color="#FF7033"/>
</linearGradient>
<linearGradient id="paint2_linear_359_74522" x1="35.5781" y1="46.5586" x2="43.6193" y2="46.5586" gradientUnits="userSpaceOnUse">
<stop stop-color="#FF3934"/>
<stop offset="1" stop-color="#FF7033"/>
</linearGradient>
<linearGradient id="paint3_linear_359_74522" x1="0" y1="40.0001" x2="80" y2="40.0001" gradientUnits="userSpaceOnUse">
<stop stop-color="#FF3934"/>
<stop offset="1" stop-color="#FF7033"/>
</linearGradient>
<linearGradient id="paint4_linear_359_74522" x1="0" y1="26.3973" x2="80" y2="26.3973" gradientUnits="userSpaceOnUse">
<stop stop-color="#FF3934"/>
<stop offset="1" stop-color="#FF7033"/>
</linearGradient>
<linearGradient id="paint5_linear_359_74522" x1="18.3984" y1="18.4225" x2="26.6718" y2="18.4225" gradientUnits="userSpaceOnUse">
<stop stop-color="#FF3934"/>
<stop offset="1" stop-color="#FF7033"/>
</linearGradient>
<linearGradient id="paint6_linear_359_74522" x1="5.60156" y1="18.3053" x2="13.8682" y2="18.3053" gradientUnits="userSpaceOnUse">
<stop stop-color="#FF3934"/>
<stop offset="1" stop-color="#FF7033"/>
</linearGradient>
<linearGradient id="paint7_linear_359_74522" x1="31.332" y1="18.4225" x2="39.5987" y2="18.4225" gradientUnits="userSpaceOnUse">
<stop stop-color="#FF3934"/>
<stop offset="1" stop-color="#FF7033"/>
</linearGradient>
<clipPath id="clip0_359_74522">
<rect width="80" height="80" fill="white"/>
</clipPath>
</defs>
</svg>
