<svg width="80" height="80" viewBox="0 0 80 80" fill="none" xmlns="http://www.w3.org/2000/svg">
<g clip-path="url(#clip0_359_74493)">
<path d="M27.8977 36.5916C27.9 37.0497 27.7475 37.498 27.4595 37.8798C27.1716 38.2615 26.7611 38.5594 26.2804 38.7356C25.7996 38.9118 25.2701 38.9584 24.7592 38.8696C24.2482 38.7807 23.7788 38.5603 23.4105 38.2364C23.0422 37.9124 22.7916 37.4996 22.6906 37.0502C22.5895 36.6008 22.6425 36.1351 22.8429 35.7123C23.0433 35.2894 23.3819 34.9285 23.816 34.6752C24.25 34.4219 24.7598 34.2878 25.2806 34.2898C25.6313 34.2656 25.9838 34.3085 26.3138 34.4156C26.6438 34.5228 26.9435 34.6915 27.1922 34.9103C27.4409 35.1291 27.6328 35.3926 27.7546 35.6829C27.8764 35.9731 27.9252 36.2831 27.8977 36.5916Z" fill="white"/>
<path d="M27.8978 50.5541C27.8978 51.0118 27.7433 51.4591 27.454 51.8395C27.1646 52.2199 26.7534 52.5162 26.2725 52.6909C25.7915 52.8656 25.2624 52.9108 24.7522 52.8208C24.242 52.7308 23.7736 52.5096 23.4065 52.1852C23.0393 51.8609 22.7899 51.448 22.6897 50.9989C22.5896 50.5498 22.6433 50.0846 22.844 49.6624C23.0447 49.2401 23.3834 48.8798 23.8172 48.6269C24.2509 48.3741 24.7603 48.2402 25.2806 48.2422C25.6257 48.2409 25.9677 48.2998 26.2866 48.4157C26.6056 48.5315 26.8952 48.7019 27.1387 48.917C27.3822 49.132 27.5746 49.3875 27.705 49.6686C27.8353 49.9496 27.9008 50.2506 27.8978 50.5541Z" fill="white"/>
<path d="M71.8501 31.3452C71.9733 30.7994 72.0232 30.2428 71.9987 29.6867C71.9993 28.5815 71.7408 27.488 71.2394 26.4745C70.7379 25.4611 70.0044 24.5494 69.0844 23.7964C68.175 23.0277 67.0997 22.4271 65.9219 22.03C64.7442 21.6329 63.4879 21.4475 62.2273 21.4846C61.4328 17.1436 59.0118 13.1606 55.3488 10.1684C51.6858 7.17616 46.9909 5.34638 42.0101 4.96973C37.0556 4.57548 32.0912 5.62675 27.8837 7.96122C23.6761 10.2957 20.4594 13.7835 18.7301 17.8861C17.221 17.723 15.6897 17.8426 14.2368 18.237C12.784 18.6315 11.4425 19.2918 10.3004 20.1748C9.15842 21.0577 8.24174 22.1431 7.61065 23.3598C6.97955 24.5765 6.64831 25.8968 6.6387 27.2341C6.64123 28.1 6.79147 28.9606 7.08442 29.7872C4.4517 31.0204 2.36282 32.9917 1.14948 35.3883C-0.0638673 37.7848 -0.332134 40.4692 0.387275 43.0152C1.10534 45.5522 2.7728 47.803 5.12144 49.4056C7.47008 51.0082 10.3634 51.8693 13.3358 51.8506H18.7301V49.398H13.3358C10.8691 49.3892 8.481 48.6341 6.5726 47.2594C4.6642 45.8848 3.3518 43.9744 2.85585 41.8492C2.35109 39.7148 2.717 37.4923 3.88939 35.5716C5.06178 33.6508 6.96576 32.1545 9.26728 31.3452C9.57634 31.2005 9.82761 30.976 9.98728 30.7019C10.061 30.5617 10.0992 30.4091 10.0992 30.2546C10.0992 30.1002 10.061 29.9475 9.98728 29.8073C9.58559 28.9574 9.38719 28.0438 9.40442 27.1235C9.42818 25.2639 10.2787 23.4864 11.7738 22.1713C13.269 20.8563 15.2901 20.1083 17.4044 20.0874C18.0435 20.0993 18.6778 20.1872 19.2901 20.3487C19.4536 20.3947 19.6261 20.411 19.7969 20.3966C19.9678 20.3822 20.1336 20.3375 20.2842 20.2652C20.4349 20.1928 20.5673 20.0943 20.6734 19.9756C20.7795 19.857 20.8571 19.7206 20.9016 19.5748C22.2493 15.7236 25.0645 12.3983 28.8731 10.1587C32.6818 7.91911 37.2514 6.90191 41.8129 7.27832C46.3744 7.65473 50.6491 9.40177 53.9177 12.2254C57.1862 15.049 59.2489 18.7768 59.7587 22.7812C59.7656 22.9436 59.8237 23.1011 59.9267 23.2361C60.0296 23.371 60.1733 23.478 60.3416 23.5452C60.4829 23.6459 60.6457 23.7209 60.8203 23.7657C60.9949 23.8106 61.1779 23.8245 61.3587 23.8065C61.7292 23.7092 62.1151 23.6651 62.5016 23.6758C64.2722 23.6915 65.9653 24.3172 67.2174 25.4184C68.4695 26.5197 69.1809 28.0088 69.1987 29.5661C69.1999 30.2543 69.0525 30.9365 68.7644 31.5764C68.6215 31.8997 68.6215 32.2583 68.7644 32.5816C68.913 32.9635 69.3473 33.0842 69.633 33.2148C71.8791 33.6444 73.8711 34.7774 75.2378 36.4029C76.6045 38.0285 77.2527 40.0355 77.0616 42.0502C76.8396 44.0862 75.7617 45.976 74.039 47.3498C72.3163 48.7237 70.0727 49.4827 67.7473 49.4784H61.233V51.7802H68.0901C70.927 51.7784 73.6706 50.8894 75.8307 49.2721C77.9908 47.6548 79.4266 45.4145 79.8813 42.9517C80.3361 40.489 79.7803 37.9642 78.3132 35.8287C76.8461 33.6933 74.5634 32.0863 71.873 31.295L71.8501 31.3452Z" fill="#D8D8D8"/>
<path d="M71.8501 31.3452C71.9733 30.7994 72.0232 30.2428 71.9987 29.6867C71.9993 28.5815 71.7408 27.488 71.2394 26.4745C70.7379 25.4611 70.0044 24.5494 69.0844 23.7964C68.175 23.0277 67.0997 22.4271 65.9219 22.03C64.7442 21.6329 63.4879 21.4475 62.2273 21.4846C61.4328 17.1436 59.0118 13.1606 55.3488 10.1684C51.6858 7.17616 46.9909 5.34638 42.0101 4.96973C37.0556 4.57548 32.0912 5.62675 27.8837 7.96122C23.6761 10.2957 20.4594 13.7835 18.7301 17.8861C17.221 17.723 15.6897 17.8426 14.2368 18.237C12.784 18.6315 11.4425 19.2918 10.3004 20.1748C9.15842 21.0577 8.24174 22.1431 7.61065 23.3598C6.97955 24.5765 6.64831 25.8968 6.6387 27.2341C6.64123 28.1 6.79147 28.9606 7.08442 29.7872C4.4517 31.0204 2.36282 32.9917 1.14948 35.3883C-0.0638673 37.7848 -0.332134 40.4692 0.387275 43.0152C1.10534 45.5522 2.7728 47.803 5.12144 49.4056C7.47008 51.0082 10.3634 51.8693 13.3358 51.8506H18.7301V49.398H13.3358C10.8691 49.3892 8.481 48.6341 6.5726 47.2594C4.6642 45.8848 3.3518 43.9744 2.85585 41.8492C2.35109 39.7148 2.717 37.4923 3.88939 35.5716C5.06178 33.6508 6.96576 32.1545 9.26728 31.3452C9.57634 31.2005 9.82761 30.976 9.98728 30.7019C10.061 30.5617 10.0992 30.4091 10.0992 30.2546C10.0992 30.1002 10.061 29.9475 9.98728 29.8073C9.58559 28.9574 9.38719 28.0438 9.40442 27.1235C9.42818 25.2639 10.2787 23.4864 11.7738 22.1713C13.269 20.8563 15.2901 20.1083 17.4044 20.0874C18.0435 20.0993 18.6778 20.1872 19.2901 20.3487C19.4536 20.3947 19.6261 20.411 19.7969 20.3966C19.9678 20.3822 20.1336 20.3375 20.2842 20.2652C20.4349 20.1928 20.5673 20.0943 20.6734 19.9756C20.7795 19.857 20.8571 19.7206 20.9016 19.5748C22.2493 15.7236 25.0645 12.3983 28.8731 10.1587C32.6818 7.91911 37.2514 6.90191 41.8129 7.27832C46.3744 7.65473 50.6491 9.40177 53.9177 12.2254C57.1862 15.049 59.2489 18.7768 59.7587 22.7812C59.7656 22.9436 59.8237 23.1011 59.9267 23.2361C60.0296 23.371 60.1733 23.478 60.3416 23.5452C60.4829 23.6459 60.6457 23.7209 60.8203 23.7657C60.9949 23.8106 61.1779 23.8245 61.3587 23.8065C61.7292 23.7092 62.1151 23.6651 62.5016 23.6758C64.2722 23.6915 65.9653 24.3172 67.2174 25.4184C68.4695 26.5197 69.1809 28.0088 69.1987 29.5661C69.1999 30.2543 69.0525 30.9365 68.7644 31.5764C68.6215 31.8997 68.6215 32.2583 68.7644 32.5816C68.913 32.9635 69.3473 33.0842 69.633 33.2148C71.8791 33.6444 73.8711 34.7774 75.2378 36.4029C76.6045 38.0285 77.2527 40.0355 77.0616 42.0502C76.8396 44.0862 75.7617 45.976 74.039 47.3498C72.3163 48.7237 70.0727 49.4827 67.7473 49.4784H61.233V51.7802H68.0901C70.927 51.7784 73.6706 50.8894 75.8307 49.2721C77.9908 47.6548 79.4266 45.4145 79.8813 42.9517C80.3361 40.489 79.7803 37.9642 78.3132 35.8287C76.8461 33.6933 74.5634 32.0863 71.873 31.295L71.8501 31.3452Z" fill="url(#paint0_linear_359_74493)"/>
<path d="M25.2806 34.2898C24.7598 34.2878 24.25 34.4219 23.816 34.6752C23.3819 34.9285 23.0433 35.2894 22.8429 35.7123C22.6425 36.1351 22.5895 36.6008 22.6906 37.0502C22.7916 37.4996 23.0422 37.9124 23.4105 38.2364C23.7788 38.5603 24.2482 38.7807 24.7592 38.8696C25.2701 38.9584 25.7996 38.9118 26.2804 38.7356C26.7611 38.5594 27.1716 38.2615 27.4595 37.8798C27.7475 37.498 27.9 37.0497 27.8977 36.5916C27.9252 36.2831 27.8764 35.9731 27.7546 35.6829C27.6328 35.3926 27.4409 35.1291 27.1922 34.9103C26.9435 34.6915 26.6438 34.5228 26.3138 34.4156C25.9838 34.3085 25.6313 34.2656 25.2806 34.2898Z" fill="white"/>
<path d="M25.2806 34.2898C24.7598 34.2878 24.25 34.4219 23.816 34.6752C23.3819 34.9285 23.0433 35.2894 22.8429 35.7123C22.6425 36.1351 22.5895 36.6008 22.6906 37.0502C22.7916 37.4996 23.0422 37.9124 23.4105 38.2364C23.7788 38.5603 24.2482 38.7807 24.7592 38.8696C25.2701 38.9584 25.7996 38.9118 26.2804 38.7356C26.7611 38.5594 27.1716 38.2615 27.4595 37.8798C27.7475 37.498 27.9 37.0497 27.8977 36.5916C27.9252 36.2831 27.8764 35.9731 27.7546 35.6829C27.6328 35.3926 27.4409 35.1291 27.1922 34.9103C26.9435 34.6915 26.6438 34.5228 26.3138 34.4156C25.9838 34.3085 25.6313 34.2656 25.2806 34.2898Z" fill="url(#paint1_linear_359_74493)"/>
<path d="M25.2806 48.2422C24.7603 48.2402 24.2509 48.3741 23.8172 48.6269C23.3834 48.8798 23.0447 49.2401 22.844 49.6624C22.6433 50.0846 22.5896 50.5498 22.6897 50.9989C22.7899 51.448 23.0393 51.8609 23.4065 52.1852C23.7736 52.5096 24.242 52.7308 24.7522 52.8208C25.2624 52.9108 25.7915 52.8656 26.2725 52.6909C26.7534 52.5162 27.1646 52.2199 27.454 51.8395C27.7433 51.4591 27.8978 51.0118 27.8978 50.5541C27.8993 50.251 27.8327 49.9506 27.7018 49.6701C27.571 49.3897 27.3785 49.1348 27.1353 48.9199C26.8921 48.7051 26.6031 48.5347 26.2848 48.4184C25.9665 48.3021 25.6253 48.2422 25.2806 48.2422Z" fill="white"/>
<path d="M25.2806 48.2422C24.7603 48.2402 24.2509 48.3741 23.8172 48.6269C23.3834 48.8798 23.0447 49.2401 22.844 49.6624C22.6433 50.0846 22.5896 50.5498 22.6897 50.9989C22.7899 51.448 23.0393 51.8609 23.4065 52.1852C23.7736 52.5096 24.242 52.7308 24.7522 52.8208C25.2624 52.9108 25.7915 52.8656 26.2725 52.6909C26.7534 52.5162 27.1646 52.2199 27.454 51.8395C27.7433 51.4591 27.8978 51.0118 27.8978 50.5541C27.8993 50.251 27.8327 49.9506 27.7018 49.6701C27.571 49.3897 27.3785 49.1348 27.1353 48.9199C26.8921 48.7051 26.6031 48.5347 26.2848 48.4184C25.9665 48.3021 25.6253 48.2422 25.2806 48.2422Z" fill="url(#paint2_linear_359_74493)"/>
<path d="M67.3457 61.1784C66.3979 61.0313 65.4215 61.181 64.5863 61.6016C63.751 62.0221 63.1098 62.6869 62.7743 63.4803H50.6029V56.4441H61.3686C61.5416 56.4455 61.7132 56.4165 61.8733 56.3589C62.0335 56.3012 62.179 56.2161 62.3013 56.1085C62.4237 56.0009 62.5204 55.873 62.5859 55.7321C62.6514 55.5913 62.6844 55.4404 62.6829 55.2882V46.0306C62.6844 45.8785 62.6514 45.7275 62.5859 45.5867C62.5204 45.4458 62.4237 45.3179 62.3013 45.2103C62.179 45.1027 62.0335 45.0176 61.8733 44.9599C61.7132 44.9023 61.5416 44.8733 61.3686 44.8747H58.4657V42.6131H61.0829C61.2559 42.6144 61.4275 42.5854 61.5876 42.5278C61.7478 42.4702 61.8932 42.3851 62.0156 42.2775C62.1379 42.1699 62.2347 42.0419 62.3002 41.9011C62.3657 41.7602 62.3987 41.6093 62.3971 41.4571V32.1192C62.4002 31.9661 62.3684 31.8141 62.3036 31.6721C62.2387 31.5301 62.1422 31.4009 62.0197 31.2923C61.8972 31.1836 61.7512 31.0976 61.5903 31.0393C61.4294 30.9811 61.2568 30.9518 61.0829 30.9532H18.58C18.407 30.9518 18.2354 30.9808 18.0752 31.0384C17.9151 31.096 17.7696 31.1811 17.6473 31.2887C17.5249 31.3964 17.4282 31.5243 17.3626 31.6652C17.2971 31.806 17.2642 31.9569 17.2657 32.1091V41.4471C17.2642 41.5993 17.2971 41.7502 17.3626 41.891C17.4282 42.0319 17.5249 42.1598 17.6473 42.2674C17.7696 42.375 17.9151 42.4601 18.0752 42.5178C18.2354 42.5754 18.407 42.6044 18.58 42.603H21.1971V44.9048H18.58C18.4162 44.883 18.249 44.8927 18.0899 44.9333C17.9308 44.9739 17.7836 45.0445 17.6586 45.1401C17.5336 45.2357 17.4337 45.3541 17.3658 45.487C17.298 45.62 17.2638 45.7643 17.2657 45.91V55.258C17.2642 55.4102 17.2971 55.5611 17.3626 55.702C17.4282 55.8428 17.5249 55.9708 17.6473 56.0784C17.7696 56.186 17.9151 56.2711 18.0752 56.3287C18.2354 56.3863 18.407 56.4153 18.58 56.414H29.2086V63.4501H16.98C16.6756 62.6485 16.049 61.9723 15.2177 61.5485C14.3865 61.1246 13.4078 60.9823 12.4657 61.1483C11.526 61.2747 10.6689 61.6929 10.0496 62.3272C9.43033 62.9615 9.08984 63.77 9.08984 64.606C9.08984 65.4421 9.43033 66.2505 10.0496 66.8849C10.6689 67.5192 11.526 67.9374 12.4657 68.0638C13.4055 68.1919 14.3667 68.0321 15.1885 67.6113C16.0103 67.1904 16.6428 66.534 16.98 65.7519H30.5114C30.6835 65.7533 30.8541 65.7246 31.0135 65.6676C31.1729 65.6106 31.3179 65.5264 31.4401 65.4199C31.5623 65.3133 31.6593 65.1866 31.7255 65.0469C31.7916 64.9072 31.8257 64.7574 31.8257 64.606V56.4441H38.5229V68.3453C37.6006 68.6156 36.8233 69.1744 36.3387 69.9157C35.8541 70.6569 35.6959 71.5289 35.8943 72.3659C36.1274 73.1751 36.654 73.8954 37.3944 74.4178C38.1347 74.9402 39.0484 75.2361 39.9971 75.2608C40.9393 75.2478 41.847 74.9468 42.5644 74.4094C43.2818 73.872 43.7641 73.1317 43.9286 72.3157C44.0891 71.4826 43.9159 70.6264 43.4386 69.8931C42.9613 69.1599 42.2095 68.595 41.3114 68.295V56.4441H47.9971V64.6362C47.9971 64.7867 48.0308 64.9357 48.0963 65.0747C48.1618 65.2137 48.2578 65.3401 48.3787 65.4465C48.4997 65.5529 48.6433 65.6373 48.8014 65.6949C48.9595 65.7524 49.1289 65.7821 49.3 65.7821H62.8543C63.1595 66.5946 63.7945 67.2796 64.6379 67.7061C65.4813 68.1326 66.4738 68.2707 67.4257 68.094C68.3654 67.9676 69.2225 67.5493 69.8418 66.915C70.4611 66.2807 70.8016 65.4723 70.8016 64.6362C70.8016 63.8001 70.4611 62.9917 69.8418 62.3574C69.2225 61.7231 68.3654 61.3048 67.4257 61.1784H67.3457ZM13.3343 65.9128C13.0743 65.9128 12.8202 65.845 12.6041 65.7179C12.388 65.5909 12.2195 65.4104 12.12 65.1992C12.0206 64.988 11.9945 64.7555 12.0452 64.5313C12.096 64.3071 12.2211 64.1011 12.4049 63.9394C12.5887 63.7778 12.8229 63.6677 13.0779 63.6231C13.3328 63.5785 13.5971 63.6014 13.8372 63.6889C14.0774 63.7764 14.2827 63.9245 14.4271 64.1146C14.5715 64.3047 14.6486 64.5282 14.6486 64.7568C14.6246 65.0564 14.4785 65.3384 14.237 65.5508C13.9955 65.7632 13.6749 65.8917 13.3343 65.9128ZM19.8829 40.0499V33.0138H59.8829V40.0499H19.8829ZM55.9971 42.3618V44.6636H23.9971V42.3618H55.9971ZM39.9971 72.959C39.7372 72.959 39.4831 72.8912 39.267 72.7641C39.0508 72.6371 38.8824 72.4566 38.7829 72.2454C38.6834 72.0342 38.6574 71.8017 38.7081 71.5775C38.7588 71.3533 38.884 71.1473 39.0678 70.9856C39.2516 70.824 39.4858 70.7139 39.7407 70.6693C39.9957 70.6247 40.2599 70.6476 40.5001 70.7351C40.7402 70.8226 40.9455 70.9707 41.0899 71.1608C41.2343 71.3509 41.3114 71.5744 41.3114 71.803C41.2875 72.1026 41.1413 72.3846 40.8998 72.597C40.6584 72.8093 40.3378 72.9379 39.9971 72.959ZM19.8829 54.1322V47.0961H59.8829V54.1322H19.8829ZM66.6143 65.7821C66.3539 65.7821 66.0993 65.714 65.8829 65.5866C65.6666 65.4591 65.4981 65.278 65.399 65.0662C65.2999 64.8543 65.2745 64.6214 65.3261 64.3969C65.3778 64.1724 65.5041 63.9665 65.6891 63.8052C65.874 63.644 66.1093 63.5347 66.365 63.4912C66.6207 63.4478 66.8853 63.4721 67.1252 63.5611C67.3652 63.6501 67.5696 63.7999 67.7126 63.9913C67.8557 64.1827 67.9308 64.4072 67.9286 64.6362C67.9286 64.7875 67.8945 64.9374 67.8283 65.077C67.7621 65.2167 67.6651 65.3435 67.5429 65.45C67.4207 65.5566 67.2758 65.6408 67.1164 65.6978C66.957 65.7548 66.7863 65.7834 66.6143 65.7821Z" fill="white"/>
<path d="M67.3457 61.1784C66.3979 61.0313 65.4215 61.181 64.5863 61.6016C63.751 62.0221 63.1098 62.6869 62.7743 63.4803H50.6029V56.4441H61.3686C61.5416 56.4455 61.7132 56.4165 61.8733 56.3589C62.0335 56.3012 62.179 56.2161 62.3013 56.1085C62.4237 56.0009 62.5204 55.873 62.5859 55.7321C62.6514 55.5913 62.6844 55.4404 62.6829 55.2882V46.0306C62.6844 45.8785 62.6514 45.7275 62.5859 45.5867C62.5204 45.4458 62.4237 45.3179 62.3013 45.2103C62.179 45.1027 62.0335 45.0176 61.8733 44.9599C61.7132 44.9023 61.5416 44.8733 61.3686 44.8747H58.4657V42.6131H61.0829C61.2559 42.6144 61.4275 42.5854 61.5876 42.5278C61.7478 42.4702 61.8932 42.3851 62.0156 42.2775C62.1379 42.1699 62.2347 42.0419 62.3002 41.9011C62.3657 41.7602 62.3987 41.6093 62.3971 41.4571V32.1192C62.4002 31.9661 62.3684 31.8141 62.3036 31.6721C62.2387 31.5301 62.1422 31.4009 62.0197 31.2923C61.8972 31.1836 61.7512 31.0976 61.5903 31.0393C61.4294 30.9811 61.2568 30.9518 61.0829 30.9532H18.58C18.407 30.9518 18.2354 30.9808 18.0752 31.0384C17.9151 31.096 17.7696 31.1811 17.6473 31.2887C17.5249 31.3964 17.4282 31.5243 17.3626 31.6652C17.2971 31.806 17.2642 31.9569 17.2657 32.1091V41.4471C17.2642 41.5993 17.2971 41.7502 17.3626 41.891C17.4282 42.0319 17.5249 42.1598 17.6473 42.2674C17.7696 42.375 17.9151 42.4601 18.0752 42.5178C18.2354 42.5754 18.407 42.6044 18.58 42.603H21.1971V44.9048H18.58C18.4162 44.883 18.249 44.8927 18.0899 44.9333C17.9308 44.9739 17.7836 45.0445 17.6586 45.1401C17.5336 45.2357 17.4337 45.3541 17.3658 45.487C17.298 45.62 17.2638 45.7643 17.2657 45.91V55.258C17.2642 55.4102 17.2971 55.5611 17.3626 55.702C17.4282 55.8428 17.5249 55.9708 17.6473 56.0784C17.7696 56.186 17.9151 56.2711 18.0752 56.3287C18.2354 56.3863 18.407 56.4153 18.58 56.414H29.2086V63.4501H16.98C16.6756 62.6485 16.049 61.9723 15.2177 61.5485C14.3865 61.1246 13.4078 60.9823 12.4657 61.1483C11.526 61.2747 10.6689 61.6929 10.0496 62.3272C9.43033 62.9615 9.08984 63.77 9.08984 64.606C9.08984 65.4421 9.43033 66.2505 10.0496 66.8849C10.6689 67.5192 11.526 67.9374 12.4657 68.0638C13.4055 68.1919 14.3667 68.0321 15.1885 67.6113C16.0103 67.1904 16.6428 66.534 16.98 65.7519H30.5114C30.6835 65.7533 30.8541 65.7246 31.0135 65.6676C31.1729 65.6106 31.3179 65.5264 31.4401 65.4199C31.5623 65.3133 31.6593 65.1866 31.7255 65.0469C31.7916 64.9072 31.8257 64.7574 31.8257 64.606V56.4441H38.5229V68.3453C37.6006 68.6156 36.8233 69.1744 36.3387 69.9157C35.8541 70.6569 35.6959 71.5289 35.8943 72.3659C36.1274 73.1751 36.654 73.8954 37.3944 74.4178C38.1347 74.9402 39.0484 75.2361 39.9971 75.2608C40.9393 75.2478 41.847 74.9468 42.5644 74.4094C43.2818 73.872 43.7641 73.1317 43.9286 72.3157C44.0891 71.4826 43.9159 70.6264 43.4386 69.8931C42.9613 69.1599 42.2095 68.595 41.3114 68.295V56.4441H47.9971V64.6362C47.9971 64.7867 48.0308 64.9357 48.0963 65.0747C48.1618 65.2137 48.2578 65.3401 48.3787 65.4465C48.4997 65.5529 48.6433 65.6373 48.8014 65.6949C48.9595 65.7524 49.1289 65.7821 49.3 65.7821H62.8543C63.1595 66.5946 63.7945 67.2796 64.6379 67.7061C65.4813 68.1326 66.4738 68.2707 67.4257 68.094C68.3654 67.9676 69.2225 67.5493 69.8418 66.915C70.4611 66.2807 70.8016 65.4723 70.8016 64.6362C70.8016 63.8001 70.4611 62.9917 69.8418 62.3574C69.2225 61.7231 68.3654 61.3048 67.4257 61.1784H67.3457ZM13.3343 65.9128C13.0743 65.9128 12.8202 65.845 12.6041 65.7179C12.388 65.5909 12.2195 65.4104 12.12 65.1992C12.0206 64.988 11.9945 64.7555 12.0452 64.5313C12.096 64.3071 12.2211 64.1011 12.4049 63.9394C12.5887 63.7778 12.8229 63.6677 13.0779 63.6231C13.3328 63.5785 13.5971 63.6014 13.8372 63.6889C14.0774 63.7764 14.2827 63.9245 14.4271 64.1146C14.5715 64.3047 14.6486 64.5282 14.6486 64.7568C14.6246 65.0564 14.4785 65.3384 14.237 65.5508C13.9955 65.7632 13.6749 65.8917 13.3343 65.9128ZM19.8829 40.0499V33.0138H59.8829V40.0499H19.8829ZM55.9971 42.3618V44.6636H23.9971V42.3618H55.9971ZM39.9971 72.959C39.7372 72.959 39.4831 72.8912 39.267 72.7641C39.0508 72.6371 38.8824 72.4566 38.7829 72.2454C38.6834 72.0342 38.6574 71.8017 38.7081 71.5775C38.7588 71.3533 38.884 71.1473 39.0678 70.9856C39.2516 70.824 39.4858 70.7139 39.7407 70.6693C39.9957 70.6247 40.2599 70.6476 40.5001 70.7351C40.7402 70.8226 40.9455 70.9707 41.0899 71.1608C41.2343 71.3509 41.3114 71.5744 41.3114 71.803C41.2875 72.1026 41.1413 72.3846 40.8998 72.597C40.6584 72.8093 40.3378 72.9379 39.9971 72.959ZM19.8829 54.1322V47.0961H59.8829V54.1322H19.8829ZM66.6143 65.7821C66.3539 65.7821 66.0993 65.714 65.8829 65.5866C65.6666 65.4591 65.4981 65.278 65.399 65.0662C65.2999 64.8543 65.2745 64.6214 65.3261 64.3969C65.3778 64.1724 65.5041 63.9665 65.6891 63.8052C65.874 63.644 66.1093 63.5347 66.365 63.4912C66.6207 63.4478 66.8853 63.4721 67.1252 63.5611C67.3652 63.6501 67.5696 63.7999 67.7126 63.9913C67.8557 64.1827 67.9308 64.4072 67.9286 64.6362C67.9286 64.7875 67.8945 64.9374 67.8283 65.077C67.7621 65.2167 67.6651 65.3435 67.5429 65.45C67.4207 65.5566 67.2758 65.6408 67.1164 65.6978C66.957 65.7548 66.7863 65.7834 66.6143 65.7821Z" fill="url(#paint3_linear_359_74493)"/>
</g>
<defs>
<linearGradient id="paint0_linear_359_74493" x1="-0.0078125" y1="28.3698" x2="80.036" y2="28.3698" gradientUnits="userSpaceOnUse">
<stop stop-color="#FF3934"/>
<stop offset="1" stop-color="#FF7033"/>
</linearGradient>
<linearGradient id="paint1_linear_359_74493" x1="22.6406" y1="36.5983" x2="27.9052" y2="36.5983" gradientUnits="userSpaceOnUse">
<stop stop-color="#FF3934"/>
<stop offset="1" stop-color="#FF7033"/>
</linearGradient>
<linearGradient id="paint2_linear_359_74493" x1="22.6406" y1="50.5541" x2="27.8978" y2="50.5541" gradientUnits="userSpaceOnUse">
<stop stop-color="#FF3934"/>
<stop offset="1" stop-color="#FF7033"/>
</linearGradient>
<linearGradient id="paint3_linear_359_74493" x1="9.08984" y1="53.107" x2="70.8016" y2="53.107" gradientUnits="userSpaceOnUse">
<stop stop-color="#FF3934"/>
<stop offset="1" stop-color="#FF7033"/>
</linearGradient>
<clipPath id="clip0_359_74493">
<rect width="80" height="80" fill="white"/>
</clipPath>
</defs>
</svg>
