<svg width="80" height="80" viewBox="0 0 80 80" fill="none" xmlns="http://www.w3.org/2000/svg">
<path d="M72 43.5172V41.1751C72.3537 41.1725 72.6921 41.0478 72.9422 40.8278C73.1923 40.6078 73.3342 40.3102 73.3372 39.9991V32.9629C73.3372 32.651 73.1963 32.3519 72.9455 32.1314C72.6948 31.9108 72.3546 31.7869 72 31.7869H64.8L64.5372 30.9526C63.9565 28.9353 63.04 27.0046 61.8172 25.2232L61.2914 24.4392L66.4 19.8958C66.6485 19.6772 66.788 19.3807 66.788 19.0716C66.788 18.7625 66.6485 18.466 66.4 18.2473L60.6857 13.2215C60.4362 13.0085 60.1021 12.8893 59.7543 12.8893C59.4065 12.8893 59.0724 13.0085 58.8229 13.2215L53.7143 17.7649L52.8229 17.3025C50.8031 16.2217 48.6168 15.4025 46.3314 14.87L45.3371 14.6489V8.33643C45.3342 8.02534 45.1923 7.72773 44.9422 7.50775C44.6921 7.28776 44.3537 7.16302 44 7.16039H36C35.6454 7.16039 35.3053 7.28429 35.0545 7.50485C34.8037 7.7254 34.6629 8.02453 34.6629 8.33643V14.669L33.6686 14.9001C31.3749 15.4108 29.1798 16.217 27.1543 17.2924L26.2629 17.7548L21.1429 13.2617C20.8914 13.048 20.5554 12.9285 20.2057 12.9285C19.856 12.9285 19.52 13.048 19.2686 13.2617L13.5543 18.2876C13.4296 18.3948 13.3309 18.523 13.2641 18.6647C13.1973 18.8064 13.1639 18.9584 13.1657 19.1118C13.1671 19.4208 13.3067 19.7168 13.5543 19.936L18.6743 24.4392L18.1371 25.2232C16.9396 27.011 16.039 28.9404 15.4629 30.9526L15.2 31.8271H8C7.65315 31.8269 7.31979 31.9453 7.0703 32.1572C6.82081 32.3692 6.67472 32.6581 6.66286 32.9629V39.9991C6.66286 40.311 6.80373 40.6101 7.0545 40.8307C7.30526 41.0512 7.64537 41.1751 8 41.1751V43.5172C6.93913 43.5172 5.92172 43.1465 5.17157 42.4867C4.42143 41.827 4 40.9321 4 39.9991V32.9629C4 32.0299 4.42143 31.1351 5.17157 30.4753C5.92172 29.8155 6.93913 29.4449 8 29.4449H13.1543C13.7043 27.8226 14.4474 26.2559 15.3714 24.7709L11.7143 21.5543C11.3418 21.2292 11.0461 20.8424 10.8444 20.4163C10.6426 19.9902 10.5388 19.5332 10.5388 19.0716C10.5388 18.61 10.6426 18.153 10.8444 17.7269C11.0461 17.3008 11.3418 16.914 11.7143 16.5888L17.3714 11.563C18.1323 10.9252 19.1431 10.5693 20.1943 10.5693C21.2454 10.5693 22.2563 10.9252 23.0171 11.563L26.6857 14.87C28.3726 14.0387 30.1537 13.365 32 12.8597V8.33643C32 7.40338 32.4214 6.50855 33.1716 5.84878C33.9217 5.18901 34.9391 4.81836 36 4.81836H44C45.0609 4.81836 46.0783 5.18901 46.8284 5.84878C47.5786 6.50855 48 7.40338 48 8.33643V12.8597C49.8444 13.3609 51.6222 14.0348 53.3029 14.87L56.9714 11.6434C57.7323 11.0056 58.7431 10.6497 59.7943 10.6497C60.8454 10.6497 61.8563 11.0056 62.6172 11.6434L68.3314 16.619C69.0782 17.2783 69.4975 18.1711 69.4975 19.1017C69.4975 20.0324 69.0782 20.9251 68.3314 21.5845L64.6629 24.8111C65.5869 26.2961 66.33 27.8628 66.88 29.4851H72C73.053 29.485 74.0636 29.8501 74.8124 30.5012C75.5612 31.1523 75.988 32.0369 76 32.9629V39.9991C76 40.9321 75.5786 41.827 74.8284 42.4867C74.0783 43.1465 73.0609 43.5172 72 43.5172Z" fill="url(#paint0_linear_359_74513)"/>
<path d="M58.6617 36.4807H55.9988C55.9988 32.7485 54.3131 29.1692 51.3125 26.5301C48.3119 23.8911 44.2423 22.4084 39.9988 22.4084C35.7553 22.4084 31.6857 23.8911 28.6851 26.5301C25.6845 29.1692 23.9988 32.7485 23.9988 36.4807H21.3359C21.3359 32.1274 23.3022 27.9523 26.8022 24.874C30.3021 21.7958 35.0491 20.0664 39.9988 20.0664C44.9485 20.0664 49.6955 21.7958 53.1954 24.874C56.6954 27.9523 58.6617 32.1274 58.6617 36.4807Z" fill="white"/>
<path d="M58.6617 36.4807H55.9988C55.9988 32.7485 54.3131 29.1692 51.3125 26.5301C48.3119 23.8911 44.2423 22.4084 39.9988 22.4084C35.7553 22.4084 31.6857 23.8911 28.6851 26.5301C25.6845 29.1692 23.9988 32.7485 23.9988 36.4807H21.3359C21.3359 32.1274 23.3022 27.9523 26.8022 24.874C30.3021 21.7958 35.0491 20.0664 39.9988 20.0664C44.9485 20.0664 49.6955 21.7958 53.1954 24.874C56.6954 27.9523 58.6617 32.1274 58.6617 36.4807Z" fill="url(#paint1_linear_359_74513)"/>
<path d="M40 45.8594C38.4178 45.8594 36.871 45.4467 35.5554 44.6736C34.2398 43.9005 33.2145 42.8016 32.609 41.5159C32.0035 40.2302 31.845 38.8155 32.1537 37.4506C32.4624 36.0857 33.2243 34.832 34.3432 33.848C35.462 32.8639 36.8874 32.1938 38.4393 31.9223C39.9911 31.6508 41.5997 31.7902 43.0615 32.3227C44.5233 32.8553 45.7727 33.7571 46.6518 34.9142C47.5308 36.0713 48 37.4316 48 38.8233C48 40.6894 47.1572 42.479 45.6569 43.7986C44.1566 45.1181 42.1217 45.8594 40 45.8594ZM40 34.1392C38.9439 34.1392 37.9116 34.4148 37.0337 34.931C36.1557 35.4472 35.4717 36.181 35.068 37.0393C34.6644 37.8976 34.5594 38.8419 34.7663 39.7528C34.9731 40.6636 35.4826 41.5 36.2301 42.1561C36.9777 42.8122 37.9297 43.2585 38.9658 43.4384C40.0019 43.6184 41.0753 43.524 42.0504 43.1672C43.0254 42.8104 43.8582 42.2072 44.4432 41.4339C45.0283 40.6606 45.3394 39.7521 45.3371 38.8233C45.3341 37.58 44.7705 36.3887 43.7699 35.5105C42.7693 34.6324 41.4135 34.1392 40 34.1392Z" fill="#D8D8D8"/>
<path d="M40 45.8594C38.4178 45.8594 36.871 45.4467 35.5554 44.6736C34.2398 43.9005 33.2145 42.8016 32.609 41.5159C32.0035 40.2302 31.845 38.8155 32.1537 37.4506C32.4624 36.0857 33.2243 34.832 34.3432 33.848C35.462 32.8639 36.8874 32.1938 38.4393 31.9223C39.9911 31.6508 41.5997 31.7902 43.0615 32.3227C44.5233 32.8553 45.7727 33.7571 46.6518 34.9142C47.5308 36.0713 48 37.4316 48 38.8233C48 40.6894 47.1572 42.479 45.6569 43.7986C44.1566 45.1181 42.1217 45.8594 40 45.8594ZM40 34.1392C38.9439 34.1392 37.9116 34.4148 37.0337 34.931C36.1557 35.4472 35.4717 36.181 35.068 37.0393C34.6644 37.8976 34.5594 38.8419 34.7663 39.7528C34.9731 40.6636 35.4826 41.5 36.2301 42.1561C36.9777 42.8122 37.9297 43.2585 38.9658 43.4384C40.0019 43.6184 41.0753 43.524 42.0504 43.1672C43.0254 42.8104 43.8582 42.2072 44.4432 41.4339C45.0283 40.6606 45.3394 39.7521 45.3371 38.8233C45.3341 37.58 44.7705 36.3887 43.7699 35.5105C42.7693 34.6324 41.4135 34.1392 40 34.1392Z" fill="url(#paint2_linear_359_74513)"/>
<path d="M62.6641 50.5528C61.0818 50.5528 59.5351 50.1401 58.2195 49.367C56.9039 48.5938 55.8785 47.4949 55.273 46.2092C54.6675 44.9235 54.5091 43.5088 54.8178 42.1439C55.1265 40.7791 55.8884 39.5253 57.0072 38.5413C58.126 37.5573 59.5515 36.8872 61.1033 36.6157C62.6552 36.3442 64.2637 36.4835 65.7255 37.0161C67.1873 37.5486 68.4368 38.4505 69.3158 39.6075C70.1949 40.7646 70.6641 42.125 70.6641 43.5166C70.6641 45.3827 69.8212 47.1724 68.3209 48.4919C66.8206 49.8115 64.7858 50.5528 62.6641 50.5528ZM62.6641 38.8225C61.6085 38.8225 60.5766 39.0978 59.6989 39.6136C58.8212 40.1294 58.1371 40.8625 57.7332 41.7203C57.3292 42.578 57.2235 43.5218 57.4295 44.4324C57.6354 45.343 58.1437 46.1794 58.8901 46.8359C59.6365 47.4923 60.5875 47.9394 61.6228 48.1205C62.6581 48.3017 63.7313 48.2087 64.7065 47.8534C65.6817 47.4981 66.5153 46.8965 67.1017 46.1245C67.6882 45.3526 68.0012 44.445 68.0012 43.5166C68.0012 42.2717 67.4389 41.0777 66.438 40.1974C65.4371 39.3171 64.0796 38.8225 62.6641 38.8225Z" fill="#D8D8D8"/>
<path d="M62.6641 50.5528C61.0818 50.5528 59.5351 50.1401 58.2195 49.367C56.9039 48.5938 55.8785 47.4949 55.273 46.2092C54.6675 44.9235 54.5091 43.5088 54.8178 42.1439C55.1265 40.7791 55.8884 39.5253 57.0072 38.5413C58.126 37.5573 59.5515 36.8872 61.1033 36.6157C62.6552 36.3442 64.2637 36.4835 65.7255 37.0161C67.1873 37.5486 68.4368 38.4505 69.3158 39.6075C70.1949 40.7646 70.6641 42.125 70.6641 43.5166C70.6641 45.3827 69.8212 47.1724 68.3209 48.4919C66.8206 49.8115 64.7858 50.5528 62.6641 50.5528ZM62.6641 38.8225C61.6085 38.8225 60.5766 39.0978 59.6989 39.6136C58.8212 40.1294 58.1371 40.8625 57.7332 41.7203C57.3292 42.578 57.2235 43.5218 57.4295 44.4324C57.6354 45.343 58.1437 46.1794 58.8901 46.8359C59.6365 47.4923 60.5875 47.9394 61.6228 48.1205C62.6581 48.3017 63.7313 48.2087 64.7065 47.8534C65.6817 47.4981 66.5153 46.8965 67.1017 46.1245C67.6882 45.3526 68.0012 44.445 68.0012 43.5166C68.0012 42.2717 67.4389 41.0777 66.438 40.1974C65.4371 39.3171 64.0796 38.8225 62.6641 38.8225Z" fill="url(#paint3_linear_359_74513)"/>
<path d="M17.3359 50.5528C15.7537 50.5528 14.207 50.1401 12.8914 49.367C11.5758 48.5938 10.5504 47.4949 9.9449 46.2092C9.3394 44.9235 9.18098 43.5088 9.48966 42.1439C9.79834 40.7791 10.5603 39.5253 11.6791 38.5413C12.7979 37.5573 14.2234 36.8872 15.7752 36.6157C17.3271 36.3442 18.9356 36.4835 20.3974 37.0161C21.8592 37.5486 23.1086 38.4505 23.9877 39.6075C24.8668 40.7646 25.3359 42.125 25.3359 43.5166C25.3359 44.4406 25.129 45.3556 24.727 46.2092C24.3249 47.0629 23.7357 47.8386 22.9928 48.4919C22.2499 49.1453 21.368 49.6636 20.3974 50.0172C19.4268 50.3708 18.3865 50.5528 17.3359 50.5528ZM17.3359 38.8225C16.2799 38.8205 15.2469 39.0941 14.3677 39.6087C13.4885 40.1233 12.8026 40.8557 12.3969 41.7133C11.9912 42.5708 11.8839 43.515 12.0885 44.4262C12.2932 45.3374 12.8006 46.1748 13.5465 46.8323C14.2925 47.4898 15.2435 47.9378 16.2791 48.1198C17.3147 48.3017 18.3884 48.2094 19.3643 47.8544C20.3402 47.4994 21.1744 46.8977 21.7614 46.1256C22.3483 45.3534 22.6617 44.4455 22.6617 43.5166C22.6617 42.2734 22.1009 41.081 21.1025 40.2009C20.104 39.3209 18.7495 38.8252 17.3359 38.8225Z" fill="#D8D8D8"/>
<path d="M17.3359 50.5528C15.7537 50.5528 14.207 50.1401 12.8914 49.367C11.5758 48.5938 10.5504 47.4949 9.9449 46.2092C9.3394 44.9235 9.18098 43.5088 9.48966 42.1439C9.79834 40.7791 10.5603 39.5253 11.6791 38.5413C12.7979 37.5573 14.2234 36.8872 15.7752 36.6157C17.3271 36.3442 18.9356 36.4835 20.3974 37.0161C21.8592 37.5486 23.1086 38.4505 23.9877 39.6075C24.8668 40.7646 25.3359 42.125 25.3359 43.5166C25.3359 44.4406 25.129 45.3556 24.727 46.2092C24.3249 47.0629 23.7357 47.8386 22.9928 48.4919C22.2499 49.1453 21.368 49.6636 20.3974 50.0172C19.4268 50.3708 18.3865 50.5528 17.3359 50.5528ZM17.3359 38.8225C16.2799 38.8205 15.2469 39.0941 14.3677 39.6087C13.4885 40.1233 12.8026 40.8557 12.3969 41.7133C11.9912 42.5708 11.8839 43.515 12.0885 44.4262C12.2932 45.3374 12.8006 46.1748 13.5465 46.8323C14.2925 47.4898 15.2435 47.9378 16.2791 48.1198C17.3147 48.3017 18.3884 48.2094 19.3643 47.8544C20.3402 47.4994 21.1744 46.8977 21.7614 46.1256C22.3483 45.3534 22.6617 44.4455 22.6617 43.5166C22.6617 42.2734 22.1009 41.081 21.1025 40.2009C20.104 39.3209 18.7495 38.8252 17.3359 38.8225Z" fill="url(#paint4_linear_359_74513)"/>
<path d="M74.7543 53.5589C72.7662 52.3603 70.4104 51.7222 68 51.7295H57.3371C56.6857 51.7293 56.0356 51.7798 55.3943 51.8803C54.5548 50.6896 53.4461 49.6632 52.1371 48.8648C51.943 48.7325 51.7366 48.6148 51.52 48.513C49.6508 47.5339 47.5127 47.0229 45.3371 47.0354H34.6629C32.658 47.0314 30.6845 47.4735 28.9261 48.3206C27.1676 49.1677 25.6814 50.3922 24.6057 51.8803C23.9644 51.7798 23.3143 51.7293 22.6629 51.7295H12C9.58965 51.7222 7.23385 52.3603 5.24572 53.5589C3.62844 54.5265 2.3049 55.8274 1.39055 57.3482C0.476191 58.8689 -0.00120411 60.5634 2.28077e-06 62.2837V66.9678C0.000730458 68.5358 0.512469 70.0708 1.47459 71.3908C2.43671 72.7109 3.8089 73.7608 5.42857 74.416C6.64871 74.928 7.98528 75.1893 9.33715 75.18H22.6629V72.8379H10.6629V59.9316H8V72.7173C7.49867 72.6284 7.01134 72.4866 6.54857 72.2951C5.39158 71.8245 4.41134 71.0732 3.72302 70.1295C3.03471 69.1858 2.66692 68.0889 2.66286 66.9678V62.2837C2.6685 60.9444 3.04378 59.6264 3.75645 58.4428C4.46912 57.2592 5.49786 56.2455 6.75429 55.4888C8.29885 54.5592 10.1284 54.0649 12 54.0715H22.6629C22.9029 54.0715 23.1314 54.0715 23.36 54.0715C22.9072 55.1916 22.6715 56.3707 22.6629 57.5594V69.3199C22.6689 70.8742 23.3744 72.3631 24.6251 73.4613C25.8758 74.5594 27.5699 75.1773 29.3371 75.18H33.3371V56.4136H30.6629V72.8379H29.3371C28.2763 72.8379 27.2589 72.4673 26.5087 71.8075C25.7586 71.1477 25.3371 70.2529 25.3371 69.3199V57.5896C25.3356 56.5116 25.5758 55.444 26.0437 54.4477C26.5117 53.4514 27.1984 52.546 28.0645 51.7833C28.9307 51.0206 29.9592 50.4155 31.0914 50.0027C32.2236 49.5899 33.4372 49.3774 34.6629 49.3774H45.3371C47.0514 49.3797 48.7318 49.797 50.1943 50.5836L50.5829 50.8047C51.8318 51.5601 52.8582 52.5662 53.5772 53.7398C54.2887 54.9267 54.6613 56.2479 54.6629 57.5896V69.3199C54.6629 70.2529 54.2414 71.1477 53.4913 71.8075C52.7411 72.4673 51.7237 72.8379 50.6629 72.8379H49.3371V56.4136H46.6629V75.18H50.6629C52.4301 75.1773 54.1242 74.5594 55.3749 73.4613C56.6256 72.3631 57.3311 70.8742 57.3371 69.3199V57.5896C57.3323 56.3907 57.0966 55.2012 56.64 54.0715C56.8686 54.0715 57.0971 54.0715 57.3371 54.0715H68C69.8736 54.0633 71.7047 54.5616 73.2457 55.4989C74.5047 56.2509 75.5357 57.2622 76.2488 58.4447C76.9619 59.6272 77.3355 60.9452 77.3371 62.2837V66.9678C77.3346 68.0931 76.965 69.1942 76.2722 70.1403C75.5794 71.0864 74.5925 71.8377 73.4286 72.3052C72.9707 72.4875 72.4917 72.6256 72 72.7173V59.9316H69.3371V72.8379H57.3371V75.18H70.6629C72.0061 75.189 73.3343 74.9313 74.5486 74.4261C76.1726 73.771 77.5491 72.7204 78.5153 71.3986C79.4814 70.0768 79.9967 68.5391 80 66.9678V62.2837C80.0002 60.5636 79.5224 58.8694 78.6081 57.3488C77.6939 55.8281 76.3709 54.5271 74.7543 53.5589Z" fill="#D8D8D8"/>
<path d="M74.7543 53.5589C72.7662 52.3603 70.4104 51.7222 68 51.7295H57.3371C56.6857 51.7293 56.0356 51.7798 55.3943 51.8803C54.5548 50.6896 53.4461 49.6632 52.1371 48.8648C51.943 48.7325 51.7366 48.6148 51.52 48.513C49.6508 47.5339 47.5127 47.0229 45.3371 47.0354H34.6629C32.658 47.0314 30.6845 47.4735 28.9261 48.3206C27.1676 49.1677 25.6814 50.3922 24.6057 51.8803C23.9644 51.7798 23.3143 51.7293 22.6629 51.7295H12C9.58965 51.7222 7.23385 52.3603 5.24572 53.5589C3.62844 54.5265 2.3049 55.8274 1.39055 57.3482C0.476191 58.8689 -0.00120411 60.5634 2.28077e-06 62.2837V66.9678C0.000730458 68.5358 0.512469 70.0708 1.47459 71.3908C2.43671 72.7109 3.8089 73.7608 5.42857 74.416C6.64871 74.928 7.98528 75.1893 9.33715 75.18H22.6629V72.8379H10.6629V59.9316H8V72.7173C7.49867 72.6284 7.01134 72.4866 6.54857 72.2951C5.39158 71.8245 4.41134 71.0732 3.72302 70.1295C3.03471 69.1858 2.66692 68.0889 2.66286 66.9678V62.2837C2.6685 60.9444 3.04378 59.6264 3.75645 58.4428C4.46912 57.2592 5.49786 56.2455 6.75429 55.4888C8.29885 54.5592 10.1284 54.0649 12 54.0715H22.6629C22.9029 54.0715 23.1314 54.0715 23.36 54.0715C22.9072 55.1916 22.6715 56.3707 22.6629 57.5594V69.3199C22.6689 70.8742 23.3744 72.3631 24.6251 73.4613C25.8758 74.5594 27.5699 75.1773 29.3371 75.18H33.3371V56.4136H30.6629V72.8379H29.3371C28.2763 72.8379 27.2589 72.4673 26.5087 71.8075C25.7586 71.1477 25.3371 70.2529 25.3371 69.3199V57.5896C25.3356 56.5116 25.5758 55.444 26.0437 54.4477C26.5117 53.4514 27.1984 52.546 28.0645 51.7833C28.9307 51.0206 29.9592 50.4155 31.0914 50.0027C32.2236 49.5899 33.4372 49.3774 34.6629 49.3774H45.3371C47.0514 49.3797 48.7318 49.797 50.1943 50.5836L50.5829 50.8047C51.8318 51.5601 52.8582 52.5662 53.5772 53.7398C54.2887 54.9267 54.6613 56.2479 54.6629 57.5896V69.3199C54.6629 70.2529 54.2414 71.1477 53.4913 71.8075C52.7411 72.4673 51.7237 72.8379 50.6629 72.8379H49.3371V56.4136H46.6629V75.18H50.6629C52.4301 75.1773 54.1242 74.5594 55.3749 73.4613C56.6256 72.3631 57.3311 70.8742 57.3371 69.3199V57.5896C57.3323 56.3907 57.0966 55.2012 56.64 54.0715C56.8686 54.0715 57.0971 54.0715 57.3371 54.0715H68C69.8736 54.0633 71.7047 54.5616 73.2457 55.4989C74.5047 56.2509 75.5357 57.2622 76.2488 58.4447C76.9619 59.6272 77.3355 60.9452 77.3371 62.2837V66.9678C77.3346 68.0931 76.965 69.1942 76.2722 70.1403C75.5794 71.0864 74.5925 71.8377 73.4286 72.3052C72.9707 72.4875 72.4917 72.6256 72 72.7173V59.9316H69.3371V72.8379H57.3371V75.18H70.6629C72.0061 75.189 73.3343 74.9313 74.5486 74.4261C76.1726 73.771 77.5491 72.7204 78.5153 71.3986C79.4814 70.0768 79.9967 68.5391 80 66.9678V62.2837C80.0002 60.5636 79.5224 58.8694 78.6081 57.3488C77.6939 55.8281 76.3709 54.5271 74.7543 53.5589Z" fill="url(#paint5_linear_359_74513)"/>
<path d="M34.6641 72.8379H45.3383V75.1799H34.6641V72.8379Z" fill="#D8D8D8"/>
<path d="M34.6641 72.8379H45.3383V75.1799H34.6641V72.8379Z" fill="url(#paint6_linear_359_74513)"/>
<defs>
<linearGradient id="paint0_linear_359_74513" x1="4" y1="24.1678" x2="76" y2="24.1678" gradientUnits="userSpaceOnUse">
<stop stop-color="#FF3934"/>
<stop offset="1" stop-color="#FF7033"/>
</linearGradient>
<linearGradient id="paint1_linear_359_74513" x1="21.3359" y1="28.2736" x2="58.6617" y2="28.2736" gradientUnits="userSpaceOnUse">
<stop stop-color="#FF3934"/>
<stop offset="1" stop-color="#FF7033"/>
</linearGradient>
<linearGradient id="paint2_linear_359_74513" x1="32" y1="38.8233" x2="48" y2="38.8233" gradientUnits="userSpaceOnUse">
<stop stop-color="#FF3934"/>
<stop offset="1" stop-color="#FF7033"/>
</linearGradient>
<linearGradient id="paint3_linear_359_74513" x1="54.6641" y1="43.5166" x2="70.6641" y2="43.5166" gradientUnits="userSpaceOnUse">
<stop stop-color="#FF3934"/>
<stop offset="1" stop-color="#FF7033"/>
</linearGradient>
<linearGradient id="paint4_linear_359_74513" x1="9.33594" y1="43.5166" x2="25.3359" y2="43.5166" gradientUnits="userSpaceOnUse">
<stop stop-color="#FF3934"/>
<stop offset="1" stop-color="#FF7033"/>
</linearGradient>
<linearGradient id="paint5_linear_359_74513" x1="0" y1="61.1077" x2="80" y2="61.1077" gradientUnits="userSpaceOnUse">
<stop stop-color="#FF3934"/>
<stop offset="1" stop-color="#FF7033"/>
</linearGradient>
<linearGradient id="paint6_linear_359_74513" x1="34.6641" y1="74.0089" x2="45.3383" y2="74.0089" gradientUnits="userSpaceOnUse">
<stop stop-color="#FF3934"/>
<stop offset="1" stop-color="#FF7033"/>
</linearGradient>
</defs>
</svg>
