<svg width="80" height="80" viewBox="0 0 80 80" fill="none" xmlns="http://www.w3.org/2000/svg">
<path d="M10 26.7607C10 23.574 10 21.9807 10.36 20.674C10.8202 19.0061 11.7053 17.4861 12.9287 16.2627C14.1522 15.0393 15.6721 14.1542 17.34 13.694C18.6467 13.334 20.24 13.334 23.4267 13.334H54C59.6 13.334 62.4 13.334 64.54 14.424C66.4215 15.3827 67.9513 16.9124 68.91 18.794C70 20.934 70 23.734 70 29.334V50.6673C70 56.2673 70 59.0673 68.91 61.2073C67.9513 63.0889 66.4215 64.6186 64.54 65.5773C62.4 66.6673 59.6 66.6673 54 66.6673H47.1567" stroke="#D8D8D8" stroke-width="4" stroke-linecap="round" stroke-linejoin="round"/>
<path d="M10 26.7607C10 23.574 10 21.9807 10.36 20.674C10.8202 19.0061 11.7053 17.4861 12.9287 16.2627C14.1522 15.0393 15.6721 14.1542 17.34 13.694C18.6467 13.334 20.24 13.334 23.4267 13.334H54C59.6 13.334 62.4 13.334 64.54 14.424C66.4215 15.3827 67.9513 16.9124 68.91 18.794C70 20.934 70 23.734 70 29.334V50.6673C70 56.2673 70 59.0673 68.91 61.2073C67.9513 63.0889 66.4215 64.6186 64.54 65.5773C62.4 66.6673 59.6 66.6673 54 66.6673H47.1567" stroke="url(#paint0_linear_359_74486)" stroke-width="4" stroke-linecap="round" stroke-linejoin="round"/>
<path d="M36.6667 66.6667C36.6667 59.5942 33.8572 52.8115 28.8562 47.8105C23.8552 42.8095 17.0724 40 10 40M10 66.68L11.1767 65.5M23.3333 66.6667C23.3333 63.1304 21.9286 59.7391 19.4281 57.2386C16.9276 54.7381 13.5362 53.3333 10 53.3333" stroke="black" stroke-width="4" stroke-linecap="round" stroke-linejoin="round"/>
<path d="M36.6667 66.6667C36.6667 59.5942 33.8572 52.8115 28.8562 47.8105C23.8552 42.8095 17.0724 40 10 40M10 66.68L11.1767 65.5M23.3333 66.6667C23.3333 63.1304 21.9286 59.7391 19.4281 57.2386C16.9276 54.7381 13.5362 53.3333 10 53.3333" stroke="url(#paint1_linear_359_74486)" stroke-width="4" stroke-linecap="round" stroke-linejoin="round"/>
<defs>
<linearGradient id="paint0_linear_359_74486" x1="10" y1="40.0007" x2="70" y2="40.0007" gradientUnits="userSpaceOnUse">
<stop stop-color="#FF3934"/>
<stop offset="1" stop-color="#FF7033"/>
</linearGradient>
<linearGradient id="paint1_linear_359_74486" x1="10" y1="53.34" x2="36.6667" y2="53.34" gradientUnits="userSpaceOnUse">
<stop stop-color="#FF3934"/>
<stop offset="1" stop-color="#FF7033"/>
</linearGradient>
</defs>
</svg>
