<svg width="50" height="50" viewBox="0 0 50 50" fill="none" xmlns="http://www.w3.org/2000/svg">
<path d="M25 3.125C12.9199 3.125 3.125 12.9199 3.125 25C3.125 37.0801 12.9199 46.875 25 46.875C37.0801 46.875 46.875 37.0801 46.875 25C46.875 12.9199 37.0801 3.125 25 3.125ZM32.5537 25.3174L20.542 34.0088C20.2832 34.1943 19.9219 34.0088 19.9219 33.6914V31.4014C19.9219 30.9033 20.1611 30.4297 20.5664 30.1367L27.666 25L20.5664 19.8633C20.1611 19.5703 19.9219 19.1016 19.9219 18.5986V16.3086C19.9219 15.9912 20.2832 15.8057 20.542 15.9912L32.5537 24.6826C32.7686 24.8389 32.7686 25.1611 32.5537 25.3174Z" fill="black"/>
<path d="M25 3.125C12.9199 3.125 3.125 12.9199 3.125 25C3.125 37.0801 12.9199 46.875 25 46.875C37.0801 46.875 46.875 37.0801 46.875 25C46.875 12.9199 37.0801 3.125 25 3.125ZM32.5537 25.3174L20.542 34.0088C20.2832 34.1943 19.9219 34.0088 19.9219 33.6914V31.4014C19.9219 30.9033 20.1611 30.4297 20.5664 30.1367L27.666 25L20.5664 19.8633C20.1611 19.5703 19.9219 19.1016 19.9219 18.5986V16.3086C19.9219 15.9912 20.2832 15.8057 20.542 15.9912L32.5537 24.6826C32.7686 24.8389 32.7686 25.1611 32.5537 25.3174Z" fill="url(#paint0_linear_314_2626)"/>
<defs>
<linearGradient id="paint0_linear_314_2626" x1="3.125" y1="25" x2="46.875" y2="25" gradientUnits="userSpaceOnUse">
<stop stop-color="#FF3934"/>
<stop offset="1" stop-color="#FF7033"/>
</linearGradient>
</defs>
</svg>
