<svg width="60" height="60" viewBox="0 0 60 60" fill="none" xmlns="http://www.w3.org/2000/svg">
<g clip-path="url(#clip0_314_2507)">
<path d="M29.9987 56.6693C25.5784 56.6693 21.3392 54.9133 18.2136 51.7877C15.088 48.6621 13.332 44.4229 13.332 40.0026V20.0026C13.332 15.5823 15.088 11.3431 18.2136 8.21749C21.3392 5.09188 25.5784 3.33594 29.9987 3.33594C34.419 3.33594 38.6582 5.09188 41.7838 8.21749C44.9094 11.3431 46.6654 15.5823 46.6654 20.0026V40.0026C46.6654 42.1913 46.2343 44.3586 45.3967 46.3807C44.5591 48.4028 43.3315 50.2401 41.7838 51.7877C40.2362 53.3354 38.3988 54.563 36.3768 55.4006C34.3547 56.2382 32.1874 56.6693 29.9987 56.6693ZM29.9987 6.66927C26.4625 6.66927 23.0711 8.07403 20.5706 10.5745C18.0701 13.075 16.6654 16.4664 16.6654 20.0026V40.0026C16.6654 43.5388 18.0701 46.9302 20.5706 49.4307C23.0711 51.9312 26.4625 53.3359 29.9987 53.3359C33.5349 53.3359 36.9263 51.9312 39.4268 49.4307C41.9273 46.9302 43.332 43.5388 43.332 40.0026V20.0026C43.332 16.4664 41.9273 13.075 39.4268 10.5745C36.9263 8.07403 33.5349 6.66927 29.9987 6.66927Z" fill="white"/>
<path d="M29.9987 25C29.5567 25 29.1327 24.8244 28.8202 24.5118C28.5076 24.1993 28.332 23.7754 28.332 23.3333V16.6667C28.332 16.2246 28.5076 15.8007 28.8202 15.4882C29.1327 15.1756 29.5567 15 29.9987 15C30.4407 15 30.8646 15.1756 31.1772 15.4882C31.4898 15.8007 31.6654 16.2246 31.6654 16.6667V23.3333C31.6654 23.7754 31.4898 24.1993 31.1772 24.5118C30.8646 24.8244 30.4407 25 29.9987 25Z" fill="white"/>
</g>
<defs>
<clipPath id="clip0_314_2507">
<rect width="60" height="60" fill="white"/>
</clipPath>
</defs>
</svg>
