<svg width="1920" height="872" viewBox="0 0 1920 872" fill="none" xmlns="http://www.w3.org/2000/svg">
<g clip-path="url(#clip0_432_5097)">
<g clip-path="url(#clip1_432_5097)">
<g opacity="0.5">
<g opacity="0.05">
<path d="M1674.58 748.908C1724.32 750.661 1764.94 743.681 1765.3 733.319C1765.67 722.958 1725.64 713.137 1675.91 711.384C1626.17 709.631 1585.55 716.611 1585.19 726.974C1584.82 737.335 1624.85 747.155 1674.58 748.908Z" stroke="url(#paint0_linear_432_5097)" stroke-miterlimit="10"/>
<path d="M1674.96 749.612C1728.7 750.447 1772.4 742.439 1772.56 731.726C1772.73 721.014 1729.3 711.653 1675.57 710.818C1621.83 709.984 1578.13 717.99 1577.97 728.704C1577.8 739.416 1621.23 748.779 1674.96 749.612Z" stroke="url(#paint1_linear_432_5097)" stroke-miterlimit="10"/>
<path d="M1675.58 750.286C1733.65 750.08 1780.69 740.948 1780.65 729.886C1780.61 718.827 1733.51 710.028 1675.44 710.233C1617.38 710.44 1570.34 719.573 1570.38 730.632C1570.41 741.693 1617.52 750.491 1675.58 750.286Z" stroke="url(#paint2_linear_432_5097)" stroke-miterlimit="10"/>
<path d="M1675.44 750.851C1737.97 749.475 1788.47 739.117 1788.22 727.716C1787.97 716.313 1737.07 708.185 1674.53 709.559C1611.99 710.935 1561.5 721.292 1561.75 732.696C1562 744.097 1612.9 752.224 1675.44 750.851Z" stroke="url(#paint3_linear_432_5097)" stroke-miterlimit="10"/>
<path d="M1676.14 751.613C1743.31 748.93 1797.38 737.235 1796.91 725.494C1796.44 713.752 1741.61 706.409 1674.44 709.093C1607.27 711.778 1553.2 723.472 1553.67 735.212C1554.14 746.954 1608.97 754.297 1676.14 751.613Z" stroke="url(#paint4_linear_432_5097)" stroke-miterlimit="10"/>
<path d="M1676.52 752.004C1748.63 747.856 1806.52 734.706 1805.83 722.629C1805.14 710.554 1746.11 704.125 1674 708.273C1601.89 712.419 1543.99 725.569 1544.68 737.646C1545.38 749.723 1604.4 756.151 1676.52 752.004Z" stroke="url(#paint5_linear_432_5097)" stroke-miterlimit="10"/>
<path d="M1676.6 752.944C1753.79 747.187 1815.61 732.322 1814.68 719.743C1813.74 707.164 1750.4 701.634 1673.2 707.39C1596 713.149 1534.18 728.014 1535.12 740.593C1536.06 753.172 1599.4 758.702 1676.6 752.944Z" stroke="url(#paint6_linear_432_5097)" stroke-miterlimit="10"/>
<path d="M1677.11 753.779C1759.71 746.232 1825.7 729.513 1824.51 716.434C1823.31 703.357 1755.38 698.872 1672.79 706.42C1590.19 713.967 1524.2 730.686 1525.39 743.765C1526.59 756.842 1594.52 761.325 1677.11 753.779Z" stroke="url(#paint7_linear_432_5097)" stroke-miterlimit="10"/>
<path d="M1677.86 754.648C1765.83 745.159 1835.95 726.464 1834.49 712.89C1833.02 699.319 1760.52 696.008 1672.56 705.498C1584.59 714.987 1514.47 733.683 1515.94 747.256C1517.4 760.828 1589.9 764.139 1677.86 754.648Z" stroke="url(#paint8_linear_432_5097)" stroke-miterlimit="10"/>
<path d="M1678.23 755.94C1771.86 744.326 1846.35 723.513 1844.61 709.45C1842.86 695.388 1765.54 693.402 1671.91 705.016C1578.27 716.63 1503.78 737.445 1505.53 751.506C1507.27 765.569 1584.59 767.554 1678.23 755.94Z" stroke="url(#paint9_linear_432_5097)" stroke-miterlimit="10"/>
<path d="M1679.27 756.918C1778.87 742.958 1857.95 719.71 1855.88 704.992C1853.82 690.275 1771.4 689.659 1671.8 703.618C1572.19 717.578 1493.12 740.827 1495.18 755.544C1497.24 770.262 1579.66 770.878 1679.27 756.918Z" stroke="url(#paint10_linear_432_5097)" stroke-miterlimit="10"/>
<path d="M1679.39 758.148C1784.9 741.688 1868.49 715.888 1866.1 700.521C1863.7 685.156 1776.22 686.042 1670.71 702.502C1565.19 718.962 1481.6 744.762 1483.99 760.129C1486.39 775.496 1573.87 774.608 1679.39 758.148Z" stroke="url(#paint11_linear_432_5097)" stroke-miterlimit="10"/>
<path d="M1679.88 759.032C1791.6 739.835 1879.93 711.298 1877.18 695.289C1874.43 679.282 1781.64 681.866 1669.92 701.062C1558.2 720.257 1469.87 748.796 1472.62 764.803C1475.37 780.812 1568.17 778.227 1679.88 759.032Z" stroke="url(#paint12_linear_432_5097)" stroke-miterlimit="10"/>
<path d="M1680.9 760.204C1798.94 738.063 1892.1 706.618 1888.98 689.974C1885.86 673.33 1787.64 677.787 1669.6 699.93C1551.56 722.071 1458.4 753.516 1461.52 770.16C1464.64 786.804 1562.86 782.347 1680.9 760.204Z" stroke="url(#paint13_linear_432_5097)" stroke-miterlimit="10"/>
<path d="M1681.7 761.911C1806.33 736.577 1904.5 701.9 1900.95 684.458C1897.41 667.015 1793.5 673.413 1668.86 698.746C1544.22 724.08 1446.05 758.757 1449.6 776.199C1453.14 793.642 1557.06 787.244 1681.7 761.911Z" stroke="url(#paint14_linear_432_5097)" stroke-miterlimit="10"/>
<path d="M1682.42 763.569C1813.58 734.844 1916.64 696.641 1912.61 678.242C1908.58 659.844 1798.99 668.213 1667.83 696.94C1536.67 725.664 1433.61 763.867 1437.64 782.266C1441.67 800.667 1551.26 792.295 1682.42 763.569Z" stroke="url(#paint15_linear_432_5097)" stroke-miterlimit="10"/>
<path d="M1683.66 765.266C1821.45 732.906 1929.46 690.988 1924.92 671.642C1920.37 652.296 1804.99 662.844 1667.21 695.204C1529.42 727.566 1421.41 769.482 1425.96 788.83C1430.5 808.177 1545.88 797.628 1683.66 765.266Z" stroke="url(#paint16_linear_432_5097)" stroke-miterlimit="10"/>
<path d="M1684.65 766.923C1829.13 730.681 1942.14 684.862 1937.05 664.58C1931.97 644.297 1810.71 657.233 1666.22 693.475C1521.74 729.715 1408.73 775.534 1413.82 795.818C1418.9 816.099 1540.16 803.162 1684.65 766.923Z" stroke="url(#paint17_linear_432_5097)" stroke-miterlimit="10"/>
<path d="M1685.4 769.024C1836.83 728.61 1954.97 678.521 1949.26 657.152C1943.56 635.781 1816.18 651.22 1664.74 691.635C1513.31 732.049 1395.18 782.138 1400.88 803.507C1406.59 824.879 1533.97 809.44 1685.4 769.024Z" stroke="url(#paint18_linear_432_5097)" stroke-miterlimit="10"/>
<path d="M1686.76 770.938C1844.88 726.151 1967.91 671.648 1961.55 649.203C1955.19 626.756 1821.86 644.868 1663.74 689.654C1505.62 734.438 1382.59 788.942 1388.95 811.387C1395.31 833.833 1528.64 815.722 1686.76 770.938Z" stroke="url(#paint19_linear_432_5097)" stroke-miterlimit="10"/>
<path d="M1688.17 773.206C1853.19 723.718 1981.18 664.275 1974.03 640.44C1966.88 616.606 1827.31 637.403 1662.28 686.892C1497.26 736.382 1369.27 795.825 1376.42 819.66C1383.57 843.494 1523.14 822.697 1688.17 773.206Z" stroke="url(#paint20_linear_432_5097)" stroke-miterlimit="10"/>
<path d="M1689.57 775.589C1861.39 721.158 1994.25 656.734 1986.32 631.694C1978.39 606.654 1832.67 630.48 1660.85 684.911C1489.03 739.341 1356.17 803.765 1364.1 828.805C1372.03 853.845 1517.75 830.019 1689.57 775.589Z" stroke="url(#paint21_linear_432_5097)" stroke-miterlimit="10"/>
<path d="M1691.28 777.982C1869.76 718.338 2007.26 648.464 1998.38 621.913C1989.51 595.363 1837.63 622.189 1659.15 681.833C1480.67 741.476 1343.18 811.351 1352.05 837.902C1360.92 864.453 1512.8 837.625 1691.28 777.982Z" stroke="url(#paint22_linear_432_5097)" stroke-miterlimit="10"/>
<path d="M1693.2 781.434C1878.38 716.28 2020.45 640.6 2010.53 612.4C2000.61 584.198 1842.45 614.155 1657.26 679.309C1472.08 744.462 1330.01 820.14 1339.93 848.342C1349.85 876.542 1508.02 846.586 1693.2 781.434Z" stroke="url(#paint23_linear_432_5097)" stroke-miterlimit="10"/>
<path d="M1694.99 784.209C1886.54 713.311 2032.87 631.665 2021.84 601.847C2010.8 572.03 1846.57 605.33 1655.02 676.229C1463.48 747.127 1317.14 828.773 1328.18 858.592C1339.22 888.41 1503.44 855.107 1694.99 784.209Z" stroke="url(#paint24_linear_432_5097)" stroke-miterlimit="10"/>
<path d="M1697.64 787.333C1895.57 710.327 2046.01 622.181 2033.67 590.454C2021.32 558.729 1850.87 595.435 1652.94 672.443C1455.01 749.451 1304.57 837.598 1316.91 869.323C1329.26 901.05 1499.72 864.341 1697.64 787.333Z" stroke="url(#paint25_linear_432_5097)" stroke-miterlimit="10"/>
<path d="M1700.19 791.189C1904.15 707.861 2058.31 612.948 2044.53 579.194C2030.73 545.441 1854.21 585.628 1650.25 668.958C1446.29 752.286 1292.13 847.2 1305.92 880.953C1319.71 914.707 1496.23 874.517 1700.19 791.189Z" stroke="url(#paint26_linear_432_5097)" stroke-miterlimit="10"/>
<path d="M1703.04 795.607C1912.84 705.651 2070.38 603.503 2054.92 567.452C2039.46 531.401 1856.86 575.098 1647.06 665.052C1437.26 755.007 1279.72 857.153 1295.18 893.205C1310.63 929.257 1493.24 885.56 1703.04 795.607Z" stroke="url(#paint27_linear_432_5097)" stroke-miterlimit="10"/>
<path d="M1706.29 799.476C1921.39 702.696 2081.8 593.194 2064.57 554.902C2047.34 516.609 1859 564.024 1643.89 660.806C1428.79 757.587 1268.38 867.087 1285.61 905.379C1302.84 943.673 1491.18 896.259 1706.29 799.476Z" stroke="url(#paint28_linear_432_5097)" stroke-miterlimit="10"/>
<path d="M1709.96 804.148C1930.13 700.218 2092.95 582.778 2073.62 541.838C2054.3 500.896 1860.14 551.959 1639.97 655.889C1419.8 759.818 1256.98 877.259 1276.3 918.2C1295.63 959.14 1489.78 908.077 1709.96 804.148Z" stroke="url(#paint29_linear_432_5097)" stroke-miterlimit="10"/>
<path d="M1714.56 809.333C1939.41 697.984 2104.1 572.191 2082.4 528.366C2060.7 484.541 1860.82 539.281 1635.97 650.63C1411.11 761.98 1246.43 887.773 1268.13 931.597C1289.83 975.422 1489.71 920.682 1714.56 809.333Z" stroke="url(#paint30_linear_432_5097)" stroke-miterlimit="10"/>
<path d="M1719.42 814.764C1948.53 695.733 2114.56 561.323 2090.26 514.552C2065.96 467.78 1860.53 526.357 1631.43 645.39C1402.32 764.421 1236.3 898.831 1260.6 945.601C1284.9 992.374 1490.32 933.795 1719.42 814.764Z" stroke="url(#paint31_linear_432_5097)" stroke-miterlimit="10"/>
<path d="M1724.95 821.012C1957.54 694.189 2123.9 550.669 2096.51 500.449C2069.13 450.23 1858.38 512.328 1625.79 639.149C1393.2 765.972 1226.85 909.492 1254.23 959.712C1281.62 1009.93 1492.36 947.834 1724.95 821.012Z" stroke="url(#paint32_linear_432_5097)" stroke-miterlimit="10"/>
<path d="M1730.96 827.501C1966.57 692.627 2132.65 539.766 2101.92 486.075C2071.18 432.384 1855.27 498.197 1619.66 633.071C1384.05 767.944 1217.97 920.805 1248.7 974.496C1279.44 1028.19 1495.35 962.375 1730.96 827.501Z" stroke="url(#paint33_linear_432_5097)" stroke-miterlimit="10"/>
<path d="M1737.69 834.294C1975.65 691.171 2140.47 528.451 2105.82 470.85C2071.18 413.248 1850.19 482.578 1612.23 625.701C1374.27 768.825 1209.45 931.545 1244.1 989.147C1278.74 1046.75 1499.73 977.419 1737.69 834.294Z" stroke="url(#paint34_linear_432_5097)" stroke-miterlimit="10"/>
<path d="M1746 842.535C1985.68 691.002 2148.24 517.955 2109.09 456.026C2069.93 394.097 1843.89 466.736 1604.21 618.271C1364.53 769.806 1201.97 942.851 1241.12 1004.78C1280.28 1066.71 1506.32 994.07 1746 842.535Z" stroke="url(#paint35_linear_432_5097)" stroke-miterlimit="10"/>
<path d="M1755.36 850.697C1995.92 690.657 2155.09 507.034 2110.87 440.562C2066.64 374.091 1835.78 449.944 1595.22 609.984C1354.66 770.023 1195.49 953.646 1239.72 1020.12C1283.94 1086.59 1514.8 1010.74 1755.36 850.697Z" stroke="url(#paint36_linear_432_5097)" stroke-miterlimit="10"/>
<path d="M1766.06 859.642C2006.79 690.948 2161.34 496.261 2111.26 424.792C2061.18 353.323 1825.43 432.139 1584.7 600.832C1343.97 769.523 1189.42 964.213 1239.51 1035.68C1289.59 1107.15 1525.33 1028.33 1766.06 859.642Z" stroke="url(#paint37_linear_432_5097)" stroke-miterlimit="10"/>
<path d="M1777.71 868.943C2017.71 691.578 2166.32 485.608 2109.62 408.898C2052.93 332.187 1812.42 413.782 1572.42 591.148C1332.42 768.512 1183.82 974.48 1240.51 1051.19C1297.2 1127.9 1537.71 1046.31 1777.71 868.943Z" stroke="url(#paint38_linear_432_5097)" stroke-miterlimit="10"/>
<path d="M1791.59 879.778C2030.01 693.762 2171.06 476.04 2106.64 393.48C2042.23 310.922 1796.74 394.791 1558.33 580.807C1319.92 766.822 1178.86 984.546 1243.28 1067.1C1307.69 1149.66 1553.18 1065.79 1791.59 879.778Z" stroke="url(#paint39_linear_432_5097)" stroke-miterlimit="10"/>
<path d="M1807.45 890.559C2043.37 695.91 2175.34 466.262 2102.21 377.624C2029.08 288.987 1778.54 374.925 1542.62 569.575C1306.7 764.222 1174.73 993.872 1247.86 1082.51C1320.99 1171.15 1571.53 1085.21 1807.45 890.559Z" stroke="url(#paint40_linear_432_5097)" stroke-miterlimit="10"/>
<path d="M1825.73 902.732C2058.27 699.566 2179.32 457.648 2096.09 362.394C2012.87 267.138 1756.89 354.618 1524.35 557.784C1291.81 760.95 1170.76 1002.87 1253.99 1098.12C1337.21 1193.38 1593.18 1105.9 1825.73 902.732Z" stroke="url(#paint41_linear_432_5097)" stroke-miterlimit="10"/>
<path d="M1846.79 915.384C2075.05 703.831 2183.25 449.422 2088.46 347.142C1993.66 244.862 1731.78 333.444 1503.52 544.995C1275.26 756.546 1167.06 1010.96 1261.86 1113.24C1356.65 1215.52 1618.53 1126.94 1846.79 915.384Z" stroke="url(#paint42_linear_432_5097)" stroke-miterlimit="10"/>
<path d="M1870.52 928.611C2093.71 708.771 2187.06 441.635 2079.02 331.948C1970.97 222.262 1702.46 311.559 1479.27 531.401C1256.08 751.243 1162.73 1018.38 1270.77 1128.06C1378.81 1237.75 1647.33 1148.45 1870.52 928.611Z" stroke="url(#paint43_linear_432_5097)" stroke-miterlimit="10"/>
<path d="M1898.21 942.875C2115.49 715.018 2191.77 435.079 2068.59 317.615C1945.41 200.15 1669.41 289.64 1452.13 517.497C1234.85 745.354 1158.57 1025.29 1281.75 1142.76C1404.93 1260.22 1680.93 1170.73 1898.21 942.875Z" stroke="url(#paint44_linear_432_5097)" stroke-miterlimit="10"/>
<path d="M1929.41 957.403C2139.91 721.879 2196.7 429.198 2056.26 303.68C1915.82 178.164 1631.33 267.344 1420.83 502.869C1210.33 738.393 1153.54 1031.07 1293.98 1156.59C1434.42 1282.11 1718.91 1192.93 1929.41 957.403Z" stroke="url(#paint45_linear_432_5097)" stroke-miterlimit="10"/>
<path d="M1965.24 972.82C2168.38 729.803 2203.12 424.182 2042.83 290.195C1882.55 156.208 1587.93 244.593 1384.79 487.609C1181.65 730.628 1146.91 1036.25 1307.19 1170.24C1467.48 1304.22 1762.1 1215.84 1965.24 972.82Z" stroke="url(#paint46_linear_432_5097)" stroke-miterlimit="10"/>
<path d="M2006.08 988.045C2201.21 737.875 2211.28 419.531 2028.56 277.004C1845.84 134.477 1539.52 221.738 1344.38 471.908C1149.25 722.076 1139.18 1040.42 1321.9 1182.95C1504.62 1325.47 1810.94 1238.21 2006.08 988.045Z" stroke="url(#paint47_linear_432_5097)" stroke-miterlimit="10"/>
<path d="M2051.83 1003.81C2238.35 746.96 2220.78 416.185 2012.59 265C1804.41 113.814 1484.43 199.467 1297.91 456.311C1111.39 713.156 1128.96 1043.93 1337.14 1195.12C1545.33 1346.3 1865.31 1260.65 2051.83 1003.81Z" stroke="url(#paint48_linear_432_5097)" stroke-miterlimit="10"/>
<path d="M2104.38 1019.45C2281.99 756.122 2233.88 413.086 1996.92 253.255C1759.95 93.423 1423.87 177.318 1246.26 440.642C1068.65 703.965 1116.76 1047 1353.72 1206.83C1590.68 1366.66 1926.77 1282.77 2104.38 1019.45Z" stroke="url(#paint49_linear_432_5097)" stroke-miterlimit="10"/>
<path d="M1387.64 1228.23C1662.7 1387.04 2014.42 1292.8 2173.23 1017.73C2332.03 742.673 2237.79 390.953 1962.73 232.147C1687.67 73.3412 1335.95 167.583 1177.14 442.644C1018.34 717.705 1112.58 1069.42 1387.64 1228.23Z" stroke="url(#paint50_linear_432_5097)" stroke-miterlimit="10"/>
</g>
<g opacity="0.05">
<path d="M325.872 708.831C269.13 706.831 222.794 714.794 222.378 726.616C221.961 738.436 267.622 749.64 324.362 751.639C381.105 753.639 427.44 745.676 427.856 733.854C428.273 722.034 382.612 710.831 325.872 708.831Z" stroke="url(#paint51_linear_432_5097)" stroke-miterlimit="10"/>
<path d="M325.443 708.027C264.139 707.074 214.288 716.21 214.098 728.433C213.908 740.653 263.45 751.332 324.754 752.285C386.058 753.236 435.908 744.102 436.099 731.88C436.289 719.659 386.747 708.978 325.443 708.027Z" stroke="url(#paint52_linear_432_5097)" stroke-miterlimit="10"/>
<path d="M324.735 707.26C258.493 707.494 204.829 717.913 204.875 730.532C204.919 743.148 258.655 753.187 324.897 752.953C391.139 752.716 444.803 742.298 444.759 729.681C444.715 717.062 390.977 707.026 324.735 707.26Z" stroke="url(#paint53_linear_432_5097)" stroke-miterlimit="10"/>
<path d="M324.899 706.616C253.554 708.185 195.949 720.001 196.235 733.009C196.522 746.018 254.589 755.289 325.934 753.722C397.278 752.153 454.883 740.337 454.597 727.328C454.312 714.321 396.243 705.049 324.899 706.616Z" stroke="url(#paint54_linear_432_5097)" stroke-miterlimit="10"/>
<path d="M324.095 705.745C247.466 708.805 185.78 722.146 186.316 735.542C186.85 748.937 249.403 757.314 326.033 754.252C402.662 751.189 464.346 737.848 463.812 724.454C463.277 711.059 400.722 702.682 324.095 705.745Z" stroke="url(#paint55_linear_432_5097)" stroke-miterlimit="10"/>
<path d="M323.665 705.3C241.397 710.032 175.347 725.035 176.14 738.812C176.931 752.588 244.266 759.922 326.534 755.19C408.803 750.46 474.853 735.458 474.061 721.68C473.268 707.902 405.935 700.57 323.665 705.3Z" stroke="url(#paint56_linear_432_5097)" stroke-miterlimit="10"/>
<path d="M323.577 704.227C235.508 710.795 164.982 727.753 166.051 742.103C167.122 756.453 239.383 762.763 327.454 756.195C415.523 749.626 486.049 732.667 484.98 718.317C483.909 703.967 411.647 697.657 323.577 704.227Z" stroke="url(#paint57_linear_432_5097)" stroke-miterlimit="10"/>
<path d="M322.989 703.274C228.759 711.884 153.475 730.958 154.839 745.878C156.202 760.797 233.695 765.913 327.925 757.302C422.155 748.693 497.437 729.619 496.074 714.698C494.711 699.779 417.219 694.665 322.989 703.274Z" stroke="url(#paint58_linear_432_5097)" stroke-miterlimit="10"/>
<path d="M322.127 702.282C221.776 713.107 141.778 734.435 143.448 749.921C145.119 765.404 227.825 769.181 328.176 758.354C428.529 747.528 508.527 726.2 506.856 710.715C505.187 695.232 422.48 691.455 322.127 702.282Z" stroke="url(#paint59_linear_432_5097)" stroke-miterlimit="10"/>
<path d="M321.716 700.809C214.898 714.058 129.916 737.802 131.905 753.846C133.895 769.887 222.104 772.153 328.923 758.904C435.743 745.655 520.723 721.908 518.734 705.867C516.744 689.823 428.537 687.559 321.716 700.809Z" stroke="url(#paint60_linear_432_5097)" stroke-miterlimit="10"/>
<path d="M320.532 699.693C206.902 715.618 116.691 742.141 119.045 758.931C121.399 775.721 215.423 776.424 329.055 760.498C442.686 744.573 532.896 718.05 530.542 701.26C528.188 684.47 434.164 683.767 320.532 699.693Z" stroke="url(#paint61_linear_432_5097)" stroke-miterlimit="10"/>
<path d="M320.39 698.291C200.016 717.069 104.651 746.502 107.385 764.033C110.12 781.562 209.918 780.551 330.293 761.773C450.667 742.995 546.034 713.562 543.299 696.031C540.565 678.5 440.764 679.513 320.39 698.291Z" stroke="url(#paint62_linear_432_5097)" stroke-miterlimit="10"/>
<path d="M319.826 697.281C192.378 719.182 91.6046 751.737 94.7432 770.001C97.8819 788.262 203.742 785.314 331.19 763.415C458.638 741.517 559.41 708.959 556.273 690.697C553.134 672.434 447.274 675.382 319.826 697.281Z" stroke="url(#paint63_linear_432_5097)" stroke-miterlimit="10"/>
<path d="M318.664 695.944C183.999 721.203 77.7212 757.076 81.2822 776.064C84.8453 795.052 196.898 789.967 331.563 764.706C466.225 739.447 572.505 703.574 568.942 684.586C565.381 665.598 453.326 670.682 318.664 695.944Z" stroke="url(#paint64_linear_432_5097)" stroke-miterlimit="10"/>
<path d="M317.756 693.996C175.565 722.899 63.5764 762.458 67.6219 782.357C71.6653 802.256 190.212 794.958 332.403 766.057C474.593 737.155 586.584 697.595 582.539 677.696C578.493 657.797 459.947 665.096 317.756 693.996Z" stroke="url(#paint65_linear_432_5097)" stroke-miterlimit="10"/>
<path d="M316.927 692.105C167.298 724.875 49.7258 768.458 54.3217 789.448C58.9196 810.437 183.944 800.889 333.575 768.117C483.204 735.348 600.775 691.765 596.179 670.775C591.582 649.783 466.556 659.333 316.927 692.105Z" stroke="url(#paint66_linear_432_5097)" stroke-miterlimit="10"/>
<path d="M315.512 690.17C158.325 727.087 35.1023 774.908 40.2867 796.979C45.4691 819.049 177.097 807.015 334.286 770.098C491.474 733.179 614.696 685.36 609.512 663.287C604.329 641.217 472.7 653.251 315.512 690.17Z" stroke="url(#paint67_linear_432_5097)" stroke-miterlimit="10"/>
<path d="M314.391 688.28C149.555 729.625 20.6337 781.898 26.4386 805.035C32.2415 828.175 170.571 813.416 335.407 772.071C500.243 730.728 629.166 678.456 623.361 655.316C617.558 632.178 479.227 646.937 314.391 688.28Z" stroke="url(#paint68_linear_432_5097)" stroke-miterlimit="10"/>
<path d="M313.537 685.882C140.78 731.987 6.00949 789.129 12.515 813.508C19.0225 837.889 164.344 820.276 337.101 774.169C509.857 728.063 644.63 670.921 638.122 646.542C631.614 622.162 486.293 639.775 313.537 685.882Z" stroke="url(#paint69_linear_432_5097)" stroke-miterlimit="10"/>
<path d="M311.981 683.699C131.596 734.793 -8.75674 796.971 -1.50459 822.577C5.74957 848.185 157.861 827.523 338.248 776.43C518.633 725.338 658.986 663.16 651.734 637.554C644.48 611.946 492.369 632.608 311.981 683.699Z" stroke="url(#paint70_linear_432_5097)" stroke-miterlimit="10"/>
<path d="M310.372 681.111C122.108 737.569 -23.8996 805.382 -15.7447 832.573C-7.58976 859.764 151.639 836.038 339.903 779.58C528.167 723.12 674.175 655.307 666.02 628.116C657.865 600.925 498.636 624.651 310.372 681.111Z" stroke="url(#paint71_linear_432_5097)" stroke-miterlimit="10"/>
<path d="M308.772 678.392C112.754 740.489 -38.8131 813.986 -29.7634 842.552C-20.7157 871.118 145.525 843.937 341.542 781.84C537.56 719.746 689.127 646.249 680.079 617.683C671.029 589.117 504.788 616.298 308.772 678.392Z" stroke="url(#paint72_linear_432_5097)" stroke-miterlimit="10"/>
<path d="M306.819 675.663C103.206 743.706 -53.6511 823.42 -43.5285 853.71C-33.408 883.999 139.861 853.395 343.474 785.352C547.089 717.31 703.946 637.594 693.823 607.304C683.703 577.015 510.434 607.621 306.819 675.663Z" stroke="url(#paint73_linear_432_5097)" stroke-miterlimit="10"/>
<path d="M304.64 671.725C93.3812 746.054 -68.7024 832.391 -57.3828 864.562C-46.0632 896.736 134.372 862.561 345.631 788.232C556.891 713.903 718.972 627.567 707.653 595.394C696.333 563.223 515.898 597.398 304.64 671.725Z" stroke="url(#paint74_linear_432_5097)" stroke-miterlimit="10"/>
<path d="M302.595 668.559C84.0736 749.441 -82.8681 842.584 -70.2774 876.601C-57.6868 910.618 129.668 872.628 348.192 791.745C566.713 710.863 733.655 617.719 721.064 583.701C708.473 549.684 521.118 587.676 302.595 668.559Z" stroke="url(#paint75_linear_432_5097)" stroke-miterlimit="10"/>
<path d="M299.568 664.995C73.77 752.846 -97.8597 853.405 -83.7778 889.6C-69.6958 925.793 124.765 883.917 350.563 796.064C576.363 708.212 747.992 607.653 733.91 571.46C719.828 535.265 525.365 577.143 299.568 664.995Z" stroke="url(#paint76_linear_432_5097)" stroke-miterlimit="10"/>
<path d="M296.655 660.594C63.9717 755.656 -111.902 863.936 -96.1702 902.443C-80.4369 940.949 120.942 895.103 353.625 800.038C586.309 704.975 762.182 596.695 746.451 558.189C730.72 519.682 529.339 565.531 296.655 660.594Z" stroke="url(#paint77_linear_432_5097)" stroke-miterlimit="10"/>
<path d="M293.412 655.556C54.0712 758.179 -125.659 874.712 -108.024 915.841C-90.3894 956.968 117.931 907.118 357.272 804.497C596.616 701.874 776.344 585.343 758.711 544.214C741.076 503.085 532.755 552.935 293.412 655.556Z" stroke="url(#paint78_linear_432_5097)" stroke-miterlimit="10"/>
<path d="M289.707 651.142C44.3104 761.552 -138.687 886.474 -119.03 930.159C-99.3755 973.844 115.491 919.752 360.885 809.34C606.279 698.931 789.277 574.01 769.622 530.325C749.965 486.638 535.101 540.73 289.707 651.142Z" stroke="url(#paint79_linear_432_5097)" stroke-miterlimit="10"/>
<path d="M285.524 645.811C34.3443 764.377 -151.403 898.355 -129.357 945.06C-107.31 991.768 114.184 933.515 365.363 814.948C616.54 696.383 802.29 562.404 780.243 515.698C758.195 468.992 536.703 527.246 285.524 645.811Z" stroke="url(#paint80_linear_432_5097)" stroke-miterlimit="10"/>
<path d="M280.265 639.898C23.7455 766.928 -164.134 910.435 -139.375 960.432C-114.616 1010.43 113.406 947.979 369.923 820.949C626.443 693.92 814.322 550.412 789.563 500.415C764.804 450.419 536.785 512.868 280.265 639.898Z" stroke="url(#paint81_linear_432_5097)" stroke-miterlimit="10"/>
<path d="M274.716 633.701C13.3478 769.494 -176.061 922.832 -148.337 976.189C-120.616 1029.55 113.739 962.722 375.107 826.927C636.475 691.133 825.881 537.795 798.16 484.438C770.436 431.079 536.083 497.907 274.716 633.701Z" stroke="url(#paint82_linear_432_5097)" stroke-miterlimit="10"/>
<path d="M268.407 626.574C3.06375 771.257 -186.715 934.988 -155.475 992.28C-124.236 1049.57 116.19 978.729 381.535 834.048C646.878 689.365 836.655 525.634 805.417 468.342C774.178 411.049 533.75 481.893 268.407 626.574Z" stroke="url(#paint83_linear_432_5097)" stroke-miterlimit="10"/>
<path d="M261.553 619.171C-7.23471 773.037 -196.705 947.425 -161.642 1008.68C-126.578 1069.93 119.741 994.848 388.529 840.981C657.317 687.114 846.788 512.726 811.724 451.474C776.663 390.222 530.341 465.302 261.553 619.171Z" stroke="url(#paint84_linear_432_5097)" stroke-miterlimit="10"/>
<path d="M253.876 611.421C-17.5926 774.699 -205.62 960.335 -166.097 1026.05C-126.571 1091.76 125.537 1012.67 397.005 849.389C668.474 686.11 856.503 500.474 816.978 434.761C777.454 369.047 525.344 448.14 253.876 611.421Z" stroke="url(#paint85_linear_432_5097)" stroke-miterlimit="10"/>
<path d="M244.403 602.02C-29.0327 774.893 -214.486 972.308 -169.818 1042.96C-125.15 1113.61 132.721 1030.74 406.157 857.865C679.593 684.991 865.044 487.577 820.378 416.927C775.71 346.277 517.837 429.145 244.403 602.02Z" stroke="url(#paint86_linear_432_5097)" stroke-miterlimit="10"/>
<path d="M233.717 592.708C-40.7214 775.285 -222.3 984.766 -171.851 1060.6C-121.402 1136.43 141.972 1049.9 416.409 867.319C690.847 684.742 872.428 475.26 821.979 399.43C771.53 323.597 508.156 410.131 233.717 592.708Z" stroke="url(#paint87_linear_432_5097)" stroke-miterlimit="10"/>
<path d="M221.509 582.504C-53.1204 774.954 -229.432 997.058 -172.298 1078.59C-115.163 1160.12 153.783 1070.21 428.412 877.761C703.041 685.314 879.353 463.207 822.219 381.676C765.084 300.143 496.138 390.057 221.509 582.504Z" stroke="url(#paint88_linear_432_5097)" stroke-miterlimit="10"/>
<path d="M208.222 571.893C-65.5762 774.235 -235.104 1009.21 -170.429 1096.72C-105.754 1184.24 168.631 1091.15 442.429 888.808C716.227 686.466 885.755 451.493 821.08 363.979C756.405 276.465 482.021 369.551 208.222 571.893Z" stroke="url(#paint89_linear_432_5097)" stroke-miterlimit="10"/>
<path d="M192.383 559.529C-79.6043 771.741 -240.521 1020.12 -167.034 1114.31C-93.5501 1208.49 186.512 1112.81 458.498 900.603C730.483 688.393 891.4 440.008 817.913 345.824C744.429 251.638 464.367 347.319 192.383 559.529Z" stroke="url(#paint90_linear_432_5097)" stroke-miterlimit="10"/>
<path d="M174.289 547.231C-94.8573 769.292 -245.409 1031.28 -161.98 1132.4C-78.5515 1233.52 207.267 1135.48 476.414 913.418C745.56 691.36 896.114 429.369 812.685 328.249C729.256 227.13 443.436 325.171 174.289 547.231Z" stroke="url(#paint91_linear_432_5097)" stroke-miterlimit="10"/>
<path d="M153.447 533.345C-111.842 765.122 -249.937 1041.11 -154.995 1149.78C-60.0543 1258.45 231.972 1158.65 497.261 926.871C762.55 695.094 900.645 419.108 805.702 310.44C710.762 201.769 418.736 301.568 153.447 533.345Z" stroke="url(#paint92_linear_432_5097)" stroke-miterlimit="10"/>
<path d="M129.409 518.911C-130.994 760.256 -254.429 1050.49 -146.285 1167.18C-38.1432 1283.86 260.622 1182.8 521.027 941.46C781.43 700.117 904.865 409.879 796.721 293.196C688.58 176.513 389.814 277.569 129.409 518.911Z" stroke="url(#paint93_linear_432_5097)" stroke-miterlimit="10"/>
<path d="M102.344 503.821C-152.276 754.62 -258.766 1059.37 -135.512 1184.51C-12.255 1309.64 294.075 1207.77 548.695 956.968C803.315 706.167 909.806 401.412 786.551 276.28C663.294 151.146 356.964 253.02 102.344 503.821Z" stroke="url(#paint94_linear_432_5097)" stroke-miterlimit="10"/>
<path d="M70.7513 487.549C-177.127 747.494 -264.149 1066.85 -123.62 1200.86C16.9096 1334.87 331.777 1232.78 579.655 972.831C827.532 712.886 914.555 393.525 774.026 259.517C633.495 125.512 318.63 227.604 70.7513 487.549Z" stroke="url(#paint95_linear_432_5097)" stroke-miterlimit="10"/>
<path d="M35.1637 470.977C-204.978 739.669 -269.771 1073.57 -109.555 1216.76C50.6609 1359.95 375.214 1258.21 615.358 989.521C855.5 720.829 920.293 386.931 760.077 243.738C599.861 100.546 275.308 202.285 35.1637 470.977Z" stroke="url(#paint96_linear_432_5097)" stroke-miterlimit="10"/>
<path d="M-5.71417 453.386C-237.463 730.626 -277.094 1079.29 -94.2353 1232.14C88.6239 1385 424.731 1284.17 656.48 1006.93C888.229 729.685 927.862 381.025 745.001 228.169C562.142 75.3135 226.035 176.147 -5.71417 453.386Z" stroke="url(#paint97_linear_432_5097)" stroke-miterlimit="10"/>
<path d="M-52.3025 436.017C-274.921 721.418 -286.403 1084.59 -77.9503 1247.19C130.503 1409.79 479.955 1310.24 702.572 1024.84C925.191 739.441 936.675 376.267 728.22 213.669C519.767 51.0707 170.314 150.619 -52.3025 436.017Z" stroke="url(#paint98_linear_432_5097)" stroke-miterlimit="10"/>
<path d="M-104.496 418.039C-317.285 711.053 -297.246 1088.41 -59.7381 1260.89C177.768 1433.36 542.803 1335.65 755.59 1042.63C968.377 749.618 948.338 372.262 710.832 199.785C473.324 27.309 108.291 125.024 -104.496 418.039Z" stroke="url(#paint99_linear_432_5097)" stroke-miterlimit="10"/>
<path d="M-164.448 400.198C-367.072 700.602 -312.185 1091.95 -41.8539 1274.29C228.48 1456.63 611.887 1360.92 814.511 1060.51C1017.14 760.105 962.248 368.763 691.917 186.422C421.585 4.0814 38.1761 99.7926 -164.448 400.198Z" stroke="url(#paint100_linear_432_5097)" stroke-miterlimit="10"/>
<path d="M653.223 162.008C339.427 -19.1639 -61.8218 88.3514 -242.994 402.148C-424.163 715.944 -316.648 1117.19 -2.85173 1298.36C310.945 1479.53 712.193 1372.02 893.365 1058.22C1074.53 744.428 967.019 343.178 653.223 162.008Z" stroke="url(#paint101_linear_432_5097)" stroke-miterlimit="10"/>
</g>
</g>
<line opacity="0.2" y1="747.5" x2="1920" y2="747.5" stroke="url(#paint102_linear_432_5097)"/>
</g>
</g>
<defs>
<linearGradient id="paint0_linear_432_5097" x1="1675.91" y1="711.384" x2="1674.58" y2="748.908" gradientUnits="userSpaceOnUse">
<stop stop-color="#634A4A"/>
<stop offset="1" stop-color="#2F2929"/>
</linearGradient>
<linearGradient id="paint1_linear_432_5097" x1="1675.57" y1="710.818" x2="1674.96" y2="749.612" gradientUnits="userSpaceOnUse">
<stop stop-color="#634A4A"/>
<stop offset="1" stop-color="#2F2929"/>
</linearGradient>
<linearGradient id="paint2_linear_432_5097" x1="1675.44" y1="710.233" x2="1675.58" y2="750.286" gradientUnits="userSpaceOnUse">
<stop stop-color="#634A4A"/>
<stop offset="1" stop-color="#2F2929"/>
</linearGradient>
<linearGradient id="paint3_linear_432_5097" x1="1674.53" y1="709.559" x2="1675.44" y2="750.851" gradientUnits="userSpaceOnUse">
<stop stop-color="#634A4A"/>
<stop offset="1" stop-color="#2F2929"/>
</linearGradient>
<linearGradient id="paint4_linear_432_5097" x1="1674.44" y1="709.093" x2="1676.14" y2="751.613" gradientUnits="userSpaceOnUse">
<stop stop-color="#634A4A"/>
<stop offset="1" stop-color="#2F2929"/>
</linearGradient>
<linearGradient id="paint5_linear_432_5097" x1="1674" y1="708.273" x2="1676.52" y2="752.004" gradientUnits="userSpaceOnUse">
<stop stop-color="#634A4A"/>
<stop offset="1" stop-color="#2F2929"/>
</linearGradient>
<linearGradient id="paint6_linear_432_5097" x1="1673.2" y1="707.39" x2="1676.6" y2="752.944" gradientUnits="userSpaceOnUse">
<stop stop-color="#634A4A"/>
<stop offset="1" stop-color="#2F2929"/>
</linearGradient>
<linearGradient id="paint7_linear_432_5097" x1="1672.79" y1="706.42" x2="1677.11" y2="753.779" gradientUnits="userSpaceOnUse">
<stop stop-color="#634A4A"/>
<stop offset="1" stop-color="#2F2929"/>
</linearGradient>
<linearGradient id="paint8_linear_432_5097" x1="1672.56" y1="705.498" x2="1677.86" y2="754.648" gradientUnits="userSpaceOnUse">
<stop stop-color="#634A4A"/>
<stop offset="1" stop-color="#2F2929"/>
</linearGradient>
<linearGradient id="paint9_linear_432_5097" x1="1671.91" y1="705.016" x2="1678.23" y2="755.94" gradientUnits="userSpaceOnUse">
<stop stop-color="#634A4A"/>
<stop offset="1" stop-color="#2F2929"/>
</linearGradient>
<linearGradient id="paint10_linear_432_5097" x1="1671.8" y1="703.618" x2="1679.27" y2="756.918" gradientUnits="userSpaceOnUse">
<stop stop-color="#634A4A"/>
<stop offset="1" stop-color="#2F2929"/>
</linearGradient>
<linearGradient id="paint11_linear_432_5097" x1="1670.71" y1="702.502" x2="1679.39" y2="758.148" gradientUnits="userSpaceOnUse">
<stop stop-color="#634A4A"/>
<stop offset="1" stop-color="#2F2929"/>
</linearGradient>
<linearGradient id="paint12_linear_432_5097" x1="1669.92" y1="701.062" x2="1679.88" y2="759.032" gradientUnits="userSpaceOnUse">
<stop stop-color="#634A4A"/>
<stop offset="1" stop-color="#2F2929"/>
</linearGradient>
<linearGradient id="paint13_linear_432_5097" x1="1669.6" y1="699.93" x2="1680.9" y2="760.204" gradientUnits="userSpaceOnUse">
<stop stop-color="#634A4A"/>
<stop offset="1" stop-color="#2F2929"/>
</linearGradient>
<linearGradient id="paint14_linear_432_5097" x1="1668.86" y1="698.746" x2="1681.7" y2="761.911" gradientUnits="userSpaceOnUse">
<stop stop-color="#634A4A"/>
<stop offset="1" stop-color="#2F2929"/>
</linearGradient>
<linearGradient id="paint15_linear_432_5097" x1="1667.83" y1="696.94" x2="1682.42" y2="763.569" gradientUnits="userSpaceOnUse">
<stop stop-color="#634A4A"/>
<stop offset="1" stop-color="#2F2929"/>
</linearGradient>
<linearGradient id="paint16_linear_432_5097" x1="1667.21" y1="695.204" x2="1683.66" y2="765.266" gradientUnits="userSpaceOnUse">
<stop stop-color="#634A4A"/>
<stop offset="1" stop-color="#2F2929"/>
</linearGradient>
<linearGradient id="paint17_linear_432_5097" x1="1666.22" y1="693.475" x2="1684.65" y2="766.923" gradientUnits="userSpaceOnUse">
<stop stop-color="#634A4A"/>
<stop offset="1" stop-color="#2F2929"/>
</linearGradient>
<linearGradient id="paint18_linear_432_5097" x1="1664.74" y1="691.635" x2="1685.4" y2="769.024" gradientUnits="userSpaceOnUse">
<stop stop-color="#634A4A"/>
<stop offset="1" stop-color="#2F2929"/>
</linearGradient>
<linearGradient id="paint19_linear_432_5097" x1="1663.74" y1="689.654" x2="1686.76" y2="770.938" gradientUnits="userSpaceOnUse">
<stop stop-color="#634A4A"/>
<stop offset="1" stop-color="#2F2929"/>
</linearGradient>
<linearGradient id="paint20_linear_432_5097" x1="1662.28" y1="686.892" x2="1688.17" y2="773.206" gradientUnits="userSpaceOnUse">
<stop stop-color="#634A4A"/>
<stop offset="1" stop-color="#2F2929"/>
</linearGradient>
<linearGradient id="paint21_linear_432_5097" x1="1660.85" y1="684.911" x2="1689.57" y2="775.589" gradientUnits="userSpaceOnUse">
<stop stop-color="#634A4A"/>
<stop offset="1" stop-color="#2F2929"/>
</linearGradient>
<linearGradient id="paint22_linear_432_5097" x1="1659.15" y1="681.833" x2="1691.28" y2="777.982" gradientUnits="userSpaceOnUse">
<stop stop-color="#634A4A"/>
<stop offset="1" stop-color="#2F2929"/>
</linearGradient>
<linearGradient id="paint23_linear_432_5097" x1="1657.26" y1="679.309" x2="1693.2" y2="781.434" gradientUnits="userSpaceOnUse">
<stop stop-color="#634A4A"/>
<stop offset="1" stop-color="#2F2929"/>
</linearGradient>
<linearGradient id="paint24_linear_432_5097" x1="1655.02" y1="676.229" x2="1694.99" y2="784.209" gradientUnits="userSpaceOnUse">
<stop stop-color="#634A4A"/>
<stop offset="1" stop-color="#2F2929"/>
</linearGradient>
<linearGradient id="paint25_linear_432_5097" x1="1652.94" y1="672.443" x2="1697.64" y2="787.333" gradientUnits="userSpaceOnUse">
<stop stop-color="#634A4A"/>
<stop offset="1" stop-color="#2F2929"/>
</linearGradient>
<linearGradient id="paint26_linear_432_5097" x1="1650.25" y1="668.958" x2="1700.19" y2="791.189" gradientUnits="userSpaceOnUse">
<stop stop-color="#634A4A"/>
<stop offset="1" stop-color="#2F2929"/>
</linearGradient>
<linearGradient id="paint27_linear_432_5097" x1="1647.06" y1="665.052" x2="1703.04" y2="795.607" gradientUnits="userSpaceOnUse">
<stop stop-color="#634A4A"/>
<stop offset="1" stop-color="#2F2929"/>
</linearGradient>
<linearGradient id="paint28_linear_432_5097" x1="1643.89" y1="660.806" x2="1706.29" y2="799.476" gradientUnits="userSpaceOnUse">
<stop stop-color="#634A4A"/>
<stop offset="1" stop-color="#2F2929"/>
</linearGradient>
<linearGradient id="paint29_linear_432_5097" x1="1639.97" y1="655.889" x2="1709.96" y2="804.148" gradientUnits="userSpaceOnUse">
<stop stop-color="#634A4A"/>
<stop offset="1" stop-color="#2F2929"/>
</linearGradient>
<linearGradient id="paint30_linear_432_5097" x1="1635.97" y1="650.63" x2="1714.56" y2="809.333" gradientUnits="userSpaceOnUse">
<stop stop-color="#634A4A"/>
<stop offset="1" stop-color="#2F2929"/>
</linearGradient>
<linearGradient id="paint31_linear_432_5097" x1="1631.43" y1="645.39" x2="1719.42" y2="814.764" gradientUnits="userSpaceOnUse">
<stop stop-color="#634A4A"/>
<stop offset="1" stop-color="#2F2929"/>
</linearGradient>
<linearGradient id="paint32_linear_432_5097" x1="1625.79" y1="639.151" x2="1724.95" y2="821.012" gradientUnits="userSpaceOnUse">
<stop stop-color="#634A4A"/>
<stop offset="1" stop-color="#2F2929"/>
</linearGradient>
<linearGradient id="paint33_linear_432_5097" x1="1619.66" y1="633.071" x2="1730.96" y2="827.501" gradientUnits="userSpaceOnUse">
<stop stop-color="#634A4A"/>
<stop offset="1" stop-color="#2F2929"/>
</linearGradient>
<linearGradient id="paint34_linear_432_5097" x1="1612.23" y1="625.701" x2="1737.69" y2="834.294" gradientUnits="userSpaceOnUse">
<stop stop-color="#634A4A"/>
<stop offset="1" stop-color="#2F2929"/>
</linearGradient>
<linearGradient id="paint35_linear_432_5097" x1="1604.21" y1="618.271" x2="1746" y2="842.535" gradientUnits="userSpaceOnUse">
<stop stop-color="#634A4A"/>
<stop offset="1" stop-color="#2F2929"/>
</linearGradient>
<linearGradient id="paint36_linear_432_5097" x1="1595.22" y1="609.984" x2="1755.36" y2="850.697" gradientUnits="userSpaceOnUse">
<stop stop-color="#634A4A"/>
<stop offset="1" stop-color="#2F2929"/>
</linearGradient>
<linearGradient id="paint37_linear_432_5097" x1="1584.7" y1="600.832" x2="1766.06" y2="859.642" gradientUnits="userSpaceOnUse">
<stop stop-color="#634A4A"/>
<stop offset="1" stop-color="#2F2929"/>
</linearGradient>
<linearGradient id="paint38_linear_432_5097" x1="1572.42" y1="591.148" x2="1777.71" y2="868.943" gradientUnits="userSpaceOnUse">
<stop stop-color="#634A4A"/>
<stop offset="1" stop-color="#2F2929"/>
</linearGradient>
<linearGradient id="paint39_linear_432_5097" x1="1558.33" y1="580.807" x2="1791.59" y2="879.778" gradientUnits="userSpaceOnUse">
<stop stop-color="#634A4A"/>
<stop offset="1" stop-color="#2F2929"/>
</linearGradient>
<linearGradient id="paint40_linear_432_5097" x1="1542.62" y1="569.575" x2="1807.45" y2="890.559" gradientUnits="userSpaceOnUse">
<stop stop-color="#634A4A"/>
<stop offset="1" stop-color="#2F2929"/>
</linearGradient>
<linearGradient id="paint41_linear_432_5097" x1="1524.35" y1="557.784" x2="1825.73" y2="902.732" gradientUnits="userSpaceOnUse">
<stop stop-color="#634A4A"/>
<stop offset="1" stop-color="#2F2929"/>
</linearGradient>
<linearGradient id="paint42_linear_432_5097" x1="1503.52" y1="544.995" x2="1846.79" y2="915.384" gradientUnits="userSpaceOnUse">
<stop stop-color="#634A4A"/>
<stop offset="1" stop-color="#2F2929"/>
</linearGradient>
<linearGradient id="paint43_linear_432_5097" x1="1479.27" y1="531.401" x2="1870.52" y2="928.611" gradientUnits="userSpaceOnUse">
<stop stop-color="#634A4A"/>
<stop offset="1" stop-color="#2F2929"/>
</linearGradient>
<linearGradient id="paint44_linear_432_5097" x1="1452.13" y1="517.499" x2="1898.21" y2="942.875" gradientUnits="userSpaceOnUse">
<stop stop-color="#634A4A"/>
<stop offset="1" stop-color="#2F2929"/>
</linearGradient>
<linearGradient id="paint45_linear_432_5097" x1="1420.83" y1="502.869" x2="1929.41" y2="957.403" gradientUnits="userSpaceOnUse">
<stop stop-color="#634A4A"/>
<stop offset="1" stop-color="#2F2929"/>
</linearGradient>
<linearGradient id="paint46_linear_432_5097" x1="1384.79" y1="487.611" x2="1965.24" y2="972.82" gradientUnits="userSpaceOnUse">
<stop stop-color="#634A4A"/>
<stop offset="1" stop-color="#2F2929"/>
</linearGradient>
<linearGradient id="paint47_linear_432_5097" x1="1344.38" y1="471.908" x2="2006.08" y2="988.045" gradientUnits="userSpaceOnUse">
<stop stop-color="#634A4A"/>
<stop offset="1" stop-color="#2F2929"/>
</linearGradient>
<linearGradient id="paint48_linear_432_5097" x1="1297.91" y1="456.311" x2="2051.83" y2="1003.81" gradientUnits="userSpaceOnUse">
<stop stop-color="#634A4A"/>
<stop offset="1" stop-color="#2F2929"/>
</linearGradient>
<linearGradient id="paint49_linear_432_5097" x1="1246.26" y1="440.642" x2="2104.38" y2="1019.45" gradientUnits="userSpaceOnUse">
<stop stop-color="#634A4A"/>
<stop offset="1" stop-color="#2F2929"/>
</linearGradient>
<linearGradient id="paint50_linear_432_5097" x1="1962.73" y1="232.147" x2="1387.64" y2="1228.23" gradientUnits="userSpaceOnUse">
<stop stop-color="#634A4A"/>
<stop offset="1" stop-color="#2F2929"/>
</linearGradient>
<linearGradient id="paint51_linear_432_5097" x1="324.362" y1="751.639" x2="325.872" y2="708.831" gradientUnits="userSpaceOnUse">
<stop stop-color="#634A4A"/>
<stop offset="1" stop-color="#2F2929"/>
</linearGradient>
<linearGradient id="paint52_linear_432_5097" x1="324.754" y1="752.285" x2="325.443" y2="708.027" gradientUnits="userSpaceOnUse">
<stop stop-color="#634A4A"/>
<stop offset="1" stop-color="#2F2929"/>
</linearGradient>
<linearGradient id="paint53_linear_432_5097" x1="324.897" y1="752.953" x2="324.735" y2="707.26" gradientUnits="userSpaceOnUse">
<stop stop-color="#634A4A"/>
<stop offset="1" stop-color="#2F2929"/>
</linearGradient>
<linearGradient id="paint54_linear_432_5097" x1="325.933" y1="753.722" x2="324.899" y2="706.616" gradientUnits="userSpaceOnUse">
<stop stop-color="#634A4A"/>
<stop offset="1" stop-color="#2F2929"/>
</linearGradient>
<linearGradient id="paint55_linear_432_5097" x1="326.033" y1="754.252" x2="324.095" y2="705.745" gradientUnits="userSpaceOnUse">
<stop stop-color="#634A4A"/>
<stop offset="1" stop-color="#2F2929"/>
</linearGradient>
<linearGradient id="paint56_linear_432_5097" x1="326.535" y1="755.19" x2="323.665" y2="705.3" gradientUnits="userSpaceOnUse">
<stop stop-color="#634A4A"/>
<stop offset="1" stop-color="#2F2929"/>
</linearGradient>
<linearGradient id="paint57_linear_432_5097" x1="327.454" y1="756.195" x2="323.577" y2="704.227" gradientUnits="userSpaceOnUse">
<stop stop-color="#634A4A"/>
<stop offset="1" stop-color="#2F2929"/>
</linearGradient>
<linearGradient id="paint58_linear_432_5097" x1="327.925" y1="757.302" x2="322.989" y2="703.274" gradientUnits="userSpaceOnUse">
<stop stop-color="#634A4A"/>
<stop offset="1" stop-color="#2F2929"/>
</linearGradient>
<linearGradient id="paint59_linear_432_5097" x1="328.176" y1="758.354" x2="322.129" y2="702.282" gradientUnits="userSpaceOnUse">
<stop stop-color="#634A4A"/>
<stop offset="1" stop-color="#2F2929"/>
</linearGradient>
<linearGradient id="paint60_linear_432_5097" x1="328.923" y1="758.904" x2="321.716" y2="700.808" gradientUnits="userSpaceOnUse">
<stop stop-color="#634A4A"/>
<stop offset="1" stop-color="#2F2929"/>
</linearGradient>
<linearGradient id="paint61_linear_432_5097" x1="329.055" y1="760.498" x2="320.532" y2="699.693" gradientUnits="userSpaceOnUse">
<stop stop-color="#634A4A"/>
<stop offset="1" stop-color="#2F2929"/>
</linearGradient>
<linearGradient id="paint62_linear_432_5097" x1="330.295" y1="761.773" x2="320.39" y2="698.291" gradientUnits="userSpaceOnUse">
<stop stop-color="#634A4A"/>
<stop offset="1" stop-color="#2F2929"/>
</linearGradient>
<linearGradient id="paint63_linear_432_5097" x1="331.19" y1="763.415" x2="319.826" y2="697.281" gradientUnits="userSpaceOnUse">
<stop stop-color="#634A4A"/>
<stop offset="1" stop-color="#2F2929"/>
</linearGradient>
<linearGradient id="paint64_linear_432_5097" x1="331.563" y1="764.706" x2="318.664" y2="695.944" gradientUnits="userSpaceOnUse">
<stop stop-color="#634A4A"/>
<stop offset="1" stop-color="#2F2929"/>
</linearGradient>
<linearGradient id="paint65_linear_432_5097" x1="332.403" y1="766.057" x2="317.756" y2="693.996" gradientUnits="userSpaceOnUse">
<stop stop-color="#634A4A"/>
<stop offset="1" stop-color="#2F2929"/>
</linearGradient>
<linearGradient id="paint66_linear_432_5097" x1="333.575" y1="768.117" x2="316.927" y2="692.105" gradientUnits="userSpaceOnUse">
<stop stop-color="#634A4A"/>
<stop offset="1" stop-color="#2F2929"/>
</linearGradient>
<linearGradient id="paint67_linear_432_5097" x1="334.286" y1="770.098" x2="315.512" y2="690.17" gradientUnits="userSpaceOnUse">
<stop stop-color="#634A4A"/>
<stop offset="1" stop-color="#2F2929"/>
</linearGradient>
<linearGradient id="paint68_linear_432_5097" x1="335.409" y1="772.071" x2="314.391" y2="688.28" gradientUnits="userSpaceOnUse">
<stop stop-color="#634A4A"/>
<stop offset="1" stop-color="#2F2929"/>
</linearGradient>
<linearGradient id="paint69_linear_432_5097" x1="337.101" y1="774.169" x2="313.537" y2="685.882" gradientUnits="userSpaceOnUse">
<stop stop-color="#634A4A"/>
<stop offset="1" stop-color="#2F2929"/>
</linearGradient>
<linearGradient id="paint70_linear_432_5097" x1="338.248" y1="776.43" x2="311.981" y2="683.699" gradientUnits="userSpaceOnUse">
<stop stop-color="#634A4A"/>
<stop offset="1" stop-color="#2F2929"/>
</linearGradient>
<linearGradient id="paint71_linear_432_5097" x1="339.903" y1="779.58" x2="310.372" y2="681.111" gradientUnits="userSpaceOnUse">
<stop stop-color="#634A4A"/>
<stop offset="1" stop-color="#2F2929"/>
</linearGradient>
<linearGradient id="paint72_linear_432_5097" x1="341.542" y1="781.84" x2="308.772" y2="678.392" gradientUnits="userSpaceOnUse">
<stop stop-color="#634A4A"/>
<stop offset="1" stop-color="#2F2929"/>
</linearGradient>
<linearGradient id="paint73_linear_432_5097" x1="343.474" y1="785.352" x2="306.819" y2="675.663" gradientUnits="userSpaceOnUse">
<stop stop-color="#634A4A"/>
<stop offset="1" stop-color="#2F2929"/>
</linearGradient>
<linearGradient id="paint74_linear_432_5097" x1="345.631" y1="788.232" x2="304.64" y2="671.725" gradientUnits="userSpaceOnUse">
<stop stop-color="#634A4A"/>
<stop offset="1" stop-color="#2F2929"/>
</linearGradient>
<linearGradient id="paint75_linear_432_5097" x1="348.192" y1="791.745" x2="302.597" y2="668.559" gradientUnits="userSpaceOnUse">
<stop stop-color="#634A4A"/>
<stop offset="1" stop-color="#2F2929"/>
</linearGradient>
<linearGradient id="paint76_linear_432_5097" x1="350.563" y1="796.064" x2="299.568" y2="664.995" gradientUnits="userSpaceOnUse">
<stop stop-color="#634A4A"/>
<stop offset="1" stop-color="#2F2929"/>
</linearGradient>
<linearGradient id="paint77_linear_432_5097" x1="353.626" y1="800.038" x2="296.655" y2="660.594" gradientUnits="userSpaceOnUse">
<stop stop-color="#634A4A"/>
<stop offset="1" stop-color="#2F2929"/>
</linearGradient>
<linearGradient id="paint78_linear_432_5097" x1="357.273" y1="804.497" x2="293.412" y2="655.556" gradientUnits="userSpaceOnUse">
<stop stop-color="#634A4A"/>
<stop offset="1" stop-color="#2F2929"/>
</linearGradient>
<linearGradient id="paint79_linear_432_5097" x1="360.885" y1="809.34" x2="289.707" y2="651.142" gradientUnits="userSpaceOnUse">
<stop stop-color="#634A4A"/>
<stop offset="1" stop-color="#2F2929"/>
</linearGradient>
<linearGradient id="paint80_linear_432_5097" x1="365.363" y1="814.948" x2="285.524" y2="645.811" gradientUnits="userSpaceOnUse">
<stop stop-color="#634A4A"/>
<stop offset="1" stop-color="#2F2929"/>
</linearGradient>
<linearGradient id="paint81_linear_432_5097" x1="369.923" y1="820.949" x2="280.265" y2="639.898" gradientUnits="userSpaceOnUse">
<stop stop-color="#634A4A"/>
<stop offset="1" stop-color="#2F2929"/>
</linearGradient>
<linearGradient id="paint82_linear_432_5097" x1="375.107" y1="826.927" x2="274.716" y2="633.701" gradientUnits="userSpaceOnUse">
<stop stop-color="#634A4A"/>
<stop offset="1" stop-color="#2F2929"/>
</linearGradient>
<linearGradient id="paint83_linear_432_5097" x1="381.535" y1="834.046" x2="268.407" y2="626.574" gradientUnits="userSpaceOnUse">
<stop stop-color="#634A4A"/>
<stop offset="1" stop-color="#2F2929"/>
</linearGradient>
<linearGradient id="paint84_linear_432_5097" x1="388.529" y1="840.981" x2="261.553" y2="619.171" gradientUnits="userSpaceOnUse">
<stop stop-color="#634A4A"/>
<stop offset="1" stop-color="#2F2929"/>
</linearGradient>
<linearGradient id="paint85_linear_432_5097" x1="397.005" y1="849.389" x2="253.876" y2="611.421" gradientUnits="userSpaceOnUse">
<stop stop-color="#634A4A"/>
<stop offset="1" stop-color="#2F2929"/>
</linearGradient>
<linearGradient id="paint86_linear_432_5097" x1="406.157" y1="857.865" x2="244.403" y2="602.02" gradientUnits="userSpaceOnUse">
<stop stop-color="#634A4A"/>
<stop offset="1" stop-color="#2F2929"/>
</linearGradient>
<linearGradient id="paint87_linear_432_5097" x1="416.411" y1="867.319" x2="233.717" y2="592.708" gradientUnits="userSpaceOnUse">
<stop stop-color="#634A4A"/>
<stop offset="1" stop-color="#2F2929"/>
</linearGradient>
<linearGradient id="paint88_linear_432_5097" x1="428.412" y1="877.761" x2="221.509" y2="582.504" gradientUnits="userSpaceOnUse">
<stop stop-color="#634A4A"/>
<stop offset="1" stop-color="#2F2929"/>
</linearGradient>
<linearGradient id="paint89_linear_432_5097" x1="442.429" y1="888.808" x2="208.222" y2="571.893" gradientUnits="userSpaceOnUse">
<stop stop-color="#634A4A"/>
<stop offset="1" stop-color="#2F2929"/>
</linearGradient>
<linearGradient id="paint90_linear_432_5097" x1="458.498" y1="900.603" x2="192.383" y2="559.529" gradientUnits="userSpaceOnUse">
<stop stop-color="#634A4A"/>
<stop offset="1" stop-color="#2F2929"/>
</linearGradient>
<linearGradient id="paint91_linear_432_5097" x1="476.414" y1="913.418" x2="174.289" y2="547.231" gradientUnits="userSpaceOnUse">
<stop stop-color="#634A4A"/>
<stop offset="1" stop-color="#2F2929"/>
</linearGradient>
<linearGradient id="paint92_linear_432_5097" x1="497.261" y1="926.871" x2="153.447" y2="533.345" gradientUnits="userSpaceOnUse">
<stop stop-color="#634A4A"/>
<stop offset="1" stop-color="#2F2929"/>
</linearGradient>
<linearGradient id="paint93_linear_432_5097" x1="521.027" y1="941.46" x2="129.409" y2="518.911" gradientUnits="userSpaceOnUse">
<stop stop-color="#634A4A"/>
<stop offset="1" stop-color="#2F2929"/>
</linearGradient>
<linearGradient id="paint94_linear_432_5097" x1="548.695" y1="956.968" x2="102.344" y2="503.821" gradientUnits="userSpaceOnUse">
<stop stop-color="#634A4A"/>
<stop offset="1" stop-color="#2F2929"/>
</linearGradient>
<linearGradient id="paint95_linear_432_5097" x1="579.655" y1="972.829" x2="70.7513" y2="487.549" gradientUnits="userSpaceOnUse">
<stop stop-color="#634A4A"/>
<stop offset="1" stop-color="#2F2929"/>
</linearGradient>
<linearGradient id="paint96_linear_432_5097" x1="615.358" y1="989.521" x2="35.1637" y2="470.977" gradientUnits="userSpaceOnUse">
<stop stop-color="#634A4A"/>
<stop offset="1" stop-color="#2F2929"/>
</linearGradient>
<linearGradient id="paint97_linear_432_5097" x1="656.48" y1="1006.92" x2="-5.71408" y2="453.386" gradientUnits="userSpaceOnUse">
<stop stop-color="#634A4A"/>
<stop offset="1" stop-color="#2F2929"/>
</linearGradient>
<linearGradient id="paint98_linear_432_5097" x1="702.572" y1="1024.84" x2="-52.3025" y2="436.017" gradientUnits="userSpaceOnUse">
<stop stop-color="#634A4A"/>
<stop offset="1" stop-color="#2F2929"/>
</linearGradient>
<linearGradient id="paint99_linear_432_5097" x1="755.59" y1="1042.63" x2="-104.496" y2="418.038" gradientUnits="userSpaceOnUse">
<stop stop-color="#634A4A"/>
<stop offset="1" stop-color="#2F2929"/>
</linearGradient>
<linearGradient id="paint100_linear_432_5097" x1="814.511" y1="1060.51" x2="-164.448" y2="400.197" gradientUnits="userSpaceOnUse">
<stop stop-color="#634A4A"/>
<stop offset="1" stop-color="#2F2929"/>
</linearGradient>
<linearGradient id="paint101_linear_432_5097" x1="-2.85173" y1="1298.36" x2="653.223" y2="162.008" gradientUnits="userSpaceOnUse">
<stop stop-color="#634A4A"/>
<stop offset="1" stop-color="#2F2929"/>
</linearGradient>
<linearGradient id="paint102_linear_432_5097" x1="0" y1="748.5" x2="1920" y2="748.5" gradientUnits="userSpaceOnUse">
<stop stop-color="white" stop-opacity="0"/>
<stop offset="0.505"/>
<stop offset="1" stop-color="#999999" stop-opacity="0"/>
</linearGradient>
<clipPath id="clip0_432_5097">
<rect width="1920" height="872" fill="white"/>
</clipPath>
<clipPath id="clip1_432_5097">
<rect width="1920" height="872" fill="white"/>
</clipPath>
</defs>
</svg>
