<svg width="100" height="100" viewBox="0 0 100 100" fill="none" xmlns="http://www.w3.org/2000/svg">
<path d="M10.7 83.7004H16.9867V97.3106H14.2586V86.3527L11.8242 86.3621H11.2391C9.87969 86.3621 9.12422 86.4192 8.97344 86.5324C8.16172 86.7527 7.47578 87.2215 6.91562 87.9387C6.3125 88.8012 6.01016 89.6598 6.01016 90.516C6.01016 91.5731 6.41875 92.5457 7.23672 93.4324C7.78437 93.9543 8.25625 94.2691 8.65313 94.3762C9.04922 94.5777 9.73203 94.6785 10.7008 94.6785H12.5984V97.3113H10.3242C8.6375 97.3113 7.2125 96.8684 6.04766 95.9809C5.20469 95.3137 4.64141 94.7098 4.35859 94.1692C3.65391 93.0488 3.30078 91.9035 3.30078 90.7332V90.3371C3.30078 88.7004 3.91406 87.1996 5.14141 85.8348C5.88359 85.1106 6.49141 84.6543 6.9625 84.466C7.30312 84.277 7.77109 84.0973 8.36953 83.9285C8.90391 83.7754 9.68125 83.7004 10.7 83.7004ZM30.7195 86.4184C30.9898 86.7832 31.1852 87.0941 31.3047 87.352C31.4813 87.6613 31.6469 88.0762 31.8055 88.5981C31.9937 89.2277 32.0883 90.0832 32.0883 91.1652V97.3098H29.3602V90.8731C29.3602 88.7082 28.382 87.2613 26.425 86.5309C25.9781 86.4051 25.5852 86.3395 25.2445 86.3324C24.9047 86.3395 24.5148 86.4051 24.0742 86.5309C22.1172 87.2613 21.1391 88.7082 21.1391 90.8731V97.3098H18.4016V91.1652C18.4016 90.0832 18.4961 89.2277 18.6844 88.5981C18.8414 88.0762 19.0086 87.6613 19.1852 87.352C19.3047 87.0879 19.5023 86.777 19.7797 86.4184C21.2461 84.6184 23.068 83.7184 25.2445 83.7184C27.4227 83.7184 29.2469 84.6184 30.7195 86.4184ZM38.3742 83.709C40.2062 83.709 41.2562 83.7504 41.5273 83.8316C42.2695 83.9199 43.1062 84.2317 44.0375 84.766C44.5469 85.0801 45.0891 85.5621 45.6609 86.2098C46.6805 87.4746 47.1898 88.9129 47.1898 90.5231C47.1952 91.4417 47.0089 92.3515 46.643 93.1942C45.9258 94.8238 44.7453 96.0012 43.1039 96.7246C42.3422 97.1152 41.1719 97.3098 39.593 97.3098H33.807L33.5047 97.2535V94.6668H39.8852C40.5648 94.6668 41.0898 94.6074 41.4617 94.4879C42.45 94.1543 43.1727 93.6574 43.632 92.9965C44.1922 92.1606 44.4719 91.3449 44.4719 90.552C44.4719 89.7535 44.2297 88.9668 43.7453 88.1918C43.443 87.7457 43.1102 87.4059 42.7453 87.1723C42.0781 86.6254 41.125 86.3512 39.8852 86.3512H33.5047V83.7082L38.3742 83.709ZM48.6063 83.709H57.3469C58.8883 83.709 60.0969 84.1715 60.9711 85.0965C61.3617 85.4613 61.632 85.8137 61.7828 86.1535C62.1234 86.8332 62.2922 87.4973 62.2922 88.1457V88.5324C62.2922 89.5262 61.8609 90.4988 61 91.4488C60.4461 91.977 59.9422 92.3168 59.4891 92.4684C60.6344 93.6895 61.207 95.3027 61.207 97.3098H58.4602V97.102C58.4602 95.6176 57.8586 94.4371 56.657 93.5629C55.9711 93.0785 55.0742 92.8356 53.9672 92.8356H48.6063V90.2121H57.5164C58.4914 90.2121 59.1523 89.7309 59.4984 88.7676C59.5311 88.6053 59.5561 88.4416 59.5734 88.277C59.5734 87.7418 59.3508 87.2574 58.9039 86.8238C58.5203 86.5215 58.1109 86.3707 57.6773 86.3707C57.6773 86.3457 57.5453 86.3324 57.2805 86.3324H48.6063V83.709ZM70.5133 83.7184H70.607C72.6969 83.7184 74.4805 84.5746 75.9594 86.2856C76.9164 87.5699 77.3938 88.9668 77.3938 90.4762V90.5707C77.3938 92.6598 76.5195 94.434 74.7703 95.8934C73.4992 96.8379 72.1055 97.3098 70.5891 97.3098H70.4945C68.418 97.3098 66.6399 96.4606 65.1617 94.7613C64.6461 94.0379 64.2844 93.3738 64.0758 92.7699C63.8374 92.0543 63.7132 91.3055 63.7078 90.5512V90.4574C63.7078 88.4059 64.5539 86.6504 66.2469 85.1902C67.3922 84.3723 68.4367 83.9129 69.3805 83.8121C69.6695 83.7504 70.0469 83.7184 70.5133 83.7184ZM66.4258 90.4957C66.4258 91.6793 66.8883 92.7176 67.8133 93.6105C68.6375 94.3145 69.5023 94.6676 70.4086 94.6676H70.6727C71.4031 94.6676 72.1453 94.4192 72.9008 93.9223C73.6805 93.3496 74.2094 92.6199 74.4859 91.7324C74.5734 91.4996 74.6367 91.0996 74.6742 90.534C74.6742 89.3762 74.225 88.3535 73.3242 87.466C72.4813 86.7168 71.5563 86.3426 70.5492 86.3426C69.3727 86.3426 68.3281 86.8332 67.4156 87.8152C67.032 88.3191 66.7891 88.7457 66.6883 89.0988C66.5141 89.5895 66.4258 90.0551 66.4258 90.4957ZM78.8094 83.7184H81.5367V97.3098H78.8094V83.7184ZM87.8797 83.709C89.7109 83.709 90.7609 83.7504 91.032 83.8316C91.7742 83.9199 92.6109 84.2317 93.5422 84.766C94.0516 85.0801 94.5938 85.5621 95.1656 86.2098C96.1852 87.4746 96.6945 88.9129 96.6945 90.5231C96.6998 91.4417 96.5136 92.3515 96.1477 93.1942C95.4305 94.8238 94.25 96.0012 92.6086 96.7246C91.8469 97.1152 90.6766 97.3098 89.0977 97.3098H83.3117L83.0094 97.2535V94.6668H89.3898C90.0695 94.6668 90.5945 94.6074 90.9664 94.4879C91.9547 94.1543 92.6773 93.6574 93.1367 92.9965C93.6969 92.1606 93.9766 91.3449 93.9766 90.552C93.9766 89.7535 93.7344 88.9668 93.25 88.1918C92.9477 87.7457 92.6148 87.4059 92.25 87.1723C91.5828 86.6254 90.6297 86.3512 89.3898 86.3512H83.0094V83.7082L87.8797 83.709ZM22.7977 28.4074C21.5665 28.4078 20.3858 28.8972 19.5153 29.7678C18.6448 30.6385 18.1557 31.8192 18.1555 33.0504L18.1586 52.4949C18.1594 55.066 20.2383 57.141 22.8031 57.141C25.368 57.141 27.4469 55.066 27.4445 52.4965V33.0496C27.4435 31.8179 26.9534 30.6371 26.0821 29.7666C25.2107 28.8961 24.0293 28.4072 22.7977 28.4074ZM60.2438 10.9457L63.4844 5.02852C63.5668 4.87822 63.5864 4.70137 63.5388 4.53666C63.4913 4.37196 63.3804 4.23279 63.2305 4.14962C63.0802 4.06873 62.904 4.05044 62.7403 4.09872C62.5766 4.14699 62.4386 4.25794 62.3563 4.40743L59.0828 10.3871C56.2178 9.11862 53.1176 8.46829 49.9844 8.47852C46.8587 8.46843 43.7659 9.11633 40.907 10.3801L37.6305 4.41524C37.5904 4.34085 37.536 4.27512 37.4703 4.22185C37.4047 4.16858 37.3292 4.12882 37.2482 4.10486C37.1672 4.08089 37.0822 4.0732 36.9981 4.08222C36.9141 4.09125 36.8327 4.11681 36.7586 4.15743C36.684 4.19741 36.6181 4.25185 36.5648 4.31757C36.5114 4.38329 36.4717 4.45897 36.4479 4.5402C36.4241 4.62144 36.4168 4.70659 36.4263 4.7907C36.4357 4.87481 36.4619 4.95618 36.5031 5.03009L39.7445 10.9441C33.3742 14.2293 29.0703 20.4871 29.0742 27.6691L70.9016 27.6645C70.9016 20.4824 66.6055 14.2402 60.2438 10.9457ZM40.4711 20.0918C40.0059 20.0915 39.5599 19.9064 39.2312 19.5773C38.9025 19.2481 38.718 18.8019 38.7184 18.3367C38.7187 17.8716 38.9038 17.4256 39.2329 17.0969C39.562 16.7682 40.0083 16.5837 40.4734 16.584C40.9386 16.5854 41.3843 16.771 41.7131 17.1001C42.0419 17.4292 42.2271 17.875 42.2281 18.3402C42.2273 18.8055 42.0417 19.2513 41.7123 19.5798C41.3828 19.9083 40.9363 20.0924 40.4711 20.0918ZM59.5172 20.0887C59.2869 20.0889 59.0588 20.0437 58.8459 19.9557C58.6331 19.8676 58.4397 19.7385 58.2768 19.5757C58.1139 19.4129 57.9847 19.2195 57.8966 19.0067C57.8085 18.794 57.7632 18.5659 57.7633 18.3356C57.7659 17.8708 57.9515 17.4259 58.2797 17.0969C58.6079 16.7679 59.0525 16.5814 59.5172 16.5777C59.9817 16.5819 60.4258 16.7688 60.7534 17.0982C61.081 17.4275 61.2656 17.8726 61.2672 18.3371C61.2674 18.5671 61.2223 18.7948 61.1344 19.0073C61.0466 19.2198 60.9177 19.4129 60.7552 19.5756C60.5927 19.7382 60.3997 19.8673 60.1872 19.9553C59.9748 20.0434 59.7471 20.0887 59.5172 20.0887ZM29.2438 29.2848L29.2508 59.4191C29.2501 60.0699 29.3777 60.7145 29.6265 61.3158C29.8753 61.9172 30.2402 62.4636 30.7005 62.9237C31.1607 63.3838 31.7072 63.7486 32.3087 63.9972C32.9101 64.2457 33.5547 64.3732 34.2055 64.3723L37.5789 64.3738L37.5836 74.6629C37.584 75.8938 38.0728 77.0742 38.9427 77.945C39.8127 78.8158 40.9926 79.3058 42.2234 79.3074C43.4555 79.3064 44.6367 78.8163 45.5076 77.9448C46.3785 77.0734 46.8678 75.8918 46.868 74.6598L46.8648 64.3738L53.1336 64.3723L53.1359 74.6598C53.1359 77.2199 55.2195 79.3059 57.7781 79.3012C59.0099 79.3012 60.1913 78.8118 61.0623 77.9408C61.9333 77.0698 62.4227 75.8885 62.4227 74.6566L62.4195 64.3707L65.8055 64.3676C66.4564 64.3677 67.101 64.2396 67.7024 63.9905C68.3038 63.7415 68.8503 63.3765 69.3106 62.9162C69.7709 62.456 70.136 61.9096 70.3852 61.3082C70.6343 60.7068 70.7625 60.0623 70.7625 59.4113L70.757 29.277L29.2438 29.2848ZM81.8352 33.0449C81.8355 32.4351 81.7156 31.8312 81.4824 31.2678C81.2491 30.7043 80.9072 30.1924 80.476 29.7612C80.0448 29.33 79.5328 28.988 78.9693 28.7548C78.4059 28.5215 77.802 28.4017 77.1922 28.402C76.5824 28.402 75.9786 28.5221 75.4153 28.7556C74.852 28.989 74.3401 29.3312 73.9091 29.7625C73.4781 30.1938 73.1363 30.7059 72.9032 31.2693C72.6701 31.8328 72.5504 32.4367 72.5508 33.0465L72.5547 52.4926C72.5543 53.1023 72.6741 53.7061 72.9072 54.2694C73.1404 54.8328 73.4823 55.3447 73.9135 55.7757C74.3446 56.2068 74.8566 56.5487 75.42 56.7817C75.9834 57.0148 76.5872 57.1345 77.1969 57.134C77.8067 57.1342 78.4106 57.0142 78.974 56.7808C79.5375 56.5474 80.0493 56.2053 80.4804 55.7739C80.9115 55.3425 81.2533 54.8304 81.4863 54.2668C81.7193 53.7033 81.8389 53.0993 81.8383 52.4895L81.8352 33.0449Z" fill="#7CB342"/>
</svg>
