<svg width="1920" height="13047" viewBox="0 0 1920 13047" fill="none" xmlns="http://www.w3.org/2000/svg">
<g clip-path="url(#clip0_478_14408)">
<g opacity="0.1">
<path d="M-169.015 1707.83C-112.618 1768.02 -52.6133 1824.82 10.5756 1877.84C38.6652 1901.4 68.1672 1924.66 102.906 1936.39C191.706 1966.38 286.632 1914.11 359.071 1854.63C425.79 1799.85 485.961 1737.11 537.902 1668.16C589.374 1599.82 633.748 1524.38 699.729 1469.93C765.708 1415.48 862.077 1386.14 937.679 1426.17C982.661 1449.98 1013.68 1495.09 1029.42 1543.5C1045.17 1591.9 1047.1 1643.69 1045.42 1694.56C1043.5 1752.81 1037.6 1814.07 1062.64 1866.69C1088.57 1921.16 1148.1 1957.81 1208.41 1956.43C1294.21 1954.46 1361.11 1886 1426.53 1830.44C1509.64 1759.87 1609.37 1702.49 1718.14 1694.9C1826.9 1687.3 1944.45 1739.4 1990.03 1838.45" stroke="white" stroke-width="2.80973" stroke-miterlimit="10"/>
<path d="M-160.669 1684.25C-105.588 1743.12 -46.8364 1798.54 15.1027 1850.1C42.6372 1873.02 71.5487 1895.6 105.471 1907.15C192.169 1936.67 284.85 1887.54 356.156 1831.22C373.088 1817.85 389.607 1803.96 405.684 1789.58C451.982 1748.15 494.621 1702.64 532.931 1653.74C584.078 1588.46 628.447 1516.17 693.336 1463.68C758.214 1411.2 850.625 1385.28 925.885 1419.62C954.199 1432.54 978.535 1450.03 997.797 1472.95C1010.93 1488.56 1022.02 1506.23 1030.57 1525.23C1034.49 1533.91 1037.92 1542.88 1040.89 1552.14C1052.76 1589.2 1056.16 1630.24 1057.19 1670.49C1057.29 1674.48 1057.37 1678.47 1057.44 1682.45C1058.55 1744.52 1058.8 1808.49 1087.66 1861.95C1115.45 1913.44 1171.92 1949.51 1230.83 1948.46C1314.66 1946.96 1380.49 1882.09 1444.75 1830C1449.82 1825.9 1454.94 1821.84 1460.12 1817.84C1538.49 1757.46 1629.95 1710.83 1728.34 1706.27C1833.23 1701.4 1945.76 1753.79 1988.73 1850.79" stroke="#F9F9F9" stroke-width="2.80973" stroke-miterlimit="10"/>
<path d="M-152.31 1660.67C-98.5467 1718.22 -41.045 1772.24 19.6448 1822.36C46.6241 1844.63 74.9422 1866.53 108.05 1877.91C192.641 1906.96 283.082 1860.97 353.253 1807.81C369.918 1795.19 386.193 1782.06 402.05 1768.44C447.716 1729.21 489.908 1685.94 527.974 1639.33C578.793 1577.09 623.155 1507.96 686.959 1457.43C750.735 1406.92 839.615 1384.06 914.11 1413.07C944.153 1424.77 970.837 1438.01 992.761 1458.41C1007.72 1472.3 1021.01 1488.57 1031.73 1506.95C1036.65 1515.35 1041.08 1524.2 1045 1533.56C1060.59 1570.98 1065.8 1614.93 1068.67 1657.64C1068.95 1661.88 1069.22 1666.11 1069.48 1670.34C1073.61 1736.23 1079.83 1802.73 1112.69 1857.19C1142 1905.76 1195.76 1941.2 1253.28 1940.48C1335.12 1939.45 1399.88 1878.17 1462.98 1829.55C1467.96 1825.71 1472.99 1821.93 1478.07 1818.21C1554.94 1761.98 1643.81 1719.63 1738.57 1717.63C1839.59 1715.48 1947.08 1768.17 1987.45 1863.12" stroke="#F4F4F4" stroke-width="2.80973" stroke-miterlimit="10"/>
<path d="M-143.968 1637.08C-91.5241 1693.33 -35.2749 1745.96 24.1695 1794.62C50.5921 1816.25 78.3224 1837.47 110.612 1848.66C193.101 1877.26 281.299 1834.41 350.336 1784.41C366.735 1772.54 382.765 1760.16 398.402 1747.3C443.435 1710.26 485.179 1669.25 523.004 1624.91C573.499 1565.72 617.855 1499.74 680.567 1451.19C743.242 1402.65 828.965 1382.44 902.315 1406.52C934.248 1417.01 963.121 1426 987.706 1443.87C1004.48 1456.04 1019.98 1470.9 1032.88 1488.67C1038.8 1496.79 1044.23 1505.53 1049.08 1514.98C1068.4 1552.76 1075.42 1599.63 1080.12 1644.79C1080.59 1649.27 1081.05 1653.74 1081.5 1658.22C1088.65 1727.94 1100.66 1796.85 1137.71 1852.44C1168.19 1898.17 1219.58 1932.89 1275.7 1932.5C1355.56 1931.94 1419.26 1874.25 1481.2 1829.09C1486.08 1825.53 1491.02 1822.02 1496 1818.58C1571.37 1766.49 1657.64 1728.43 1748.77 1728.99C1845.92 1729.57 1948.39 1782.54 1986.15 1875.45" stroke="#EEEEEE" stroke-width="2.80973" stroke-miterlimit="10"/>
<path d="M-135.618 1613.5C-84.4905 1668.43 -29.4955 1719.67 28.698 1766.88C54.5682 1787.86 81.7053 1808.4 113.178 1819.42C193.563 1847.55 279.517 1807.83 347.42 1761C363.552 1749.88 379.339 1738.26 394.755 1726.16C439.155 1691.32 480.452 1652.55 518.033 1610.49C568.203 1554.34 612.55 1491.52 674.176 1444.94C735.747 1398.37 818.629 1380.39 890.523 1399.97C924.485 1409.22 955.407 1413.98 982.654 1429.33C1001.26 1439.77 1018.96 1453.24 1034.03 1470.39C1040.95 1478.23 1047.37 1486.86 1053.17 1496.41C1076.21 1534.55 1085.04 1584.33 1091.59 1631.95C1092.23 1636.67 1092.88 1641.39 1093.53 1646.1C1103.69 1719.65 1121.29 1790.9 1162.73 1847.7C1194.09 1890.68 1243.41 1924.59 1298.13 1924.52C1376.01 1924.44 1438.64 1870.34 1499.42 1828.64C1504.21 1825.35 1509.05 1822.12 1513.94 1818.95C1587.81 1771 1671.48 1737.23 1758.98 1740.36C1852.26 1743.66 1949.7 1796.93 1984.85 1887.79" stroke="#E9E9E9" stroke-width="2.80973" stroke-miterlimit="10"/>
<path d="M-127.271 1589.93C-77.4613 1643.54 -23.7191 1693.39 33.2278 1739.15C58.5429 1759.49 85.0889 1779.35 115.741 1790.18C194.023 1817.85 277.735 1781.28 344.503 1737.59C360.369 1727.22 375.912 1716.36 391.107 1705.03C434.874 1672.38 475.724 1635.86 513.063 1596.09C562.908 1542.98 607.249 1483.32 667.784 1438.7C728.254 1394.1 808.541 1377.96 878.733 1393.43C914.842 1401.39 947.695 1401.98 977.603 1414.81C998.029 1423.52 1017.93 1435.59 1035.17 1452.12C1043.11 1459.69 1050.52 1468.2 1057.26 1477.84C1084.03 1516.34 1094.67 1569.03 1103.05 1619.12C1103.88 1624.07 1104.71 1629.03 1105.55 1633.99C1118.74 1711.36 1141.75 1784.93 1187.75 1842.96C1219.73 1883.3 1267.23 1916.29 1320.55 1916.55C1396.45 1916.94 1458.02 1866.43 1517.64 1828.19C1522.34 1825.18 1527.08 1822.22 1531.87 1819.32C1604.25 1775.53 1685.32 1746.04 1769.19 1751.73C1858.59 1757.76 1951.01 1811.31 1983.55 1900.13" stroke="#E3E3E3" stroke-width="2.80973" stroke-miterlimit="10"/>
<path d="M-118.913 1566.34C-70.4197 1618.64 -17.93 1667.1 37.7671 1711.4C62.5255 1731.09 88.4825 1750.28 118.318 1760.93C194.496 1788.13 275.965 1754.7 341.597 1714.18C357.197 1704.56 372.495 1694.46 387.468 1683.88C430.601 1653.44 471.001 1619.16 508.1 1581.66C557.62 1531.61 601.953 1475.1 661.401 1432.45C720.77 1389.82 798.653 1375.12 866.948 1386.87C905.3 1393.47 939.985 1389.96 972.557 1400.26C994.809 1407.25 1016.92 1417.92 1036.33 1433.84C1045.26 1441.12 1053.67 1449.52 1061.34 1459.26C1091.84 1498.12 1104.3 1553.73 1114.52 1606.27C1115.52 1611.47 1116.54 1616.67 1117.57 1621.87C1133.79 1703.07 1162.02 1778.96 1212.77 1838.2C1245.16 1876.02 1291.05 1907.98 1342.98 1908.57C1416.9 1909.43 1477.39 1862.51 1535.85 1827.73C1540.46 1824.99 1545.11 1822.31 1549.8 1819.69C1620.68 1780.04 1699.15 1754.84 1779.4 1763.09C1864.93 1771.84 1952.32 1825.69 1982.26 1912.46" stroke="#DEDEDE" stroke-width="2.80973" stroke-miterlimit="10"/>
<path d="M-110.565 1542.76C-63.3893 1593.74 -12.1526 1640.81 42.2979 1683.66C66.5038 1702.7 91.8663 1721.21 120.886 1731.69C194.962 1758.42 274.189 1728.13 338.686 1690.76C354.017 1681.9 369.076 1672.55 383.825 1662.74C426.325 1634.49 466.279 1602.46 503.134 1567.24C552.327 1520.23 596.656 1466.88 655.013 1426.19C713.28 1385.54 791.441 1360.32 855.158 1380.32C896.101 1378.16 932.273 1377.94 967.507 1385.72C991.583 1390.99 1015.89 1400.26 1037.48 1415.56C1047.41 1422.56 1056.81 1430.85 1065.43 1440.68C1099.66 1479.9 1113.92 1538.43 1125.98 1593.42C1127.17 1598.86 1128.37 1604.31 1129.6 1609.75C1148.83 1694.77 1182.12 1773.04 1237.8 1833.46C1270.42 1868.85 1314.89 1899.67 1365.41 1900.59C1437.35 1901.92 1496.77 1858.59 1554.08 1827.28C1558.6 1824.81 1563.15 1822.4 1567.74 1820.05C1637.12 1784.55 1713 1763.64 1789.61 1774.45C1871.27 1785.94 1953.63 1840.07 1980.96 1924.8" stroke="#D8D8D8" stroke-width="2.80973" stroke-miterlimit="10"/>
<path d="M-102.221 1519.18C-56.3643 1568.85 -6.37902 1614.53 46.8233 1655.92C70.4741 1674.32 95.2458 1692.15 123.449 1702.45C195.42 1728.72 272.402 1701.56 335.767 1667.36C350.831 1659.24 365.645 1650.65 380.175 1641.6C422.04 1615.55 461.548 1585.76 498.159 1552.83C547.027 1508.87 591.348 1458.67 648.619 1419.95C705.783 1381.26 781.345 1356.63 843.366 1373.77C886.335 1369.28 924.559 1365.93 962.454 1371.18C988.355 1374.73 1014.87 1382.6 1038.63 1397.29C1049.57 1404.01 1059.96 1412.18 1069.52 1422.11C1107.47 1461.68 1123.55 1523.12 1137.44 1580.58C1138.81 1586.26 1140.21 1591.95 1141.63 1597.63C1163.88 1686.48 1202.03 1767.22 1262.82 1828.7C1295.52 1861.78 1338.71 1891.36 1387.83 1892.61C1457.8 1894.42 1516.15 1854.68 1572.3 1826.83C1576.73 1824.64 1581.19 1822.5 1585.68 1820.43C1653.56 1789.07 1726.84 1772.44 1799.83 1785.82C1877.61 1800.03 1954.94 1854.46 1979.67 1937.14" stroke="#D2D2D2" stroke-width="2.80973" stroke-miterlimit="10"/>
<path d="M-93.8746 1495.6C-49.3332 1543.95 -0.601891 1588.25 51.3522 1628.19C74.4464 1645.94 98.6289 1663.09 126.016 1673.21C195.882 1699.01 270.625 1675 332.855 1643.96C347.653 1636.59 362.223 1628.75 376.532 1620.47C417.764 1596.61 456.826 1569.07 493.193 1538.42C541.738 1497.5 586.049 1450.46 642.23 1413.71C698.293 1376.99 771.252 1352.95 831.576 1367.23C876.571 1360.41 916.847 1353.92 957.404 1356.65C985.126 1358.48 1013.84 1364.94 1039.77 1379.01C1051.72 1385.46 1063.11 1393.52 1073.61 1403.54C1115.28 1443.47 1133.18 1507.83 1148.9 1567.75C1150.46 1573.67 1152.03 1579.6 1153.65 1585.53C1178.92 1678.2 1221.77 1761.54 1287.84 1823.97C1320.5 1854.83 1362.53 1883.06 1410.26 1884.65C1478.25 1886.92 1535.53 1850.76 1590.51 1826.38C1594.85 1824.46 1599.22 1822.6 1603.6 1820.79C1669.99 1793.59 1740.67 1781.24 1810.03 1797.18C1883.94 1814.12 1956.25 1868.84 1978.36 1949.47" stroke="#CDCDCD" stroke-width="2.80973" stroke-miterlimit="10"/>
<path d="M-85.5174 1472.02C-42.2953 1519.05 5.18463 1561.96 55.8906 1600.44C78.4323 1617.55 102.021 1634.02 128.592 1643.96C196.357 1669.3 268.855 1648.43 329.949 1620.54C344.479 1613.92 358.806 1606.85 372.895 1599.32C413.493 1577.66 452.105 1552.37 488.233 1524C536.452 1486.13 580.759 1442.24 635.849 1407.45C690.811 1372.71 761.169 1349.26 819.793 1360.67C866.814 1351.52 909.142 1341.9 952.36 1342.11C981.909 1342.21 1012.83 1347.28 1040.93 1360.73C1053.88 1366.9 1066.26 1374.84 1077.7 1384.96C1123.1 1425.25 1142.81 1492.52 1160.38 1554.89C1162.11 1561.06 1163.88 1567.23 1165.68 1573.4C1193.98 1669.9 1241.34 1756.01 1312.87 1819.21C1345.39 1847.95 1386.37 1874.75 1432.7 1876.66C1498.71 1879.41 1554.92 1846.84 1608.75 1825.92C1612.99 1824.27 1617.26 1822.68 1621.55 1821.16C1686.44 1798.09 1754.52 1790.04 1820.25 1808.54C1890.29 1828.2 1957.57 1883.22 1977.08 1961.8" stroke="#C7C7C7" stroke-width="2.80973" stroke-miterlimit="10"/>
<path d="M-77.1774 1448.44C-35.2718 1494.16 10.954 1535.67 60.4134 1572.71C82.4 1589.17 105.398 1604.96 131.152 1614.72C196.811 1639.6 267.067 1621.86 327.029 1597.14C341.295 1591.27 355.375 1584.95 369.242 1578.19C409.206 1558.72 447.371 1535.68 483.259 1509.59C531.152 1474.76 575.451 1434.03 629.454 1401.21C683.314 1368.44 751.071 1345.57 807.999 1354.13C857.047 1342.65 901.424 1329.9 947.306 1327.58C978.679 1325.95 1011.8 1329.62 1042.08 1342.46C1056.03 1348.34 1069.41 1356.18 1081.79 1366.39C1130.92 1407.04 1152.43 1477.23 1171.83 1542.06C1173.75 1548.46 1175.7 1554.88 1177.7 1561.29C1209.02 1661.62 1260.72 1750.69 1337.88 1814.47C1370.19 1841.17 1410.19 1866.44 1455.12 1868.69C1519.15 1871.9 1574.29 1842.93 1626.96 1825.47C1631.11 1824.1 1635.29 1822.78 1639.48 1821.53C1702.87 1802.61 1768.35 1798.85 1830.45 1819.91C1896.62 1842.29 1958.87 1897.61 1975.78 1974.14" stroke="#C2C2C2" stroke-width="2.80973" stroke-miterlimit="10"/>
<path d="M-68.8252 1424.86C-28.2373 1469.27 16.7372 1509.39 64.9483 1544.97C86.3798 1560.79 108.789 1575.9 133.724 1585.48C197.279 1609.89 265.293 1595.29 324.119 1573.73C338.118 1568.61 351.955 1563.05 365.601 1557.05C404.931 1539.78 442.651 1518.99 478.294 1495.18C525.861 1463.4 570.155 1425.81 623.068 1394.96C675.826 1364.16 740.983 1341.89 796.213 1347.58C847.287 1333.77 893.715 1317.88 942.256 1313.04C975.453 1309.69 1010.78 1311.96 1043.23 1324.19C1058.19 1329.79 1072.55 1337.51 1085.88 1347.82C1138.73 1388.83 1162.06 1461.93 1183.3 1529.22C1185.4 1535.87 1187.54 1542.53 1189.73 1549.19C1224.07 1653.33 1279.93 1745.62 1362.91 1809.73C1394.94 1834.48 1434.02 1858.14 1477.55 1860.72C1539.6 1864.4 1593.67 1839.02 1645.18 1825.03C1649.24 1823.93 1653.32 1822.88 1657.42 1821.9C1719.32 1807.14 1782.19 1807.65 1840.67 1831.28C1902.96 1856.39 1960.19 1911.99 1974.49 1986.48" stroke="#BCBCBC" stroke-width="2.80973" stroke-miterlimit="10"/>
<path d="M-60.4715 1401.28C-21.2002 1444.37 22.5202 1483.1 69.4832 1517.23C90.3607 1532.4 112.175 1546.83 136.297 1556.23C197.746 1580.18 263.519 1568.72 321.209 1550.32C334.941 1545.95 348.534 1541.15 361.96 1535.91C400.656 1520.83 437.929 1502.29 473.329 1480.76C520.574 1452.02 564.857 1417.6 616.681 1388.71C668.338 1359.88 731.21 1347.51 784.423 1341.03C839.523 1334.32 886.009 1305.87 937.212 1298.5C972.234 1293.43 1009.76 1294.3 1044.39 1305.91C1060.35 1311.23 1075.71 1318.84 1089.97 1329.24C1146.55 1370.61 1171.69 1446.63 1194.77 1516.37C1197.05 1523.26 1199.38 1530.17 1201.76 1537.07C1239.12 1645.04 1298.99 1740.83 1387.93 1804.98C1419.66 1827.86 1457.85 1849.84 1499.98 1852.74C1560.05 1856.89 1613.05 1835.1 1663.41 1824.57C1667.38 1823.74 1671.36 1822.98 1675.36 1822.27C1735.76 1811.65 1796.04 1816.46 1850.88 1842.64C1909.3 1870.48 1961.5 1926.37 1973.19 1998.81" stroke="#B7B7B7" stroke-width="2.80973" stroke-miterlimit="10"/>
<path d="M-52.1234 1377.7C-14.1698 1419.48 28.2977 1456.82 74.0141 1489.5C94.3364 1504.02 115.56 1517.77 138.865 1527C198.213 1550.48 261.74 1542.16 318.298 1526.92C331.765 1523.3 345.116 1519.25 358.318 1514.78C396.38 1501.9 433.205 1485.6 468.364 1466.35C515.282 1440.66 559.561 1409.39 610.296 1382.48C660.853 1355.62 721.482 1342.85 772.64 1334.49C830.018 1325.11 878.297 1293.86 932.162 1283.97C969.005 1277.18 1008.74 1276.65 1045.54 1287.64C1062.5 1292.68 1078.85 1300.18 1094.06 1310.67C1154.37 1352.4 1181.32 1431.33 1206.23 1503.54C1208.69 1510.67 1211.21 1517.81 1213.78 1524.96C1254.16 1636.75 1317.87 1736.36 1412.95 1800.24C1444.34 1821.32 1481.67 1841.54 1522.41 1844.77C1580.5 1849.4 1632.43 1831.19 1681.63 1824.13C1685.51 1823.58 1689.4 1823.08 1693.29 1822.65C1752.2 1816.18 1809.87 1825.27 1861.09 1854.02C1915.64 1884.58 1962.82 1940.76 1971.9 2011.16" stroke="#B1B1B1" stroke-width="2.80973" stroke-miterlimit="10"/>
<path d="M-43.777 1354.12C-7.14263 1394.58 34.0751 1430.53 78.5417 1461.75C98.309 1475.63 118.942 1488.7 141.43 1497.75C198.673 1520.77 259.958 1515.58 315.381 1503.5C328.581 1500.63 341.688 1497.34 354.67 1493.63C392.098 1482.94 428.476 1468.89 463.392 1451.93C509.985 1429.28 554.256 1401.17 603.902 1376.22C653.357 1351.33 711.659 1338.07 760.845 1327.93C820.417 1315.65 870.579 1281.84 927.109 1269.43C965.778 1260.91 1007.72 1258.98 1046.68 1269.35C1064.65 1274.12 1082 1281.5 1098.14 1292.09C1162.18 1334.17 1190.94 1416.03 1217.7 1490.69C1220.33 1498.06 1223.04 1505.45 1225.81 1512.83C1269.21 1628.46 1336.59 1732.24 1437.98 1795.48C1469.02 1814.85 1505.5 1833.22 1544.83 1836.79C1600.95 1841.88 1651.81 1827.27 1699.85 1823.67C1703.64 1823.38 1707.43 1823.16 1711.22 1823.01C1768.64 1820.68 1823.72 1834.06 1871.3 1865.37C1921.98 1898.66 1964.13 1955.14 1970.6 2023.48" stroke="#ABABAB" stroke-width="2.80973" stroke-miterlimit="10"/>
<path d="M-35.4379 1330.52C-0.118535 1369.66 39.8435 1404.22 83.0635 1433.99C102.274 1447.23 122.32 1459.62 143.989 1468.49C199.128 1491.04 258.171 1489 312.461 1480.07C325.394 1477.96 338.257 1475.43 351.016 1472.48C387.811 1463.99 423.741 1452.18 458.414 1437.5C504.682 1417.9 548.947 1392.94 597.505 1369.96C645.858 1347.04 701.727 1333.22 749.045 1321.36C810.685 1305.92 862.86 1269.81 922.048 1254.87C962.544 1244.63 1006.68 1241.3 1047.82 1251.06C1066.79 1255.54 1085.14 1262.82 1102.22 1273.5C1169.99 1315.94 1200.56 1400.71 1229.15 1477.83C1231.97 1485.44 1234.86 1493.07 1237.82 1500.7C1284.25 1620.15 1355.15 1728.52 1462.99 1790.72C1493.69 1808.43 1529.31 1824.9 1567.25 1828.79C1621.39 1834.36 1671.18 1823.34 1718.06 1823.2C1721.75 1823.19 1725.45 1823.24 1729.15 1823.36C1785.06 1825.18 1837.55 1842.84 1881.5 1876.72C1928.31 1912.73 1965.43 1969.5 1969.3 2035.8" stroke="#A6A6A6" stroke-width="2.80973" stroke-miterlimit="10"/>
</g>
<path opacity="0.06" d="M752.768 2035.43C609.919 2150.85 419.93 2191.8 236.349 2197.37C121.965 2200.83 4.03936 2191.1 -98.807 2140.94C-201.627 2090.75 -287.077 1993.6 -297.781 1879.74C-304.5 1808.36 -282.259 1737.79 -260.304 1669.54C-218.113 1538.45 -175.896 1407.36 -133.706 1276.26C-109.485 1201.03 -83.4673 1122.79 -27.5516 1066.92C26.8796 1012.57 104.75 985.862 181.657 982.504C243.589 979.797 318.777 973.315 436.963 1042.45C484.545 1070.28 528.089 1104.46 567.051 1143.4C623.201 1199.52 679.351 1255.62 735.501 1311.74C805.116 1381.32 876.632 1453.77 911.947 1545.61C977.837 1716.99 895.591 1920.04 752.716 2035.46L752.768 2035.43Z" fill="url(#paint0_linear_478_14408)"/>
<path opacity="0.06" d="M1861.77 5049.43C1718.92 5164.85 1528.93 5205.8 1345.35 5211.37C1230.97 5214.83 1113.04 5205.1 1010.19 5154.94C907.373 5104.75 821.923 5007.6 811.219 4893.74C804.5 4822.36 826.741 4751.79 848.696 4683.54C890.887 4552.45 933.104 4421.36 975.294 4290.26C999.515 4215.03 1025.53 4136.79 1081.45 4080.92C1135.88 4026.57 1213.75 3999.86 1290.66 3996.5C1352.59 3993.8 1427.78 3987.32 1545.96 4056.45C1593.54 4084.28 1637.09 4118.46 1676.05 4157.4C1732.2 4213.52 1788.35 4269.62 1844.5 4325.74C1914.12 4395.32 1985.63 4467.77 2020.95 4559.61C2086.84 4730.99 2004.59 4934.04 1861.72 5049.46L1861.77 5049.43Z" fill="url(#paint1_linear_478_14408)"/>
<path opacity="0.06" d="M1986.77 7652.43C1843.92 7767.85 1653.93 7808.8 1470.35 7814.37C1355.97 7817.83 1238.04 7808.1 1135.19 7757.94C1032.37 7707.75 946.923 7610.6 936.219 7496.74C929.5 7425.36 951.741 7354.79 973.696 7286.54C1015.89 7155.45 1058.1 7024.36 1100.29 6893.26C1124.52 6818.03 1150.53 6739.79 1206.45 6683.92C1260.88 6629.57 1338.75 6602.86 1415.66 6599.5C1477.59 6596.8 1552.78 6590.32 1670.96 6659.45C1718.54 6687.28 1762.09 6721.46 1801.05 6760.4C1857.2 6816.52 1913.35 6872.62 1969.5 6928.74C2039.12 6998.32 2110.63 7070.77 2145.95 7162.61C2211.84 7333.99 2129.59 7537.04 1986.72 7652.46L1986.77 7652.43Z" fill="url(#paint2_linear_478_14408)"/>
<path opacity="0.06" d="M1955.77 10484.4C1812.92 10599.9 1622.93 10640.8 1439.35 10646.4C1324.97 10649.8 1207.04 10640.1 1104.19 10589.9C1001.37 10539.7 915.923 10442.6 905.219 10328.7C898.5 10257.4 920.741 10186.8 942.696 10118.5C984.887 9987.45 1027.1 9856.36 1069.29 9725.26C1093.52 9650.03 1119.53 9571.79 1175.45 9515.92C1229.88 9461.57 1307.75 9434.86 1384.66 9431.5C1446.59 9428.8 1521.78 9422.32 1639.96 9491.45C1687.54 9519.28 1731.09 9553.46 1770.05 9592.4C1826.2 9648.52 1882.35 9704.62 1938.5 9760.74C2008.12 9830.32 2079.63 9902.77 2114.95 9994.61C2180.84 10166 2098.59 10369 1955.72 10484.5L1955.77 10484.4Z" fill="url(#paint3_linear_478_14408)"/>
<path opacity="0.06" d="M1963.77 12807.4C1820.92 12922.9 1630.93 12963.8 1447.35 12969.4C1332.97 12972.8 1215.04 12963.1 1112.19 12912.9C1009.37 12862.7 923.923 12765.6 913.219 12651.7C906.5 12580.4 928.741 12509.8 950.696 12441.5C992.887 12310.4 1035.1 12179.4 1077.29 12048.3C1101.52 11973 1127.53 11894.8 1183.45 11838.9C1237.88 11784.6 1315.75 11757.9 1392.66 11754.5C1454.59 11751.8 1529.78 11745.3 1647.96 11814.5C1695.54 11842.3 1739.09 11876.5 1778.05 11915.4C1834.2 11971.5 1890.35 12027.6 1946.5 12083.7C2016.12 12153.3 2087.63 12225.8 2122.95 12317.6C2188.84 12489 2106.59 12692 1963.72 12807.5L1963.77 12807.4Z" fill="url(#paint4_linear_478_14408)"/>
<path opacity="0.06" d="M2760.1 2485.74C2707.52 2534.7 2642.04 2567.22 2577.01 2597.76C2409.55 2676.38 2237.2 2747.05 2056.66 2787.38C1876.12 2827.72 1686.27 2836.88 1506.6 2792.91C1417.1 2771.03 1324.8 2731.24 1277 2652.52C1223.85 2564.97 1239.3 2452.5 1270.21 2354.87C1301.11 2257.22 1346.12 2161.34 1347.38 2058.94C1348.31 1982.09 1324.35 1906.83 1322.37 1829.98C1318.76 1689.34 1395.34 1549.43 1515.74 1476.64C1588.02 1432.93 1674.39 1414.42 1758.51 1421.45C1828.8 1427.31 1887.52 1478.53 1902.58 1547.42C1902.67 1547.81 1902.76 1548.2 1902.85 1548.62C1924.5 1650.15 1884.84 1760.06 1919.66 1857.87C1951.13 1946.26 2038.56 2004.87 2129.29 2028.8C2220.03 2052.72 2315.48 2047.88 2409.31 2046.47C2503.14 2045.06 2599.89 2047.85 2685.9 2085.33C2771.92 2122.81 2845.58 2202.82 2848.88 2296.6C2851.41 2368.37 2812.69 2436.81 2760.1 2485.77V2485.74Z" fill="url(#paint5_linear_478_14408)"/>
<path opacity="0.06" d="M958.993 4000.43C914.034 4044.05 858.048 4073.02 802.448 4100.23C659.27 4170.28 511.902 4233.23 357.542 4269.16C203.182 4305.09 40.8528 4313.26 -112.762 4274.09C-189.286 4254.59 -268.201 4219.14 -309.073 4149.01C-354.519 4071.02 -341.307 3970.82 -314.882 3883.85C-288.457 3796.86 -249.976 3711.44 -248.897 3620.21C-248.1 3551.75 -268.587 3484.7 -270.283 3416.23C-273.368 3290.95 -207.897 3166.31 -104.947 3101.46C-43.1518 3062.52 30.6994 3046.03 102.623 3052.29C162.721 3057.52 212.924 3103.14 225.802 3164.51C225.879 3164.86 225.956 3165.21 226.034 3165.58C244.541 3256.03 210.636 3353.95 240.403 3441.08C267.316 3519.83 342.067 3572.04 419.645 3593.36C497.224 3614.67 578.838 3610.36 659.064 3609.1C739.29 3607.84 822.009 3610.33 895.552 3643.72C969.095 3677.11 1032.07 3748.39 1034.9 3831.93C1037.06 3895.87 1003.95 3956.84 958.993 4000.46V4000.43Z" fill="url(#paint6_linear_478_14408)"/>
<path opacity="0.06" d="M1491.1 6126.74C1438.52 6175.7 1373.04 6208.22 1308.01 6238.76C1140.55 6317.38 968.196 6388.05 787.66 6428.38C607.124 6468.72 417.268 6477.88 237.603 6433.91C148.102 6412.03 55.8046 6372.24 8.00241 6293.52C-45.1513 6205.97 -29.6982 6093.5 1.20785 5995.87C32.1139 5898.22 77.1203 5802.34 78.383 5699.94C79.315 5623.09 55.3536 5547.83 53.3693 5470.98C49.7616 5330.34 126.336 5190.43 246.743 5117.64C319.018 5073.93 405.392 5055.42 489.512 5062.45C559.802 5068.31 618.518 5119.53 633.58 5188.42C633.67 5188.81 633.761 5189.2 633.851 5189.62C655.497 5291.15 615.842 5401.06 650.657 5498.87C682.134 5587.26 769.561 5645.87 860.295 5669.8C951.029 5693.72 1046.48 5688.88 1140.31 5687.47C1234.14 5686.06 1330.89 5688.85 1416.9 5726.33C1502.92 5763.81 1576.58 5843.82 1579.88 5937.6C1582.41 6009.37 1543.69 6077.81 1491.1 6126.77V6126.74Z" fill="url(#paint7_linear_478_14408)"/>
<path opacity="0.06" d="M1474.1 8810.74C1421.52 8859.7 1356.04 8892.22 1291.01 8922.76C1123.55 9001.38 951.196 9072.05 770.66 9112.38C590.124 9152.72 400.268 9161.88 220.603 9117.91C131.102 9096.03 38.8046 9056.24 -8.99759 8977.52C-62.1513 8889.97 -46.6982 8777.5 -15.7922 8679.87C15.1139 8582.22 60.1203 8486.34 61.383 8383.94C62.315 8307.09 38.3536 8231.83 36.3693 8154.98C32.7616 8014.34 109.336 7874.43 229.743 7801.64C302.018 7757.93 388.392 7739.42 472.512 7746.45C542.802 7752.31 601.518 7803.53 616.58 7872.42C616.67 7872.81 616.761 7873.2 616.851 7873.62C638.497 7975.15 598.842 8085.06 633.657 8182.87C665.134 8271.26 752.561 8329.87 843.295 8353.8C934.029 8377.72 1029.48 8372.88 1123.31 8371.47C1217.14 8370.06 1313.89 8372.85 1399.9 8410.33C1485.92 8447.81 1559.58 8527.82 1562.88 8621.6C1565.41 8693.37 1526.69 8761.81 1474.1 8810.77V8810.74Z" fill="url(#paint8_linear_478_14408)"/>
<path opacity="0.06" d="M1451.1 11347.7C1398.52 11396.7 1333.04 11429.2 1268.01 11459.8C1100.55 11538.4 928.196 11609 747.66 11649.4C567.124 11689.7 377.268 11698.9 197.603 11654.9C108.102 11633 15.8046 11593.2 -31.9976 11514.5C-85.1513 11427 -69.6982 11314.5 -38.7922 11216.9C-7.88607 11119.2 37.1203 11023.3 38.383 10920.9C39.315 10844.1 15.3536 10768.8 13.3693 10692C9.7616 10551.3 86.3355 10411.4 206.743 10338.6C279.018 10294.9 365.392 10276.4 449.512 10283.5C519.802 10289.3 578.518 10340.5 593.58 10409.4C593.67 10409.8 593.761 10410.2 593.851 10410.6C615.497 10512.1 575.842 10622.1 610.657 10719.9C642.134 10808.3 729.561 10866.9 820.295 10890.8C911.029 10914.7 1006.48 10909.9 1100.31 10908.5C1194.14 10907.1 1290.89 10909.9 1376.9 10947.3C1462.92 10984.8 1536.58 11064.8 1539.88 11158.6C1542.41 11230.4 1503.69 11298.8 1451.1 11347.8V11347.7Z" fill="url(#paint9_linear_478_14408)"/>
<path opacity="0.06" d="M-658.155 372.984C-613.883 414.192 -558.753 441.564 -504.002 467.265C-363.012 533.442 -217.897 592.915 -65.8958 626.863C86.1049 660.811 245.953 668.527 397.219 631.517C472.574 613.101 550.283 579.608 590.53 513.356C635.282 439.666 622.272 345.006 596.251 262.841C570.23 180.652 532.337 99.9552 531.274 13.7689C530.489 -50.9151 550.663 -114.258 552.334 -178.942C555.371 -297.306 490.9 -415.063 389.524 -476.332C328.673 -513.114 255.951 -528.696 185.127 -522.777C125.947 -517.844 76.5116 -474.738 63.8301 -416.758C63.7541 -416.429 63.6783 -416.1 63.6023 -415.746C45.3774 -330.293 78.7645 -237.783 49.4528 -155.467C22.9508 -81.069 -50.6576 -31.7401 -127.05 -11.6039C-203.443 8.53241 -283.81 4.45956 -362.81 3.27061C-441.81 2.08165 -523.265 4.43432 -595.684 35.9795C-668.102 67.5246 -730.117 134.865 -732.902 213.791C-735.028 274.2 -702.426 331.801 -658.155 373.009V372.984Z" fill="url(#paint10_linear_478_14408)"/>
<path opacity="0.06" d="M2478.12 883.868C2423.18 934.995 2354.77 968.953 2286.83 1000.84C2111.87 1082.94 1931.78 1156.73 1743.16 1198.85C1554.53 1240.97 1356.17 1250.54 1168.46 1204.63C1074.95 1181.78 978.515 1140.22 928.571 1058.02C873.036 966.6 889.181 849.156 921.472 747.217C953.762 645.246 1000.79 545.127 1002.1 438.198C1003.08 357.946 978.043 279.357 975.97 199.105C972.201 52.2538 1052.21 -93.8444 1178.01 -169.859C1253.52 -215.494 1343.77 -234.827 1431.65 -227.483C1505.09 -221.363 1566.44 -167.882 1582.18 -95.9472C1582.27 -95.5392 1582.37 -95.1312 1582.46 -94.6918C1605.08 11.3275 1563.64 126.103 1600.02 228.231C1632.91 320.535 1724.25 381.736 1819.05 406.719C1913.85 431.701 2013.58 426.648 2111.61 425.173C2209.65 423.698 2310.73 426.617 2400.6 465.754C2490.47 504.892 2567.42 588.439 2570.88 686.361C2573.52 761.309 2533.06 832.773 2478.12 883.899V883.868Z" fill="url(#paint11_linear_478_14408)"/>
<path opacity="0.1" d="M1702 3454.97C1706.22 3463.86 1715.28 3470 1725.77 3470H1928C1950.08 3470 1968 3452.09 1968 3429.98C1968 3407.86 1950.1 3389.95 1928 3389.95C1922.79 3389.95 1917.84 3390.97 1913.29 3392.78C1906.35 3366.45 1882.39 3347 1853.88 3347C1820.84 3347 1793.88 3373.12 1792.51 3405.83C1788.41 3404.04 1783.88 3403 1779.09 3403C1763.6 3403 1750.61 3413.57 1746.81 3427.88C1742.02 3421.48 1734.4 3417.33 1725.8 3417.33" stroke="#3F4749" stroke-width="2" stroke-linecap="round" stroke-linejoin="round"/>
<g opacity="0.1">
<path d="M1657 12068H1611C1603.82 12068 1598 12073.8 1598 12081V12162C1598 12169.2 1603.82 12175 1611 12175H1657C1664.18 12175 1670 12169.2 1670 12162V12081C1670 12073.8 1664.18 12068 1657 12068Z" stroke="#3F4749" stroke-width="2" stroke-linecap="round" stroke-linejoin="round"/>
<path d="M1634 12170.5C1636.56 12170.5 1638.63 12168.5 1638.63 12165.9C1638.63 12163.3 1636.56 12161.3 1634 12161.3C1631.44 12161.3 1629.37 12163.3 1629.37 12165.9C1629.37 12168.5 1631.44 12170.5 1634 12170.5Z" stroke="#3F4749" stroke-width="2" stroke-linecap="round" stroke-linejoin="round"/>
<path d="M1649.83 12079.7C1650.82 12079.7 1651.62 12078.9 1651.62 12077.9C1651.62 12076.9 1650.82 12076.1 1649.83 12076.1C1648.84 12076.1 1648.04 12076.9 1648.04 12077.9C1648.04 12078.9 1648.84 12079.7 1649.83 12079.7Z" fill="#3F4749" stroke="#3F4749" stroke-width="2" stroke-linecap="round" stroke-linejoin="round"/>
<path d="M1643.19 12074.9H1624.81V12080.9H1643.19V12074.9Z" stroke="#3F4749" stroke-width="2" stroke-linecap="round" stroke-linejoin="round"/>
<path d="M1621.32 12125.9L1630.15 12117.1" stroke="#3F4749" stroke-width="2" stroke-linecap="round" stroke-linejoin="round"/>
<path d="M1637.85 12125.9L1646.69 12117.1" stroke="#3F4749" stroke-width="2" stroke-linecap="round" stroke-linejoin="round"/>
</g>
<path opacity="0.1" d="M307.38 12238H345.84C355.31 12238 362.99 12230.3 362.99 12220.9C362.99 12211.4 355.31 12203.7 345.84 12203.7C343.39 12203.7 341.07 12204.2 338.96 12205.2C338.25 12188.4 324.44 12175 307.5 12175C292.89 12175 280.6 12185 277.04 12198.5C274.7 12197.5 272.16 12197 269.5 12197C258.18 12197 249 12206.2 249 12217.5C249 12228.8 258.18 12238 269.5 12238H286.29" stroke="#3F4749" stroke-width="2" stroke-linecap="round" stroke-linejoin="round"/>
<path opacity="0.1" d="M1614.38 5821H1652.84C1662.31 5821 1669.99 5813.32 1669.99 5803.85C1669.99 5794.38 1662.31 5786.7 1652.84 5786.7C1650.39 5786.7 1648.07 5787.22 1645.96 5788.15C1645.25 5771.38 1631.44 5758 1614.5 5758C1599.89 5758 1587.6 5767.95 1584.04 5781.45C1581.7 5780.52 1579.16 5780 1576.5 5780C1565.18 5780 1556 5789.18 1556 5800.5C1556 5811.82 1565.18 5821 1576.5 5821H1593.29" stroke="#3F4749" stroke-width="2" stroke-linecap="round" stroke-linejoin="round"/>
<path opacity="0.1" d="M251.38 9605H289.84C299.31 9605 306.99 9597.32 306.99 9587.85C306.99 9578.38 299.31 9570.7 289.84 9570.7C287.39 9570.7 285.07 9571.22 282.96 9572.15C282.25 9555.38 268.44 9542 251.5 9542C236.89 9542 224.6 9551.95 221.04 9565.45C218.7 9564.52 216.16 9564 213.5 9564C202.18 9564 193 9573.18 193 9584.5C193 9595.82 202.18 9605 213.5 9605H230.29" stroke="#3F4749" stroke-width="2" stroke-linecap="round" stroke-linejoin="round"/>
</g>
<defs>
<linearGradient id="paint0_linear_478_14408" x1="-299.005" y1="1589.49" x2="935.048" y2="1589.49" gradientUnits="userSpaceOnUse">
<stop stop-color="#52CEFF"/>
<stop offset="1" stop-color="#8564D9"/>
</linearGradient>
<linearGradient id="paint1_linear_478_14408" x1="809.995" y1="4603.49" x2="2044.05" y2="4603.49" gradientUnits="userSpaceOnUse">
<stop stop-color="#52CEFF"/>
<stop offset="1" stop-color="#8564D9"/>
</linearGradient>
<linearGradient id="paint2_linear_478_14408" x1="934.995" y1="7206.49" x2="2169.05" y2="7206.49" gradientUnits="userSpaceOnUse">
<stop stop-color="#52CEFF"/>
<stop offset="1" stop-color="#8564D9"/>
</linearGradient>
<linearGradient id="paint3_linear_478_14408" x1="903.995" y1="10038.5" x2="2138.05" y2="10038.5" gradientUnits="userSpaceOnUse">
<stop stop-color="#52CEFF"/>
<stop offset="1" stop-color="#8564D9"/>
</linearGradient>
<linearGradient id="paint4_linear_478_14408" x1="911.995" y1="12361.5" x2="2146.05" y2="12361.5" gradientUnits="userSpaceOnUse">
<stop stop-color="#52CEFF"/>
<stop offset="1" stop-color="#8564D9"/>
</linearGradient>
<linearGradient id="paint5_linear_478_14408" x1="1241.98" y1="2120.98" x2="2849" y2="2120.98" gradientUnits="userSpaceOnUse">
<stop stop-color="#52CEFF"/>
<stop offset="1" stop-color="#8564D9"/>
</linearGradient>
<linearGradient id="paint6_linear_478_14408" x1="-339.019" y1="3675.48" x2="1035" y2="3675.48" gradientUnits="userSpaceOnUse">
<stop stop-color="#52CEFF"/>
<stop offset="1" stop-color="#8564D9"/>
</linearGradient>
<linearGradient id="paint7_linear_478_14408" x1="-27.0225" y1="5761.98" x2="1580" y2="5761.98" gradientUnits="userSpaceOnUse">
<stop stop-color="#52CEFF"/>
<stop offset="1" stop-color="#8564D9"/>
</linearGradient>
<linearGradient id="paint8_linear_478_14408" x1="-44.0225" y1="8445.98" x2="1563" y2="8445.98" gradientUnits="userSpaceOnUse">
<stop stop-color="#52CEFF"/>
<stop offset="1" stop-color="#8564D9"/>
</linearGradient>
<linearGradient id="paint9_linear_478_14408" x1="-67.0225" y1="10983" x2="1540" y2="10983" gradientUnits="userSpaceOnUse">
<stop stop-color="#52CEFF"/>
<stop offset="1" stop-color="#8564D9"/>
</linearGradient>
<linearGradient id="paint10_linear_478_14408" x1="620.019" y1="65.9815" x2="-733.003" y2="65.9815" gradientUnits="userSpaceOnUse">
<stop stop-color="#52CEFF"/>
<stop offset="1" stop-color="#8564D9"/>
</linearGradient>
<linearGradient id="paint11_linear_478_14408" x1="891.976" y1="502.977" x2="2571" y2="502.977" gradientUnits="userSpaceOnUse">
<stop stop-color="#52CEFF"/>
<stop offset="1" stop-color="#8564D9"/>
</linearGradient>
<clipPath id="clip0_478_14408">
<rect width="1920" height="13047" fill="white"/>
</clipPath>
</defs>
</svg>
