<svg width="40" height="40" viewBox="0 0 40 40" fill="none" xmlns="http://www.w3.org/2000/svg">
<rect width="40" height="40" rx="20" fill="white"/>
<rect width="40" height="40" rx="20" fill="url(#paint0_linear_314_1892)"/>
<path d="M14.0964 11.8345C14.096 12.4533 13.8499 13.0467 13.4121 13.4841C12.9743 13.9214 12.3807 14.167 11.7619 14.1667C11.143 14.1664 10.5496 13.9202 10.1123 13.4824C9.67491 13.0446 9.42938 12.451 9.42969 11.8322C9.43 11.2133 9.67613 10.62 10.1139 10.1826C10.5517 9.74523 11.1453 9.49969 11.7642 9.5C12.383 9.50031 12.9764 9.74644 13.4138 10.1842C13.8511 10.622 14.0967 11.2157 14.0964 11.8345ZM14.1664 15.8945H9.49969V30.5012H14.1664V15.8945ZM21.5397 15.8945H16.8964V30.5012H21.493V22.8362C21.493 18.5662 27.058 18.1695 27.058 22.8362V30.5012H31.6664V21.2495C31.6664 14.0512 23.4297 14.3195 21.493 17.8545L21.5397 15.8945Z" fill="white"/>
<defs>
<linearGradient id="paint0_linear_314_1892" x1="0" y1="20" x2="40" y2="20" gradientUnits="userSpaceOnUse">
<stop stop-color="#FF3934"/>
<stop offset="1" stop-color="#FF7033"/>
</linearGradient>
</defs>
</svg>
