<svg width="80" height="80" viewBox="0 0 80 80" fill="none" xmlns="http://www.w3.org/2000/svg">
<path d="M52.3529 11.6667C52.3529 11.2246 52.5389 10.8007 52.8698 10.4882C53.2008 10.1756 53.6496 10 54.1176 10H68.2353C68.7033 10 69.1522 10.1756 69.4831 10.4882C69.8141 10.8007 70 11.2246 70 11.6667V28.3333C70 28.7754 69.8141 29.1993 69.4831 29.5118C69.1522 29.8244 68.7033 30 68.2353 30H62.9412V68.3333C62.9412 68.7754 62.7553 69.1993 62.4243 69.5118C62.0934 69.8244 61.6445 70 61.1765 70C60.7084 70 60.2596 69.8244 59.9286 69.5118C59.5977 69.1993 59.4118 68.7754 59.4118 68.3333V30H54.1176C53.6496 30 53.2008 29.8244 52.8698 29.5118C52.5389 29.1993 52.3529 28.7754 52.3529 28.3333V11.6667ZM48.8235 16.6667H24.6118C22.5715 16.6663 20.5942 17.3337 19.0163 18.5553C17.4384 19.7769 16.3575 21.4771 15.9576 23.3667L15.2588 26.6667H12.6471C11.945 26.6667 11.2717 26.9301 10.7753 27.3989C10.2789 27.8677 10 28.5036 10 29.1667C10 29.8297 10.2789 30.4656 10.7753 30.9344C11.2717 31.4033 11.945 31.6667 12.6471 31.6667H14.2L13.8082 33.5333C12.7092 33.8369 11.744 34.4687 11.0574 35.3341C10.3708 36.1996 9.99978 37.2519 10 38.3333V55C10 56.3261 10.5578 57.5979 11.5506 58.5355C12.5435 59.4732 13.89 60 15.2941 60H17.0588V63.3333C17.0588 64.2174 17.4307 65.0652 18.0926 65.6904C18.7545 66.3155 19.6522 66.6667 20.5882 66.6667C21.5243 66.6667 22.422 66.3155 23.0839 65.6904C23.7458 65.0652 24.1176 64.2174 24.1176 63.3333V60H52.3529V63.3333C52.3529 64.2174 52.7248 65.0652 53.3867 65.6904C54.0486 66.3155 54.9463 66.6667 55.8824 66.6667V56.6667H15.2941C14.8261 56.6667 14.3772 56.4911 14.0463 56.1785C13.7153 55.866 13.5294 55.442 13.5294 55V38.3333C13.5294 37.8913 13.7153 37.4674 14.0463 37.1548C14.3772 36.8423 14.8261 36.6667 15.2941 36.6667H55.8824V33.3333H17.4471L19.42 24.02C19.6598 22.8869 20.3077 21.8673 21.2535 21.1344C22.1994 20.4016 23.3848 20.0007 24.6082 20H48.8235V16.6667ZM55.8824 46.6667C55.8824 45.7826 55.5105 44.9348 54.8486 44.3096C54.1867 43.6845 53.289 43.3333 52.3529 43.3333C51.4169 43.3333 50.5192 43.6845 49.8573 44.3096C49.1954 44.9348 48.8235 45.7826 48.8235 46.6667C48.8235 47.5507 49.1954 48.3986 49.8573 49.0237C50.5192 49.6488 51.4169 50 52.3529 50C53.289 50 54.1867 49.6488 54.8486 49.0237C55.5105 48.3986 55.8824 47.5507 55.8824 46.6667ZM27.6471 46.6667C27.6471 45.7826 27.2752 44.9348 26.6133 44.3096C25.9514 43.6845 25.0537 43.3333 24.1176 43.3333C23.1816 43.3333 22.2839 43.6845 21.622 44.3096C20.9601 44.9348 20.5882 45.7826 20.5882 46.6667C20.5882 47.5507 20.9601 48.3986 21.622 49.0237C22.2839 49.6488 23.1816 50 24.1176 50C25.0537 50 25.9514 49.6488 26.6133 49.0237C27.2752 48.3986 27.6471 47.5507 27.6471 46.6667Z" fill="#D8D8D8"/>
<path d="M52.3529 11.6667C52.3529 11.2246 52.5389 10.8007 52.8698 10.4882C53.2008 10.1756 53.6496 10 54.1176 10H68.2353C68.7033 10 69.1522 10.1756 69.4831 10.4882C69.8141 10.8007 70 11.2246 70 11.6667V28.3333C70 28.7754 69.8141 29.1993 69.4831 29.5118C69.1522 29.8244 68.7033 30 68.2353 30H62.9412V68.3333C62.9412 68.7754 62.7553 69.1993 62.4243 69.5118C62.0934 69.8244 61.6445 70 61.1765 70C60.7084 70 60.2596 69.8244 59.9286 69.5118C59.5977 69.1993 59.4118 68.7754 59.4118 68.3333V30H54.1176C53.6496 30 53.2008 29.8244 52.8698 29.5118C52.5389 29.1993 52.3529 28.7754 52.3529 28.3333V11.6667ZM48.8235 16.6667H24.6118C22.5715 16.6663 20.5942 17.3337 19.0163 18.5553C17.4384 19.7769 16.3575 21.4771 15.9576 23.3667L15.2588 26.6667H12.6471C11.945 26.6667 11.2717 26.9301 10.7753 27.3989C10.2789 27.8677 10 28.5036 10 29.1667C10 29.8297 10.2789 30.4656 10.7753 30.9344C11.2717 31.4033 11.945 31.6667 12.6471 31.6667H14.2L13.8082 33.5333C12.7092 33.8369 11.744 34.4687 11.0574 35.3341C10.3708 36.1996 9.99978 37.2519 10 38.3333V55C10 56.3261 10.5578 57.5979 11.5506 58.5355C12.5435 59.4732 13.89 60 15.2941 60H17.0588V63.3333C17.0588 64.2174 17.4307 65.0652 18.0926 65.6904C18.7545 66.3155 19.6522 66.6667 20.5882 66.6667C21.5243 66.6667 22.422 66.3155 23.0839 65.6904C23.7458 65.0652 24.1176 64.2174 24.1176 63.3333V60H52.3529V63.3333C52.3529 64.2174 52.7248 65.0652 53.3867 65.6904C54.0486 66.3155 54.9463 66.6667 55.8824 66.6667V56.6667H15.2941C14.8261 56.6667 14.3772 56.4911 14.0463 56.1785C13.7153 55.866 13.5294 55.442 13.5294 55V38.3333C13.5294 37.8913 13.7153 37.4674 14.0463 37.1548C14.3772 36.8423 14.8261 36.6667 15.2941 36.6667H55.8824V33.3333H17.4471L19.42 24.02C19.6598 22.8869 20.3077 21.8673 21.2535 21.1344C22.1994 20.4016 23.3848 20.0007 24.6082 20H48.8235V16.6667ZM55.8824 46.6667C55.8824 45.7826 55.5105 44.9348 54.8486 44.3096C54.1867 43.6845 53.289 43.3333 52.3529 43.3333C51.4169 43.3333 50.5192 43.6845 49.8573 44.3096C49.1954 44.9348 48.8235 45.7826 48.8235 46.6667C48.8235 47.5507 49.1954 48.3986 49.8573 49.0237C50.5192 49.6488 51.4169 50 52.3529 50C53.289 50 54.1867 49.6488 54.8486 49.0237C55.5105 48.3986 55.8824 47.5507 55.8824 46.6667ZM27.6471 46.6667C27.6471 45.7826 27.2752 44.9348 26.6133 44.3096C25.9514 43.6845 25.0537 43.3333 24.1176 43.3333C23.1816 43.3333 22.2839 43.6845 21.622 44.3096C20.9601 44.9348 20.5882 45.7826 20.5882 46.6667C20.5882 47.5507 20.9601 48.3986 21.622 49.0237C22.2839 49.6488 23.1816 50 24.1176 50C25.0537 50 25.9514 49.6488 26.6133 49.0237C27.2752 48.3986 27.6471 47.5507 27.6471 46.6667Z" fill="url(#paint0_linear_247_39983)"/>
<path fill-rule="evenodd" clip-rule="evenodd" d="M60.8359 27.6258L61.4669 26.956C62.1829 26.1835 62.8269 25.4506 63.3999 24.7535L63.8729 24.1657C65.8479 21.659 66.8359 19.6694 66.8359 18.1989C66.8359 15.06 64.1499 12.5156 60.8359 12.5156C57.5219 12.5156 54.8359 15.06 54.8359 18.1989C54.8359 19.6694 55.8239 21.659 57.7989 24.1657L58.2719 24.7535C59.0894 25.7402 59.9446 26.6976 60.8359 27.6258Z" stroke="white" stroke-width="0.983333" stroke-linecap="round" stroke-linejoin="round"/>
<path d="M60.8359 20.5246C62.2166 20.5246 63.3359 19.4702 63.3359 18.1695C63.3359 16.8689 62.2166 15.8145 60.8359 15.8145C59.4552 15.8145 58.3359 16.8689 58.3359 18.1695C58.3359 19.4702 59.4552 20.5246 60.8359 20.5246Z" stroke="white" stroke-width="0.983333" stroke-linecap="round" stroke-linejoin="round"/>
<defs>
<linearGradient id="paint0_linear_247_39983" x1="10" y1="40" x2="70" y2="40" gradientUnits="userSpaceOnUse">
<stop stop-color="#FF3934"/>
<stop offset="1" stop-color="#FF7033"/>
</linearGradient>
</defs>
</svg>
