<svg width="170" height="170" viewBox="0 0 170 170" fill="none" xmlns="http://www.w3.org/2000/svg">
<g filter="url(#filter0_d_314_2073)">
<rect x="10" y="10" width="150" height="150" rx="75" fill="white"/>
</g>
<path d="M84.8492 35.8027L38.5547 52.0949L45.8695 112.749L84.8984 134.2L124.128 112.459L131.441 51.8066L84.8492 35.8027Z" fill="#B3B3B3"/>
<path d="M126.823 55.3117L84.7422 40.9609V129.074L120.009 109.556L126.823 55.3117Z" fill="#A6120D"/>
<path d="M43.75 55.5699L50.0203 109.815L84.7422 129.074V40.959L43.75 55.5699Z" fill="#DD1B16"/>
<path d="M96.3281 87.866L84.7445 93.2832H72.5352L66.7953 107.638L56.1211 107.836L84.7445 44.1582L96.3281 87.866ZM95.2078 85.1387L84.8211 64.5754L76.3008 84.7848H84.7438L95.2078 85.1387Z" fill="#F2F2F2"/>
<path d="M84.7422 44.1582L84.8187 64.5754L94.4867 84.8004H84.7633L84.7422 93.2699L98.1867 93.2832L104.47 107.838L114.684 108.027L84.7422 44.1582Z" fill="#B3B3B3"/>
<defs>
<filter id="filter0_d_314_2073" x="0" y="0" width="170" height="170" filterUnits="userSpaceOnUse" color-interpolation-filters="sRGB">
<feFlood flood-opacity="0" result="BackgroundImageFix"/>
<feColorMatrix in="SourceAlpha" type="matrix" values="0 0 0 0 0 0 0 0 0 0 0 0 0 0 0 0 0 0 127 0" result="hardAlpha"/>
<feOffset/>
<feGaussianBlur stdDeviation="5"/>
<feComposite in2="hardAlpha" operator="out"/>
<feColorMatrix type="matrix" values="0 0 0 0 0 0 0 0 0 0 0 0 0 0 0 0 0 0 0.25 0"/>
<feBlend mode="normal" in2="BackgroundImageFix" result="effect1_dropShadow_314_2073"/>
<feBlend mode="normal" in="SourceGraphic" in2="effect1_dropShadow_314_2073" result="shape"/>
</filter>
</defs>
</svg>
