<svg width="170" height="170" viewBox="0 0 170 170" fill="none" xmlns="http://www.w3.org/2000/svg">
<g filter="url(#filter0_d_314_2128)">
<rect x="10" y="10" width="150" height="150" rx="75" fill="white"/>
</g>
<path d="M56.6863 50.9547C50.9425 59.2086 51.6574 69.9484 56.0457 78.7203L56.3668 79.3438L56.5722 79.7391L56.7003 79.9664L56.9293 80.3758C57.0652 80.6156 57.205 80.8539 57.348 81.0938L57.5871 81.4875C57.7457 81.7422 57.9074 81.9953 58.073 82.2477L58.28 82.5672C58.5089 82.9086 58.7425 83.2484 58.9839 83.5836L59.0043 83.6094L59.123 83.7695C59.3316 84.057 59.5464 84.3414 59.7644 84.6234L60.0058 84.9305C60.2003 85.175 60.398 85.4172 60.5988 85.6602L60.8253 85.9305C61.0949 86.2477 61.3707 86.5648 61.6511 86.8742L61.6675 86.8914L61.6996 86.9266C61.9738 87.2258 62.2543 87.5187 62.5394 87.8117L62.8082 88.0828C63.0285 88.3047 63.2527 88.5227 63.4785 88.7398L63.7527 89.0008C64.055 89.2852 64.3597 89.5648 64.6714 89.8367L64.6855 89.8492L64.8457 89.9852C65.1199 90.2234 65.3988 90.4578 65.68 90.6898L66.0253 90.9656C66.255 91.1492 66.4871 91.3312 66.7207 91.5094L67.0933 91.7914C67.3511 91.9813 67.6113 92.168 67.8738 92.3516L68.1574 92.5531L68.2363 92.6094C68.4847 92.7812 68.7402 92.9461 68.9941 93.1109L69.3222 93.3297C69.7128 93.5758 70.1089 93.8203 70.5089 94.0563L70.8371 94.2414C71.1316 94.4109 71.4277 94.5781 71.7277 94.7406L72.2207 94.9953L72.8582 95.3266L73.005 95.3977L73.266 95.5234C73.5996 95.6828 73.9363 95.8398 74.2761 95.9914L74.4894 96.0867C74.8785 96.257 75.2714 96.4203 75.6675 96.5773L75.955 96.6898C76.3214 96.832 76.6933 96.9703 77.0668 97.1016L77.2066 97.15C77.616 97.2938 78.03 97.4258 78.4464 97.5562L78.7457 97.6453C79.1691 97.7734 79.5886 97.925 80.0253 98.0062C107.801 103.071 115.869 81.3156 115.869 81.3156C109.093 90.1438 97.0652 92.4719 85.6691 89.8797C85.2371 89.782 84.8183 89.6469 84.3972 89.5234L84.08 89.4266C83.6693 89.3013 83.2609 89.1684 82.855 89.0281L82.6871 88.968C82.3252 88.8397 81.9653 88.7061 81.6074 88.5672L81.3043 88.4484C80.9128 88.2938 80.523 88.132 80.1386 87.9641L79.9058 87.8602C79.5761 87.7119 79.2482 87.5596 78.9222 87.4031L78.6378 87.2664C78.3824 87.1422 78.13 87.0102 77.8769 86.8797L77.3699 86.6133C77.0613 86.4492 76.7589 86.2773 76.4582 86.1023L76.1503 85.9313C75.7508 85.6946 75.3549 85.4519 74.9628 85.2031L74.6425 84.9898C74.358 84.8071 74.0765 84.6199 73.798 84.4281L73.5253 84.2367C73.257 84.0476 72.9908 83.8554 72.7269 83.6602L72.373 83.3922C72.1308 83.207 71.8902 83.0203 71.6527 82.8289L71.3316 82.5711C71.0285 82.3227 70.7292 82.0711 70.4339 81.8141L70.3355 81.732C70.0167 81.4508 69.7021 81.1648 69.3918 80.8742L69.1261 80.618C68.896 80.4005 68.67 80.1789 68.448 79.9531L68.1824 79.6875C67.8996 79.3984 67.6222 79.1055 67.3503 78.8078L67.3089 78.7633C67.0215 78.4487 66.7402 78.1286 66.4652 77.8031L66.2441 77.5406C66.0383 77.2932 65.8359 77.0429 65.6371 76.7898L65.4144 76.5125C65.1761 76.2046 64.9423 75.8934 64.7128 75.5789C58.3863 66.9484 56.1128 55.0453 61.1699 45.2703M74.5144 44C70.3613 49.9766 70.5863 57.9789 73.8269 64.2992C74.3691 65.3617 74.9827 66.3862 75.6636 67.3656C76.2855 68.2586 76.9761 69.3195 77.8019 70.0359C78.1011 70.3656 78.4144 70.6875 78.7339 71.0031L78.9793 71.2461C79.2894 71.5469 79.605 71.843 79.9308 72.1305L79.9699 72.1641L79.9793 72.1734C80.3402 72.4898 80.7128 72.7938 81.091 73.0938L81.3433 73.2906C81.723 73.5813 82.1097 73.8672 82.5066 74.1398L82.5402 74.1656L83.0714 74.5148L83.323 74.6813C83.6066 74.8633 83.8933 75.0398 84.1855 75.2094L84.3074 75.2812C84.5589 75.4258 84.8136 75.568 85.0691 75.707L85.3402 75.8477L85.873 76.1242L85.9535 76.1609C86.3199 76.3406 86.6886 76.5148 87.066 76.6789L87.3113 76.7805C87.6128 76.9078 87.9168 77.0328 88.223 77.15L88.6136 77.2938C88.8918 77.3969 89.1699 77.4914 89.4511 77.5852L89.8293 77.7062C90.2285 77.8297 90.6238 77.9867 91.0394 78.0563C112.485 81.6086 117.436 65.0969 117.436 65.0969C112.973 71.525 104.33 74.5914 95.1074 72.1977C94.6998 72.0902 94.2947 71.9732 93.8925 71.8469L93.5277 71.7289C93.2427 71.6371 92.9596 71.5397 92.6785 71.4367L92.2949 71.2938C91.9879 71.1756 91.6829 71.0524 91.38 70.9242L91.1339 70.8203C90.7569 70.6559 90.3839 70.4824 90.0152 70.3L89.4543 70.0148L89.1308 69.8484C88.8918 69.7188 88.6543 69.5844 88.4207 69.4469L88.2511 69.3508C87.961 69.1818 87.6745 69.0068 87.3918 68.8258L87.1324 68.6531L86.5761 68.2844C86.1828 68.0114 85.7962 67.7287 85.4167 67.4367L85.1558 67.2305C81.1191 64.0438 77.9191 59.6875 76.398 54.7484C74.8035 49.6258 75.1472 43.8758 77.9097 39.2086M89.5089 38.8039C87.0605 42.407 86.8199 46.8828 88.5191 50.8625C90.3105 55.0867 93.9816 58.4 98.2668 59.9719L98.7996 60.1555L99.0339 60.2305C99.2863 60.3102 99.5371 60.4023 99.798 60.4508C111.639 62.7391 114.851 54.375 115.706 53.143C112.893 57.1938 108.164 58.1664 102.363 56.7578C101.888 56.6367 101.42 56.492 100.96 56.3242C100.392 56.1225 99.8359 55.8914 99.2925 55.632C98.2619 55.1356 97.2829 54.5385 96.3699 53.8492C91.1785 49.9102 87.9543 42.3969 91.3417 36.2773" fill="#0868AC"/>
<path d="M86.8441 110.23H83.5426C83.4492 110.234 83.3594 110.268 83.2866 110.326C83.2139 110.385 83.162 110.466 83.1387 110.556L81.9668 115.978L80.7949 121.4C80.7719 121.491 80.7202 121.571 80.6475 121.63C80.5749 121.689 80.4851 121.722 80.3918 121.726H78.0551C75.7434 121.726 76.0105 120.127 76.484 117.936L76.498 117.87L76.5496 117.593L76.559 117.541L76.6644 116.979L76.7777 116.377L76.898 115.763L77.4309 113.16L77.9644 110.557C77.9746 110.517 77.9753 110.476 77.9665 110.436C77.9577 110.396 77.9397 110.358 77.9137 110.326C77.8878 110.294 77.8548 110.269 77.8174 110.252C77.7799 110.236 77.739 110.228 77.698 110.23H74.3098C74.2164 110.233 74.1267 110.267 74.0543 110.326C73.9818 110.385 73.9305 110.466 73.9082 110.556L73.1793 114.013L72.4512 117.47L72.4496 117.474L72.3824 117.796C71.5434 121.627 71.7652 125.28 76.3262 125.395L76.459 125.398H83.6176C83.7109 125.394 83.8006 125.361 83.8733 125.302C83.9459 125.243 83.9977 125.162 84.0207 125.072L85.5644 117.815L87.1082 110.557C87.1465 110.377 87.0277 110.231 86.8441 110.23ZM51.4879 110.192H47.8629C47.7692 110.196 47.6792 110.229 47.606 110.288C47.5327 110.346 47.4801 110.427 47.4559 110.517L47.1121 112.034L46.7684 113.552C46.7285 113.73 46.8449 113.877 47.0285 113.877H50.6816C50.7752 113.873 50.8651 113.84 50.938 113.781C51.011 113.722 51.063 113.641 51.0863 113.551L51.4184 112.034L51.7504 110.518C51.7887 110.339 51.6715 110.192 51.4879 110.192ZM50.4363 114.914H46.7824C46.6888 114.918 46.5988 114.951 46.5256 115.01C46.4524 115.068 46.3998 115.149 46.3754 115.239L45.8621 117.513L45.3496 119.785L45.2066 120.437L44.7137 122.757L44.2215 125.078C44.1832 125.257 44.1043 125.546 44.0457 125.72C44.0457 125.72 43.3629 127.751 42.2152 127.727L42.0715 127.724L41.0785 127.706C40.9852 127.708 40.8943 127.741 40.8206 127.798C40.747 127.855 40.6936 127.934 40.6684 128.024L40.2894 129.617L39.9113 131.209C39.8684 131.388 39.984 131.534 40.166 131.538C40.8168 131.545 42.2746 131.562 43.1566 131.562C46.023 131.562 47.5348 129.973 48.5027 125.403L49.6363 120.158L50.6996 115.238C50.7379 115.061 50.6191 114.914 50.4363 114.914ZM117.715 113.684L117.564 113.059L117.414 112.418L117.339 112.095C117.042 110.941 116.171 110.276 114.279 110.276L111.333 110.273L108.621 110.269H105.568C105.475 110.272 105.385 110.306 105.313 110.365C105.24 110.423 105.189 110.504 105.166 110.595L105.031 111.232L104.871 111.985L104.827 112.197L103.453 118.634L102.148 124.745C102.109 124.925 102.096 125.145 102.118 125.234C102.14 125.324 102.493 125.398 102.675 125.398H105.429C105.612 125.398 105.844 125.365 105.944 125.324C106.044 125.284 106.192 124.923 106.229 124.745L106.718 122.323L107.207 119.902L107.208 119.898L107.274 119.575L107.868 116.794L108.392 114.338C108.415 114.247 108.467 114.167 108.539 114.108C108.611 114.049 108.701 114.016 108.794 114.012L117.457 114.008C117.641 114.009 117.757 113.863 117.715 113.684ZM128.868 108.028L128.2 108.03H125.428C125.326 108.036 125.227 108.064 125.137 108.111C125.047 108.159 124.968 108.225 124.907 108.306L118.775 117.289C118.671 117.441 118.554 117.419 118.513 117.241L118.061 115.262C118.037 115.171 117.984 115.091 117.911 115.032C117.837 114.974 117.747 114.94 117.654 114.937H113.712C113.529 114.937 113.42 115.08 113.47 115.256L115.236 121.445C115.286 121.621 115.29 121.91 115.245 122.088L114.475 125.083C114.429 125.261 114.542 125.405 114.725 125.405H118.621C118.716 125.402 118.806 125.368 118.881 125.311C118.955 125.253 119.01 125.173 119.037 125.083L119.807 122.088C119.868 121.877 119.964 121.678 120.091 121.498L130.046 108.287C130.157 108.14 130.096 108.02 129.914 108.022L128.868 108.028ZM97.5504 115.777V115.774C97.5369 115.869 97.4902 115.955 97.4188 116.018C97.3474 116.081 97.2558 116.117 97.1605 116.119H92.1629C91.9894 116.119 91.9019 116.002 91.9277 115.856L91.9324 115.845L91.9293 115.846L91.9316 115.83L91.9543 115.745C92.4316 114.476 93.4035 113.643 95.2309 113.643C97.2887 113.642 97.6902 114.647 97.5504 115.777ZM96.084 110.009C89.6691 110.009 88.1488 113.902 87.2957 117.833C86.4433 121.839 86.516 125.584 93.1551 125.584H93.9598L94.1598 125.583H94.2066L95.0035 125.58H95.0176C96.7707 125.573 98.5293 125.56 99.241 125.555C99.3337 125.55 99.4225 125.516 99.4941 125.456C99.5658 125.397 99.6164 125.317 99.6387 125.227L99.9074 123.913L99.9598 123.658L100.28 122.091C100.29 122.051 100.291 122.009 100.282 121.969C100.273 121.929 100.255 121.892 100.229 121.86C100.203 121.828 100.17 121.803 100.133 121.786C100.095 121.77 100.055 121.762 100.014 121.764H94.0457C91.6715 121.764 90.9668 121.134 91.2269 119.279H100.767L100.766 119.28L100.772 119.279C100.848 119.276 100.921 119.251 100.982 119.207C101.044 119.163 101.092 119.103 101.12 119.033L101.143 118.95L101.142 118.951C102.558 113.608 102.152 110.009 96.084 110.009ZM65.7637 115.757L65.673 116.077L64.9527 118.63L64.2324 121.183C64.203 121.273 64.1465 121.353 64.0707 121.41C63.9948 121.467 63.9032 121.5 63.8082 121.504H59.9957C57.1035 121.504 56.3988 119.241 57.1035 115.905C57.8074 112.493 59.1879 110.372 62.0348 110.157C65.9254 109.863 66.7035 112.599 65.7637 115.757ZM68.3793 121.308C68.3793 121.308 70.1769 116.942 70.5848 114.422C71.1418 111.048 69.4519 106.152 62.9254 106.152C56.4363 106.152 53.6176 110.825 52.5426 115.905C51.4676 121.023 52.8762 125.509 59.3285 125.473L64.4191 125.454L69.1762 125.437C69.2705 125.432 69.361 125.398 69.4356 125.341C69.5103 125.283 69.5653 125.203 69.5934 125.113L70.4223 121.952C70.4684 121.774 70.3566 121.629 70.173 121.627L69.3785 121.623L68.584 121.618C68.4285 121.617 68.3394 121.516 68.3582 121.382L68.3793 121.308ZM100.504 118.385C100.504 118.414 100.499 118.442 100.488 118.469C100.477 118.495 100.461 118.52 100.44 118.54C100.42 118.56 100.396 118.576 100.37 118.587C100.343 118.599 100.315 118.604 100.286 118.604C100.257 118.604 100.229 118.599 100.202 118.588C100.176 118.577 100.151 118.561 100.131 118.541C100.111 118.52 100.095 118.496 100.084 118.47C100.073 118.443 100.067 118.415 100.067 118.386C100.067 118.328 100.09 118.272 100.131 118.231C100.172 118.19 100.227 118.167 100.285 118.167C100.343 118.167 100.399 118.19 100.44 118.231C100.481 118.272 100.504 118.327 100.504 118.385Z" fill="#131B28"/>
<defs>
<filter id="filter0_d_314_2128" x="0" y="0" width="170" height="170" filterUnits="userSpaceOnUse" color-interpolation-filters="sRGB">
<feFlood flood-opacity="0" result="BackgroundImageFix"/>
<feColorMatrix in="SourceAlpha" type="matrix" values="0 0 0 0 0 0 0 0 0 0 0 0 0 0 0 0 0 0 127 0" result="hardAlpha"/>
<feOffset/>
<feGaussianBlur stdDeviation="5"/>
<feComposite in2="hardAlpha" operator="out"/>
<feColorMatrix type="matrix" values="0 0 0 0 0 0 0 0 0 0 0 0 0 0 0 0 0 0 0.25 0"/>
<feBlend mode="normal" in2="BackgroundImageFix" result="effect1_dropShadow_314_2128"/>
<feBlend mode="normal" in="SourceGraphic" in2="effect1_dropShadow_314_2128" result="shape"/>
</filter>
</defs>
</svg>
