<svg width="170" height="170" viewBox="0 0 170 170" fill="none" xmlns="http://www.w3.org/2000/svg">
<g filter="url(#filter0_d_314_2118)">
<rect x="10" y="10" width="150" height="150" rx="75" fill="white"/>
</g>
<path d="M46.7078 46.8352C46.5227 41.5109 50.6703 36.6016 56.2773 36.6016H113.73C119.338 36.6016 123.485 41.5109 123.3 46.8352C123.122 51.9492 123.353 58.5742 125.02 63.9758C126.693 69.3945 129.513 72.8188 134.133 73.2594V78.2492C129.513 78.6891 126.693 82.1141 125.02 87.5328C123.353 92.9344 123.122 99.5594 123.3 104.673C123.485 109.998 119.338 114.906 113.73 114.906H56.2773C50.6703 114.906 46.5227 109.997 46.7078 104.673C46.8859 99.5594 46.6547 92.9344 44.9867 87.5328C43.3148 82.1148 40.4867 78.6898 35.8672 78.2492V73.2594C40.4867 72.8195 43.3148 69.3945 44.9867 63.9758C46.6547 58.5742 46.8852 51.9492 46.7078 46.8352Z" fill="url(#paint0_linear_314_2118)"/>
<g filter="url(#filter1_d_314_2118)">
<path d="M87.4289 96.8539C96.5063 96.8539 101.976 92.4094 101.976 85.0789C101.976 79.5375 98.0734 75.5258 92.2781 74.8906V74.6594C96.5359 73.9672 99.8766 70.0133 99.8766 65.5969C99.8766 59.3055 94.9094 55.207 87.3398 55.207H70.3086V96.8539H87.4289ZM76.932 60.4891H85.7438C90.5328 60.4891 93.2539 62.6242 93.2539 66.4922C93.2539 70.6188 90.0898 72.9281 84.3539 72.9281H76.932V60.4891ZM76.932 91.5727V77.8633H85.6844C91.9523 77.8633 95.2047 80.1719 95.2047 84.6742C95.2047 89.1766 92.0414 91.5727 86.0688 91.5727H76.932Z" fill="url(#paint1_linear_314_2118)"/>
<path d="M87.4289 96.8539C96.5063 96.8539 101.976 92.4094 101.976 85.0789C101.976 79.5375 98.0734 75.5258 92.2781 74.8906V74.6594C96.5359 73.9672 99.8766 70.0133 99.8766 65.5969C99.8766 59.3055 94.9094 55.207 87.3398 55.207H70.3086V96.8539H87.4289ZM76.932 60.4891H85.7438C90.5328 60.4891 93.2539 62.6242 93.2539 66.4922C93.2539 70.6188 90.0898 72.9281 84.3539 72.9281H76.932V60.4891ZM76.932 91.5727V77.8633H85.6844C91.9523 77.8633 95.2047 80.1719 95.2047 84.6742C95.2047 89.1766 92.0414 91.5727 86.0688 91.5727H76.932Z" fill="white"/>
</g>
<path d="M43.9062 129.868V116.01H47.8492C49.0469 116.01 49.9977 116.303 50.7 116.889C51.4023 117.475 51.7531 118.239 51.7531 119.179C51.7531 119.966 51.5406 120.649 51.1156 121.229C50.6898 121.808 50.1039 122.221 49.3563 122.465V122.504C50.2906 122.614 51.0383 122.968 51.5984 123.567C52.1586 124.16 52.4391 124.932 52.4391 125.886C52.4391 127.071 52.0141 128.032 51.1641 128.766C50.3133 129.5 49.2406 129.868 47.9453 129.868H43.9062ZM45.5297 117.479V121.953H47.1922C48.0813 121.953 48.7805 121.74 49.2891 121.315C49.7977 120.883 50.0523 120.277 50.0523 119.498C50.0523 118.152 49.1664 117.479 47.3945 117.479H45.5297ZM45.5297 123.412V128.399H47.7328C48.6859 128.399 49.4242 128.173 49.9461 127.722C50.4742 127.271 50.7383 126.653 50.7383 125.867C50.7383 124.23 49.6234 123.412 47.3945 123.412H45.5297ZM59.175 130.102C57.7125 130.102 56.543 129.641 55.6672 128.72C54.7977 127.793 54.3625 126.565 54.3625 125.038C54.3625 123.376 54.8164 122.078 55.725 121.143C56.6336 120.21 57.8609 119.743 59.407 119.743C60.882 119.743 62.032 120.196 62.857 121.105C63.6875 122.014 64.1031 123.273 64.1031 124.883C64.1031 126.462 63.6555 127.728 62.7594 128.682C61.8711 129.629 60.6758 130.102 59.175 130.102ZM59.2906 121.076C58.2727 121.076 57.468 121.424 56.875 122.12C56.282 122.809 55.9859 123.762 55.9859 124.98C55.9859 126.153 56.2852 127.078 56.8844 127.754C57.4836 128.431 58.2852 128.769 59.2906 128.769C60.3148 128.769 61.1016 128.437 61.6492 127.773C62.2031 127.11 62.4797 126.166 62.4797 124.942C62.4797 123.705 62.2031 122.751 61.6492 122.081C61.1016 121.411 60.3148 121.076 59.2906 121.076ZM70.7719 130.102C69.3094 130.102 68.1398 129.641 67.2641 128.72C66.3945 127.793 65.9594 126.565 65.9594 125.038C65.9594 123.376 66.4133 122.078 67.3219 121.143C68.2305 120.21 69.4578 119.743 71.0039 119.743C72.4789 119.743 73.6289 120.196 74.4539 121.105C75.2852 122.014 75.7008 123.273 75.7008 124.883C75.7008 126.462 75.2531 127.728 74.357 128.682C73.468 129.629 72.2734 130.102 70.7719 130.102ZM70.8875 121.076C69.8695 121.076 69.0648 121.424 68.4719 122.12C67.8789 122.809 67.5828 123.762 67.5828 124.98C67.5828 126.153 67.882 127.078 68.4813 127.754C69.0805 128.431 69.882 128.769 70.8875 128.769C71.9117 128.769 72.6984 128.437 73.2461 127.773C73.8 127.11 74.0766 126.166 74.0766 124.942C74.0766 123.705 73.8 122.751 73.2461 122.081C72.6984 121.411 71.9125 121.076 70.8875 121.076ZM82.8219 129.774C82.4484 129.98 81.9555 130.083 81.343 130.083C79.6102 130.083 78.7438 129.117 78.7438 127.184V121.328H77.043V119.975H78.7438V117.559L80.3289 117.046V119.975H82.8211V121.328H80.3289V126.904C80.3289 127.567 80.4414 128.041 80.6672 128.325C80.8922 128.608 81.2656 128.75 81.7875 128.75C82.1867 128.75 82.532 128.64 82.8219 128.421V129.774ZM84.3391 129.508V127.807C85.2023 128.445 86.1523 128.764 87.1898 128.764C88.5813 128.764 89.2773 128.3 89.2773 127.373C89.2773 127.108 89.2164 126.886 89.0938 126.706C88.9687 126.51 88.8039 126.342 88.6102 126.213C88.3878 126.059 88.1478 125.933 87.8953 125.836C87.6042 125.712 87.3109 125.593 87.0156 125.479C86.6208 125.324 86.2338 125.15 85.8563 124.957C85.5537 124.795 85.2741 124.593 85.025 124.357C84.81 124.138 84.6395 123.879 84.5227 123.594C84.4133 123.311 84.3586 122.979 84.3586 122.599C84.3586 122.136 84.4648 121.726 84.6773 121.371C84.889 121.012 85.1796 120.704 85.5273 120.473C85.8958 120.222 86.3046 120.035 86.7359 119.921C87.1961 119.799 87.6705 119.737 88.1469 119.738C89.0039 119.738 89.7703 119.886 90.4469 120.183V121.787C89.7188 121.31 88.8812 121.071 87.9336 121.071C87.6367 121.071 87.3703 121.107 87.132 121.178C86.9109 121.235 86.7015 121.33 86.5133 121.459C86.35 121.576 86.2147 121.727 86.1172 121.903C86.0259 122.075 85.9794 122.268 85.982 122.464C85.982 122.721 86.0273 122.936 86.1172 123.111C86.2133 123.285 86.3516 123.439 86.5328 123.575C86.7125 123.71 86.932 123.832 87.1898 123.942C87.4477 124.051 87.7406 124.171 88.0695 124.3C88.507 124.467 88.9 124.641 89.2484 124.821C89.5714 124.979 89.8707 125.18 90.1375 125.421C90.382 125.639 90.5688 125.894 90.6977 126.184C90.8328 126.474 90.9008 126.818 90.9008 127.218C90.9008 127.707 90.7914 128.132 90.5727 128.493C90.3594 128.854 90.0727 129.154 89.7117 129.392C89.3299 129.639 88.9084 129.819 88.4656 129.924C87.9816 130.042 87.4849 130.1 86.9867 130.098C85.9688 130.098 85.0867 129.901 84.3391 129.508ZM97.925 129.774C97.5523 129.98 97.0594 130.083 96.4469 130.083C94.7141 130.083 93.8477 129.117 93.8477 127.184V121.328H92.1469V119.975H93.8477V117.559L95.4328 117.046V119.975H97.925V121.328H95.4328V126.904C95.4328 127.567 95.5453 128.041 95.7711 128.325C95.9961 128.608 96.3695 128.75 96.8914 128.75C97.2906 128.75 97.6359 128.64 97.9258 128.421L97.925 129.774ZM105.203 121.579C104.926 121.366 104.527 121.26 104.005 121.26C103.328 121.26 102.761 121.579 102.304 122.216C101.853 122.854 101.627 123.724 101.627 124.825V129.87H100.043V119.975H101.627V122.014H101.666C101.892 121.318 102.237 120.777 102.7 120.39C103.163 119.997 103.682 119.8 104.256 119.8C104.668 119.8 104.984 119.846 105.203 119.936V121.579ZM114.009 129.868H112.423V128.321H112.384C111.696 129.507 110.681 130.1 109.342 130.1C108.356 130.1 107.583 129.839 107.022 129.317C106.468 128.795 106.191 128.102 106.191 127.239C106.191 125.389 107.28 124.314 109.457 124.012L112.424 123.596C112.424 121.914 111.745 121.074 110.385 121.074C109.194 121.074 108.118 121.479 107.158 122.291V120.668C108.13 120.05 109.252 119.74 110.521 119.74C112.847 119.74 114.009 120.971 114.009 123.432L114.009 129.868ZM112.423 124.862L110.037 125.19C109.302 125.293 108.748 125.477 108.374 125.741C108.001 125.999 107.814 126.46 107.814 127.123C107.814 127.607 107.985 128.003 108.327 128.312C108.674 128.614 109.135 128.765 109.709 128.765C110.495 128.765 111.142 128.492 111.651 127.945C112.166 127.391 112.424 126.692 112.424 125.847L112.423 124.862ZM118.618 128.438H118.579V134.42H116.995V119.972H118.58V121.711H118.618C119.398 120.397 120.538 119.74 122.039 119.74C123.315 119.74 124.31 120.185 125.025 121.074C125.74 121.956 126.098 123.142 126.098 124.63C126.098 126.286 125.695 127.613 124.89 128.611C124.084 129.604 122.983 130.1 121.585 130.1C120.303 130.1 119.314 129.546 118.618 128.438ZM118.579 124.446V125.829C118.579 126.647 118.843 127.343 119.372 127.916C119.907 128.483 120.583 128.767 121.401 128.767C122.361 128.767 123.112 128.4 123.653 127.665C124.2 126.931 124.473 125.91 124.473 124.601C124.473 123.5 124.22 122.636 123.711 122.011C123.202 121.386 122.512 121.074 121.643 121.074C120.721 121.074 119.98 121.396 119.42 122.04C118.859 122.679 118.579 123.48 118.579 124.446Z" fill="#7952B3"/>
<defs>
<filter id="filter0_d_314_2118" x="0" y="0" width="170" height="170" filterUnits="userSpaceOnUse" color-interpolation-filters="sRGB">
<feFlood flood-opacity="0" result="BackgroundImageFix"/>
<feColorMatrix in="SourceAlpha" type="matrix" values="0 0 0 0 0 0 0 0 0 0 0 0 0 0 0 0 0 0 127 0" result="hardAlpha"/>
<feOffset/>
<feGaussianBlur stdDeviation="5"/>
<feComposite in2="hardAlpha" operator="out"/>
<feColorMatrix type="matrix" values="0 0 0 0 0 0 0 0 0 0 0 0 0 0 0 0 0 0 0.25 0"/>
<feBlend mode="normal" in2="BackgroundImageFix" result="effect1_dropShadow_314_2118"/>
<feBlend mode="normal" in="SourceGraphic" in2="effect1_dropShadow_314_2118" result="shape"/>
</filter>
<filter id="filter1_d_314_2118" x="67.2383" y="52.9047" width="37.8086" height="47.7871" filterUnits="userSpaceOnUse" color-interpolation-filters="sRGB">
<feFlood flood-opacity="0" result="BackgroundImageFix"/>
<feColorMatrix in="SourceAlpha" type="matrix" values="0 0 0 0 0 0 0 0 0 0 0 0 0 0 0 0 0 0 127 0" result="hardAlpha"/>
<feOffset dy="0.767969"/>
<feGaussianBlur stdDeviation="1.53516"/>
<feColorMatrix type="matrix" values="0 0 0 0 0 0 0 0 0 0 0 0 0 0 0 0 0 0 0.15 0"/>
<feBlend mode="normal" in2="BackgroundImageFix" result="effect1_dropShadow_314_2118"/>
<feBlend mode="normal" in="SourceGraphic" in2="effect1_dropShadow_314_2118" result="shape"/>
</filter>
<linearGradient id="paint0_linear_314_2118" x1="50.4695" y1="38.6742" x2="136.335" y2="106.835" gradientUnits="userSpaceOnUse">
<stop stop-color="#9013FE"/>
<stop offset="1" stop-color="#6610F2"/>
</linearGradient>
<linearGradient id="paint1_linear_314_2118" x1="73.3055" y1="57.9477" x2="92.4977" y2="90.407" gradientUnits="userSpaceOnUse">
<stop stop-color="white"/>
<stop offset="1" stop-color="#F1E5FC"/>
</linearGradient>
</defs>
</svg>
