<svg width="170" height="170" viewBox="0 0 170 170" fill="none" xmlns="http://www.w3.org/2000/svg">
<g filter="url(#filter0_d_314_2103)">
<rect x="10" y="10" width="150" height="150" rx="75" fill="white"/>
</g>
<g clip-path="url(#clip0_314_2103)">
<path d="M102.798 70.3184L91.7545 73.9245L82.147 78.1649L79.4592 78.8744C78.7742 79.5255 78.0567 80.1851 77.2804 80.8532C76.4289 81.5876 75.6357 82.2552 75.0268 82.7393C74.3503 83.2738 73.3487 84.2754 72.8396 84.9096C72.0798 85.8609 71.479 86.8715 71.2202 87.6478C70.7611 89.0502 70.9864 90.4692 71.8714 91.7795C73.0066 93.4492 75.2687 95.1518 77.9066 96.312C79.2503 96.9048 81.5123 97.6646 83.2154 98.09C86.0449 98.8079 91.5212 99.5846 94.5341 99.7013C95.1434 99.7267 95.9615 99.7267 95.9949 99.7013C96.0617 99.6594 96.5294 98.7665 97.0718 97.6561C98.925 93.8749 100.261 90.3271 100.987 87.2972C101.421 85.461 101.763 83.015 101.988 80.1183C102.047 79.3086 102.072 76.5959 102.022 75.6775C101.946 74.1753 101.813 72.9563 101.604 71.7627C101.571 71.5872 101.563 71.4287 101.579 71.4202C101.613 71.3953 101.713 71.3623 103.074 70.9695L102.798 70.3184ZM100.278 71.7961C100.377 71.7961 100.645 74.3583 100.711 75.9777C100.728 76.3202 100.72 76.5455 100.703 76.5455C100.636 76.5455 99.2924 75.7528 98.3327 75.152C97.4976 74.626 95.9116 73.574 95.6613 73.3736C95.5776 73.3153 95.5861 73.3068 96.2706 73.0734C97.4308 72.6806 100.186 71.7961 100.278 71.7961ZM94.6512 73.6493C94.7265 73.6493 94.9185 73.7575 95.3776 74.0412C97.0968 75.1181 99.4345 76.4204 100.436 76.8546C100.745 76.9882 100.778 76.9379 100.068 77.422C98.5496 78.4571 96.6545 79.4756 94.3341 80.5022C94.0835 80.6167 93.8301 80.7253 93.5743 80.8278C93.5578 80.8278 93.6082 80.6193 93.6745 80.3686C94.2339 78.2901 94.551 76.187 94.5679 74.5004C94.5764 73.6658 94.5764 73.6658 94.6512 73.6408C94.6343 73.6493 94.6428 73.6493 94.6512 73.6493ZM93.491 74.0915C93.5409 74.1414 93.5079 76.0111 93.4407 76.5206C93.2912 77.751 93.0343 78.9661 92.6729 80.1517C92.5811 80.4604 92.4974 80.7195 92.4809 80.736C92.4471 80.7775 91.3038 79.6591 90.9284 79.2249C90.2772 78.474 89.7682 77.7227 89.3923 76.9882C89.2003 76.6123 88.9001 75.8779 88.9251 75.853C89.0587 75.7608 93.4576 74.0581 93.491 74.0915ZM88.0317 76.2369C88.0401 76.2369 88.0486 76.2369 88.0571 76.2453C88.0735 76.2618 88.1319 76.3954 88.1822 76.5455C88.449 77.2719 89.0502 78.3404 89.5678 79.0249C90.1352 79.7763 90.8785 80.5775 91.4958 81.103C91.6962 81.27 91.8797 81.4286 91.9046 81.454C91.9554 81.5039 91.9719 81.4954 90.6108 82.0129C89.0338 82.6142 87.3137 83.215 85.3439 83.8496C84.8733 84.0014 84.4031 84.1544 83.9334 84.3088C83.8581 84.3337 83.883 84.2919 84.1004 83.9494C85.0771 82.4222 86.5624 79.4253 87.3975 77.3053C87.5395 76.9375 87.6812 76.5705 87.7061 76.4872C87.7399 76.3701 87.7814 76.3286 87.89 76.2699C87.9484 76.2534 88.0067 76.2369 88.0317 76.2369ZM86.3624 76.9295C86.3878 76.9464 85.9616 77.8393 85.5443 78.6575C84.7346 80.235 83.8496 81.788 82.6645 83.6742C82.4641 83.9997 82.2721 84.3003 82.2472 84.3337C82.2053 84.3921 82.1888 84.3756 82.0552 84.1168C81.7715 83.5575 81.5377 82.8395 81.4126 82.1804C81.287 81.5292 81.3123 80.3936 81.454 79.6925C81.5627 79.175 81.5542 79.1835 81.8049 79.0583C82.8729 78.5154 86.3286 76.8961 86.3624 76.9295ZM100.762 77.5138V77.8647C100.762 79.7259 100.561 82.2801 100.269 84.1418C100.219 84.4674 100.177 84.7341 100.169 84.7426C100.169 84.7426 99.9267 84.6762 99.643 84.5925C98.3127 84.17 97.0267 83.6191 95.803 82.9478C94.9933 82.5059 93.8166 81.7795 93.8496 81.7461C93.858 81.7377 94.209 81.5542 94.6178 81.3369C96.2541 80.4857 97.8232 79.5674 99.1842 78.6575C99.6929 78.315 100.461 77.7645 100.628 77.614L100.762 77.5138ZM80.06 79.9847C80.0934 79.9847 80.0853 80.0515 80.0346 80.3521C79.9929 80.6485 79.9624 80.9464 79.9433 81.2451C79.8765 82.4636 80.0769 83.3655 80.6777 84.6005C80.8447 84.943 80.9783 85.2267 80.9699 85.2348C80.9115 85.2855 75.3858 86.9049 73.6493 87.3805C73.1318 87.5222 72.6811 87.6478 72.6472 87.6558C72.5893 87.6727 72.5808 87.6642 72.6058 87.5222C72.7977 86.2952 73.7326 84.6927 75.0348 83.3406C75.9029 82.4387 76.5959 81.9127 77.781 81.2366C78.6326 80.7525 79.9433 80.0266 80.0431 79.9932C80.0431 79.9847 80.0515 79.9847 80.06 79.9847ZM93.0822 82.3135C93.0906 82.3051 93.2906 82.4138 93.5325 82.5558C95.3189 83.5909 97.8067 84.5507 99.9267 85.0432L100.119 85.0851L99.8514 85.2352C98.7415 85.8525 95.0935 87.3721 91.3626 88.7661C90.8197 88.9665 90.2857 89.1669 90.1851 89.2084C90.0853 89.2502 89.9931 89.2752 89.9931 89.2671C89.9931 89.2587 90.1436 88.9665 90.3356 88.6075C91.3791 86.6541 92.4306 84.2754 92.9651 82.6226C93.0319 82.4636 93.0733 82.322 93.0822 82.3135ZM91.7545 82.7478C91.763 82.7562 91.6962 82.9313 91.6129 83.1317C90.8865 84.8931 89.9348 86.8131 88.7166 88.9665C88.4076 89.5174 88.1488 89.9601 88.1403 89.9601C88.1319 89.9601 87.8816 89.8096 87.581 89.6261C85.8111 88.5407 84.242 87.2051 83.2154 85.9113L83.0649 85.7278L83.8247 85.5189C86.5459 84.776 88.8579 83.9748 91.1537 82.9901C91.4793 82.8564 91.7465 82.7478 91.7545 82.7478ZM100.002 85.6271C100.01 85.8195 99.5846 87.5391 99.2341 88.7826C98.9419 89.8261 98.6912 90.6442 98.232 92.0881C98.032 92.7228 97.8566 93.2488 97.8481 93.2488C97.8397 93.2488 97.7898 93.2403 97.7399 93.2234C95.2605 92.7727 93.0403 92.1469 90.9537 91.3123C90.369 91.0785 89.5344 90.7026 89.484 90.6611C89.4676 90.6442 89.9686 90.4104 90.6028 90.1352C94.4009 88.4735 98.3407 86.5873 99.6933 85.7777C99.8514 85.6774 99.9766 85.6271 100.002 85.6271ZM80.9614 86.2787C80.9783 86.2956 79.9183 87.8228 78.4321 89.9013C77.9146 90.6277 77.3138 91.4789 77.0885 91.7964C76.8277 92.164 76.5743 92.5369 76.3287 92.9147L75.9777 93.4572L75.6023 93.1401C75.16 92.7727 74.3922 91.9883 74.0501 91.5545C73.3322 90.6611 72.8481 89.7178 72.6561 88.8583C72.5639 88.4574 72.5639 88.257 72.6477 88.2321C72.7728 88.1983 75.0014 87.6727 77.0885 87.1886C78.0854 86.959 79.0814 86.7254 80.0765 86.4876C80.561 86.3704 80.9534 86.2787 80.9614 86.2787ZM82.0299 86.6875L82.2971 86.9882C83.4991 88.3323 84.7261 89.3255 86.2123 90.1935C86.4791 90.344 86.6795 90.4772 86.6626 90.4857C86.6043 90.528 81.5043 92.3389 79.1416 93.157C78.3339 93.4431 77.5243 93.7239 76.713 93.9997C76.7045 93.9997 76.6293 93.9498 76.5456 93.8914L76.3955 93.7828L76.6377 93.4322C77.422 92.297 78.4072 91.0535 80.553 88.4655L82.0299 86.6875ZM88.6913 91.4539C88.6997 91.4455 89.0667 91.5791 89.5174 91.7461C90.6028 92.1554 91.4624 92.4141 92.6145 92.7059C94.0335 93.0652 96.0871 93.4158 97.2976 93.516C97.4811 93.5325 97.5809 93.5494 97.5479 93.5743C97.4892 93.6077 96.2626 94.0166 95.3607 94.3007C93.9248 94.751 89.5428 96.0452 85.97 97.0718C85.3105 97.2638 84.743 97.4228 84.7096 97.4308C84.6264 97.4477 84.3503 97.372 84.3503 97.339C84.3503 97.3221 84.5511 97.0634 84.7929 96.7797C85.995 95.3438 87.1886 93.7413 88.1822 92.2217C88.4575 91.8044 88.6913 91.4624 88.6913 91.4539ZM87.222 91.4962C87.2305 91.5042 86.6377 92.456 85.6026 94.0918C85.1604 94.7844 84.6678 95.5691 84.4923 95.8448C84.3253 96.1116 84.075 96.5294 83.9334 96.7627L83.6911 97.1885L83.5659 97.1551C83.2657 97.0718 81.1534 96.3289 80.5944 96.1036C79.9311 95.8396 79.2819 95.5414 78.6495 95.2102C77.9814 94.8512 77.1468 94.3172 77.2136 94.3003C77.2305 94.2918 78.3738 93.9832 79.7509 93.6077C83.4074 92.6141 85.4356 92.0382 86.7628 91.6209C87.0051 91.5457 87.2135 91.4877 87.222 91.4962ZM97.6147 93.9333H97.6232C97.6562 94.0166 96.304 97.7728 95.8114 98.9584C95.7032 99.2252 95.6613 99.2924 95.603 99.284C95.4609 99.2755 93.4995 98.9998 92.3055 98.8248C90.2273 98.5077 86.7379 97.898 85.8618 97.698L85.6614 97.6557L86.9045 97.3724C89.5762 96.7712 90.8616 96.4456 92.1638 96.0448C93.8454 95.5304 95.4884 94.8972 97.0803 94.1502C97.3391 94.0331 97.556 93.9413 97.6147 93.9333Z" fill="url(#paint0_linear_314_2103)"/>
<path d="M91.4134 44.5746C91.2299 44.5497 88.2664 45.6181 86.3548 46.3944C83.7757 47.4464 81.7724 48.448 80.5369 49.3161C80.0778 49.6416 79.5015 50.2175 79.4101 50.4429C79.3757 50.5336 79.3585 50.6299 79.3594 50.727L80.4786 51.787L83.141 52.6385L89.4769 53.7738L96.7222 55.0173L96.7975 54.3915C96.7721 54.3915 96.7556 54.3831 96.7307 54.3831L95.7793 54.2325L95.587 53.8905C94.6018 52.1544 93.5169 50.0006 92.8826 48.5482C92.3901 47.4214 91.9229 46.1192 91.6637 45.1843C91.522 44.6165 91.5051 44.5831 91.4138 44.5751L91.4134 44.5746ZM91.2798 45.0004H91.2882C91.2967 45.0089 91.3301 45.2427 91.3635 45.5179C91.5051 46.687 91.7639 47.8138 92.1732 49.0324C92.4818 49.9507 92.4818 49.9004 92.1229 49.7917C91.2717 49.5583 87.4567 48.8988 84.694 48.5148C84.2513 48.4565 83.8759 48.3981 83.8759 48.3897C83.8421 48.3563 85.8707 47.2963 86.7637 46.879C87.9074 46.353 91.0459 45.0423 91.2793 45.0004H91.2798ZM83.2328 48.7402L83.5584 48.8484C85.3283 49.4497 89.7771 50.3012 92.2315 50.5016C92.5068 50.5266 92.7406 50.5515 92.7486 50.5515C92.7571 50.56 92.5237 50.6851 92.2231 50.8272C91.0379 51.4196 89.7356 52.1459 88.8338 52.7053C88.567 52.8719 88.3247 53.0055 88.2913 53.0055C88.2579 53.0055 88.0829 52.9721 87.8994 52.9472L87.5654 52.8973L86.7307 52.0791C85.7155 51.0906 84.6942 50.1083 83.667 49.1321L83.2328 48.7402ZM82.8988 48.999L84.0759 50.4682C84.7186 51.2779 85.3697 52.0707 85.5118 52.2462C85.6538 52.4212 85.7705 52.5633 85.7625 52.5717C85.7287 52.5967 84.0594 52.2711 83.1749 52.0707C82.2646 51.8622 81.8891 51.762 81.3297 51.5866L80.8705 51.4365V51.3194C80.879 50.76 81.5885 49.9253 82.7905 49.0742L82.8988 48.999ZM92.8991 51.0022C92.933 51.0022 92.9744 51.0775 93.0746 51.3024C93.3579 51.9286 94.2433 53.6152 94.4602 53.9408C94.527 54.049 94.6437 54.0575 93.4665 53.8655C90.6371 53.4064 89.7272 53.2563 89.7272 53.2398C89.7272 53.2313 89.8105 53.1725 89.9191 53.1142C90.7956 52.6301 91.6806 52.0123 92.4653 51.3528C92.6573 51.1942 92.8323 51.0441 92.8657 51.0187C92.8742 51.0022 92.8907 50.9938 92.8991 51.0022Z" fill="url(#paint1_linear_314_2103)"/>
<path d="M79.4653 50.3281C79.4653 50.3281 79.2818 50.6207 79.4569 51.0549C79.566 51.3217 79.8831 51.6473 80.2416 51.9813C80.2416 51.9813 83.9565 55.604 84.4072 56.1215C86.4604 58.4922 87.3538 60.8295 87.4371 64.0518C87.4874 66.1219 87.0946 67.9416 86.1183 70.0536C84.3822 73.8433 80.7177 78.0253 75.0664 82.6661L75.893 82.3913C76.427 81.99 77.153 81.5647 78.8561 80.6294C82.7878 78.476 87.2117 76.4977 92.6376 74.4606C100.451 71.5224 113.298 68.0833 120.61 66.965L121.369 66.8478L121.252 66.6643C120.584 65.6293 120.126 64.9866 119.574 64.3021C117.972 62.3153 116.027 60.7044 113.648 59.3687C110.375 57.5409 106.143 56.113 100.784 55.0531C99.7747 54.8526 97.5541 54.4687 95.7512 54.1935C92.7419 53.7305 89.7367 53.2407 86.736 52.7242C85.7593 52.5572 84.2985 52.3069 83.3303 52.0984C82.8292 51.9898 81.8695 51.7644 81.1181 51.5057C80.5173 51.2718 79.6493 51.0376 79.4653 50.3281ZM81.6192 52.4156C81.6276 52.4071 81.7608 52.457 81.9363 52.5158C82.2534 52.624 82.6627 52.7491 83.1468 52.8828C83.5131 52.9835 83.8804 53.0809 84.2486 53.1749C84.7497 53.3001 85.167 53.4172 85.175 53.4172C85.2338 53.4755 86.0769 56.1714 86.3606 57.2064C86.4688 57.5992 86.5525 57.9328 86.5441 57.9328C86.5356 57.9413 86.4439 57.7992 86.3356 57.6073C85.3589 55.8877 83.8144 54.1432 82.028 52.7407C81.7946 52.5741 81.6192 52.424 81.6192 52.4156ZM85.7259 53.5508C85.7682 53.5508 85.9517 53.5757 86.1767 53.6256C87.596 53.9428 90.1418 54.4273 91.7696 54.7025C92.0449 54.7444 92.2622 54.7943 92.2622 54.8112C92.2622 54.8281 92.162 54.886 92.0364 54.9528C91.7616 55.0949 90.6509 55.7541 90.2839 56.0048C89.357 56.6221 88.5224 57.2902 87.9216 57.8914C87.7726 58.0402 87.6222 58.1876 87.4705 58.3337C87.4705 58.3337 87.4206 58.1916 87.3787 58.0165C87.0785 56.8559 86.4523 55.1363 85.8845 53.9263C85.7927 53.7343 85.7175 53.5588 85.7175 53.5423C85.7175 53.5593 85.7175 53.5508 85.7259 53.5508ZM92.9548 54.9279C93.0051 54.9448 93.0884 55.2281 93.255 55.8543C93.5682 57.1035 93.7033 58.3907 93.6562 59.6778C93.6393 60.0283 93.6224 60.3539 93.6059 60.3957L93.5805 60.479L93.1467 60.3369C92.2537 60.0537 90.8014 59.6275 89.5575 59.277C88.848 59.085 88.2721 58.9095 88.2721 58.893C88.2721 58.8427 89.3072 57.8077 89.7494 57.4153C90.5925 56.6724 92.8795 54.903 92.9548 54.9279ZM93.5306 55.0112C93.556 54.9863 96.9867 55.579 98.5477 55.8797C99.7079 56.105 101.394 56.4555 101.494 56.497C101.544 56.5139 101.369 56.6141 100.809 56.8648C98.6061 57.858 96.9702 58.7506 95.3424 59.8363C94.9166 60.1196 94.5576 60.3539 94.5492 60.3539C94.5407 60.3539 94.5323 60.1116 94.5323 59.8194C94.5323 58.2339 94.2152 56.631 93.6308 55.2784C93.5725 55.1448 93.5222 55.0197 93.5306 55.0112ZM102.404 56.7646C102.43 56.7895 102.32 57.4656 102.22 57.866C101.92 59.1099 101.11 60.9551 100.117 62.6912C99.9417 62.9998 99.7832 63.2501 99.7663 63.2586C99.7494 63.267 99.5244 63.1419 99.2657 62.9914C98.2974 62.4239 97.1956 61.8895 95.9931 61.3889C95.6595 61.2468 95.3673 61.1301 95.3589 61.1132C95.3005 61.0633 97.9883 59.2854 99.4073 58.4339C100.534 57.7493 102.371 56.7308 102.404 56.7646ZM103.038 56.8644C103.114 56.8644 104.633 57.2821 105.426 57.5155C107.387 58.0998 109.641 58.9264 111.11 59.5941L111.719 59.8697L111.294 59.9699C107.705 60.7961 104.633 61.7479 101.669 62.9499C101.427 63.0501 101.21 63.1334 101.194 63.1334C101.177 63.1334 101.26 62.9415 101.369 62.7077C102.262 60.813 102.838 58.8347 102.98 57.1481C102.989 56.9895 103.013 56.8644 103.038 56.8644ZM87.9131 60.3369C87.9381 60.312 89.0983 60.5877 89.7245 60.7627C90.6758 61.0299 92.696 61.7056 92.696 61.7563C92.696 61.7648 92.4706 61.9563 92.2038 62.1901C91.11 63.1 90.0585 64.0598 88.7977 65.2788C88.4222 65.6377 88.1051 65.9299 88.0886 65.9299C88.0717 65.9299 88.0632 65.8796 88.0717 65.8128C88.2637 64.4103 88.2222 62.6079 87.955 60.7796C87.9296 60.5458 87.9051 60.3454 87.9131 60.3369ZM112.296 60.3623C112.312 60.3788 111.761 61.2468 111.411 61.7394C110.91 62.4573 110.175 63.4091 108.514 65.4957C107.782 66.4144 107.053 67.3354 106.327 68.2588C105.993 68.6761 105.718 69.0266 105.709 69.0266C105.701 69.0266 105.593 68.8765 105.476 68.6926C104.541 67.2905 103.422 66.0635 102.095 64.9617C101.893 64.7905 101.687 64.6234 101.478 64.4606C101.386 64.3938 101.31 64.327 101.31 64.3186C101.31 64.2936 102.729 63.6844 103.806 63.2501C105.693 62.4823 108.264 61.5639 110.192 60.9712C111.202 60.6541 112.279 60.3454 112.296 60.3623ZM112.939 60.5289C112.972 60.5204 113.172 60.6211 113.414 60.7627C115.443 61.9229 117.429 63.4171 118.999 64.9528C119.441 65.3874 120.534 66.5227 120.518 66.5307C120.518 66.5307 120.134 66.5646 119.683 66.5975C116.169 66.8647 111.67 67.6076 107.346 68.6507C107.157 68.6959 106.968 68.7377 106.778 68.7763C106.761 68.7763 107.087 68.4507 107.496 68.0583C110.034 65.6124 111.194 64.0683 112.563 61.3136C112.755 60.9048 112.922 60.5543 112.939 60.5289C112.93 60.5289 112.93 60.5289 112.939 60.5289ZM94.3488 62.4324C94.4659 62.4573 95.5508 62.9664 96.369 63.3753C97.1203 63.7512 98.2471 64.352 98.3055 64.4023C98.3139 64.4107 97.9131 64.6192 97.4209 64.8615C95.9494 65.5931 94.5096 66.3867 93.1053 67.2402C92.7044 67.4825 92.3704 67.6829 92.3624 67.6829C92.3286 67.6829 92.337 67.6491 92.5624 67.2402C93.3137 65.8716 93.915 64.2353 94.257 62.6408C94.2904 62.5157 94.3238 62.4324 94.3488 62.4324ZM93.2638 62.6324C93.2888 62.6578 93.0051 63.6844 92.8296 64.2433C92.4871 65.3037 91.9113 66.6309 91.3523 67.6326C91.2187 67.8664 91.0183 68.2084 90.9096 68.4004L90.7012 68.7344L90.2335 68.2837C89.6911 67.7577 89.2484 67.4322 88.681 67.14C88.4556 67.0233 88.2806 66.9231 88.2806 66.9066C88.2806 66.8398 89.708 65.546 90.8014 64.6107C91.5857 63.9347 93.2389 62.6074 93.2638 62.6324ZM99.8999 65.3621L100.309 65.6293C101.244 66.2386 102.345 67.0482 103.189 67.7577C103.665 68.1501 104.583 68.9767 104.766 69.1767L104.866 69.2853L104.191 69.4773C100.368 70.5373 97.4125 71.4806 93.9649 72.7499C93.5809 72.8915 93.2554 73.0082 93.2304 73.0082C93.1801 73.0082 93.1383 73.0501 93.9983 72.2569C96.202 70.2286 98.1554 67.9915 99.6077 65.8132L99.8999 65.3621ZM98.1553 65.7963C98.1723 65.8132 97.0286 67.4241 96.344 68.3336C95.5259 69.419 94.0735 71.2383 93.0715 72.4239C92.6546 72.9165 92.2956 73.3253 92.2787 73.3338C92.2533 73.3422 92.2453 73.2171 92.2453 73.0251C92.2453 72.0146 91.9865 70.9381 91.5358 70.0198C91.3438 69.6359 91.3104 69.5441 91.3523 69.5022C91.5109 69.3606 93.9399 67.9746 95.4756 67.1485C96.511 66.5975 98.13 65.7794 98.1553 65.7963ZM87.6041 68.3839C87.6294 68.3839 87.8214 68.4841 88.0383 68.6008C88.5464 68.8776 89.0271 69.2018 89.4742 69.5691C89.4907 69.586 89.2738 69.7614 88.99 69.9699C88.0767 70.6292 87.1777 71.3083 86.2938 72.0066C85.5589 72.5909 85.5344 72.6078 85.6173 72.4827C86.1686 71.6396 86.4439 71.1635 86.736 70.5546C87.0049 69.9877 87.2391 69.405 87.4375 68.8097C87.5039 68.5674 87.5876 68.3839 87.6041 68.3839ZM90.4175 70.5876C90.4589 70.5792 90.5092 70.6544 90.7346 70.9884C91.2102 71.6975 91.5777 72.6492 91.6694 73.4175L91.6863 73.5845L90.5426 74.0268C88.4975 74.8195 86.6109 75.6043 85.3336 76.1886C84.975 76.3556 84.3484 76.6562 83.94 76.8567C83.5307 77.0651 83.1967 77.2237 83.1967 77.2156C83.1967 77.2072 83.4554 77.0152 83.773 76.7814C86.2688 74.9701 88.4307 72.9833 90.05 70.9965C90.2255 70.788 90.3841 70.5961 90.401 70.5876H90.4175ZM89.1237 70.9047C89.1571 70.9385 88.2053 72.015 87.5542 72.6742C85.9433 74.3189 84.3488 75.6043 82.3705 76.8567C82.1202 77.0152 81.8948 77.1568 81.8695 77.1738C81.8111 77.2072 81.8864 77.1234 82.7544 76.1802C83.2635 75.6338 83.7454 75.0628 84.1983 74.469C84.5154 74.0602 84.5742 74.0018 85.0334 73.6763C86.2604 72.7913 89.0903 70.8713 89.1237 70.9047Z" fill="url(#paint2_radial_314_2103)"/>
<path d="M52.9782 105.467C52.8235 105.467 52.6696 105.482 52.5173 105.482C49.4071 105.648 47.3094 107.016 46.0829 109.69C45.0337 112.107 45.1485 115.266 46.0946 117.699C47.1946 120.076 48.9727 121.33 51.9407 121.804C52.568 121.907 52.9891 122.252 54.2063 123.671L55.7024 125.425H58.4165L56.6118 123.605C55.6141 122.608 54.8071 121.739 54.8071 121.662C54.8071 121.587 55.1884 121.42 55.6509 121.279C57.1735 120.818 58.4376 119.641 59.3227 117.838C60.0384 116.391 60.1415 115.943 60.2446 114.141C60.5126 108.78 57.6852 105.427 52.9774 105.466L52.9782 105.467ZM55.3571 119.489C54.0368 120.128 52.1196 120.256 50.868 119.797C49.5743 119.322 48.3212 117.978 47.7579 116.457C47.1321 114.793 47.2212 111.724 47.9376 110.342C49.0884 108.141 50.6118 107.13 52.836 107.13C56.1376 107.13 58.0157 109.151 58.2602 112.95C58.454 116.122 57.3923 118.502 55.3587 119.488L55.3571 119.489ZM102.24 110.048C101.102 110.048 100.231 110.509 99.643 111.416L99.1821 112.135V110.266H97.2126V121.473H99.1813V117.891C99.1813 114.615 99.2227 114.232 99.6805 113.336C100.311 112.106 101.397 111.494 102.446 111.787L103.149 111.992V110.05H102.241L102.24 110.048ZM90.6649 109.945C90.26 109.949 89.8567 109.996 89.4618 110.085C86.8259 110.775 85.3399 113.298 85.4305 115.895C85.4305 118.069 85.854 119.156 86.9024 120.296C89.0516 122.059 90.9962 122.2 93.6188 121.254C94.0657 121.063 94.5532 120.843 94.5532 120.843V119.08L93.6188 119.564C91.4962 120.488 89.8969 120.488 88.6157 119.4C87.7993 118.568 87.4391 117.57 87.2743 116.431H95.218V114.921C95.218 111.84 93.3634 109.895 90.6634 109.945H90.6649ZM87.4524 114.859C87.4524 114.859 87.7462 112.937 88.8352 112.184C89.3358 111.828 89.9344 111.636 90.5485 111.634C91.1384 111.634 91.7259 111.825 92.2118 112.197C93.2094 112.964 93.3759 114.845 93.3759 114.845H87.4532L87.4524 114.859ZM39.9548 112.838C37.8188 111.544 36.8712 110.611 36.9876 109.51C37.3188 106.466 41.0798 106.887 43.1634 108.039L43.1782 105.991C43.1782 105.991 42.0266 105.492 40.3759 105.466C37.8438 105.428 36.2063 106.258 35.4399 107.948C34.3126 110.442 35.3102 112.323 38.9165 114.421C40.9407 115.598 41.8352 116.621 41.8352 117.736C41.8352 120.039 39.0587 120.844 36.1938 119.398C35.6048 119.105 35.1055 118.859 35.0782 118.859C34.9751 119.512 35.0282 121.075 35.0282 121.075C35.0282 121.075 35.9087 121.445 37.229 121.7C40.5024 122.352 43.4829 120.816 43.7641 118.323C44.0094 115.981 43.1626 114.752 39.9548 112.836V112.838ZM119.677 109.919C119.268 109.924 118.86 109.971 118.459 110.06C115.827 110.75 114.343 113.273 114.444 115.87C114.444 118.041 114.866 119.118 115.914 120.256C118.063 122.022 120.008 122.163 122.643 121.216C122.955 121.082 123.265 120.946 123.575 120.809V119.042L122.642 119.529C120.515 120.451 118.916 120.451 117.639 119.362C116.818 118.531 116.462 117.545 116.295 116.394H124.227V114.883C124.227 111.817 122.372 109.87 119.673 109.922L119.677 109.919ZM116.464 114.833C116.464 114.833 116.761 112.914 117.848 112.145C118.347 111.789 118.946 111.596 119.559 111.595C120.147 111.595 120.738 111.786 121.224 112.158C122.221 112.926 122.388 114.82 122.388 114.82H116.466L116.464 114.833ZM80.3516 112.862C78.2157 111.572 77.2704 110.636 77.3852 109.534C77.7165 106.49 81.4782 106.913 83.561 108.063L83.5766 106.016C83.5766 106.016 82.4243 105.516 80.7743 105.493C78.2415 105.455 76.6048 106.286 75.8368 107.976C74.711 110.47 75.7219 112.351 79.3157 114.448C81.3376 115.625 82.2321 116.634 82.2321 117.749C82.2321 120.052 79.4563 120.87 76.5915 119.411C76.0048 119.118 75.5055 118.876 75.4766 118.876C75.3743 119.528 75.4266 121.091 75.4266 121.091C75.4266 121.091 76.2969 121.448 77.6126 121.716C80.8899 122.37 83.8704 120.835 84.1516 118.341C84.3946 116.012 83.5501 114.784 80.3516 112.865V112.862ZM131.252 110.021C130.114 110.021 129.233 110.482 128.656 111.391L128.195 112.107V110.241H126.225V121.446H128.194V117.864C128.194 114.589 128.233 114.205 128.692 113.309C129.324 112.082 130.409 111.468 131.458 111.763L132.163 111.968V110.021H131.252ZM64.6837 112.798V105.659H62.6977V121.471H71.0509V119.604H64.6837V112.798ZM110.619 115.023L108.982 119.284L107.407 114.999L105.809 110.252H103.775C105.109 114.016 106.508 117.756 107.97 121.471C108.598 121.485 109.225 121.471 109.852 121.471L112.063 115.92L114.314 110.254H112.371C112.371 110.254 111.512 112.504 110.617 115.024L110.619 115.023ZM69.2618 101.351C69.5813 101.351 69.8485 101.248 70.068 101.028C70.1751 100.926 70.2599 100.803 70.317 100.667C70.3742 100.53 70.4024 100.384 70.4001 100.236C70.4001 99.9156 70.286 99.6492 70.068 99.4437C69.963 99.3424 69.8389 99.2629 69.7029 99.2099C69.5669 99.157 69.4218 99.1315 69.2759 99.1352C68.9532 99.1352 68.6868 99.2383 68.4696 99.4555C68.2493 99.6727 68.1493 99.9398 68.1493 100.248C68.1493 100.57 68.2524 100.837 68.4696 101.04C68.6751 101.245 68.9415 101.348 69.2618 101.348V101.351ZM68.5571 99.5312C68.7477 99.3414 68.9798 99.2523 69.2759 99.2523C69.5548 99.2523 69.7868 99.3414 69.9805 99.5312C70.1712 99.7227 70.2743 99.9547 70.2743 100.236C70.2761 100.369 70.2511 100.501 70.2006 100.624C70.1501 100.747 70.0753 100.858 69.9805 100.952C69.7868 101.142 69.5548 101.233 69.2759 101.233C68.993 101.233 68.7626 101.145 68.5727 100.952C68.478 100.858 68.4032 100.747 68.3527 100.624C68.3022 100.501 68.2771 100.369 68.279 100.236C68.279 99.9547 68.3657 99.7227 68.5571 99.5312ZM69.0305 100.339H69.1602C69.2516 100.339 69.3407 100.427 69.4173 100.594L69.5712 100.94H69.8134L69.6227 100.555C69.5446 100.402 69.4688 100.312 69.379 100.287C69.4923 100.261 69.5821 100.223 69.6462 100.147C69.6771 100.112 69.7007 100.071 69.7158 100.027C69.7308 99.9825 69.7369 99.9357 69.7337 99.8891C69.7368 99.8384 69.7281 99.7876 69.7084 99.7409C69.6886 99.6941 69.6582 99.6526 69.6196 99.6195C69.5313 99.5461 69.3907 99.507 69.2087 99.507H68.8016V100.94H69.0063V100.338L69.0305 100.339ZM69.0305 99.6727H69.2102C69.3391 99.6727 69.4298 99.6992 69.4805 99.7375C69.5282 99.775 69.5423 99.825 69.5423 99.9156C69.5423 100.082 69.4391 100.159 69.2485 100.159H69.029V99.6727H69.0305ZM36.2204 100.212C36.2204 99.7117 36.2055 99.3406 36.1938 99.1227H36.2055C36.2563 99.3805 36.3204 99.5727 36.3719 99.7008L38.2782 103.961H38.5985L40.5048 99.6625C40.5571 99.5453 40.6079 99.3687 40.6712 99.1234H40.686C40.6527 99.486 40.6355 99.8499 40.6344 100.214V103.973H41.2876V98.3844H40.4688L38.7157 102.273C38.6509 102.427 38.5618 102.656 38.4469 102.962H38.4204C38.3531 102.735 38.2679 102.513 38.1657 102.299L36.4516 98.3719H35.5821V103.962H36.2094V100.214L36.2204 100.212ZM42.7173 100.221H43.2813V103.702H42.7173V100.221ZM42.9993 98.9445C43.0535 98.946 43.1075 98.9364 43.1579 98.9162C43.2083 98.8961 43.254 98.8658 43.2923 98.8273C43.3326 98.7898 43.3648 98.7445 43.3871 98.6942C43.4094 98.6438 43.4213 98.5894 43.4219 98.5344C43.4242 98.479 43.4139 98.4238 43.3918 98.373C43.3698 98.3221 43.3365 98.2769 43.2946 98.2406C43.2554 98.2023 43.209 98.1722 43.158 98.152C43.107 98.1319 43.0525 98.1222 42.9977 98.1234C42.9435 98.1222 42.8896 98.1319 42.8392 98.152C42.7889 98.1722 42.7431 98.2023 42.7048 98.2406C42.6647 98.2785 42.6327 98.324 42.6106 98.3745C42.5884 98.4249 42.5766 98.4793 42.5759 98.5344C42.5759 98.6617 42.6149 98.7508 42.7048 98.8273C42.7836 98.9028 42.8886 98.9447 42.9977 98.9445H42.9993ZM47.2977 103.779V103.166C46.9891 103.396 46.6571 103.51 46.3141 103.51C45.904 103.51 45.5704 103.37 45.3274 103.1C45.0852 102.833 44.9555 102.462 44.9555 101.999C44.9555 101.515 45.0852 101.13 45.3524 100.837C45.6087 100.556 45.9423 100.415 46.3501 100.415C46.6829 100.415 47.0024 100.518 47.2977 100.723V100.07C47.029 99.9297 46.7227 99.8648 46.3759 99.8648C45.7368 99.8648 45.2376 100.07 44.8649 100.466C44.4954 100.862 44.3048 101.401 44.3048 102.051C44.3048 102.629 44.4704 103.115 44.8157 103.486C45.1751 103.867 45.6344 104.061 46.1969 104.061C46.6329 104.048 46.9891 103.958 47.2977 103.779ZM48.9094 101.923C48.9094 101.464 49.0126 101.093 49.2032 100.837C49.3821 100.607 49.5993 100.491 49.8555 100.491C50.0727 100.491 50.2274 100.53 50.3399 100.62V99.9539C50.2524 99.9156 50.1243 99.9031 49.9587 99.9031C49.7282 99.9031 49.5235 99.9812 49.3423 100.123C49.1516 100.274 48.9993 100.505 48.9094 100.798H48.8946V99.9805H48.2571V103.971H48.8962V101.923L48.9094 101.923ZM52.5813 104.05C53.1829 104.05 53.6673 103.856 54.0266 103.472C54.3844 103.091 54.5634 102.577 54.5634 101.937C54.5634 101.285 54.3993 100.786 54.0649 100.415C53.7329 100.044 53.2727 99.8641 52.6712 99.8641C52.0696 99.8641 51.5852 100.044 51.2259 100.39C50.8415 100.771 50.6391 101.31 50.6391 102.001C50.6391 102.602 50.8032 103.101 51.1501 103.472C51.5079 103.856 51.9813 104.048 52.5821 104.048L52.5813 104.05ZM51.6719 100.799C51.9157 100.542 52.2352 100.415 52.6313 100.415C53.0423 100.415 53.3501 100.542 53.579 100.799C53.8094 101.068 53.9243 101.45 53.9243 101.963C53.9243 102.449 53.8212 102.833 53.604 103.089C53.3876 103.358 53.0673 103.5 52.6446 103.5C52.2344 103.5 51.9157 103.358 51.6719 103.089C51.4298 102.82 51.3141 102.449 51.3141 101.962C51.2891 101.478 51.4173 101.083 51.6719 100.799ZM57.3641 103.702C57.6079 103.485 57.7368 103.218 57.7368 102.884C57.7396 102.749 57.715 102.614 57.6645 102.489C57.614 102.364 57.5387 102.25 57.443 102.155C57.2876 102.001 57.0477 101.861 56.6993 101.72C56.3915 101.591 56.2009 101.477 56.0977 101.387C56.043 101.334 56 101.27 55.9714 101.2C55.9429 101.129 55.9295 101.053 55.9321 100.977C55.9321 100.811 55.9969 100.684 56.1235 100.58C56.2524 100.478 56.4165 100.428 56.6368 100.428C56.9805 100.428 57.2766 100.519 57.5454 100.712V100.071C57.2786 99.9407 56.9845 99.8756 56.6876 99.8812C56.2774 99.8812 55.9305 99.9945 55.6759 100.212C55.5494 100.31 55.4477 100.436 55.3788 100.581C55.3099 100.725 55.2757 100.883 55.279 101.043C55.279 101.336 55.3673 101.58 55.5344 101.759C55.6751 101.911 55.9157 102.067 56.2509 102.206C56.5712 102.347 56.7876 102.474 56.9032 102.577C56.9572 102.625 57 102.684 57.0286 102.749C57.0572 102.815 57.071 102.887 57.0688 102.959C57.0688 103.331 56.8134 103.523 56.3149 103.523C55.9305 103.523 55.586 103.398 55.2774 103.142V103.831C55.5563 103.999 55.8907 104.075 56.261 104.075C56.7344 104.05 57.1055 103.934 57.361 103.704L57.3641 103.702ZM60.4094 99.8648C59.8079 99.8648 59.3235 100.044 58.9641 100.39C58.5829 100.772 58.3782 101.31 58.3782 102.001C58.3782 102.602 58.5438 103.101 58.8884 103.472C59.2477 103.856 59.7204 104.049 60.3219 104.049C60.9376 104.049 61.4071 103.855 61.7665 103.471C62.1259 103.089 62.3055 102.576 62.3055 101.936C62.3055 101.284 62.1376 100.785 61.8055 100.413C61.4602 100.042 60.9993 99.8633 60.4126 99.8633L60.4094 99.8648ZM61.6509 101.962C61.6509 102.449 61.5477 102.833 61.3305 103.089C61.1134 103.358 60.7938 103.5 60.3712 103.5C59.9602 103.5 59.6423 103.358 59.3985 103.089C59.1563 102.82 59.0407 102.449 59.0407 101.962C59.0407 101.449 59.168 101.053 59.4251 100.786C59.6673 100.53 59.9876 100.402 60.3844 100.402C60.7805 100.402 61.0993 100.53 61.3298 100.786C61.5344 101.067 61.6509 101.451 61.6509 101.962ZM63.379 103.959H64.0173V100.505H64.9516V99.9672H64.0173V99.3516C64.0173 98.7906 64.2337 98.5094 64.6829 98.5094C64.8337 98.5094 64.9884 98.5477 65.1024 98.6117V98.0359C64.9884 97.9844 64.8337 97.9727 64.6415 97.9727C64.2977 97.9727 64.0165 98.0758 63.7852 98.293C63.5165 98.5477 63.3743 98.8789 63.3743 99.3281V99.982H62.6993V100.52H63.3743V103.961L63.379 103.959ZM66.0009 102.87C66.0009 103.652 66.3446 104.048 67.0493 104.048C67.3048 104.048 67.4969 104.008 67.6509 103.916V103.369C67.5319 103.456 67.3874 103.501 67.2399 103.498C67.0227 103.498 66.8704 103.446 66.7813 103.33C66.6899 103.216 66.6384 103.023 66.6384 102.755V100.503H67.6509V99.9664H66.6384V98.7898C66.4188 98.8656 66.2032 98.9305 65.9985 98.9945V99.9656H65.3094V100.503H65.9985V102.87L66.0009 102.87ZM134.657 110.227C134.552 110.125 134.428 110.046 134.292 109.993C134.156 109.94 134.011 109.915 133.865 109.919C133.542 109.919 133.275 110.022 133.058 110.241C132.841 110.457 132.738 110.726 132.738 111.034C132.738 111.354 132.841 111.62 133.056 111.826C133.274 112.031 133.541 112.134 133.863 112.134C134.181 112.134 134.449 112.031 134.67 111.813C134.886 111.595 135 111.341 135 111.022C134.988 110.699 134.873 110.432 134.656 110.227L134.657 110.227ZM134.555 111.737C134.463 111.83 134.353 111.903 134.232 111.951C134.11 111.999 133.98 112.021 133.85 112.017C133.571 112.017 133.34 111.928 133.146 111.737C133.051 111.644 132.977 111.531 132.926 111.408C132.876 111.284 132.851 111.152 132.852 111.019C132.852 110.74 132.941 110.509 133.134 110.315C133.324 110.124 133.556 110.036 133.85 110.036C134.129 110.036 134.361 110.124 134.555 110.315C134.745 110.509 134.848 110.74 134.848 111.018C134.848 111.316 134.759 111.544 134.555 111.737ZM133.98 111.085C134.08 111.064 134.173 111.016 134.248 110.945C134.31 110.874 134.342 110.781 134.336 110.687C134.336 110.572 134.299 110.48 134.222 110.418C134.134 110.345 133.991 110.305 133.811 110.305H133.402V111.736H133.608V111.134H133.736C133.824 111.134 133.912 111.223 133.991 111.39L134.144 111.735H134.388L134.197 111.35C134.131 111.183 134.054 111.106 133.977 111.081L133.98 111.085ZM133.838 110.956H133.618V110.472H133.799C133.927 110.472 134.016 110.495 134.067 110.534C134.119 110.573 134.13 110.623 134.13 110.714C134.13 110.88 134.028 110.956 133.837 110.956H133.838ZM98.1477 99.8023H98.3259V98.3687H98.8001V98.1891H97.6735V98.3687H98.1477V99.8023ZM99.2329 98.7242C99.2329 98.5859 99.2329 98.4719 99.2227 98.407C99.2345 98.4828 99.261 98.5344 99.2727 98.5727L99.8227 99.8023H99.9102L100.463 98.5602C100.477 98.5227 100.489 98.4727 100.513 98.407C100.502 98.5344 100.502 98.6367 100.502 98.7148V99.8008H100.692V98.1891H100.463L99.9634 99.3016C99.9516 99.3406 99.9118 99.4187 99.8876 99.507H99.8719C99.8626 99.4555 99.836 99.4039 99.7993 99.3164L99.3001 98.1898H99.0423V99.8031H99.2219V98.7266L99.2329 98.7242Z" fill="#231F1F"/>
</g>
<defs>
<filter id="filter0_d_314_2103" x="0" y="0" width="170" height="170" filterUnits="userSpaceOnUse" color-interpolation-filters="sRGB">
<feFlood flood-opacity="0" result="BackgroundImageFix"/>
<feColorMatrix in="SourceAlpha" type="matrix" values="0 0 0 0 0 0 0 0 0 0 0 0 0 0 0 0 0 0 127 0" result="hardAlpha"/>
<feOffset/>
<feGaussianBlur stdDeviation="5"/>
<feComposite in2="hardAlpha" operator="out"/>
<feColorMatrix type="matrix" values="0 0 0 0 0 0 0 0 0 0 0 0 0 0 0 0 0 0 0.25 0"/>
<feBlend mode="normal" in2="BackgroundImageFix" result="effect1_dropShadow_314_2103"/>
<feBlend mode="normal" in="SourceGraphic" in2="effect1_dropShadow_314_2103" result="shape"/>
</filter>
<linearGradient id="paint0_linear_314_2103" x1="79.3019" y1="94.267" x2="83.2937" y2="91.9083" gradientUnits="userSpaceOnUse">
<stop stop-color="#909CA9"/>
<stop offset="1" stop-color="#EDEDEE"/>
</linearGradient>
<linearGradient id="paint1_linear_314_2103" x1="79.3942" y1="49.7988" x2="82.6061" y2="49.7988" gradientUnits="userSpaceOnUse">
<stop stop-color="#939FAB"/>
<stop offset="1" stop-color="#DCDEE1"/>
</linearGradient>
<radialGradient id="paint2_radial_314_2103" cx="0" cy="0" r="1" gradientUnits="userSpaceOnUse" gradientTransform="translate(95.603 64.5267) rotate(-171.461) scale(4.14328 8.28881)">
<stop stop-color="#EE352C"/>
<stop offset="1" stop-color="#A91D22"/>
</radialGradient>
<clipPath id="clip0_314_2103">
<rect width="100" height="100" fill="white" transform="translate(35 35)"/>
</clipPath>
</defs>
</svg>
