<svg width="170" height="170" viewBox="0 0 170 170" fill="none" xmlns="http://www.w3.org/2000/svg">
<g filter="url(#filter0_d_314_2032)">
<rect x="10" y="10" width="150" height="150" rx="75" fill="white"/>
</g>
<path d="M59.0338 95.8652H57.6744V88.0816C57.6744 87.4668 57.7143 86.7184 57.7869 85.8355H57.7565C57.6283 86.352 57.5119 86.7262 57.4096 86.9574L53.4557 95.8652H52.7932L48.8315 87.0223C48.7205 86.7754 48.6033 86.3777 48.4854 85.8355H48.4557C48.4979 86.2996 48.5213 87.0527 48.5213 88.0973V95.8652H47.2096V84.2738H49.0033L52.5596 92.3574C52.8276 92.966 53.001 93.4293 53.0854 93.7449H53.1408C53.3736 93.1113 53.558 92.6355 53.6963 92.323L57.3299 84.2738H59.0322V95.8652H59.0338ZM63.2182 95.8652H61.8963V87.5879H63.2182V95.8652ZM63.4463 84.6199C63.4463 84.8645 63.3604 85.0676 63.1901 85.2348C63.11 85.3164 63.0141 85.3809 62.9082 85.4241C62.8024 85.4674 62.6888 85.4886 62.5744 85.4863C62.3377 85.4863 62.1322 85.4051 61.9635 85.2434C61.7947 85.0809 61.7119 84.8738 61.7119 84.6191C61.7119 84.3801 61.7947 84.1762 61.9635 84.0105C62.1322 83.8449 62.3377 83.7652 62.5744 83.7652C62.8166 83.7652 63.0236 83.8457 63.1901 84.0105C63.3604 84.177 63.4463 84.3809 63.4463 84.6199ZM71.4783 95.4824C70.844 95.8723 70.0869 96.0652 69.2111 96.0652C68.0236 96.0652 67.069 95.6715 66.3393 94.8848C65.6299 94.1207 65.2736 93.1348 65.2736 91.9269C65.2736 90.5707 65.6611 89.473 66.4432 88.6387C67.2213 87.8035 68.2666 87.3863 69.5822 87.3863C70.301 87.3863 70.9393 87.527 71.4979 87.8066V89.1668C70.8799 88.7332 70.2268 88.5176 69.5252 88.5176C68.6822 88.5176 67.9963 88.8121 67.4651 89.3988C66.9111 90.0004 66.6307 90.8035 66.6307 91.8066C66.6307 92.7691 66.8869 93.5324 67.3955 94.0949C67.9057 94.6551 68.5854 94.9355 69.4432 94.9355C70.1666 94.9355 70.8447 94.6973 71.4791 94.2238L71.4783 95.4824ZM77.8026 88.9309C77.569 88.7512 77.233 88.6645 76.7901 88.6645C76.2518 88.6645 75.7986 88.9051 75.433 89.391C75.0174 89.9332 74.8111 90.6848 74.8111 91.6457V95.8652H73.4854V87.5871H74.8111V89.2941H74.8432C75.0377 88.6902 75.3385 88.2254 75.7401 87.8957C76.0968 87.6012 76.5454 87.4409 77.008 87.4426C77.3611 87.4426 77.6229 87.4809 77.8018 87.5559V88.9301L77.8026 88.9309ZM85.1861 91.741C85.1861 90.6816 84.9471 89.8715 84.469 89.3168C84.0049 88.7832 83.3557 88.5168 82.5197 88.5168C81.6963 88.5168 81.0354 88.7863 80.5408 89.3262C80.019 89.9035 79.758 90.7176 79.758 91.7746C79.758 92.7652 80.0057 93.5426 80.508 94.0973C81.0065 94.6551 81.6776 94.9348 82.5197 94.9348C83.3908 94.9348 84.058 94.6504 84.5151 94.0871C84.9627 93.534 85.1861 92.7535 85.1861 91.741ZM86.5447 91.6949C86.5447 93.0137 86.1721 94.0738 85.4299 94.8676C84.6846 95.6652 83.6822 96.0637 82.4205 96.0637C81.1783 96.0637 80.1893 95.6652 79.4643 94.8676C78.7533 94.0996 78.3971 93.084 78.3971 91.8223C78.3971 90.3816 78.8002 89.2723 79.6096 88.484C80.358 87.7527 81.3596 87.3848 82.6143 87.3848C83.8486 87.3848 84.8127 87.7699 85.508 88.5324C86.1971 89.298 86.5447 90.3527 86.5447 91.6949ZM93.1158 93.6512C93.1158 94.3293 92.8635 94.8895 92.3557 95.3379C91.8018 95.8223 91.0408 96.0645 90.0838 96.0645C89.301 96.0645 88.6143 95.9004 88.0307 95.566V94.141C88.6791 94.6684 89.3963 94.934 90.1822 94.934C91.2315 94.934 91.7572 94.5473 91.7572 93.7777C91.7617 93.6271 91.7328 93.4774 91.6727 93.3393C91.6126 93.2011 91.5228 93.0779 91.4096 92.9785C91.1768 92.7668 90.7236 92.5145 90.051 92.2176C89.358 91.9145 88.8635 91.6027 88.5721 91.2801C88.2221 90.8965 88.0463 90.398 88.0463 89.784C88.0463 89.0973 88.3213 88.5254 88.8635 88.0699C89.408 87.6129 90.1072 87.3848 90.9658 87.3848C91.6237 87.3848 92.2127 87.5129 92.7362 87.773V89.1066C92.1901 88.7129 91.5658 88.5168 90.8572 88.5168C90.4182 88.5168 90.0658 88.6262 89.8033 88.8387C89.6766 88.9371 89.5745 89.0638 89.5054 89.2087C89.4362 89.3536 89.4018 89.5126 89.4049 89.673C89.4049 90.0395 89.5158 90.3246 89.7369 90.5293C89.9338 90.7176 90.351 90.948 90.9799 91.216C91.6861 91.5121 92.1971 91.8191 92.508 92.1332C92.9119 92.5301 93.1158 93.0363 93.1158 93.6512ZM101.214 91.741C101.214 90.6816 100.974 89.8715 100.496 89.3168C100.031 88.7832 99.3815 88.5168 98.5471 88.5168C97.7229 88.5168 97.0627 88.7863 96.5658 89.3262C96.0447 89.9035 95.7846 90.7176 95.7846 91.7746C95.7846 92.7652 96.0338 93.5426 96.5299 94.0973C97.0346 94.6551 97.7065 94.9348 98.5471 94.9348C99.4197 94.9348 100.085 94.6504 100.542 94.0871C100.989 93.534 101.214 92.7535 101.214 91.741ZM102.575 91.6949C102.575 93.0137 102.199 94.0738 101.456 94.8676C100.713 95.6652 99.7111 96.0637 98.4494 96.0637C97.2057 96.0637 96.2174 95.6652 95.4916 94.8676C94.7815 94.0996 94.4244 93.084 94.4244 91.8223C94.4244 90.3816 94.8315 89.2723 95.6362 88.484C96.3846 87.7527 97.3869 87.3848 98.6432 87.3848C99.8783 87.3848 100.841 87.7699 101.534 88.5324C102.224 89.298 102.575 90.3527 102.575 91.6949ZM108.413 84.7746C108.144 84.6275 107.841 84.5527 107.534 84.5574C106.606 84.5574 106.146 85.141 106.146 86.3113V87.5871H108.085V88.7105H106.146V95.8652H104.819V88.7105H103.411V87.5871H104.819V86.2457C104.819 85.3348 105.098 84.6199 105.666 84.1051C106.152 83.6574 106.746 83.4355 107.454 83.4355C107.863 83.4355 108.182 83.4848 108.413 83.5793V84.7746ZM113.643 95.7824C113.331 95.9613 112.913 96.0504 112.399 96.0504C110.953 96.0504 110.231 95.2363 110.231 93.6066V88.7113H108.811V87.5871H110.231V85.5676C110.655 85.434 111.095 85.2887 111.56 85.1379V87.5871H113.643V88.7113H111.56V93.3824C111.56 93.9371 111.65 94.334 111.84 94.5644C112.031 94.8027 112.345 94.9191 112.786 94.9191C113.117 94.9191 113.402 94.8309 113.643 94.6519V95.7824ZM42.0151 128.174C42.0151 128.823 41.7846 129.383 41.3158 129.857C41.0974 130.086 40.8341 130.267 40.5423 130.39C40.2506 130.512 39.9368 130.572 39.6205 130.568C39.3105 130.572 39.0031 130.511 38.7183 130.389C38.4334 130.266 38.1776 130.085 37.9674 129.857C37.7484 129.636 37.5757 129.373 37.4593 129.084C37.3429 128.795 37.2851 128.485 37.2893 128.174C37.2893 127.507 37.5151 126.943 37.9674 126.478C38.1787 126.252 38.435 126.073 38.7198 125.953C39.0045 125.832 39.3114 125.772 39.6205 125.778C40.2846 125.778 40.8502 126.013 41.3158 126.486C41.7846 126.961 42.0151 127.523 42.0151 128.174ZM71.683 130.08H67.3611L51.6744 105.855C51.2971 105.251 50.9787 104.612 50.7236 103.947H50.5947C50.7072 104.596 50.7635 105.989 50.7635 108.121V130.08H47.2018V99.6871H51.8252L67.0424 123.531C67.6479 124.477 68.0627 125.155 68.2729 125.563H68.3572C68.2166 124.689 68.1432 123.198 68.1432 121.094V99.6879H71.6838L71.683 130.08ZM94.5213 130.08H78.4127V99.6871H93.8221V102.908H81.9721V113.018H92.9518V116.24H81.9721V126.858H94.5213V130.08ZM118.954 102.908H110.199V130.081H106.638V102.908H97.8666V99.6855H118.954V102.908Z" fill="black"/>
<path d="M70.4766 47.1895C73.9133 57.6988 75.2141 76.4465 85.2641 76.4465C86.0289 76.4465 86.8023 76.3723 87.5781 76.2238C78.443 74.0934 77.3602 55.5504 71.7859 45.9473C71.3415 46.3528 70.905 46.767 70.4766 47.1895Z" fill="url(#paint0_linear_314_2032)"/>
<path d="M71.7812 45.95C77.3555 55.5531 78.4383 74.0961 87.5734 76.2266C88.3066 76.0882 89.0281 75.8933 89.7312 75.6438C81.5312 71.6258 79.2648 53.6187 72.9344 44.9492C72.5508 45.2695 72.1656 45.6031 71.7812 45.95Z" fill="url(#paint1_linear_314_2032)"/>
<path d="M79.818 40.2383C79.0547 40.2383 78.2797 40.3133 77.5023 40.461C75.4688 40.8446 73.4031 41.7196 71.3203 43.0454C71.911 43.6352 72.4527 44.2722 72.9398 44.9501C75.0578 43.193 77.1617 41.8946 79.2578 41.1133C80.0231 40.8274 80.8117 40.6084 81.6148 40.4586C81.0275 40.31 80.4238 40.236 79.818 40.2383Z" fill="#14559A"/>
<path d="M96.1344 71.9398C97.0082 71.2419 97.8497 70.5044 98.6562 69.7297C95.1641 59.2695 93.9141 40.2539 83.7945 40.2539C83.0711 40.2539 82.3406 40.3211 81.6133 40.4562C90.8305 42.7484 92.0109 62.8039 96.1344 71.9398Z" fill="url(#paint2_linear_314_2032)"/>
<path d="M81.6102 40.4579C81.0225 40.3098 80.4185 40.2361 79.8125 40.2383L83.7922 40.2532C83.068 40.2532 82.3383 40.3204 81.6102 40.4579Z" fill="#3092C4"/>
<path d="M95.9586 74.1594C95.5556 73.7699 95.1748 73.358 94.818 72.9258C93.1156 74.1313 91.4187 75.0453 89.7344 75.6406C90.3336 75.9336 90.9625 76.1508 91.6297 76.2859C92.1611 76.394 92.7022 76.4477 93.2445 76.4461C95.1359 76.4461 96.6305 76.2227 97.9031 75.6117C97.2023 75.2328 96.5594 74.743 95.9586 74.1594Z" fill="#1969BC"/>
<path d="M79.2539 41.1148C87.5109 45.4336 88.2281 64.9898 94.8164 72.9297C95.2578 72.6187 95.6953 72.2891 96.132 71.9414C92.0078 62.8047 90.8289 42.7477 81.6125 40.457C80.8089 40.6081 80.0197 40.8282 79.2539 41.1148Z" fill="url(#paint3_linear_314_2032)"/>
<path d="M72.9375 44.9484C79.268 53.618 81.5344 71.625 89.7344 75.643C91.4203 75.0477 93.1156 74.1336 94.818 72.9281C88.2297 64.9883 87.5117 45.432 79.2555 41.1133C77.1594 41.893 75.0555 43.1914 72.9375 44.9484Z" fill="url(#paint4_linear_314_2032)"/>
<path d="M66.4227 46.9359C65.4297 49.1797 64.4164 52.1281 63.1914 55.9781C65.6273 52.5445 68.057 49.5867 70.4727 47.1891C70.1677 46.2341 69.8088 45.2971 69.3977 44.3828C68.3608 45.1797 67.3677 46.032 66.4227 46.9359Z" fill="url(#paint5_linear_314_2032)"/>
<path d="M70.2773 43.7363C69.9859 43.9449 69.6922 44.1582 69.3984 44.3832C69.8095 45.2975 70.1682 46.2344 70.4727 47.1895C70.9021 46.7678 71.3389 46.3536 71.7828 45.9473C71.3375 45.1734 70.8342 44.4343 70.2773 43.7363Z" fill="#2B74B1"/>
<path d="M71.3172 43.043C70.9711 43.2625 70.6266 43.4938 70.2773 43.7359C70.8353 44.4341 71.3388 45.174 71.7836 45.9492C72.1688 45.6008 72.5531 45.2656 72.9367 44.9477C72.4498 44.2696 71.9081 43.6326 71.3172 43.043Z" fill="#125A9E"/>
<path d="M127.634 39.4383C122.965 57.4461 113.212 71.9109 105.035 75.557H105.019L104.577 75.7453L104.524 75.7664L104.398 75.8148L104.342 75.8383L104.138 75.9102L104.054 75.9398L103.952 75.9734L103.854 76.0078L103.766 76.0367L103.592 76.0898L103.518 76.1094L103.4 76.1414L103.32 76.1633L103.192 76.1961L103.035 76.2305C103.405 76.3672 103.79 76.4359 104.205 76.4359C111.958 76.4359 119.777 62.5406 132.712 39.4336H127.633L127.634 39.4383Z" fill="url(#paint6_linear_314_2032)"/>
<path d="M61.5078 40.9703L61.5219 40.957L61.5398 40.9453H61.55L61.6758 40.8969L61.7008 40.8844L61.7328 40.8703L61.868 40.8219H61.875L62.1727 40.718L62.2164 40.7063L62.3445 40.668L62.4031 40.6492L62.5312 40.6109L62.5805 40.5984L63.0062 40.4875L63.0648 40.4742L63.1891 40.45L63.2508 40.4312L63.3758 40.4078H63.4047L63.6641 40.3594H63.7156L63.8352 40.3391L63.9023 40.3266L64.0164 40.3094L64.0805 40.2977L64.3594 40.2727C64.0849 40.2458 63.8094 40.2317 63.5336 40.2305C54.8016 40.2305 42.7711 56.432 37.3516 77.4133H38.3961C40.0161 74.5174 41.5884 71.5951 43.1125 68.6477C46.9086 53.7867 54.6391 43.6508 61.5063 40.9656" fill="url(#paint7_linear_314_2032)"/>
<path d="M66.4219 46.9363C67.367 46.0326 68.3601 45.1803 69.3969 44.3832C69.186 43.914 68.9495 43.4568 68.6883 43.0137C67.8898 43.9832 67.1602 45.2613 66.4219 46.9363ZM67.1398 41.0902C67.7102 41.5676 68.2203 42.2262 68.6883 43.0137C68.8307 42.8384 68.9814 42.6699 69.1398 42.509C68.5124 41.9165 67.8015 41.4193 67.0297 41.0332L67.1227 41.0777L67.1398 41.0902Z" fill="#0D82CA"/>
<path d="M43.1172 68.6488C51.0789 53.3051 54.8516 43.5949 61.5109 40.9668C54.6445 43.6535 46.9125 53.7887 43.1172 68.6488Z" fill="url(#paint8_linear_314_2032)"/>
<path d="M69.1391 42.5117C68.9836 42.6703 68.8367 42.8359 68.6875 43.0164C68.9375 43.4352 69.1703 43.8906 69.3977 44.3859C69.6914 44.1602 69.9852 43.9477 70.2766 43.7383C69.9264 43.3034 69.5463 42.8936 69.1391 42.5117Z" fill="#127BCA"/>
<path d="M46.7312 77.3453L46.5867 77.3625H46.5594L46.4367 77.375H46.4164L46.1242 77.3945H46.0938C54.1516 77.1687 57.8359 73.1344 59.6641 67.282C61.0523 62.8461 62.1938 59.1086 63.1938 55.9727C59.8188 60.7234 56.4273 66.3867 53.0187 72.7313C51.375 75.7891 48.875 77.0664 46.7312 77.3391" fill="url(#paint9_linear_314_2032)"/>
<path d="M46.7305 77.3441C48.8742 77.0707 51.3742 75.7949 53.018 72.7355C56.4266 66.3934 59.8195 60.7285 63.1914 55.977C64.4187 52.1262 65.4305 49.1793 66.4242 46.9355C59.7023 53.3332 52.9555 63.9715 46.7305 77.341" fill="url(#paint10_linear_314_2032)"/>
<path d="M43.1164 68.6504C41.5916 71.5978 40.0187 74.52 38.3984 77.416H41.4367C41.8199 74.4636 42.3806 71.537 43.1156 68.652" fill="#05A1E6"/>
<path d="M64.0836 40.3059L64.0187 40.3184L63.9047 40.3348L63.8383 40.3465L63.7187 40.3676L63.6672 40.3801L63.4078 40.4254H63.3789L63.2523 40.4504L63.1891 40.4668L63.0664 40.491L63.0086 40.5051L62.582 40.616L62.5328 40.6309L62.4039 40.6691L62.3453 40.684L62.218 40.7215L62.1711 40.734L61.875 40.8379L61.7406 40.8848L61.6844 40.9082L61.5594 40.9551L61.518 40.9754C54.8594 43.6035 51.0867 53.3137 43.125 68.6566C42.3891 71.5415 41.8282 74.4682 41.4453 77.4207H41.8719L44.793 77.4082H46.132L46.4242 77.3887H46.443L46.5656 77.3762H46.5953L46.7398 77.359C52.9641 63.9902 59.7117 53.352 66.4336 46.9543C67.1719 45.2793 67.9008 44.0004 68.6977 43.0324C68.2312 42.2449 67.7211 41.5848 67.1508 41.1066L67.1344 41.0941L67.0391 41.048L66.9453 41.0004L66.8539 40.9559L66.7461 40.9105L66.6617 40.8738L66.4852 40.8004L66.4102 40.7715L66.2789 40.7191L66.2078 40.6957L66.025 40.6332H66.0102L65.7984 40.573L65.7508 40.5582L65.5727 40.5082L65.5312 40.4965C65.385 40.458 65.2372 40.4257 65.0883 40.3996L65.0422 40.3871L64.85 40.3559L64.8125 40.3441L64.5852 40.3145H64.5453L64.3703 40.2949L64.0914 40.3207" fill="url(#paint11_linear_314_2032)"/>
<path d="M109.395 49.4062C107.863 54.3133 106.623 58.3617 105.543 61.693C109.747 55.9086 113.887 48.632 117.83 40.2344C113.23 41.6789 110.777 44.9852 109.395 49.4062Z" fill="url(#paint12_linear_314_2032)"/>
<path d="M105.676 75.25C105.462 75.3594 105.246 75.4625 105.035 75.557C113.212 71.9102 122.966 57.4453 127.634 39.4375H126.688C115.959 58.6016 112.509 71.4312 105.676 75.25Z" fill="url(#paint13_linear_314_2032)"/>
<path d="M100.335 73.6402C102.114 71.4691 103.563 67.7777 105.542 61.6934C103.26 64.8277 100.963 67.523 98.6641 69.7199L98.6523 69.7395C99.1539 71.2418 99.7039 72.5691 100.331 73.6395" fill="#079AE1"/>
<path d="M100.337 73.6406C99.732 74.3797 99.0906 74.9422 98.3773 75.3594C98.2211 75.4508 98.0633 75.5367 97.9023 75.6141C98.6555 76.0203 99.4773 76.2922 100.397 76.4008L100.805 76.4367H100.829L101.025 76.4492H101.691L101.766 76.4367L101.913 76.4242H101.984L102.144 76.407H102.155L102.205 76.3953L102.375 76.3688H102.425L102.616 76.3367H102.647L103.029 76.2555C101.973 75.8703 101.091 74.9586 100.33 73.6617" fill="#1969BC"/>
<path d="M85.2617 76.4477C86.0266 76.4477 86.7992 76.3727 87.575 76.2234C88.293 76.093 89.0125 75.8937 89.7328 75.6422C90.8253 76.178 92.027 76.4537 93.2438 76.4477H85.2617ZM93.2438 76.4477C95.1336 76.4477 96.6297 76.2234 97.9016 75.6133C98.6751 76.0327 99.5219 76.2998 100.396 76.4L100.804 76.4352H100.828L101.024 76.4477H101.259H93.2438Z" fill="#1E5CB3"/>
<path d="M101.258 76.448H101.695L101.77 76.4355L101.918 76.423H101.991L102.149 76.4059H102.163L102.211 76.3941L102.381 76.3684L102.433 76.3566L102.625 76.3254H102.655L103.037 76.2441C103.412 76.3819 103.809 76.4515 104.208 76.4496L101.26 76.4621L101.258 76.448Z" fill="#1D60B5"/>
<path d="M98.6594 69.7391V69.7266C97.853 70.5017 97.0115 71.2394 96.1375 71.9375C95.6992 72.2852 95.2625 72.6148 94.8203 72.9258C95.1774 73.3581 95.5584 73.7699 95.9617 74.1594C96.5633 74.7422 97.2047 75.2328 97.9055 75.6117C98.0656 75.5336 98.2242 75.4477 98.3797 75.357C99.0945 74.9398 99.7344 74.3773 100.341 73.6383C99.7133 72.568 99.1633 71.2406 98.6625 69.7383" fill="#175FAB"/>
<path d="M123.69 39.4375H118.927L118.173 39.4742L117.821 40.2258C113.879 48.6234 109.738 55.9 105.534 61.6852C103.558 67.768 102.107 71.4594 100.328 73.6312C101.088 74.9289 101.973 75.8414 103.025 76.2281L103.108 76.2102H103.125L103.183 76.1969L103.315 76.1641L103.393 76.1414L103.511 76.1102L103.584 76.0898L103.759 76.0367L103.847 76.0078L103.945 75.9719L104.046 75.9398L104.128 75.9086L104.334 75.8367L104.391 75.8156L104.516 75.7664L104.57 75.7469L105.012 75.5586H105.027C105.238 75.4648 105.453 75.3609 105.666 75.2516C112.502 71.4328 115.952 58.6031 126.68 39.4391H123.684L123.69 39.4375Z" fill="url(#paint14_linear_314_2032)"/>
<path d="M64.3594 40.2789L64.4086 40.2914L64.5328 40.3047H64.575L64.8016 40.3336L64.8406 40.3461L65.032 40.3781L65.0797 40.3898L65.5219 40.4875L65.5617 40.5L65.7391 40.55L65.7883 40.5648L65.9984 40.625L66.0141 40.6375L66.1984 40.7008L66.2688 40.7234L66.4008 40.7773L66.4758 40.8039L66.6508 40.8773L66.7367 40.9141L66.8422 40.9602L66.9359 41.0039L67.0289 41.0523C67.8011 41.4385 68.5123 41.936 69.1398 42.5289C69.3781 42.2773 69.6281 42.0523 69.8883 41.8492C68.4703 40.843 66.8617 40.2695 65.0086 40.2695C64.7938 40.2695 64.5797 40.282 64.3609 40.2984" fill="#7DCBEC"/>
<path d="M69.1406 42.5117C69.5375 42.8812 69.918 43.2937 70.2781 43.7383C70.6258 43.4961 70.9711 43.2633 71.318 43.0453C70.877 42.6004 70.3984 42.1945 69.8875 41.832C69.6215 42.0391 69.3718 42.2663 69.1406 42.5117Z" fill="#5EC5ED"/>
<path d="M64.1562 40.3329L64.8032 40.3052C66.6568 40.3052 68.2656 40.8772 69.6814 41.8828C71.18 40.7036 72.9866 40.2894 75.5027 40.2894H63.332L64.1562 40.3329Z" fill="url(#paint15_linear_314_2032)"/>
<path d="M75.501 40.2878C72.9888 40.2878 71.1783 40.702 69.6797 41.8812C70.1766 42.2322 70.654 42.6383 71.1076 43.0918C73.1899 41.7667 75.2564 40.8913 77.2913 40.5048C78.0683 40.3589 78.8414 40.2839 79.6065 40.2839L75.501 40.2878Z" fill="url(#paint16_linear_314_2032)"/>
<path d="M105.544 61.6977C106.625 58.3641 107.862 54.3172 109.398 49.4086C110.781 44.9859 113.23 41.6789 117.829 40.2359L118.184 39.4844C110.686 39.9336 107.182 43.7477 105.419 49.3961C102.335 59.257 100.466 65.6484 98.668 69.7219C100.965 67.525 103.262 64.8289 105.544 61.6977Z" fill="url(#paint17_linear_314_2032)"/>
<defs>
<filter id="filter0_d_314_2032" x="0" y="0" width="170" height="170" filterUnits="userSpaceOnUse" color-interpolation-filters="sRGB">
<feFlood flood-opacity="0" result="BackgroundImageFix"/>
<feColorMatrix in="SourceAlpha" type="matrix" values="0 0 0 0 0 0 0 0 0 0 0 0 0 0 0 0 0 0 127 0" result="hardAlpha"/>
<feOffset/>
<feGaussianBlur stdDeviation="5"/>
<feComposite in2="hardAlpha" operator="out"/>
<feColorMatrix type="matrix" values="0 0 0 0 0 0 0 0 0 0 0 0 0 0 0 0 0 0 0.25 0"/>
<feBlend mode="normal" in2="BackgroundImageFix" result="effect1_dropShadow_314_2032"/>
<feBlend mode="normal" in="SourceGraphic" in2="effect1_dropShadow_314_2032" result="shape"/>
</filter>
<linearGradient id="paint0_linear_314_2032" x1="-97096" y1="40.1462" x2="-97096" y2="85.5346" gradientUnits="userSpaceOnUse">
<stop stop-color="#0994DC"/>
<stop offset="0.35" stop-color="#66CEF5"/>
<stop offset="0.846" stop-color="#127BCA"/>
<stop offset="1" stop-color="#127BCA"/>
</linearGradient>
<linearGradient id="paint1_linear_314_2032" x1="80.8089" y1="38.7752" x2="80.8089" y2="85.4403" gradientUnits="userSpaceOnUse">
<stop stop-color="#0E76BC"/>
<stop offset="0.36" stop-color="#36AEE8"/>
<stop offset="0.846" stop-color="#00ADEF"/>
<stop offset="1" stop-color="#00ADEF"/>
</linearGradient>
<linearGradient id="paint2_linear_314_2032" x1="90.1193" y1="75.3198" x2="90.1193" y2="38.2846" gradientUnits="userSpaceOnUse">
<stop stop-color="#1C63B7"/>
<stop offset="0.5" stop-color="#33BDF2"/>
<stop offset="1" stop-color="#33BDF2" stop-opacity="0.42"/>
</linearGradient>
<linearGradient id="paint3_linear_314_2032" x1="87.6246" y1="34.0542" x2="87.6246" y2="82.5045" gradientUnits="userSpaceOnUse">
<stop stop-color="#166AB8"/>
<stop offset="0.4" stop-color="#36AEE8"/>
<stop offset="0.846" stop-color="#0798DD"/>
<stop offset="1" stop-color="#0798DD"/>
</linearGradient>
<linearGradient id="paint4_linear_314_2032" x1="84.1026" y1="34.3892" x2="84.1026" y2="85.9098" gradientUnits="userSpaceOnUse">
<stop stop-color="#124379"/>
<stop offset="0.39" stop-color="#1487CB"/>
<stop offset="0.78" stop-color="#165197"/>
<stop offset="1" stop-color="#165197"/>
</linearGradient>
<linearGradient id="paint5_linear_314_2032" x1="62.8006" y1="49.5578" x2="70.0816" y2="49.5578" gradientUnits="userSpaceOnUse">
<stop stop-color="#33BDF2" stop-opacity="0.698"/>
<stop offset="1" stop-color="#1DACD8"/>
</linearGradient>
<linearGradient id="paint6_linear_314_2032" x1="117.907" y1="74.3758" x2="117.907" y2="38.2055" gradientUnits="userSpaceOnUse">
<stop stop-color="#136AB4"/>
<stop offset="0.6" stop-color="#59CAF5" stop-opacity="0.549"/>
<stop offset="1" stop-color="#59CAF5" stop-opacity="0.235"/>
</linearGradient>
<linearGradient id="paint7_linear_314_2032" x1="36.9668" y1="58.2016" x2="63.9678" y2="58.2016" gradientUnits="userSpaceOnUse">
<stop stop-color="#05A1E6" stop-opacity="0.247"/>
<stop offset="1" stop-color="#05A1E6"/>
</linearGradient>
<linearGradient id="paint8_linear_314_2032" x1="79332.7" y1="75.3661" x2="79332.7" y2="38.4257" gradientUnits="userSpaceOnUse">
<stop stop-color="#318ED5"/>
<stop offset="1" stop-color="#38A7E4"/>
</linearGradient>
<linearGradient id="paint9_linear_314_2032" x1="54.526" y1="75.4604" x2="54.526" y2="39.4596" gradientUnits="userSpaceOnUse">
<stop stop-color="#05A1E6"/>
<stop offset="1" stop-color="#05A1E6" stop-opacity="0.549"/>
</linearGradient>
<linearGradient id="paint10_linear_314_2032" x1="56.6927" y1="77.4119" x2="56.6927" y2="46.9909" gradientUnits="userSpaceOnUse">
<stop stop-color="#1959A6"/>
<stop offset="0.5" stop-color="#05A1E6"/>
<stop offset="0.918" stop-color="#7EC5EA"/>
<stop offset="1" stop-color="#7EC5EA"/>
</linearGradient>
<linearGradient id="paint11_linear_314_2032" x1="57.6858" y1="75.3561" x2="51.8846" y2="42.4559" gradientUnits="userSpaceOnUse">
<stop stop-color="#165096"/>
<stop offset="1" stop-color="#0D82CA"/>
</linearGradient>
<linearGradient id="paint12_linear_314_2032" x1="111.529" y1="56.7012" x2="111.529" y2="39.4633" gradientUnits="userSpaceOnUse">
<stop stop-color="#05A1E6"/>
<stop offset="0.874" stop-color="#0495D6"/>
<stop offset="1" stop-color="#0495D6"/>
</linearGradient>
<linearGradient id="paint13_linear_314_2032" x1="119.88" y1="37.9748" x2="112.889" y2="77.6221" gradientUnits="userSpaceOnUse">
<stop stop-color="#38A7E4" stop-opacity="0.329"/>
<stop offset="0.962" stop-color="#0E88D3"/>
<stop offset="1" stop-color="#0E88D3"/>
</linearGradient>
<linearGradient id="paint14_linear_314_2032" x1="113.309" y1="39.3755" x2="113.309" y2="76.8848" gradientUnits="userSpaceOnUse">
<stop stop-color="#168CD4"/>
<stop offset="0.5" stop-color="#1C87CC"/>
<stop offset="1" stop-color="#154B8D"/>
</linearGradient>
<linearGradient id="paint15_linear_314_2032" x1="62.4507" y1="35.6315" x2="106.178" y2="53.7676" gradientUnits="userSpaceOnUse">
<stop stop-color="#97D6EE"/>
<stop offset="0.703" stop-color="#55C1EA"/>
<stop offset="1" stop-color="#55C1EA"/>
</linearGradient>
<linearGradient id="paint16_linear_314_2032" x1="74.4095" y1="46.0485" x2="108.946" y2="30.3919" gradientUnits="userSpaceOnUse">
<stop stop-color="#7ACCEC"/>
<stop offset="1" stop-color="#3FB7ED"/>
</linearGradient>
<linearGradient id="paint17_linear_314_2032" x1="108.275" y1="41.3662" x2="108.275" y2="78.1486" gradientUnits="userSpaceOnUse">
<stop stop-color="#1DA7E7"/>
<stop offset="1" stop-color="#37ABE7" stop-opacity="0"/>
</linearGradient>
</defs>
</svg>
