<svg width="96" height="68" viewBox="0 0 96 68" fill="none" xmlns="http://www.w3.org/2000/svg">
<path d="M93.6855 10.5107C93.1359 8.479 92.0639 6.62681 90.5762 5.13857C89.0886 3.65032 87.2372 2.57796 85.2064 2.02828C77.7714 0 47.8511 0 47.8511 0C47.8511 0 17.9296 0.0615517 10.4958 2.08983C8.46515 2.6396 6.61386 3.712 5.1263 5.20024C3.63875 6.68848 2.56684 8.54063 2.01732 10.5722C-0.23151 23.7883 -1.10397 43.9251 2.07884 56.6118C2.62836 58.6434 3.70027 60.4955 5.18783 61.9838C6.67538 63.472 8.52668 64.5444 10.5574 65.0942C17.9917 67.1224 47.9126 67.1224 47.9126 67.1224C47.9126 67.1224 77.8335 67.1224 85.2679 65.0942C87.2986 64.5444 89.1499 63.472 90.6374 61.9838C92.125 60.4955 93.1969 58.6434 93.7464 56.6118C96.1177 43.3775 96.849 23.2531 93.6849 10.5113" fill="#FF0000"/>
<path d="M38.3281 47.9447L63.1496 33.5615L38.3281 19.1777V47.9447Z" fill="white"/>
</svg>
