<svg width="868" height="663" viewBox="0 0 868 663" fill="none" xmlns="http://www.w3.org/2000/svg">
<path d="M611.97 0.755568C611.835 0.220031 611.291 -0.104656 610.756 0.0303594L602.029 2.23042C601.493 2.36544 601.168 2.909 601.303 3.44454C601.438 3.98005 601.982 4.30474 602.517 4.16975L610.275 2.21412L612.23 9.97142C612.365 10.5069 612.909 10.8316 613.445 10.6966C613.98 10.5616 614.305 10.018 614.17 9.48251L611.97 0.755568ZM433.859 299.513L611.858 1.51281L610.141 0.487208L432.141 298.487L433.859 299.513Z" fill="#E5E5E5"/>
<path d="M731.912 186.41C732.139 185.907 731.914 185.315 731.41 185.088L723.204 181.394C722.7 181.167 722.108 181.392 721.881 181.895C721.655 182.399 721.879 182.991 722.383 183.218L729.678 186.501L726.394 193.796C726.167 194.3 726.392 194.892 726.895 195.119C727.399 195.345 727.991 195.121 728.218 194.617L731.912 186.41ZM433.355 299.935L731.355 186.935L730.645 185.065L432.645 298.065L433.355 299.935Z" fill="#E5E5E5"/>
<path d="M867.707 299.707C868.098 299.317 868.098 298.683 867.707 298.293L861.343 291.929C860.953 291.538 860.319 291.538 859.929 291.929C859.538 292.319 859.538 292.953 859.929 293.343L865.586 299L859.929 304.657C859.538 305.047 859.538 305.681 859.929 306.071C860.319 306.462 860.953 306.462 861.343 306.071L867.707 299.707ZM433 300H867V298H433V300Z" fill="#E5E5E5"/>
<path d="M731.237 480.971C731.774 480.84 732.102 480.299 731.971 479.763L729.836 471.02C729.705 470.483 729.164 470.155 728.627 470.286C728.091 470.417 727.762 470.958 727.893 471.494L729.791 479.266L722.02 481.164C721.483 481.295 721.155 481.836 721.286 482.373C721.417 482.909 721.958 483.238 722.494 483.107L731.237 480.971ZM432.481 299.855L730.481 480.855L731.519 479.145L433.519 298.145L432.481 299.855Z" fill="#E5E5E5"/>
<path d="M581.614 662.923C582.124 663.136 582.71 662.895 582.923 662.386L586.393 654.082C586.606 653.572 586.366 652.986 585.856 652.773C585.347 652.561 584.761 652.801 584.548 653.311L581.463 660.692L574.082 657.607C573.572 657.394 572.986 657.634 572.773 658.144C572.561 658.653 572.801 659.239 573.311 659.452L581.614 662.923ZM432.075 299.38L581.075 662.38L582.925 661.62L433.925 298.62L432.075 299.38Z" fill="#E5E5E5"/>
<path d="M256.03 0.755568C256.165 0.220031 256.709 -0.104656 257.244 0.0303594L265.971 2.23042C266.507 2.36544 266.832 2.909 266.697 3.44454C266.562 3.98005 266.018 4.30474 265.483 4.16975L257.725 2.21412L255.77 9.97142C255.635 10.5069 255.091 10.8316 254.555 10.6966C254.02 10.5616 253.695 10.018 253.83 9.48251L256.03 0.755568ZM434.141 299.513L256.142 1.51281L257.859 0.487208L435.859 298.487L434.141 299.513Z" fill="#E5E5E5"/>
<path d="M136.088 186.41C135.861 185.907 136.086 185.315 136.59 185.088L144.796 181.394C145.3 181.167 145.892 181.392 146.119 181.895C146.345 182.399 146.121 182.991 145.617 183.218L138.322 186.501L141.606 193.796C141.833 194.3 141.608 194.892 141.105 195.119C140.601 195.345 140.009 195.121 139.782 194.617L136.088 186.41ZM434.645 299.935L136.645 186.935L137.355 185.065L435.355 298.065L434.645 299.935Z" fill="#E5E5E5"/>
<path d="M0.292908 299.707C-0.0976257 299.317 -0.0976257 298.683 0.292908 298.293L6.65686 291.929C7.04739 291.538 7.68054 291.538 8.07108 291.929C8.46158 292.319 8.46158 292.953 8.07108 293.343L2.41422 299L8.07108 304.657C8.46158 305.047 8.46158 305.681 8.07108 306.071C7.68054 306.462 7.04739 306.462 6.65686 306.071L0.292908 299.707ZM435 300H1V298H435V300Z" fill="#E5E5E5"/>
<path d="M136.763 480.971C136.226 480.84 135.898 480.299 136.029 479.763L138.164 471.02C138.295 470.483 138.836 470.155 139.373 470.286C139.909 470.417 140.238 470.958 140.107 471.494L138.209 479.266L145.98 481.164C146.517 481.295 146.845 481.836 146.714 482.373C146.583 482.909 146.042 483.238 145.506 483.107L136.763 480.971ZM435.519 299.855L137.519 480.855L136.481 479.145L434.481 298.145L435.519 299.855Z" fill="#E5E5E5"/>
<path d="M286.386 662.923C285.876 663.136 285.29 662.895 285.077 662.386L281.607 654.082C281.394 653.572 281.634 652.986 282.144 652.773C282.653 652.561 283.239 652.801 283.452 653.311L286.537 660.692L293.918 657.607C294.428 657.394 295.014 657.634 295.227 658.144C295.439 658.653 295.199 659.239 294.689 659.452L286.386 662.923ZM435.925 299.38L286.925 662.38L285.075 661.62L434.075 298.62L435.925 299.38Z" fill="#E5E5E5"/>
</svg>
