<svg width="170" height="170" viewBox="0 0 170 170" fill="none" xmlns="http://www.w3.org/2000/svg">
<g filter="url(#filter0_d_314_2093)">
<rect x="10" y="10" width="150" height="150" rx="75" fill="white"/>
</g>
<path d="M59.7968 104.973C59.3815 105.328 58.8759 105.561 58.3362 105.646C57.7965 105.73 57.2438 105.664 56.7397 105.453L51.3712 103.201C50.8358 102.977 50.378 102.601 50.0549 102.119C49.7319 101.638 49.5579 101.071 49.5547 100.491V68.9895C49.5578 68.4093 49.7318 67.8429 50.0548 67.3609C50.3779 66.8789 50.8357 66.5028 51.3712 66.2794L56.7397 64.0641C57.2438 63.8536 57.7964 63.787 58.3361 63.8717C58.8758 63.9564 59.3815 64.1891 59.7968 64.544L61.0003 65.5409C60.7562 65.3654 60.4684 65.2607 60.1686 65.2385C59.8688 65.2162 59.5687 65.2772 59.3013 65.4147C59.034 65.5521 58.8099 65.7608 58.6536 66.0176C58.4973 66.2744 58.4151 66.5694 58.4159 66.87V102.61C58.4151 102.911 58.4973 103.206 58.6536 103.463C58.8099 103.719 59.034 103.928 59.3013 104.066C59.5687 104.203 59.8688 104.264 60.1686 104.242C60.4684 104.219 60.7562 104.115 61.0003 103.939L59.7968 104.973Z" fill="#52218A"/>
<path d="M51.3712 103.203C50.8358 102.979 50.378 102.603 50.0549 102.121C49.7319 101.639 49.5579 101.073 49.5547 100.493V100.249C49.5583 100.59 49.6641 100.922 49.8582 101.202C50.0524 101.483 50.3262 101.698 50.6441 101.822C50.962 101.945 51.3096 101.97 51.6419 101.894C51.9742 101.817 52.2761 101.643 52.5085 101.394L98.2911 50.7742C98.9395 50.1291 99.7716 49.7004 100.673 49.5471C101.575 49.3937 102.502 49.5232 103.327 49.9178L117.933 56.9474C118.686 57.3092 119.32 57.8761 119.765 58.5829C120.209 59.2897 120.444 60.1076 120.444 60.9424V61.1122C120.444 60.5826 120.293 60.064 120.009 59.6167C119.726 59.1694 119.321 58.8117 118.843 58.5851C118.364 58.3586 117.831 58.2725 117.305 58.3368C116.78 58.4012 116.283 58.6133 115.873 58.9487L61.0003 103.941L59.7968 104.975C59.3815 105.33 58.8759 105.563 58.3362 105.647C57.7965 105.732 57.2438 105.666 56.7397 105.455L51.3712 103.203Z" fill="#6C33AF"/>
<path d="M51.3712 66.28C50.8357 66.5034 50.3779 66.8795 50.0548 67.3615C49.7318 67.8435 49.5578 68.4099 49.5547 68.9901V69.2338C49.5583 68.8928 49.664 68.5608 49.8581 68.2805C50.0523 68.0001 50.326 67.7845 50.644 67.6612C50.9619 67.538 51.3095 67.5129 51.6419 67.5892C51.9742 67.6654 52.2761 67.8396 52.5085 68.0891L98.2911 118.708C98.9394 119.354 99.7716 119.782 100.673 119.936C101.575 120.089 102.502 119.96 103.327 119.565L117.933 112.535C118.686 112.174 119.32 111.607 119.765 110.9C120.209 110.193 120.444 109.375 120.444 108.54V108.371C120.444 108.9 120.293 109.419 120.009 109.866C119.726 110.313 119.321 110.671 118.843 110.898C118.364 111.124 117.831 111.21 117.305 111.146C116.78 111.082 116.283 110.869 115.873 110.534L61.0003 65.5415L59.7968 64.5078C59.3778 64.159 58.8704 63.933 58.3308 63.8548C57.7912 63.7766 57.2405 63.8492 56.7397 64.0647L51.3712 66.28Z" fill="#854CC7"/>
<path d="M103.329 119.567C102.504 119.961 101.577 120.09 100.675 119.937C99.7734 119.784 98.9413 119.355 98.293 118.71C98.6569 119.071 99.1195 119.317 99.6226 119.415C100.126 119.514 100.647 119.462 101.121 119.266C101.594 119.069 101.999 118.737 102.284 118.311C102.57 117.885 102.722 117.384 102.724 116.871V52.6276C102.725 52.1136 102.575 51.6106 102.29 51.1823C102.006 50.7539 101.602 50.4194 101.127 50.221C100.653 50.0227 100.131 49.9694 99.6263 50.0678C99.1218 50.1663 98.6578 50.4121 98.293 50.7742C98.9413 50.1291 99.7735 49.7004 100.675 49.5471C101.577 49.3937 102.504 49.5232 103.329 49.9178L117.935 56.9402C118.687 57.3019 119.322 57.8688 119.766 58.5756C120.211 59.2823 120.446 60.1002 120.446 60.935V108.549C120.446 109.384 120.211 110.202 119.767 110.909C119.322 111.615 118.687 112.182 117.935 112.544L103.329 119.567Z" fill="#B179F1"/>
<defs>
<filter id="filter0_d_314_2093" x="0" y="0" width="170" height="170" filterUnits="userSpaceOnUse" color-interpolation-filters="sRGB">
<feFlood flood-opacity="0" result="BackgroundImageFix"/>
<feColorMatrix in="SourceAlpha" type="matrix" values="0 0 0 0 0 0 0 0 0 0 0 0 0 0 0 0 0 0 127 0" result="hardAlpha"/>
<feOffset/>
<feGaussianBlur stdDeviation="5"/>
<feComposite in2="hardAlpha" operator="out"/>
<feColorMatrix type="matrix" values="0 0 0 0 0 0 0 0 0 0 0 0 0 0 0 0 0 0 0.25 0"/>
<feBlend mode="normal" in2="BackgroundImageFix" result="effect1_dropShadow_314_2093"/>
<feBlend mode="normal" in="SourceGraphic" in2="effect1_dropShadow_314_2093" result="shape"/>
</filter>
</defs>
</svg>
