<svg width="74" height="109" viewBox="0 0 74 109" fill="none" xmlns="http://www.w3.org/2000/svg">
<g opacity="0.1">
<path d="M60 1H14C6.8203 1 1 6.8203 1 14V95C1 102.18 6.8203 108 14 108H60C67.1797 108 73 102.18 73 95V14C73 6.8203 67.1797 1 60 1Z" stroke="#3F4749" stroke-width="2" stroke-linecap="round" stroke-linejoin="round"/>
<path d="M37.001 103.53C39.5581 103.53 41.631 101.457 41.631 98.8995C41.631 96.3425 39.5581 94.2695 37.001 94.2695C34.444 94.2695 32.3711 96.3425 32.3711 98.8995C32.3711 101.457 34.444 103.53 37.001 103.53Z" stroke="#3F4749" stroke-width="2" stroke-linecap="round" stroke-linejoin="round"/>
<path d="M52.829 12.6991C53.8176 12.6991 54.6191 11.8977 54.6191 10.9091C54.6191 9.92053 53.8176 9.11914 52.829 9.11914C51.8405 9.11914 51.0391 9.92053 51.0391 10.9091C51.0391 11.8977 51.8405 12.6991 52.829 12.6991Z" fill="#3F4749" stroke="#3F4749" stroke-width="2" stroke-linecap="round" stroke-linejoin="round"/>
<path d="M46.1924 7.93945H27.8125V13.8795H46.1924V7.93945Z" stroke="#3F4749" stroke-width="2" stroke-linecap="round" stroke-linejoin="round"/>
<path d="M24.3203 58.91L33.1503 50.0801" stroke="#3F4749" stroke-width="2" stroke-linecap="round" stroke-linejoin="round"/>
<path d="M40.8516 58.91L49.6915 50.0801" stroke="#3F4749" stroke-width="2" stroke-linecap="round" stroke-linejoin="round"/>
</g>
</svg>
