<svg width="74" height="109" viewBox="0 0 74 109" fill="none" xmlns="http://www.w3.org/2000/svg">
<g opacity="0.1">
<path d="M60 1H14C6.8203 1 1 6.8203 1 14V95C1 102.18 6.8203 108 14 108H60C67.1797 108 73 102.18 73 95V14C73 6.8203 67.1797 1 60 1Z" stroke="#3F4749" stroke-width="2" stroke-linecap="round" stroke-linejoin="round"/>
<path d="M37.001 103.53C39.5581 103.53 41.631 101.457 41.631 98.8995C41.631 96.3425 39.5581 94.2695 37.001 94.2695C34.444 94.2695 32.3711 96.3425 32.3711 98.8995C32.3711 101.457 34.444 103.53 37.001 103.53Z" stroke="#3F4749" stroke-width="2" stroke-linecap="round" stroke-linejoin="round"/>
<path d="M52.829 12.6971C53.8176 12.6971 54.6191 11.8958 54.6191 10.9072C54.6191 9.91858 53.8176 9.11719 52.829 9.11719C51.8405 9.11719 51.0391 9.91858 51.0391 10.9072C51.0391 11.8958 51.8405 12.6971 52.829 12.6971Z" fill="#3F4749" stroke="#3F4749" stroke-width="2" stroke-linecap="round" stroke-linejoin="round"/>
<path d="M46.1924 7.9375H27.8125V13.8775H46.1924V7.9375Z" stroke="#3F4749" stroke-width="2" stroke-linecap="round" stroke-linejoin="round"/>
<path d="M24.3203 58.9081L33.1503 50.0781" stroke="#3F4749" stroke-width="2" stroke-linecap="round" stroke-linejoin="round"/>
<path d="M40.8516 58.9081L49.6915 50.0781" stroke="#3F4749" stroke-width="2" stroke-linecap="round" stroke-linejoin="round"/>
</g>
</svg>
