<svg width="170" height="170" viewBox="0 0 170 170" fill="none" xmlns="http://www.w3.org/2000/svg">
<g filter="url(#filter0_d_314_2083)">
<rect x="10" y="10" width="150" height="150" rx="75" fill="white"/>
</g>
<path d="M72.2017 111.656C72.2017 111.656 68.4775 113.823 74.8557 114.555C82.5838 115.437 86.533 115.311 95.0471 113.702C95.0471 113.702 97.29 115.104 100.417 116.32C81.3236 124.499 57.2072 115.845 72.2017 111.656ZM69.8674 100.98C69.8674 100.98 65.6892 104.073 72.0728 104.734C80.3283 105.587 86.8463 105.656 98.1307 103.484C98.1307 103.484 99.6877 105.066 102.14 105.93C79.0603 112.68 53.3541 106.462 69.8674 100.98Z" fill="#0074BD"/>
<path d="M89.5322 82.8687C94.2393 88.2867 88.2979 93.1578 88.2979 93.1578C88.2979 93.1578 100.242 86.993 94.758 79.2695C89.6338 72.0703 85.7057 68.4945 106.973 56.1602C106.973 56.1609 73.5893 64.4961 89.5322 82.8687Z" fill="#EA2D2E"/>
<path d="M114.784 119.552C114.784 119.552 117.541 121.826 111.747 123.583C100.729 126.92 65.8826 127.927 56.2044 123.717C52.7271 122.202 59.2505 120.103 61.3029 119.66C63.4427 119.197 64.6646 119.281 64.6646 119.281C60.7951 116.557 39.6544 124.633 53.9279 126.949C92.8505 133.259 124.879 124.108 114.784 119.552ZM73.9943 89.9158C73.9943 89.9158 56.2708 94.1259 67.7185 95.6564C72.5529 96.3033 82.1857 96.1548 91.1646 95.4017C98.5005 94.7853 105.862 93.4689 105.862 93.4689C105.862 93.4689 103.278 94.5775 101.406 95.8541C83.4044 100.589 48.6373 98.3837 58.6474 93.5431C67.1099 89.4501 73.9943 89.9158 73.9943 89.9158ZM105.789 107.687C124.086 98.1814 115.626 89.0462 109.72 90.2767C108.276 90.5775 107.629 90.8392 107.629 90.8392C107.629 90.8392 108.166 89.9962 109.191 89.6337C120.873 85.5283 129.856 101.745 105.423 108.169C105.423 108.167 105.704 107.913 105.789 107.687Z" fill="#0074BD"/>
<path d="M94.7581 36.2402C94.7581 36.2402 104.889 46.3777 85.1464 61.9613C69.3136 74.466 81.5363 81.5941 85.141 89.7418C75.898 81.4035 69.1183 74.0621 73.666 67.2301C80.3441 57.2035 98.8449 52.3402 94.7581 36.2402Z" fill="#EA2D2E"/>
<path d="M75.7906 133.454C93.35 134.577 120.322 132.829 120.96 124.52C120.96 124.52 119.733 127.67 106.447 130.169C91.4578 132.991 72.9672 132.662 62.0039 130.852C62.0039 130.852 64.25 132.712 75.7906 133.454Z" fill="#0074BD"/>
<defs>
<filter id="filter0_d_314_2083" x="0" y="0" width="170" height="170" filterUnits="userSpaceOnUse" color-interpolation-filters="sRGB">
<feFlood flood-opacity="0" result="BackgroundImageFix"/>
<feColorMatrix in="SourceAlpha" type="matrix" values="0 0 0 0 0 0 0 0 0 0 0 0 0 0 0 0 0 0 127 0" result="hardAlpha"/>
<feOffset/>
<feGaussianBlur stdDeviation="5"/>
<feComposite in2="hardAlpha" operator="out"/>
<feColorMatrix type="matrix" values="0 0 0 0 0 0 0 0 0 0 0 0 0 0 0 0 0 0 0.25 0"/>
<feBlend mode="normal" in2="BackgroundImageFix" result="effect1_dropShadow_314_2083"/>
<feBlend mode="normal" in="SourceGraphic" in2="effect1_dropShadow_314_2083" result="shape"/>
</filter>
</defs>
</svg>
