<svg width="16" height="16" viewBox="0 0 16 16" fill="none" xmlns="http://www.w3.org/2000/svg">
<path d="M9.7068 13.7068L14.7068 8.70685C14.7997 8.61406 14.8735 8.50386 14.9238 8.38254C14.9741 8.26123 15 8.13118 15 7.99985C15 7.86852 14.9741 7.73847 14.9238 7.61716C14.8735 7.49584 14.7997 7.38564 14.7068 7.29285L9.7068 2.29285C9.61395 2.2 9.50373 2.12636 9.38242 2.07611C9.26112 2.02586 9.1311 2 8.9998 2C8.8685 2 8.73848 2.02586 8.61717 2.07611C8.49587 2.12636 8.38564 2.2 8.2928 2.29285C8.19995 2.38569 8.12631 2.49592 8.07606 2.61722C8.02581 2.73853 7.99995 2.86855 7.99995 2.99985C7.99995 3.13115 8.02581 3.26117 8.07606 3.38247C8.12631 3.50378 8.19995 3.614 8.2928 3.70685L11.5858 6.99985H1.9998C1.73458 6.99985 1.48023 7.10521 1.29269 7.29274C1.10516 7.48028 0.999799 7.73463 0.999799 7.99985C0.999799 8.26507 1.10516 8.51942 1.29269 8.70696C1.48023 8.89449 1.73458 8.99985 1.9998 8.99985H11.5858L8.2928 12.2928C8.19961 12.3855 8.12566 12.4957 8.0752 12.617C8.02474 12.7383 7.99876 12.8684 7.99876 12.9998C7.99876 13.1313 8.02474 13.2614 8.0752 13.3827C8.12566 13.504 8.19961 13.6142 8.2928 13.7068C8.38559 13.7998 8.49579 13.8735 8.61711 13.9238C8.73842 13.9742 8.86847 14.0001 8.9998 14.0001C9.13113 14.0001 9.26118 13.9742 9.38249 13.9238C9.50381 13.8735 9.61401 13.7998 9.7068 13.7068Z" fill="#1CBF73"/>
<path d="M9.7068 13.7068L14.7068 8.70685C14.7997 8.61406 14.8735 8.50386 14.9238 8.38254C14.9741 8.26123 15 8.13118 15 7.99985C15 7.86852 14.9741 7.73847 14.9238 7.61716C14.8735 7.49584 14.7997 7.38564 14.7068 7.29285L9.7068 2.29285C9.61395 2.2 9.50373 2.12636 9.38242 2.07611C9.26112 2.02586 9.1311 2 8.9998 2C8.8685 2 8.73848 2.02586 8.61717 2.07611C8.49587 2.12636 8.38564 2.2 8.2928 2.29285C8.19995 2.38569 8.12631 2.49592 8.07606 2.61722C8.02581 2.73853 7.99995 2.86855 7.99995 2.99985C7.99995 3.13115 8.02581 3.26117 8.07606 3.38247C8.12631 3.50378 8.19995 3.614 8.2928 3.70685L11.5858 6.99985H1.9998C1.73458 6.99985 1.48023 7.10521 1.29269 7.29274C1.10516 7.48028 0.999799 7.73463 0.999799 7.99985C0.999799 8.26507 1.10516 8.51942 1.29269 8.70696C1.48023 8.89449 1.73458 8.99985 1.9998 8.99985H11.5858L8.2928 12.2928C8.19961 12.3855 8.12566 12.4957 8.0752 12.617C8.02474 12.7383 7.99876 12.8684 7.99876 12.9998C7.99876 13.1313 8.02474 13.2614 8.0752 13.3827C8.12566 13.504 8.19961 13.6142 8.2928 13.7068C8.38559 13.7998 8.49579 13.8735 8.61711 13.9238C8.73842 13.9742 8.86847 14.0001 8.9998 14.0001C9.13113 14.0001 9.26118 13.9742 9.38249 13.9238C9.50381 13.8735 9.61401 13.7998 9.7068 13.7068Z" fill="url(#paint0_linear_314_1935)"/>
<defs>
<linearGradient id="paint0_linear_314_1935" x1="15" y1="8.00003" x2="0.999799" y2="8.00003" gradientUnits="userSpaceOnUse">
<stop stop-color="#FF3934"/>
<stop offset="1" stop-color="#FF7033"/>
</linearGradient>
</defs>
</svg>
