<svg width="68" height="50" viewBox="0 0 68 50" fill="none" xmlns="http://www.w3.org/2000/svg">
<path d="M18.9996 0.833333C19.4374 0.505029 19.9355 0.266158 20.4655 0.13036C20.9956 -0.00543813 21.5472 -0.0355051 22.0889 0.0418771C22.6306 0.119259 23.1517 0.302575 23.6225 0.581357C24.0933 0.860139 24.5047 1.22893 24.833 1.66667C25.1613 2.10441 25.4001 2.60252 25.5359 3.13258C25.6717 3.66264 25.7018 4.21425 25.6244 4.75592C25.547 5.2976 25.3637 5.81873 25.0849 6.28956C24.8062 6.76039 24.4374 7.1717 23.9996 7.5C17.483 12.3875 13.7496 17.1417 11.6121 21.2917C14.547 20.5362 17.6443 20.7138 20.4736 21.7998C23.3029 22.8858 25.7236 24.8263 27.3991 27.3515C29.0747 29.8767 29.922 32.8612 29.8232 35.8901C29.7243 38.9191 28.6843 41.842 26.8477 44.2526C25.0111 46.6632 22.4691 48.4418 19.575 49.3411C16.681 50.2404 13.5787 50.2157 10.6993 49.2705C7.81987 48.3253 5.30647 46.5066 3.50841 44.0671C1.71034 41.6275 0.716948 38.6885 0.666296 35.6583C0.132389 30.5414 0.859089 25.3715 2.78296 20.6C5.27046 14.325 10.133 7.48333 18.9996 0.833333ZM56.4996 0.833333C56.9374 0.505029 57.4355 0.266158 57.9655 0.13036C58.4956 -0.00543813 59.0472 -0.0355051 59.5889 0.0418771C60.1306 0.119259 60.6517 0.302575 61.1225 0.581357C61.5933 0.860139 62.0047 1.22893 62.333 1.66667C62.6613 2.10441 62.9001 2.60252 63.0359 3.13258C63.1717 3.66264 63.2018 4.21425 63.1244 4.75592C63.047 5.2976 62.8637 5.81873 62.5849 6.28956C62.3062 6.76039 61.9374 7.1717 61.4996 7.5C54.983 12.3875 51.2496 17.1417 49.1121 21.2917C52.047 20.5362 55.1443 20.7138 57.9736 21.7998C60.8029 22.8858 63.2236 24.8263 64.8991 27.3515C66.5747 29.8767 67.422 32.8612 67.3232 35.8901C67.2243 38.9191 66.1843 41.842 64.3477 44.2526C62.5111 46.6632 59.9691 48.4418 57.075 49.3411C54.181 50.2404 51.0787 50.2157 48.1993 49.2705C45.3199 48.3253 42.8065 46.5066 41.0084 44.0671C39.2103 41.6275 38.2169 38.6885 38.1663 35.6583C37.6324 30.5414 38.3591 25.3715 40.283 20.6C42.7746 14.325 47.633 7.48333 56.4996 0.833333Z" fill="black"/>
<path d="M18.9996 0.833333C19.4374 0.505029 19.9355 0.266158 20.4655 0.13036C20.9956 -0.00543813 21.5472 -0.0355051 22.0889 0.0418771C22.6306 0.119259 23.1517 0.302575 23.6225 0.581357C24.0933 0.860139 24.5047 1.22893 24.833 1.66667C25.1613 2.10441 25.4001 2.60252 25.5359 3.13258C25.6717 3.66264 25.7018 4.21425 25.6244 4.75592C25.547 5.2976 25.3637 5.81873 25.0849 6.28956C24.8062 6.76039 24.4374 7.1717 23.9996 7.5C17.483 12.3875 13.7496 17.1417 11.6121 21.2917C14.547 20.5362 17.6443 20.7138 20.4736 21.7998C23.3029 22.8858 25.7236 24.8263 27.3991 27.3515C29.0747 29.8767 29.922 32.8612 29.8232 35.8901C29.7243 38.9191 28.6843 41.842 26.8477 44.2526C25.0111 46.6632 22.4691 48.4418 19.575 49.3411C16.681 50.2404 13.5787 50.2157 10.6993 49.2705C7.81987 48.3253 5.30647 46.5066 3.50841 44.0671C1.71034 41.6275 0.716948 38.6885 0.666296 35.6583C0.132389 30.5414 0.859089 25.3715 2.78296 20.6C5.27046 14.325 10.133 7.48333 18.9996 0.833333ZM56.4996 0.833333C56.9374 0.505029 57.4355 0.266158 57.9655 0.13036C58.4956 -0.00543813 59.0472 -0.0355051 59.5889 0.0418771C60.1306 0.119259 60.6517 0.302575 61.1225 0.581357C61.5933 0.860139 62.0047 1.22893 62.333 1.66667C62.6613 2.10441 62.9001 2.60252 63.0359 3.13258C63.1717 3.66264 63.2018 4.21425 63.1244 4.75592C63.047 5.2976 62.8637 5.81873 62.5849 6.28956C62.3062 6.76039 61.9374 7.1717 61.4996 7.5C54.983 12.3875 51.2496 17.1417 49.1121 21.2917C52.047 20.5362 55.1443 20.7138 57.9736 21.7998C60.8029 22.8858 63.2236 24.8263 64.8991 27.3515C66.5747 29.8767 67.422 32.8612 67.3232 35.8901C67.2243 38.9191 66.1843 41.842 64.3477 44.2526C62.5111 46.6632 59.9691 48.4418 57.075 49.3411C54.181 50.2404 51.0787 50.2157 48.1993 49.2705C45.3199 48.3253 42.8065 46.5066 41.0084 44.0671C39.2103 41.6275 38.2169 38.6885 38.1663 35.6583C37.6324 30.5414 38.3591 25.3715 40.283 20.6C42.7746 14.325 47.633 7.48333 56.4996 0.833333Z" fill="url(#paint0_linear_362_195062)"/>
<defs>
<linearGradient id="paint0_linear_362_195062" x1="0.496094" y1="24.999" x2="67.3309" y2="24.999" gradientUnits="userSpaceOnUse">
<stop stop-color="#FF3934"/>
<stop offset="1" stop-color="#FF7033"/>
</linearGradient>
</defs>
</svg>
