<svg width="68" height="50" viewBox="0 0 68 50" fill="none" xmlns="http://www.w3.org/2000/svg">
<path d="M49.0004 49.1667C48.5626 49.495 48.0645 49.7338 47.5345 49.8696C47.0044 50.0054 46.4528 50.0355 45.9111 49.9581C45.3694 49.8807 44.8483 49.6974 44.3775 49.4186C43.9067 49.1399 43.4953 48.7711 43.167 48.3333C42.8387 47.8956 42.5999 47.3975 42.4641 46.8674C42.3283 46.3374 42.2982 45.7858 42.3756 45.2441C42.453 44.7024 42.6363 44.1813 42.9151 43.7104C43.1938 43.2396 43.5626 42.8283 44.0004 42.5C50.517 37.6125 54.2504 32.8583 56.3879 28.7083C53.453 29.4638 50.3557 29.2862 47.5264 28.2002C44.6971 27.1142 42.2764 25.1737 40.6009 22.6485C38.9253 20.1233 38.078 17.1388 38.1768 14.1099C38.2757 11.0809 39.3157 8.158 41.1523 5.74738C42.9889 3.33677 45.5309 1.55821 48.425 0.658928C51.319 -0.240356 54.4213 -0.215687 57.3007 0.7295C60.1801 1.67469 62.6935 3.49343 64.4916 5.93295C66.2897 8.37246 67.2831 11.3115 67.3337 14.3417C67.8676 19.4586 67.1409 24.6285 65.217 29.4C62.7295 35.675 57.867 42.5167 49.0004 49.1667ZM11.5004 49.1667C11.0626 49.495 10.5645 49.7338 10.0345 49.8696C9.5044 50.0054 8.95279 50.0355 8.41111 49.9581C7.86944 49.8807 7.34832 49.6974 6.87748 49.4186C6.40665 49.1399 5.99535 48.7711 5.66704 48.3333C5.33874 47.8956 5.09986 47.3975 4.96407 46.8674C4.82827 46.3374 4.7982 45.7858 4.87558 45.2441C4.95296 44.7024 5.13628 44.1813 5.41507 43.7104C5.69385 43.2396 6.06263 42.8283 6.50037 42.5C13.017 37.6125 16.7504 32.8583 18.8879 28.7083C15.953 29.4638 12.8557 29.2862 10.0264 28.2002C7.1971 27.1142 4.77644 25.1737 3.10085 22.6485C1.42527 20.1233 0.578011 17.1388 0.676834 14.1099C0.775658 11.0809 1.81566 8.158 3.65229 5.74738C5.48891 3.33677 8.03091 1.55821 10.925 0.658928C13.819 -0.240356 16.9213 -0.215687 19.8007 0.7295C22.6801 1.67469 25.1935 3.49343 26.9916 5.93295C28.7897 8.37246 29.7831 11.3115 29.8337 14.3417C30.3676 19.4586 29.6409 24.6285 27.717 29.4C25.2254 35.675 20.367 42.5167 11.5004 49.1667Z" fill="black"/>
<path d="M49.0004 49.1667C48.5626 49.495 48.0645 49.7338 47.5345 49.8696C47.0044 50.0054 46.4528 50.0355 45.9111 49.9581C45.3694 49.8807 44.8483 49.6974 44.3775 49.4186C43.9067 49.1399 43.4953 48.7711 43.167 48.3333C42.8387 47.8956 42.5999 47.3975 42.4641 46.8674C42.3283 46.3374 42.2982 45.7858 42.3756 45.2441C42.453 44.7024 42.6363 44.1813 42.9151 43.7104C43.1938 43.2396 43.5626 42.8283 44.0004 42.5C50.517 37.6125 54.2504 32.8583 56.3879 28.7083C53.453 29.4638 50.3557 29.2862 47.5264 28.2002C44.6971 27.1142 42.2764 25.1737 40.6009 22.6485C38.9253 20.1233 38.078 17.1388 38.1768 14.1099C38.2757 11.0809 39.3157 8.158 41.1523 5.74738C42.9889 3.33677 45.5309 1.55821 48.425 0.658928C51.319 -0.240356 54.4213 -0.215687 57.3007 0.7295C60.1801 1.67469 62.6935 3.49343 64.4916 5.93295C66.2897 8.37246 67.2831 11.3115 67.3337 14.3417C67.8676 19.4586 67.1409 24.6285 65.217 29.4C62.7295 35.675 57.867 42.5167 49.0004 49.1667ZM11.5004 49.1667C11.0626 49.495 10.5645 49.7338 10.0345 49.8696C9.5044 50.0054 8.95279 50.0355 8.41111 49.9581C7.86944 49.8807 7.34832 49.6974 6.87748 49.4186C6.40665 49.1399 5.99535 48.7711 5.66704 48.3333C5.33874 47.8956 5.09986 47.3975 4.96407 46.8674C4.82827 46.3374 4.7982 45.7858 4.87558 45.2441C4.95296 44.7024 5.13628 44.1813 5.41507 43.7104C5.69385 43.2396 6.06263 42.8283 6.50037 42.5C13.017 37.6125 16.7504 32.8583 18.8879 28.7083C15.953 29.4638 12.8557 29.2862 10.0264 28.2002C7.1971 27.1142 4.77644 25.1737 3.10085 22.6485C1.42527 20.1233 0.578011 17.1388 0.676834 14.1099C0.775658 11.0809 1.81566 8.158 3.65229 5.74738C5.48891 3.33677 8.03091 1.55821 10.925 0.658928C13.819 -0.240356 16.9213 -0.215687 19.8007 0.7295C22.6801 1.67469 25.1935 3.49343 26.9916 5.93295C28.7897 8.37246 29.7831 11.3115 29.8337 14.3417C30.3676 19.4586 29.6409 24.6285 27.717 29.4C25.2254 35.675 20.367 42.5167 11.5004 49.1667Z" fill="url(#paint0_linear_362_195066)"/>
<defs>
<linearGradient id="paint0_linear_362_195066" x1="67.5039" y1="25.001" x2="0.669067" y2="25.001" gradientUnits="userSpaceOnUse">
<stop stop-color="#FF3934"/>
<stop offset="1" stop-color="#FF7033"/>
</linearGradient>
</defs>
</svg>
