<svg width="80" height="80" viewBox="0 0 80 80" fill="none" xmlns="http://www.w3.org/2000/svg">
<g clip-path="url(#clip0_314_1672)">
<path d="M26.9699 5.37109H15.7699C14.9699 5.37109 14.3984 5.94252 14.3984 6.74252C14.3984 7.54252 14.9699 8.11395 15.7699 8.11395H26.9699C27.7699 8.11395 28.3413 7.54252 28.3413 6.74252C28.3413 5.94252 27.6556 5.37109 26.9699 5.37109Z" fill="white"/>
<path d="M26.9699 5.37109H15.7699C14.9699 5.37109 14.3984 5.94252 14.3984 6.74252C14.3984 7.54252 14.9699 8.11395 15.7699 8.11395H26.9699C27.7699 8.11395 28.3413 7.54252 28.3413 6.74252C28.3413 5.94252 27.6556 5.37109 26.9699 5.37109Z" fill="url(#paint0_linear_314_1672)"/>
<path d="M41.1419 33.2571C41.599 33.0286 42.0561 32.8 42.6276 32.6857H42.7419V6.85714C42.7419 3.08571 39.6561 0 35.8847 0H6.85614C3.08471 0 0.113281 3.08571 0.113281 6.74286V6.85714V18.0571C0.113281 18.8571 0.68471 19.4286 1.48471 19.4286C2.28471 19.4286 2.85614 18.8571 2.85614 18.0571V13.6H39.999V33.9429C40.3419 33.7143 40.6847 33.4857 41.1419 33.2571ZM2.85614 10.8571V6.85714C2.85614 4.57143 4.68471 2.74286 6.97042 2.74286H35.8847C38.1704 2.74286 39.999 4.57143 39.999 6.85714V10.9714H2.85614V10.8571Z" fill="white"/>
<path d="M41.1419 33.2571C41.599 33.0286 42.0561 32.8 42.6276 32.6857H42.7419V6.85714C42.7419 3.08571 39.6561 0 35.8847 0H6.85614C3.08471 0 0.113281 3.08571 0.113281 6.74286V6.85714V18.0571C0.113281 18.8571 0.68471 19.4286 1.48471 19.4286C2.28471 19.4286 2.85614 18.8571 2.85614 18.0571V13.6H39.999V33.9429C40.3419 33.7143 40.6847 33.4857 41.1419 33.2571ZM2.85614 10.8571V6.85714C2.85614 4.57143 4.68471 2.74286 6.97042 2.74286H35.8847C38.1704 2.74286 39.999 4.57143 39.999 6.85714V10.9714H2.85614V10.8571Z" fill="url(#paint1_linear_314_1672)"/>
<path d="M0.57025 23.3121C0.113107 23.6549 -0.115464 24.3406 0.113107 24.9121C0.341679 25.4835 0.913107 25.8263 1.48454 25.8263C2.05596 25.8263 2.62739 25.4835 2.74168 24.7978C2.85596 24.2263 2.74168 23.6549 2.28454 23.3121C1.71311 23.0835 1.14168 23.0835 0.57025 23.3121Z" fill="white"/>
<path d="M0.57025 23.3121C0.113107 23.6549 -0.115464 24.3406 0.113107 24.9121C0.341679 25.4835 0.913107 25.8263 1.48454 25.8263C2.05596 25.8263 2.62739 25.4835 2.74168 24.7978C2.85596 24.2263 2.74168 23.6549 2.28454 23.3121C1.71311 23.0835 1.14168 23.0835 0.57025 23.3121Z" fill="url(#paint2_linear_314_1672)"/>
<path d="M1.48471 29.4844C0.798995 29.4844 0.113281 30.0558 0.113281 30.8558V67.0844C0.113281 70.8558 3.199 73.9415 6.97042 73.9415H25.1419C25.0276 73.0272 24.9133 72.1129 25.0276 71.1987H6.85614C4.57042 71.1987 2.85614 69.3701 2.85614 67.0844V56.5701H24.9133L22.2847 54.1701H2.85614V30.8558C2.85614 30.1701 2.17042 29.4844 1.48471 29.4844Z" fill="white"/>
<path d="M1.48471 29.4844C0.798995 29.4844 0.113281 30.0558 0.113281 30.8558V67.0844C0.113281 70.8558 3.199 73.9415 6.97042 73.9415H25.1419C25.0276 73.0272 24.9133 72.1129 25.0276 71.1987H6.85614C4.57042 71.1987 2.85614 69.3701 2.85614 67.0844V56.5701H24.9133L22.2847 54.1701H2.85614V30.8558C2.85614 30.1701 2.17042 29.4844 1.48471 29.4844Z" fill="url(#paint3_linear_314_1672)"/>
<path d="M21.3723 58.7422C18.5152 58.7422 16.3438 61.0279 16.3438 63.7708C16.3438 66.5136 18.6295 68.7993 21.3723 68.7993C24.1152 68.7993 26.4009 66.5136 26.4009 63.7708C26.4009 61.0279 24.1152 58.7422 21.3723 58.7422ZM21.3723 66.5136C19.8866 66.5136 18.7437 65.3708 18.7437 63.885C18.7437 62.3993 19.8866 61.2565 21.3723 61.2565C22.858 61.2565 24.0009 62.3993 24.0009 63.885C24.0009 65.2565 22.858 66.5136 21.3723 66.5136Z" fill="white"/>
<path d="M21.3723 58.7422C18.5152 58.7422 16.3438 61.0279 16.3438 63.7708C16.3438 66.5136 18.6295 68.7993 21.3723 68.7993C24.1152 68.7993 26.4009 66.5136 26.4009 63.7708C26.4009 61.0279 24.1152 58.7422 21.3723 58.7422ZM21.3723 66.5136C19.8866 66.5136 18.7437 65.3708 18.7437 63.885C18.7437 62.3993 19.8866 61.2565 21.3723 61.2565C22.858 61.2565 24.0009 62.3993 24.0009 63.885C24.0009 65.2565 22.858 66.5136 21.3723 66.5136Z" fill="url(#paint4_linear_314_1672)"/>
<path d="M61.7126 25.8285C61.7126 25.0285 61.1412 24.457 60.3412 24.457H46.8555V27.1999H60.3412C61.1412 27.1999 61.7126 26.6285 61.7126 25.8285Z" fill="white"/>
<path d="M61.7126 25.8285C61.7126 25.0285 61.1412 24.457 60.3412 24.457H46.8555V27.1999H60.3412C61.1412 27.1999 61.7126 26.6285 61.7126 25.8285Z" fill="url(#paint5_linear_314_1672)"/>
<path d="M28.9162 74.6287C29.3733 77.6001 31.8876 79.8858 34.9733 80.0001H60.0019C65.259 80.0001 70.2876 77.943 74.059 74.2858C77.7162 70.5144 79.7733 65.4858 79.7733 60.2287C79.7733 54.9715 77.7162 49.943 73.9447 46.2858L61.1448 33.4858C59.8876 32.2287 58.1733 31.543 56.459 31.543H56.3447C54.859 31.543 53.3733 32.1144 52.3447 33.2573C51.5448 34.0573 51.0876 34.9715 50.859 36.1144L50.7448 36.343L50.5162 36.2287C49.6019 35.6573 48.5733 35.4287 47.5448 35.4287C47.0876 35.4287 46.6305 35.4287 46.1733 35.543C46.059 35.6573 45.9447 35.6573 45.8305 35.6573C45.3733 35.7715 44.9162 36.0001 44.459 36.2287C44.0019 36.4573 43.4305 36.8001 43.0876 37.2573C42.4019 38.0573 41.8305 38.9715 41.7162 40.0001V40.343L41.3733 40.0001C38.9733 38.5144 35.8876 38.8573 33.9448 40.8001C33.259 41.6001 32.6876 42.5144 32.459 43.4287L32.3448 43.7715L26.6305 38.0573C24.459 35.7715 20.9162 35.4287 18.4019 37.3715L17.9448 37.8287C16.8019 38.9715 16.2305 40.4573 16.2305 42.0573C16.2305 43.7715 17.0305 45.3715 18.2876 46.6287L25.8305 54.1715L28.8019 57.143L38.4019 66.743H35.0876C34.4019 66.743 33.7162 66.743 33.1448 66.9715C32.1162 67.3144 31.2019 67.7715 30.4019 68.5715C29.4876 69.3715 28.9162 70.5144 28.6876 71.6573C28.6876 72.6858 28.6876 73.6001 28.9162 74.6287ZM32.3448 70.6287C32.9162 69.8287 33.8305 69.4858 34.859 69.4858H41.1448L43.659 72.0001C44.2305 72.4573 45.0305 72.4573 45.7162 72.0001C46.1733 71.4287 46.1733 70.5144 45.7162 69.943L20.1162 44.4573C19.2019 43.543 18.7448 42.1715 18.9733 40.9144C19.0876 40.2287 19.5448 39.6573 20.1162 39.3144C20.6876 38.8573 21.4876 38.6287 22.2876 38.743C23.2019 38.8573 24.0019 39.2001 24.5733 39.7715L42.2876 57.3715C42.859 57.8287 43.659 57.8287 44.3448 57.3715C44.8019 56.8001 44.8019 55.8858 44.3448 55.3144L36.3448 47.3144C35.659 46.6287 35.2019 45.6001 35.2019 44.6858C35.2019 43.0858 36.459 41.7144 38.059 41.7144C38.1733 41.7144 38.2876 41.7144 38.4019 41.7144C39.3162 41.8287 40.2305 42.1715 40.9162 42.8573L48.9162 50.8573C49.1448 51.0858 49.4876 51.2001 49.9448 51.2001C50.2876 51.2001 50.6305 51.0858 50.9733 50.8573C51.4305 50.2858 51.4305 49.3715 50.9733 48.8001L45.7162 43.543C45.4876 43.3144 45.259 42.9715 45.1448 42.6287C44.5733 42.1715 44.3448 41.6001 44.3448 40.9144C44.3448 40.1144 44.6876 39.3144 45.259 38.8573L45.3733 38.743C45.9448 38.2858 46.7448 38.0573 47.4305 38.0573C48.3448 38.1715 49.259 38.5144 50.059 39.0858L55.3162 44.343C55.5448 44.5715 55.8876 44.6858 56.3447 44.6858C56.6876 44.6858 57.0305 44.5715 57.3733 44.343C57.8305 43.7715 57.8305 42.8573 57.3733 42.2858L54.7448 40.0001C54.059 39.4287 53.6019 38.5144 53.6019 37.4858C53.6019 36.6858 53.8305 35.8858 54.4019 35.2001C55.0876 34.6287 55.8876 34.2858 56.8019 34.2858C57.7162 34.4001 58.6305 34.743 59.3162 35.4287L72.0019 48.343C75.2019 51.4287 77.0305 55.7715 77.0305 60.2287C77.0305 69.7144 69.4876 77.3715 60.0019 77.3715C60.0019 77.3715 60.0019 77.3715 59.8876 77.3715H34.9733C33.259 77.3715 31.7733 76.0001 31.5448 74.2858V72.9144C31.5448 72.0001 31.7733 71.3144 32.3448 70.6287Z" fill="white"/>
<path d="M28.9162 74.6287C29.3733 77.6001 31.8876 79.8858 34.9733 80.0001H60.0019C65.259 80.0001 70.2876 77.943 74.059 74.2858C77.7162 70.5144 79.7733 65.4858 79.7733 60.2287C79.7733 54.9715 77.7162 49.943 73.9447 46.2858L61.1448 33.4858C59.8876 32.2287 58.1733 31.543 56.459 31.543H56.3447C54.859 31.543 53.3733 32.1144 52.3447 33.2573C51.5448 34.0573 51.0876 34.9715 50.859 36.1144L50.7448 36.343L50.5162 36.2287C49.6019 35.6573 48.5733 35.4287 47.5448 35.4287C47.0876 35.4287 46.6305 35.4287 46.1733 35.543C46.059 35.6573 45.9447 35.6573 45.8305 35.6573C45.3733 35.7715 44.9162 36.0001 44.459 36.2287C44.0019 36.4573 43.4305 36.8001 43.0876 37.2573C42.4019 38.0573 41.8305 38.9715 41.7162 40.0001V40.343L41.3733 40.0001C38.9733 38.5144 35.8876 38.8573 33.9448 40.8001C33.259 41.6001 32.6876 42.5144 32.459 43.4287L32.3448 43.7715L26.6305 38.0573C24.459 35.7715 20.9162 35.4287 18.4019 37.3715L17.9448 37.8287C16.8019 38.9715 16.2305 40.4573 16.2305 42.0573C16.2305 43.7715 17.0305 45.3715 18.2876 46.6287L25.8305 54.1715L28.8019 57.143L38.4019 66.743H35.0876C34.4019 66.743 33.7162 66.743 33.1448 66.9715C32.1162 67.3144 31.2019 67.7715 30.4019 68.5715C29.4876 69.3715 28.9162 70.5144 28.6876 71.6573C28.6876 72.6858 28.6876 73.6001 28.9162 74.6287ZM32.3448 70.6287C32.9162 69.8287 33.8305 69.4858 34.859 69.4858H41.1448L43.659 72.0001C44.2305 72.4573 45.0305 72.4573 45.7162 72.0001C46.1733 71.4287 46.1733 70.5144 45.7162 69.943L20.1162 44.4573C19.2019 43.543 18.7448 42.1715 18.9733 40.9144C19.0876 40.2287 19.5448 39.6573 20.1162 39.3144C20.6876 38.8573 21.4876 38.6287 22.2876 38.743C23.2019 38.8573 24.0019 39.2001 24.5733 39.7715L42.2876 57.3715C42.859 57.8287 43.659 57.8287 44.3448 57.3715C44.8019 56.8001 44.8019 55.8858 44.3448 55.3144L36.3448 47.3144C35.659 46.6287 35.2019 45.6001 35.2019 44.6858C35.2019 43.0858 36.459 41.7144 38.059 41.7144C38.1733 41.7144 38.2876 41.7144 38.4019 41.7144C39.3162 41.8287 40.2305 42.1715 40.9162 42.8573L48.9162 50.8573C49.1448 51.0858 49.4876 51.2001 49.9448 51.2001C50.2876 51.2001 50.6305 51.0858 50.9733 50.8573C51.4305 50.2858 51.4305 49.3715 50.9733 48.8001L45.7162 43.543C45.4876 43.3144 45.259 42.9715 45.1448 42.6287C44.5733 42.1715 44.3448 41.6001 44.3448 40.9144C44.3448 40.1144 44.6876 39.3144 45.259 38.8573L45.3733 38.743C45.9448 38.2858 46.7448 38.0573 47.4305 38.0573C48.3448 38.1715 49.259 38.5144 50.059 39.0858L55.3162 44.343C55.5448 44.5715 55.8876 44.6858 56.3447 44.6858C56.6876 44.6858 57.0305 44.5715 57.3733 44.343C57.8305 43.7715 57.8305 42.8573 57.3733 42.2858L54.7448 40.0001C54.059 39.4287 53.6019 38.5144 53.6019 37.4858C53.6019 36.6858 53.8305 35.8858 54.4019 35.2001C55.0876 34.6287 55.8876 34.2858 56.8019 34.2858C57.7162 34.4001 58.6305 34.743 59.3162 35.4287L72.0019 48.343C75.2019 51.4287 77.0305 55.7715 77.0305 60.2287C77.0305 69.7144 69.4876 77.3715 60.0019 77.3715C60.0019 77.3715 60.0019 77.3715 59.8876 77.3715H34.9733C33.259 77.3715 31.7733 76.0001 31.5448 74.2858V72.9144C31.5448 72.0001 31.7733 71.3144 32.3448 70.6287Z" fill="url(#paint6_linear_314_1672)"/>
<path d="M15.5433 33.6007C15.3147 33.3721 14.9719 33.2578 14.629 33.2578C14.2862 33.2578 13.829 33.3721 13.6004 33.6007C11.429 35.7721 10.1719 38.6292 10.1719 41.715C10.1719 44.8007 11.429 47.6578 13.6004 49.8292C13.829 50.0578 14.2862 50.1721 14.629 50.1721C14.9719 50.1721 15.3147 50.0578 15.6576 49.8292C16.1147 49.2578 16.1147 48.3435 15.6576 47.7721C12.3433 44.3435 12.3433 38.9721 15.6576 35.5435C16.1147 35.0864 16.1147 34.1721 15.5433 33.6007Z" fill="white"/>
<path d="M15.5433 33.6007C15.3147 33.3721 14.9719 33.2578 14.629 33.2578C14.2862 33.2578 13.829 33.3721 13.6004 33.6007C11.429 35.7721 10.1719 38.6292 10.1719 41.715C10.1719 44.8007 11.429 47.6578 13.6004 49.8292C13.829 50.0578 14.2862 50.1721 14.629 50.1721C14.9719 50.1721 15.3147 50.0578 15.6576 49.8292C16.1147 49.2578 16.1147 48.3435 15.6576 47.7721C12.3433 44.3435 12.3433 38.9721 15.6576 35.5435C16.1147 35.0864 16.1147 34.1721 15.5433 33.6007Z" fill="url(#paint7_linear_314_1672)"/>
<path d="M65.1432 17.8281H52.0003C51.2003 17.8281 50.6289 18.3996 50.6289 19.1996C50.6289 19.9996 51.2003 20.571 52.0003 20.571H65.1432C65.9432 20.571 66.5146 19.9996 66.5146 19.1996C66.5146 18.3996 65.9432 17.8281 65.1432 17.8281Z" fill="white"/>
<path d="M65.1432 17.8281H52.0003C51.2003 17.8281 50.6289 18.3996 50.6289 19.1996C50.6289 19.9996 51.2003 20.571 52.0003 20.571H65.1432C65.9432 20.571 66.5146 19.9996 66.5146 19.1996C66.5146 18.3996 65.9432 17.8281 65.1432 17.8281Z" fill="url(#paint8_linear_314_1672)"/>
<path d="M71.7728 18.1712C71.3156 17.8283 70.7442 17.8283 70.2871 18.1712L70.1728 18.2855C69.9442 18.3998 69.7156 18.6283 69.6013 18.8569C69.4871 19.1998 69.4871 19.5426 69.6013 19.8855C69.8299 20.4569 70.4013 20.7998 70.9728 20.7998C71.5442 20.7998 71.8871 20.4569 72.2299 19.7712C72.4585 19.1998 72.2299 18.5141 71.7728 18.1712Z" fill="white"/>
<path d="M71.7728 18.1712C71.3156 17.8283 70.7442 17.8283 70.2871 18.1712L70.1728 18.2855C69.9442 18.3998 69.7156 18.6283 69.6013 18.8569C69.4871 19.1998 69.4871 19.5426 69.6013 19.8855C69.8299 20.4569 70.4013 20.7998 70.9728 20.7998C71.5442 20.7998 71.8871 20.4569 72.2299 19.7712C72.4585 19.1998 72.2299 18.5141 71.7728 18.1712Z" fill="url(#paint9_linear_314_1672)"/>
</g>
<defs>
<linearGradient id="paint0_linear_314_1672" x1="14.3984" y1="6.74252" x2="28.3413" y2="6.74252" gradientUnits="userSpaceOnUse">
<stop stop-color="#FF3934"/>
<stop offset="1" stop-color="#FF7033"/>
</linearGradient>
<linearGradient id="paint1_linear_314_1672" x1="0.113281" y1="16.9714" x2="42.7419" y2="16.9714" gradientUnits="userSpaceOnUse">
<stop stop-color="#FF3934"/>
<stop offset="1" stop-color="#FF7033"/>
</linearGradient>
<linearGradient id="paint2_linear_314_1672" x1="0.0234375" y1="24.4835" x2="2.7829" y2="24.4835" gradientUnits="userSpaceOnUse">
<stop stop-color="#FF3934"/>
<stop offset="1" stop-color="#FF7033"/>
</linearGradient>
<linearGradient id="paint3_linear_314_1672" x1="0.113281" y1="51.7129" x2="25.1419" y2="51.7129" gradientUnits="userSpaceOnUse">
<stop stop-color="#FF3934"/>
<stop offset="1" stop-color="#FF7033"/>
</linearGradient>
<linearGradient id="paint4_linear_314_1672" x1="16.3438" y1="63.7708" x2="26.4009" y2="63.7708" gradientUnits="userSpaceOnUse">
<stop stop-color="#FF3934"/>
<stop offset="1" stop-color="#FF7033"/>
</linearGradient>
<linearGradient id="paint5_linear_314_1672" x1="46.8555" y1="25.8285" x2="61.7124" y2="25.8285" gradientUnits="userSpaceOnUse">
<stop stop-color="#52CEFF"/>
<stop offset="1" stop-color="#8564D9"/>
</linearGradient>
<linearGradient id="paint6_linear_314_1672" x1="16.2308" y1="55.7726" x2="79.7723" y2="55.7726" gradientUnits="userSpaceOnUse">
<stop stop-color="#52CEFF"/>
<stop offset="1" stop-color="#8564D9"/>
</linearGradient>
<linearGradient id="paint7_linear_314_1672" x1="10.1719" y1="41.715" x2="16.0004" y2="41.715" gradientUnits="userSpaceOnUse">
<stop stop-color="#FF3934"/>
<stop offset="1" stop-color="#FF7033"/>
</linearGradient>
<linearGradient id="paint8_linear_314_1672" x1="50.629" y1="19.1996" x2="66.5144" y2="19.1996" gradientUnits="userSpaceOnUse">
<stop stop-color="#52CEFF"/>
<stop offset="1" stop-color="#8564D9"/>
</linearGradient>
<linearGradient id="paint9_linear_314_1672" x1="69.5156" y1="19.357" x2="72.3195" y2="19.357" gradientUnits="userSpaceOnUse">
<stop stop-color="#52CEFF"/>
<stop offset="1" stop-color="#8564D9"/>
</linearGradient>
<clipPath id="clip0_314_1672">
<rect width="80" height="80" fill="white"/>
</clipPath>
</defs>
</svg>
