<svg width="24" height="24" viewBox="0 0 24 24" fill="none" xmlns="http://www.w3.org/2000/svg">
<path d="M21 9.75H14.25V3C14.25 2.17172 13.5783 1.5 12.75 1.5H11.25C10.4217 1.5 9.75 2.17172 9.75 3V9.75H3C2.17172 9.75 1.5 10.4217 1.5 11.25V12.75C1.5 13.5783 2.17172 14.25 3 14.25H9.75V21C9.75 21.8283 10.4217 22.5 11.25 22.5H12.75C13.5783 22.5 14.25 21.8283 14.25 21V14.25H21C21.8283 14.25 22.5 13.5783 22.5 12.75V11.25C22.5 10.4217 21.8283 9.75 21 9.75Z" fill="#624DE7"/>
<path d="M21 9.75H14.25V3C14.25 2.17172 13.5783 1.5 12.75 1.5H11.25C10.4217 1.5 9.75 2.17172 9.75 3V9.75H3C2.17172 9.75 1.5 10.4217 1.5 11.25V12.75C1.5 13.5783 2.17172 14.25 3 14.25H9.75V21C9.75 21.8283 10.4217 22.5 11.25 22.5H12.75C13.5783 22.5 14.25 21.8283 14.25 21V14.25H21C21.8283 14.25 22.5 13.5783 22.5 12.75V11.25C22.5 10.4217 21.8283 9.75 21 9.75Z" fill="url(#paint0_linear_314_2546)"/>
<defs>
<linearGradient id="paint0_linear_314_2546" x1="1.5" y1="12" x2="22.5" y2="12" gradientUnits="userSpaceOnUse">
<stop stop-color="#FF3934"/>
<stop offset="1" stop-color="#FEBC18"/>
</linearGradient>
</defs>
</svg>
