<svg width="401" height="401" viewBox="0 0 401 401" fill="none" xmlns="http://www.w3.org/2000/svg">
<path fill-rule="evenodd" clip-rule="evenodd" d="M222.095 387.254C201.487 405.842 169.742 404.178 151.19 383.538L13.1653 229.973C-5.3865 209.333 -3.71987 177.532 16.8878 158.944L178.332 13.321C198.94 -5.26702 230.685 -3.6033 249.237 17.037L387.262 170.601C405.813 191.241 404.147 223.042 383.539 241.63L222.095 387.254Z" fill="#2196F3"/>
<path fill-rule="evenodd" clip-rule="evenodd" d="M222.095 387.254C201.487 405.842 169.742 404.178 151.19 383.538L13.1653 229.973C-5.3865 209.333 -3.71987 177.532 16.8878 158.944L178.332 13.321C198.94 -5.26702 230.685 -3.6033 249.237 17.037L387.262 170.601C405.813 191.241 404.147 223.042 383.539 241.63L222.095 387.254Z" fill="url(#paint0_linear_314_2533)"/>
<defs>
<linearGradient id="paint0_linear_314_2533" x1="302.817" y1="314.442" x2="97.2085" y2="86.4948" gradientUnits="userSpaceOnUse">
<stop stop-color="#FF3934"/>
<stop offset="1" stop-color="#FEBC18"/>
</linearGradient>
</defs>
</svg>
