<svg width="444" height="445" viewBox="0 0 444 445" fill="none" xmlns="http://www.w3.org/2000/svg">
<path fill-rule="evenodd" clip-rule="evenodd" d="M244.095 410.255C223.487 428.844 191.742 427.18 173.19 406.539L35.1653 252.975C16.6135 232.335 18.2801 200.534 38.8878 181.946L200.332 36.323C220.94 17.7349 252.685 19.3987 271.237 40.039L409.262 193.603C427.813 214.243 426.147 246.044 405.539 264.632L244.095 410.255Z" fill="#2196F3"/>
<path fill-rule="evenodd" clip-rule="evenodd" d="M244.095 410.255C223.487 428.844 191.742 427.18 173.19 406.539L35.1653 252.975C16.6135 232.335 18.2801 200.534 38.8878 181.946L200.332 36.323C220.94 17.7349 252.685 19.3987 271.237 40.039L409.262 193.603C427.813 214.243 426.147 246.044 405.539 264.632L244.095 410.255Z" fill="url(#paint0_linear_345_68608)"/>
<path d="M155.775 174.795L144.313 218.594H132.997L149.66 165.273H156.728L155.775 174.795ZM164.821 218.594L153.285 174.795L152.223 165.273H159.401L176.21 218.594H164.821ZM165.224 198.708V207.607H141.164V198.708H165.224ZM180.824 162.344H191.042V209.402L190.309 218.594H180.824V162.344ZM211.623 197.463V200.063C211.623 203.286 211.366 206.094 210.854 208.486C210.365 210.879 209.596 212.881 208.546 214.492C207.521 216.104 206.203 217.312 204.591 218.118C202.98 218.923 201.076 219.326 198.878 219.326C196.901 219.326 195.204 218.862 193.788 217.935C192.372 216.982 191.176 215.676 190.199 214.016C189.247 212.332 188.466 210.366 187.855 208.12C187.27 205.85 186.842 203.372 186.574 200.686V196.841C186.818 194.204 187.233 191.75 187.819 189.48C188.429 187.209 189.21 185.244 190.163 183.584C191.115 181.899 192.299 180.593 193.715 179.666C195.155 178.713 196.852 178.237 198.805 178.237C201.051 178.237 202.98 178.652 204.591 179.482C206.203 180.288 207.521 181.497 208.546 183.108C209.596 184.719 210.365 186.733 210.854 189.15C211.366 191.543 211.623 194.314 211.623 197.463ZM201.405 200.063V197.463C201.405 195.632 201.332 194.058 201.186 192.739C201.039 191.421 200.771 190.322 200.38 189.443C199.989 188.564 199.428 187.905 198.695 187.466C197.987 187.026 197.047 186.807 195.875 186.807C194.826 186.807 193.947 187.014 193.239 187.429C192.531 187.82 191.92 188.406 191.408 189.187C190.919 189.944 190.553 190.847 190.309 191.897C190.089 192.922 189.967 194.058 189.943 195.303V202.224C189.967 203.909 190.175 205.398 190.565 206.692C190.956 207.986 191.579 208.987 192.433 209.695C193.312 210.403 194.484 210.757 195.949 210.757C197.096 210.757 198.024 210.562 198.732 210.171C199.44 209.78 199.989 209.158 200.38 208.303C200.795 207.449 201.063 206.35 201.186 205.007C201.332 203.64 201.405 201.992 201.405 200.063ZM216.75 200.137V197.463C216.75 194.363 217.116 191.616 217.848 189.224C218.605 186.831 219.679 184.829 221.071 183.218C222.462 181.582 224.135 180.349 226.088 179.519C228.065 178.665 230.275 178.237 232.716 178.237C235.182 178.237 237.392 178.665 239.345 179.519C241.322 180.349 243.007 181.582 244.398 183.218C245.814 184.829 246.901 186.831 247.658 189.224C248.415 191.616 248.793 194.363 248.793 197.463V200.137C248.793 203.213 248.415 205.947 247.658 208.34C246.901 210.732 245.814 212.747 244.398 214.382C243.007 216.018 241.334 217.251 239.381 218.081C237.428 218.911 235.231 219.326 232.79 219.326C230.348 219.326 228.139 218.911 226.161 218.081C224.208 217.251 222.523 216.018 221.107 214.382C219.691 212.747 218.605 210.732 217.848 208.34C217.116 205.947 216.75 203.213 216.75 200.137ZM227.003 197.463V200.137C227.003 201.968 227.125 203.555 227.37 204.897C227.638 206.24 228.017 207.351 228.505 208.23C229.018 209.109 229.628 209.756 230.336 210.171C231.044 210.586 231.862 210.793 232.79 210.793C233.717 210.793 234.547 210.586 235.28 210.171C236.012 209.756 236.61 209.109 237.074 208.23C237.562 207.351 237.917 206.24 238.136 204.897C238.38 203.555 238.502 201.968 238.502 200.137V197.463C238.502 195.681 238.368 194.119 238.1 192.776C237.831 191.409 237.453 190.298 236.964 189.443C236.476 188.564 235.866 187.905 235.133 187.466C234.425 187.002 233.62 186.77 232.716 186.77C231.813 186.77 231.007 187.002 230.299 187.466C229.616 187.905 229.018 188.564 228.505 189.443C228.017 190.298 227.638 191.409 227.37 192.776C227.125 194.119 227.003 195.681 227.003 197.463ZM274.428 209.072V178.97H284.718V218.594H275.05L274.428 209.072ZM275.6 200.906L278.456 200.833C278.456 203.494 278.2 205.959 277.687 208.23C277.174 210.476 276.405 212.429 275.38 214.089C274.354 215.75 273.073 217.043 271.535 217.971C269.997 218.875 268.178 219.326 266.078 219.326C264.467 219.326 262.978 219.058 261.61 218.521C260.268 217.959 259.108 217.092 258.131 215.92C257.155 214.724 256.386 213.198 255.824 211.343C255.287 209.463 255.019 207.205 255.019 204.568V178.97H265.309V204.678C265.309 205.752 265.407 206.68 265.602 207.461C265.797 208.218 266.066 208.84 266.408 209.329C266.75 209.817 267.152 210.171 267.616 210.391C268.08 210.586 268.605 210.684 269.191 210.684C270.802 210.684 272.072 210.269 273 209.438C273.952 208.584 274.623 207.424 275.014 205.959C275.404 204.47 275.6 202.786 275.6 200.906ZM309.474 178.97V186.697H289.259V178.97H309.474ZM293.91 169.192H304.127V206.509C304.127 207.607 304.237 208.45 304.457 209.036C304.677 209.622 305.006 210.037 305.446 210.281C305.91 210.5 306.52 210.61 307.277 210.61C307.79 210.61 308.266 210.586 308.705 210.537C309.145 210.464 309.474 210.391 309.694 210.317V218.337C308.888 218.655 308.034 218.899 307.13 219.07C306.251 219.241 305.202 219.326 303.981 219.326C301.93 219.326 300.148 218.936 298.634 218.154C297.145 217.373 295.985 216.128 295.155 214.419C294.325 212.686 293.91 210.415 293.91 207.607V169.192ZM211.586 253.273H222.279V289.895C222.279 293.996 221.522 297.341 220.009 299.929C218.52 302.492 216.457 304.372 213.82 305.568C211.183 306.74 208.168 307.326 204.774 307.326C201.356 307.326 198.317 306.74 195.656 305.568C192.995 304.372 190.919 302.492 189.43 299.929C187.965 297.341 187.233 293.996 187.233 289.895V253.273H197.926V289.895C197.926 292.214 198.183 293.996 198.695 295.241C199.232 296.486 200.001 297.341 201.002 297.805C202.028 298.244 203.285 298.464 204.774 298.464C206.288 298.464 207.533 298.244 208.51 297.805C209.511 297.341 210.268 296.486 210.78 295.241C211.317 293.996 211.586 292.214 211.586 289.895V253.273ZM247.548 295.9C247.548 295.217 247.316 294.606 246.852 294.069C246.388 293.532 245.656 292.983 244.655 292.421C243.654 291.835 242.323 291.188 240.663 290.48C238.856 289.748 237.257 288.991 235.866 288.21C234.474 287.429 233.29 286.562 232.313 285.61C231.361 284.658 230.641 283.571 230.153 282.351C229.665 281.13 229.42 279.738 229.42 278.176C229.42 276.491 229.726 274.941 230.336 273.525C230.971 272.084 231.874 270.827 233.046 269.753C234.218 268.654 235.646 267.8 237.331 267.189C239.04 266.555 240.956 266.237 243.08 266.237C246.059 266.237 248.61 266.762 250.734 267.812C252.882 268.837 254.53 270.278 255.678 272.133C256.825 273.989 257.399 276.149 257.399 278.615H247.145C247.145 277.736 247.011 276.955 246.742 276.271C246.474 275.563 246.034 275.014 245.424 274.624C244.838 274.233 244.044 274.038 243.043 274.038C242.311 274.038 241.652 274.196 241.066 274.514C240.504 274.831 240.053 275.258 239.711 275.795C239.394 276.308 239.235 276.918 239.235 277.626C239.235 278.164 239.345 278.64 239.564 279.055C239.809 279.47 240.187 279.873 240.7 280.263C241.212 280.654 241.896 281.069 242.75 281.508C243.629 281.923 244.704 282.387 245.973 282.9C248.61 283.876 250.771 284.926 252.455 286.049C254.164 287.172 255.434 288.491 256.264 290.004C257.094 291.494 257.509 293.337 257.509 295.534C257.509 297.292 257.167 298.891 256.483 300.332C255.824 301.772 254.86 303.017 253.59 304.067C252.321 305.117 250.795 305.922 249.013 306.484C247.255 307.045 245.29 307.326 243.117 307.326C239.918 307.326 237.221 306.691 235.023 305.422C232.826 304.152 231.166 302.529 230.043 300.551C228.92 298.549 228.358 296.474 228.358 294.326H238.1C238.148 295.644 238.393 296.682 238.832 297.438C239.296 298.171 239.918 298.684 240.7 298.977C241.481 299.27 242.348 299.416 243.3 299.416C244.252 299.416 245.033 299.294 245.644 299.05C246.278 298.781 246.754 298.378 247.072 297.841C247.389 297.28 247.548 296.633 247.548 295.9Z" fill="white"/>
<defs>
<linearGradient id="paint0_linear_345_68608" x1="324.817" y1="337.444" x2="119.208" y2="109.497" gradientUnits="userSpaceOnUse">
<stop stop-color="#FF3934"/>
<stop offset="1" stop-color="#FEBC18"/>
</linearGradient>
</defs>
</svg>
