<svg width="28" height="28" viewBox="0 0 28 28" fill="none" xmlns="http://www.w3.org/2000/svg">
<g clip-path="url(#clip0_362_169693)">
<path d="M21.3813 26.2495C20.3138 26.2495 18.8143 25.8634 16.5688 24.6089C13.8383 23.0776 11.7263 21.6639 9.01049 18.9553C6.39205 16.3385 5.11783 14.6443 3.33447 11.3991C1.31979 7.73504 1.66322 5.81441 2.04713 4.99356C2.50432 4.01246 3.17916 3.42566 4.05143 2.84324C4.54687 2.51864 5.07117 2.24038 5.61768 2.01199C5.67236 1.98848 5.72322 1.96606 5.76861 1.94582C6.03932 1.82387 6.44947 1.63957 6.96901 1.83645C7.31572 1.9666 7.62526 2.23293 8.10979 2.71145C9.10346 3.69145 10.4613 5.87402 10.9623 6.9459C11.2986 7.66832 11.5212 8.1452 11.5217 8.68004C11.5217 9.30621 11.2067 9.7891 10.8245 10.3103C10.7528 10.4082 10.6817 10.5017 10.6128 10.5925C10.1967 11.1393 10.1053 11.2974 10.1655 11.5796C10.2874 12.1467 11.1969 13.8349 12.6915 15.3262C14.1861 16.8175 15.8256 17.6696 16.3949 17.791C16.6892 17.8539 16.8505 17.7587 17.4149 17.3278C17.4958 17.266 17.5789 17.202 17.6659 17.138C18.2488 16.7043 18.7093 16.3975 19.3207 16.3975H19.324C19.8561 16.3975 20.3117 16.6283 21.0663 17.0089C22.0507 17.5055 24.2989 18.8459 25.2849 19.8407C25.7646 20.3241 26.032 20.6325 26.1627 20.9787C26.3596 21.4999 26.1742 21.9084 26.0533 22.1818C26.0331 22.2272 26.0106 22.277 25.9871 22.3322C25.7569 22.8778 25.477 23.401 25.151 23.8952C24.5696 24.7647 23.9806 25.4379 22.9974 25.8957C22.4924 26.1345 21.9399 26.2555 21.3813 26.2495Z" fill="white"/>
<path d="M21.9787 2.13036V11.4395H19.4514V4.45763H19.3969L17.3605 5.67582V3.53036L19.6514 2.13036H21.9787Z" fill="white"/>
</g>
<defs>
<clipPath id="clip0_362_169693">
<rect width="28" height="28" fill="white"/>
</clipPath>
</defs>
</svg>
