<svg width="1920" height="711" viewBox="0 0 1920 711" fill="none" xmlns="http://www.w3.org/2000/svg">
<g clip-path="url(#clip0_8_2)">
<mask id="mask0_8_2" style="mask-type:luminance" maskUnits="userSpaceOnUse" x="0" y="0" width="1920" height="711">
<path d="M1920 0H0V711H1920V0Z" fill="white"/>
</mask>
<g mask="url(#mask0_8_2)">
<g filter="url(#filter0_d_8_2)">
<path d="M536.5 79.7813C307.3 17.2996 83.3333 38.0984 0 56.308V711H1920V152.762C1790.4 141.153 1649 83.6224 1594.5 56.3081C1435.3 -24.9522 1124.5 41.5129 989 84.9025C831.8 122.802 621.833 97.2798 536.5 79.7813Z" fill="white"/>
</g>
<g opacity="0.5">
<g opacity="0.05">
<path d="M1674.58 610.635C1724.32 612.064 1764.94 606.373 1765.3 597.924C1765.67 589.476 1725.64 581.468 1675.91 580.039C1626.17 578.61 1585.55 584.301 1585.19 592.751C1584.82 601.199 1624.85 609.206 1674.58 610.635Z" stroke="url(#paint0_linear_8_2)" stroke-miterlimit="10"/>
<path d="M1674.96 611.209C1728.7 611.89 1772.4 605.36 1772.56 596.625C1772.73 587.891 1729.3 580.258 1675.57 579.577C1621.83 578.897 1578.13 585.425 1577.97 594.161C1577.8 602.895 1621.23 610.53 1674.96 611.209Z" stroke="url(#paint1_linear_8_2)" stroke-miterlimit="10"/>
<path d="M1675.58 611.758C1733.65 611.59 1780.69 604.145 1780.65 595.125C1780.61 586.108 1733.51 578.933 1675.44 579.101C1617.38 579.269 1570.34 586.716 1570.38 595.733C1570.41 604.752 1617.52 611.926 1675.58 611.758Z" stroke="url(#paint2_linear_8_2)" stroke-miterlimit="10"/>
<path d="M1675.44 612.219C1737.97 611.097 1788.47 602.652 1788.22 593.356C1787.97 584.058 1737.07 577.431 1674.53 578.551C1611.99 579.673 1561.5 588.118 1561.75 597.416C1562 606.712 1612.9 613.339 1675.44 612.219Z" stroke="url(#paint3_linear_8_2)" stroke-miterlimit="10"/>
<path d="M1676.14 612.84C1743.31 610.653 1797.38 601.117 1796.91 591.544C1796.44 581.97 1741.61 575.983 1674.44 578.171C1607.27 580.36 1553.2 589.895 1553.67 599.468C1554.14 609.042 1608.97 615.029 1676.14 612.84Z" stroke="url(#paint4_linear_8_2)" stroke-miterlimit="10"/>
<path d="M1676.52 613.159C1748.63 609.777 1806.52 599.055 1805.83 589.208C1805.14 579.362 1746.11 574.12 1674 577.502C1601.89 580.883 1543.99 591.605 1544.68 601.452C1545.38 611.299 1604.4 616.541 1676.52 613.159Z" stroke="url(#paint5_linear_8_2)" stroke-miterlimit="10"/>
<path d="M1676.6 613.926C1753.79 609.232 1815.61 597.111 1814.68 586.855C1813.74 576.598 1750.4 572.089 1673.2 576.782C1596 581.478 1534.18 593.599 1535.12 603.855C1536.06 614.112 1599.4 618.621 1676.6 613.926Z" stroke="url(#paint6_linear_8_2)" stroke-miterlimit="10"/>
<path d="M1677.11 614.606C1759.71 608.453 1825.7 594.821 1824.51 584.157C1823.31 573.494 1755.38 569.837 1672.79 575.992C1590.19 582.145 1524.2 595.777 1525.39 606.441C1526.59 617.104 1594.52 620.759 1677.11 614.606Z" stroke="url(#paint7_linear_8_2)" stroke-miterlimit="10"/>
<path d="M1677.86 615.315C1765.83 607.578 1835.95 592.335 1834.49 581.267C1833.02 570.202 1760.52 567.502 1672.56 575.24C1584.59 582.977 1514.47 598.221 1515.94 609.288C1517.4 620.354 1589.9 623.054 1677.86 615.315Z" stroke="url(#paint8_linear_8_2)" stroke-miterlimit="10"/>
<path d="M1678.23 616.369C1771.86 606.899 1846.35 589.929 1844.61 578.462C1842.86 566.996 1765.54 565.377 1671.91 574.847C1578.27 584.316 1503.78 601.288 1505.53 612.753C1507.27 624.22 1584.59 625.838 1678.23 616.369Z" stroke="url(#paint9_linear_8_2)" stroke-miterlimit="10"/>
<path d="M1679.27 617.166C1778.87 605.783 1857.95 586.828 1855.88 574.827C1853.82 562.827 1771.4 562.325 1671.8 573.707C1572.19 585.089 1493.12 604.046 1495.18 616.046C1497.24 628.046 1579.66 628.548 1679.27 617.166Z" stroke="url(#paint10_linear_8_2)" stroke-miterlimit="10"/>
<path d="M1679.39 618.169C1784.9 604.748 1868.49 583.711 1866.1 571.182C1863.7 558.654 1776.22 559.376 1670.71 572.797C1565.19 586.218 1481.6 607.254 1483.99 619.784C1486.39 632.314 1573.87 631.59 1679.39 618.169Z" stroke="url(#paint11_linear_8_2)" stroke-miterlimit="10"/>
<path d="M1679.88 618.89C1791.6 603.237 1879.93 579.969 1877.18 566.916C1874.43 553.864 1781.64 555.971 1669.92 571.623C1558.2 587.274 1469.87 610.544 1472.62 623.595C1475.37 636.648 1568.17 634.541 1679.88 618.89Z" stroke="url(#paint12_linear_8_2)" stroke-miterlimit="10"/>
<path d="M1680.9 619.845C1798.94 601.792 1892.1 576.153 1888.98 562.582C1885.86 549.011 1787.64 552.645 1669.6 570.7C1551.56 588.753 1458.4 614.392 1461.52 627.963C1464.64 641.534 1562.86 637.9 1680.9 619.845Z" stroke="url(#paint13_linear_8_2)" stroke-miterlimit="10"/>
<path d="M1681.7 621.237C1806.33 600.581 1904.5 572.306 1900.95 558.084C1897.41 543.862 1793.5 549.079 1668.86 569.734C1544.22 590.391 1446.05 618.665 1449.6 632.887C1453.14 647.109 1557.06 641.893 1681.7 621.237Z" stroke="url(#paint14_linear_8_2)" stroke-miterlimit="10"/>
<path d="M1682.42 622.589C1813.58 599.168 1916.64 568.018 1912.61 553.016C1908.58 538.015 1798.99 544.839 1667.83 568.262C1536.67 591.683 1433.61 622.832 1437.64 637.834C1441.67 652.837 1551.26 646.011 1682.42 622.589Z" stroke="url(#paint15_linear_8_2)" stroke-miterlimit="10"/>
<path d="M1683.66 623.973C1821.45 597.587 1929.46 563.409 1924.92 547.635C1920.37 531.861 1804.99 540.461 1667.21 566.846C1529.42 593.233 1421.41 627.41 1425.96 643.186C1430.5 658.961 1545.88 650.36 1683.66 623.973Z" stroke="url(#paint16_linear_8_2)" stroke-miterlimit="10"/>
<path d="M1684.65 625.324C1829.13 595.773 1942.14 558.414 1937.05 541.877C1931.97 525.339 1810.71 535.886 1666.22 565.437C1521.74 594.986 1408.73 632.345 1413.82 648.884C1418.9 665.42 1540.16 654.872 1684.65 625.324Z" stroke="url(#paint17_linear_8_2)" stroke-miterlimit="10"/>
<path d="M1685.4 627.037C1836.83 594.085 1954.97 553.244 1949.26 535.82C1943.56 518.395 1816.18 530.983 1664.74 563.936C1513.31 596.889 1395.18 637.73 1400.88 655.153C1406.59 672.579 1533.97 659.991 1685.4 627.037Z" stroke="url(#paint18_linear_8_2)" stroke-miterlimit="10"/>
<path d="M1686.76 628.597C1844.88 592.08 1967.91 547.64 1961.55 529.339C1955.19 511.036 1821.86 525.804 1663.74 562.321C1505.62 598.836 1382.59 643.277 1388.95 661.578C1395.31 679.88 1528.64 665.113 1686.76 628.597Z" stroke="url(#paint19_linear_8_2)" stroke-miterlimit="10"/>
<path d="M1688.17 630.447C1853.19 590.096 1981.18 541.628 1974.03 522.194C1966.88 502.76 1827.31 519.717 1662.28 560.069C1497.26 600.422 1369.27 648.889 1376.42 668.324C1383.57 687.757 1523.14 670.8 1688.17 630.447Z" stroke="url(#paint20_linear_8_2)" stroke-miterlimit="10"/>
<path d="M1689.57 632.39C1861.39 588.008 1994.25 535.479 1986.32 515.062C1978.39 494.646 1832.67 514.073 1660.85 558.454C1489.03 602.834 1356.17 655.363 1364.1 675.78C1372.03 696.197 1517.75 676.77 1689.57 632.39Z" stroke="url(#paint21_linear_8_2)" stroke-miterlimit="10"/>
<path d="M1691.28 634.341C1869.76 585.709 2007.26 528.736 1998.38 507.087C1989.51 485.439 1837.63 507.312 1659.15 555.944C1480.67 604.575 1343.18 661.549 1352.05 683.198C1360.92 704.846 1512.8 682.972 1691.28 634.341Z" stroke="url(#paint22_linear_8_2)" stroke-miterlimit="10"/>
<path d="M1693.2 637.156C1878.38 584.031 2020.45 522.324 2010.53 499.331C2000.61 476.336 1842.45 500.762 1657.26 553.886C1472.08 607.01 1330.01 668.715 1339.93 691.71C1349.85 714.703 1508.02 690.278 1693.2 637.156Z" stroke="url(#paint23_linear_8_2)" stroke-miterlimit="10"/>
<path d="M1694.99 639.418C1886.54 581.61 2032.87 515.039 2021.84 490.726C2010.8 466.414 1846.57 493.566 1655.02 551.375C1463.48 609.183 1317.14 675.754 1328.18 700.068C1339.22 724.38 1503.44 697.226 1694.99 639.418Z" stroke="url(#paint24_linear_8_2)" stroke-miterlimit="10"/>
<path d="M1697.64 641.965C1895.57 579.177 2046.01 507.306 2033.67 481.437C2021.32 455.569 1850.87 485.498 1652.94 548.288C1455.01 611.078 1304.57 682.95 1316.91 708.817C1329.26 734.686 1499.72 704.755 1697.64 641.965Z" stroke="url(#paint25_linear_8_2)" stroke-miterlimit="10"/>
<path d="M1700.19 645.109C1904.15 577.166 2058.31 499.778 2044.53 472.256C2030.73 444.735 1854.21 477.502 1650.25 545.446C1446.29 613.389 1292.13 690.779 1305.92 718.3C1319.71 745.822 1496.23 713.052 1700.19 645.109Z" stroke="url(#paint26_linear_8_2)" stroke-miterlimit="10"/>
<path d="M1703.04 648.712C1912.84 575.364 2070.38 492.076 2054.92 462.682C2039.46 433.287 1856.86 468.916 1647.06 542.261C1437.26 615.608 1279.72 698.894 1295.18 728.29C1310.63 757.685 1493.24 722.056 1703.04 648.712Z" stroke="url(#paint27_linear_8_2)" stroke-miterlimit="10"/>
<path d="M1706.29 651.866C1921.39 572.955 2081.8 483.671 2064.57 452.449C2047.34 421.226 1859 459.887 1643.89 538.799C1428.79 617.711 1268.38 706.994 1285.61 738.216C1302.84 769.44 1491.18 730.78 1706.29 651.866Z" stroke="url(#paint28_linear_8_2)" stroke-miterlimit="10"/>
<path d="M1709.96 655.676C1930.13 570.935 2092.95 475.178 2073.62 441.797C2054.3 408.414 1860.14 450.049 1639.97 534.79C1419.8 619.53 1256.98 715.288 1276.3 748.67C1295.63 782.051 1489.78 740.416 1709.96 655.676Z" stroke="url(#paint29_linear_8_2)" stroke-miterlimit="10"/>
<path d="M1714.56 659.903C1939.41 569.113 2104.1 466.546 2082.4 430.812C2060.7 395.079 1860.82 439.712 1635.97 530.502C1411.11 621.293 1246.43 723.861 1268.13 759.593C1289.83 795.327 1489.71 750.694 1714.56 659.903Z" stroke="url(#paint30_linear_8_2)" stroke-miterlimit="10"/>
<path d="M1719.42 664.332C1948.53 567.278 2114.56 457.684 2090.26 419.549C2065.96 381.412 1860.53 429.174 1631.43 526.23C1402.32 623.284 1236.3 732.877 1260.6 771.012C1284.9 809.149 1490.32 761.386 1719.42 664.332Z" stroke="url(#paint31_linear_8_2)" stroke-miterlimit="10"/>
<path d="M1724.95 669.426C1957.54 566.019 2123.9 448.997 2096.51 408.05C2069.13 367.103 1858.38 417.735 1625.79 521.141C1393.2 624.548 1226.85 741.57 1254.23 782.517C1281.62 823.464 1492.36 772.833 1724.95 669.426Z" stroke="url(#paint32_linear_8_2)" stroke-miterlimit="10"/>
<path d="M1730.96 674.717C1966.57 564.745 2132.65 440.107 2101.92 396.329C2071.18 352.552 1855.27 406.213 1619.66 516.185C1384.05 626.156 1217.97 750.794 1248.7 794.572C1279.44 838.352 1495.35 784.689 1730.96 674.717Z" stroke="url(#paint33_linear_8_2)" stroke-miterlimit="10"/>
<path d="M1737.69 680.256C1975.65 563.558 2140.47 430.881 2105.82 383.915C2071.18 336.949 1850.19 393.478 1612.23 510.176C1374.27 626.874 1209.45 759.551 1244.1 806.518C1278.74 853.485 1499.73 796.955 1737.69 680.256Z" stroke="url(#paint34_linear_8_2)" stroke-miterlimit="10"/>
<path d="M1746 686.975C1985.68 563.42 2148.24 422.323 2109.09 371.829C2069.93 321.334 1843.89 380.561 1604.21 504.118C1364.53 627.674 1201.97 768.77 1241.12 819.264C1280.28 869.76 1506.32 810.532 1746 686.975Z" stroke="url(#paint35_linear_8_2)" stroke-miterlimit="10"/>
<path d="M1755.36 693.63C1995.92 563.139 2155.09 413.419 2110.87 359.22C2066.64 305.021 1835.78 366.869 1595.22 497.361C1354.66 627.851 1195.49 777.571 1239.72 831.772C1283.94 885.97 1514.8 824.124 1755.36 693.63Z" stroke="url(#paint36_linear_8_2)" stroke-miterlimit="10"/>
<path d="M1766.06 700.924C2006.79 563.376 2161.34 404.635 2111.26 346.361C2061.18 288.088 1825.43 352.352 1584.7 489.899C1343.97 627.444 1189.42 786.187 1239.51 844.459C1289.59 902.734 1525.33 838.466 1766.06 700.924Z" stroke="url(#paint37_linear_8_2)" stroke-miterlimit="10"/>
<path d="M1777.71 708.507C2017.71 563.89 2166.32 395.949 2109.62 333.402C2052.93 270.854 1812.42 337.384 1572.42 482.003C1332.42 626.619 1183.82 794.559 1240.51 857.106C1297.2 919.652 1537.71 853.127 1777.71 708.507Z" stroke="url(#paint38_linear_8_2)" stroke-miterlimit="10"/>
<path d="M1791.59 717.342C2030.01 565.671 2171.06 388.147 2106.64 320.831C2042.23 253.515 1796.74 321.899 1558.33 473.571C1319.92 625.241 1178.86 802.766 1243.28 870.078C1307.69 937.395 1553.18 869.01 1791.59 717.342Z" stroke="url(#paint39_linear_8_2)" stroke-miterlimit="10"/>
<path d="M1807.45 726.132C2043.37 567.422 2175.34 380.175 2102.21 307.902C2029.08 235.63 1778.54 305.701 1542.62 464.413C1306.7 623.121 1174.73 810.37 1247.86 882.643C1320.99 954.917 1571.53 884.844 1807.45 726.132Z" stroke="url(#paint40_linear_8_2)" stroke-miterlimit="10"/>
<path d="M1825.73 736.058C2058.27 570.403 2179.32 373.151 2096.09 295.484C2012.87 217.816 1756.89 289.144 1524.35 454.799C1291.81 620.454 1170.76 817.707 1253.99 895.371C1337.21 973.043 1593.18 901.714 1825.73 736.058Z" stroke="url(#paint41_linear_8_2)" stroke-miterlimit="10"/>
<path d="M1846.79 746.374C2075.05 573.881 2183.25 366.444 2088.46 283.048C1993.66 199.652 1731.78 271.879 1503.52 444.371C1275.26 616.863 1167.06 824.303 1261.86 907.699C1356.65 991.095 1618.53 918.87 1846.79 746.374Z" stroke="url(#paint42_linear_8_2)" stroke-miterlimit="10"/>
<path d="M1870.52 757.159C2093.71 577.908 2187.06 360.095 2079.02 270.659C1970.97 181.225 1702.46 254.035 1479.27 433.287C1256.08 612.539 1162.73 830.353 1270.77 919.783C1378.81 1009.22 1647.33 936.408 1870.52 757.159Z" stroke="url(#paint43_linear_8_2)" stroke-miterlimit="10"/>
<path d="M1898.21 768.789C2115.49 583.002 2191.77 354.749 2068.59 258.973C1945.41 163.196 1669.41 236.163 1452.13 421.95C1234.85 607.737 1158.57 835.988 1281.75 931.769C1404.93 1027.54 1680.93 954.575 1898.21 768.789Z" stroke="url(#paint44_linear_8_2)" stroke-miterlimit="10"/>
<path d="M1929.41 780.635C2139.91 588.596 2196.7 349.954 2056.26 247.611C1915.82 145.269 1631.33 217.983 1420.83 410.023C1210.33 602.061 1153.54 840.7 1293.98 943.045C1434.42 1045.39 1718.91 972.676 1929.41 780.635Z" stroke="url(#paint45_linear_8_2)" stroke-miterlimit="10"/>
<path d="M1965.24 793.205C2168.38 595.057 2203.12 345.864 2042.83 236.615C1882.55 127.367 1587.93 199.433 1384.79 397.58C1181.65 595.73 1146.91 844.924 1307.19 954.175C1467.48 1063.42 1762.1 991.356 1965.24 793.205Z" stroke="url(#paint46_linear_8_2)" stroke-miterlimit="10"/>
<path d="M2006.08 805.619C2201.21 601.639 2211.28 342.072 2028.56 225.86C1845.84 109.648 1539.52 180.798 1344.38 384.778C1149.25 588.757 1139.18 848.324 1321.9 964.538C1504.62 1080.74 1810.94 1009.6 2006.08 805.619Z" stroke="url(#paint47_linear_8_2)" stroke-miterlimit="10"/>
<path d="M2051.83 818.474C2238.35 609.047 2220.78 339.344 2012.59 216.072C1804.41 92.8002 1484.43 162.639 1297.91 372.061C1111.39 581.484 1128.96 851.186 1337.14 974.461C1545.33 1097.73 1865.31 1027.89 2051.83 818.474Z" stroke="url(#paint48_linear_8_2)" stroke-miterlimit="10"/>
<path d="M2104.38 831.226C2281.99 616.517 2233.88 336.817 1996.92 206.496C1759.95 76.174 1423.87 144.579 1246.26 359.285C1068.65 573.99 1116.76 853.689 1353.72 984.009C1590.68 1114.33 1926.77 1045.93 2104.38 831.226Z" stroke="url(#paint49_linear_8_2)" stroke-miterlimit="10"/>
<path d="M1387.64 1001.46C1662.7 1130.95 2014.42 1054.11 2173.23 829.823C2332.03 605.551 2237.79 318.77 1962.73 189.285C1687.67 59.8 1335.95 136.642 1177.14 360.917C1018.34 585.193 1112.58 871.97 1387.64 1001.46Z" stroke="url(#paint50_linear_8_2)" stroke-miterlimit="10"/>
</g>
<g opacity="0.05">
<path d="M325.872 577.957C269.13 576.327 222.794 582.819 222.378 592.459C221.961 602.096 267.622 611.232 324.362 612.862C381.105 614.492 427.44 608 427.856 598.36C428.273 588.723 382.612 579.588 325.872 577.957Z" stroke="url(#paint51_linear_8_2)" stroke-miterlimit="10"/>
<path d="M325.443 577.302C264.139 576.525 214.288 583.974 214.098 593.94C213.908 603.904 263.45 612.611 324.754 613.388C386.058 614.164 435.908 606.716 436.099 596.751C436.289 586.786 386.747 578.077 325.443 577.302Z" stroke="url(#paint52_linear_8_2)" stroke-miterlimit="10"/>
<path d="M324.735 576.676C258.493 576.867 204.829 585.362 204.875 595.652C204.919 605.938 258.655 614.124 324.897 613.933C391.139 613.74 444.803 605.245 444.759 594.958C444.715 584.669 390.977 576.486 324.735 576.676Z" stroke="url(#paint53_linear_8_2)" stroke-miterlimit="10"/>
<path d="M324.899 576.151C253.554 577.431 195.949 587.065 196.235 597.671C196.522 608.278 254.589 615.838 325.934 614.56C397.278 613.281 454.883 603.646 454.597 593.039C454.312 582.434 396.243 574.874 324.899 576.151Z" stroke="url(#paint54_linear_8_2)" stroke-miterlimit="10"/>
<path d="M324.095 575.441C247.466 577.936 185.78 588.814 186.316 599.737C186.85 610.658 249.403 617.489 326.033 614.992C402.662 612.495 464.346 601.617 463.812 590.696C463.277 579.774 400.722 572.944 324.095 575.441Z" stroke="url(#paint55_linear_8_2)" stroke-miterlimit="10"/>
<path d="M323.665 575.078C241.397 578.937 175.347 591.17 176.14 602.403C176.931 613.635 244.266 619.615 326.534 615.757C408.803 611.9 474.853 599.668 474.061 588.434C473.268 577.2 405.935 571.222 323.665 575.078Z" stroke="url(#paint56_linear_8_2)" stroke-miterlimit="10"/>
<path d="M323.577 574.203C235.508 579.559 164.982 593.386 166.051 605.086C167.122 616.787 239.383 621.932 327.454 616.576C415.523 611.22 486.049 597.393 484.98 585.692C483.909 573.991 411.647 568.847 323.577 574.203Z" stroke="url(#paint57_linear_8_2)" stroke-miterlimit="10"/>
<path d="M322.989 573.426C228.759 580.447 153.475 595.999 154.839 608.164C156.202 620.329 233.695 624.5 327.925 617.479C422.155 610.46 497.437 594.907 496.074 582.741C494.711 570.577 417.219 566.407 322.989 573.426Z" stroke="url(#paint58_linear_8_2)" stroke-miterlimit="10"/>
<path d="M322.127 572.618C221.776 581.444 141.778 598.834 143.448 611.461C145.119 624.085 227.825 627.165 328.176 618.337C428.529 609.51 508.527 592.12 506.856 579.494C505.187 566.869 422.48 563.79 322.127 572.618Z" stroke="url(#paint59_linear_8_2)" stroke-miterlimit="10"/>
<path d="M321.716 571.417C214.898 582.219 129.916 601.579 131.905 614.661C133.895 627.74 222.104 629.588 328.923 618.785C435.743 607.983 520.723 588.62 518.734 575.541C516.744 562.459 428.537 560.613 321.716 571.417Z" stroke="url(#paint60_linear_8_2)" stroke-miterlimit="10"/>
<path d="M320.532 570.507C206.902 583.491 116.691 605.117 119.045 618.807C121.399 632.497 215.423 633.07 329.055 620.085C442.686 607.1 532.896 585.474 530.542 571.784C528.188 558.094 434.164 557.521 320.532 570.507Z" stroke="url(#paint61_linear_8_2)" stroke-miterlimit="10"/>
<path d="M320.39 569.363C200.016 584.674 104.651 608.673 107.385 622.967C110.12 637.26 209.918 636.436 330.293 621.125C450.667 605.814 546.034 581.815 543.299 567.521C540.565 553.227 440.764 554.053 320.39 569.363Z" stroke="url(#paint62_linear_8_2)" stroke-miterlimit="10"/>
<path d="M319.826 568.54C192.378 586.397 91.6046 612.941 94.7432 627.833C97.8819 642.723 203.742 640.319 331.19 622.463C458.638 604.608 559.41 578.062 556.273 563.171C553.134 548.28 447.274 550.684 319.826 568.54Z" stroke="url(#paint63_linear_8_2)" stroke-miterlimit="10"/>
<path d="M318.664 567.45C183.999 588.045 77.7212 617.295 81.2822 632.777C84.8453 648.259 196.898 644.113 331.563 623.516C466.225 602.921 572.505 573.671 568.942 558.189C565.381 542.707 453.326 546.852 318.664 567.45Z" stroke="url(#paint64_linear_8_2)" stroke-miterlimit="10"/>
<path d="M317.756 565.861C175.565 589.428 63.5764 621.683 67.6219 637.908C71.6653 654.133 190.212 648.182 332.403 624.618C474.593 601.052 586.584 568.796 582.539 552.571C578.493 536.346 459.947 542.297 317.756 565.861Z" stroke="url(#paint65_linear_8_2)" stroke-miterlimit="10"/>
<path d="M316.927 564.32C167.298 591.039 49.7258 626.575 54.3217 643.69C58.9196 660.804 183.944 653.018 333.575 626.297C483.204 599.578 600.775 564.042 596.179 546.928C591.582 529.812 466.556 537.598 316.927 564.32Z" stroke="url(#paint66_linear_8_2)" stroke-miterlimit="10"/>
<path d="M315.512 562.742C158.325 592.843 35.1023 631.834 40.2867 649.83C45.4691 667.826 177.097 658.013 334.286 627.912C491.474 597.81 614.696 558.82 609.512 540.822C604.329 522.827 472.7 532.639 315.512 562.742Z" stroke="url(#paint67_linear_8_2)" stroke-miterlimit="10"/>
<path d="M314.391 561.201C149.555 594.912 20.6337 637.534 26.4386 656.399C32.2415 675.267 170.571 663.233 335.407 629.521C500.243 595.811 629.166 553.191 623.361 534.323C617.558 515.457 479.227 527.491 314.391 561.201Z" stroke="url(#paint68_linear_8_2)" stroke-miterlimit="10"/>
<path d="M313.537 559.246C140.78 596.838 6.0095 643.43 12.515 663.308C19.0225 683.187 164.344 668.826 337.101 631.232C509.857 593.638 644.63 547.047 638.122 527.169C631.614 507.29 486.293 521.651 313.537 559.246Z" stroke="url(#paint69_linear_8_2)" stroke-miterlimit="10"/>
<path d="M311.981 557.466C131.596 599.126 -8.75674 649.824 -1.50459 670.702C5.74957 691.582 157.861 674.735 338.248 633.075C518.633 591.417 658.986 540.719 651.734 519.84C644.48 498.961 492.369 515.808 311.981 557.466Z" stroke="url(#paint70_linear_8_2)" stroke-miterlimit="10"/>
<path d="M310.372 555.355C122.108 601.389 -23.8996 656.682 -15.7447 678.853C-7.58974 701.023 151.639 681.678 339.903 635.644C528.167 589.608 674.175 534.316 666.02 512.145C657.865 489.974 498.636 509.32 310.372 555.355Z" stroke="url(#paint71_linear_8_2)" stroke-miterlimit="10"/>
<path d="M308.772 553.138C112.754 603.77 -38.8131 663.697 -29.7634 686.989C-20.7157 710.281 145.525 688.118 341.542 637.486C537.56 586.857 689.127 526.93 680.079 503.638C671.029 480.346 504.788 502.509 308.772 553.138Z" stroke="url(#paint72_linear_8_2)" stroke-miterlimit="10"/>
<path d="M306.819 550.913C103.206 606.393 -53.6511 671.39 -43.5285 696.087C-33.408 720.784 139.861 695.83 343.474 640.35C547.089 584.871 703.946 519.873 693.823 495.176C683.703 470.479 510.434 495.434 306.819 550.913Z" stroke="url(#paint73_linear_8_2)" stroke-miterlimit="10"/>
<path d="M304.64 547.702C93.3812 608.308 -68.7024 678.704 -57.3828 704.935C-46.0632 731.169 134.372 703.304 345.631 642.698C556.891 582.093 718.972 511.697 707.653 485.465C696.333 459.233 515.898 487.099 304.64 547.702Z" stroke="url(#paint74_linear_8_2)" stroke-miterlimit="10"/>
<path d="M302.595 545.121C84.0735 611.069 -82.8681 687.015 -70.2774 714.752C-57.6868 742.488 129.668 711.512 348.192 645.563C566.713 579.614 733.655 503.668 721.064 475.931C708.473 448.194 521.118 479.172 302.595 545.121Z" stroke="url(#paint75_linear_8_2)" stroke-miterlimit="10"/>
<path d="M299.568 542.215C73.77 613.846 -97.8597 695.838 -83.7778 725.35C-69.6958 754.861 124.765 720.717 350.563 649.084C576.363 577.453 747.992 495.46 733.91 465.95C719.828 436.437 525.365 470.583 299.568 542.215Z" stroke="url(#paint76_linear_8_2)" stroke-miterlimit="10"/>
<path d="M296.655 538.627C63.9717 616.137 -111.902 704.425 -96.1702 735.822C-80.4369 767.219 120.942 729.837 353.625 652.325C586.309 574.813 762.182 486.525 746.451 455.129C730.72 423.732 529.339 461.115 296.655 538.627Z" stroke="url(#paint77_linear_8_2)" stroke-miterlimit="10"/>
<path d="M293.412 534.519C54.0712 618.194 -125.659 713.211 -108.024 746.746C-90.3894 780.28 117.931 739.634 357.272 655.96C596.616 572.285 776.344 477.269 758.711 443.734C741.076 410.199 532.755 450.845 293.412 534.519Z" stroke="url(#paint78_linear_8_2)" stroke-miterlimit="10"/>
<path d="M289.707 530.92C44.3104 620.944 -138.687 722.802 -119.03 758.421C-99.3755 794.04 115.491 749.935 360.885 659.909C606.279 569.885 789.277 468.029 769.622 432.409C749.965 396.789 535.101 440.893 289.707 530.92Z" stroke="url(#paint79_linear_8_2)" stroke-miterlimit="10"/>
<path d="M285.524 526.573C34.3443 623.248 -151.403 732.489 -129.357 770.571C-107.31 808.655 114.184 761.157 365.363 664.482C616.54 567.808 802.29 458.566 780.243 420.483C758.195 382.401 536.703 429.899 285.524 526.573Z" stroke="url(#paint80_linear_8_2)" stroke-miterlimit="10"/>
<path d="M280.265 521.752C23.7455 625.328 -164.134 742.339 -139.375 783.105C-114.616 823.871 113.406 772.951 369.923 669.375C626.443 565.799 814.322 448.788 789.563 408.022C764.804 367.257 536.785 418.176 280.265 521.752Z" stroke="url(#paint81_linear_8_2)" stroke-miterlimit="10"/>
<path d="M274.716 516.699C13.3477 627.42 -176.061 752.447 -148.337 795.952C-120.616 839.461 113.739 784.972 375.107 674.249C636.475 563.527 825.881 438.5 798.16 394.995C770.436 351.488 536.083 405.977 274.716 516.699Z" stroke="url(#paint82_linear_8_2)" stroke-miterlimit="10"/>
<path d="M268.407 510.888C3.06375 628.857 -186.715 762.358 -155.475 809.072C-124.236 855.785 116.19 798.023 381.535 680.055C646.878 562.085 836.655 428.585 805.417 381.871C774.178 335.156 533.75 392.92 268.407 510.888Z" stroke="url(#paint83_linear_8_2)" stroke-miterlimit="10"/>
<path d="M261.553 504.852C-7.23471 630.309 -196.705 772.499 -161.642 822.444C-126.578 872.386 119.741 811.166 388.529 685.708C657.317 560.25 846.788 418.06 811.724 368.117C776.663 318.174 530.341 379.392 261.553 504.852Z" stroke="url(#paint84_linear_8_2)" stroke-miterlimit="10"/>
<path d="M253.876 498.533C-17.5925 631.664 -205.62 783.025 -166.097 836.607C-126.571 890.185 125.537 825.698 397.005 692.564C668.474 559.431 856.503 408.07 816.978 354.49C777.454 300.909 525.344 365.399 253.876 498.533Z" stroke="url(#paint85_linear_8_2)" stroke-miterlimit="10"/>
<path d="M244.403 490.867C-29.0327 631.822 -214.486 792.788 -169.818 850.395C-125.15 908.001 132.721 840.431 406.157 699.475C679.593 558.519 865.044 397.554 820.378 339.949C775.71 282.343 517.837 349.911 244.403 490.867Z" stroke="url(#paint86_linear_8_2)" stroke-miterlimit="10"/>
<path d="M233.717 483.275C-40.7214 632.142 -222.3 802.946 -171.851 864.778C-121.402 926.608 141.972 856.054 416.409 707.183C690.847 558.316 872.428 387.511 821.979 325.682C771.53 263.85 508.156 334.407 233.717 483.275Z" stroke="url(#paint87_linear_8_2)" stroke-miterlimit="10"/>
<path d="M221.509 474.955C-53.1204 631.872 -229.432 812.968 -172.298 879.447C-115.163 945.924 153.783 872.614 428.412 715.697C703.041 558.782 879.353 377.684 822.219 311.206C765.084 244.727 496.138 318.04 221.509 474.955Z" stroke="url(#paint88_linear_8_2)" stroke-miterlimit="10"/>
<path d="M208.222 466.303C-65.5761 631.286 -235.104 822.876 -170.429 894.229C-105.754 965.59 168.631 889.688 442.429 724.705C716.227 559.722 885.755 368.132 821.08 296.776C756.405 225.42 482.021 301.32 208.222 466.303Z" stroke="url(#paint89_linear_8_2)" stroke-miterlimit="10"/>
<path d="M192.383 456.221C-79.6043 629.252 -240.521 831.772 -167.034 908.572C-93.5501 985.363 186.512 907.349 458.498 734.322C730.483 561.293 891.4 358.768 817.913 281.974C744.429 205.177 464.367 283.192 192.383 456.221Z" stroke="url(#paint90_linear_8_2)" stroke-miterlimit="10"/>
<path d="M174.289 446.194C-94.8572 627.255 -245.409 840.872 -161.98 923.322C-78.5514 1005.77 207.267 925.833 476.414 744.771C745.56 563.712 896.114 350.093 812.685 267.643C729.256 185.194 443.436 265.134 174.289 446.194Z" stroke="url(#paint91_linear_8_2)" stroke-miterlimit="10"/>
<path d="M153.447 434.872C-111.842 623.855 -249.937 848.887 -154.995 937.493C-60.0543 1026.1 231.972 944.725 497.261 755.74C762.55 566.757 900.645 341.727 805.702 253.123C710.762 164.516 418.736 245.889 153.447 434.872Z" stroke="url(#paint92_linear_8_2)" stroke-miterlimit="10"/>
<path d="M129.409 423.103C-130.994 619.888 -254.429 856.535 -146.285 951.68C-38.1432 1046.82 260.622 964.416 521.027 767.635C781.43 570.852 904.865 334.202 796.721 239.062C688.58 143.923 389.814 226.321 129.409 423.103Z" stroke="url(#paint93_linear_8_2)" stroke-miterlimit="10"/>
<path d="M102.344 410.799C-152.276 615.292 -258.766 863.775 -135.512 965.81C-12.2549 1067.84 294.075 984.776 548.695 780.28C803.315 575.785 909.806 327.298 786.551 225.27C663.294 123.239 356.964 206.304 102.344 410.799Z" stroke="url(#paint94_linear_8_2)" stroke-miterlimit="10"/>
<path d="M70.7513 397.531C-177.127 609.482 -264.149 869.874 -123.62 979.142C16.9096 1088.41 331.777 1005.17 579.655 793.214C827.532 581.264 914.555 320.867 774.026 211.602C633.495 102.338 318.63 185.581 70.7513 397.531Z" stroke="url(#paint95_linear_8_2)" stroke-miterlimit="10"/>
<path d="M35.1637 384.019C-204.978 603.102 -269.771 875.354 -109.555 992.106C50.6608 1108.86 375.214 1025.9 615.358 806.823C855.5 587.74 920.293 315.491 760.077 198.736C599.861 81.9819 275.308 164.937 35.1637 384.019Z" stroke="url(#paint96_linear_8_2)" stroke-miterlimit="10"/>
<path d="M-5.7142 369.676C-237.463 595.728 -277.094 880.017 -94.2353 1004.65C88.6239 1129.28 424.731 1047.07 656.48 821.018C888.229 594.961 927.862 310.675 745.001 186.042C562.142 61.4082 226.035 143.624 -5.7142 369.676Z" stroke="url(#paint97_linear_8_2)" stroke-miterlimit="10"/>
<path d="M-52.3026 355.514C-274.921 588.22 -286.403 884.339 -77.9503 1016.92C130.503 1149.5 479.955 1068.33 702.572 835.621C925.191 602.916 936.675 306.796 728.22 174.219C519.767 41.6414 170.314 122.81 -52.3026 355.514Z" stroke="url(#paint98_linear_8_2)" stroke-miterlimit="10"/>
<path d="M-104.496 340.855C-317.285 579.769 -297.246 887.454 -59.7381 1028.09C177.768 1168.71 542.803 1089.04 755.59 850.126C968.377 611.214 948.338 303.53 710.832 162.898C473.324 22.2669 108.291 101.94 -104.496 340.855Z" stroke="url(#paint99_linear_8_2)" stroke-miterlimit="10"/>
<path d="M-164.448 326.308C-367.072 571.248 -312.185 890.34 -41.854 1039.01C228.48 1187.69 611.887 1109.65 814.511 864.705C1017.14 619.765 962.248 300.677 691.917 152.002C421.585 3.32786 38.176 81.3676 -164.448 326.308Z" stroke="url(#paint100_linear_8_2)" stroke-miterlimit="10"/>
<path d="M653.223 132.096C339.427 -15.6256 -61.8218 72.0388 -242.994 327.898C-424.163 583.757 -316.648 910.92 -2.85175 1058.64C310.945 1206.36 712.193 1118.7 893.365 862.838C1074.53 606.982 967.019 279.816 653.223 132.096Z" stroke="url(#paint101_linear_8_2)" stroke-miterlimit="10"/>
</g>
</g>
</g>
</g>
<defs>
<filter id="filter0_d_8_2" x="-20" y="-2.06195" width="1960" height="733.062" filterUnits="userSpaceOnUse" color-interpolation-filters="sRGB">
<feFlood flood-opacity="0" result="BackgroundImageFix"/>
<feColorMatrix in="SourceAlpha" type="matrix" values="0 0 0 0 0 0 0 0 0 0 0 0 0 0 0 0 0 0 127 0" result="hardAlpha"/>
<feOffset/>
<feGaussianBlur stdDeviation="10"/>
<feComposite in2="hardAlpha" operator="out"/>
<feColorMatrix type="matrix" values="0 0 0 0 0 0 0 0 0 0 0 0 0 0 0 0 0 0 0.25 0"/>
<feBlend mode="normal" in2="BackgroundImageFix" result="effect1_dropShadow_8_2"/>
<feBlend mode="normal" in="SourceGraphic" in2="effect1_dropShadow_8_2" result="shape"/>
</filter>
<linearGradient id="paint0_linear_8_2" x1="1675.91" y1="580.039" x2="1675.03" y2="610.648" gradientUnits="userSpaceOnUse">
<stop stop-color="#634A4A"/>
<stop offset="1" stop-color="#2F2929"/>
</linearGradient>
<linearGradient id="paint1_linear_8_2" x1="1675.57" y1="579.577" x2="1675.16" y2="611.211" gradientUnits="userSpaceOnUse">
<stop stop-color="#634A4A"/>
<stop offset="1" stop-color="#2F2929"/>
</linearGradient>
<linearGradient id="paint2_linear_8_2" x1="1675.44" y1="579.101" x2="1675.53" y2="611.759" gradientUnits="userSpaceOnUse">
<stop stop-color="#634A4A"/>
<stop offset="1" stop-color="#2F2929"/>
</linearGradient>
<linearGradient id="paint3_linear_8_2" x1="1674.53" y1="578.551" x2="1675.14" y2="612.225" gradientUnits="userSpaceOnUse">
<stop stop-color="#634A4A"/>
<stop offset="1" stop-color="#2F2929"/>
</linearGradient>
<linearGradient id="paint4_linear_8_2" x1="1674.44" y1="578.171" x2="1675.57" y2="612.859" gradientUnits="userSpaceOnUse">
<stop stop-color="#634A4A"/>
<stop offset="1" stop-color="#2F2929"/>
</linearGradient>
<linearGradient id="paint5_linear_8_2" x1="1674" y1="577.502" x2="1675.68" y2="613.199" gradientUnits="userSpaceOnUse">
<stop stop-color="#634A4A"/>
<stop offset="1" stop-color="#2F2929"/>
</linearGradient>
<linearGradient id="paint6_linear_8_2" x1="1673.2" y1="576.782" x2="1675.46" y2="613.995" gradientUnits="userSpaceOnUse">
<stop stop-color="#634A4A"/>
<stop offset="1" stop-color="#2F2929"/>
</linearGradient>
<linearGradient id="paint7_linear_8_2" x1="1672.79" y1="575.992" x2="1675.67" y2="614.714" gradientUnits="userSpaceOnUse">
<stop stop-color="#634A4A"/>
<stop offset="1" stop-color="#2F2929"/>
</linearGradient>
<linearGradient id="paint8_linear_8_2" x1="1672.56" y1="575.24" x2="1676.1" y2="615.47" gradientUnits="userSpaceOnUse">
<stop stop-color="#634A4A"/>
<stop offset="1" stop-color="#2F2929"/>
</linearGradient>
<linearGradient id="paint9_linear_8_2" x1="1671.91" y1="574.847" x2="1676.13" y2="616.581" gradientUnits="userSpaceOnUse">
<stop stop-color="#634A4A"/>
<stop offset="1" stop-color="#2F2929"/>
</linearGradient>
<linearGradient id="paint10_linear_8_2" x1="1671.8" y1="573.707" x2="1676.8" y2="617.448" gradientUnits="userSpaceOnUse">
<stop stop-color="#634A4A"/>
<stop offset="1" stop-color="#2F2929"/>
</linearGradient>
<linearGradient id="paint11_linear_8_2" x1="1670.71" y1="572.797" x2="1676.53" y2="618.533" gradientUnits="userSpaceOnUse">
<stop stop-color="#634A4A"/>
<stop offset="1" stop-color="#2F2929"/>
</linearGradient>
<linearGradient id="paint12_linear_8_2" x1="1669.92" y1="571.623" x2="1676.61" y2="619.348" gradientUnits="userSpaceOnUse">
<stop stop-color="#634A4A"/>
<stop offset="1" stop-color="#2F2929"/>
</linearGradient>
<linearGradient id="paint13_linear_8_2" x1="1669.6" y1="570.7" x2="1677.2" y2="620.411" gradientUnits="userSpaceOnUse">
<stop stop-color="#634A4A"/>
<stop offset="1" stop-color="#2F2929"/>
</linearGradient>
<linearGradient id="paint14_linear_8_2" x1="1668.86" y1="569.734" x2="1677.51" y2="621.931" gradientUnits="userSpaceOnUse">
<stop stop-color="#634A4A"/>
<stop offset="1" stop-color="#2F2929"/>
</linearGradient>
<linearGradient id="paint15_linear_8_2" x1="1667.83" y1="568.262" x2="1677.68" y2="623.435" gradientUnits="userSpaceOnUse">
<stop stop-color="#634A4A"/>
<stop offset="1" stop-color="#2F2929"/>
</linearGradient>
<linearGradient id="paint16_linear_8_2" x1="1667.21" y1="566.846" x2="1678.34" y2="624.991" gradientUnits="userSpaceOnUse">
<stop stop-color="#634A4A"/>
<stop offset="1" stop-color="#2F2929"/>
</linearGradient>
<linearGradient id="paint17_linear_8_2" x1="1666.22" y1="565.437" x2="1678.72" y2="626.537" gradientUnits="userSpaceOnUse">
<stop stop-color="#634A4A"/>
<stop offset="1" stop-color="#2F2929"/>
</linearGradient>
<linearGradient id="paint18_linear_8_2" x1="1664.74" y1="563.936" x2="1678.79" y2="628.476" gradientUnits="userSpaceOnUse">
<stop stop-color="#634A4A"/>
<stop offset="1" stop-color="#2F2929"/>
</linearGradient>
<linearGradient id="paint19_linear_8_2" x1="1663.74" y1="562.321" x2="1679.43" y2="630.289" gradientUnits="userSpaceOnUse">
<stop stop-color="#634A4A"/>
<stop offset="1" stop-color="#2F2929"/>
</linearGradient>
<linearGradient id="paint20_linear_8_2" x1="1662.28" y1="560.069" x2="1679.98" y2="632.449" gradientUnits="userSpaceOnUse">
<stop stop-color="#634A4A"/>
<stop offset="1" stop-color="#2F2929"/>
</linearGradient>
<linearGradient id="paint21_linear_8_2" x1="1660.85" y1="558.454" x2="1680.55" y2="634.72" gradientUnits="userSpaceOnUse">
<stop stop-color="#634A4A"/>
<stop offset="1" stop-color="#2F2929"/>
</linearGradient>
<linearGradient id="paint22_linear_8_2" x1="1659.15" y1="555.944" x2="1681.26" y2="637.072" gradientUnits="userSpaceOnUse">
<stop stop-color="#634A4A"/>
<stop offset="1" stop-color="#2F2929"/>
</linearGradient>
<linearGradient id="paint23_linear_8_2" x1="1657.26" y1="553.886" x2="1682.07" y2="640.349" gradientUnits="userSpaceOnUse">
<stop stop-color="#634A4A"/>
<stop offset="1" stop-color="#2F2929"/>
</linearGradient>
<linearGradient id="paint24_linear_8_2" x1="1655.02" y1="551.375" x2="1682.71" y2="643.124" gradientUnits="userSpaceOnUse">
<stop stop-color="#634A4A"/>
<stop offset="1" stop-color="#2F2929"/>
</linearGradient>
<linearGradient id="paint25_linear_8_2" x1="1652.94" y1="548.288" x2="1684.03" y2="646.284" gradientUnits="userSpaceOnUse">
<stop stop-color="#634A4A"/>
<stop offset="1" stop-color="#2F2929"/>
</linearGradient>
<linearGradient id="paint26_linear_8_2" x1="1650.25" y1="545.446" x2="1685.12" y2="650.129" gradientUnits="userSpaceOnUse">
<stop stop-color="#634A4A"/>
<stop offset="1" stop-color="#2F2929"/>
</linearGradient>
<linearGradient id="paint27_linear_8_2" x1="1647.06" y1="542.261" x2="1686.32" y2="654.557" gradientUnits="userSpaceOnUse">
<stop stop-color="#634A4A"/>
<stop offset="1" stop-color="#2F2929"/>
</linearGradient>
<linearGradient id="paint28_linear_8_2" x1="1643.89" y1="538.799" x2="1687.86" y2="658.63" gradientUnits="userSpaceOnUse">
<stop stop-color="#634A4A"/>
<stop offset="1" stop-color="#2F2929"/>
</linearGradient>
<linearGradient id="paint29_linear_8_2" x1="1639.97" y1="534.79" x2="1689.53" y2="663.54" gradientUnits="userSpaceOnUse">
<stop stop-color="#634A4A"/>
<stop offset="1" stop-color="#2F2929"/>
</linearGradient>
<linearGradient id="paint30_linear_8_2" x1="1635.97" y1="530.502" x2="1691.91" y2="669.049" gradientUnits="userSpaceOnUse">
<stop stop-color="#634A4A"/>
<stop offset="1" stop-color="#2F2929"/>
</linearGradient>
<linearGradient id="paint31_linear_8_2" x1="1631.43" y1="526.23" x2="1694.41" y2="674.924" gradientUnits="userSpaceOnUse">
<stop stop-color="#634A4A"/>
<stop offset="1" stop-color="#2F2929"/>
</linearGradient>
<linearGradient id="paint32_linear_8_2" x1="1625.79" y1="521.143" x2="1697.2" y2="681.764" gradientUnits="userSpaceOnUse">
<stop stop-color="#634A4A"/>
<stop offset="1" stop-color="#2F2929"/>
</linearGradient>
<linearGradient id="paint33_linear_8_2" x1="1619.66" y1="516.185" x2="1700.33" y2="689.014" gradientUnits="userSpaceOnUse">
<stop stop-color="#634A4A"/>
<stop offset="1" stop-color="#2F2929"/>
</linearGradient>
<linearGradient id="paint34_linear_8_2" x1="1612.23" y1="510.176" x2="1703.79" y2="696.88" gradientUnits="userSpaceOnUse">
<stop stop-color="#634A4A"/>
<stop offset="1" stop-color="#2F2929"/>
</linearGradient>
<linearGradient id="paint35_linear_8_2" x1="1604.21" y1="504.118" x2="1708.45" y2="706.331" gradientUnits="userSpaceOnUse">
<stop stop-color="#634A4A"/>
<stop offset="1" stop-color="#2F2929"/>
</linearGradient>
<linearGradient id="paint36_linear_8_2" x1="1595.22" y1="497.361" x2="1713.89" y2="716.127" gradientUnits="userSpaceOnUse">
<stop stop-color="#634A4A"/>
<stop offset="1" stop-color="#2F2929"/>
</linearGradient>
<linearGradient id="paint37_linear_8_2" x1="1584.7" y1="489.899" x2="1720.23" y2="727.108" gradientUnits="userSpaceOnUse">
<stop stop-color="#634A4A"/>
<stop offset="1" stop-color="#2F2929"/>
</linearGradient>
<linearGradient id="paint38_linear_8_2" x1="1572.42" y1="482.003" x2="1727.23" y2="738.925" gradientUnits="userSpaceOnUse">
<stop stop-color="#634A4A"/>
<stop offset="1" stop-color="#2F2929"/>
</linearGradient>
<linearGradient id="paint39_linear_8_2" x1="1558.33" y1="473.571" x2="1735.93" y2="752.749" gradientUnits="userSpaceOnUse">
<stop stop-color="#634A4A"/>
<stop offset="1" stop-color="#2F2929"/>
</linearGradient>
<linearGradient id="paint40_linear_8_2" x1="1542.62" y1="464.413" x2="1746.34" y2="767.242" gradientUnits="userSpaceOnUse">
<stop stop-color="#634A4A"/>
<stop offset="1" stop-color="#2F2929"/>
</linearGradient>
<linearGradient id="paint41_linear_8_2" x1="1524.35" y1="454.799" x2="1758.72" y2="783.794" gradientUnits="userSpaceOnUse">
<stop stop-color="#634A4A"/>
<stop offset="1" stop-color="#2F2929"/>
</linearGradient>
<linearGradient id="paint42_linear_8_2" x1="1503.52" y1="444.371" x2="1773.55" y2="801.716" gradientUnits="userSpaceOnUse">
<stop stop-color="#634A4A"/>
<stop offset="1" stop-color="#2F2929"/>
</linearGradient>
<linearGradient id="paint43_linear_8_2" x1="1479.27" y1="433.287" x2="1790.8" y2="821.183" gradientUnits="userSpaceOnUse">
<stop stop-color="#634A4A"/>
<stop offset="1" stop-color="#2F2929"/>
</linearGradient>
<linearGradient id="paint44_linear_8_2" x1="1452.13" y1="421.952" x2="1811.84" y2="842.64" gradientUnits="userSpaceOnUse">
<stop stop-color="#634A4A"/>
<stop offset="1" stop-color="#2F2929"/>
</linearGradient>
<linearGradient id="paint45_linear_8_2" x1="1420.83" y1="410.023" x2="1836.38" y2="865.509" gradientUnits="userSpaceOnUse">
<stop stop-color="#634A4A"/>
<stop offset="1" stop-color="#2F2929"/>
</linearGradient>
<linearGradient id="paint46_linear_8_2" x1="1384.79" y1="397.582" x2="1865.54" y2="890.452" gradientUnits="userSpaceOnUse">
<stop stop-color="#634A4A"/>
<stop offset="1" stop-color="#2F2929"/>
</linearGradient>
<linearGradient id="paint47_linear_8_2" x1="1344.38" y1="384.778" x2="1900.1" y2="916.404" gradientUnits="userSpaceOnUse">
<stop stop-color="#634A4A"/>
<stop offset="1" stop-color="#2F2929"/>
</linearGradient>
<linearGradient id="paint48_linear_8_2" x1="1297.91" y1="372.061" x2="1940.05" y2="943.979" gradientUnits="userSpaceOnUse">
<stop stop-color="#634A4A"/>
<stop offset="1" stop-color="#2F2929"/>
</linearGradient>
<linearGradient id="paint49_linear_8_2" x1="1246.26" y1="359.285" x2="1987.52" y2="972.488" gradientUnits="userSpaceOnUse">
<stop stop-color="#634A4A"/>
<stop offset="1" stop-color="#2F2929"/>
</linearGradient>
<linearGradient id="paint50_linear_8_2" x1="1962.73" y1="189.285" x2="1545.43" y2="1075.74" gradientUnits="userSpaceOnUse">
<stop stop-color="#634A4A"/>
<stop offset="1" stop-color="#2F2929"/>
</linearGradient>
<linearGradient id="paint51_linear_8_2" x1="324.362" y1="612.862" x2="325.366" y2="577.943" gradientUnits="userSpaceOnUse">
<stop stop-color="#634A4A"/>
<stop offset="1" stop-color="#2F2929"/>
</linearGradient>
<linearGradient id="paint52_linear_8_2" x1="324.754" y1="613.388" x2="325.212" y2="577.299" gradientUnits="userSpaceOnUse">
<stop stop-color="#634A4A"/>
<stop offset="1" stop-color="#2F2929"/>
</linearGradient>
<linearGradient id="paint53_linear_8_2" x1="324.897" y1="613.933" x2="324.789" y2="576.676" gradientUnits="userSpaceOnUse">
<stop stop-color="#634A4A"/>
<stop offset="1" stop-color="#2F2929"/>
</linearGradient>
<linearGradient id="paint54_linear_8_2" x1="325.933" y1="614.56" x2="325.245" y2="576.145" gradientUnits="userSpaceOnUse">
<stop stop-color="#634A4A"/>
<stop offset="1" stop-color="#2F2929"/>
</linearGradient>
<linearGradient id="paint55_linear_8_2" x1="326.033" y1="614.992" x2="324.744" y2="575.42" gradientUnits="userSpaceOnUse">
<stop stop-color="#634A4A"/>
<stop offset="1" stop-color="#2F2929"/>
</linearGradient>
<linearGradient id="paint56_linear_8_2" x1="326.535" y1="615.757" x2="324.625" y2="575.033" gradientUnits="userSpaceOnUse">
<stop stop-color="#634A4A"/>
<stop offset="1" stop-color="#2F2929"/>
</linearGradient>
<linearGradient id="paint57_linear_8_2" x1="327.454" y1="616.576" x2="324.872" y2="574.125" gradientUnits="userSpaceOnUse">
<stop stop-color="#634A4A"/>
<stop offset="1" stop-color="#2F2929"/>
</linearGradient>
<linearGradient id="paint58_linear_8_2" x1="327.925" y1="617.479" x2="324.634" y2="573.304" gradientUnits="userSpaceOnUse">
<stop stop-color="#634A4A"/>
<stop offset="1" stop-color="#2F2929"/>
</linearGradient>
<linearGradient id="paint59_linear_8_2" x1="328.176" y1="618.337" x2="324.14" y2="572.441" gradientUnits="userSpaceOnUse">
<stop stop-color="#634A4A"/>
<stop offset="1" stop-color="#2F2929"/>
</linearGradient>
<linearGradient id="paint60_linear_8_2" x1="328.923" y1="618.785" x2="324.107" y2="571.174" gradientUnits="userSpaceOnUse">
<stop stop-color="#634A4A"/>
<stop offset="1" stop-color="#2F2929"/>
</linearGradient>
<linearGradient id="paint61_linear_8_2" x1="329.055" y1="620.085" x2="323.352" y2="570.184" gradientUnits="userSpaceOnUse">
<stop stop-color="#634A4A"/>
<stop offset="1" stop-color="#2F2929"/>
</linearGradient>
<linearGradient id="paint62_linear_8_2" x1="330.295" y1="621.125" x2="323.657" y2="568.948" gradientUnits="userSpaceOnUse">
<stop stop-color="#634A4A"/>
<stop offset="1" stop-color="#2F2929"/>
</linearGradient>
<linearGradient id="paint63_linear_8_2" x1="331.19" y1="622.463" x2="323.562" y2="568.016" gradientUnits="userSpaceOnUse">
<stop stop-color="#634A4A"/>
<stop offset="1" stop-color="#2F2929"/>
</linearGradient>
<linearGradient id="paint64_linear_8_2" x1="331.563" y1="623.516" x2="322.889" y2="566.804" gradientUnits="userSpaceOnUse">
<stop stop-color="#634A4A"/>
<stop offset="1" stop-color="#2F2929"/>
</linearGradient>
<linearGradient id="paint65_linear_8_2" x1="332.403" y1="624.618" x2="322.534" y2="565.07" gradientUnits="userSpaceOnUse">
<stop stop-color="#634A4A"/>
<stop offset="1" stop-color="#2F2929"/>
</linearGradient>
<linearGradient id="paint66_linear_8_2" x1="333.575" y1="626.297" x2="322.335" y2="563.354" gradientUnits="userSpaceOnUse">
<stop stop-color="#634A4A"/>
<stop offset="1" stop-color="#2F2929"/>
</linearGradient>
<linearGradient id="paint67_linear_8_2" x1="334.286" y1="627.912" x2="321.582" y2="561.579" gradientUnits="userSpaceOnUse">
<stop stop-color="#634A4A"/>
<stop offset="1" stop-color="#2F2929"/>
</linearGradient>
<linearGradient id="paint68_linear_8_2" x1="335.409" y1="629.521" x2="321.153" y2="559.818" gradientUnits="userSpaceOnUse">
<stop stop-color="#634A4A"/>
<stop offset="1" stop-color="#2F2929"/>
</linearGradient>
<linearGradient id="paint69_linear_8_2" x1="337.101" y1="631.232" x2="321.078" y2="557.604" gradientUnits="userSpaceOnUse">
<stop stop-color="#634A4A"/>
<stop offset="1" stop-color="#2F2929"/>
</linearGradient>
<linearGradient id="paint70_linear_8_2" x1="338.248" y1="633.075" x2="320.339" y2="555.535" gradientUnits="userSpaceOnUse">
<stop stop-color="#634A4A"/>
<stop offset="1" stop-color="#2F2929"/>
</linearGradient>
<linearGradient id="paint71_linear_8_2" x1="339.903" y1="635.644" x2="319.712" y2="553.072" gradientUnits="userSpaceOnUse">
<stop stop-color="#634A4A"/>
<stop offset="1" stop-color="#2F2929"/>
</linearGradient>
<linearGradient id="paint72_linear_8_2" x1="341.542" y1="637.486" x2="319.069" y2="550.479" gradientUnits="userSpaceOnUse">
<stop stop-color="#634A4A"/>
<stop offset="1" stop-color="#2F2929"/>
</linearGradient>
<linearGradient id="paint73_linear_8_2" x1="343.474" y1="640.35" x2="318.256" y2="547.797" gradientUnits="userSpaceOnUse">
<stop stop-color="#634A4A"/>
<stop offset="1" stop-color="#2F2929"/>
</linearGradient>
<linearGradient id="paint74_linear_8_2" x1="345.631" y1="642.698" x2="317.335" y2="544.061" gradientUnits="userSpaceOnUse">
<stop stop-color="#634A4A"/>
<stop offset="1" stop-color="#2F2929"/>
</linearGradient>
<linearGradient id="paint75_linear_8_2" x1="348.192" y1="645.563" x2="316.604" y2="540.894" gradientUnits="userSpaceOnUse">
<stop stop-color="#634A4A"/>
<stop offset="1" stop-color="#2F2929"/>
</linearGradient>
<linearGradient id="paint76_linear_8_2" x1="350.563" y1="649.084" x2="315.097" y2="537.288" gradientUnits="userSpaceOnUse">
<stop stop-color="#634A4A"/>
<stop offset="1" stop-color="#2F2929"/>
</linearGradient>
<linearGradient id="paint77_linear_8_2" x1="353.626" y1="652.325" x2="313.843" y2="532.901" gradientUnits="userSpaceOnUse">
<stop stop-color="#634A4A"/>
<stop offset="1" stop-color="#2F2929"/>
</linearGradient>
<linearGradient id="paint78_linear_8_2" x1="357.273" y1="655.96" x2="312.485" y2="527.851" gradientUnits="userSpaceOnUse">
<stop stop-color="#634A4A"/>
<stop offset="1" stop-color="#2F2929"/>
</linearGradient>
<linearGradient id="paint79_linear_8_2" x1="360.885" y1="659.909" x2="310.734" y2="523.206" gradientUnits="userSpaceOnUse">
<stop stop-color="#634A4A"/>
<stop offset="1" stop-color="#2F2929"/>
</linearGradient>
<linearGradient id="paint80_linear_8_2" x1="365.363" y1="664.482" x2="308.832" y2="517.602" gradientUnits="userSpaceOnUse">
<stop stop-color="#634A4A"/>
<stop offset="1" stop-color="#2F2929"/>
</linearGradient>
<linearGradient id="paint81_linear_8_2" x1="369.923" y1="669.375" x2="306.104" y2="511.319" gradientUnits="userSpaceOnUse">
<stop stop-color="#634A4A"/>
<stop offset="1" stop-color="#2F2929"/>
</linearGradient>
<linearGradient id="paint82_linear_8_2" x1="375.107" y1="674.249" x2="303.245" y2="504.613" gradientUnits="userSpaceOnUse">
<stop stop-color="#634A4A"/>
<stop offset="1" stop-color="#2F2929"/>
</linearGradient>
<linearGradient id="paint83_linear_8_2" x1="381.535" y1="680.054" x2="300.067" y2="496.812" gradientUnits="userSpaceOnUse">
<stop stop-color="#634A4A"/>
<stop offset="1" stop-color="#2F2929"/>
</linearGradient>
<linearGradient id="paint84_linear_8_2" x1="388.529" y1="685.708" x2="296.499" y2="488.54" gradientUnits="userSpaceOnUse">
<stop stop-color="#634A4A"/>
<stop offset="1" stop-color="#2F2929"/>
</linearGradient>
<linearGradient id="paint85_linear_8_2" x1="397.005" y1="692.564" x2="292.549" y2="479.567" gradientUnits="userSpaceOnUse">
<stop stop-color="#634A4A"/>
<stop offset="1" stop-color="#2F2929"/>
</linearGradient>
<linearGradient id="paint86_linear_8_2" x1="406.157" y1="699.475" x2="287.236" y2="468.786" gradientUnits="userSpaceOnUse">
<stop stop-color="#634A4A"/>
<stop offset="1" stop-color="#2F2929"/>
</linearGradient>
<linearGradient id="paint87_linear_8_2" x1="416.411" y1="707.183" x2="281.03" y2="457.61" gradientUnits="userSpaceOnUse">
<stop stop-color="#634A4A"/>
<stop offset="1" stop-color="#2F2929"/>
</linearGradient>
<linearGradient id="paint88_linear_8_2" x1="428.412" y1="715.697" x2="273.79" y2="445.083" gradientUnits="userSpaceOnUse">
<stop stop-color="#634A4A"/>
<stop offset="1" stop-color="#2F2929"/>
</linearGradient>
<linearGradient id="paint89_linear_8_2" x1="442.429" y1="724.705" x2="265.812" y2="431.6" gradientUnits="userSpaceOnUse">
<stop stop-color="#634A4A"/>
<stop offset="1" stop-color="#2F2929"/>
</linearGradient>
<linearGradient id="paint90_linear_8_2" x1="458.498" y1="734.322" x2="255.88" y2="415.826" gradientUnits="userSpaceOnUse">
<stop stop-color="#634A4A"/>
<stop offset="1" stop-color="#2F2929"/>
</linearGradient>
<linearGradient id="paint91_linear_8_2" x1="476.414" y1="744.771" x2="244.004" y2="399.295" gradientUnits="userSpaceOnUse">
<stop stop-color="#634A4A"/>
<stop offset="1" stop-color="#2F2929"/>
</linearGradient>
<linearGradient id="paint92_linear_8_2" x1="497.261" y1="755.74" x2="229.892" y2="380.415" gradientUnits="userSpaceOnUse">
<stop stop-color="#634A4A"/>
<stop offset="1" stop-color="#2F2929"/>
</linearGradient>
<linearGradient id="paint93_linear_8_2" x1="521.027" y1="767.635" x2="212.959" y2="359.966" gradientUnits="userSpaceOnUse">
<stop stop-color="#634A4A"/>
<stop offset="1" stop-color="#2F2929"/>
</linearGradient>
<linearGradient id="paint94_linear_8_2" x1="548.695" y1="780.28" x2="193.288" y2="337.758" gradientUnits="userSpaceOnUse">
<stop stop-color="#634A4A"/>
<stop offset="1" stop-color="#2F2929"/>
</linearGradient>
<linearGradient id="paint95_linear_8_2" x1="579.655" y1="793.213" x2="169.284" y2="313.28" gradientUnits="userSpaceOnUse">
<stop stop-color="#634A4A"/>
<stop offset="1" stop-color="#2F2929"/>
</linearGradient>
<linearGradient id="paint96_linear_8_2" x1="615.358" y1="806.823" x2="141.296" y2="287.193" gradientUnits="userSpaceOnUse">
<stop stop-color="#634A4A"/>
<stop offset="1" stop-color="#2F2929"/>
</linearGradient>
<linearGradient id="paint97_linear_8_2" x1="656.48" y1="821.009" x2="108.023" y2="258.734" gradientUnits="userSpaceOnUse">
<stop stop-color="#634A4A"/>
<stop offset="1" stop-color="#2F2929"/>
</linearGradient>
<linearGradient id="paint98_linear_8_2" x1="702.572" y1="835.621" x2="68.6039" y2="229.13" gradientUnits="userSpaceOnUse">
<stop stop-color="#634A4A"/>
<stop offset="1" stop-color="#2F2929"/>
</linearGradient>
<linearGradient id="paint99_linear_8_2" x1="755.59" y1="850.126" x2="23.0248" y2="197.675" gradientUnits="userSpaceOnUse">
<stop stop-color="#634A4A"/>
<stop offset="1" stop-color="#2F2929"/>
</linearGradient>
<linearGradient id="paint100_linear_8_2" x1="814.511" y1="864.705" x2="-31.1339" y2="165.152" gradientUnits="userSpaceOnUse">
<stop stop-color="#634A4A"/>
<stop offset="1" stop-color="#2F2929"/>
</linearGradient>
<linearGradient id="paint101_linear_8_2" x1="-2.8517" y1="1058.64" x2="473.214" y2="47.3559" gradientUnits="userSpaceOnUse">
<stop stop-color="#634A4A"/>
<stop offset="1" stop-color="#2F2929"/>
</linearGradient>
<clipPath id="clip0_8_2">
<rect width="1920" height="711" fill="white"/>
</clipPath>
</defs>
</svg>
