<svg width="634" height="762" viewBox="0 0 634 762" fill="none" xmlns="http://www.w3.org/2000/svg">
<path d="M230.266 697.919L239.546 727.103L257.096 740.44L273.115 731.11L270.297 696.237" fill="url(#paint0_linear_601_28184)"/>
<path d="M70.479 709.238L68.6719 737.351C68.6719 737.351 88.5498 743.928 97.4933 742L105.518 715.937L70.479 709.238Z" fill="url(#paint1_linear_601_28184)"/>
<path d="M272.475 716.029C272.475 716.029 268.278 718.843 258.294 719.944C242.857 721.627 233.638 719.944 233.638 719.944C233.638 719.944 189.9 579.717 197.19 532.669C193.177 524.226 187.664 510.185 181.477 493.666C175.658 478.156 169.318 460.444 163.223 443.13C148.184 400.487 134.738 360.076 134.738 360.076L233.76 326.151C233.76 326.151 254.924 473.965 259.825 523.491C264.572 571.488 272.475 716.029 272.475 716.029Z" fill="url(#paint2_linear_601_28184)"/>
<path style="mix-blend-mode:multiply" opacity="0.4" d="M181.481 493.636C175.662 478.157 169.322 460.445 163.227 443.13L172.813 427.162L181.481 493.636Z" fill="url(#paint3_linear_601_28184)"/>
<path d="M189.594 364.42L94.125 362.431C94.125 362.431 89.0407 507.798 87.9074 527.284C87.9074 527.284 88.9488 539.581 82.4555 568.061C75.2885 599.539 69.1016 718.751 69.1016 718.751C69.1016 718.751 87.6624 725.083 109.347 723.829C109.347 723.829 139.7 613.794 145.795 538.664C161.967 490.912 189.594 364.45 189.594 364.45V364.42Z" fill="url(#paint4_linear_601_28184)"/>
<path d="M379.827 275.187C379.49 276.197 378.234 276.901 377.805 278.032C377.254 279.378 377.376 281.122 376.641 282.468C376.151 283.386 382.951 285.588 382.369 286.353C381.45 287.607 372.506 287.546 371.159 287.699C364.635 288.494 359.122 287.026 353.884 284.303C350.607 282.59 340.438 278.369 335.722 277.757C318.171 275.463 252.412 270.507 240.406 265.49C214.433 254.6 196.301 206.389 196.301 206.389L250.973 202.015C250.973 202.015 256.455 235.205 258.568 238.326C260.682 241.477 322.95 255.028 342.644 257.047C345.921 257.384 352.414 257.445 355.814 256.558C359.183 255.609 366.411 254.172 370.699 255.671C374.987 257.17 390.792 266.071 391.282 267.142C391.282 267.142 391.282 274.82 379.796 275.218L379.827 275.187Z" fill="url(#paint5_linear_601_28184)"/>
<path d="M334.836 285.589C334.836 285.589 339.982 272.19 341.176 256.865L260.807 235.512C260.807 235.512 251.894 182.529 234.221 154.661C230.27 148.421 226.595 143.22 224.053 141.874C199.948 129.149 193.547 214.099 193.547 214.099C193.547 214.099 207.881 246.923 228.494 266.439C243.869 281.001 334.836 285.559 334.836 285.559V285.589Z" fill="url(#paint6_linear_601_28184)"/>
<path d="M237.469 361.454C237.469 361.454 233.334 362.83 128.768 361.209C130.3 355.305 97.0984 219.972 97.374 209.877C97.6191 201.954 87.7567 157.016 91.2177 150.072C95.9957 140.436 116.823 133.186 137.804 127.649C153.608 123.489 171.495 119.788 171.495 119.788L198.479 129.699C198.479 129.699 219.459 141.568 223.257 145.484C226.565 160.014 229.23 278.798 229.995 305.075C230.24 312.509 237.407 361.454 237.407 361.454H237.469Z" fill="white"/>
<path d="M176.332 152.857C154.555 148.636 137.832 127.681 137.832 127.681L143.345 124.867C143.345 124.867 145.857 122.481 146.255 118.718C148.184 99.507 140.466 79.8066 140.466 79.8066C153.973 89.3203 171.86 95.0102 180.651 98.161C180.896 99.8129 181.631 106.91 183.377 113.059C184.479 116.821 185.949 120.186 187.971 121.716C188.492 122.113 198.109 157.079 176.332 152.857Z" fill="url(#paint7_linear_601_28184)"/>
<g style="mix-blend-mode:multiply">
<path d="M183.377 113.058C168.032 109.846 154.004 93.082 154.004 93.082L180.651 98.1295C180.896 99.7814 181.631 106.878 183.377 113.027V113.058Z" fill="#E3A39A"/>
</g>
<path d="M195.688 106.695C191.247 107.001 185.826 106.389 179.394 104.645C179.394 104.645 173.268 102.228 165.151 98.4046C158.015 95.0396 148.152 90.604 141.935 84.3635C141.904 84.3329 136.912 72.7085 136.912 72.7085C132.042 55.2106 139.209 34.562 144.263 27.8932C160.404 6.54095 202.671 12.5979 209.93 45.3605C210.481 47.8689 210.543 50.4691 210.175 53.0387C209.685 56.6178 209.011 62.9807 209.195 70.2918C209.501 81.2739 202.763 106.205 195.688 106.664V106.695Z" fill="url(#paint8_linear_601_28184)"/>
<path d="M190.299 44.3512C187.359 43.6476 185.919 43.3723 182.581 42.2098C184.081 42.7299 184.755 47.2879 178.17 46.982C171.983 46.7067 171.279 58.2699 161.171 62.1855C160.406 67.5083 160.651 73.8099 162.213 80.4787L156.608 79.8975C155.903 76.7772 154.739 69.9861 152.35 66.6823C152.35 66.6823 152.35 66.6823 152.35 66.6211C152.044 66.1623 149.165 61.9714 143.682 63.3174C141.477 63.868 138.721 66.1929 138.874 72.0357C139.027 76.869 140.742 81.0293 142.917 83.6295C143.866 91.2772 145.673 98.9249 145.765 101.372C143.958 101.189 122.733 57.138 125.367 37.4071C127.388 22.173 136.944 16.5749 145.214 16.5749C149.379 -0.617054 170.054 -1.44301 180.467 1.03483C190.207 3.35972 196.18 8.13186 207.267 13.6076C220.009 19.8787 225.43 16.3301 226.502 22.2953C228.646 34.2257 216.211 50.5611 190.36 44.3512H190.299Z" fill="url(#paint9_linear_601_28184)"/>
<path d="M317.07 757.633H232.658C230.147 753.259 230.331 734.782 239.58 727.104C239.58 727.104 261.051 736.954 273.149 731.111C273.149 731.111 297.009 737.474 310.026 745.397C316.397 749.252 317.652 753.871 317.101 757.633H317.07Z" fill="url(#paint10_linear_601_28184)"/>
<path d="M69.0131 732.059C69.0131 732.059 57.313 738.36 49.6865 742.949C42.06 747.507 41.9375 757.632 41.9375 757.632H105.522C105.522 757.632 105.522 739.615 100.07 733.649C83.3165 737.443 69.0131 732.059 69.0131 732.059Z" fill="url(#paint11_linear_601_28184)"/>
<path d="M152.871 65.7947C152.871 65.7947 152.84 65.7947 152.84 65.7637H152.871V65.7947Z" fill="url(#paint12_linear_601_28184)"/>
<path d="M178.203 164.633C178.203 164.633 159.795 284.273 161.449 307.155C163.103 330.037 185.462 364.39 189.596 364.421C194.865 364.451 206.932 326.396 207.392 309.235C207.851 292.074 189.443 163.318 189.443 163.318L178.141 164.633H178.203Z" fill="url(#paint13_linear_601_28184)"/>
<path d="M146.315 117.554C146.315 117.554 162.947 135.389 183.345 141.231L172.993 160.351C172.993 160.351 147.755 151.969 137.801 127.68L146.315 117.585V117.554Z" fill="url(#paint14_linear_601_28184)"/>
<path d="M185.584 118.716C185.584 118.716 191.128 128.352 183.379 141.231L191.128 157.108C191.128 157.108 200.316 138.967 190.332 123.825C189.75 122.968 189.076 122.173 188.341 121.439L185.584 118.716Z" fill="url(#paint15_linear_601_28184)"/>
<path d="M183.376 141.232L173.023 160.351L178.2 164.634C178.2 164.634 186.959 164.756 189.502 163.318L191.156 157.078L183.407 141.201L183.376 141.232Z" fill="url(#paint16_linear_601_28184)"/>
<path d="M194.461 127.956C194.461 127.956 198.197 129.914 198.626 147.473C199.422 182.224 185.854 275.434 185.854 275.434C185.854 275.434 160.616 178.492 146.925 146.188C141.504 133.371 137.829 127.65 137.829 127.65C137.829 127.65 109.834 127.865 89.5274 142.701C87.4447 144.231 86.2809 148.116 85.3008 150.838L95.6838 214.987C95.6838 214.987 110.447 288.374 102.728 336.309C100.278 351.513 86.679 396.114 86.679 396.114C86.679 396.114 111.029 404.801 125.393 405.23C173.817 406.667 183.067 392.168 186.528 384.061C189.07 378.065 190.755 364.452 190.755 364.452C190.755 364.452 196.88 379.748 200.188 384.061C213.389 401.192 247.264 395.991 247.264 395.991C247.264 395.991 237.892 348.484 235.166 319.913C232.409 291.066 235.932 204.035 235.932 204.035C235.932 204.035 233.022 163.9 224.14 141.936C218.412 137.195 202.455 128.874 194.522 127.987L194.461 127.956Z" fill="url(#paint17_linear_601_28184)"/>
<path d="M13.4788 238.265C1.41115 271.792 76.1446 344.109 76.1446 344.109C76.1446 344.109 90.2031 335.513 102.7 322.512L59.1765 249.369L95.6549 214.985L85.2719 150.837C62.8213 169.222 24.3212 208.164 13.4788 238.265Z" fill="url(#paint18_linear_601_28184)"/>
<path d="M184.749 327.271L131.559 244.869C129.716 242.014 125.906 241.192 123.048 243.032L5.17414 318.932C2.31649 320.772 1.49341 324.578 3.33574 327.432L56.5266 409.834C58.3689 412.689 62.179 413.511 65.0366 411.67L182.911 335.77C185.769 333.93 186.592 330.125 184.749 327.271Z" fill="url(#paint19_linear_601_28184)"/>
<path d="M129.533 350.471C136.301 354.57 141.202 352.46 139.762 349.554C138.323 346.678 131.278 340.805 128.614 339.367C125.918 337.929 119.211 335.543 115.903 334.289C114.739 333.86 112.932 333.065 111.094 332.27C106.745 330.343 103.161 327.1 100.742 323.001C90.8793 306.115 63.9569 259.801 59.2095 249.4C68.9187 239.366 77.556 231.168 88.0616 220.645C89.8074 218.901 55.6566 181.978 55.6566 181.978C55.6566 181.978 10.9084 230.005 13.0218 244.658C18.1674 280.327 87.1426 343.191 87.1426 343.191C88.429 346.127 97.8626 364.818 97.8626 364.818C97.8626 364.818 102.426 370.6 104.417 372.68C106.04 374.363 113.146 379.043 115.015 379.135C115.903 379.165 116.485 378.798 116.577 378.125C119.762 380.267 122.794 382.071 124.203 382.133C126.102 382.224 127.174 381.154 126.807 379.379C128.981 380.695 130.88 381.704 131.891 381.735C134.984 381.888 135.934 378.951 131.891 374.913C127.848 370.875 121.6 365.032 121.6 365.032C122.212 365.552 122.733 366.011 123.101 366.225C125.367 367.785 132.994 371.946 135.658 372.344C138.752 372.802 138.445 370.355 137.22 367.877C135.964 365.399 132.167 364.268 128.859 361.178C125.551 358.088 120.191 350.043 120.191 350.043C120.191 350.043 124.448 349.431 129.624 350.441L129.533 350.471Z" fill="url(#paint20_linear_601_28184)"/>
<path d="M13.4788 238.266C1.41115 271.793 76.1446 344.109 76.1446 344.109C76.1446 344.109 90.2031 335.514 102.7 322.513L59.1765 249.37L100.739 214.558L88.5798 143.588C66.1291 161.973 24.3212 208.165 13.4788 238.266Z" fill="url(#paint21_linear_601_28184)"/>
<path d="M209.044 174.973C209.044 174.973 217.497 184.701 217.038 187.27C216.18 192.195 185.858 290.667 185.858 290.667C185.858 290.667 178.752 273.872 168.247 257.323C157.68 240.804 130.145 195.652 131.125 192.348C132.136 189.014 144.203 176.533 144.203 176.533C144.203 176.533 127.97 170.874 128.399 166.591C128.767 162.308 133.3 128.414 133.3 128.414C136.148 127.863 137.833 127.68 137.833 127.68C137.833 127.68 141.477 133.431 146.929 146.218C160.62 178.521 185.858 275.463 185.858 275.463C185.858 275.463 199.426 182.253 198.63 147.502C198.232 129.943 192.351 127.496 192.351 127.496C193.76 127.649 197.16 128.2 199.518 129.209C204.695 136.857 218.202 161.727 217.804 164.664C217.436 167.6 209.013 175.003 209.013 175.003L209.044 174.973Z" fill="url(#paint22_linear_601_28184)"/>
<path d="M418.266 199.262C418.266 199.262 391.588 216.424 374.406 215.475C367.606 215.108 350.026 208.348 331.373 200.364C312.72 192.379 292.934 183.11 281.602 177.696C281.602 177.696 267.757 176.105 261.264 176.228C255.139 176.35 246.471 173.23 243.01 172.006C240.376 165.704 237.435 159.77 234.219 154.692C232.841 152.52 231.463 150.44 230.207 148.635C230.636 147.992 231.647 148.023 233.239 148.268C236.976 148.849 245.981 151.51 245.981 151.51L250.544 152.03C255.108 152.52 258.998 152.673 258.998 152.673C258.998 152.673 251.953 149.553 249.748 147.35C247.543 145.147 247.543 142.15 249.748 142.792C251.953 143.434 256.915 143.037 263.163 145.79C269.411 148.512 269.687 151.388 272.934 154.08C276.18 156.833 279.151 158.73 279.151 158.73C287.635 160.596 307.789 165.031 322.797 168.029C342.338 171.945 373.579 180.786 373.579 180.786L395.815 165.949L418.235 199.232L418.266 199.262Z" fill="url(#paint23_linear_601_28184)"/>
<g filter="url(#filter0_d_601_28184)">
<path d="M457.867 757.572C457.867 757.572 457.714 757.602 457.653 757.633H382.062C381.419 757.296 381.511 757.021 381.511 757.021C381.511 757.021 380.132 755.461 382.46 751.698C384.757 747.997 398.509 744.509 407.024 742.766C416.55 737.137 427.239 729.673 427.239 729.673C436.672 733.344 453.641 730.254 453.641 730.254C460.563 736.892 461.482 756.409 457.898 757.572H457.867Z" fill="white"/>
</g>
<g filter="url(#filter1_d_601_28184)">
<path d="M630 734.079C627.519 736.679 622.496 739.799 617.411 742.216C614.594 743.501 604.823 749.16 595.175 754.727C591.347 756.869 586.997 758.001 582.648 758.001H566.844C563.903 758.001 562.831 755.982 562.923 754.727C563.138 751.424 565.925 748.64 570.55 747.783C571.683 747.569 576.369 742.828 586.385 736.251C589.325 731.57 593.307 721.108 593.307 721.108C607.61 719.273 615.88 712.788 615.88 712.788C624.854 715.265 628.744 727.746 630 734.079Z" fill="white"/>
</g>
<path d="M426.41 717.773C426.686 721.934 426.961 725.911 427.206 729.643C434.557 733.069 445.369 732.763 453.608 730.254C454.098 728.755 455.048 725.176 456.365 719.976C441.755 720.649 432.015 719.15 426.441 717.773H426.41Z" fill="url(#paint24_linear_601_28184)"/>
<path d="M466.414 125.508L447.332 190.911C444.392 193.174 441.115 195.591 437.746 197.977C430.824 202.933 423.534 207.735 418.297 211.162C413.825 214.098 410.854 215.964 410.854 215.964C393.733 199.231 382.094 173.229 382.094 173.229C382.094 173.229 412.232 150.103 431.804 139.059C451.375 128.016 466.383 125.508 466.383 125.508H466.414Z" fill="url(#paint25_linear_601_28184)"/>
<path style="mix-blend-mode:multiply" opacity="0.5" d="M438.725 181.949L437.715 197.948C430.793 202.903 423.503 207.706 418.266 211.132L433.611 179.073L438.695 181.949H438.725Z" fill="url(#paint26_linear_601_28184)"/>
<path d="M485.098 325.571C472.786 307.676 440.932 316.547 430.396 320.463C425.648 322.329 417.195 461.057 415.419 528.571C415.357 531.599 419.798 650.138 424.301 718.63C429.875 720.007 448.314 721.353 462.923 720.68C469.355 668.676 480.902 557.112 470.917 534.322C474.011 524.319 481.515 492.474 487.671 465.34C490.091 454.572 492.327 444.569 493.95 436.921C495.451 429.977 496.523 424.991 496.798 423.278C497.503 419.454 497.993 414.406 498.391 408.655C499.953 383.449 497.932 344.354 485.098 325.571Z" fill="url(#paint27_linear_601_28184)"/>
<path d="M615.88 712.787C615.604 710.279 615.39 707.067 615.175 703.243C602.526 710.768 589.355 711.655 589.355 711.655C591.836 717.376 593.276 720.802 593.307 721.077C593.307 721.077 607.886 721.719 615.88 712.756V712.787Z" fill="url(#paint28_linear_601_28184)"/>
<path d="M616.736 702.632C611.928 666.443 593.397 561.028 569.017 537.84C567.761 516.518 571.804 421.81 572.111 413.305C573.183 381.124 559.829 339.919 543.075 325.357L469.383 326.887L490.547 422.574C497.99 452.37 505.647 518.048 517.102 547.476C518.082 549.984 569.017 682.687 582.647 714.195C582.647 714.195 593.979 712.788 604.117 709.912C614.991 706.823 616.736 702.632 616.736 702.632Z" fill="url(#paint29_linear_601_28184)"/>
<path d="M445.127 136.552C448.588 131.688 461.513 126.518 472.203 123.918C481.085 122.449 494.01 121.103 509.876 125.233C528.314 130.005 542.893 136.827 547.12 141.997C554.961 151.633 560.688 157.629 548.1 240.315C545.405 258.058 545.803 299.814 545.803 310.368C545.803 320.921 549.54 325.999 546.875 329.058C540.964 335.911 492.846 339.979 473.826 339.979C456.919 339.979 428.098 335.483 426.628 330.068C425.464 325.755 431.069 281.949 431.283 233.402C431.651 150.654 442.003 140.131 445.097 136.613L445.127 136.552Z" fill="url(#paint30_linear_601_28184)"/>
<path d="M476.615 139.152C476.615 139.152 454.41 270.019 453.981 285.589C453.552 301.19 469.877 330.833 472.174 330.833C477.228 330.833 486.692 307.829 489.663 287.945C492.603 268.03 486.6 139.947 486.6 139.947L476.615 139.152Z" fill="url(#paint31_linear_601_28184)"/>
<path d="M509.876 125.232C509.876 125.232 491.775 138.845 472.203 123.917C472.203 123.917 474.684 119.175 475.113 118.349C476.215 116.453 478.329 112.354 479.676 106.603C479.799 106.205 479.86 105.777 479.983 105.318C480.35 103.605 480.626 101.708 480.81 99.6892C481.147 96.2019 481.116 92.3474 480.504 88.1565L482.402 86.627L513.643 62.0933L517.196 59.3096C517.196 59.3096 516.155 65.2748 514.746 73.9931C513.95 78.9488 513.031 84.761 512.112 90.8791C510.305 103.329 509.937 125.202 509.937 125.202L509.876 125.232Z" fill="url(#paint32_linear_601_28184)"/>
<path style="mix-blend-mode:multiply" opacity="0.5" d="M502.862 91.6142C498.39 98.13 488.313 111.07 475.113 118.32C476.215 116.423 478.328 112.324 479.676 106.573C477.593 107.185 475.725 107.521 473.918 107.674C474.01 106.237 474.071 104.768 474.041 103.208L476.123 101.954L480.809 99.6595L505.465 87.668C505.465 87.668 504.577 89.1975 502.862 91.6142Z" fill="url(#paint33_linear_601_28184)"/>
<path d="M453.582 40.6797C453.582 40.6797 449.385 53.1912 459.095 61.6342L462.495 41.3526L453.582 40.6797Z" fill="url(#paint34_linear_601_28184)"/>
<path d="M507.948 85.3124C506.386 87.5149 504.671 89.6257 502.833 91.6141C499.832 94.9179 496.401 97.8851 492.695 100.394C487.917 103.636 483.568 105.533 479.647 106.573C477.565 107.185 475.696 107.521 473.889 107.674C465.589 108.378 460.75 105.196 460.75 105.196C452.97 93.6637 453.246 74.9422 455.022 60.7481C455.727 54.9971 456.676 50.0108 457.411 46.4929C458.085 43.3115 458.636 41.4455 458.636 41.4455C458.667 41.2925 458.667 41.2007 458.698 41.0783C462.067 22.7546 486.6 22.1121 503.476 32.4212C504.487 33.033 505.406 33.6754 506.325 34.379C511.011 37.744 514.901 42.0572 517.198 47.1353C521.149 55.7924 518.729 65.6426 514.686 74.0245C514.472 74.4833 514.258 74.9116 514.013 75.3705C512.114 79.1025 509.939 82.4981 507.918 85.343L507.948 85.3124Z" fill="url(#paint35_linear_601_28184)"/>
<path d="M509.417 24.4066C508.866 17.4625 504.731 12.8433 500.504 10.6714C483.566 1.92249 470.978 21.3781 452.05 14.2505C441.881 10.3961 442.8 39.1513 455.419 45.6365C468.895 52.55 480.473 51.0205 489.171 47.2884C488.957 50.4086 489.171 53.8654 490.703 56.3432C492.02 58.454 495.818 60.9012 497.962 62.1554C497.594 65.3369 497.349 68.243 497.319 70.4761L500.657 72.2809C501.331 71.1491 502.066 69.6196 502.954 67.6312C502.954 67.6312 506.048 59.8918 511.714 60.5953C517.319 61.2989 512.817 82.1311 512.051 90.9107C512.051 90.9107 524.946 81.7335 529.693 54.2937C533.95 29.8824 519.769 18.3191 509.417 24.4372V24.4066Z" fill="url(#paint36_linear_601_28184)"/>
<path d="M532.082 230.068C532.082 230.068 504.914 272.528 495.021 276.26C475.327 283.755 420.196 283.846 399.981 283.602C396.306 284.519 387.975 288.527 383.289 288.466C381.512 288.435 379.001 287.946 376.581 287.334C374.131 286.722 371.803 285.988 370.302 285.498C366.504 284.917 361.879 281.797 361.144 281.154C360.409 280.543 360.042 279.013 360.042 279.013C360.042 279.013 358.48 278.218 357.745 277.698C356.948 277.178 357.04 275.893 357.04 275.893C353.702 274.822 353.61 273.048 354.13 272.161C354.621 271.243 357.5 271.06 357.5 271.06C357.5 271.06 357.683 269.805 359.399 269.316C360.532 268.949 371.037 268.521 371.129 268.49C373.028 269.499 378.848 272.375 382.278 272.13C386.444 271.886 388.006 269.989 386.474 268.582C385.188 267.358 382.094 265.829 381.237 265.4C381.084 265.339 380.992 265.278 380.992 265.278C380.992 265.278 373.518 261.668 370.7 259.16C367.852 256.682 369.292 255.152 370.18 254.724C371.068 254.327 380.011 255.856 381.941 256.56C385.525 257.906 399.767 265.186 399.767 265.186L476.951 244.354L491.775 215.966L532.143 230.068H532.082Z" fill="url(#paint37_linear_601_28184)"/>
<path d="M527.394 247.748C527.394 247.748 519.921 248.635 498.91 235.695C491.314 231.015 483.289 222.847 483.289 222.847C490.579 207.98 496.245 196.508 514.989 158.943C523.259 142.332 542.034 141.965 542.034 141.965C542.034 141.965 556.889 147.594 556.889 177.114C556.889 200.638 540.626 225.478 527.394 247.717V247.748Z" fill="url(#paint38_linear_601_28184)"/>
<path style="mix-blend-mode:multiply" opacity="0.5" d="M493.948 436.922C492.325 444.57 490.12 454.542 487.67 465.341L484.086 393.392L493.948 436.922Z" fill="url(#paint39_linear_601_28184)"/>
<path d="M510.058 118.319C510.058 118.319 500.686 125.172 482.523 124.652L488.128 136.949C488.128 136.949 504.423 136.154 512.478 125.936L510.058 118.35V118.319Z" fill="url(#paint40_linear_601_28184)"/>
<path d="M474.344 119.788C474.344 119.788 476.611 123.611 482.522 124.652L476.151 134.808C476.151 134.808 472.169 132.146 470.699 124.284L474.344 119.788Z" fill="url(#paint41_linear_601_28184)"/>
<path d="M482.523 124.653L476.152 134.809L476.612 139.153L486.627 139.948L488.128 136.95L482.523 124.653Z" fill="url(#paint42_linear_601_28184)"/>
<defs>
<filter id="filter0_d_601_28184" x="377.105" y="725.673" width="86.8438" height="35.96" filterUnits="userSpaceOnUse" color-interpolation-filters="sRGB">
<feFlood flood-opacity="0" result="BackgroundImageFix"/>
<feColorMatrix in="SourceAlpha" type="matrix" values="0 0 0 0 0 0 0 0 0 0 0 0 0 0 0 0 0 0 127 0" result="hardAlpha"/>
<feOffset/>
<feGaussianBlur stdDeviation="2"/>
<feComposite in2="hardAlpha" operator="out"/>
<feColorMatrix type="matrix" values="0 0 0 0 0 0 0 0 0 0 0 0 0 0 0 0 0 0 0.25 0"/>
<feBlend mode="normal" in2="BackgroundImageFix" result="effect1_dropShadow_601_28184"/>
<feBlend mode="normal" in="SourceGraphic" in2="effect1_dropShadow_601_28184" result="shape"/>
</filter>
<filter id="filter1_d_601_28184" x="558.918" y="708.788" width="75.082" height="53.2129" filterUnits="userSpaceOnUse" color-interpolation-filters="sRGB">
<feFlood flood-opacity="0" result="BackgroundImageFix"/>
<feColorMatrix in="SourceAlpha" type="matrix" values="0 0 0 0 0 0 0 0 0 0 0 0 0 0 0 0 0 0 127 0" result="hardAlpha"/>
<feOffset/>
<feGaussianBlur stdDeviation="2"/>
<feComposite in2="hardAlpha" operator="out"/>
<feColorMatrix type="matrix" values="0 0 0 0 0 0 0 0 0 0 0 0 0 0 0 0 0 0 0.25 0"/>
<feBlend mode="normal" in2="BackgroundImageFix" result="effect1_dropShadow_601_28184"/>
<feBlend mode="normal" in="SourceGraphic" in2="effect1_dropShadow_601_28184" result="shape"/>
</filter>
<linearGradient id="paint0_linear_601_28184" x1="249.807" y1="694.095" x2="256.651" y2="736.497" gradientUnits="userSpaceOnUse">
<stop stop-color="#FFB8AB"/>
<stop offset="1" stop-color="#F99D8A"/>
</linearGradient>
<linearGradient id="paint1_linear_601_28184" x1="89.8362" y1="703.884" x2="82.5027" y2="738.67" gradientUnits="userSpaceOnUse">
<stop stop-color="#FFB8AB"/>
<stop offset="1" stop-color="#F99D8A"/>
</linearGradient>
<linearGradient id="paint2_linear_601_28184" x1="192.044" y1="390.728" x2="227.425" y2="736.411" gradientUnits="userSpaceOnUse">
<stop stop-color="#182C7E"/>
<stop offset="1" stop-color="#1A0048"/>
</linearGradient>
<linearGradient id="paint3_linear_601_28184" x1="169.23" y1="437.777" x2="175.218" y2="496.543" gradientUnits="userSpaceOnUse">
<stop stop-color="#182C7E"/>
<stop offset="1" stop-color="#1A0048"/>
</linearGradient>
<linearGradient id="paint4_linear_601_28184" x1="114.983" y1="401.465" x2="150.211" y2="745.527" gradientUnits="userSpaceOnUse">
<stop stop-color="#182C7E"/>
<stop offset="1" stop-color="#1A0048"/>
</linearGradient>
<linearGradient id="paint5_linear_601_28184" x1="333.884" y1="251.602" x2="394.614" y2="263.775" gradientUnits="userSpaceOnUse">
<stop stop-color="#FFB8AB"/>
<stop offset="1" stop-color="#F99D8A"/>
</linearGradient>
<linearGradient id="paint6_linear_601_28184" x1="290.647" y1="198.057" x2="87.6978" y2="396.282" gradientUnits="userSpaceOnUse">
<stop stop-color="#182C7E"/>
<stop offset="1" stop-color="#1A0048"/>
</linearGradient>
<linearGradient id="paint7_linear_601_28184" x1="173.049" y1="32.3416" x2="162.595" y2="139.482" gradientUnits="userSpaceOnUse">
<stop stop-color="#FFB8AB"/>
<stop offset="1" stop-color="#F99D8A"/>
</linearGradient>
<linearGradient id="paint8_linear_601_28184" x1="172.839" y1="35.602" x2="172.839" y2="140.161" gradientUnits="userSpaceOnUse">
<stop stop-color="#FFB8AB"/>
<stop offset="1" stop-color="#F99D8A"/>
</linearGradient>
<linearGradient id="paint9_linear_601_28184" x1="172.443" y1="-20.2868" x2="179.073" y2="82.4987" gradientUnits="userSpaceOnUse">
<stop stop-color="#3945BA"/>
<stop offset="1" stop-color="#0C176F"/>
</linearGradient>
<linearGradient id="paint10_linear_601_28184" x1="231.249" y1="742.369" x2="317.193" y2="742.369" gradientUnits="userSpaceOnUse">
<stop stop-color="#002E7E"/>
<stop offset="1" stop-color="#151A6D"/>
</linearGradient>
<linearGradient id="paint11_linear_601_28184" x1="41.9681" y1="744.846" x2="105.522" y2="744.846" gradientUnits="userSpaceOnUse">
<stop stop-color="#002E7E"/>
<stop offset="1" stop-color="#151A6D"/>
</linearGradient>
<linearGradient id="paint12_linear_601_28184" x1="152.871" y1="65.6707" x2="152.871" y2="65.9497" gradientUnits="userSpaceOnUse">
<stop stop-color="#FFB8AB"/>
<stop offset="1" stop-color="#F99D8A"/>
</linearGradient>
<linearGradient id="paint13_linear_601_28184" x1="134.741" y1="156.833" x2="243.346" y2="380.678" gradientUnits="userSpaceOnUse">
<stop stop-color="#6DB0FF"/>
<stop offset="1" stop-color="#4B56BB"/>
</linearGradient>
<linearGradient id="paint14_linear_601_28184" x1="137.801" y1="138.968" x2="183.376" y2="138.968" gradientUnits="userSpaceOnUse">
<stop stop-color="#B5D9F8"/>
<stop offset="1" stop-color="#8EC1F8"/>
</linearGradient>
<linearGradient id="paint15_linear_601_28184" x1="193.946" y1="120.185" x2="183.219" y2="155.677" gradientUnits="userSpaceOnUse">
<stop stop-color="#B5D9F8"/>
<stop offset="1" stop-color="#8EC1F8"/>
</linearGradient>
<linearGradient id="paint16_linear_601_28184" x1="174.034" y1="142.241" x2="187.3" y2="169.541" gradientUnits="userSpaceOnUse">
<stop stop-color="#6DB0FF"/>
<stop offset="1" stop-color="#4B56BB"/>
</linearGradient>
<linearGradient id="paint17_linear_601_28184" x1="166.252" y1="128.752" x2="166.252" y2="394.034" gradientUnits="userSpaceOnUse">
<stop stop-color="#182C7E"/>
<stop offset="1" stop-color="#1A0048"/>
</linearGradient>
<linearGradient id="paint18_linear_601_28184" x1="12.1617" y1="247.473" x2="385.768" y2="247.473" gradientUnits="userSpaceOnUse">
<stop stop-color="#182C7E"/>
<stop offset="1" stop-color="#1A0048"/>
</linearGradient>
<linearGradient id="paint19_linear_601_28184" x1="53.6272" y1="270.395" x2="129.278" y2="376.999" gradientUnits="userSpaceOnUse">
<stop stop-color="#B5D9F8"/>
<stop offset="1" stop-color="#8EC1F8"/>
</linearGradient>
<linearGradient id="paint20_linear_601_28184" x1="101.599" y1="372.16" x2="40.8448" y2="193.312" gradientUnits="userSpaceOnUse">
<stop stop-color="#FFB8AB"/>
<stop offset="1" stop-color="#F99D8A"/>
</linearGradient>
<linearGradient id="paint21_linear_601_28184" x1="57.4306" y1="128.751" x2="57.4306" y2="394.033" gradientUnits="userSpaceOnUse">
<stop stop-color="#182C7E"/>
<stop offset="1" stop-color="#1A0048"/>
</linearGradient>
<linearGradient id="paint22_linear_601_28184" x1="170.911" y1="143.189" x2="190.771" y2="347.203" gradientUnits="userSpaceOnUse">
<stop stop-color="#184AA7"/>
<stop offset="1" stop-color="#190E5B"/>
</linearGradient>
<linearGradient id="paint23_linear_601_28184" x1="464.086" y1="428.203" x2="268.864" y2="72.444" gradientUnits="userSpaceOnUse">
<stop stop-color="#FFC39A"/>
<stop offset="1" stop-color="#E8A38C"/>
</linearGradient>
<linearGradient id="paint24_linear_601_28184" x1="591.069" y1="724.993" x2="348.614" y2="724.993" gradientUnits="userSpaceOnUse">
<stop stop-color="#FCCFB0"/>
<stop offset="1" stop-color="#FCBA97"/>
</linearGradient>
<linearGradient id="paint25_linear_601_28184" x1="494.592" y1="277.635" x2="411.808" y2="126.767" gradientUnits="userSpaceOnUse">
<stop stop-color="#435FEA"/>
<stop offset="1" stop-color="#008EFF"/>
</linearGradient>
<linearGradient id="paint26_linear_601_28184" x1="445.464" y1="176.289" x2="414.27" y2="215.33" gradientUnits="userSpaceOnUse">
<stop stop-color="#FFC39A"/>
<stop offset="1" stop-color="#E8A38C"/>
</linearGradient>
<linearGradient id="paint27_linear_601_28184" x1="434.102" y1="293.726" x2="479.719" y2="719.376" gradientUnits="userSpaceOnUse">
<stop stop-color="#002E66"/>
<stop offset="1" stop-color="#1A0048"/>
</linearGradient>
<linearGradient id="paint28_linear_601_28184" x1="591.04" y1="712.175" x2="348.646" y2="712.175" gradientUnits="userSpaceOnUse">
<stop stop-color="#FCCFB0"/>
<stop offset="1" stop-color="#FCBA97"/>
</linearGradient>
<linearGradient id="paint29_linear_601_28184" x1="519.032" y1="291.004" x2="564.068" y2="711.27" gradientUnits="userSpaceOnUse">
<stop stop-color="#002E66"/>
<stop offset="1" stop-color="#1A0048"/>
</linearGradient>
<linearGradient id="paint30_linear_601_28184" x1="554.318" y1="357.722" x2="406.938" y2="89.1353" gradientUnits="userSpaceOnUse">
<stop stop-color="#435FEA"/>
<stop offset="1" stop-color="#008EFF"/>
</linearGradient>
<linearGradient id="paint31_linear_601_28184" x1="469.111" y1="121.318" x2="473.969" y2="354.816" gradientUnits="userSpaceOnUse">
<stop stop-color="#3945BA"/>
<stop offset="1" stop-color="#0C176F"/>
</linearGradient>
<linearGradient id="paint32_linear_601_28184" x1="450.212" y1="86.107" x2="517.284" y2="97.5447" gradientUnits="userSpaceOnUse">
<stop stop-color="#FFC39A"/>
<stop offset="1" stop-color="#E8A38C"/>
</linearGradient>
<linearGradient id="paint33_linear_601_28184" x1="473.887" y1="102.994" x2="505.435" y2="102.994" gradientUnits="userSpaceOnUse">
<stop stop-color="#FFC39A"/>
<stop offset="1" stop-color="#E8A38C"/>
</linearGradient>
<linearGradient id="paint34_linear_601_28184" x1="452.663" y1="51.1723" x2="462.495" y2="51.1723" gradientUnits="userSpaceOnUse">
<stop stop-color="#3945BA"/>
<stop offset="1" stop-color="#0C176F"/>
</linearGradient>
<linearGradient id="paint35_linear_601_28184" x1="455.512" y1="63.1648" x2="519.276" y2="74.0506" gradientUnits="userSpaceOnUse">
<stop stop-color="#FFC39A"/>
<stop offset="1" stop-color="#E8A38C"/>
</linearGradient>
<linearGradient id="paint36_linear_601_28184" x1="445.128" y1="49.6133" x2="530.459" y2="49.6133" gradientUnits="userSpaceOnUse">
<stop stop-color="#3945BA"/>
<stop offset="1" stop-color="#0C176F"/>
</linearGradient>
<linearGradient id="paint37_linear_601_28184" x1="353.885" y1="252.216" x2="532.082" y2="252.216" gradientUnits="userSpaceOnUse">
<stop stop-color="#FFC39A"/>
<stop offset="1" stop-color="#E8A38C"/>
</linearGradient>
<linearGradient id="paint38_linear_601_28184" x1="408.001" y1="101.44" x2="555.242" y2="215.958" gradientUnits="userSpaceOnUse">
<stop stop-color="#435FEA"/>
<stop offset="1" stop-color="#008EFF"/>
</linearGradient>
<linearGradient id="paint39_linear_601_28184" x1="478.297" y1="398.041" x2="493.026" y2="458.986" gradientUnits="userSpaceOnUse">
<stop stop-color="#2E2A87"/>
<stop offset="1" stop-color="#000E42"/>
</linearGradient>
<linearGradient id="paint40_linear_601_28184" x1="529.324" y1="117.004" x2="483.913" y2="131.966" gradientUnits="userSpaceOnUse">
<stop stop-color="#435FEA"/>
<stop offset="1" stop-color="#008EFF"/>
</linearGradient>
<linearGradient id="paint41_linear_601_28184" x1="489.75" y1="122.51" x2="471.469" y2="128.55" gradientUnits="userSpaceOnUse">
<stop stop-color="#435FEA"/>
<stop offset="1" stop-color="#008EFF"/>
</linearGradient>
<linearGradient id="paint42_linear_601_28184" x1="481.88" y1="123.215" x2="482.277" y2="141.937" gradientUnits="userSpaceOnUse">
<stop stop-color="#3945BA"/>
<stop offset="1" stop-color="#0C176F"/>
</linearGradient>
</defs>
</svg>
