<svg width="26" height="26" viewBox="0 0 26 26" fill="none" xmlns="http://www.w3.org/2000/svg">
<path d="M20.3813 25.2495C19.3138 25.2495 17.8143 24.8634 15.5688 23.6089C12.8383 22.0776 10.7263 20.6639 8.01049 17.9553C5.39205 15.3385 4.11783 13.6443 2.33447 10.3991C0.319786 6.73504 0.663223 4.81441 1.04713 3.99356C1.50432 3.01246 2.17916 2.42566 3.05143 1.84324C3.54687 1.51864 4.07117 1.24038 4.61768 1.01199C4.67236 0.988477 4.72322 0.966055 4.76861 0.945821C5.03932 0.823868 5.44947 0.639571 5.96901 0.836446C6.31572 0.966602 6.62526 1.23293 7.10979 1.71145C8.10346 2.69145 9.46135 4.87402 9.96229 5.9459C10.2986 6.66832 10.5212 7.1452 10.5217 7.68004C10.5217 8.30621 10.2067 8.7891 9.82447 9.31027C9.75283 9.40816 9.68174 9.50168 9.61283 9.59246C9.19666 10.1393 9.10533 10.2974 9.16549 10.5796C9.28744 11.1467 10.1969 12.8349 11.6915 14.3262C13.1861 15.8175 14.8256 16.6696 15.3949 16.791C15.6892 16.8539 15.8505 16.7587 16.4149 16.3278C16.4958 16.266 16.5789 16.202 16.6659 16.138C17.2488 15.7043 17.7093 15.3975 18.3207 15.3975H18.324C18.8561 15.3975 19.3117 15.6283 20.0663 16.0089C21.0507 16.5055 23.2989 17.8459 24.2849 18.8407C24.7646 19.3241 25.032 19.6325 25.1627 19.9787C25.3596 20.4999 25.1742 20.9084 25.0533 21.1818C25.0331 21.2272 25.0106 21.277 24.9871 21.3322C24.7569 21.8778 24.477 22.401 24.151 22.8952C23.5696 23.7647 22.9806 24.4379 21.9974 24.8957C21.4924 25.1345 20.9399 25.2555 20.3813 25.2495Z" fill="white"/>
</svg>
