<svg width="40" height="40" viewBox="0 0 40 40" fill="none" xmlns="http://www.w3.org/2000/svg">
<rect width="40" height="40" rx="20" fill="white"/>
<rect width="40" height="40" rx="20" fill="url(#paint0_linear_603_15705)"/>
<path d="M32.2035 12.9993C31.3052 13.4077 30.3369 13.676 29.3335 13.8043C30.3602 13.186 31.1535 12.206 31.5269 11.0277C30.5585 11.611 29.4852 12.0193 28.3535 12.2527C27.4319 11.2493 26.1369 10.666 24.6669 10.666C21.9252 10.666 19.6852 12.906 19.6852 15.671C19.6852 16.0677 19.7319 16.4527 19.8135 16.8144C15.6602 16.6044 11.9619 14.6093 9.50021 11.5877C9.06854 12.3227 8.82354 13.186 8.82354 14.096C8.82354 15.8343 9.69854 17.3743 11.0519 18.2493C10.2235 18.2493 9.45354 18.016 8.77688 17.666V17.701C8.77688 20.1277 10.5035 22.1577 12.7902 22.6127C12.0561 22.8136 11.2853 22.8415 10.5385 22.6944C10.8554 23.6889 11.476 24.5592 12.3131 25.1828C13.1501 25.8064 14.1616 26.152 15.2052 26.171C13.4361 27.5715 11.2432 28.3286 8.98687 28.3177C8.59021 28.3177 8.19354 28.2943 7.79688 28.2477C10.0135 29.671 12.6502 30.4993 15.4735 30.4993C24.6669 30.4993 29.7185 22.8693 29.7185 16.2543C29.7185 16.0327 29.7185 15.8227 29.7069 15.601C30.6869 14.901 31.5269 14.0143 32.2035 12.9993Z" fill="white"/>
<defs>
<linearGradient id="paint0_linear_603_15705" x1="0" y1="20" x2="40" y2="20" gradientUnits="userSpaceOnUse">
<stop stop-color="#FF3934"/>
<stop offset="1" stop-color="#FF7033"/>
</linearGradient>
</defs>
</svg>
