<svg width="70" height="70" viewBox="0 0 70 70" fill="none" xmlns="http://www.w3.org/2000/svg">
<g filter="url(#filter0_d_581_26366)">
<circle cx="35" cy="35" r="25" fill="white"/>
</g>
<path fill-rule="evenodd" clip-rule="evenodd" d="M35.7563 38.6946C35.5592 38.8901 35.2917 39 35.0129 39C34.7341 39 34.4667 38.8901 34.2695 38.6946L28.321 32.7935C28.2206 32.6972 28.1405 32.5821 28.0854 32.4549C28.0303 32.3276 28.0013 32.1907 28 32.0522C27.9988 31.9137 28.0254 31.7763 28.0783 31.6481C28.1312 31.5199 28.2093 31.4035 28.308 31.3055C28.4067 31.2076 28.5241 31.1301 28.6533 31.0777C28.7826 31.0252 28.921 30.9988 29.0607 31C29.2003 31.0012 29.3383 31.03 29.4666 31.0847C29.5948 31.1394 29.7109 31.2188 29.8079 31.3185L35.0129 36.4821L40.218 31.3185C40.4163 31.1284 40.6819 31.0233 40.9576 31.0257C41.2333 31.0281 41.4971 31.1378 41.692 31.3312C41.887 31.5246 41.9976 31.7862 42 32.0597C42.0024 32.3332 41.8964 32.5967 41.7048 32.7935L35.7563 38.6946Z" fill="#292F3B"/>
<path fill-rule="evenodd" clip-rule="evenodd" d="M35.7563 38.6946C35.5592 38.8901 35.2917 39 35.0129 39C34.7341 39 34.4667 38.8901 34.2695 38.6946L28.321 32.7935C28.2206 32.6972 28.1405 32.5821 28.0854 32.4549C28.0303 32.3276 28.0013 32.1907 28 32.0522C27.9988 31.9137 28.0254 31.7763 28.0783 31.6481C28.1312 31.5199 28.2093 31.4035 28.308 31.3055C28.4067 31.2076 28.5241 31.1301 28.6533 31.0777C28.7826 31.0252 28.921 30.9988 29.0607 31C29.2003 31.0012 29.3383 31.03 29.4666 31.0847C29.5948 31.1394 29.7109 31.2188 29.8079 31.3185L35.0129 36.4821L40.218 31.3185C40.4163 31.1284 40.6819 31.0233 40.9576 31.0257C41.2333 31.0281 41.4971 31.1378 41.692 31.3312C41.887 31.5246 41.9976 31.7862 42 32.0597C42.0024 32.3332 41.8964 32.5967 41.7048 32.7935L35.7563 38.6946Z" fill="url(#paint0_linear_581_26366)"/>
<defs>
<filter id="filter0_d_581_26366" x="0" y="0" width="70" height="70" filterUnits="userSpaceOnUse" color-interpolation-filters="sRGB">
<feFlood flood-opacity="0" result="BackgroundImageFix"/>
<feColorMatrix in="SourceAlpha" type="matrix" values="0 0 0 0 0 0 0 0 0 0 0 0 0 0 0 0 0 0 127 0" result="hardAlpha"/>
<feOffset/>
<feGaussianBlur stdDeviation="5"/>
<feComposite in2="hardAlpha" operator="out"/>
<feColorMatrix type="matrix" values="0 0 0 0 0 0 0 0 0 0 0 0 0 0 0 0 0 0 0.25 0"/>
<feBlend mode="normal" in2="BackgroundImageFix" result="effect1_dropShadow_581_26366"/>
<feBlend mode="normal" in="SourceGraphic" in2="effect1_dropShadow_581_26366" result="shape"/>
</filter>
<linearGradient id="paint0_linear_581_26366" x1="28" y1="35" x2="42" y2="35" gradientUnits="userSpaceOnUse">
<stop stop-color="#FF3934"/>
<stop offset="1" stop-color="#FF7033"/>
</linearGradient>
</defs>
</svg>
