<svg width="40" height="40" viewBox="0 0 40 40" fill="none" xmlns="http://www.w3.org/2000/svg">
<path d="M33.3828 11.2773C33.6172 11.5117 33.75 11.8281 33.75 12.1602V36.25C33.75 36.9414 33.1914 37.5 32.5 37.5H7.5C6.80859 37.5 6.25 36.9414 6.25 36.25V3.75C6.25 3.05859 6.80859 2.5 7.5 2.5H24.0898C24.4219 2.5 24.7422 2.63281 24.9766 2.86719L33.3828 11.2773ZM30.8672 12.7344L23.5156 5.38281V12.7344H30.8672ZM24.7352 24.893C24.1422 24.8734 23.5117 24.9191 22.7957 25.0086C21.8465 24.423 21.2074 23.6188 20.7535 22.4371L20.7953 22.266L20.8437 22.0637C21.0117 21.3555 21.102 20.8387 21.1289 20.3176C21.1492 19.9242 21.1273 19.5613 21.0574 19.225C20.9285 18.4988 20.4148 18.0742 19.7676 18.048C19.1641 18.0234 18.6094 18.3605 18.4676 18.8828C18.2367 19.7273 18.3719 20.8387 18.8613 22.734C18.2379 24.2203 17.4141 25.9629 16.8613 26.9348C16.1234 27.3152 15.5488 27.6613 15.066 28.0449C14.4293 28.5516 14.0316 29.0723 13.9223 29.6191C13.8691 29.8727 13.9492 30.2039 14.1316 30.4754C14.3387 30.7832 14.6504 30.9832 15.0242 31.0121C15.9676 31.0852 17.127 30.1125 18.407 27.916C18.5355 27.873 18.6715 27.8277 18.8375 27.7715L19.3023 27.6145C19.5965 27.5152 19.8098 27.4441 20.0207 27.3758C20.9348 27.0781 21.6262 26.8902 22.2551 26.7832C23.348 27.3684 24.6113 27.752 25.4621 27.752C26.1645 27.752 26.6391 27.3879 26.8105 26.8148C26.9609 26.3117 26.8418 25.7281 26.5184 25.4055C26.184 25.077 25.5691 24.9199 24.7352 24.893ZM15.048 29.9094V29.8953L15.0531 29.882C15.1103 29.7343 15.1836 29.5933 15.2719 29.4617C15.4391 29.2047 15.6691 28.9344 15.9543 28.6465C16.1074 28.4922 16.2668 28.3418 16.4539 28.173C16.4957 28.1355 16.7629 27.8977 16.8129 27.8508L17.2492 27.4445L16.932 27.9496C16.4508 28.7168 16.0156 29.2691 15.643 29.6293C15.5059 29.7621 15.3852 29.8598 15.2875 29.9227C15.2553 29.9442 15.2211 29.9628 15.1855 29.9781C15.1695 29.9848 15.1555 29.9887 15.1414 29.9898C15.1266 29.9917 15.1115 29.9897 15.0977 29.984C15.083 29.9778 15.0704 29.9675 15.0616 29.9542C15.0527 29.9409 15.048 29.9253 15.048 29.9094ZM19.9676 21.3828L19.8793 21.5391L19.8246 21.368C19.7035 20.984 19.6145 20.4055 19.5898 19.8836C19.5617 19.2898 19.609 18.9336 19.7965 18.9336C20.0598 18.9336 20.1805 19.3555 20.1898 19.9902C20.1984 20.548 20.1105 21.1285 19.9672 21.3828H19.9676ZM19.7406 23.6664L19.8004 23.5082L19.882 23.6566C20.3387 24.4863 20.9313 25.1785 21.5828 25.6609L21.7234 25.7648L21.552 25.8C20.9141 25.932 20.3199 26.1305 19.5074 26.4582C19.5922 26.4238 18.6629 26.8043 18.4277 26.8945L18.2227 26.973L18.332 26.7824C18.8145 25.9426 19.2602 24.934 19.7402 23.6664H19.7406ZM25.8977 26.6453C25.5906 26.7664 24.9297 26.6582 23.766 26.1613L23.4707 26.0355L23.791 26.0121C24.7012 25.9445 25.3457 25.9945 25.7215 26.132C25.8816 26.1906 25.9883 26.2645 26.0355 26.3488C26.0604 26.3888 26.0688 26.4368 26.0589 26.4828C26.049 26.5288 26.0215 26.5692 25.9824 26.5953C25.9576 26.6172 25.9288 26.6342 25.8977 26.6453Z" fill="white"/>
</svg>
