<svg width="40" height="40" viewBox="0 0 40 40" fill="none" xmlns="http://www.w3.org/2000/svg">
<rect width="40" height="40" rx="20" fill="white"/>
<rect width="40" height="40" rx="20" fill="url(#paint0_linear_441_11172)"/>
<path d="M20.2873 10.666C20.9103 10.6695 22.4689 10.6847 24.1256 10.7512L24.7136 10.7768C26.3808 10.855 28.0468 10.9903 28.8739 11.2202C29.9764 11.5305 30.8421 12.4335 31.1349 13.5792C31.6016 15.3992 31.6599 18.9482 31.6669 19.808L31.6681 19.9853V20.1883C31.6599 21.0482 31.6016 24.5983 31.1349 26.4172C30.8386 27.5663 29.9718 28.4705 28.8739 28.7762C28.0468 29.006 26.3808 29.1413 24.7136 29.2195L24.1256 29.2463C22.4689 29.3117 20.9103 29.328 20.2873 29.3303L20.0131 29.3315H19.7156C18.3973 29.3233 12.8836 29.2638 11.1289 28.7762C10.0276 28.4658 9.16077 27.5628 8.86794 26.4172C8.40127 24.5972 8.34294 21.0482 8.33594 20.1883V19.808C8.34294 18.9482 8.40127 15.398 8.86794 13.5792C9.16427 12.43 10.0311 11.5258 11.1301 11.2213C12.8836 10.7325 18.3984 10.673 19.7168 10.666H20.2873ZM17.6681 15.916V24.0827L24.6681 19.9993L17.6681 15.916Z" fill="white"/>
<defs>
<linearGradient id="paint0_linear_441_11172" x1="0" y1="20" x2="40" y2="20" gradientUnits="userSpaceOnUse">
<stop stop-color="#FF3934"/>
<stop offset="1" stop-color="#FF7033"/>
</linearGradient>
</defs>
</svg>
